<svg xmlns="http://www.w3.org/2000/svg" viewBox="0 0 22 22"><defs><style>.cls-1{fill:blue;}</style></defs><title>etat</title><g id="Warstwa_2" data-name="Warstwa 2"><g id="Modale"><path class="cls-1" d="M13.5,3.63V0h-5V3.61A8.2,8.2,0,0,1,11,3.16,8.14,8.14,0,0,1,13.5,3.63Z"/><path class="cls-1" d="M7.55,4C6.7,3.16,5.84,2.31,5,1.45L1.45,5C2.31,5.84,3.16,6.7,4,7.55A8,8,0,0,1,7.55,4Z"/><path class="cls-1" d="M18,7.5,20.55,5,17,1.45,14.44,4A8.06,8.06,0,0,1,18,7.5Z"/><path class="cls-1" d="M3.16,11a8.2,8.2,0,0,1,.45-2.5H0v5H3.54A7.12,7.12,0,0,1,3.16,11Z"/><path class="cls-1" d="M11,4.32A6.74,6.74,0,0,0,4.32,11,6.78,6.78,0,0,0,11,17.68,6.74,6.74,0,0,0,17.68,11,6.74,6.74,0,0,0,11,4.32Zm.58,6.58a.44.44,0,0,1-.44.44H8.25a.44.44,0,0,1-.43-.44v-.29a.43.43,0,0,1,.43-.43h2.17v-4a.44.44,0,0,1,.44-.44h.28a.44.44,0,0,1,.44.44Z"/><path class="cls-1" d="M14.5,18,17,20.55,20.55,17c-.86-.86-1.72-1.71-2.57-2.57A8.06,8.06,0,0,1,14.5,18Z"/><path class="cls-1" d="M18.46,8.5a7.12,7.12,0,0,1,.38,2.5,8.14,8.14,0,0,1-.47,2.5H22v-5Z"/><path class="cls-1" d="M8.5,18.37V22h5V18.46a7.12,7.12,0,0,1-2.5.38A8.14,8.14,0,0,1,8.5,18.37Z"/><path class="cls-1" d="M4,14.5,1.45,17,5,20.55c.86-.86,1.71-1.72,2.57-2.57A8.06,8.06,0,0,1,4,14.5Z"/></g></g></svg>