<svg xmlns="http://www.w3.org/2000/svg" viewBox="0 0 22 22"><defs><style>.cls-1{fill:blue;}</style></defs><title>oferta</title><g id="Warstwa_2" data-name="Warstwa 2"><g id="Modale"><path class="cls-1" d="M15.16,17.12a2.37,2.37,0,1,1-2.37-2.37A2.36,2.36,0,0,1,15.16,17.12Z"/><path class="cls-1" d="M15.16,10.69a2.37,2.37,0,1,1-2.37-2.37A2.38,2.38,0,0,1,15.16,10.69Z"/><path class="cls-1" d="M9,9.07v6a.35.35,0,0,1-.35.34H7.29v6.26a.35.35,0,0,1-.35.34H2.06a.34.34,0,0,1-.34-.34V15.4H.34A.34.34,0,0,1,0,15.06v-6A2.61,2.61,0,0,1,2.61,6.46H6.39A2.61,2.61,0,0,1,9,9.07Z"/><path class="cls-1" d="M1.65,2.89A2.88,2.88,0,0,1,4.5,0,2.91,2.91,0,0,1,7.39,2.89,2.9,2.9,0,0,1,4.5,5.77,2.89,2.89,0,0,1,1.65,2.89Z"/><path class="cls-1" d="M15.23,2.61a.33.33,0,0,1,0,.48L12.41,5.91a.32.32,0,0,1-.48,0L10.38,4.37a.34.34,0,0,1,0-.49.34.34,0,0,1,.48,0l1.31,1.31,2.58-2.58A.42.42,0,0,1,15.23,2.61Z"/><path class="cls-1" d="M22,17.77a.35.35,0,0,1-.34.35H16.84a.35.35,0,0,1,0-.69h4.82A.34.34,0,0,1,22,17.77Z"/><path class="cls-1" d="M22,16.43a.34.34,0,0,1-.34.34H16.84a.34.34,0,0,1-.34-.34.34.34,0,0,1,.34-.34h4.82A.34.34,0,0,1,22,16.43Z"/><path class="cls-1" d="M22,11.34a.35.35,0,0,1-.34.35H16.84a.35.35,0,0,1,0-.69h4.82A.36.36,0,0,1,22,11.34Z"/><path class="cls-1" d="M22,10a.35.35,0,0,1-.34.35H16.84a.35.35,0,0,1,0-.69h4.82A.36.36,0,0,1,22,10Z"/><path class="cls-1" d="M22,5a.34.34,0,0,1-.34.34H16.84A.34.34,0,0,1,16.5,5a.34.34,0,0,1,.34-.34h4.82A.32.32,0,0,1,22,5Z"/><path class="cls-1" d="M16.5,3.61a.34.34,0,0,1,.34-.34h4.82a.34.34,0,0,1,.34.34.34.34,0,0,1-.34.34H16.84A.34.34,0,0,1,16.5,3.61Z"/></g></g></svg>