<svg xmlns="http://www.w3.org/2000/svg" viewBox="0 0 20 17.65"><defs><style>.cls-1{fill:blue;}</style></defs><title>opis</title><g id="Warstwa_2" data-name="Warstwa 2"><g id="Modale"><path class="cls-1" d="M18.85,2.79H14.39V2.11A2.1,2.1,0,0,0,12.28,0H7.67a2.1,2.1,0,0,0-2.1,2.11v.68H1.15A1.15,1.15,0,0,0,0,4V16.5a1.14,1.14,0,0,0,1.15,1.15h17.7A1.14,1.14,0,0,0,20,16.5V3.92A1.14,1.14,0,0,0,18.85,2.79ZM6.5,13.55H5.21V12.26H6.5Zm0-2.6H5.21V9.67H6.5Zm0-2.66H5.21V7H6.5Zm.37-6.21a.84.84,0,0,1,.82-.82h4.59a.83.83,0,0,1,.82.82v.69H6.87Zm7.7,11.29H7.89v-.93h6.68Zm0-2.59H7.89V9.84h6.68Zm0-2.66H7.89V7.18h6.68Z"/></g></g></svg>