<svg xmlns="http://www.w3.org/2000/svg" viewBox="0 0 19.48 18.84"><defs><style>.cls-1{fill:blue;}</style></defs><title>Zasób 4</title><g id="Warstwa_2" data-name="Warstwa 2"><g id="Modale"><path class="cls-1" d="M3.08,5.23A2.62,2.62,0,1,0,.47,2.61,2.62,2.62,0,0,0,3.08,5.23Z"/><path class="cls-1" d="M4.93,5.48H1.23A1.23,1.23,0,0,0,0,6.71v5.47a1.24,1.24,0,0,0,1.23,1.24h.36v4.15a1.4,1.4,0,0,0,1.49,1.27,1.4,1.4,0,0,0,1.5-1.27V13.42h.35a1.25,1.25,0,0,0,1.24-1.24V6.71A1.24,1.24,0,0,0,4.93,5.48Z"/><path class="cls-1" d="M9.74,5.23A2.62,2.62,0,1,0,7.13,2.61,2.62,2.62,0,0,0,9.74,5.23Z"/><path class="cls-1" d="M11.59,5.48H7.89A1.23,1.23,0,0,0,6.66,6.71v5.47a1.24,1.24,0,0,0,1.23,1.24h.36v4.15a1.4,1.4,0,0,0,1.49,1.27,1.4,1.4,0,0,0,1.5-1.27V13.42h.35a1.24,1.24,0,0,0,1.23-1.24V6.71A1.23,1.23,0,0,0,11.59,5.48Z"/><path class="cls-1" d="M16.4,5.23a2.62,2.62,0,1,0-2.61-2.62A2.61,2.61,0,0,0,16.4,5.23Z"/><path class="cls-1" d="M18.25,5.48h-3.7a1.23,1.23,0,0,0-1.23,1.23v5.47a1.24,1.24,0,0,0,1.23,1.24h.36v4.15a1.4,1.4,0,0,0,1.49,1.27,1.39,1.39,0,0,0,1.49-1.27V13.42h.36a1.24,1.24,0,0,0,1.23-1.24V6.71A1.23,1.23,0,0,0,18.25,5.48Z"/></g></g></svg>