<svg id="Warstwa_1" data-name="Warstwa 1" xmlns="http://www.w3.org/2000/svg" viewBox="0 0 177.17 47.85"><title>accenture</title><polygon points="103.26 13.37 113.46 9.49 103.26 5.41 103.26 0 120.73 7.21 120.73 11.69 103.26 18.94 103.26 13.37" fill="#fff"/><path d="M974.45,193.41c-3.67,0-6.72-1.92-6.72-6.17V187c0-5.16,4.38-6.85,9.65-6.85h2.54v-1c0-2.08-.9-3.36-3-3.36a2.83,2.83,0,0,0-3.09,2.72h-5.47c0.39-4.65,4-6.93,8.83-6.93s8.44,2.16,8.44,7.37v14H980v-2.4a6.43,6.43,0,0,1-5.59,2.84m5.47-7.41v-2h-2.27c-2.82,0-4.26.8-4.26,2.68v0.2c0,1.44.86,2.44,2.77,2.44s3.75-1.12,3.75-3.32m18.64,7.41c-5.67,0-9.77-3.6-9.77-10.69v-0.28c0-7.09,4.38-10.85,9.81-10.85,4.65,0,8.48,2.4,9,7.89h-5.47c-0.35-2-1.37-3.36-3.36-3.36-2.42,0-4.1,2-4.1,6.08v0.64c0,4.24,1.48,6.17,4.14,6.17,2,0,3.4-1.48,3.71-3.77h5.2c-0.39,4.77-3.56,8.17-9.11,8.17m21.26,0c-5.67,0-9.77-3.6-9.77-10.69v-0.28c0-7.09,4.38-10.85,9.81-10.85,4.65,0,8.48,2.4,8.95,7.89h-5.47c-0.35-2-1.37-3.36-3.36-3.36-2.42,0-4.1,2-4.1,6.08v0.64c0,4.24,1.48,6.17,4.14,6.17,2,0,3.4-1.48,3.71-3.77h5.2c-0.39,4.77-3.56,8.17-9.11,8.17m21.42,0c-5.9,0-9.92-3.6-9.92-10.57v-0.4c0-7,4.26-10.85,9.73-10.85,5.08,0,9.34,2.92,9.34,9.85V184h-13.29c0.23,3.76,1.8,5.2,4.26,5.2a3.54,3.54,0,0,0,3.75-2.72h5.28c-0.62,4-3.79,7-9.15,7m-4.06-13.33h7.66c-0.12-3.08-1.48-4.4-3.75-4.4-1.8,0-3.44,1-3.91,4.4m16.73-8h5.71v3.12a6.62,6.62,0,0,1,6.17-3.56c3.71,0,6.18,2.28,6.18,7.37v14h-5.71V179.84c0-2.44-1-3.52-3-3.52s-3.59,1.24-3.59,3.88V193h-5.71V172Zm28.73-6.33V172h3.91v4.36h-3.91v9.93c0,1.56.7,2.28,2,2.28a4.85,4.85,0,0,0,2-.36v4.56a11.31,11.31,0,0,1-3.2.44c-4.45,0-6.57-2.08-6.57-6.32V176.39h-2.38V172h2.38v-3.93ZM1108,193h-5.71v-3.08a6.21,6.21,0,0,1-5.94,3.52c-3.67,0-6.37-2.28-6.37-7.21V172h5.74v13.29c0,2.4.94,3.52,3,3.52s3.6-1.28,3.6-3.88V172H1108V193Zm4.14-20.94h5.71v3.84a6.09,6.09,0,0,1,6.14-4.12v5.76c-3.87,0-6.14,1.2-6.14,4.68V193h-5.71V172Zm23.57,21.38c-5.9,0-9.93-3.6-9.93-10.57v-0.4c0-7,4.26-10.85,9.73-10.85,5.08,0,9.34,2.92,9.34,9.85V184h-13.29c0.23,3.76,1.79,5.2,4.26,5.2a3.54,3.54,0,0,0,3.75-2.72h5.28c-0.62,4-3.79,7-9.15,7m-4.06-13.33h7.66c-0.12-3.08-1.48-4.4-3.75-4.4-1.8,0-3.44,1-3.91,4.4" transform="translate(-967.73 -145.56)" fill="#fff"/></svg>