<svg id="Warstwa_1" data-name="Warstwa 1" xmlns="http://www.w3.org/2000/svg" viewBox="0 0 325.48 335.5"><title>agenda</title><polygon points="265.45 247.82 265.38 247.82 261.77 249.98 261.12 247.81 265.66 245.12 268.11 245.01 269.05 266.28 266.27 266.4 265.45 247.82" fill="#47FF3F"/><polygon points="119.12 27.45 117.75 27.4 123.94 12.79 125.32 12.83 119.12 27.45" fill="#0f8f68"/><polygon points="126.12 27.67 124.76 27.63 130.94 13.02 132.33 13.06 126.12 27.67" fill="#0f8f68"/><polygon points="174.46 334.41 173.09 334.37 179.27 319.76 180.66 319.8 174.46 334.41" fill="#184b3b"/><polygon points="181.46 334.64 180.09 334.6 186.28 319.99 187.66 320.03 181.46 334.64" fill="#184b3b"/><polygon points="30.11 69.87 28.74 69.82 34.92 55.21 36.31 55.25 30.11 69.87" fill="#184b3b"/><polygon points="37.11 70.1 35.74 70.05 41.92 55.44 43.31 55.48 37.11 70.1" fill="#184b3b"/><path d="M1375.88,2915.12v-1.77l2.24-2.21c5.4-5.21,7.84-8,7.85-11.19,0-2.16-1.08-4.15-4.25-4.13a7.25,7.25,0,0,0-4.51,1.83l-0.93-2a9.33,9.33,0,0,1,6-2.2c4.58,0,6.54,3.1,6.56,6.14,0,3.93-2.8,7.13-7.26,11.48l-1.69,1.58v0.06l9.56-.07,0,2.39Z" transform="translate(-1204.13 -2852.81)" fill="#47FF3F"/><path d="M1244.24,2951.21c0-2.68,1.57-4.59,4.18-5.73l0-.1a5.28,5.28,0,0,1-3.41-4.76c0-3.37,2.81-5.68,6.54-5.71,4.13,0,6.21,2.54,6.23,5.2,0,1.8-.86,3.74-3.47,5v0.1c2.66,1,4.31,2.89,4.33,5.47,0,3.7-3.14,6.21-7.2,6.24-4.45,0-7.16-2.6-7.18-5.71m11.46-.21c0-2.59-1.83-3.82-4.71-4.62-2.48.74-3.81,2.38-3.8,4.41a3.93,3.93,0,0,0,4.28,4c2.59,0,4.25-1.63,4.23-3.83m-8-10.59c0,2.13,1.63,3.26,4.09,3.9,1.83-.63,3.23-2,3.21-3.89a3.31,3.31,0,0,0-3.63-3.45,3.39,3.39,0,0,0-3.68,3.43" transform="translate(-1204.13 -2852.81)" fill="#47FF3F"/><path d="M1247.32,3083.65c-2.19,0-4.55.47-4.55,2.6a1.85,1.85,0,0,0,2,2,2.85,2.85,0,0,0,2.77-1.93,2.11,2.11,0,0,0,.12-0.67v-2h-0.31m-3.13,6.13a3.27,3.27,0,0,1-3.51-3.29c0-2.76,2.44-4.29,6.83-4.29h0.06V3082a2.36,2.36,0,0,0-2.6-2.65h0a5.69,5.69,0,0,0-3,.86l-0.48-1.38a7.17,7.17,0,0,1,3.77-1h0c3.49,0,4.35,2.39,4.36,4.69v4.29a16.14,16.14,0,0,0,.2,2.75H1248l-0.17-1.44h-0.07a4.27,4.27,0,0,1-3.51,1.72h0" transform="translate(-1204.13 -2852.81)" fill="#137154"/><polygon points="207.06 301.14 193.25 308.67 193.2 306.58 204.93 300.38 204.92 300.32 192.9 294.71 192.85 292.63 207.01 299.45 207.06 301.14" fill="#47FF3F"/><path d="M1471.6,3040a14.91,14.91,0,0,0-2.23,9.42,15.24,15.24,0,0,0,3.45,9l-1.56.1a14.61,14.61,0,0,1-3.56-9,14.9,14.9,0,0,1,2.34-9.42Z" transform="translate(-1204.13 -2852.81)" fill="#47FF3F"/><path d="M1473.72,3058.3a15.31,15.31,0,0,0,2.23-9.41,15,15,0,0,0-3.45-9l1.54-.1a14.39,14.39,0,0,1,3.56,9,14.67,14.67,0,0,1-2.34,9.4Z" transform="translate(-1204.13 -2852.81)" fill="#47FF3F"/><path d="M1280.46,3187.32a14.62,14.62,0,0,1-3-9.16,14.93,14.93,0,0,1,2.91-9.26h1.56a14.9,14.9,0,0,0-2.79,9.26,15.23,15.23,0,0,0,2.91,9.16h-1.56" transform="translate(-1204.13 -2852.81)" fill="#1b352d"/><path d="M1282.92,3187.3a15.31,15.31,0,0,0,2.79-9.26,15,15,0,0,0-2.91-9.16h1.54a14.42,14.42,0,0,1,3,9.18,14.7,14.7,0,0,1-2.9,9.24h-1.54" transform="translate(-1204.13 -2852.81)" fill="#1b352d"/><path d="M1496.36,3030.14a14.6,14.6,0,0,1-3.56-9,14.9,14.9,0,0,1,2.34-9.42l1.56-.1a14.89,14.89,0,0,0-2.23,9.41,15.22,15.22,0,0,0,3.45,9l-1.56.1" transform="translate(-1204.13 -2852.81)" fill="#0f8f68"/><path d="M1498.82,3030a15.29,15.29,0,0,0,2.23-9.41,15,15,0,0,0-3.45-9l1.54-.1a14.38,14.38,0,0,1,3.56,9,14.65,14.65,0,0,1-2.34,9.4l-1.53.1" transform="translate(-1204.13 -2852.81)" fill="#0f8f68"/><polygon points="90.04 54.74 99.45 49.08 99.55 50.52 91.61 55.19 91.61 55.23 100.1 58.8 100.19 60.25 90.12 55.87 90.04 54.74" fill="#47FF3F"/><polygon points="101.61 61 106.47 45.38 107.89 45.29 103.02 60.9 101.61 61" fill="#47FF3F"/><polygon points="119.58 53.94 110.17 59.59 110.08 58.14 118.08 53.47 118.07 53.43 109.53 49.86 109.43 48.41 119.51 52.77 119.58 53.94" fill="#47FF3F"/><path d="M1489.75,3073.93c-1.9,0-3,1.67-3.06,3.91,0,2.06,1,3.78,3,3.8h0a2.78,2.78,0,0,0,2.7-2.18,3.2,3.2,0,0,0,.09-0.8l0-1.77a3.32,3.32,0,0,0-.07-0.78,2.73,2.73,0,0,0-2.65-2.17h0m-0.58,9.19h0c-2.46,0-4.34-2.13-4.31-5.22,0-3.37,2.11-5.43,4.57-5.43h0a3.4,3.4,0,0,1,3.06,1.59h0l0.06-6.08,1.85,0-0.12,12.31c0,0.91,0,1.93.06,2.63h-1.66l-0.07-1.77h0a3.76,3.76,0,0,1-3.44,2" transform="translate(-1204.13 -2852.81)" fill="#0f8f68"/><polygon points="198.31 34.16 198.3 32.08 210.13 26.09 210.13 26.03 198.21 20.2 198.2 18.12 212.24 25.2 212.25 26.89 198.31 34.16" fill="#127859"/><polygon points="222.75 328.91 222.73 326.83 234.57 320.84 234.57 320.77 222.65 314.95 222.64 312.87 236.68 319.95 236.69 321.63 222.75 328.91" fill="#1b352d"/><polygon points="67.55 299.14 67.54 297.06 79.38 291.06 79.38 291 67.46 285.18 67.44 283.1 81.48 290.17 81.49 291.86 67.55 299.14" fill="#127859"/><path d="M1478.51,3009.87c-0.58-.57-1.12-1.14-1.91-2a8.33,8.33,0,0,1-5.92,2.36c-3.95,0-6.26-2.61-6.28-5.65,0-2.77,1.63-4.69,3.94-6v-0.09a7,7,0,0,1-1.72-4.24,4.93,4.93,0,0,1,5.12-5,4.23,4.23,0,0,1,4.52,4.28c0,2.14-1.21,3.84-4.42,5.46v0.09c1.73,2,3.68,4.2,5,5.63a14.91,14.91,0,0,0,1.92-6l2.41,0c-0.52,3.2-1.37,5.74-2.87,7.53,1.09,1.14,2.16,2.28,3.37,3.56Zm-3.22-3.47c-1.22-1.32-3.5-3.77-5.78-6.35a5,5,0,0,0-2.59,4.15,4,4,0,0,0,4.19,4.07,5.68,5.68,0,0,0,4.18-1.87M1469,2994a5.7,5.7,0,0,0,1.56,3.64c2-1.19,3.36-2.29,3.35-4a2.39,2.39,0,0,0-2.37-2.61c-1.69,0-2.55,1.41-2.54,3" transform="translate(-1204.13 -2852.81)" fill="#47FF3F"/><path d="M1490.61,3162.56h0c-1.69,0-2.55,1.4-2.54,3a5.72,5.72,0,0,0,1.57,3.64c2-1.19,3.36-2.29,3.35-4a2.39,2.39,0,0,0-2.34-2.6m-2.07,9a5,5,0,0,0-2.59,4.15,4,4,0,0,0,4.16,4.07h0a5.68,5.68,0,0,0,4.18-1.87c-1.22-1.32-3.49-3.77-5.78-6.35m1.1,10.21c-3.91,0-6.2-2.63-6.22-5.65,0-2.77,1.63-4.69,3.94-6V3170a7,7,0,0,1-1.72-4.24,4.93,4.93,0,0,1,5.12-5h0a4.22,4.22,0,0,1,4.48,4.28c0,2.14-1.21,3.84-4.42,5.46v0.09c1.73,2,3.68,4.2,5,5.63a14.88,14.88,0,0,0,1.92-6l2.41,0c-0.52,3.2-1.38,5.74-2.87,7.53,1.09,1.14,2.16,2.28,3.37,3.56l-3.14,0c-0.58-.57-1.12-1.14-1.91-2a8.33,8.33,0,0,1-5.92,2.37h-0.06" transform="translate(-1204.13 -2852.81)" fill="#1b352d"/><path d="M1243.57,3003.27c-0.23,3.83-2.36,5.62-4.71,5.48s-4.12-2.07-3.93-5.74,2.33-5.56,4.74-5.42,4.11,2.21,3.9,5.68m-6.67-.23c-0.2,2.32.57,4.14,2.11,4.23s2.45-1.59,2.6-4c0.13-2.21-.4-4.1-2.11-4.2-1.54-.09-2.46,1.68-2.6,4m1.33,13.34,11.82-18.17,1.57,0.09-11.82,18.17Zm16.73-4.87c-0.23,3.84-2.36,5.62-4.68,5.48s-4.12-2.07-3.93-5.72,2.33-5.59,4.74-5.45,4.08,2.21,3.87,5.68m-6.67-.23c-0.17,2.32.62,4.14,2.14,4.23s2.45-1.59,2.6-4c0.13-2.21-.4-4.1-2.11-4.2-1.54-.09-2.49,1.68-2.63,4" transform="translate(-1204.13 -2852.81)" fill="#47FF3F"/><path d="M1514,3063.15c-1.47,0-2.35,1.74-2.48,4s0.57,4.13,2.11,4.22h0.13c1.54,0,2.32-1.66,2.46-4s-0.4-4.1-2.11-4.2H1514m-0.26,9.69h-0.26c-2.27-.13-4.12-2.07-3.93-5.74,0.21-3.51,2.18-5.43,4.49-5.43h0.25c2.55,0.15,4.11,2.21,3.9,5.68-0.22,3.69-2.21,5.48-4.45,5.48m0.68,7.72-1.57-.09,11.82-18.17,1.57,0.09-11.82,18.17m11-9.17c-1.47,0-2.38,1.74-2.51,4s0.62,4.14,2.13,4.23h0.13c1.54,0,2.33-1.67,2.47-4s-0.4-4.1-2.11-4.2h-0.11m-0.27,9.69h-0.25c-2.27-.14-4.12-2.07-3.93-5.71s2.18-5.45,4.49-5.45h0.25c2.55,0.15,4.08,2.21,3.87,5.68-0.22,3.7-2.21,5.48-4.43,5.48" transform="translate(-1204.13 -2852.81)" fill="#1b352d"/><path d="M1522.66,2940.91l-15.56-.34,0-1.81,15.55,0.35Zm-0.13,5.91-15.55-.35,0-1.81,15.55,0.34,0,1.81" transform="translate(-1204.13 -2852.81)" fill="#1b352d"/><polygon points="276.76 292.72 276.59 285.57 269.78 285.73 269.74 283.92 276.55 283.76 276.39 276.68 278.32 276.64 278.48 283.72 285.29 283.56 285.33 285.38 278.52 285.53 278.69 292.67 276.76 292.72" fill="#0f8f68"/><path d="M1233.06,3106.19a1.89,1.89,0,0,1,0-3.77h0.05a1.89,1.89,0,0,1,0,3.77h0m-2.71,14.08A43.14,43.14,0,0,0,1232,3113l2.92-.37a38.7,38.7,0,0,1-2.72,7.39l-1.84.22" transform="translate(-1204.13 -2852.81)" fill="#0f8f68"/><path d="M1340.6,3188.31l-0.08-3h-0.08a8.73,8.73,0,0,1-4.56-1.21l0.67-2a8,8,0,0,0,4.18,1.19h0.19c2.14-.05,3.55-1.33,3.51-3s-1.24-2.65-3.5-3.5c-3.11-1.13-5-2.46-5.11-5.09s1.67-4.45,4.43-5l-0.08-3,1.87,0,0.07,2.93a8,8,0,0,1,3.95,1l-0.7,2a7.21,7.21,0,0,0-3.6-.93h-0.22c-2.32.06-3.16,1.47-3.13,2.67,0,1.57,1.18,2.33,3.82,3.34,3.14,1.19,4.74,2.71,4.81,5.4a5.25,5.25,0,0,1-4.63,5.24l0.08,3.13-1.9,0" transform="translate(-1204.13 -2852.81)" fill="#1b352d"/><path d="M1480.64,2955.12h-0.12c-2.65.06-4.73,2.61-4.67,5.54a2,2,0,0,0,2,2.24h0.06c1.75,0,3.3-2.31,3.58-4.18l0.56-3.42a5.27,5.27,0,0,0-1.4-.18m-2.21,14.49a9,9,0,0,1-9.12-9.2c-0.14-6.21,4-11.67,10.74-11.82h0.26a8.35,8.35,0,0,1,8.71,8.51c0.1,4.52-2.37,7.23-5.2,7.3h-0.06a2.23,2.23,0,0,1-2.23-2.6h-0.12a4.74,4.74,0,0,1-4.19,2.75h-0.07c-1.72,0-3.21-1.38-3.27-3.72a7.12,7.12,0,0,1,7-7.31h0.23a7.78,7.78,0,0,1,3,.56l-0.9,5.48c-0.4,2.3,0,3.35,1,3.36,1.54,0,3.21-2.1,3.13-5.59-0.1-4.3-2.71-7.34-7.24-7.34h-0.23c-4.91.11-9,4.09-8.81,10.21,0.11,5,3.36,8,7.71,8h0.22a9.43,9.43,0,0,0,4.53-1.16l0.51,1.29a11,11,0,0,1-5.33,1.33h-0.22" transform="translate(-1204.13 -2852.81)" fill="#0f8f68"/><path d="M1248.6,3142.27h-0.14c-2.65.06-4.74,2.61-4.67,5.54a2,2,0,0,0,2,2.24h0.06c1.75,0,3.3-2.31,3.59-4.18l0.55-3.42a5.17,5.17,0,0,0-1.37-.18m-2.24,14.49a9,9,0,0,1-9.12-9.2c-0.14-6.21,4-11.67,10.74-11.82h0.26a8.36,8.36,0,0,1,8.72,8.51c0.1,4.52-2.37,7.23-5.2,7.29h-0.06a2.23,2.23,0,0,1-2.23-2.6h-0.12a4.74,4.74,0,0,1-4.19,2.75h-0.08c-1.72,0-3.21-1.38-3.27-3.72a7.12,7.12,0,0,1,7-7.31H1249a7.87,7.87,0,0,1,3,.56l-0.9,5.48c-0.4,2.3,0,3.35,1,3.35,1.54,0,3.21-2.09,3.13-5.59-0.1-4.29-2.7-7.34-7.22-7.34h-0.24c-4.91.11-9,4.09-8.82,10.21,0.11,5,3.36,8,7.71,8h0.22a9.4,9.4,0,0,0,4.53-1.16l0.51,1.29a11,11,0,0,1-5.34,1.33h-0.23" transform="translate(-1204.13 -2852.81)" fill="#1b352d"/><path d="M1450.49,3160.25l0.61-5.93-2.47.07-0.05-1.78,2.75-.08,0.44-4.39-2.59.08-0.05-1.78,2.86-.09,0.61-5.78,1.75-.05-0.58,5.78,3.13-.09,0.61-5.78,1.78-.05-0.58,5.78,2.47-.07,0.05,1.78-2.74.08-0.41,4.39,2.59-.08,0.05,1.78-2.86.09-0.61,5.93-1.81.05,0.61-5.93-3.14.09-0.61,5.93Zm5.77-7.86,0.44-4.39-3.13.09-0.44,4.39Z" transform="translate(-1204.13 -2852.81)" fill="#47FF3F"/><path d="M1218.26,2963.11l-3.14.09-0.44,4.39,3.13-.09Zm-6.21,12.25,0.61-5.93-2.47.07-0.05-1.78,2.74-.08,0.44-4.39-2.59.08-0.05-1.78,2.86-.08,0.61-5.78,1.75-.05-0.58,5.78,3.14-.09,0.61-5.78,1.78-.05-0.58,5.78,2.47-.07,0.05,1.78-2.74.08-0.41,4.39,2.59-.08,0.05,1.78-2.86.08-0.61,5.93-1.81.05,0.61-5.93-3.13.09-0.61,5.93-1.81.05" transform="translate(-1204.13 -2852.81)" fill="#1b352d"/><path d="M1208.63,3060.14h-0.07c-1.6,0-2.71,2-2.6,5.72,0.1,3.47,1.22,5.43,2.85,5.43h0.06c1.88-.05,2.7-2.27,2.6-5.72-0.1-3.28-1-5.43-2.84-5.43m0.06,12.57c-2.58,0-4.39-2.41-4.56-6.82s1.74-7.08,4.49-7.17h0.14c2.76,0,4.41,2.48,4.53,6.71,0.14,4.6-1.49,7.18-4.49,7.27h-0.12" transform="translate(-1204.13 -2852.81)" fill="#184b3b"/><polygon points="15.03 219.36 14.68 207.55 14.64 207.55 12.33 208.89 11.93 207.51 14.84 205.84 16.4 205.79 16.8 219.31 15.03 219.36" fill="#184b3b"/><path d="M1232.23,2981.58a1.3,1.3,0,0,1,0-2.6h0a1.23,1.23,0,0,1,1.23,1.27,1.21,1.21,0,0,1-1.21,1.33h0m0.22,7.34a1.3,1.3,0,0,1,0-2.6h0a1.3,1.3,0,0,1,0,2.6h0" transform="translate(-1204.13 -2852.81)" fill="#184b3b"/><path d="M1236.54,2981.45a1.3,1.3,0,0,1,0-2.6h0a1.3,1.3,0,0,1,0,2.6h0m0.22,7.34a1.3,1.3,0,0,1,0-2.6h0a1.22,1.22,0,0,1,1.22,1.27,1.21,1.21,0,0,1-1.21,1.33h0" transform="translate(-1204.13 -2852.81)" fill="#184b3b"/><path d="M1298.28,2859.12a1.3,1.3,0,0,1,0-2.6h0a1.23,1.23,0,0,1,1.22,1.27,1.21,1.21,0,0,1-1.21,1.33h0m0.22,7.34a1.3,1.3,0,0,1,0-2.6h0a1.3,1.3,0,0,1,0,2.6h0" transform="translate(-1204.13 -2852.81)" fill="#184b3b"/><path d="M1302.58,2859a1.3,1.3,0,0,1,0-2.6h0a1.23,1.23,0,0,1,1.22,1.28,1.21,1.21,0,0,1-1.21,1.32h0m0.22,7.34a1.3,1.3,0,0,1,0-2.6h0a1.23,1.23,0,0,1,1.22,1.27,1.21,1.21,0,0,1-1.21,1.33h0" transform="translate(-1204.13 -2852.81)" fill="#184b3b"/><polygon points="101.56 318.84 101.89 301.18 105.94 301.26 105.92 302.48 103.37 302.43 103.09 317.65 105.64 317.69 105.62 318.91 101.56 318.84" fill="#47FF3F"/><polygon points="115.54 301.41 115.21 319.09 111.16 319.01 111.18 317.8 113.73 317.84 114.01 302.6 111.46 302.56 111.48 301.34 115.54 301.41" fill="#47FF3F"/><path d="M1258.78,3052.65c-0.14,5-2.07,7.68-5.31,7.59-2.86-.08-4.73-2.81-4.64-7.66s2.33-7.56,5.31-7.48,4.77,2.89,4.64,7.55m-8,0c-0.11,3.81,1,6,2.81,6.06,2,0.06,3.07-2.28,3.17-6s-0.76-6-2.81-6.05c-1.74,0-3.06,2-3.17,6" transform="translate(-1204.13 -2852.81)" fill="#47FF3F"/><path d="M1462.63,2941.61c-0.14,5-2.06,7.68-5.31,7.59-2.86-.08-4.73-2.81-4.64-7.67s2.33-7.56,5.31-7.48,4.77,2.88,4.64,7.55m-8,0c-0.11,3.81,1,6,2.81,6.06,2,0.05,3.06-2.29,3.17-6s-0.76-6-2.81-6.06c-1.74,0-3.06,2-3.17,6" transform="translate(-1204.13 -2852.81)" fill="#47FF3F"/><path d="M1360,3155.95l-0.05-.59a5.18,5.18,0,0,1,1.37-3.91c1-1.2,1.56-2.09,1.56-3.1a1.89,1.89,0,0,0-2.16-1.92,4,4,0,0,0-2.27.72l-0.55-1.42a5.94,5.94,0,0,1,3.22-.92c2.59,0,3.78,1.58,3.79,3.29,0,1.53-.84,2.64-1.91,3.94a4.45,4.45,0,0,0-1.26,3.32l0,0.59H1360Zm-0.47,3.16a1.33,1.33,0,0,1,1.34-1.43,1.41,1.41,0,1,1-1.34,1.43" transform="translate(-1204.13 -2852.81)" fill="#47FF3F"/><path d="M1520.81,2993.28l-0.05-.59a5.2,5.2,0,0,1,1.37-3.91c1-1.2,1.56-2.08,1.55-3.1a1.89,1.89,0,0,0-2.16-1.93,4,4,0,0,0-2.27.72l-0.55-1.42a5.93,5.93,0,0,1,3.21-.93h0c2.56,0,3.73,1.58,3.74,3.29,0,1.53-.84,2.65-1.91,3.94a4.45,4.45,0,0,0-1.26,3.32l0,0.59h-1.76m0.86,4.55a1.32,1.32,0,0,1-1.33-1.39,1.33,1.33,0,0,1,1.34-1.43h0a1.41,1.41,0,0,1,0,2.82h0" transform="translate(-1204.13 -2852.81)" fill="#184b3b"/><path d="M1269.36,2929.14l0-.59a5.18,5.18,0,0,1,1.6-3.82c1.08-1.14,1.69-2,1.74-3a1.88,1.88,0,0,0-2-2,4,4,0,0,0-2.31.58l-0.47-1.45a5.92,5.92,0,0,1,3.27-.73c2.59,0.13,3.68,1.79,3.59,3.51-0.08,1.53-1,2.59-2.14,3.82a4.46,4.46,0,0,0-1.46,3.25v0.58Zm-0.66,3.13a1.33,1.33,0,0,1,1.42-1.35,1.41,1.41,0,1,1-1.42,1.35" transform="translate(-1204.13 -2852.81)" fill="#47FF3F"/><path d="M1350.44,2913.68a1.33,1.33,0,0,1,.36-1.93,1.42,1.42,0,1,1-.36,1.93" transform="translate(-1204.13 -2852.81)" fill="#47FF3F"/><path d="M1439,2900.41c0,0.79-.05,1.67,0,3l0.15,6.33c0.06,2.5-.4,4-1.44,5a5.78,5.78,0,0,1-3.94,1.4,7,7,0,0,1-3.65-.82l0.46-1.52a6.16,6.16,0,0,0,3.22.78c2,0,3.49-1.14,3.43-3.89l0-1.22h0a3.9,3.9,0,0,1-3.43,1.91c-2.71.06-4.7-2.19-4.77-5.21-0.08-3.7,2.28-5.85,4.78-5.91a3.63,3.63,0,0,1,3.45,1.81h0l0.05-1.65Zm-2,4.35a2.9,2.9,0,0,0-3-2.93c-1.89,0-3.21,1.68-3.15,4.2,0,2.14,1.17,3.9,3.31,3.85a2.9,2.9,0,0,0,2.7-2.09,3.43,3.43,0,0,0,.13-1.06Z" transform="translate(-1204.13 -2852.81)" fill="#47FF3F"/><path d="M1369.63,2854.35h-0.07c-1.89,0-3.21,1.68-3.15,4.2,0,2.11,1.14,3.85,3.22,3.85h0.09a2.9,2.9,0,0,0,2.7-2.09,3.48,3.48,0,0,0,.13-1.06l0-2a2.68,2.68,0,0,0-.13-0.9,2.86,2.86,0,0,0-2.75-2m-0.62,14.33a6.89,6.89,0,0,1-3.45-.82l0.46-1.52a6.13,6.13,0,0,0,3.06.78h0.16c2,0,3.49-1.14,3.43-3.89l0-1.21h0a3.9,3.9,0,0,1-3.43,1.91h-0.11c-2.65,0-4.59-2.23-4.66-5.22-0.08-3.7,2.28-5.85,4.78-5.91h0.12a3.61,3.61,0,0,1,3.33,1.82h0l0.05-1.65,1.74,0c0,0.79-.05,1.67,0,3l0.15,6.34c0.06,2.5-.41,4-1.44,5a5.77,5.77,0,0,1-3.94,1.4H1369" transform="translate(-1204.13 -2852.81)" fill="#1b352d"/><path d="M1269.52,2904.41a43.51,43.51,0,0,0,1.62-7.09l2.73-.37a34.81,34.81,0,0,1-2.67,7.21l-1.68.25m-4.46.1a43.58,43.58,0,0,0,1.62-7.09l2.71-.36a35.05,35.05,0,0,1-2.64,7.21l-1.68.25" transform="translate(-1204.13 -2852.81)" fill="#0f8f68"/><path d="M1467.45,2910.8l5-7.56-5.11-7,3-.07,2.15,3.09c0.56,0.8,1,1.54,1.53,2.35h0.09c0.46-.89.93-1.65,1.39-2.45l2-3.15,2.86-.07-4.82,7.17,5.3,7.42-3,.07-2.21-3.24c-0.59-.83-1.09-1.63-1.63-2.49h-0.06c-0.46.89-1,1.68-1.48,2.57l-2,3.33-2.92.07" transform="translate(-1204.13 -2852.81)" fill="#1b352d"/><path d="M1224.73,3039.2l0-1.65h0.51c1.69-.07,2.39-1,2.35-2.68a17.77,17.77,0,0,0-.26-2.16,13.79,13.79,0,0,1-.29-2.29c0-1.93.78-3,2.1-3.33V3027c-1.33-.33-2.2-1.28-2.24-3.2a13.88,13.88,0,0,1,.19-2.3,17.63,17.63,0,0,0,.16-2.15c0-1.62-.68-2.54-2.42-2.54h-0.56l0-1.66H1225c2.47,0,4.24,1.14,4.31,3.85a17.54,17.54,0,0,1-.18,2.51,18.07,18.07,0,0,0-.18,2.54c0,1,.34,2.17,2.35,2.17h0.14l0,1.54c-2.14,0-2.41,1.35-2.39,2.29a16.51,16.51,0,0,0,.29,2.44,17,17,0,0,1,.3,2.46c0.07,3-1.8,4.18-4.28,4.23h-0.63" transform="translate(-1204.13 -2852.81)" fill="#0f8f68"/><polygon points="64.43 97.23 64.43 260 224.28 260 224.28 96.23 65.43 96.23 65.43 98.23 222.28 98.23 222.28 258 66.43 258 66.43 97.23 64.43 97.23" fill="#47FF3F"/><polyline points="65.82 129.13 222.66 130.25 222.67 128.25 65.84 127.13" fill="#47FF3F"/><polygon points="111.36 111.94 111.36 110.94 91.77 110.94 91.77 83.52 110.36 83.52 110.36 111.94 111.36 111.94 111.36 110.94 111.36 111.94 112.36 111.94 112.36 81.52 89.77 81.52 89.77 112.94 112.36 112.94 112.36 111.94 111.36 111.94" fill="#47FF3F"/><polygon points="202.34 111.94 202.34 110.94 182.75 110.94 182.75 83.52 201.34 83.52 201.34 111.94 202.34 111.94 202.34 110.94 202.34 111.94 203.34 111.94 203.34 81.52 180.75 81.52 180.75 112.94 203.34 112.94 203.34 111.94 202.34 111.94" fill="#47FF3F"/><polygon points="122.88 180.59 122.88 180.09 96.59 180.09 96.59 154.31 122.38 154.31 122.38 180.59 122.88 180.59 122.88 180.09 122.88 180.59 123.38 180.59 123.38 153.31 95.59 153.31 95.59 181.09 123.38 181.09 123.38 180.59 122.88 180.59" fill="#4a31ff"/><polygon points="150.11 180.59 150.11 180.09 123.82 180.09 123.82 154.31 149.61 154.31 149.61 180.59 150.11 180.59 150.11 180.09 150.11 180.59 150.61 180.59 150.61 153.31 122.82 153.31 122.82 181.09 150.61 181.09 150.61 180.59 150.11 180.59" fill="#4a31ff"/><polygon points="177.09 180.59 177.09 180.09 150.79 180.09 150.79 154.31 176.59 154.31 176.59 180.59 177.09 180.59 177.09 180.09 177.09 180.59 177.59 180.59 177.59 153.31 149.79 153.31 149.79 181.09 177.59 181.09 177.59 180.59 177.09 180.59" fill="#4a31ff"/><polygon points="203.88 180.59 203.88 180.09 177.59 180.09 177.59 154.31 203.38 154.31 203.38 180.59 203.88 180.59 203.88 180.09 203.88 180.59 204.38 180.59 204.38 153.31 176.59 153.31 176.59 181.09 204.38 181.09 204.38 180.59 203.88 180.59" fill="#4a31ff"/><polygon points="123.18 207.13 123.18 206.63 96.89 206.63 96.89 180.84 122.68 180.84 122.68 207.13 123.18 207.13 123.18 206.63 123.18 207.13 123.68 207.13 123.68 179.84 95.89 179.84 95.89 207.63 123.68 207.63 123.68 207.13 123.18 207.13" fill="#4a31ff"/><polygon points="150.41 207.13 150.41 206.63 124.12 206.63 124.12 180.84 149.91 180.84 149.91 207.13 150.41 207.13 150.41 206.63 150.41 207.13 150.91 207.13 150.91 179.84 123.12 179.84 123.12 207.63 150.91 207.63 150.91 207.13 150.41 207.13" fill="#4a31ff"/><polygon points="204.18 207.13 204.18 206.63 177.89 206.63 177.89 180.84 203.68 180.84 203.68 207.13 204.18 207.13 204.18 206.63 204.18 207.13 204.68 207.13 204.68 179.84 176.89 179.84 176.89 207.63 204.68 207.63 204.68 207.13 204.18 207.13" fill="#4a31ff"/><polygon points="123.36 233.55 123.36 233.05 97.07 233.05 97.07 207.26 122.86 207.26 122.86 233.55 123.36 233.55 123.36 233.05 123.36 233.55 123.86 233.55 123.86 206.26 96.07 206.26 96.07 234.05 123.86 234.05 123.86 233.55 123.36 233.55" fill="#4a31ff"/><polygon points="150.6 233.55 150.6 233.05 124.31 233.05 124.31 207.26 150.1 207.26 150.1 233.55 150.6 233.55 150.6 233.05 150.6 233.55 151.1 233.55 151.1 206.26 123.31 206.26 123.31 234.05 151.1 234.05 151.1 233.55 150.6 233.55" fill="#4a31ff"/><polygon points="177.2 233.55 177.2 233.05 150.91 233.05 150.91 207.26 176.7 207.26 176.7 233.55 177.2 233.55 177.2 233.05 177.2 233.55 177.7 233.55 177.7 206.26 149.91 206.26 149.91 234.05 177.7 234.05 177.7 233.55 177.2 233.55" fill="#4a31ff"/><polygon points="204.37 233.55 204.37 233.05 178.07 233.05 178.07 207.26 203.87 207.26 203.87 233.55 204.37 233.55 204.37 233.05 204.37 233.55 204.87 233.55 204.87 206.26 177.07 206.26 177.07 234.05 204.87 234.05 204.87 233.55 204.37 233.55" fill="#4a31ff"/><polygon points="96.09 153.81 123.62 180.34 96.09 180.59 96.09 153.81" fill="#4a31ff"/><polygon points="123.62 153.43 151.16 179.97 123.62 180.22 123.62 153.43" fill="#4a31ff"/><polygon points="150.78 153.99 178.32 180.53 150.78 180.78 150.78 153.99" fill="#4a31ff"/><polygon points="177.2 153.81 204.74 180.34 177.2 180.59 177.2 153.81" fill="#4a31ff"/><polygon points="177.57 179.85 205.11 206.39 177.57 206.64 177.57 179.85" fill="#4a31ff"/><polygon points="150.78 179.85 178.32 206.39 150.78 206.64 150.78 179.85" fill="#4a31ff"/><polygon points="123.99 179.85 151.53 206.39 123.99 206.64 123.99 179.85" fill="#4a31ff"/><polygon points="96.46 180.41 123.99 206.94 96.46 207.2 96.46 180.41" fill="#4a31ff"/><polygon points="97.02 206.46 124.55 232.99 97.02 233.25 97.02 206.46" fill="#4a31ff"/><polygon points="123.81 206.64 151.34 233.18 123.81 233.43 123.81 206.64" fill="#4a31ff"/><polygon points="151.16 206.64 178.69 233.18 151.16 233.43 151.16 206.64" fill="#4a31ff"/><polygon points="177.95 206.83 205.48 233.36 177.95 233.62 177.95 206.83" fill="#4a31ff"/><polygon points="222.85 98.13 244.11 108.13 244.11 275.43 82.73 275.43 66.18 256.58 64.68 257.9 81.83 277.42 246.11 277.42 246.11 106.86 223.71 96.32 222.85 98.13" fill="#47FF3F"/><polygon points="204.18 233.55 204.18 232.55 97.09 232.55 97.09 154.81 203.18 154.81 203.18 233.55 204.18 233.55 204.18 232.55 204.18 233.55 205.18 233.55 205.18 152.81 95.09 152.81 95.09 234.55 205.18 234.55 205.18 233.55 204.18 233.55" fill="#4a31ff"/></svg>
