<svg id="afdde5fa-a46d-42da-9c7a-70bcd23f51ef" data-name="Layer 1" xmlns="http://www.w3.org/2000/svg" viewBox="0 0 7040 320"><defs><style>.adff045d-b3f3-49fc-b5a1-e9e77077c40f{fill:#fff;}</style></defs><title>all-10</title><path class="adff045d-b3f3-49fc-b5a1-e9e77077c40f" d="M5343.6,171.9l-13.1-10a15.8,15.8,0,0,0-13-15.6l.6-3.9a37.1,37.1,0,0,0-73.5-10.6l-.8,6.1a15.1,15.1,0,0,1,5.2,0,26,26,0,0,1,4,1l.8-5.7a27.7,27.7,0,0,1,54.9,7.9h0l-.7,4.9h-62.7a15.8,15.8,0,0,0-15.5,12.3h0a12.7,12.7,0,0,0-.4,3.4h0v.2l-13,10.6v20.2l13,9.8v1.4a15.7,15.7,0,0,0,15.8,15.9h69.4a15.9,15.9,0,0,0,15.5-12.3h0l.3-1.6h0a9.7,9.7,0,0,0,.1-1.7h0v-1.4l13.1-10.6Zm-29,44.1h-69.3a11.9,11.9,0,0,1-11.9-11.9V161.9a9.1,9.1,0,0,1,.3-2.3h-.1a11.9,11.9,0,0,1,11.7-9.6h72.8l.6.3h.5l.7.4h.4l.5.4.4.2.5.4.5.3.5.5.3.3.5.5.3.3.3.5.3.5.5.6v.3a3,3,0,0,1,.4.8c0,.1.1.2.1.3l.3.6c0,.2.1.3.1.5a1.9,1.9,0,0,1,.2.7.6.6,0,0,1,.1.4,9.9,9.9,0,0,1,.3,2.4v42.2a9.1,9.1,0,0,1-.3,2.3h.1A11.9,11.9,0,0,1,5314.6,216Z"/><path class="adff045d-b3f3-49fc-b5a1-e9e77077c40f" d="M5241,190.9v17.5s22.4-2.3,38.2-2.3,39.9,2.3,39.9,2.3V190.9s-24.8-2.3-39.9-2.3S5241,190.9,5241,190.9Zm74.5,13.9a357.6,357.6,0,0,0-36.3-2.3,266.9,266.9,0,0,0-34.6,2.3V194.4s19.5-2.3,34.6-2.3,36.3,2.3,36.3,2.3Z"/><path class="adff045d-b3f3-49fc-b5a1-e9e77077c40f" d="M5242.3,171.5l4.1,2.2-3.8,2a1,1,0,0,0-.4,1.4h0l.8,1.5a1.1,1.1,0,0,0,1.5.4h0l4.4-2.3v4.6a1.1,1.1,0,0,0,1,1h1.7a1,1,0,0,0,1-1v-4.4l4.2,2.2h0a1,1,0,0,0,1.4-.4l.8-1.4h0a1.1,1.1,0,0,0-.4-1.5l-4-2.1,4.3-2.3a1.4,1.4,0,0,0,.4-1.5l-.8-1.5a1.1,1.1,0,0,0-1.5-.4h0l-4.4,2.4V165a1.1,1.1,0,0,0-1.1-1.1h-1.6a1.1,1.1,0,0,0-1,1.1v5.6l-4.7-2.4h0a1.1,1.1,0,0,0-1.5.4l-.8,1.4h0A1.1,1.1,0,0,0,5242.3,171.5Z"/><path class="adff045d-b3f3-49fc-b5a1-e9e77077c40f" d="M5272.3,171.5l3.9,2.1-3.7,1.9a1.1,1.1,0,0,0-.4,1.5h0l.8,1.5a1.1,1.1,0,0,0,1.5.4h0l4.4-2.4v4.8a1.1,1.1,0,0,0,1.1,1h1.6a1.1,1.1,0,0,0,1-1v-4.4l4.2,2.2h0a1,1,0,0,0,1.4-.4l.8-1.4h.1a1.1,1.1,0,0,0-.5-1.5l-4.1-2.2,4.4-2.4a1,1,0,0,0,.3-1.3l-.8-1.5a1.1,1.1,0,0,0-1.5-.4h0l-4.3,2.3V165a1.1,1.1,0,0,0-1-1.1h-1.6a1.1,1.1,0,0,0-1.1,1.1v5.6l-4.7-2.4h0a1,1,0,0,0-1.4.4l-.8,1.4h-.1A1.1,1.1,0,0,0,5272.3,171.5Z"/><path class="adff045d-b3f3-49fc-b5a1-e9e77077c40f" d="M5302,171.5l4.1,2.2-3.8,2a1,1,0,0,0-.4,1.4h0l.8,1.5a1.1,1.1,0,0,0,1.5.4h0l4.4-2.3v4.6a1.1,1.1,0,0,0,1.1,1h1.6a1.1,1.1,0,0,0,1-1v-4.4l4.2,2.2h0a1,1,0,0,0,1.4-.4l.8-1.4h0a1,1,0,0,0-.4-1.5l-4-2.1,4.3-2.3a1.3,1.3,0,0,0,.4-1.5l-.8-1.5a1.1,1.1,0,0,0-1.5-.4h0l-4.4,2.4V165a1.1,1.1,0,0,0-1-1.1h-1.6a1.1,1.1,0,0,0-1.1,1.1v5.6l-4.7-2.4h0a1.1,1.1,0,0,0-1.5.4l-.8,1.4h0A1.1,1.1,0,0,0,5302,171.5Z"/><path class="adff045d-b3f3-49fc-b5a1-e9e77077c40f" d="M5343.6,171.9l-13.1-10a15.8,15.8,0,0,0-13-15.6l.6-3.9a37.1,37.1,0,0,0-73.5-10.6l-.8,6.1a15.1,15.1,0,0,1,5.2,0,26,26,0,0,1,4,1l.8-5.7a27.7,27.7,0,0,1,54.9,7.9h0l-.7,4.9h-62.7a15.8,15.8,0,0,0-15.5,12.3h0a12.7,12.7,0,0,0-.4,3.4h0v.2l-13,10.6v20.2l13,9.8v1.4a15.7,15.7,0,0,0,15.8,15.9h69.4a15.9,15.9,0,0,0,15.5-12.3h0l.3-1.6h0a9.7,9.7,0,0,0,.1-1.7h0v-1.4l13.1-10.6Zm-29,44.1h-69.3a11.9,11.9,0,0,1-11.9-11.9V161.9a9.1,9.1,0,0,1,.3-2.3h-.1a11.9,11.9,0,0,1,11.7-9.6h72.8l.6.3h.5l.7.4h.4l.5.4.4.2.5.4.5.3.5.5.3.3.5.5.3.3.3.5.3.5.5.6v.3a3,3,0,0,1,.4.8c0,.1.1.2.1.3l.3.6c0,.2.1.3.1.5a1.9,1.9,0,0,1,.2.7.6.6,0,0,1,.1.4,9.9,9.9,0,0,1,.3,2.4v42.2a9.1,9.1,0,0,1-.3,2.3h.1A11.9,11.9,0,0,1,5314.6,216Z"/><path class="adff045d-b3f3-49fc-b5a1-e9e77077c40f" d="M5241,190.9v17.5s22.4-2.3,38.2-2.3,39.9,2.3,39.9,2.3V190.9s-24.8-2.3-39.9-2.3S5241,190.9,5241,190.9Zm74.5,13.9a357.6,357.6,0,0,0-36.3-2.3,266.9,266.9,0,0,0-34.6,2.3V194.4s19.5-2.3,34.6-2.3,36.3,2.3,36.3,2.3Z"/><path class="adff045d-b3f3-49fc-b5a1-e9e77077c40f" d="M5242.3,171.5l4.1,2.2-3.8,2a1,1,0,0,0-.4,1.4h0l.8,1.5a1.1,1.1,0,0,0,1.5.4h0l4.4-2.3v4.6a1.1,1.1,0,0,0,1,1h1.7a1,1,0,0,0,1-1v-4.4l4.2,2.2h0a1,1,0,0,0,1.4-.4l.8-1.4h0a1.1,1.1,0,0,0-.4-1.5l-4-2.1,4.3-2.3a1.4,1.4,0,0,0,.4-1.5l-.8-1.5a1.1,1.1,0,0,0-1.5-.4h0l-4.4,2.4V165a1.1,1.1,0,0,0-1.1-1.1h-1.6a1.1,1.1,0,0,0-1,1.1v5.6l-4.7-2.4h0a1.1,1.1,0,0,0-1.5.4l-.8,1.4h0A1.1,1.1,0,0,0,5242.3,171.5Z"/><path class="adff045d-b3f3-49fc-b5a1-e9e77077c40f" d="M5272.3,171.5l3.9,2.1-3.7,1.9a1.1,1.1,0,0,0-.4,1.5h0l.8,1.5a1.1,1.1,0,0,0,1.5.4h0l4.4-2.4v4.8a1.1,1.1,0,0,0,1.1,1h1.6a1.1,1.1,0,0,0,1-1v-4.4l4.2,2.2h0a1,1,0,0,0,1.4-.4l.8-1.4h.1a1.1,1.1,0,0,0-.5-1.5l-4.1-2.2,4.4-2.4a1,1,0,0,0,.3-1.3l-.8-1.5a1.1,1.1,0,0,0-1.5-.4h0l-4.3,2.3V165a1.1,1.1,0,0,0-1-1.1h-1.6a1.1,1.1,0,0,0-1.1,1.1v5.6l-4.7-2.4h0a1,1,0,0,0-1.4.4l-.8,1.4h-.1A1.1,1.1,0,0,0,5272.3,171.5Z"/><path class="adff045d-b3f3-49fc-b5a1-e9e77077c40f" d="M5302,171.5l4.1,2.2-3.8,2a1,1,0,0,0-.4,1.4h0l.8,1.5a1.1,1.1,0,0,0,1.5.4h0l4.4-2.3v4.6a1.1,1.1,0,0,0,1.1,1h1.6a1.1,1.1,0,0,0,1-1v-4.4l4.2,2.2h0a1,1,0,0,0,1.4-.4l.8-1.4h0a1,1,0,0,0-.4-1.5l-4-2.1,4.3-2.3a1.3,1.3,0,0,0,.4-1.5l-.8-1.5a1.1,1.1,0,0,0-1.5-.4h0l-4.4,2.4V165a1.1,1.1,0,0,0-1-1.1h-1.6a1.1,1.1,0,0,0-1.1,1.1v5.6l-4.7-2.4h0a1.1,1.1,0,0,0-1.5.4l-.8,1.4h0A1.1,1.1,0,0,0,5302,171.5Z"/><path class="adff045d-b3f3-49fc-b5a1-e9e77077c40f" d="M5663.6,171.9l-13.1-10a15.8,15.8,0,0,0-13-15.6l.6-3.9a37.1,37.1,0,0,0-73.5-10.6l-.8,6.1a15.1,15.1,0,0,1,5.2,0,26,26,0,0,1,4,1l.8-5.7a27.7,27.7,0,0,1,54.9,7.9h0l-.7,4.9h-62.7a15.8,15.8,0,0,0-15.5,12.3h0a12.7,12.7,0,0,0-.4,3.4h0v.2l-13,10.6v20.2l13,9.8v1.4a15.7,15.7,0,0,0,15.8,15.9h69.4a15.9,15.9,0,0,0,15.5-12.3h0l.3-1.6h0a9.7,9.7,0,0,0,.1-1.7h0v-1.4l13.1-10.6Zm-29,44.1h-69.3a11.9,11.9,0,0,1-11.9-11.9V161.9a9.1,9.1,0,0,1,.3-2.3h-.1a11.9,11.9,0,0,1,11.7-9.6h72.8l.6.3h.5l.7.4h.4l.5.4.4.2.5.4.5.3.5.5.3.3.5.5.3.3.3.5.3.5.5.6v.3a3,3,0,0,1,.4.8c0,.1.1.2.1.3l.3.6c0,.2.1.3.1.5a1.9,1.9,0,0,1,.2.7.6.6,0,0,1,.1.4,9.9,9.9,0,0,1,.3,2.4v42.2a9.1,9.1,0,0,1-.3,2.3h.1A11.9,11.9,0,0,1,5634.6,216Z"/><path class="adff045d-b3f3-49fc-b5a1-e9e77077c40f" d="M5561,190.9v17.5s22.4-2.3,38.2-2.3,39.9,2.3,39.9,2.3V190.9s-24.8-2.3-39.9-2.3S5561,190.9,5561,190.9Zm74.5,13.9a357.6,357.6,0,0,0-36.3-2.3,266.9,266.9,0,0,0-34.6,2.3V194.4s19.5-2.3,34.6-2.3,36.3,2.3,36.3,2.3Z"/><path class="adff045d-b3f3-49fc-b5a1-e9e77077c40f" d="M5562.3,171.5l4.1,2.2-3.8,2a1,1,0,0,0-.4,1.4h0l.8,1.5a1.1,1.1,0,0,0,1.5.4h0l4.4-2.3v4.6a1.1,1.1,0,0,0,1,1h1.7a1,1,0,0,0,1-1v-4.4l4.2,2.2h0a1,1,0,0,0,1.4-.4l.8-1.4h0a1.1,1.1,0,0,0-.4-1.5l-4-2.1,4.3-2.3a1.4,1.4,0,0,0,.4-1.5l-.8-1.5a1.1,1.1,0,0,0-1.5-.4h0l-4.4,2.4V165a1.1,1.1,0,0,0-1.1-1.1h-1.6a1.1,1.1,0,0,0-1,1.1v5.6l-4.7-2.4h0a1.1,1.1,0,0,0-1.5.4l-.8,1.4h0A1.1,1.1,0,0,0,5562.3,171.5Z"/><path class="adff045d-b3f3-49fc-b5a1-e9e77077c40f" d="M5592.3,171.5l3.9,2.1-3.7,1.9a1.1,1.1,0,0,0-.4,1.5h0l.8,1.5a1.1,1.1,0,0,0,1.5.4h0l4.4-2.4v4.8a1.1,1.1,0,0,0,1.1,1h1.6a1.1,1.1,0,0,0,1-1v-4.4l4.2,2.2h0a1,1,0,0,0,1.4-.4l.8-1.4h.1a1.1,1.1,0,0,0-.5-1.5l-4.1-2.2,4.4-2.4a1,1,0,0,0,.3-1.3l-.8-1.5a1.1,1.1,0,0,0-1.5-.4h0l-4.3,2.3V165a1.1,1.1,0,0,0-1-1.1h-1.6a1.1,1.1,0,0,0-1.1,1.1v5.6l-4.7-2.4h0a1,1,0,0,0-1.4.4l-.8,1.4h-.1A1.1,1.1,0,0,0,5592.3,171.5Z"/><path class="adff045d-b3f3-49fc-b5a1-e9e77077c40f" d="M5622,171.5l4.1,2.2-3.8,2a1,1,0,0,0-.4,1.4h0l.8,1.5a1.1,1.1,0,0,0,1.5.4h0l4.4-2.3v4.6a1.1,1.1,0,0,0,1.1,1h1.6a1.1,1.1,0,0,0,1-1v-4.4l4.2,2.2h0a1,1,0,0,0,1.4-.4l.8-1.4h0a1,1,0,0,0-.4-1.5l-4-2.1,4.3-2.3a1.3,1.3,0,0,0,.4-1.5l-.8-1.5a1.1,1.1,0,0,0-1.5-.4h0l-4.4,2.4V165a1.1,1.1,0,0,0-1-1.1h-1.6a1.1,1.1,0,0,0-1.1,1.1v5.6l-4.7-2.4h0a1.1,1.1,0,0,0-1.5.4l-.8,1.4h0A1.1,1.1,0,0,0,5622,171.5Z"/><path class="adff045d-b3f3-49fc-b5a1-e9e77077c40f" d="M5983.6,171.9l-13.1-10a15.8,15.8,0,0,0-13-15.6l.6-3.9a37.1,37.1,0,0,0-73.5-10.6l-.8,6.1a15.1,15.1,0,0,1,5.2,0,26,26,0,0,1,4,1l.8-5.7a27.7,27.7,0,0,1,54.9,7.9h0l-.7,4.9h-62.7a15.8,15.8,0,0,0-15.5,12.3h0a12.7,12.7,0,0,0-.4,3.4h0v.2l-13,10.6v20.2l13,9.8v1.4a15.7,15.7,0,0,0,15.8,15.9h69.4a15.9,15.9,0,0,0,15.5-12.3h0l.3-1.6h0a9.7,9.7,0,0,0,.1-1.7h0v-1.4l13.1-10.6Zm-29,44.1h-69.3a11.9,11.9,0,0,1-11.9-11.9V161.9a9.1,9.1,0,0,1,.3-2.3h-.1a11.9,11.9,0,0,1,11.7-9.6h72.8l.6.3h.5l.7.4h.4l.5.4.4.2.5.4.5.3.5.5.3.3.5.5.3.3.3.5.3.5.5.6v.3a3,3,0,0,1,.4.8c0,.1.1.2.1.3l.3.6c0,.2.1.3.1.5a1.9,1.9,0,0,1,.2.7.6.6,0,0,1,.1.4,9.9,9.9,0,0,1,.3,2.4v42.2a9.1,9.1,0,0,1-.3,2.3h.1A11.9,11.9,0,0,1,5954.6,216Z"/><path class="adff045d-b3f3-49fc-b5a1-e9e77077c40f" d="M5881,190.9v17.5s22.4-2.3,38.2-2.3,39.9,2.3,39.9,2.3V190.9s-24.8-2.3-39.9-2.3S5881,190.9,5881,190.9Zm74.5,13.9a357.6,357.6,0,0,0-36.3-2.3,266.9,266.9,0,0,0-34.6,2.3V194.4s19.5-2.3,34.6-2.3,36.3,2.3,36.3,2.3Z"/><path class="adff045d-b3f3-49fc-b5a1-e9e77077c40f" d="M5882.3,171.5l4.1,2.2-3.8,2a1,1,0,0,0-.4,1.4h0l.8,1.5a1.1,1.1,0,0,0,1.5.4h0l4.4-2.3v4.6a1.1,1.1,0,0,0,1,1h1.7a1,1,0,0,0,1-1v-4.4l4.2,2.2h0a1,1,0,0,0,1.4-.4l.8-1.4h0a1.1,1.1,0,0,0-.4-1.5l-4-2.1,4.3-2.3a1.4,1.4,0,0,0,.4-1.5l-.8-1.5a1.1,1.1,0,0,0-1.5-.4h0l-4.4,2.4V165a1.1,1.1,0,0,0-1.1-1.1h-1.6a1.1,1.1,0,0,0-1,1.1v5.6l-4.7-2.4h0a1.1,1.1,0,0,0-1.5.4l-.8,1.4h0A1.1,1.1,0,0,0,5882.3,171.5Z"/><path class="adff045d-b3f3-49fc-b5a1-e9e77077c40f" d="M5912.3,171.5l3.9,2.1-3.7,1.9a1.1,1.1,0,0,0-.4,1.5h0l.8,1.5a1.1,1.1,0,0,0,1.5.4h0l4.4-2.4v4.8a1.1,1.1,0,0,0,1.1,1h1.6a1.1,1.1,0,0,0,1-1v-4.4l4.2,2.2h0a1,1,0,0,0,1.4-.4l.8-1.4h.1a1.1,1.1,0,0,0-.5-1.5l-4.1-2.2,4.4-2.4a1,1,0,0,0,.3-1.3l-.8-1.5a1.1,1.1,0,0,0-1.5-.4h0l-4.3,2.3V165a1.1,1.1,0,0,0-1-1.1h-1.6a1.1,1.1,0,0,0-1.1,1.1v5.6l-4.7-2.4h0a1,1,0,0,0-1.4.4l-.8,1.4h-.1A1.1,1.1,0,0,0,5912.3,171.5Z"/><path class="adff045d-b3f3-49fc-b5a1-e9e77077c40f" d="M5942,171.5l4.1,2.2-3.8,2a1,1,0,0,0-.4,1.4h0l.8,1.5a1.1,1.1,0,0,0,1.5.4h0l4.4-2.3v4.6a1.1,1.1,0,0,0,1.1,1h1.6a1.1,1.1,0,0,0,1-1v-4.4l4.2,2.2h0a1,1,0,0,0,1.4-.4l.8-1.4h0a1,1,0,0,0-.4-1.5l-4-2.1,4.3-2.3a1.3,1.3,0,0,0,.4-1.5l-.8-1.5a1.1,1.1,0,0,0-1.5-.4h0l-4.4,2.4V165a1.1,1.1,0,0,0-1-1.1h-1.6a1.1,1.1,0,0,0-1.1,1.1v5.6l-4.7-2.4h0a1.1,1.1,0,0,0-1.5.4l-.8,1.4h0A1.1,1.1,0,0,0,5942,171.5Z"/><path class="adff045d-b3f3-49fc-b5a1-e9e77077c40f" d="M6303.6,171.9l-13.1-10a15.8,15.8,0,0,0-13-15.6l.6-3.9a37.1,37.1,0,0,0-73.5-10.6l-.8,6.1a15.1,15.1,0,0,1,5.2,0,26,26,0,0,1,4,1l.8-5.7a27.7,27.7,0,0,1,54.9,7.9h0l-.7,4.9h-62.7a15.8,15.8,0,0,0-15.5,12.3h0a12.7,12.7,0,0,0-.4,3.4h0v.2l-13,10.6v20.2l13,9.8v1.4a15.7,15.7,0,0,0,15.8,15.9h69.4a15.9,15.9,0,0,0,15.5-12.3h0l.3-1.6h0a9.7,9.7,0,0,0,.1-1.7h0v-1.4l13.1-10.6Zm-29,44.1h-69.3a11.9,11.9,0,0,1-11.9-11.9V161.9a9.1,9.1,0,0,1,.3-2.3h-.1a11.9,11.9,0,0,1,11.7-9.6h72.8l.6.3h.5l.7.4h.4l.5.4.4.2.5.4.5.3.5.5.3.3.5.5.3.3.3.5.3.5.5.6v.3a3,3,0,0,1,.4.8c0,.1.1.2.1.3l.3.6c0,.2.1.3.1.5a1.9,1.9,0,0,1,.2.7.6.6,0,0,1,.1.4,9.9,9.9,0,0,1,.3,2.4v42.2a9.1,9.1,0,0,1-.3,2.3h.1A11.9,11.9,0,0,1,6274.6,216Z"/><path class="adff045d-b3f3-49fc-b5a1-e9e77077c40f" d="M6201,190.9v17.5s22.4-2.3,38.2-2.3,39.9,2.3,39.9,2.3V190.9s-24.8-2.3-39.9-2.3S6201,190.9,6201,190.9Zm74.5,13.9a357.6,357.6,0,0,0-36.3-2.3,266.9,266.9,0,0,0-34.6,2.3V194.4s19.5-2.3,34.6-2.3,36.3,2.3,36.3,2.3Z"/><path class="adff045d-b3f3-49fc-b5a1-e9e77077c40f" d="M6202.3,171.5l4.1,2.2-3.8,2a1,1,0,0,0-.4,1.4h0l.8,1.5a1.1,1.1,0,0,0,1.5.4h0l4.4-2.3v4.6a1.1,1.1,0,0,0,1,1h1.7a1,1,0,0,0,1-1v-4.4l4.2,2.2h0a1,1,0,0,0,1.4-.4l.8-1.4h0a1.1,1.1,0,0,0-.4-1.5l-4-2.1,4.3-2.3a1.4,1.4,0,0,0,.4-1.5l-.8-1.5a1.1,1.1,0,0,0-1.5-.4h0l-4.4,2.4V165a1.1,1.1,0,0,0-1.1-1.1h-1.6a1.1,1.1,0,0,0-1,1.1v5.6l-4.7-2.4h0a1.1,1.1,0,0,0-1.5.4l-.8,1.4h0A1.1,1.1,0,0,0,6202.3,171.5Z"/><path class="adff045d-b3f3-49fc-b5a1-e9e77077c40f" d="M6232.3,171.5l3.9,2.1-3.7,1.9a1.1,1.1,0,0,0-.4,1.5h0l.8,1.5a1.1,1.1,0,0,0,1.5.4h0l4.4-2.4v4.8a1.1,1.1,0,0,0,1.1,1h1.6a1.1,1.1,0,0,0,1-1v-4.4l4.2,2.2h0a1,1,0,0,0,1.4-.4l.8-1.4h.1a1.1,1.1,0,0,0-.5-1.5l-4.1-2.2,4.4-2.4a1,1,0,0,0,.3-1.3l-.8-1.5a1.1,1.1,0,0,0-1.5-.4h0l-4.3,2.3V165a1.1,1.1,0,0,0-1-1.1h-1.6a1.1,1.1,0,0,0-1.1,1.1v5.6l-4.7-2.4h0a1,1,0,0,0-1.4.4l-.8,1.4h-.1A1.1,1.1,0,0,0,6232.3,171.5Z"/><path class="adff045d-b3f3-49fc-b5a1-e9e77077c40f" d="M6262,171.5l4.1,2.2-3.8,2a1,1,0,0,0-.4,1.4h0l.8,1.5a1.1,1.1,0,0,0,1.5.4h0l4.4-2.3v4.6a1.1,1.1,0,0,0,1.1,1h1.6a1.1,1.1,0,0,0,1-1v-4.4l4.2,2.2h0a1,1,0,0,0,1.4-.4l.8-1.4h0a1,1,0,0,0-.4-1.5l-4-2.1,4.3-2.3a1.3,1.3,0,0,0,.4-1.5l-.8-1.5a1.1,1.1,0,0,0-1.5-.4h0l-4.4,2.4V165a1.1,1.1,0,0,0-1-1.1h-1.6a1.1,1.1,0,0,0-1.1,1.1v5.6l-4.7-2.4h0a1.1,1.1,0,0,0-1.5.4l-.8,1.4h0A1.1,1.1,0,0,0,6262,171.5Z"/><path class="adff045d-b3f3-49fc-b5a1-e9e77077c40f" d="M6623.6,171.9l-13.1-10a15.8,15.8,0,0,0-13-15.6l.6-3.9a37.1,37.1,0,0,0-73.5-10.6l-.8,6.1a15.1,15.1,0,0,1,5.2,0,26,26,0,0,1,4,1l.8-5.7a27.7,27.7,0,0,1,54.9,7.9h0l-.7,4.9h-62.7a15.8,15.8,0,0,0-15.5,12.3h0a12.7,12.7,0,0,0-.4,3.4h0v.2l-13,10.6v20.2l13,9.8v1.4a15.7,15.7,0,0,0,15.8,15.9h69.4a15.9,15.9,0,0,0,15.5-12.3h0l.3-1.6h0a9.7,9.7,0,0,0,.1-1.7h0v-1.4l13.1-10.6Zm-29,44.1h-69.3a11.9,11.9,0,0,1-11.9-11.9V161.9a9.1,9.1,0,0,1,.3-2.3h-.1a11.9,11.9,0,0,1,11.7-9.6h72.8l.6.3h.5l.7.4h.4l.5.4.4.2.5.4.5.3.5.5.3.3.5.5.3.3.3.5.3.5.5.6v.3a3,3,0,0,1,.4.8c0,.1.1.2.1.3l.3.6c0,.2.1.3.1.5a1.9,1.9,0,0,1,.2.7.6.6,0,0,1,.1.4,9.9,9.9,0,0,1,.3,2.4v42.2a9.1,9.1,0,0,1-.3,2.3h.1A11.9,11.9,0,0,1,6594.6,216Z"/><path class="adff045d-b3f3-49fc-b5a1-e9e77077c40f" d="M6521,190.9v17.5s22.4-2.3,38.2-2.3,39.9,2.3,39.9,2.3V190.9s-24.8-2.3-39.9-2.3S6521,190.9,6521,190.9Zm74.5,13.9a357.6,357.6,0,0,0-36.3-2.3,266.9,266.9,0,0,0-34.6,2.3V194.4s19.5-2.3,34.6-2.3,36.3,2.3,36.3,2.3Z"/><path class="adff045d-b3f3-49fc-b5a1-e9e77077c40f" d="M6522.3,171.5l4.1,2.2-3.8,2a1,1,0,0,0-.4,1.4h0l.8,1.5a1.1,1.1,0,0,0,1.5.4h0l4.4-2.3v4.6a1.1,1.1,0,0,0,1,1h1.7a1,1,0,0,0,1-1v-4.4l4.2,2.2h0a1,1,0,0,0,1.4-.4l.8-1.4h0a1.1,1.1,0,0,0-.4-1.5l-4-2.1,4.3-2.3a1.4,1.4,0,0,0,.4-1.5l-.8-1.5a1.1,1.1,0,0,0-1.5-.4h0l-4.4,2.4V165a1.1,1.1,0,0,0-1.1-1.1h-1.6a1.1,1.1,0,0,0-1,1.1v5.6l-4.7-2.4h0a1.1,1.1,0,0,0-1.5.4l-.8,1.4h0A1.1,1.1,0,0,0,6522.3,171.5Z"/><path class="adff045d-b3f3-49fc-b5a1-e9e77077c40f" d="M6552.3,171.5l3.9,2.1-3.7,1.9a1.1,1.1,0,0,0-.4,1.5h0l.8,1.5a1.1,1.1,0,0,0,1.5.4h0l4.4-2.4v4.8a1.1,1.1,0,0,0,1.1,1h1.6a1.1,1.1,0,0,0,1-1v-4.4l4.2,2.2h0a1,1,0,0,0,1.4-.4l.8-1.4h.1a1.1,1.1,0,0,0-.5-1.5l-4.1-2.2,4.4-2.4a1,1,0,0,0,.3-1.3l-.8-1.5a1.1,1.1,0,0,0-1.5-.4h0l-4.3,2.3V165a1.1,1.1,0,0,0-1-1.1h-1.6a1.1,1.1,0,0,0-1.1,1.1v5.6l-4.7-2.4h0a1,1,0,0,0-1.4.4l-.8,1.4h-.1A1.1,1.1,0,0,0,6552.3,171.5Z"/><path class="adff045d-b3f3-49fc-b5a1-e9e77077c40f" d="M6582,171.5l4.1,2.2-3.8,2a1,1,0,0,0-.4,1.4h0l.8,1.5a1.1,1.1,0,0,0,1.5.4h0l4.4-2.3v4.6a1.1,1.1,0,0,0,1.1,1h1.6a1.1,1.1,0,0,0,1-1v-4.4l4.2,2.2h0a1,1,0,0,0,1.4-.4l.8-1.4h0a1,1,0,0,0-.4-1.5l-4-2.1,4.3-2.3a1.3,1.3,0,0,0,.4-1.5l-.8-1.5a1.1,1.1,0,0,0-1.5-.4h0l-4.4,2.4V165a1.1,1.1,0,0,0-1-1.1h-1.6a1.1,1.1,0,0,0-1.1,1.1v5.6l-4.7-2.4h0a1.1,1.1,0,0,0-1.5.4l-.8,1.4h0A1.1,1.1,0,0,0,6582,171.5Z"/><path class="adff045d-b3f3-49fc-b5a1-e9e77077c40f" d="M6943.6,171.9l-13.1-10a15.8,15.8,0,0,0-13-15.6l.6-3.9a37.1,37.1,0,0,0-73.5-10.6l-.8,6.1a15.1,15.1,0,0,1,5.2,0,26,26,0,0,1,4,1l.8-5.7a27.7,27.7,0,0,1,54.9,7.9h0l-.7,4.9h-62.7a15.8,15.8,0,0,0-15.5,12.3h0a12.7,12.7,0,0,0-.4,3.4h0v.2l-13,10.6v20.2l13,9.8v1.4a15.7,15.7,0,0,0,15.8,15.9h69.4a15.9,15.9,0,0,0,15.5-12.3h0l.3-1.6h0a9.7,9.7,0,0,0,.1-1.7h0v-1.4l13.1-10.6Zm-29,44.1h-69.3a11.9,11.9,0,0,1-11.9-11.9V161.9a9.1,9.1,0,0,1,.3-2.3h-.1a11.9,11.9,0,0,1,11.7-9.6h72.8l.6.3h.5l.7.4h.4l.5.4.4.2.5.4.5.3.5.5.3.3.5.5.3.3.3.5.3.5.5.6v.3a3,3,0,0,1,.4.8c0,.1.1.2.1.3l.3.6c0,.2.1.3.1.5a1.9,1.9,0,0,1,.2.7.6.6,0,0,1,.1.4,9.9,9.9,0,0,1,.3,2.4v42.2a9.1,9.1,0,0,1-.3,2.3h.1A11.9,11.9,0,0,1,6914.6,216Z"/><path class="adff045d-b3f3-49fc-b5a1-e9e77077c40f" d="M6841,190.9v17.5s22.4-2.3,38.2-2.3,39.9,2.3,39.9,2.3V190.9s-24.8-2.3-39.9-2.3S6841,190.9,6841,190.9Zm74.5,13.9a357.6,357.6,0,0,0-36.3-2.3,266.9,266.9,0,0,0-34.6,2.3V194.4s19.5-2.3,34.6-2.3,36.3,2.3,36.3,2.3Z"/><path class="adff045d-b3f3-49fc-b5a1-e9e77077c40f" d="M6842.3,171.5l4.1,2.2-3.8,2a1,1,0,0,0-.4,1.4h0l.8,1.5a1.1,1.1,0,0,0,1.5.4h0l4.4-2.3v4.6a1.1,1.1,0,0,0,1,1h1.7a1,1,0,0,0,1-1v-4.4l4.2,2.2h0a1,1,0,0,0,1.4-.4l.8-1.4h0a1.1,1.1,0,0,0-.4-1.5l-4-2.1,4.3-2.3a1.4,1.4,0,0,0,.4-1.5l-.8-1.5a1.1,1.1,0,0,0-1.5-.4h0l-4.4,2.4V165a1.1,1.1,0,0,0-1.1-1.1h-1.6a1.1,1.1,0,0,0-1,1.1v5.6l-4.7-2.4h0a1.1,1.1,0,0,0-1.5.4l-.8,1.4h0A1.1,1.1,0,0,0,6842.3,171.5Z"/><path class="adff045d-b3f3-49fc-b5a1-e9e77077c40f" d="M6872.3,171.5l3.9,2.1-3.7,1.9a1.1,1.1,0,0,0-.4,1.5h0l.8,1.5a1.1,1.1,0,0,0,1.5.4h0l4.4-2.4v4.8a1.1,1.1,0,0,0,1.1,1h1.6a1.1,1.1,0,0,0,1-1v-4.4l4.2,2.2h0a1,1,0,0,0,1.4-.4l.8-1.4h.1a1.1,1.1,0,0,0-.5-1.5l-4.1-2.2,4.4-2.4a1,1,0,0,0,.3-1.3l-.8-1.5a1.1,1.1,0,0,0-1.5-.4h0l-4.3,2.3V165a1.1,1.1,0,0,0-1-1.1h-1.6a1.1,1.1,0,0,0-1.1,1.1v5.6l-4.7-2.4h0a1,1,0,0,0-1.4.4l-.8,1.4h-.1A1.1,1.1,0,0,0,6872.3,171.5Z"/><path class="adff045d-b3f3-49fc-b5a1-e9e77077c40f" d="M6902,171.5l4.1,2.2-3.8,2a1,1,0,0,0-.4,1.4h0l.8,1.5a1.1,1.1,0,0,0,1.5.4h0l4.4-2.3v4.6a1.1,1.1,0,0,0,1.1,1h1.6a1.1,1.1,0,0,0,1-1v-4.4l4.2,2.2h0a1,1,0,0,0,1.4-.4l.8-1.4h0a1,1,0,0,0-.4-1.5l-4-2.1,4.3-2.3a1.3,1.3,0,0,0,.4-1.5l-.8-1.5a1.1,1.1,0,0,0-1.5-.4h0l-4.4,2.4V165a1.1,1.1,0,0,0-1-1.1h-1.6a1.1,1.1,0,0,0-1.1,1.1v5.6l-4.7-2.4h0a1.1,1.1,0,0,0-1.5.4l-.8,1.4h0A1.1,1.1,0,0,0,6902,171.5Z"/><g id="f73d088c-8356-4663-baba-d1457ff9cd56" data-name="hack"><path id="bc2b9d7b-a04e-4a1d-b3ad-1015fd775a18" data-name="Path 91" class="adff045d-b3f3-49fc-b5a1-e9e77077c40f" d="M4161.7,89.6V.4h19.9V39.9h20V.4h19.9V89.6h-19.9V50.1h-20V89.6Z"/><path id="efc49709-7c28-4780-9c26-ae75b9ba8a5a" data-name="Path 92" class="adff045d-b3f3-49fc-b5a1-e9e77077c40f" d="M4283.7,30.1h-9.8a11.4,11.4,0,0,0-7.2,3,10.2,10.2,0,0,0-3,7.2V50.5a11.1,11.1,0,0,0,3,7.1,9.4,9.4,0,0,0,7.2,3,11.1,11.1,0,0,0,7.1-3,9.1,9.1,0,0,0,3-7.1V30.1Zm19.9,59.5H4269A34.8,34.8,0,0,1,4234.3,55V35A34.8,34.8,0,0,1,4269,.4h19.9A34.7,34.7,0,0,1,4323.6,35V59.9a10.9,10.9,0,0,1-3,7.1,9.4,9.4,0,0,1-7.2,3h-19.9c-5.7,0-9.1-3.3-9.8-9.7a11.8,11.8,0,0,1-3.4,7.5A12.3,12.3,0,0,1,4272,70a17,17,0,0,1-12.1-5.6,19.9,19.9,0,0,1-6-13.9V40.3a18.2,18.2,0,0,1,6-13.9,20,20,0,0,1,14-6.1h19.9V55c0,3.4,1.5,4.9,4.9,4.9h9.8c3.4,0,4.9-1.5,4.9-4.9V35a23,23,0,0,0-7.1-17.3,23.7,23.7,0,0,0-17.7-7.5h-20a23,23,0,0,0-17.3,7.1,23.7,23.7,0,0,0-7.5,17.7V55a23,23,0,0,0,7.1,17.3,23.7,23.7,0,0,0,17.7,7.5h34.7v9.8Z"/><path id="b97b2584-3d1a-43db-a366-70154777fca8" data-name="Path 93" class="adff045d-b3f3-49fc-b5a1-e9e77077c40f" d="M4395.9,69.7c-.8,13.1-7.6,19.9-20,19.9H4356a18.6,18.6,0,0,1-14-6,19.9,19.9,0,0,1-6-13.9V20a19.2,19.2,0,0,1,5.7-14A20,20,0,0,1,4356,0h19.9c12.4,0,19.2,6.8,20,20h-9.8c-.8-6.8-4.2-10.2-9.8-10.2h-10.2a11.1,11.1,0,0,0-7.1,3,9.4,9.4,0,0,0-3,7.2V69.7a10.6,10.6,0,0,0,3,7.1,9.1,9.1,0,0,0,7.1,3h10.2c6,0,9-3.4,9.8-10.1Z"/><path id="fc55300b-4406-498d-aa77-4cd78526c044" data-name="Path 94" class="adff045d-b3f3-49fc-b5a1-e9e77077c40f" d="M4408.7,89.6V.4h19.9V36.9l32-36.5h17.7l-39.9,44.8L4478.3,90h-19.9l-29.8-34.6V90h-19.9Z"/></g><g id="a851995c-3d5b-4c3c-b3a1-d9160fa4a95e" data-name="hack"><path id="ab2be96e-6bf1-4c98-b701-013024692712" data-name="Path 91" class="adff045d-b3f3-49fc-b5a1-e9e77077c40f" d="M4161.7,204.6V115.4h19.9v39.5h20V115.4h19.9v89.2h-19.9V165.1h-20v39.5Z"/><path id="b49eabad-26dd-4f45-9441-47d8019efe07" data-name="Path 92" class="adff045d-b3f3-49fc-b5a1-e9e77077c40f" d="M4283.7,145.1h-9.8a11.4,11.4,0,0,0-7.2,3,10.2,10.2,0,0,0-3,7.2v10.2a11.1,11.1,0,0,0,3,7.1,9.4,9.4,0,0,0,7.2,3,11.1,11.1,0,0,0,7.1-3,9.1,9.1,0,0,0,3-7.1V145.1Zm19.9,59.5H4269a34.8,34.8,0,0,1-34.7-34.6V150a34.8,34.8,0,0,1,34.7-34.6h19.9a34.7,34.7,0,0,1,34.7,34.6v24.9a10.9,10.9,0,0,1-3,7.1,9.4,9.4,0,0,1-7.2,3h-19.9c-5.7,0-9.1-3.3-9.8-9.7a11.8,11.8,0,0,1-3.4,7.5,12.3,12.3,0,0,1-8.3,2.2,17,17,0,0,1-12.1-5.6,19.9,19.9,0,0,1-6-13.9V155.3a18.2,18.2,0,0,1,6-13.9,20,20,0,0,1,14-6.1h19.9V170c0,3.4,1.5,4.9,4.9,4.9h9.8c3.4,0,4.9-1.5,4.9-4.9V150a23,23,0,0,0-7.1-17.3,23.7,23.7,0,0,0-17.7-7.5h-20a23,23,0,0,0-17.3,7.1,23.7,23.7,0,0,0-7.5,17.7v20a23,23,0,0,0,7.1,17.3,23.7,23.7,0,0,0,17.7,7.5h34.7v9.8Z"/><path id="f6255737-feac-48dc-a99c-d19a95265622" data-name="Path 93" class="adff045d-b3f3-49fc-b5a1-e9e77077c40f" d="M4395.9,184.7c-.8,13.1-7.6,19.9-20,19.9H4356a18.6,18.6,0,0,1-14-6,19.9,19.9,0,0,1-6-13.9V135a19.2,19.2,0,0,1,5.7-14,20,20,0,0,1,14.3-6h19.9c12.4,0,19.2,6.8,20,20h-9.8c-.8-6.8-4.2-10.2-9.8-10.2h-10.2a11.1,11.1,0,0,0-7.1,3,9.4,9.4,0,0,0-3,7.2v49.7a10.6,10.6,0,0,0,3,7.1,9.1,9.1,0,0,0,7.1,3h10.2c6,0,9-3.4,9.8-10.1Z"/><path id="a2477251-59f7-4b8a-b397-0c76eddc75fb" data-name="Path 94" class="adff045d-b3f3-49fc-b5a1-e9e77077c40f" d="M4408.7,204.6V115.4h19.9v36.5l32-36.5h17.7l-39.9,44.8,39.9,44.8h-19.9l-29.8-34.6V205h-19.9Z"/></g><path id="ebbb3f9e-8aff-4e83-96f7-25e2d562c2b3" data-name="Path 84" class="adff045d-b3f3-49fc-b5a1-e9e77077c40f" d="M1389.1,114.4h20.3v80.8h9.9a10.3,10.3,0,0,0,7.3-3,10.1,10.1,0,0,0,3.1-7.3V114.4H1450v80.8h10.3a11.6,11.6,0,0,0,7.3-3,9.7,9.7,0,0,0,3-7.3V114.4h20.3v56.3a34.4,34.4,0,0,1-9.9,24.5,33.5,33.5,0,0,1-24.5,10.4h-26.1v-3.1a32.6,32.6,0,0,1-14.1,3.1h-26.1V114.4Z"/><path id="b697ddc2-a822-47d3-8342-4c23f90139e3" data-name="Path 85" class="adff045d-b3f3-49fc-b5a1-e9e77077c40f" d="M1729.4,205.6V114.4h20.4v40.4h20.4V114.4h20.4v91.2h-20.4V165.2h-20.4v40.4Z"/><path id="ef4738a9-8020-4c60-949d-4f29b0049059" data-name="Path 86" class="adff045d-b3f3-49fc-b5a1-e9e77077c40f" d="M2049.6,205.2V134.7a17.6,17.6,0,0,1,6.1-14.1,20,20,0,0,1,14.2-6.2h20.3a18.7,18.7,0,0,1,14.1,6.2,20,20,0,0,1,6.2,14.1v70.9h-20.3V165h-20.3v40.2Zm20.3-50.6h20.3V134.3a10.8,10.8,0,0,0-3.1-7.2,10,10,0,0,0-7.3-3.1,11.2,11.2,0,0,0-7.3,3.1,9.4,9.4,0,0,0-3,7.2v20.3Z"/><path id="fab93986-6c40-499b-9019-33576bccd222" data-name="Path 87" class="adff045d-b3f3-49fc-b5a1-e9e77077c40f" d="M2389.8,205.6V124.4h-20.4v-10h61.2v10h-20.4v81.2Z"/><path id="adcd2212-9978-43d1-b9d6-b613098610be" data-name="Path 88" class="adff045d-b3f3-49fc-b5a1-e9e77077c40f" d="M2710,205.6V124.4h-20.4v-10h60.8v10H2730v81.2Z"/><path id="fbe9d74b-9ece-48e3-9601-99ef85fde2a8" data-name="Path 89" class="adff045d-b3f3-49fc-b5a1-e9e77077c40f" d="M3009.4,205.6V114.4h20.4v40.4h20.4V114.4h20.4v91.2h-20.4V165.2h-20.4v40.4Z"/><path id="f7638d16-aa7b-4d21-bef2-c19087250dc3" data-name="Path 90" class="adff045d-b3f3-49fc-b5a1-e9e77077c40f" d="M3334.6,205.6V114.4h50.8v10H3355v30.4h20.4v10.4H3355v30.4h30.4v10Z"/><g id="e2d565e8-9442-48db-b878-7689fda31cc2" data-name="hack"><path id="bc51b4fe-8e92-4224-b393-eb6a15b5ce8e" data-name="Path 91" class="adff045d-b3f3-49fc-b5a1-e9e77077c40f" d="M3841.7,89.6V.4h19.9V39.9h20V.4h19.9V89.6h-19.9V50.1h-20V89.6Z"/><path id="a8b80ad8-0af5-4375-8940-4b5050d6a22c" data-name="Path 92" class="adff045d-b3f3-49fc-b5a1-e9e77077c40f" d="M3963.7,30.1h-9.8a11.4,11.4,0,0,0-7.2,3,10.2,10.2,0,0,0-3,7.2V50.5a11.1,11.1,0,0,0,3,7.1,9.4,9.4,0,0,0,7.2,3,11.1,11.1,0,0,0,7.1-3,9.1,9.1,0,0,0,3-7.1V30.1Zm19.9,59.5H3949A34.8,34.8,0,0,1,3914.3,55V35A34.8,34.8,0,0,1,3949,.4h19.9A34.7,34.7,0,0,1,4003.6,35V59.9a10.9,10.9,0,0,1-3,7.1,9.4,9.4,0,0,1-7.2,3h-19.9c-5.7,0-9.1-3.3-9.8-9.7a11.8,11.8,0,0,1-3.4,7.5A12.3,12.3,0,0,1,3952,70a17,17,0,0,1-12.1-5.6,19.9,19.9,0,0,1-6-13.9V40.3a18.2,18.2,0,0,1,6-13.9,20,20,0,0,1,14-6.1h19.9V55c0,3.4,1.5,4.9,4.9,4.9h9.8c3.4,0,4.9-1.5,4.9-4.9V35a23,23,0,0,0-7.1-17.3,23.7,23.7,0,0,0-17.7-7.5h-20a23,23,0,0,0-17.3,7.1,23.7,23.7,0,0,0-7.5,17.7V55a23,23,0,0,0,7.1,17.3,23.7,23.7,0,0,0,17.7,7.5h34.7v9.8Z"/><path id="b66d46d2-1bdf-4034-bd21-8b159ad205a9" data-name="Path 93" class="adff045d-b3f3-49fc-b5a1-e9e77077c40f" d="M4075.9,69.7c-.8,13.1-7.6,19.9-20,19.9H4036a18.6,18.6,0,0,1-14-6,19.9,19.9,0,0,1-6-13.9V20a19.2,19.2,0,0,1,5.7-14A20,20,0,0,1,4036,0h19.9c12.4,0,19.2,6.8,20,20h-9.8c-.8-6.8-4.2-10.2-9.8-10.2h-10.2a11.1,11.1,0,0,0-7.1,3,9.4,9.4,0,0,0-3,7.2V69.7a10.6,10.6,0,0,0,3,7.1,9.1,9.1,0,0,0,7.1,3h10.2c6,0,9-3.4,9.8-10.1Z"/><path id="e6faa3ea-702e-4744-aced-03771f3bacde" data-name="Path 94" class="adff045d-b3f3-49fc-b5a1-e9e77077c40f" d="M4088.7,89.6V.4h19.9V36.9l32-36.5h17.7l-39.9,44.8L4158.3,90h-19.9l-29.8-34.6V90h-19.9Z"/></g><g id="f6b99e23-f118-4049-8a16-7122fb3ed999" data-name="hack"><path id="bf4206df-e347-464a-8ed4-a9abe8371826" data-name="Path 91" class="adff045d-b3f3-49fc-b5a1-e9e77077c40f" d="M4481.7,89.6V.4h19.9V39.9h20V.4h19.9V89.6h-19.9V50.1h-20V89.6Z"/><path id="eb8192b8-34df-4112-b10d-0171c0b1965d" data-name="Path 92" class="adff045d-b3f3-49fc-b5a1-e9e77077c40f" d="M4603.7,30.1h-9.8a11.4,11.4,0,0,0-7.2,3,10.2,10.2,0,0,0-3,7.2V50.5a11.1,11.1,0,0,0,3,7.1,9.4,9.4,0,0,0,7.2,3,11.1,11.1,0,0,0,7.1-3,9.1,9.1,0,0,0,3-7.1V30.1Zm19.9,59.5H4589A34.8,34.8,0,0,1,4554.3,55V35A34.8,34.8,0,0,1,4589,.4h19.9A34.7,34.7,0,0,1,4643.6,35V59.9a10.9,10.9,0,0,1-3,7.1,9.4,9.4,0,0,1-7.2,3h-19.9c-5.7,0-9.1-3.3-9.8-9.7a11.8,11.8,0,0,1-3.4,7.5A12.3,12.3,0,0,1,4592,70a17,17,0,0,1-12.1-5.6,19.9,19.9,0,0,1-6-13.9V40.3a18.2,18.2,0,0,1,6-13.9,20,20,0,0,1,14-6.1h19.9V55c0,3.4,1.5,4.9,4.9,4.9h9.8c3.4,0,4.9-1.5,4.9-4.9V35a23,23,0,0,0-7.1-17.3,23.7,23.7,0,0,0-17.7-7.5h-20a23,23,0,0,0-17.3,7.1,23.7,23.7,0,0,0-7.5,17.7V55a23,23,0,0,0,7.1,17.3,23.7,23.7,0,0,0,17.7,7.5h34.7v9.8Z"/><path id="be82130d-d244-46fb-8aa4-f4ed90e0f3cd" data-name="Path 93" class="adff045d-b3f3-49fc-b5a1-e9e77077c40f" d="M4715.9,69.7c-.8,13.1-7.6,19.9-20,19.9H4676a18.6,18.6,0,0,1-14-6,19.9,19.9,0,0,1-6-13.9V20a19.2,19.2,0,0,1,5.7-14A20,20,0,0,1,4676,0h19.9c12.4,0,19.2,6.8,20,20h-9.8c-.8-6.8-4.2-10.2-9.8-10.2h-10.2a11.1,11.1,0,0,0-7.1,3,9.4,9.4,0,0,0-3,7.2V69.7a10.6,10.6,0,0,0,3,7.1,9.1,9.1,0,0,0,7.1,3h10.2c6,0,9-3.4,9.8-10.1Z"/><path id="f3f9f64d-af3f-417e-aee7-0b54010b5e4e" data-name="Path 94" class="adff045d-b3f3-49fc-b5a1-e9e77077c40f" d="M4728.7,89.6V.4h19.9V36.9l32-36.5h17.7l-39.9,44.8L4798.3,90h-19.9l-29.8-34.6V90h-19.9Z"/></g><g id="af55c032-05f3-43e5-afbb-bdc967c6699e" data-name="hack"><path id="b556248e-ce03-4ae0-bd3c-a252404bfa7d" data-name="Path 91" class="adff045d-b3f3-49fc-b5a1-e9e77077c40f" d="M4481.7,204.6V115.4h19.9v39.5h20V115.4h19.9v89.2h-19.9V165.1h-20v39.5Z"/><path id="f233eaee-88f1-4924-aecc-aaf18356f831" data-name="Path 92" class="adff045d-b3f3-49fc-b5a1-e9e77077c40f" d="M4603.7,145.1h-9.8a11.4,11.4,0,0,0-7.2,3,10.2,10.2,0,0,0-3,7.2v10.2a11.1,11.1,0,0,0,3,7.1,9.4,9.4,0,0,0,7.2,3,11.1,11.1,0,0,0,7.1-3,9.1,9.1,0,0,0,3-7.1V145.1Zm19.9,59.5H4589a34.8,34.8,0,0,1-34.7-34.6V150a34.8,34.8,0,0,1,34.7-34.6h19.9a34.7,34.7,0,0,1,34.7,34.6v24.9a10.9,10.9,0,0,1-3,7.1,9.4,9.4,0,0,1-7.2,3h-19.9c-5.7,0-9.1-3.3-9.8-9.7a11.8,11.8,0,0,1-3.4,7.5,12.3,12.3,0,0,1-8.3,2.2,17,17,0,0,1-12.1-5.6,19.9,19.9,0,0,1-6-13.9V155.3a18.2,18.2,0,0,1,6-13.9,20,20,0,0,1,14-6.1h19.9V170c0,3.4,1.5,4.9,4.9,4.9h9.8c3.4,0,4.9-1.5,4.9-4.9V150a23,23,0,0,0-7.1-17.3,23.7,23.7,0,0,0-17.7-7.5h-20a23,23,0,0,0-17.3,7.1,23.7,23.7,0,0,0-7.5,17.7v20a23,23,0,0,0,7.1,17.3,23.7,23.7,0,0,0,17.7,7.5h34.7v9.8Z"/><path id="e4762bd9-f61c-4c46-b466-27853aee3112" data-name="Path 93" class="adff045d-b3f3-49fc-b5a1-e9e77077c40f" d="M4715.9,184.7c-.8,13.1-7.6,19.9-20,19.9H4676a18.6,18.6,0,0,1-14-6,19.9,19.9,0,0,1-6-13.9V135a19.2,19.2,0,0,1,5.7-14,20,20,0,0,1,14.3-6h19.9c12.4,0,19.2,6.8,20,20h-9.8c-.8-6.8-4.2-10.2-9.8-10.2h-10.2a11.1,11.1,0,0,0-7.1,3,9.4,9.4,0,0,0-3,7.2v49.7a10.6,10.6,0,0,0,3,7.1,9.1,9.1,0,0,0,7.1,3h10.2c6,0,9-3.4,9.8-10.1Z"/><path id="b679f366-4bf4-4596-add4-e9154c893fdc" data-name="Path 94" class="adff045d-b3f3-49fc-b5a1-e9e77077c40f" d="M4728.7,204.6V115.4h19.9v36.5l32-36.5h17.7l-39.9,44.8,39.9,44.8h-19.9l-29.8-34.6V205h-19.9Z"/></g><g id="f02dabeb-3de7-450b-87f3-19f534d7f6ff" data-name="hack"><path id="a328c0ee-a4fb-4643-93ee-c6540474dfda" data-name="Path 91" class="adff045d-b3f3-49fc-b5a1-e9e77077c40f" d="M4481.7,319.6V230.4h19.9v39.5h20V230.4h19.9v89.2h-19.9V280.1h-20v39.5Z"/><path id="a18fbfb5-3fdb-4b98-9921-70f7e5596637" data-name="Path 92" class="adff045d-b3f3-49fc-b5a1-e9e77077c40f" d="M4603.7,260.1h-9.8a11.4,11.4,0,0,0-7.2,3,10.2,10.2,0,0,0-3,7.2v10.2a11.1,11.1,0,0,0,3,7.1,9.4,9.4,0,0,0,7.2,3,11.1,11.1,0,0,0,7.1-3,9.1,9.1,0,0,0,3-7.1V260.1Zm19.9,59.5H4589a34.8,34.8,0,0,1-34.7-34.6V265a34.8,34.8,0,0,1,34.7-34.6h19.9a34.7,34.7,0,0,1,34.7,34.6v24.9a10.9,10.9,0,0,1-3,7.1,9.4,9.4,0,0,1-7.2,3h-19.9c-5.7,0-9.1-3.3-9.8-9.7a11.8,11.8,0,0,1-3.4,7.5,12.3,12.3,0,0,1-8.3,2.2,17,17,0,0,1-12.1-5.6,19.9,19.9,0,0,1-6-13.9V270.3a18.2,18.2,0,0,1,6-13.9,20,20,0,0,1,14-6.1h19.9V285c0,3.4,1.5,4.9,4.9,4.9h9.8c3.4,0,4.9-1.5,4.9-4.9V265a23,23,0,0,0-7.1-17.3,23.7,23.7,0,0,0-17.7-7.5h-20a23,23,0,0,0-17.3,7.1,23.7,23.7,0,0,0-7.5,17.7v20a23,23,0,0,0,7.1,17.3,23.7,23.7,0,0,0,17.7,7.5h34.7v9.8Z"/><path id="b20bc4c4-c705-41c2-b55d-ce87d5685e2a" data-name="Path 93" class="adff045d-b3f3-49fc-b5a1-e9e77077c40f" d="M4715.9,299.7c-.8,13.1-7.6,19.9-20,19.9H4676a18.6,18.6,0,0,1-14-6,19.9,19.9,0,0,1-6-13.9V250a19.2,19.2,0,0,1,5.7-14,20,20,0,0,1,14.3-6h19.9c12.4,0,19.2,6.8,20,20h-9.8c-.8-6.8-4.2-10.2-9.8-10.2h-10.2a11.1,11.1,0,0,0-7.1,3,9.4,9.4,0,0,0-3,7.2v49.7a10.6,10.6,0,0,0,3,7.1,9.1,9.1,0,0,0,7.1,3h10.2c6,0,9-3.4,9.8-10.1Z"/><path id="e789c250-7d92-482f-bdc4-fbe23d3d2e6c" data-name="Path 94" class="adff045d-b3f3-49fc-b5a1-e9e77077c40f" d="M4728.7,319.6V230.4h19.9v36.5l32-36.5h17.7l-39.9,44.8,39.9,44.8h-19.9l-29.8-34.6V320h-19.9Z"/></g></svg>