<svg xmlns="http://www.w3.org/2000/svg" viewBox="0 0 346 57.02"><defs><style>.cls-1{fill:#fff;}</style></defs><title>AP-logo</title><g id="Layer_2" data-name="Layer 2"><g id="Long_Page_cz.2" data-name="Long Page cz.2"><polygon class="cls-1" points="157.46 53.35 157.37 53.35 153.31 44.22 151.48 44.22 151.48 56.87 153.16 56.87 153.16 47.74 153.24 47.74 157.3 56.87 159.14 56.87 159.15 44.22 157.46 44.22 157.46 53.35"/><path class="cls-1" d="M169.4,45.69a5,5,0,0,0-4-1.47h-2.53V56.84h2.53a5.24,5.24,0,0,0,3.89-1.43c.95-1,1.43-2.57,1.43-4.83h0C170.64,48.32,170.22,46.69,169.4,45.69Zm-1.35,8.69a3.26,3.26,0,0,1-2.64,1.08h-.79V45.64h.79a3.2,3.2,0,0,1,2.64,1.1,6.19,6.19,0,0,1,.89,3.84A6.31,6.31,0,0,1,168.05,54.38Z"/><path class="cls-1" d="M146.16,53.14a2.55,2.55,0,0,1-.59,1.84,2.32,2.32,0,0,1-3.11,0,2.47,2.47,0,0,1-.59-1.84V44.22h-1.69v8.94a4,4,0,0,0,.92,2.8,4.63,4.63,0,0,0,5.82,0,4,4,0,0,0,.93-2.8V44.22h-1.69Z"/><polygon class="cls-1" points="128.93 56.87 130.62 56.87 130.62 51.2 135.19 51.2 135.19 49.8 130.62 49.8 130.62 45.63 136.67 45.63 136.71 44.22 128.93 44.22 128.93 56.87"/><path class="cls-1" d="M202.61,44.22v8.49a3.28,3.28,0,0,1-.51,2.13,2,2,0,0,1-1.55.6,1.79,1.79,0,0,1-1.3-.56A2.59,2.59,0,0,1,198.7,53V52H197v.79a4.25,4.25,0,0,0,1,3.2,3.93,3.93,0,0,0,5.27,0,4.69,4.69,0,0,0,1-3.32V44.22Z"/><path class="cls-1" d="M211.29,44.09,207.6,56.85h1.77l1-3.88h3.25l1,3.88h1.77l-3.69-12.76Zm-.5,7.45L212,47h.13l1.18,4.5Z"/><path class="cls-1" d="M191.11,54.89a1.91,1.91,0,0,1-1.47.78,2.12,2.12,0,0,1-1.81-1.07,7.23,7.23,0,0,1-.7-3.72,8.74,8.74,0,0,1,.7-4.1,2.13,2.13,0,0,1,1.88-1.22,1.68,1.68,0,0,1,1.56.78,4.56,4.56,0,0,1,.51,2.43h1.63a4.84,4.84,0,0,0-1-3.44,3.38,3.38,0,0,0-2.7-1.21,3.67,3.67,0,0,0-3.1,1.68A8.84,8.84,0,0,0,185.38,51a7,7,0,0,0,1.24,4.6,4,4,0,0,0,3,1.45,3.57,3.57,0,0,0,2.66-1.18,6.07,6.07,0,0,0,1.18-4l-1.72,0A4.7,4.7,0,0,1,191.11,54.89Z"/><path class="cls-1" d="M177.31,44.12l-3.69,12.75h1.76l1-3.89h3.25l1,3.89h1.77l-3.65-12.75Zm-.57,7.4L178,47.06h.14l1.18,4.5Z"/><path class="cls-1" d="M324.55,10.94a22.72,22.72,0,0,0-2.47-.26A7.78,7.78,0,0,0,317.53,12a10.38,10.38,0,0,0-3.25,4.22V11.37h-7.82V36.94h8.76V26a9.5,9.5,0,0,1,1.56-5.9,5.64,5.64,0,0,1,4.72-2,10,10,0,0,1,1.55.1,6.21,6.21,0,0,1,1.19.34L324.7,11Z"/><path class="cls-1" d="M227,17.73h3.9v9c0,3.86.8,6.66,2.33,8.35s4.05,2.53,7.5,2.53a20.36,20.36,0,0,0,2.59-.17c.88-.11,1.8-.27,2.73-.48l-.14-5.71c-.6.15-1.06.25-1.38.31a6.87,6.87,0,0,1-.78.08,3.82,3.82,0,0,1-3.16-1.17,6.6,6.6,0,0,1-.91-4V17.68h6.22V11.37h-6.22V2.68l-8.28,2.84v5.9h-4l0-.44-.18,0a22.72,22.72,0,0,0-2.47-.26A7.72,7.72,0,0,0,220.19,12a10.38,10.38,0,0,0-3.25,4.22V11.37h-7.83V36.94h8.8V26.05a9.42,9.42,0,0,1,1.55-5.9,5.67,5.67,0,0,1,4.73-2,10.1,10.1,0,0,1,1.55.11,5.48,5.48,0,0,1,1.18.34Z"/><path class="cls-1" d="M344.37,24.1c-1.08-1.16-3-2.14-5.69-3l-1.77-.51c-2.38-.65-3.56-1.44-3.56-2.34a1.79,1.79,0,0,1,.84-1.61,4.5,4.5,0,0,1,2.48-.58,12.48,12.48,0,0,1,3.38.53,16.82,16.82,0,0,1,3.53,1.55l.85-6.16h0a26.85,26.85,0,0,0-3.95-1,23.53,23.53,0,0,0-3.84-.35q-5.71,0-8.87,2.23a7.15,7.15,0,0,0-3.16,6.22,5.7,5.7,0,0,0,1.56,4.21,13.51,13.51,0,0,0,5.57,2.93l1.56.47q3.93,1.17,3.93,2.72a1.69,1.69,0,0,1-1,1.55,6.4,6.4,0,0,1-2.9.53,16.52,16.52,0,0,1-4-.5,18.69,18.69,0,0,1-3.84-1.44L325,36.14a27.87,27.87,0,0,0,4.5,1.1,29.09,29.09,0,0,0,4.66.37c3.69,0,6.58-.78,8.69-2.34A7.5,7.5,0,0,0,346,28.89,6.76,6.76,0,0,0,344.37,24.1Z"/><path class="cls-1" d="M257.17,24.64a8,8,0,0,1,1.36-4.94,4.34,4.34,0,0,1,3.66-1.85,3.72,3.72,0,0,1,3.24,1.47,7.58,7.58,0,0,1,1.07,4.48V36.93h8.75V22h-.06c0-3.67-.8-6.46-2.45-8.38s-4-2.88-7.13-2.88a10.71,10.71,0,0,0-5.36,1.35A10.52,10.52,0,0,0,256.36,16V11.37h-8V36.93h8.77Z"/><path class="cls-1" d="M193.08,10.65h-.85V11a16.43,16.43,0,0,1-.77,5.16,7.46,7.46,0,0,1,4,1.1A3.69,3.69,0,0,1,197,20.43v.33h-3.45q-6.94,0-10.32,2.06a6.89,6.89,0,0,0-3.38,6.3,7.77,7.77,0,0,0,2.33,5.9,8.54,8.54,0,0,0,6.22,2.2,12.3,12.3,0,0,0,5.31-1A9.5,9.5,0,0,0,197.44,33l.19,4h7.59V23.56h0q0-6.68-3-9.79T193.08,10.65ZM196.94,26a5.79,5.79,0,0,1-1.52,4.22,5.11,5.11,0,0,1-3.88,1.61,3.39,3.39,0,0,1-2.41-.85,2.7,2.7,0,0,1-.62-.84h0a3,3,0,0,1,1.41-4,13.33,13.33,0,0,1,5.56-.84l1.47,0Z"/><path class="cls-1" d="M292.52,37.58a30.06,30.06,0,0,0,4.83-.39A25.1,25.1,0,0,0,301.8,36V29.8a22.74,22.74,0,0,1-4.38,1.6,15.85,15.85,0,0,1-4.05.53,8.65,8.65,0,0,1-5.13-1.28,5.12,5.12,0,0,1-2.15-3.89h18V24.63H304q0-6.68-3.38-10.3c-2.24-2.41-5.54-3.56-9.59-3.62s-7.28,1.09-9.7,3.45a12.61,12.61,0,0,0-3.63,9.49q0,6.56,3.93,10.24T292.52,37.58Zm-4.86-20a4.57,4.57,0,0,1,3.47-1.47,4.7,4.7,0,0,1,3.53,1.47,6.75,6.75,0,0,1,1.64,4.05H286A7,7,0,0,1,287.66,17.54Z"/><path class="cls-1" d="M186.35,2.68C184,.89,180.47,0,175.64,0H163.3V16.23h0l-.07,0c-4.24.6-7.25,2-9.58,5.35l0,0v0l-.05.06-.29.5a7.69,7.69,0,0,0-.38.76l-.06.11c-.06.17-.13.33-.19.5s-.15.42-.21.63a.25.25,0,0,0,0,.07,10.12,10.12,0,0,0-.4,3.2,9.44,9.44,0,0,0,2.84,7.15,10.25,10.25,0,0,0,7.43,2.73,20.72,20.72,0,0,0,3.25-.22,15.92,15.92,0,0,0,2.73-.64l-.15-5a7.16,7.16,0,0,1-1.89.85,7.68,7.68,0,0,1-2,.27,5.67,5.67,0,0,1-4-1.41,5,5,0,0,1-1.49-3.78,4.87,4.87,0,0,1,4.61-5.24v1.75h0v5a3.69,3.69,0,0,0,2.1.52,5.62,5.62,0,0,0,1.41-.18A19.4,19.4,0,0,0,172.5,26V22.4h4q6.54,0,10-2.93t3.42-8.54C189.82,7.22,188.66,4.47,186.35,2.68ZM179.14,15a6.24,6.24,0,0,1-4.22,1.21H172.5v-10H175a5.77,5.77,0,0,1,4.12,1.32,5.06,5.06,0,0,1,1.41,3.89A4.48,4.48,0,0,1,179.14,15Z"/><path class="cls-1" d="M72.71,37.11a7.46,7.46,0,0,0,6.8-4.06v3.77h5.77V9.36H78.83V20.65a7.28,7.28,0,0,0-2.68-2.34,7.76,7.76,0,0,0-3.54-.78,7.61,7.61,0,0,0-6,2.63,10.22,10.22,0,0,0-2.26,7,10.82,10.82,0,0,0,2.33,7.22A7.62,7.62,0,0,0,72.71,37.11ZM72,23.64a3.26,3.26,0,0,1,2.71-1.43v0a3.65,3.65,0,0,1,3,1.33,5.67,5.67,0,0,1,1.13,3.68,5.86,5.86,0,0,1-1,3.72,3.51,3.51,0,0,1-2.93,1.35A3.42,3.42,0,0,1,72,31a5.6,5.6,0,0,1-1.06-3.63A6,6,0,0,1,72,23.64Z"/><path class="cls-1" d="M98.23,37.31a21.28,21.28,0,0,0,3.56-.29,18.36,18.36,0,0,0,3.28-.84V31.57a17,17,0,0,1-3.24,1.18,12.41,12.41,0,0,1-3,.39,6.5,6.5,0,0,1-3.77-1,3.86,3.86,0,0,1-1.55-2.85h13.22V27.76c0-3.28-.79-5.82-2.48-7.6a9.3,9.3,0,0,0-7.07-2.66A9.89,9.89,0,0,0,90,20.09a9.26,9.26,0,0,0-2.68,7,9.78,9.78,0,0,0,2.87,7.52Q93.09,37.32,98.23,37.31ZM94.72,22.59a3.29,3.29,0,0,1,2.53-1.08,3.39,3.39,0,0,1,2.59,1.08,4.92,4.92,0,0,1,1.21,2.92l-7.54.06A5,5,0,0,1,94.72,22.59Z"/><path class="cls-1" d="M131.13,22.91a2.5,2.5,0,0,1,2.23,1,5.72,5.72,0,0,1,.73,3.24v9.6h6.36v-11a9.44,9.44,0,0,0-1.76-6.16,6.23,6.23,0,0,0-5.07-2.12,7.3,7.3,0,0,0-3.78,1A8.06,8.06,0,0,0,127,21.48l-.11.06a6.28,6.28,0,0,0-2.41-2.93,6.92,6.92,0,0,0-3.76-1,7.26,7.26,0,0,0-3.75,1,7.63,7.63,0,0,0-2.76,2.85V18.06h-5.79V36.84h6.38v-9a6.14,6.14,0,0,1,.94-3.57,2.93,2.93,0,0,1,2.53-1.32,2.49,2.49,0,0,1,2.25,1,5.79,5.79,0,0,1,.72,3.24v9.66h6.4v-9a6.11,6.11,0,0,1,.93-3.58A2.88,2.88,0,0,1,131.13,22.91Z"/><rect class="cls-1" x="143.42" y="18" width="6.45" height="18.82"/><path class="cls-1" d="M49.84,37.05a9.18,9.18,0,0,0,3.89-.78,7.08,7.08,0,0,0,2.76-2.39l.14,2.94h5.59V27h0c0-3.22-.73-5.62-2.15-7.17s-3.67-2.34-6.75-2.34h-.8a12.19,12.19,0,0,1-.66,4,5.77,5.77,0,0,1,3.11.84,2.69,2.69,0,0,1,1.17,2.33v.26H53.64q-5.05,0-7.59,1.51a5.05,5.05,0,0,0-2.46,4.66,5.75,5.75,0,0,0,1.68,4.35A6.39,6.39,0,0,0,49.84,37.05ZM51,28.88a10,10,0,0,1,4.09-.62l1.09-.07v.57A4.3,4.3,0,0,1,55,31.87a3.86,3.86,0,0,1-2.88,1.18,2.54,2.54,0,0,1-1.77-.61,2.33,2.33,0,0,1-.46-.62A2.21,2.21,0,0,1,51,28.88Z"/><rect class="cls-1" x="143.42" y="9.36" width="6.45" height="5.24"/><path class="cls-1" d="M36.5,37.3a22.05,22.05,0,0,0,3.24-.22,15.84,15.84,0,0,0,2.72-.65l-.13-4.95a7.43,7.43,0,0,1-1.89.84,7.83,7.83,0,0,1-2,.27,5.57,5.57,0,0,1-4-1.41,4.91,4.91,0,0,1-1.5-3.78,4.86,4.86,0,0,1,5.21-5.23,7,7,0,0,1,1.87.26,7.61,7.61,0,0,1,1.87.77l.45-4.72h0a17.49,17.49,0,0,0-2.74-.79A13.57,13.57,0,0,0,37,17.46a11.57,11.57,0,0,0-7.91,2.67,9.34,9.34,0,0,0-2.88,7.29,9.45,9.45,0,0,0,2.86,7.15A10.25,10.25,0,0,0,36.5,37.3Z"/><path class="cls-1" d="M17.85,11.42H9.68L0,36.84H6.75l1.89-5.38h9.78l1.8,5.38h7.23ZM10.33,26.64l3.3-9.56,3.17,9.56Z"/><rect class="cls-1" x="20.32" y="49.01" width="98.23" height="2.94"/><rect class="cls-1" x="225.94" y="49.01" width="98.22" height="2.94"/></g></g></svg>