<svg id="Warstwa_1" data-name="Warstwa 1" xmlns="http://www.w3.org/2000/svg" viewBox="0 0 233.42 26.3"><title>asseco</title><path d="M794.07,168.79a2.1,2.1,0,0,0-2.27-2.32H782c-5.27,0-7.55,2.31-7.55,7.74V185c0,2.14-.93,3.09-3.08,3.09H758.58a2.16,2.16,0,0,0-2.27,2.34,2.13,2.13,0,0,0,2.23,2.3h12.8c5.25,0,7.61-2.32,7.61-7.73V174.21c0-2.3.81-3.09,3-3.09h9.81a2.11,2.11,0,0,0,2.27-2.33" transform="translate(-685.36 -166.47)" fill="#fff" fill-rule="evenodd"/><path d="M715.55,166.47H692.91c-4.53,0-7.55,3.09-7.55,7.74V185c0,4.64,3,7.73,7.55,7.73H711a3.27,3.27,0,0,0,3-3.08v-5.42a2.22,2.22,0,0,0-2.21-2.32,2.17,2.17,0,0,0-2.31,2.32v3.87H692.91a3.29,3.29,0,0,1-3-3.09V174.21a3.29,3.29,0,0,1,3-3.1h22.65a3.28,3.28,0,0,1,3,3.09v16.24a2.26,2.26,0,0,0,2.26,2.32,2.11,2.11,0,0,0,2.26-2.32V174.21c0-4.64-3-7.74-7.55-7.74" transform="translate(-685.36 -166.47)" fill="#fff" fill-rule="evenodd"/><path d="M798.59,185c0,5.42,2.22,7.73,7.55,7.73h27.93a2.32,2.32,0,0,0,0-4.64h-28c-2.27,0-3-.83-3-3.09V174.21c0-2.31.82-3.09,3-3.09h22.64c2.13,0,3,.81,3,3.09s-0.79,3.09-3,3.09H809.93a2,2,0,0,0-2.27,2.32,2.06,2.06,0,0,0,2.27,2.32h18.85c5.35,0,7.55-2.32,7.55-7.74s-2.27-7.74-7.55-7.74H806.14c-5.43,0-7.55,2.32-7.55,7.74V185Z" transform="translate(-685.36 -166.47)" fill="#fff" fill-rule="evenodd"/><path d="M840.86,185c0,5.42,2.22,7.73,7.55,7.73h25.37a2.15,2.15,0,0,0,2.27-2.33,2.09,2.09,0,0,0-2.24-2.31h-25.4c-2.26,0-3-.83-3-3.09V174.21c0-2.26.76-3.06,3-3.09h25.34a2.32,2.32,0,0,0,0-4.64H848.41c-5.33,0-7.55,2.32-7.55,7.74V185Z" transform="translate(-685.36 -166.47)" fill="#fff" fill-rule="evenodd"/><path d="M881,185c0,5.42,2.22,7.77,7.55,7.77h22.64c5.33,0,7.55-2.35,7.55-7.77V174.17c0-5.41-2.22-7.7-7.55-7.7H888.59c-5.33,0-7.55,2.28-7.55,7.7V185Zm7.55,3.13c-2.26,0-3-.87-3-3.13V174.17c0-2.26.76-3,3-3.05h22.64c2.26,0,3,.83,3,3.09V185c0,2.26-.76,3.1-3,3.13H888.59Z" transform="translate(-685.36 -166.47)" fill="#fff" fill-rule="evenodd"/><path d="M765.37,168.79a2.1,2.1,0,0,0-2.27-2.32h-9.81c-5.28,0-7.55,2.31-7.55,7.74V185c0,2.14-.93,3.09-3.08,3.09H729.8a2.32,2.32,0,0,0,0,4.64h12.86c5.25,0,7.61-2.32,7.61-7.73V174.21c0-2.3.81-3.09,3-3.09h9.81a2.11,2.11,0,0,0,2.27-2.33" transform="translate(-685.36 -166.47)" fill="#fff" fill-rule="evenodd"/></svg>