<svg xmlns="http://www.w3.org/2000/svg" viewBox="0 0 330.38 199.55"><defs><style>.cls-1{fill:#0a0a0a;}.cls-2{fill:blue;}.cls-3{fill:#009;}.cls-4{fill:#fff;}.cls-5{fill:#666;stroke:#000;stroke-miterlimit:10;stroke-width:1.92px;}.cls-6{fill:#e10b31;}</style></defs><title>bomb</title><g id="Layer_2" data-name="Layer 2"><g id="Long_Page_cz.1" data-name="Long Page cz.1"><path class="cls-1" d="M89.3,63.89c4.43-17.91,15.28-34.52,31.18-43.4a50.12,50.12,0,0,1,8.41-3.74C172.24,4.85,178,55.27,198.94,80.37a60.64,60.64,0,0,0,7.68,6.08c13.5,8.88,29.76,12,47.11,4.75-14.3,16-41.28,14.43-56.29.46a67.11,67.11,0,0,1-5.1-5.43C174,60.5,162.68,7.07,120.83,26.06a44.13,44.13,0,0,0-7.38,6c-9.3,9.23-16.61,22.55-24.15,31.81Z"/><path class="cls-1" d="M115.39,126.84,0,126.88c.3-1.17.62-2.38,1-3.62,2.68-8.06,5.61-16.6,10.57-23.07,1.68-2.36,3.41-4.66,5.22-6.86C24,84.51,32.57,77.27,44.94,75.07a94.1,94.1,0,0,1,10.29-1c17.16-.75,34,3.66,45.57,14.64,2.55,2.95,5,6,7.36,9s4.65,6,6.86,8.83C119.18,112.36,116.6,119.43,115.39,126.84Z"/><circle class="cls-2" cx="71.5" cy="132.18" r="65.95" transform="translate(-72.52 89.27) rotate(-45)"/><path d="M4.27,127.68c-1.63,28.15,14.35,55,40.34,66.29a67.39,67.39,0,0,0,86.92-92.42A68,68,0,0,0,62.31,65.43c-31.56,4.31-55.56,30.75-58,62.25-.15,1.85,2.73,1.84,2.87,0,2.11-26.72,20.53-50,46.43-57.49a64.54,64.54,0,0,1,70.86,98.9,65.11,65.11,0,0,1-69.89,25.34c-29.61-8-49.16-36.37-47.4-66.75C7.25,125.84,4.38,125.84,4.27,127.68Z"/><path class="cls-3" d="M76,66.39c-1.14-.08-2.27-.13-3.4-.15L74.4,57a3.58,3.58,0,0,1,2.89-2.86,38.11,38.11,0,0,1,32.1,9.07,3.59,3.59,0,0,1,1,3.79l-3.16,9.75A65.68,65.68,0,0,0,76,66.39Z"/><path d="M76,65.31c-1.13-.08-2.27-.13-3.4-.15l1,1.37c.54-2.79.56-6.57,1.77-9.12,2.82-5.91,17.1-2.15,21.77-.37,3.92,1.5,12.33,4.92,12.06,10.1-.15,3-2.1,6.48-3,9.34l1.58-.65A69.78,69.78,0,0,0,76,65.31c-1.38-.11-1.37,2,0,2.15a67.36,67.36,0,0,1,30.71,10.23,1.08,1.08,0,0,0,1.58-.64c1.1-3.4,4.14-8.73,3.15-12.36-1.24-4.59-9.2-7.95-13.1-9.5a38.35,38.35,0,0,0-11.86-2.63c-3.18-.2-9-.71-11.62,1.64S72.21,62.63,71.56,66a1.1,1.1,0,0,0,1,1.37c1.13,0,2.27.07,3.4.14C77.39,67.54,77.38,65.39,76,65.31Z"/><path d="M74.4,57a3.58,3.58,0,0,1,2.89-2.86,39.64,39.64,0,0,1,7.89-.57L80.5,66.85h0c-1.48-.2-3-.36-4.5-.46-1.14-.08-2.27-.13-3.4-.15Z"/><path class="cls-4" d="M72.16,78.29a31.62,31.62,0,0,1,4.27.85c1.41.36,2.8.8,4.16,1.29A50.5,50.5,0,0,1,88.38,84a49.44,49.44,0,0,1,7,4.71,56.87,56.87,0,0,1,6.19,5.61,47.42,47.42,0,0,1,5.07,6.6l1.15,1.73c.4.56.79,1.13,1.18,1.7s.82,1.11,1.25,1.65.83,1.11,1.26,1.65c1.76,2.17,3.51,4.41,5.42,6.64.94,1.12,1.88,2.26,2.93,3.38a38.5,38.5,0,0,0,3.29,3.38l.9-.35a32.3,32.3,0,0,0-.13-4.83c-.22-1.56-.49-3.12-.86-4.65a41.14,41.14,0,0,0-3.39-8.81A30.69,30.69,0,0,0,114,94.78c-2.32-2.2-4.75-4.25-7.24-6.21a64,64,0,0,0-7.86-5.25,54.49,54.49,0,0,0-8.6-3.75,50.16,50.16,0,0,0-9-2.09,36,36,0,0,0-9.16-.16Z"/><path class="cls-3" d="M59.06,68.82A65,65,0,0,0,39.69,94.57,73.28,73.28,0,0,0,36.17,105c-12.36,37.1,13.63,73.56,47.3,87.93,2.16,1,4.39,2,6.66,2.79-18.32,5.26-39.14,1.61-55.41-9.06A65,65,0,0,1,27,180.7a71,71,0,0,1-17-25,62.56,62.56,0,0,1-2.44-9.08,69.32,69.32,0,0,1-.87-19.29,72.48,72.48,0,0,1,1.61-9.76c4.39-20,19-37,39-45.43A71.83,71.83,0,0,1,59.06,68.82Z"/><path d="M12.52,164.77c13.79,24.39,41.39,38.27,69.23,34A67.39,67.39,0,1,0,28.29,80.47C3.57,101-2.57,136.72,12.52,164.77c.87,1.62,3.36.18,2.48-1.45C2.24,139.61,5.12,109.9,23,89.57A65.17,65.17,0,0,1,95,72.1a64.52,64.52,0,0,1-4.17,121.63c-29.2,9.19-60.91-4-75.86-30.41A1.44,1.44,0,0,0,12.52,164.77Z"/><path class="cls-5" d="M95.86,52.22c4.43-18.55,12.24-36.47,29.89-45.84C141.59-2,160.39-.89,173.83,11.49,190.71,27,187.35,52.23,203.61,67.67c15.77,15,40,16.48,60.3,12.83,3.36-.6-1.79,6.83-4.27,7.28-15.81,2.83-32.72,2.77-47.71-3.63-16.94-7.23-24.7-20.53-29.05-37.67-4.49-17.69-16.34-34.93-35.55-37.93a38.19,38.19,0,0,0-27.59,6.59c-10.35,7.42-14.08,20.59-16.89,32.37-.57,2.39-7.74,7.84-7,4.71Z"/><path class="cls-6" d="M203.69,102.7c26.81-.6,38.31,18.08,41.08,42.26,11.19-19.39,31.71-12.39,44.54,5.22.66-20.33,7.36-41.56,39.57-40.58-14.5-12.83-23.53-36-11.43-52.49-21.07,6-29-5.16-25.8-27.45-17.13,17.49-44.13,22.93-65,6C237.07,61.56,227.78,88.61,203.69,102.7Z"/><path d="M203.69,104.2c10.84-.1,21.23,3,28.49,11.4,7,8.1,9.82,19,11.09,29.36a1.52,1.52,0,0,0,2.8.76c4.66-7.68,11.92-12.46,21.09-10.33,8.65,2,15.67,8.64,20.85,15.55a1.52,1.52,0,0,0,2.8-.76c.35-9.2,1.73-19,7.16-26.71,7.09-10.07,19.28-12.59,30.91-12.37a1.52,1.52,0,0,0,1.06-2.56c-13.68-12.44-22.88-33.92-11.19-50.67.77-1.11-.51-2.53-1.7-2.21-6.94,1.89-16.12,3.21-21.07-3.38-4.65-6.2-3.78-15.43-2.83-22.62.18-1.35-1.72-1.9-2.56-1.06-17.18,17.09-43.17,21.47-62.92,6-1-.8-3.12-.11-2.51,1.46,9.76,25.06.86,51.49-22.23,65.38a1.5,1.5,0,0,0,1.52,2.59c24.14-14.53,33.85-42.46,23.61-68.77l-2.51,1.46c21,16.51,48.71,12.38,67.16-6l-2.56-1.06c-1.1,8.31-1.72,19.07,4.52,25.71,6,6.37,15.53,5.27,23.18,3.18l-1.7-2.2c-12.43,17.82-3,41,11.67,54.31l1.06-2.56c-12.23-.23-24.91,2.53-32.68,12.74-6.34,8.34-8,19.14-8.39,29.34l2.79-.75c-6.08-8.13-14.47-15.86-24.91-17.35-9.72-1.39-17.35,4.11-22.22,12.12l2.8.76c-1.37-11.24-4.41-22.73-12-31.48-7.77-9-19-12.39-30.61-12.28A1.5,1.5,0,0,0,203.69,104.2Z"/><path class="cls-4" d="M255.3,124.38c7.09-19.08,14.5-20.74,33-8.32-6.46-11.22-1.37-18.55,15.51-20.78-16.49-2.81-23.78-16.22-12.1-29.69-11.31,9.36-22.41,6.33-26.33-11.34,3,15.48-5.42,15.92-21.21,5,10.34,15.89,4.06,30.57-15.84,34.28C252.08,93.91,259.82,106.43,255.3,124.38Z"/><path d="M256.74,124.78c2.09-5.49,5.1-13.84,11.77-15s13.88,4.17,19.07,7.6c1.31.86,2.74-.8,2.05-2-2.22-4-3.94-9.07-.4-12.93s10-4.92,15-5.64c1.46-.22,1.39-2.63,0-2.9-5.92-1.14-12.16-3.59-15.22-9.16-3.43-6.24-.33-13,3.78-18a1.5,1.5,0,0,0-2.12-2.12c-4.11,3.26-9.73,6.3-15,3.85-5.42-2.53-7.55-9.2-8.84-14.53-.46-1.9-3.22-1.08-2.89.8.68,3.89,1.76,10.92-4.12,10.54-5.3-.34-10.68-4.4-14.88-7.28-1.26-.85-2.83.82-2.06,2.06,3.82,6.1,6.54,13.71,3.2,20.66s-11,10-18.14,11.41c-1.71.35-1.24,2.9.4,2.95,7.94.23,17.28,1.54,22.69,8.07,4.87,5.87,4.45,13.94,2.79,20.92-.45,1.88,2.45,2.68,2.89.8,1.85-7.76,2.16-16.48-3-23.12-5.93-7.66-16.29-9.4-25.39-9.67l.39,3c8.24-1.68,16.87-5.54,20.37-13.74,3.29-7.71.59-16-3.63-22.75l-2.05,2.06c4.83,3.29,13.29,9.71,19.72,7.32,5.51-2,4.49-9.45,3.69-14l-2.89.8C265.55,61.2,268.5,69,275.41,71.5c6.31,2.3,12.54-1,17.4-4.85l-2.12-2.12c-4.69,5.69-8,13-4.9,20.3,3.06,7.07,10.51,10.51,17.66,11.9v-2.9c-6.09.89-14,2.42-17.64,8.06-3.09,4.77-1.28,10.35,1.23,14.92l2.06-2c-6.09-4-14.56-9.93-22.35-7.69-7.24,2.09-10.49,10.58-12.9,16.91C253.16,125.79,256.06,126.57,256.74,124.78Z"/></g></g></svg>