<?xml version="1.0" encoding="utf-8"?>
<!-- Generator: Adobe Illustrator 22.0.1, SVG Export Plug-In . SVG Version: 6.00 Build 0)  -->
<svg version="1.1" id="Warstwa_1" xmlns="http://www.w3.org/2000/svg" xmlns:xlink="http://www.w3.org/1999/xlink" x="0px" y="0px"
	 viewBox="0 0 55.6 20" style="enable-background:new 0 0 55.6 20;" xml:space="preserve">
<style type="text/css">
	.st0{fill:#FFFFFF;}
</style>
<g id="Group_2438" transform="translate(-1161.737 -5437.706)">
	<path id="Path_1719" class="st0" d="M1176.6,5443c0,0-0.1,0-0.1-0.1c-0.4-0.2-0.8-0.4-1.2-0.6c-1.5-0.6-3.2-0.6-4.8-0.2
		c-0.5,0.2-1.1,0.4-1.6,0.7c-0.4,0.3-0.8,0.6-1.1,1c-0.3,0.3-0.6,0.7-0.8,1.1c-0.4,0.8-0.7,1.6-0.7,2.4c0,0.2,0,0.3,0,0.5
		c0,1.3,0.5,2.5,1.3,3.5c0.2,0.2,0.4,0.4,0.6,0.6c0.3,0.3,0.6,0.5,1,0.7c2.3,1.2,5.1,1.1,7.4-0.2c0,0,0.9,1.7,0.9,1.8
		c0.3,0.6,0.4,0.9,0.8,1.8c0,0-0.1,0-0.1,0.1c-0.3,0.2-0.7,0.4-1.1,0.6c-0.3,0.2-0.7,0.3-1.1,0.4c-1.6,0.5-3.3,0.7-5,0.5
		c-0.8-0.1-1.5-0.2-2.2-0.5c-0.6-0.2-1.2-0.4-1.7-0.7c-0.6-0.3-1.2-0.7-1.8-1.2c-0.4-0.3-0.7-0.6-1-1c-0.5-0.5-0.9-1.1-1.3-1.8
		c-0.4-0.7-0.7-1.4-0.9-2.1c-0.5-1.5-0.5-3.1-0.2-4.6c0.1-0.5,0.3-1,0.4-1.4c0.2-0.5,0.4-0.9,0.6-1.3c0.2-0.4,0.5-0.8,0.8-1.2
		c0.1-0.2,0.3-0.4,0.5-0.6c0.2-0.2,0.3-0.3,0.5-0.5c0.2-0.2,0.4-0.4,0.7-0.6c0.3-0.2,0.6-0.5,0.9-0.7c0.3-0.2,0.7-0.4,1-0.6
		c0.5-0.3,1.1-0.5,1.7-0.7c0.5-0.2,1-0.3,1.6-0.4c1.4-0.2,2.9-0.2,4.3,0.2c0.4,0.1,0.8,0.2,1.2,0.3c0.5,0.2,1,0.4,1.5,0.6
		c0.2,0.1,0.5,0.3,0.7,0.4"/>
	<g id="Group_2436">
		<path id="Path_1720" class="st0" d="M1171.2,5447.4c-0.4-0.4-0.6-0.8-0.6-1.4c0-1,0.7-1.6,2-1.6c1.2,0,1.8,0.8,1.8,1.6
			c0,0.9-1.2,1.5-1.2,1.5l0.8,0.8c0.3-0.2,0.6-0.5,0.9-0.8l0.9,0.8c-0.3,0.3-0.6,0.6-0.9,0.8l1.3,1.4h-1.8l-0.6-0.6
			c-0.5,0.5-1.2,0.7-2,0.7c-0.9,0-2.1-0.4-2.1-1.7C1169.7,5448.3,1170.5,5447.8,1171.2,5447.4z M1171.9,5448.2c0,0-0.6,0.2-0.6,0.8
			c0,0.4,0.4,0.5,0.7,0.5c0.3,0,0.7-0.1,0.9-0.3L1171.9,5448.2z M1172,5446c0,0.4,0.4,0.8,0.4,0.8c0.3-0.2,0.7-0.4,0.7-0.8
			c0-0.3-0.2-0.6-0.5-0.6c0,0-0.1,0-0.1,0C1172.2,5445.4,1172,5445.7,1172,5446z"/>
	</g>
	<path id="Path_1721" class="st0" d="M1192.4,5441.6l-8.1,0v4.2h6.7l0,3.7h-6.7v8.1h-4.6v-19.9l12.6,0L1192.4,5441.6z"/>
	<g id="Group_2437">
		<path id="Path_1722" class="st0" d="M1197.7,5438.4h-0.9v3.2h-0.8v-3.2h-0.9v-0.6h2.6V5438.4z"/>
		<path id="Path_1723" class="st0" d="M1200.8,5441.5h-0.8v-1.6h-1.1v1.6h-0.8v-3.8h0.8v1.5h1.1v-1.5h0.8V5441.5z"/>
		<path id="Path_1724" class="st0" d="M1203.4,5439.9h-1.2v1h1.4v0.6h-2.2v-3.8h2.2v0.6h-1.4v0.9h1.2V5439.9z"/>
		<path id="Path_1725" class="st0" d="M1196,5445.6v1.3h-0.8v-3.8h1.3c0.3,0,0.7,0.1,0.9,0.4c0.2,0.2,0.4,0.6,0.3,0.9
			c0,0.3-0.1,0.7-0.3,0.9c-0.3,0.2-0.6,0.3-0.9,0.3H1196z M1196,5444.9h0.5c0.1,0,0.3,0,0.3-0.1c0.1-0.1,0.1-0.3,0.1-0.4
			c0-0.2,0-0.3-0.1-0.5c-0.1-0.1-0.2-0.2-0.3-0.2h-0.5L1196,5444.9z"/>
		<path id="Path_1726" class="st0" d="M1201,5445.3c0,0.4-0.1,0.9-0.4,1.2c-0.3,0.3-0.6,0.4-1,0.4c-0.4,0-0.8-0.1-1-0.4
			c-0.3-0.3-0.4-0.8-0.4-1.2v-0.7c0-0.4,0.1-0.9,0.4-1.2c0.5-0.6,1.4-0.6,1.9-0.1c0,0,0,0,0.1,0.1c0.3,0.3,0.4,0.8,0.4,1.2
			L1201,5445.3z M1200.2,5444.7c0-0.3,0-0.5-0.1-0.8c-0.2-0.3-0.5-0.3-0.8-0.2c-0.1,0-0.1,0.1-0.2,0.2c-0.1,0.2-0.2,0.5-0.2,0.7v0.7
			c0,0.3,0,0.5,0.1,0.7c0.1,0.2,0.3,0.2,0.5,0.2c0.2,0,0.4-0.1,0.4-0.2c0.1-0.2,0.2-0.5,0.1-0.7L1200.2,5444.7z"/>
		<path id="Path_1727" class="st0" d="M1204,5445.5l0.4-2.4h0.8l-0.7,3.8h-0.8l-0.4-2.3l-0.4,2.3h-0.8l-0.7-3.8h0.8l0.4,2.4l0.4-2.4
			h0.6L1204,5445.5z"/>
		<path id="Path_1728" class="st0" d="M1207.5,5445.3h-1.2v1h1.4v0.6h-2.2v-3.8h2.2v0.6h-1.4v0.9h1.2V5445.3z"/>
		<path id="Path_1729" class="st0" d="M1209.3,5445.5h-0.4v1.4h-0.8v-3.8h1.2c0.3,0,0.6,0.1,0.9,0.3c0.5,0.5,0.4,1.4-0.1,1.8
			c0,0-0.1,0.1-0.1,0.1l0.7,1.6v0h-0.8L1209.3,5445.5z M1209,5444.9h0.4c0.1,0,0.3,0,0.3-0.2c0.1-0.1,0.1-0.3,0.1-0.4
			c0-0.4-0.1-0.6-0.4-0.6h-0.5V5444.9z"/>
		<path id="Path_1730" class="st0" d="M1197.7,5449.1h-0.9v3.2h-0.8v-3.2h-0.9v-0.6h2.6V5449.1z"/>
		<path id="Path_1731" class="st0" d="M1200.7,5450.7c0,0.4-0.1,0.9-0.4,1.2c-0.3,0.3-0.6,0.4-1,0.4c-0.4,0-0.8-0.1-1-0.4
			c-0.3-0.3-0.4-0.8-0.4-1.2v-0.7c0-0.4,0.1-0.9,0.4-1.2c0.5-0.6,1.4-0.6,2-0.1c0,0,0,0,0.1,0.1c0.3,0.3,0.4,0.8,0.4,1.2V5450.7z
			 M1200,5450.1c0-0.3,0-0.5-0.1-0.8c-0.2-0.3-0.5-0.3-0.7-0.2c-0.1,0-0.1,0.1-0.2,0.2c-0.1,0.2-0.2,0.5-0.2,0.7v0.7
			c0,0.3,0,0.5,0.1,0.7c0.1,0.2,0.3,0.2,0.5,0.2c0.2,0,0.4-0.1,0.4-0.2c0.1-0.2,0.2-0.5,0.1-0.7V5450.1z"/>
		<path id="Path_1732" class="st0" d="M1196,5457.7h-0.8v-3.8h0.8V5457.7z"/>
		<path id="Path_1733" class="st0" d="M1199.3,5457.7h-0.8l-1.1-2.5v2.5h-0.8v-3.8h0.8l1.1,2.5v-2.5h0.8V5457.7z"/>
		<path id="Path_1734" class="st0" d="M1202.6,5457.7h-0.8l-1.1-2.5v2.5h-0.8v-3.8h0.8l1.1,2.5v-2.5h0.8V5457.7z"/>
		<path id="Path_1735" class="st0" d="M1205.9,5456.1c0,0.4-0.1,0.9-0.4,1.2c-0.3,0.3-0.6,0.4-1,0.4c-0.4,0-0.8-0.1-1-0.4
			c-0.3-0.3-0.4-0.8-0.4-1.2v-0.7c0-0.4,0.1-0.9,0.4-1.2c0.5-0.6,1.4-0.6,2-0.1c0,0,0,0,0.1,0.1c0.3,0.3,0.4,0.8,0.4,1.2
			L1205.9,5456.1z M1205.2,5455.4c0-0.3,0-0.5-0.1-0.8c-0.2-0.3-0.5-0.3-0.7-0.2c-0.1,0-0.1,0.1-0.2,0.2c-0.1,0.2-0.2,0.5-0.2,0.7
			v0.7c0,0.3,0,0.5,0.1,0.7c0.1,0.2,0.3,0.2,0.5,0.2c0.2,0,0.4-0.1,0.4-0.2c0.1-0.2,0.2-0.5,0.1-0.7L1205.2,5455.4z"/>
		<path id="Path_1736" class="st0" d="M1207.7,5456.6l0.6-2.8h0.9l-1.1,3.8h-0.8l-1.1-3.8h0.9L1207.7,5456.6z"/>
		<path id="Path_1737" class="st0" d="M1211.2,5456.9h-1.1l-0.2,0.8h-0.8l1.2-3.8h0.7l1.2,3.8h-0.8L1211.2,5456.9z M1210.3,5456.2
			h0.7l-0.4-1.4L1210.3,5456.2z"/>
		<path id="Path_1738" class="st0" d="M1214.7,5454.5h-0.9v3.2h-0.8v-3.2h-0.9v-0.6h2.6L1214.7,5454.5z"/>
		<path id="Path_1739" class="st0" d="M1217.1,5456h-1.2v1h1.4v0.6h-2.2v-3.8h2.2v0.6h-1.4v0.9h1.2L1217.1,5456z"/>
	</g>
</g>
</svg>
