<?xml version="1.0" encoding="utf-8"?>
<!-- Generator: Adobe Illustrator 19.2.1, SVG Export Plug-In . SVG Version: 6.00 Build 0)  -->
<svg version="1.1" id="Warstwa_1" xmlns="http://www.w3.org/2000/svg" xmlns:xlink="http://www.w3.org/1999/xlink" x="0px" y="0px"
	 viewBox="0 0 1866.4 562.7" style="enable-background:new 0 0 1866.4 562.7;" xml:space="preserve">
<style type="text/css">
	.st0{fill:#47FF3F;}
</style>
<path class="st0" d="M772.1,325.1h-10.9v-18.4h10.9L772.1,325.1L772.1,325.1L772.1,325.1z M762.2,324.1h8.9v-16.4h-8.9V324.1
	L762.2,324.1L762.2,324.1z"/>
<polygon class="st0" points="761.7,307.3 771.6,324.6 762,324.6 "/>
<path class="st0" d="M1434.1,444.2v-52.8l-60.5,0.4v-90.5h-2.6v11.9h-12.6v-11.9h-2.5v11.9h-12.6V170.5h-2.5v11.9h-12.6v-11.9h-2.5
	v11.9H1313V65.6h-2.5v12.1H1298V0h-2.5v77.8h-12.6V65.6h-2.5v116.8h-12.6v-11.9h-2.5v11.9h-12.6v-11.9h-2.6v142.6h-12.6v-11.8h-2.5
	v11.9h-12.6v-11.9h-2.5v90.5h-60.5v55h275L1434.1,444.2z M1191.5,394.3l28.3,24.5h-28.7v-24.5H1191.5z M1190.3,418.3l-27.7-24h27.7
	V418.3z M1190.3,444.3h-0.3l-28.2-24.4v-0.1h28.5L1190.3,444.3L1190.3,444.3L1190.3,444.3z M1191.1,444.3v-24l27.8,24H1191.1z
	 M1191.8,419.7h28.7v24.5h-0.4L1191.8,419.7z M1430.8,444.3H1403v-24L1430.8,444.3z M1403.8,419.7h27.9v24.1L1403.8,419.7z
	 M1403.4,394.3l28.2,24.4v0.1H1403v-24.5H1403.4L1403.4,394.3z M1404.7,394.3h26.9v23.3L1404.7,394.3z M1402.2,418.3L1402.2,418.3
	l-27.8-24h27.8V418.3z M1371.9,418.3l-27.8-24h27.8V418.3L1371.9,418.3z M1341.6,418.3l-27.8-24h27.8V418.3L1341.6,418.3z
	 M1283.6,394.3h27.7v24L1283.6,394.3z M1281.1,418.3l-27.8-24h27.8V418.3z M1250.8,418.3l-27.8-24h27.8V418.3z M1251.7,315.6h0.4
	l28.3,24.5h-28.7V315.6z M1340.8,235.2h-28.6v-24.8h0.1l28.5,24.7L1340.8,235.2L1340.8,235.2L1340.8,235.2z M1340.8,261.4h-28.6
	v-24.9l28.6,24.8V261.4L1340.8,261.4z M1311.3,260.9l-28.6-24.9h28.7L1311.3,260.9L1311.3,260.9z M1340.8,287.6h-28.6v-24.9
	l28.6,24.8V287.6z M1311.3,287.1l-28.7-24.8h28.7V287.1z M1371,366.4h-28.6v-24.9l28.6,24.8V366.4z M1250.8,341v24.9l-28.6-24.8V341
	H1250.8z M1282,210.4l28.7,24.8H1282V210.4L1282,210.4z M1281.1,234.7l-28.1-24.3h28.1L1281.1,234.7L1281.1,234.7L1281.1,234.7z
	 M1281.9,236.6l28.7,24.9H1282L1281.9,236.6L1281.9,236.6L1281.9,236.6z M1281.1,260.9l-28.6-24.8v-0.1h28.6V260.9z M1281.9,262.8
	l28.7,24.9H1282L1281.9,262.8L1281.9,262.8L1281.9,262.8z M1281.1,287.2l-28.6-24.8v-0.1h28.6L1281.1,287.2L1281.1,287.2z
	 M1341.6,391.8h-0.4l-28.3-24.5h28.7V391.8L1341.6,391.8z M1312.1,391.8v-24l27.8,24H1312.1z M1312.1,366.4v-24.9l28.8,24.8
	L1312.1,366.4L1312.1,366.4z M1311.3,365.9l-28.7-24.9h28.7V365.9L1311.3,365.9z M1282,315.6h0.4l28.3,24.5H1282V315.6z
	 M1283.7,315.6h27.7v24L1283.7,315.6z M1312.2,315.6h0.4l28.3,24.5h-28.7L1312.2,315.6L1312.2,315.6z M1282,313v-24l27.7,24H1282z
	 M1252.6,288.5h28.6V313h-0.5l-28.1-24.4V288.5L1252.6,288.5z M1281.2,315.6v24l-27.8-24H1281.2z M1282,341.5l28.7,24.9H1282
	L1282,341.5L1282,341.5L1282,341.5z M1311.3,367.2v24.5h-0.3l-28.3-24.5H1311.3L1311.3,367.2z M1282,391.8v-24l27.8,24H1282z
	 M1281.2,391.8h-0.4l-28.3-24.5h28.7V391.8z M1251.7,391.8v-24l27.8,24H1251.7z M1251.7,366.4v-24.9l28.7,24.9H1251.7z
	 M1222.3,367.2h28.6v24.5h-0.4l-28.2-24.4V367.2z M1342.5,391.8v-24l27.8,24H1342.5z M1341.6,365.9l-28.7-24.9h28.7L1341.6,365.9
	L1341.6,365.9L1341.6,365.9z M1341.6,339.7l-27.8-24h27.8V339.7L1341.6,339.7z M1312.2,313v-24l27.7,24H1312.2z M1311.4,313h-0.4
	l-28.3-24.5h28.7L1311.4,313L1311.4,313z M1283.4,210.3h28v24.3L1283.4,210.3z M1311.4,208.9l-27.7-24h27.7V208.9z M1282.4,184.9
	l28.3,24.5h-28.4l-0.4-0.3V185L1282.4,184.9L1282.4,184.9z M1281.1,340.9v24.9l-28.7-24.8L1281.1,340.9L1281.1,340.9z M1251.7,394.2
	h0.4l28.3,24.5h-28.7V394.2L1251.7,394.2z M1282,394.2h0.4l28.3,24.5H1282L1282,394.2L1282,394.2L1282,394.2z M1312.2,394.2h0.4
	l28.3,24.5h-28.7V394.2L1312.2,394.2z M1342.4,394.2h0.4l28.3,24.5h-28.7V394.2L1342.4,394.2z M1372.7,394.2h0.4l28.3,24.5h-28.7
	V394.2L1372.7,394.2z M1343.2,367.1h27.8v24.2L1343.2,367.1z M1371,365.1l-27.8-24.1h27.8V365.1L1371,365.1z M1371,340.1h-28.6
	v-24.5h0.4L1371,340V340.1L1371,340.1L1371,340.1z M1340.7,312.6l-28-24.2h28V312.6z M1340.7,286.3l-27.9-24.1h27.9V286.3z
	 M1340.7,260.1l-27.8-24.1h27.9L1340.7,260.1L1340.7,260.1z M1340.7,233.9l-27.3-23.6h27.3V233.9z M1340.7,209.5h-28.2l-0.4-0.3
	v-24.2h0.4l28.2,24.4V209.5L1340.7,209.5L1340.7,209.5z M1310.4,181.9l-27.7-24v-0.1h27.7V181.9z M1310.4,155.6l-27.7-24v-0.1h27.7
	V155.6z M1310.4,129.4l-27.7-24l0,0h27.7V129.4z M1281.1,208.4v0.6l-27.8-24h27.8V208.4L1281.1,208.4z M1250.8,339.6L1250.8,339.6
	l-27.8-24h27.8V339.6z M1221.4,394.3h0.4l28.3,24.5h-28.7L1221.4,394.3L1221.4,394.3L1221.4,394.3z M1221.4,444.2v-24l27.8,24
	H1221.4z M1222.1,419.6h28.7v24.5h-0.4L1222.1,419.6z M1251.6,444.2v-24l27.8,24H1251.6z M1252.3,419.6h28.7v24.5h-0.4L1252.3,419.6
	z M1282,444.2v-24l27.8,24H1282z M1282.7,419.6h28.7v24.5h-0.4L1282.7,419.6z M1312.2,444.2v-24l27.8,24H1312.2z M1312.9,419.6h28.7
	v24.5h-0.4L1312.9,419.6z M1342.5,444.2v-24l27.8,24H1342.5z M1343.2,419.6h28.7v24.5h-0.4L1343.2,419.6z M1372.8,444.2v-24l27.8,24
	H1372.8z M1373.5,419.6h28.7v24.5h-0.4L1373.5,419.6z M1371.1,338.9l-26.9-23.3h26.8L1371.1,338.9L1371.1,338.9L1371.1,338.9z
	 M1340.8,208.2l-26.9-23.3h26.9V208.2z M1310.5,103.2l-26.5-23h26.5V103.2z M1220.6,394.3v24l-27.8-24H1220.6z"/>
<polygon class="st0" points="-38.3,562.7 -39.5,559.9 91.8,501.8 92,501.8 156.3,491.5 228.2,483 272.6,477.1 352.3,467.4
	389.1,445.5 389.9,448.6 353.3,470.3 273,480.1 228.5,486 156.8,494.5 92.7,504.7 "/>
<rect x="228.1" y="484" class="st0" width="1621" height="2"/>
<path class="st0" d="M1122.7,172.9h-32.4v-24.1h32.4V172.9z M1091.3,171.9h30.3v-22.1h-30.3V171.9z"/>
<polygon class="st0" points="1122.1,172.4 1090.8,149.3 1090.8,171.9 "/>
<path class="st0" d="M881,270.1h-20.8v-15.5H881V270.1z M861.3,269.1H880v-13.5h-18.8L861.3,269.1L861.3,269.1L861.3,269.1z"/>
<rect x="870.1" y="250" transform="matrix(0.5938 -0.8046 0.8046 0.5938 142.5656 806.9612)" class="st0" width="1" height="24.5"/>
<path class="st0" d="M881,291.1h-20.8v-15.5H881V291.1z M861.3,290.1H880v-13.5h-18.8L861.3,290.1L861.3,290.1L861.3,290.1z"/>
<rect x="870.1" y="271.1" transform="matrix(0.5938 -0.8046 0.8046 0.5938 125.646 815.5169)" class="st0" width="1" height="24.5"/>
<path class="st0" d="M881,333.2h-20.8v-15.5H881V333.2z M861.3,332.2H880v-13.5h-18.8L861.3,332.2L861.3,332.2L861.3,332.2z"/>
<rect x="870.1" y="313.1" transform="matrix(0.5938 -0.8046 0.8046 0.5938 91.8039 832.5913)" class="st0" width="1" height="24.5"/>
<path class="st0" d="M881,354.2h-20.8v-15.5H881V354.2z M861.3,353.2H880v-13.5h-18.8L861.3,353.2L861.3,353.2L861.3,353.2z"/>
<rect x="870.1" y="334.2" transform="matrix(0.5938 -0.8046 0.8046 0.5938 74.8705 841.1318)" class="st0" width="1" height="24.5"/>
<path class="st0" d="M881,375.2h-20.8v-15.5H881V375.2z M861.3,374.2H880v-13.5h-18.8L861.3,374.2L861.3,374.2L861.3,374.2z"/>
<rect x="870.1" y="355.2" transform="matrix(0.5938 -0.8046 0.8046 0.5938 57.9524 849.6786)" class="st0" width="1" height="24.5"/>
<path class="st0" d="M881,396.3h-20.8v-15.5H881V396.3z M861.3,395.3H880v-13.5h-18.8L861.3,395.3L861.3,395.3L861.3,395.3z"/>
<rect x="870.1" y="376.2" transform="matrix(0.5938 -0.8046 0.8046 0.5938 41.0334 858.2198)" class="st0" width="1" height="24.5"/>
<path class="st0" d="M881,417.3h-20.8v-15.5H881V417.3z M861.3,416.3H880v-13.5h-18.8L861.3,416.3L861.3,416.3L861.3,416.3z"/>
<rect x="870.1" y="397.3" transform="matrix(0.5938 -0.8046 0.8046 0.5938 24.1008 866.766)" class="st0" width="1" height="24.5"/>
<path class="st0" d="M881,438.4h-20.8v-15.5H881V438.4z M861.3,437.4H880v-13.5h-18.8L861.3,437.4L861.3,437.4L861.3,437.4z"/>
<rect x="870.1" y="418.3" transform="matrix(0.5938 -0.8046 0.8046 0.5938 7.1818 875.3072)" class="st0" width="1" height="24.5"/>
<path class="st0" d="M847.5,270.1h-20.7v-15.5h20.7V270.1z M827.7,269.1h18.7v-13.5h-18.7L827.7,269.1L827.7,269.1L827.7,269.1z"/>
<polygon class="st0" points="846.9,269.6 827.3,255 827.3,270 "/>
<polyline class="st0" points="827.3,270 847.8,269.6 827.3,255 "/>
<path class="st0" d="M847.5,291.3h-20.7v-15.5h20.7V291.3z M827.7,290.3h18.7v-13.5h-18.7L827.7,290.3L827.7,290.3L827.7,290.3z"/>
<polygon class="st0" points="846.9,290.8 827.3,276.2 827.3,291.1 "/>
<polyline class="st0" points="827.3,291.1 847.8,290.8 827.3,276.2 "/>
<path class="st0" d="M847.5,311.6h-20.7V296h20.7V311.6L847.5,311.6z M827.7,310.6h18.7v-13.5h-18.7L827.7,310.6L827.7,310.6
	L827.7,310.6z"/>
<polygon class="st0" points="846.9,311.1 827.3,296.5 827.3,311.5 "/>
<polyline class="st0" points="827.3,311.5 847.8,311.1 827.3,296.5 "/>
<path class="st0" d="M847.5,332.8h-20.7v-15.5h20.7V332.8z M827.7,331.8h18.7v-13.5h-18.7L827.7,331.8L827.7,331.8L827.7,331.8z"/>
<polygon class="st0" points="846.9,332.3 827.3,317.7 827.3,332.6 "/>
<polyline class="st0" points="827.3,332.7 847.8,332.3 827.3,317.7 "/>
<path class="st0" d="M847.5,354h-20.7v-15.6h20.7V354z M827.7,353h18.7v-13.5h-18.7L827.7,353L827.7,353L827.7,353z"/>
<polygon class="st0" points="846.9,353.5 827.3,338.9 827.3,353.9 "/>
<polyline class="st0" points="827.3,353.9 847.8,353.5 827.3,338.9 "/>
<path class="st0" d="M847.5,375.1h-20.7v-15.5h20.7V375.1z M827.7,374.1h18.7v-13.5h-18.7L827.7,374.1L827.7,374.1L827.7,374.1z"/>
<polygon class="st0" points="846.9,374.6 827.3,360.1 827.3,375 "/>
<polyline class="st0" points="827.3,375 847.8,374.6 827.3,360.1 "/>
<path class="st0" d="M847.5,417.5h-20.7V402h20.7V417.5z M827.7,416.5h18.7V403h-18.7L827.7,416.5L827.7,416.5L827.7,416.5z"/>
<polygon class="st0" points="846.9,417 827.3,402.5 827.3,417.4 "/>
<polyline class="st0" points="827.3,417.4 847.8,417 827.3,402.5 "/>
<path class="st0" d="M847.5,438.7h-20.7v-15.5h20.7V438.7z M827.7,437.7h18.7v-13.5h-18.7L827.7,437.7L827.7,437.7L827.7,437.7z"/>
<polygon class="st0" points="846.9,438.2 827.3,423.7 827.3,438.6 "/>
<polyline class="st0" points="827.3,438.6 847.8,438.2 827.3,423.7 "/>
<path class="st0" d="M608.2,306.5h-20.7V291h20.7V306.5L608.2,306.5z M588.5,305.5h18.7V292h-18.7V305.5L588.5,305.5z"/>
<polygon class="st0" points="588,291.5 607.7,306 588,306 "/>
<path class="st0" d="M608.2,327.7h-20.7v-15.5h20.7V327.7z M588.5,326.7h18.7v-13.5h-18.7V326.7L588.5,326.7z"/>
<polygon class="st0" points="588,312.7 607.7,327.2 588,327.2 "/>
<path class="st0" d="M608.2,348.9h-20.7v-15.6h20.7V348.9z M588.5,347.9h18.7v-13.6h-18.7V347.9z"/>
<polygon class="st0" points="588,333.9 607.7,348.4 588,348.4 "/>
<path class="st0" d="M608.2,369.3h-20.7v-15.5h20.7V369.3z M588.5,368.3h18.7v-13.5h-18.7V368.3z"/>
<polygon class="st0" points="588,354.2 607.7,368.7 588,368.7 "/>
<path class="st0" d="M608.2,390.4h-20.7v-15.5h20.7V390.4z M588.5,389.4h18.7v-13.5h-18.7V389.4z"/>
<polygon class="st0" points="588,375.4 607.7,389.9 588,389.9 "/>
<path class="st0" d="M608.2,411.6h-20.7v-15.5h20.7V411.6z M588.5,410.6h18.7v-13.5h-18.7V410.6z"/>
<polygon class="st0" points="588,396.6 607.7,411.1 588,411.1 "/>
<path class="st0" d="M640.3,411.7h-20.7v-15.5h20.7V411.7z M620.5,410.7h18.7v-13.5h-18.7V410.7z"/>
<rect x="629.4" y="391.7" transform="matrix(0.5938 -0.8046 0.8046 0.5938 -69.1814 670.8805)" class="st0" width="1" height="24.5"/>
<path class="st0" d="M640.3,390.7h-20.7v-15.5h20.7V390.7z M620.5,389.7h18.7v-13.5h-18.7V389.7z"/>
<rect x="629.4" y="370.7" transform="matrix(0.5938 -0.8046 0.8046 0.5938 -52.2568 662.3484)" class="st0" width="1" height="24.5"/>
<path class="st0" d="M640.3,369.6h-20.7v-15.5h20.7V369.6z M620.5,368.6h18.7v-13.5h-18.7V368.6L620.5,368.6z"/>
<rect x="614.5" y="347.2" transform="matrix(0.5935 -0.8048 0.8048 0.5935 -39.1538 641.0186)" class="st0" width="1" height="24.2"/>
<path class="st0" d="M640.3,348.6h-20.7v-15.5h20.7V348.6z M620.5,347.6h18.7v-13.5h-18.7V347.6z"/>
<rect x="629.4" y="328.6" transform="matrix(0.5938 -0.8046 0.8046 0.5938 -18.4189 645.256)" class="st0" width="1" height="24.5"/>
<path class="st0" d="M640.3,327.6h-20.7V312h20.7V327.6L640.3,327.6z M620.5,326.6h18.7v-13.5h-18.7V326.6L620.5,326.6z"/>
<rect x="629.4" y="307.6" transform="matrix(0.5938 -0.8046 0.8046 0.5938 -1.4807 636.709)" class="st0" width="1" height="24.5"/>
<path class="st0" d="M640.3,306.5h-20.7V291h20.7V306.5L640.3,306.5z M620.5,305.5h18.7V292h-18.7V305.5L620.5,305.5z"/>
<rect x="629.4" y="286.6" transform="matrix(0.5938 -0.8046 0.8046 0.5938 15.4383 628.1678)" class="st0" width="1" height="24.5"/>
<path class="st0" d="M473.7,432H453v-15.5h20.7L473.7,432L473.7,432L473.7,432z M454,431h18.7v-13.5H454V431L454,431z"/>
<rect x="462.8" y="412" transform="matrix(0.5938 -0.8046 0.8046 0.5938 -153.1674 545.1248)" class="st0" width="1" height="24.5"/>
<path class="st0" d="M473.7,411H453v-15.5h20.7L473.7,411L473.7,411L473.7,411z M454,410h18.7v-13.5H454V410L454,410z"/>
<rect x="462.8" y="391.1" transform="matrix(0.5938 -0.8046 0.8046 0.5938 -136.3086 536.584)" class="st0" width="1" height="24.5"/>
<path class="st0" d="M473.7,390H453v-15.6h20.7L473.7,390L473.7,390L473.7,390z M454,389h18.7v-13.5H454V389L454,389z"/>
<rect x="462.8" y="370" transform="matrix(0.5938 -0.8046 0.8046 0.5938 -119.3214 528.0383)" class="st0" width="1" height="24.5"/>
<path class="st0" d="M473.7,368.9H453v-15.5h20.7L473.7,368.9L473.7,368.9z M454,367.9h18.7v-13.5H454L454,367.9L454,367.9z"/>
<rect x="462.9" y="348.9" transform="matrix(0.5938 -0.8046 0.8046 0.5938 -102.392 519.5098)" class="st0" width="1" height="24.5"/>
<path class="st0" d="M473.7,347.9H453v-15.5h20.7L473.7,347.9L473.7,347.9L473.7,347.9z M454,346.9h18.7v-13.5H454L454,346.9
	L454,346.9L454,346.9z"/>
<rect x="462.9" y="327.9" transform="matrix(0.5938 -0.8046 0.8046 0.5938 -85.4738 510.963)" class="st0" width="1" height="24.5"/>
<path class="st0" d="M473.7,326.9H453v-15.5h20.7L473.7,326.9L473.7,326.9z M454,325.9h18.7v-13.5H454L454,325.9L454,325.9z"/>
<rect x="462.9" y="306.9" transform="matrix(0.5938 -0.8046 0.8046 0.5938 -68.546 502.4233)" class="st0" width="1" height="24.5"/>
<path class="st0" d="M438.4,369.8h-20.7v-15.5h20.7L438.4,369.8L438.4,369.8L438.4,369.8z M418.7,368.8h18.7v-13.5h-18.7V368.8z"/>
<polygon class="st0" points="437.4,368.9 418.2,354.8 418.2,369.1 "/>
<path class="st0" d="M438.4,391h-20.7v-15.5h20.7L438.4,391L438.4,391L438.4,391z M418.7,390h18.7v-13.5h-18.7V390z"/>
<polygon class="st0" points="437.4,390 418.2,376 418.2,390.3 "/>
<path class="st0" d="M438.4,412.2h-20.7v-15.5h20.7L438.4,412.2L438.4,412.2L438.4,412.2z M418.7,411.2h18.7v-13.5h-18.7V411.2
	L418.7,411.2L418.7,411.2z"/>
<polygon class="st0" points="437.4,411.3 418.2,397.1 418.2,411.5 "/>
<path class="st0" d="M438.4,433.4h-20.7v-15.5h20.7L438.4,433.4L438.4,433.4L438.4,433.4z M418.7,432.4h18.7v-13.5h-18.7V432.4z"/>
<polygon class="st0" points="437.4,432.4 418.2,418.3 418.2,432.7 "/>
<path class="st0" d="M772.1,224.5h-10.9v-18.4h10.9L772.1,224.5L772.1,224.5L772.1,224.5z M762.2,223.5h8.9v-16.4h-8.9V223.5z"/>
<polygon class="st0" points="761.7,206.6 771.6,224 762,224 "/>
<path class="st0" d="M515,198.8h-7.2V187h7.2V198.8L515,198.8z M508.8,197.8h5.2V188h-5.1L508.8,197.8L508.8,197.8L508.8,197.8z"/>
<rect x="511" y="186.7" transform="matrix(0.8697 -0.4936 0.4936 0.8697 -28.5724 277.625)" class="st0" width="1" height="12.4"/>
<path class="st0" d="M515,167.5h-7.2v-11.8h7.2V167.5z M508.8,166.5h5.2v-9.8h-5.1L508.8,166.5L508.8,166.5L508.8,166.5z"/>
<rect x="510.9" y="155.4" transform="matrix(0.8697 -0.4936 0.4936 0.8697 -13.1343 273.5229)" class="st0" width="1" height="12.4"/>
<path class="st0" d="M515,151.8h-7.2V140h7.2V151.8L515,151.8z M508.8,150.8h5.2V141h-5.1L508.8,150.8L508.8,150.8L508.8,150.8z"/>
<rect x="510.9" y="139.7" transform="matrix(0.8697 -0.4936 0.4936 0.8697 -5.3971 271.4747)" class="st0" width="1" height="12.4"/>
<path class="st0" d="M515,260h-7.2v-11.8h7.2V260z M508.8,259h5.2v-9.8h-5.1L508.8,259L508.8,259L508.8,259z"/>
<rect x="510.9" y="247.9" transform="matrix(0.8697 -0.4936 0.4936 0.8697 -58.7977 285.58)" class="st0" width="1" height="12.5"/>
<path class="st0" d="M515,244.3h-7.2v-11.8h7.2V244.3z M508.8,243.3h5.2v-9.8h-5.1L508.8,243.3L508.8,243.3L508.8,243.3z"/>
<rect x="510.9" y="232.2" transform="matrix(0.8697 -0.4936 0.4936 0.8697 -51.0507 283.5318)" class="st0" width="1" height="12.4"/>
<path class="st0" d="M515,228.6h-7.2v-11.8h7.2V228.6z M508.8,227.6h5.2v-9.8h-5.1L508.8,227.6L508.8,227.6L508.8,227.6z"/>
<rect x="511" y="216.5" transform="matrix(0.8697 -0.4936 0.4936 0.8697 -43.2871 281.505)" class="st0" width="1" height="12.4"/>
<path class="st0" d="M515,213h-7.2v-11.9h7.2V213z M508.8,212h5.2v-9.8h-5.1L508.8,212L508.8,212L508.8,212z"/>
<rect x="510.9" y="200.9" transform="matrix(0.8697 -0.4936 0.4936 0.8697 -35.5824 279.4475)" class="st0" width="1" height="12.4"/>
<path class="st0" d="M530.7,198.8h-7.2V187h7.2V198.8L530.7,198.8z M524.6,197.8h5.2V188h-5.2V197.8L524.6,197.8z"/>
<rect x="526.7" y="186.7" transform="matrix(0.8697 -0.4936 0.4936 0.8697 -26.5269 285.372)" class="st0" width="1" height="12.4"/>
<path class="st0" d="M530.7,183.2h-7.2v-11.8h7.2V183.2z M524.6,182.2h5.2v-9.8h-5.2V182.2z"/>
<rect x="526.6" y="171.1" transform="matrix(0.8697 -0.4936 0.4936 0.8697 -18.8223 283.3145)" class="st0" width="1" height="12.4"/>
<path class="st0" d="M530.7,167.5h-7.2v-11.8h7.2V167.5z M524.6,166.5h5.2v-9.8h-5.2V166.5z"/>
<rect x="526.6" y="155.4" transform="matrix(0.8697 -0.4936 0.4936 0.8697 -11.0852 281.2735)" class="st0" width="1" height="12.4"/>
<path class="st0" d="M530.7,151.8h-7.2V140h7.2V151.8L530.7,151.8z M524.6,150.8h5.2V141h-5.2V150.8L524.6,150.8z"/>
<rect x="526.6" y="139.7" transform="matrix(0.8697 -0.4936 0.4936 0.8697 -3.3504 279.2266)" class="st0" width="1" height="12.4"/>
<path class="st0" d="M530.7,260h-7.2v-11.8h7.2V260z M524.6,259h5.2v-9.8h-5.2V259z"/>
<rect x="526.6" y="247.9" transform="matrix(0.8697 -0.4936 0.4936 0.8697 -56.7473 293.3257)" class="st0" width="1" height="12.5"/>
<path class="st0" d="M530.7,228.6h-7.2v-11.8h7.2V228.6z M524.6,227.6h5.2v-9.8h-5.2V227.6z"/>
<rect x="526.7" y="216.5" transform="matrix(0.8697 -0.4936 0.4936 0.8697 -41.2403 289.257)" class="st0" width="1" height="12.4"/>
<path class="st0" d="M530.7,213h-7.2v-11.9h7.2V213z M524.6,212h5.2v-9.8h-5.2V212z"/>
<rect x="526.6" y="200.9" transform="matrix(0.8697 -0.4936 0.4936 0.8697 -33.537 287.1945)" class="st0" width="1" height="12.4"/>
<path class="st0" d="M566.3,151.8h-7.2V140h7.2L566.3,151.8L566.3,151.8L566.3,151.8z M560.1,150.8h5.2V141h-5.2V150.8L560.1,150.8z
	"/>
<polygon class="st0" points="559.6,140.5 565.8,151.3 559.8,151.3 "/>
<path class="st0" d="M566.3,167.7h-7.2v-11.8h7.2L566.3,167.7L566.3,167.7L566.3,167.7z M560.1,166.7h5.2v-9.8h-5.2V166.7z"/>
<polygon class="st0" points="559.6,156.4 565.8,167.2 559.8,167.2 "/>
<path class="st0" d="M566.3,198.6h-7.2v-11.8h7.2L566.3,198.6L566.3,198.6L566.3,198.6z M560.1,197.6h5.2v-9.8h-5.2V197.6z"/>
<polygon class="st0" points="559.6,187.3 565.8,198.1 559.8,198.1 "/>
<path class="st0" d="M566.3,228.6h-7.2v-11.8h7.2L566.3,228.6L566.3,228.6L566.3,228.6z M560.1,227.6h5.2v-9.8h-5.2V227.6z"/>
<polygon class="st0" points="559.6,217.3 565.8,228.1 559.8,228.1 "/>
<path class="st0" d="M566.3,212.8h-7.2v-11.8h7.2L566.3,212.8L566.3,212.8L566.3,212.8z M560.1,211.8h5.2v-9.8h-5.2V211.8z"/>
<polygon class="st0" points="559.6,201.4 565.8,212.3 559.8,212.3 "/>
<path class="st0" d="M566.3,244.5h-7.2v-11.8h7.2L566.3,244.5L566.3,244.5L566.3,244.5z M560.1,243.5h5.2v-9.8h-5.2V243.5z"/>
<polygon class="st0" points="559.6,233.2 565.8,244 559.8,244 "/>
<path class="st0" d="M566.3,260.4h-7.2v-11.8h7.2L566.3,260.4L566.3,260.4L566.3,260.4z M560.1,259.4h5.2v-9.8h-5.2V259.4z"/>
<polygon class="st0" points="559.6,249.1 565.8,259.9 559.8,259.9 "/>
<path class="st0" d="M581.1,198.8H574V187h7.2L581.1,198.8L581.1,198.8L581.1,198.8z M575,197.8h5.2V188H575L575,197.8L575,197.8
	L575,197.8z"/>
<rect x="577.1" y="186.6" transform="matrix(0.8697 -0.4936 0.4936 0.8697 -19.9039 310.2827)" class="st0" width="1" height="12.4"/>
<path class="st0" d="M581.1,183.2H574v-11.8h7.2L581.1,183.2L581.1,183.2z M575,182.2h5.2v-9.8H575L575,182.2L575,182.2z"/>
<rect x="577.1" y="171" transform="matrix(0.8697 -0.4936 0.4936 0.8697 -12.2006 308.2274)" class="st0" width="1" height="12.4"/>
<path class="st0" d="M581.1,151.8H574V140h7.2L581.1,151.8L581.1,151.8L581.1,151.8z M575,150.8h5.2V141H575L575,150.8L575,150.8
	L575,150.8z"/>
<polygon class="st0" points="580.2,151.6 574.1,140.7 574.9,140.3 581.1,151.1 "/>
<path class="st0" d="M581.1,260H574v-11.8h7.2L581.1,260L581.1,260L581.1,260z M575,259h5.2v-9.8H575V259L575,259z"/>
<polygon class="st0" points="580.2,259.7 574.1,248.9 574.9,248.4 581.1,259.2 "/>
<path class="st0" d="M581.1,244.3H574v-11.8h7.2L581.1,244.3L581.1,244.3L581.1,244.3z M575,243.3h5.2v-9.8H575L575,243.3L575,243.3
	L575,243.3z"/>
<rect x="577.1" y="232.1" transform="matrix(0.8697 -0.4936 0.4936 0.8697 -42.3786 316.1931)" class="st0" width="1" height="12.4"/>
<path class="st0" d="M581.1,228.6H574v-11.8h7.2L581.1,228.6L581.1,228.6L581.1,228.6z M575,227.6h5.2v-9.8H575L575,227.6L575,227.6
	L575,227.6z"/>
<rect x="577.1" y="216.4" transform="matrix(0.8697 -0.4936 0.4936 0.8697 -34.6186 314.1627)" class="st0" width="1" height="12.4"/>
<path class="st0" d="M581.1,213H574v-11.9h7.2L581.1,213L581.1,213L581.1,213z M575,212h5.2v-9.8H575V212L575,212z"/>
<rect x="577.1" y="200.8" transform="matrix(0.8697 -0.4936 0.4936 0.8697 -26.914 312.1124)" class="st0" width="1" height="12.4"/>
<path class="st0" d="M596.8,198.8h-7.2V187h7.2V198.8L596.8,198.8z M590.7,197.8h5.2V188h-5.2V197.8L590.7,197.8z"/>
<rect x="592.8" y="186.6" transform="matrix(0.8697 -0.4936 0.4936 0.8697 -17.8584 318.0298)" class="st0" width="1" height="12.4"/>
<path class="st0" d="M596.8,183.2h-7.2v-11.8h7.2V183.2z M590.7,182.2h5.2v-9.8h-5.2V182.2z"/>
<rect x="592.8" y="171" transform="matrix(0.8697 -0.4936 0.4936 0.8697 -10.1587 315.9709)" class="st0" width="1" height="12.4"/>
<path class="st0" d="M596.8,167.5h-7.2v-11.8h7.2V167.5z M590.7,166.5h5.2v-9.8h-5.2V166.5z"/>
<rect x="592.8" y="155.3" transform="matrix(0.8697 -0.4936 0.4936 0.8697 -2.4203 313.9276)" class="st0" width="1" height="12.4"/>
<path class="st0" d="M596.8,151.8h-7.2V140h7.2V151.8L596.8,151.8z M590.7,150.8h5.2V141h-5.2V150.8L590.7,150.8z"/>
<polygon class="st0" points="595.9,151.6 589.8,140.7 590.6,140.3 596.8,151.1 "/>
<path class="st0" d="M596.8,260h-7.2v-11.8h7.2V260z M590.7,259h5.2v-9.8h-5.2V259z"/>
<polygon class="st0" points="595.9,259.7 589.8,248.9 590.6,248.4 596.8,259.2 "/>
<path class="st0" d="M596.8,244.3h-7.2v-11.8h7.2V244.3z M590.7,243.3h5.2v-9.8h-5.2V243.3z"/>
<rect x="592.8" y="232.1" transform="matrix(0.8697 -0.4936 0.4936 0.8697 -40.3367 323.9365)" class="st0" width="1" height="12.4"/>
<path class="st0" d="M596.8,213h-7.2v-11.9h7.2V213z M590.7,212h5.2v-9.8h-5.2V212z"/>
<rect x="592.8" y="200.8" transform="matrix(0.8697 -0.4936 0.4936 0.8697 -24.8685 319.8594)" class="st0" width="1" height="12.4"/>
<path class="st0" d="M796.7,325.1h-10.9v-18.4h10.9V325.1z M786.8,324.1h8.9v-16.4h-8.9V324.1L786.8,324.1L786.8,324.1z"/>
<rect x="784.4" y="309.5" transform="matrix(0.8713 -0.4908 0.4908 0.8713 -55.7477 426.2926)" class="st0" width="1" height="20"/>
<path class="st0" d="M749,353.5h-10.9v-18.4H749V353.5z M739.1,352.5h8.9v-16.4h-8.9L739.1,352.5L739.1,352.5L739.1,352.5z"/>
<rect x="736.6" y="337.6" transform="matrix(0.8713 -0.4908 0.4908 0.8713 -75.7038 406.463)" class="st0" width="1" height="20"/>
<path class="st0" d="M771.3,353.5h-10.9v-18.4h10.9V353.5z M761.5,352.5h8.9v-16.4h-8.9V352.5L761.5,352.5L761.5,352.5z"/>
<rect x="758.9" y="337.7" transform="matrix(0.8713 -0.4908 0.4908 0.8713 -72.8682 417.4382)" class="st0" width="1" height="20"/>
<path class="st0" d="M795.9,353.5H785v-18.4h10.9L795.9,353.5L795.9,353.5L795.9,353.5z M786,352.5h8.9v-16.4H786L786,352.5
	L786,352.5L786,352.5z"/>
<rect x="783.5" y="337.8" transform="matrix(0.8713 -0.4908 0.4908 0.8713 -69.7467 429.5123)" class="st0" width="1" height="20"/>
<path class="st0" d="M749,378h-10.9v-18.4H749V378z M739.1,377h8.9v-16.3h-8.9L739.1,377L739.1,377L739.1,377z"/>
<rect x="743.1" y="358.8" transform="matrix(0.8697 -0.4936 0.4936 0.8697 -85.1405 415.1323)" class="st0" width="1" height="20"/>
<path class="st0" d="M771.3,378h-10.9v-18.4h10.9V378z M761.5,377h8.9v-16.3h-8.9V377z"/>
<rect x="765.4" y="358.8" transform="matrix(0.8697 -0.4936 0.4936 0.8697 -82.2252 426.1583)" class="st0" width="1" height="20"/>
<path class="st0" d="M795.9,378H785v-18.4h10.9L795.9,378L795.9,378L795.9,378z M786,377h8.9v-16.3H786V377L786,377z"/>
<rect x="790" y="358.8" transform="matrix(0.8697 -0.4936 0.4936 0.8697 -79.0275 438.2896)" class="st0" width="1" height="20"/>
<path class="st0" d="M749,402.6h-10.9v-18.4H749V402.6z M739.1,401.6h8.9v-16.4h-8.9L739.1,401.6L739.1,401.6L739.1,401.6z"/>
<rect x="736.4" y="386.7" transform="matrix(0.8713 -0.4908 0.4908 0.8713 -99.8532 412.701)" class="st0" width="1" height="20"/>
<path class="st0" d="M771.3,402.6h-10.9v-18.4h10.9V402.6z M761.5,401.6h8.9v-16.4h-8.9V401.6L761.5,401.6z"/>
<rect x="758.8" y="386.8" transform="matrix(0.8713 -0.4908 0.4908 0.8713 -97.0176 423.6762)" class="st0" width="1" height="20"/>
<path class="st0" d="M795.9,402.6H785v-18.4h10.9L795.9,402.6L795.9,402.6L795.9,402.6z M786,401.6h8.9v-16.4H786L786,401.6
	L786,401.6L786,401.6z"/>
<rect x="783.3" y="386.9" transform="matrix(0.8713 -0.4908 0.4908 0.8713 -93.8998 435.7538)" class="st0" width="1" height="20"/>
<path class="st0" d="M796.7,300h-10.9v-18.4h10.9V300z M786.8,299h8.9v-16.4h-8.9V299z"/>
<rect x="784.5" y="284.3" transform="matrix(0.8713 -0.4908 0.4908 0.8713 -43.3843 423.0962)" class="st0" width="1" height="20"/>
<path class="st0" d="M796.7,274.8h-10.9v-18.4h10.9V274.8z M786.8,273.8h8.9v-16.4h-8.9V273.8z"/>
<rect x="784.5" y="259.1" transform="matrix(0.8713 -0.4908 0.4908 0.8713 -31.0199 419.8962)" class="st0" width="1" height="20"/>
<path class="st0" d="M796.7,249.6h-10.9v-18.4h10.9V249.6L796.7,249.6z M786.8,248.6h8.9v-16.4h-8.9V248.6L786.8,248.6L786.8,248.6z
	"/>
<rect x="790.8" y="230.4" transform="matrix(0.8697 -0.4936 0.4936 0.8697 -15.5562 421.9324)" class="st0" width="1" height="20"/>
<path class="st0" d="M796.7,224.5h-10.9v-18.4h10.9V224.5L796.7,224.5z M786.8,223.5h8.9v-16.4h-8.9V223.5z"/>
<rect x="784.7" y="208.8" transform="matrix(0.8713 -0.4908 0.4908 0.8713 -6.2837 413.5049)" class="st0" width="1" height="20"/>
<path class="st0" d="M820.5,224.5h-10.9v-18.4h10.9V224.5L820.5,224.5z M810.6,223.5h8.9v-16.4h-8.9V223.5z"/>
<rect x="808.6" y="208.8" transform="matrix(0.8713 -0.4908 0.4908 0.8713 -3.2547 425.2126)" class="st0" width="1" height="20"/>
<path class="st0" d="M915,269.3h-20.8v-15.5H915V269.3z M895.3,268.3H914v-13.5h-18.8L895.3,268.3L895.3,268.3L895.3,268.3z"/>
<rect x="904.1" y="249.3" transform="matrix(0.5938 -0.8046 0.8046 0.5938 156.9832 834.0233)" class="st0" width="1" height="24.5"/>
<path class="st0" d="M915,290.4h-20.8v-15.5H915V290.4z M895.3,289.4H914v-13.5h-18.8L895.3,289.4L895.3,289.4L895.3,289.4z"/>
<rect x="904.1" y="270.3" transform="matrix(0.5938 -0.8046 0.8046 0.5938 140.0593 842.5508)" class="st0" width="1" height="24.5"/>
<path class="st0" d="M915,311.4h-20.8v-15.5H915V311.4z M895.3,310.4H914v-13.5h-18.8L895.3,310.4L895.3,310.4L895.3,310.4z"/>
<rect x="904.1" y="291.4" transform="matrix(0.5938 -0.8046 0.8046 0.5938 123.1316 851.1106)" class="st0" width="1" height="24.5"/>
<path class="st0" d="M915,332.4h-20.8v-15.5H915V332.4z M895.3,331.4H914v-13.5h-18.8L895.3,331.4L895.3,331.4L895.3,331.4z"/>
<rect x="904.1" y="312.4" transform="matrix(0.5938 -0.8046 0.8046 0.5938 106.2126 859.6519)" class="st0" width="1" height="24.5"/>
<path class="st0" d="M915,353.5h-20.8v-15.5H915V353.5z M895.3,352.5H914v-13.5h-18.8L895.3,352.5L895.3,352.5L895.3,352.5z"/>
<rect x="904.1" y="333.4" transform="matrix(0.5938 -0.8046 0.8046 0.5938 89.2896 868.185)" class="st0" width="1" height="24.5"/>
<path class="st0" d="M915,374.5h-20.8V359H915V374.5L915,374.5z M895.3,373.5H914V360h-18.8L895.3,373.5L895.3,373.5L895.3,373.5z"
	/>
<rect x="904.1" y="354.5" transform="matrix(0.5938 -0.8046 0.8046 0.5938 72.3651 876.7271)" class="st0" width="1" height="24.5"/>
<path class="st0" d="M915,416.6h-20.8V401H915V416.6L915,416.6z M895.3,415.6H914V402h-18.8L895.3,415.6L895.3,415.6L895.3,415.6z"
	/>
<rect x="904.1" y="396.5" transform="matrix(0.5938 -0.8046 0.8046 0.5938 38.519 893.8135)" class="st0" width="1" height="24.5"/>
<path class="st0" d="M915,437.6h-20.8v-15.5H915V437.6z M895.3,436.6H914v-13.5h-18.8L895.3,436.6L895.3,436.6L895.3,436.6z"/>
<rect x="904.1" y="417.5" transform="matrix(0.5938 -0.8046 0.8046 0.5938 21.6537 902.3495)" class="st0" width="1" height="24.5"/>
<path class="st0" d="M949,269.3h-20.8v-15.5H949V269.3z M929.3,268.3H948v-13.5h-18.8L929.3,268.3L929.3,268.3L929.3,268.3z"/>
<rect x="938.1" y="249.3" transform="matrix(0.5938 -0.8046 0.8046 0.5938 170.7854 861.3732)" class="st0" width="1" height="24.5"/>
<path class="st0" d="M949,290.4h-20.8v-15.5H949V290.4z M929.3,289.4H948v-13.5h-18.8L929.3,289.4L929.3,289.4L929.3,289.4z"/>
<rect x="938.1" y="270.3" transform="matrix(0.5938 -0.8046 0.8046 0.5938 153.8656 869.9088)" class="st0" width="1" height="24.5"/>
<path class="st0" d="M949,311.4h-20.8v-15.5H949V311.4z M929.3,310.4H948v-13.5h-18.8L929.3,310.4L929.3,310.4L929.3,310.4z"/>
<rect x="938.1" y="291.4" transform="matrix(0.5938 -0.8046 0.8046 0.5938 136.9419 878.4565)" class="st0" width="1" height="24.5"/>
<path class="st0" d="M949,332.4h-20.8v-15.5H949V332.4z M929.3,331.4H948v-13.5h-18.8L929.3,331.4L929.3,331.4L929.3,331.4z"/>
<rect x="938.1" y="312.4" transform="matrix(0.5938 -0.8046 0.8046 0.5938 120.0229 886.9977)" class="st0" width="1" height="24.5"/>
<path class="st0" d="M949,374.5h-20.8V359H949V374.5L949,374.5z M929.3,373.5H948V360h-18.8L929.3,373.5L929.3,373.5L929.3,373.5z"
	/>
<rect x="938.1" y="354.5" transform="matrix(0.5938 -0.8046 0.8046 0.5938 86.1754 904.0931)" class="st0" width="1" height="24.5"/>
<path class="st0" d="M949,395.5h-20.8V380H949V395.5L949,395.5z M929.3,394.5H948V381h-18.8L929.3,394.5L929.3,394.5L929.3,394.5z"
	/>
<rect x="938.1" y="375.5" transform="matrix(0.5938 -0.8046 0.8046 0.5938 69.2517 912.6407)" class="st0" width="1" height="24.5"/>
<path class="st0" d="M949,416.6h-20.8V401H949V416.6L949,416.6z M929.3,415.6H948V402h-18.8L929.3,415.6L929.3,415.6L929.3,415.6z"
	/>
<rect x="938.1" y="396.5" transform="matrix(0.5938 -0.8046 0.8046 0.5938 52.3238 921.1804)" class="st0" width="1" height="24.5"/>
<path class="st0" d="M949,437.6h-20.8v-15.5H949V437.6z M929.3,436.6H948v-13.5h-18.8L929.3,436.6L929.3,436.6L929.3,436.6z"/>
<rect x="938.1" y="417.5" transform="matrix(0.5938 -0.8046 0.8046 0.5938 35.4736 929.7026)" class="st0" width="1" height="24.5"/>
<path class="st0" d="M1634.4,384.6h-14.6v-11h14.6L1634.4,384.6L1634.4,384.6L1634.4,384.6z M1620.8,383.6h12.6v-9h-12.6V383.6z"/>
<polygon class="st0" points="1620.3,374.1 1633.9,384.1 1620.3,384.1 "/>
<path class="st0" d="M1634.4,398.8h-14.6v-11h14.6L1634.4,398.8L1634.4,398.8L1634.4,398.8z M1620.8,397.8h12.6v-9h-12.6V397.8z"/>
<polygon class="st0" points="1620.3,388.2 1633.9,398.3 1620.3,398.3 "/>
<path class="st0" d="M1634.4,413.8h-14.6v-11h14.6L1634.4,413.8L1634.4,413.8L1634.4,413.8z M1620.8,412.8h12.6v-9h-12.6V412.8z"/>
<polygon class="st0" points="1620.3,403.2 1633.9,413.3 1620.3,413.3 "/>
<path class="st0" d="M1634.4,427.9h-14.6v-11h14.6L1634.4,427.9L1634.4,427.9L1634.4,427.9z M1620.8,426.9h12.6v-9h-12.6V426.9z"/>
<polygon class="st0" points="1620.3,417.4 1633.9,427.4 1620.3,427.4 "/>
<path class="st0" d="M1634.4,399.1h-14.6v-11h14.6L1634.4,399.1L1634.4,399.1L1634.4,399.1z M1620.8,398.1h12.6v-9h-12.6V398.1z"/>
<rect x="1626.6" y="385" transform="matrix(0.5938 -0.8046 0.8046 0.5938 344.2764 1468.9458)" class="st0" width="1" height="16.9"/>
<path class="st0" d="M1634.4,413.7h-14.6v-11h14.6L1634.4,413.7L1634.4,413.7L1634.4,413.7z M1620.8,412.7h12.6v-9h-12.6V412.7z"/>
<rect x="1626.6" y="399.7" transform="matrix(0.5938 -0.8046 0.8046 0.5938 332.5004 1474.9076)" class="st0" width="1" height="16.9"/>
<path class="st0" d="M1634.4,428.2h-14.6v-11h14.6L1634.4,428.2L1634.4,428.2L1634.4,428.2z M1620.8,427.2h12.6v-9h-12.6V427.2z"/>
<rect x="1626.6" y="414.2" transform="matrix(0.5938 -0.8046 0.8046 0.5938 320.8039 1480.7986)" class="st0" width="1" height="16.9"/>
<path class="st0" d="M1660.1,384.6h-14.6v-11h14.6V384.6z M1646.4,383.6h12.6v-9h-12.6L1646.4,383.6L1646.4,383.6L1646.4,383.6z"/>
<rect x="1652.2" y="370.7" transform="matrix(0.5938 -0.8046 0.8046 0.5938 366.1779 1483.7628)" class="st0" width="1" height="16.9"/>
<path class="st0" d="M1660.1,399.1h-14.6v-11h14.6V399.1z M1646.4,398.1h12.6v-9h-12.6L1646.4,398.1L1646.4,398.1L1646.4,398.1z"/>
<rect x="1652.2" y="385" transform="matrix(0.5938 -0.8046 0.8046 0.5938 354.6866 1489.5612)" class="st0" width="1" height="16.9"/>
<path class="st0" d="M1660.1,413.7h-14.6v-11h14.6V413.7z M1646.4,412.7h12.6v-9h-12.6L1646.4,412.7L1646.4,412.7L1646.4,412.7z"/>
<rect x="1652.2" y="399.7" transform="matrix(0.5938 -0.8046 0.8046 0.5938 342.8992 1495.5046)" class="st0" width="1" height="16.9"/>
<path class="st0" d="M1660.1,428.2h-14.6v-11h14.6V428.2z M1646.4,427.2h12.6v-9h-12.6L1646.4,427.2L1646.4,427.2L1646.4,427.2z"/>
<rect x="1652.2" y="414.2" transform="matrix(0.5938 -0.8046 0.8046 0.5938 331.2237 1501.4011)" class="st0" width="1" height="16.9"/>
<path class="st0" d="M1685.7,384.6H1671v-11h14.6L1685.7,384.6L1685.7,384.6L1685.7,384.6z M1672,383.6h12.6v-9H1672L1672,383.6
	L1672,383.6L1672,383.6z"/>
<rect x="1677.8" y="370.7" transform="matrix(0.5938 -0.8046 0.8046 0.5938 376.5866 1504.3871)" class="st0" width="1" height="16.9"/>
<path class="st0" d="M1685.7,399.1H1671v-11h14.6L1685.7,399.1L1685.7,399.1L1685.7,399.1z M1672,398.1h12.6v-9H1672L1672,398.1
	L1672,398.1L1672,398.1z"/>
<rect x="1677.8" y="385" transform="matrix(0.5938 -0.8046 0.8046 0.5938 365.0863 1510.1638)" class="st0" width="1" height="16.9"/>
<path class="st0" d="M1685.7,413.7H1671v-11h14.6L1685.7,413.7L1685.7,413.7L1685.7,413.7z M1672,412.7h12.6v-9H1672L1672,412.7
	L1672,412.7L1672,412.7z"/>
<rect x="1677.8" y="399.7" transform="matrix(0.5938 -0.8046 0.8046 0.5938 353.295 1516.1193)" class="st0" width="1" height="16.9"/>
<path class="st0" d="M1685.7,428.2H1671v-11h14.6L1685.7,428.2L1685.7,428.2L1685.7,428.2z M1672,427.2h12.6v-9H1672L1672,427.2
	L1672,427.2L1672,427.2z"/>
<rect x="1677.8" y="414.2" transform="matrix(0.5938 -0.8046 0.8046 0.5938 341.6203 1522.0214)" class="st0" width="1" height="16.9"/>
<path class="st0" d="M1711.3,384.6h-14.6v-11h14.6V384.6z M1697.7,383.6h12.6v-9h-12.6V383.6z"/>
<rect x="1703.4" y="370.8" transform="matrix(0.5938 -0.8046 0.8046 0.5938 386.9799 1524.9849)" class="st0" width="1" height="16.9"/>
<path class="st0" d="M1711.3,399.1h-14.6v-11h14.6V399.1z M1697.7,398.1h12.6v-9h-12.6V398.1z"/>
<rect x="1703.4" y="385" transform="matrix(0.5938 -0.8046 0.8046 0.5938 375.4749 1530.7682)" class="st0" width="1" height="16.9"/>
<path class="st0" d="M1711.3,413.7h-14.6v-11h14.6V413.7z M1697.7,412.7h12.6v-9h-12.6V412.7z"/>
<rect x="1703.4" y="399.7" transform="matrix(0.5938 -0.8046 0.8046 0.5938 363.7012 1536.7267)" class="st0" width="1" height="16.9"/>
<path class="st0" d="M1711.3,428.2h-14.6v-11h14.6V428.2z M1697.7,427.2h12.6v-9h-12.6V427.2z"/>
<rect x="1703.4" y="414.2" transform="matrix(0.5938 -0.8046 0.8046 0.5938 352.0169 1542.6216)" class="st0" width="1" height="16.9"/>
<path class="st0" d="M1736.9,384.6h-14.6v-11h14.6V384.6z M1723.3,383.6h12.6v-9h-12.6V383.6z"/>
<rect x="1729.1" y="370.8" transform="matrix(0.5938 -0.8046 0.8046 0.5938 397.3249 1545.6517)" class="st0" width="1" height="16.9"/>
<path class="st0" d="M1634.4,369.6h-14.6v-11h14.6L1634.4,369.6L1634.4,369.6L1634.4,369.6z M1620.8,368.6h12.6v-9h-12.6V368.6z"/>
<polygon class="st0" points="1620.3,359.1 1633.9,369.1 1620.3,369.1 "/>
<path class="st0" d="M1660.1,369.6h-14.6v-11h14.6V369.6z M1646.4,368.6h12.6v-9h-12.6L1646.4,368.6L1646.4,368.6L1646.4,368.6z"/>
<rect x="1652.2" y="355.7" transform="matrix(0.5938 -0.8046 0.8046 0.5938 378.2444 1477.6669)" class="st0" width="1" height="16.9"/>
<path class="st0" d="M1685.7,369.6H1671v-11h14.6L1685.7,369.6L1685.7,369.6L1685.7,369.6z M1672,368.6h12.6v-9H1672L1672,368.6
	L1672,368.6L1672,368.6z"/>
<rect x="1677.8" y="355.7" transform="matrix(0.5938 -0.8046 0.8046 0.5938 388.6505 1498.2742)" class="st0" width="1" height="16.9"/>
<path class="st0" d="M1711.3,369.6h-14.6v-11h14.6V369.6z M1697.7,368.6h12.6v-9h-12.6V368.6z"/>
<rect x="1703.4" y="355.8" transform="matrix(0.5938 -0.8046 0.8046 0.5938 399.0464 1518.8889)" class="st0" width="1" height="16.9"/>
<path class="st0" d="M1736.9,369.6h-14.6v-11h14.6V369.6z M1723.3,368.6h12.6v-9h-12.6V368.6z"/>
<rect x="1729.1" y="355.8" transform="matrix(0.5938 -0.8046 0.8046 0.5938 409.3929 1539.5469)" class="st0" width="1" height="16.9"/>
<path class="st0" d="M1634.4,354.6h-14.6v-11h14.6L1634.4,354.6L1634.4,354.6L1634.4,354.6z M1620.8,353.6h12.6v-9h-12.6V353.6z"/>
<polygon class="st0" points="1620.3,344.1 1633.9,354.1 1620.3,354.1 "/>
<path class="st0" d="M1660.1,354.6h-14.6v-11h14.6V354.6z M1646.4,353.6h12.6v-9h-12.6L1646.4,353.6L1646.4,353.6L1646.4,353.6z"/>
<rect x="1652.2" y="340.6" transform="matrix(0.5938 -0.8046 0.8046 0.5938 390.4146 1471.5178)" class="st0" width="1" height="16.9"/>
<path class="st0" d="M1685.7,354.6H1671v-11h14.6L1685.7,354.6L1685.7,354.6L1685.7,354.6z M1672,353.6h12.6v-9H1672L1672,353.6
	L1672,353.6L1672,353.6z"/>
<rect x="1677.8" y="340.6" transform="matrix(0.5938 -0.8046 0.8046 0.5938 400.812 1492.1237)" class="st0" width="1" height="16.9"/>
<path class="st0" d="M1711.3,354.6h-14.6v-11h14.6V354.6z M1697.7,353.6h12.6v-9h-12.6V353.6z"/>
<rect x="1703.4" y="340.6" transform="matrix(0.5938 -0.8046 0.8046 0.5938 411.2079 1512.7384)" class="st0" width="1" height="16.9"/>
<path class="st0" d="M1736.9,354.6h-14.6v-11h14.6V354.6z M1723.3,353.6h12.6v-9h-12.6V353.6z"/>
<rect x="1729.1" y="340.7" transform="matrix(0.5938 -0.8046 0.8046 0.5938 421.5455 1533.3948)" class="st0" width="1" height="16.9"/>
<path class="st0" d="M1736.9,399.1h-14.6v-11h14.6V399.1z M1723.3,398.1h12.6v-9h-12.6V398.1z"/>
<rect x="1729.1" y="385.1" transform="matrix(0.5938 -0.8046 0.8046 0.5938 385.8198 1551.4249)" class="st0" width="1" height="16.9"/>
<path class="st0" d="M1736.9,413.7h-14.6v-11h14.6V413.7z M1723.3,412.7h12.6v-9h-12.6V412.7z"/>
<rect x="1729.1" y="399.8" transform="matrix(0.5938 -0.8046 0.8046 0.5938 374.0318 1557.3928)" class="st0" width="1" height="16.9"/>
<path class="st0" d="M1736.9,428.2h-14.6v-11h14.6V428.2z M1723.3,427.2h12.6v-9h-12.6V427.2z"/>
<rect x="1729.1" y="414.3" transform="matrix(0.5938 -0.8046 0.8046 0.5938 362.3434 1563.2798)" class="st0" width="1" height="16.9"/>
<path class="st0" d="M1440.4,356.3h-14.6v-11h14.6L1440.4,356.3L1440.4,356.3L1440.4,356.3z M1426.8,355.3h12.6v-9h-12.6V355.3z"/>
<polygon class="st0" points="1426.3,345.8 1439.9,355.8 1426.3,355.8 "/>
<path class="st0" d="M1440.4,370.4h-14.6v-11h14.6L1440.4,370.4L1440.4,370.4L1440.4,370.4z M1426.8,369.4h12.6v-9h-12.6V369.4z"/>
<polygon class="st0" points="1426.3,359.9 1439.9,369.9 1426.3,369.9 "/>
<path class="st0" d="M1440.4,385.4h-14.6v-11h14.6L1440.4,385.4L1440.4,385.4L1440.4,385.4z M1426.8,384.4h12.6v-9h-12.6V384.4z"/>
<polygon class="st0" points="1426.3,374.9 1439.9,384.9 1426.3,384.9 "/>
<path class="st0" d="M1440.4,370.8h-14.6v-11h14.6L1440.4,370.8L1440.4,370.8L1440.4,370.8z M1426.8,369.8h12.6v-9h-12.6V369.8z"/>
<rect x="1432.6" y="356.8" transform="matrix(0.5938 -0.8046 0.8046 0.5938 288.1803 1301.4059)" class="st0" width="1" height="16.9"/>
<path class="st0" d="M1440.4,385.4h-14.6v-11h14.6L1440.4,385.4L1440.4,385.4L1440.4,385.4z M1426.8,384.4h12.6v-9h-12.6V384.4z"/>
<rect x="1432.6" y="371.5" transform="matrix(0.5938 -0.8046 0.8046 0.5938 276.4025 1307.3464)" class="st0" width="1" height="16.9"/>
<path class="st0" d="M1466.1,356.3h-14.6v-11h14.6V356.3z M1452.4,355.3h12.6v-9h-12.6L1452.4,355.3L1452.4,355.3L1452.4,355.3z"/>
<rect x="1458.2" y="342.3" transform="matrix(0.5938 -0.8046 0.8046 0.5938 310.2708 1316.1183)" class="st0" width="1" height="16.9"/>
<path class="st0" d="M1466.1,370.8h-14.6v-11h14.6V370.8z M1452.4,369.8h12.6v-9h-12.6L1452.4,369.8L1452.4,369.8L1452.4,369.8z"/>
<rect x="1458.2" y="356.8" transform="matrix(0.5938 -0.8046 0.8046 0.5938 298.5905 1322.0212)" class="st0" width="1" height="16.9"/>
<path class="st0" d="M1466.1,385.4h-14.6v-11h14.6V385.4z M1452.4,384.4h12.6v-9h-12.6L1452.4,384.4L1452.4,384.4L1452.4,384.4z"/>
<rect x="1458.2" y="371.4" transform="matrix(0.5938 -0.8046 0.8046 0.5938 286.8217 1327.9634)" class="st0" width="1" height="16.9"/>
<path class="st0" d="M1466.1,399.9h-14.6v-11h14.6V399.9z M1452.4,398.9h12.6v-9h-12.6L1452.4,398.9L1452.4,398.9L1452.4,398.9z"/>
<rect x="1458.2" y="386" transform="matrix(0.5938 -0.8046 0.8046 0.5938 275.1325 1333.8646)" class="st0" width="1" height="16.9"/>
<path class="st0" d="M1491.7,356.3H1477v-11h14.6L1491.7,356.3L1491.7,356.3L1491.7,356.3z M1478,355.3h12.6v-9H1478L1478,355.3
	L1478,355.3L1478,355.3z"/>
<rect x="1483.8" y="342.3" transform="matrix(0.5938 -0.8046 0.8046 0.5938 320.6721 1336.712)" class="st0" width="1" height="16.9"/>
<path class="st0" d="M1491.7,370.8H1477v-11h14.6L1491.7,370.8L1491.7,370.8L1491.7,370.8z M1478,369.8h12.6v-9H1478L1478,369.8
	L1478,369.8L1478,369.8z"/>
<rect x="1483.8" y="356.8" transform="matrix(0.5938 -0.8046 0.8046 0.5938 308.9885 1342.6125)" class="st0" width="1" height="16.9"/>
<path class="st0" d="M1491.7,385.4H1477v-11h14.6L1491.7,385.4L1491.7,385.4L1491.7,385.4z M1478,384.4h12.6v-9H1478L1478,384.4
	L1478,384.4L1478,384.4z"/>
<rect x="1483.8" y="371.5" transform="matrix(0.5938 -0.8046 0.8046 0.5938 297.2134 1348.5699)" class="st0" width="1" height="16.9"/>
<path class="st0" d="M1491.7,399.9H1477v-11h14.6L1491.7,399.9L1491.7,399.9L1491.7,399.9z M1478,398.9h12.6v-9H1478L1478,398.9
	L1478,398.9L1478,398.9z"/>
<rect x="1483.8" y="386" transform="matrix(0.5938 -0.8046 0.8046 0.5938 285.5258 1354.4624)" class="st0" width="1" height="16.9"/>
<path class="st0" d="M1517.3,356.3h-14.6v-11h14.6V356.3z M1503.7,355.3h12.6v-9h-12.6V355.3z"/>
<rect x="1509.4" y="342.3" transform="matrix(0.5938 -0.8046 0.8046 0.5938 331.0681 1357.3268)" class="st0" width="1" height="16.9"/>
<path class="st0" d="M1440.4,341.3h-14.6v-11h14.6L1440.4,341.3L1440.4,341.3L1440.4,341.3z M1426.8,340.3h12.6v-9h-12.6V340.3z"/>
<polygon class="st0" points="1426.3,330.8 1439.9,340.8 1426.3,340.8 "/>
<path class="st0" d="M1466.1,341.3h-14.6v-11h14.6V341.3z M1452.4,340.3h12.6v-9h-12.6L1452.4,340.3L1452.4,340.3L1452.4,340.3z"/>
<rect x="1458.2" y="327.4" transform="matrix(0.5938 -0.8046 0.8046 0.5938 322.2617 1310.071)" class="st0" width="1" height="16.9"/>
<path class="st0" d="M1491.7,341.3H1477v-11h14.6L1491.7,341.3L1491.7,341.3L1491.7,341.3z M1478,340.3h12.6v-9H1478L1478,340.3
	L1478,340.3L1478,340.3z"/>
<rect x="1483.8" y="327.4" transform="matrix(0.5938 -0.8046 0.8046 0.5938 332.6574 1330.6858)" class="st0" width="1" height="16.9"/>
<path class="st0" d="M1517.3,341.3h-14.6v-11h14.6V341.3z M1503.7,340.3h12.6v-9h-12.6V340.3z"/>
<rect x="1509.4" y="327.4" transform="matrix(0.5938 -0.8046 0.8046 0.5938 343.0547 1351.2916)" class="st0" width="1" height="16.9"/>
<path class="st0" d="M1440.4,326.3h-14.6v-11h14.6L1440.4,326.3L1440.4,326.3L1440.4,326.3z M1426.8,325.3h12.6v-9h-12.6V325.3z"/>
<polygon class="st0" points="1426.3,315.8 1439.9,325.8 1426.3,325.8 "/>
<path class="st0" d="M1466.1,326.3h-14.6v-11h14.6V326.3z M1452.4,325.3h12.6v-9h-12.6L1452.4,325.3L1452.4,325.3L1452.4,325.3z"/>
<rect x="1458.2" y="312.4" transform="matrix(0.5938 -0.8046 0.8046 0.5938 334.3305 1303.9717)" class="st0" width="1" height="16.9"/>
<path class="st0" d="M1491.7,326.3H1477v-11h14.6L1491.7,326.3L1491.7,326.3L1491.7,326.3z M1478,325.3h12.6v-9H1478L1478,325.3
	L1478,325.3L1478,325.3z"/>
<rect x="1483.8" y="312.4" transform="matrix(0.5938 -0.8046 0.8046 0.5938 344.7353 1324.5879)" class="st0" width="1" height="16.9"/>
<path class="st0" d="M1517.3,326.3h-14.6v-11h14.6V326.3z M1503.7,325.3h12.6v-9h-12.6V325.3z"/>
<rect x="1509.4" y="312.4" transform="matrix(0.5938 -0.8046 0.8046 0.5938 355.1237 1345.1923)" class="st0" width="1" height="16.9"/>
<path class="st0" d="M1517.3,370.8h-14.6v-11h14.6V370.8z M1503.7,369.8h12.6v-9h-12.6V369.8z"/>
<rect x="1509.4" y="356.8" transform="matrix(0.5938 -0.8046 0.8046 0.5938 319.3973 1363.2369)" class="st0" width="1" height="16.9"/>
<path class="st0" d="M1517.3,385.4h-14.6v-11h14.6V385.4z M1503.7,384.4h12.6v-9h-12.6V384.4z"/>
<rect x="1509.4" y="371.5" transform="matrix(0.5938 -0.8046 0.8046 0.5938 307.6106 1369.1758)" class="st0" width="1" height="16.9"/>
<path class="st0" d="M1517.3,399.9h-14.6v-11h14.6V399.9z M1503.7,398.9h12.6v-9h-12.6V398.9z"/>
<rect x="1509.4" y="386" transform="matrix(0.5938 -0.8046 0.8046 0.5938 295.9256 1375.0852)" class="st0" width="1" height="16.9"/>
<path class="st0" d="M1466.1,413.9h-14.6v-11h14.6V413.9z M1452.4,412.9h12.6v-9h-12.6L1452.4,412.9L1452.4,412.9L1452.4,412.9z"/>
<rect x="1458.2" y="400" transform="matrix(0.5938 -0.8046 0.8046 0.5938 263.854 1339.5463)" class="st0" width="1" height="16.9"/>
<path class="st0" d="M1491.7,413.9H1477v-11h14.6L1491.7,413.9L1491.7,413.9L1491.7,413.9z M1478,412.9h12.6v-9H1478L1478,412.9
	L1478,412.9L1478,412.9z"/>
<rect x="1483.8" y="400" transform="matrix(0.5938 -0.8046 0.8046 0.5938 274.2587 1360.1625)" class="st0" width="1" height="16.9"/>
<path class="st0" d="M1517.3,413.9h-14.6v-11h14.6V413.9z M1503.7,412.9h12.6v-9h-12.6V412.9z"/>
<rect x="1509.4" y="400" transform="matrix(0.5938 -0.8046 0.8046 0.5938 284.656 1380.7683)" class="st0" width="1" height="16.9"/>
<path class="st0" d="M1466.1,427.9h-14.6v-11h14.6V427.9z M1452.4,426.9h12.6v-9h-12.6L1452.4,426.9L1452.4,426.9L1452.4,426.9z"/>
<rect x="1458.2" y="414" transform="matrix(0.5938 -0.8046 0.8046 0.5938 252.6055 1345.2349)" class="st0" width="1" height="16.9"/>
<path class="st0" d="M1491.7,427.9H1477v-11h14.6L1491.7,427.9L1491.7,427.9L1491.7,427.9z M1478,426.9h12.6v-9H1478L1478,426.9
	L1478,426.9L1478,426.9z"/>
<rect x="1483.8" y="414" transform="matrix(0.5938 -0.8046 0.8046 0.5938 262.9939 1365.8391)" class="st0" width="1" height="16.9"/>
<path class="st0" d="M1517.3,427.9h-14.6v-11h14.6V427.9z M1503.7,426.9h12.6v-9h-12.6V426.9z"/>
<rect x="1509.4" y="414" transform="matrix(0.5938 -0.8046 0.8046 0.5938 273.3986 1386.4553)" class="st0" width="1" height="16.9"/>
<polygon class="st0" points="1076.1,448.3 1073.1,448.3 1073.1,119.4 1132.8,119.4 1132.8,88.6 1168.4,88.6 1168.3,127.4
	1165.3,127.4 1165.4,91.6 1135.8,91.6 1135.8,122.4 1076.1,122.4 "/>
<path class="st0" d="M988,447.8L950.3,40.2l160.4-16.3l-1.9,2.7c-0.2,0.2-15.3,35.7-11.8,85.7h-4c-2-40,7.9-77.8,11.7-84.8
	L953.6,42.9L991,447.5L988,447.8z"/>
<path class="st0" d="M1122.7,247.1h-32.4V223h32.4V247.1L1122.7,247.1z M1091.3,246.1h30.3V224h-30.3V246.1L1091.3,246.1
	L1091.3,246.1z"/>
<polygon class="st0" points="1122.1,246.6 1090.8,223.5 1090.8,246.1 "/>
<path class="st0" d="M1122.7,247.9h-32.4v-24.1h32.4V247.9L1122.7,247.9z M1091.3,246.9h30.3v-22.1h-30.3V246.9z"/>
<polygon class="st0" points="1122.1,247.4 1090.8,224.4 1090.8,247 "/>
<path class="st0" d="M1122.7,208.2h-32.4v-24.1h32.4V208.2z M1091.3,207.2h30.3v-22.1h-30.3V207.2z"/>
<polygon class="st0" points="1122.1,207.7 1090.8,184.6 1090.8,207.3 "/>
<path class="st0" d="M1122.7,285h-32.4v-24.1h32.4V285z M1091.3,284h30.3v-22h-30.3V284z"/>
<polygon class="st0" points="1122.1,284.5 1090.8,261.5 1090.8,284.1 "/>
<path class="st0" d="M1122.7,323h-32.4v-24.1h32.4V323z M1091.3,322h30.3v-22.1h-30.3V322z"/>
<polygon class="st0" points="1122.1,322.5 1090.8,299.4 1090.8,322.1 "/>
<path class="st0" d="M1122.7,361h-32.4v-24.1h32.4V361z M1091.3,360h30.3v-22.1h-30.3V360z"/>
<polygon class="st0" points="1122.1,360.5 1090.8,337.4 1090.8,360 "/>
<path class="st0" d="M1122.7,398.9h-32.4v-24.1h32.4V398.9z M1091.3,397.9h30.3v-22.1h-30.3V397.9z"/>
<polygon class="st0" points="1122.1,398.4 1090.8,375.4 1090.8,398 "/>
<path class="st0" d="M1197.7,211.7h-32.4v-24.1h32.4V211.7z M1166.4,210.7h30.3v-22.1h-30.3V210.7z"/>
<polygon class="st0" points="1197.1,211.2 1165.9,188.1 1165.9,210.8 "/>
<path class="st0" d="M1197.7,212.6h-32.4v-24.1h32.4V212.6z M1166.4,211.6h30.3v-22.1h-30.3V211.6z"/>
<polygon class="st0" points="1197.1,212.1 1165.9,189 1165.9,211.7 "/>
<path class="st0" d="M1197.7,172.9h-32.4v-24.1h32.4V172.9z M1166.4,171.9h30.3v-22.1h-30.3V171.9z"/>
<polygon class="st0" points="1197.1,172.4 1165.9,149.3 1165.9,171.9 "/>
<path class="st0" d="M1197.7,249.7h-32.4v-24.1h32.4V249.7z M1166.4,248.7h30.3v-22.1h-30.3V248.7z"/>
<polygon class="st0" points="1197.1,249.2 1165.9,226.1 1165.9,248.8 "/>
<path class="st0" d="M1197.7,287.7h-32.4v-24.1h32.4V287.7L1197.7,287.7z M1166.4,286.7h30.3v-22.1h-30.3V286.7L1166.4,286.7z"/>
<polygon class="st0" points="1197.1,287.2 1165.9,264.1 1165.9,286.7 "/>
<path class="st0" d="M1197.7,325.6h-32.4v-24.1h32.4V325.6L1197.7,325.6z M1166.4,324.6h30.3v-22.1h-30.3V324.6L1166.4,324.6z"/>
<polygon class="st0" points="1197.1,325.1 1165.9,302.1 1165.9,324.7 "/>
<path class="st0" d="M1197.7,363.6h-32.4v-24.1h32.4V363.6z M1166.4,362.6h30.3v-22.1h-30.3V362.6z"/>
<polygon class="st0" points="1197.1,363.1 1165.9,340 1165.9,362.7 "/>
<path class="st0" d="M1069.1,160.8h-75.6v-13.4h75.6V160.8z M994.5,159.8h73.5v-11.4h-73.5L994.5,159.8L994.5,159.8z"/>
<path class="st0" d="M1068.3,136.4h-81.2V123h81.2L1068.3,136.4L1068.3,136.4L1068.3,136.4z M988.2,135.4h79.2v-11.3h-79.2V135.4z"
	/>
<path class="st0" d="M1067.6,112h-74.5V98.7h74.5V112z M994.1,111h72.5V99.7h-72.5V111z"/>
<path class="st0" d="M1067.6,87.7h-86.4V74.4h86.4V87.7z M982.2,86.7h84.4V75.4h-84.4V86.7z"/>
<path class="st0" d="M1069.1,185.1h-59v-13.4h59V185.1z M1011.1,184.1h57v-11.3h-57V184.1z"/>
<path class="st0" d="M1069.1,209.5h-75.6v-13.4h75.6V209.5z M994.5,208.5h73.5v-11.3h-73.5L994.5,208.5L994.5,208.5L994.5,208.5z"/>
<path class="st0" d="M1069.1,233.8h-61.2v-13.3h61.2V233.8L1069.1,233.8z M1008.9,232.8h59.2v-11.3h-59.2V232.8z"/>
<path class="st0" d="M1069.1,258.2h-85.6v-13.4h85.6V258.2z M984.4,257.2h83.6v-11.3h-83.6L984.4,257.2L984.4,257.2L984.4,257.2z"/>
<path class="st0" d="M1069.1,282.5h-75.6v-13.3h75.6V282.5L1069.1,282.5z M994.5,281.5h73.5v-11.3h-73.5L994.5,281.5L994.5,281.5
	L994.5,281.5z"/>
<path class="st0" d="M1069.1,306.9h-75.6v-13.4h75.6V306.9z M994.5,305.9h73.5v-11.3h-73.5L994.5,305.9L994.5,305.9L994.5,305.9z"/>
<path class="st0" d="M1069.1,331.2h-59v-13.4h59V331.2z M1011.1,330.2h57v-11.3h-57V330.2L1011.1,330.2z"/>
<path class="st0" d="M1069.1,355.6h-75.6v-13.3h75.6V355.6L1069.1,355.6z M994.5,354.6h73.5v-11.3h-73.5L994.5,354.6L994.5,354.6
	L994.5,354.6z"/>
<path class="st0" d="M1069.1,379.9h-61.2v-13.4h61.2V379.9z M1008.9,378.9h59.2v-11.3h-59.2V378.9L1008.9,378.9z"/>
<path class="st0" d="M1069.1,404.3h-79.9v-13.4h79.9V404.3z M990.2,403.3h77.9V392h-77.9L990.2,403.3L990.2,403.3L990.2,403.3z"/>
<polygon class="st0" points="812,447.5 808.9,447.5 808.9,241.3 837.6,241.3 837.6,227.8 953.5,227.8 953.5,243 965.3,243
	965.3,447.1 962.3,447.1 962.3,246 950.5,246 950.5,230.9 840.6,230.9 840.6,244.3 812,244.3 "/>
<polygon class="st0" points="705.9,448.3 702.8,448.3 703.3,320.1 748.9,320.1 748.9,195.4 831,195.4 831,224.1 827.9,224.1
	827.9,198.5 751.9,198.5 751.9,323.1 706.3,323.1 "/>
<path class="st0" d="M1437.2,154h-88.5v-6.6h88.5V154z M1349.7,153h86.5v-4.6h-86.5V153L1349.7,153z"/>
<path class="st0" d="M1437.2,168.9h-88.5v-6.6h88.5V168.9z M1349.7,167.9h86.5v-4.6h-86.5V167.9z"/>
<path class="st0" d="M1437.2,184.6h-88.5v-6.6h88.5V184.6z M1349.7,183.6h86.5v-4.6h-86.5V183.6z"/>
<path class="st0" d="M1437.2,199.4h-88.5v-6.6h88.5V199.4z M1349.7,198.4h86.5v-4.6h-86.5V198.4z"/>
<path class="st0" d="M1437.2,215.1h-88.5v-6.6h88.5V215.1z M1349.7,214.1h86.5v-4.6h-86.5V214.1z"/>
<path class="st0" d="M1437.2,229.9h-88.5v-6.6h88.5V229.9z M1349.7,228.9h86.5v-4.6h-86.5V228.9z"/>
<path class="st0" d="M1437.2,245.6h-88.5V239h88.5V245.6L1437.2,245.6z M1349.7,244.6h86.5V240h-86.5V244.6L1349.7,244.6z"/>
<path class="st0" d="M1437.2,260.5h-88.5v-6.6h88.5V260.5z M1349.7,259.5h86.5v-4.6h-86.5V259.5z"/>
<path class="st0" d="M1437.2,276.1h-88.5v-6.6h88.5V276.1z M1349.7,275.1h86.5v-4.6h-86.5V275.1z"/>
<path class="st0" d="M1437.2,291h-88.5v-6.6h88.5V291z M1349.7,290h86.5v-4.6h-86.5V290z"/>
<polygon class="st0" points="664,318.8 661,318.8 661,200 716.7,200 716.7,177.5 755.8,177.5 755.8,191.8 752.6,191.9 752.8,180.5
	719.7,180.5 719.7,203.1 664,203.1 "/>
<polygon class="st0" points="660.3,447.9 657.3,447.9 657.3,316.6 691.9,316.6 691.9,342.1 688.8,342.1 688.8,319.6 660.3,319.6 "/>
<polygon class="st0" points="674.6,200 671.5,200 671.5,122.9 749.4,141.7 749.4,179.2 746.4,179.2 746.4,144.1 674.6,126.8 "/>
<path class="st0" d="M701.2,133.3l-15.4-3.9l5.8-69.4L701.2,133.3z M689,127.1l8.6,2.2l-5.4-41L689,127.1z"/>
<path class="st0" d="M720.2,150.9h-47.6v-4h47.6L720.2,150.9L720.2,150.9L720.2,150.9z M673.6,149.9h45.6v-2h-45.6L673.6,149.9
	L673.6,149.9L673.6,149.9z"/>
<path class="st0" d="M720.2,159.9h-47.6v-4h47.6L720.2,159.9L720.2,159.9L720.2,159.9z M673.6,158.9h45.6v-2h-45.6L673.6,158.9
	L673.6,158.9L673.6,158.9z"/>
<path class="st0" d="M720.2,169h-47.6v-4h47.6L720.2,169L720.2,169L720.2,169z M673.6,168h45.6v-2h-45.6L673.6,168L673.6,168
	L673.6,168z"/>
<path class="st0" d="M709.7,212.6H662v-4h47.6L709.7,212.6L709.7,212.6L709.7,212.6z M663,211.6h45.6v-2H663L663,211.6L663,211.6
	L663,211.6z"/>
<path class="st0" d="M709.7,221.6H662v-4h47.6L709.7,221.6L709.7,221.6L709.7,221.6z M663,220.6h45.6v-2H663L663,220.6L663,220.6
	L663,220.6z"/>
<path class="st0" d="M709.7,230.6H662v-4h47.6L709.7,230.6L709.7,230.6L709.7,230.6z M663,229.6h45.6v-2H663L663,229.6L663,229.6
	L663,229.6z"/>
<path class="st0" d="M709.7,238.1H662v-4h47.6L709.7,238.1L709.7,238.1L709.7,238.1z M663,237.1h45.6v-2H663L663,237.1L663,237.1
	L663,237.1z"/>
<path class="st0" d="M709.7,247.2H662v-4h47.6L709.7,247.2L709.7,247.2L709.7,247.2z M663,246.2h45.6v-2H663L663,246.2L663,246.2
	L663,246.2z"/>
<path class="st0" d="M709.7,256.2H662v-4h47.6L709.7,256.2L709.7,256.2L709.7,256.2z M663,255.2h45.6v-2H663L663,255.2L663,255.2
	L663,255.2z"/>
<path class="st0" d="M709.7,265.2H662v-4h47.6L709.7,265.2L709.7,265.2L709.7,265.2z M663,264.2h45.6v-2H663L663,264.2L663,264.2
	L663,264.2z"/>
<path class="st0" d="M693.1,275.7H662v-4h31.1L693.1,275.7L693.1,275.7L693.1,275.7z M663,274.7h29.1v-2H663L663,274.7L663,274.7
	L663,274.7z"/>
<path class="st0" d="M693.1,286.3H662v-4h31.1L693.1,286.3L693.1,286.3L693.1,286.3z M663,285.3h29.1v-2H663L663,285.3L663,285.3
	L663,285.3z"/>
<path class="st0" d="M693.1,296.8H662v-4h31.1L693.1,296.8L693.1,296.8L693.1,296.8z M663,295.8h29.1v-2H663L663,295.8L663,295.8
	L663,295.8z"/>
<path class="st0" d="M693.1,307.3H662v-4h31.1L693.1,307.3L693.1,307.3L693.1,307.3z M663,306.3h29.1v-2H663L663,306.3L663,306.3
	L663,306.3z"/>
<polygon class="st0" points="1451.7,294.4 1448.9,294.4 1449.3,136.1 1343.6,136.1 1343.4,164.4 1340.8,164.6 1340.6,133.6
	1452.3,133.6 "/>
<polygon class="st0" points="1548,446.5 1545,446.5 1545,305.1 1399.1,305.1 1398.7,382.3 1395.9,382.3 1396.1,301.1 1548,301.1 "/>
<rect x="1526.4" y="311.1" class="st0" width="3" height="136"/>
<polygon class="st0" points="1418.4,384.3 1415.5,384.4 1415.4,310.9 1418.4,310.9 "/>
<polygon class="st0" points="1635.6,319.8 1632.9,319.8 1632.8,109 1524.5,109 1524.8,293.1 1521.3,293.1 1521.5,106.5
	1635.9,106.5 "/>
<rect x="1561.3" y="108" class="st0" width="3" height="339.1"/>
<path class="st0" d="M1564.4,146.4h-31.3v-10.5h31.3V146.4z M1536.1,143.4h25.3V139h-25.3V143.4L1536.1,143.4z"/>
<polygon class="st0" points="574.6,447.1 571.6,447.1 571.6,273.6 655,273.6 655,276.6 574.6,276.6 "/>
<path class="st0" d="M539.6,447.5h-56V126.7h56V447.5L539.6,447.5z M486.7,444.5h49.9V129.7h-49.9L486.7,444.5L486.7,444.5z"/>
<polygon class="st0" points="520.1,128.8 515.2,67.5 511.4,128.4 508.4,128.2 513.5,45.9 516.5,45.8 523.1,128.5 "/>
<polygon class="st0" points="552.6,447.8 549.6,448.1 549.7,128.9 608.1,128.9 608.1,269.2 605.1,269.2 605.1,131.9 552.7,131.9 "/>
<rect x="492.6" y="271.3" class="st0" width="36.4" height="8.3"/>
<path class="st0" d="M1751,448.4h-141.8v-124H1751V448.4z M1612.2,445.8H1748v-119l-135.8,0.3L1612.2,445.8L1612.2,445.8
	L1612.2,445.8z"/>
<polygon class="st0" points="410.6,447.4 408,447.1 407.6,345.3 441.2,345.3 441.2,287 477.1,287 477.1,290 444.2,290 444.2,348.3
	410.6,348.3 "/>
<path class="st0" d="M772.1,249.2h-10.9v-18.4h10.9L772.1,249.2L772.1,249.2L772.1,249.2z M762.2,248.2h8.9v-16.4h-8.9V248.2z"/>
<polygon class="st0" points="761.7,231.3 771.6,248.7 762,248.7 "/>
<path class="st0" d="M772.1,274.8h-10.9v-18.4h10.9L772.1,274.8L772.1,274.8L772.1,274.8z M762.2,273.8h8.9v-16.4h-8.9V273.8z"/>
<polygon class="st0" points="761.7,256.9 771.6,274.3 762,274.3 "/>
<path class="st0" d="M772.1,300.4h-10.9V282h10.9L772.1,300.4L772.1,300.4L772.1,300.4z M762.2,299.4h8.9V283h-8.9V299.4
	L762.2,299.4z"/>
<polygon class="st0" points="761.7,282.5 771.6,299.9 762,299.9 "/>
<path class="st0" d="M724.4,352.5h-10.9v-18.4h10.9V352.5z M714.5,351.5h8.9v-16.4h-8.9V351.5L714.5,351.5z"/>
<polygon class="st0" points="714,334.6 723.9,352 714.3,352 "/>
<path class="st0" d="M724.4,378.1h-10.9v-18.4h10.9V378.1z M714.5,377.1h8.9v-16.4h-8.9V377.1z"/>
<polygon class="st0" points="714,360.3 723.9,377.6 714.3,377.6 "/>
<path class="st0" d="M724.4,402.9h-10.9v-18.4h10.9V402.9L724.4,402.9z M714.5,401.9h8.9v-16.4h-8.9V401.9z"/>
<polygon class="st0" points="714,385 723.9,402.4 714.3,402.4 "/>
<path class="st0" d="M500,151.8h-7.2V140h7.2V151.8L500,151.8z M493.8,150.8h5.2V141h-5.1L493.8,150.8L493.8,150.8L493.8,150.8z"/>
<polygon class="st0" points="493.4,140.5 499.5,151.3 493.5,151.3 "/>
<path class="st0" d="M500,167.7h-7.2v-11.8h7.2V167.7z M493.8,166.7h5.2v-9.8h-5.1L493.8,166.7L493.8,166.7L493.8,166.7z"/>
<polygon class="st0" points="493.4,156.4 499.5,167.2 493.5,167.2 "/>
<path class="st0" d="M500,184.5h-7.2v-11.8h7.2V184.5z M493.8,183.5h5.2v-9.8h-5.1L493.8,183.5L493.8,183.5L493.8,183.5z"/>
<polygon class="st0" points="493.4,173.2 499.5,184 493.5,184 "/>
<path class="st0" d="M500,228.6h-7.2v-11.8h7.2V228.6L500,228.6z M493.8,227.6h5.2v-9.8h-5.1L493.8,227.6L493.8,227.6L493.8,227.6z"
	/>
<polygon class="st0" points="493.4,217.3 499.5,228.1 493.5,228.1 "/>
<path class="st0" d="M500,212.8h-7.2v-11.8h7.2V212.8z M493.8,211.8h5.2v-9.8h-5.1L493.8,211.8L493.8,211.8L493.8,211.8z"/>
<polygon class="st0" points="493.4,201.4 499.5,212.3 493.5,212.3 "/>
<path class="st0" d="M500,244.5h-7.2v-11.8h7.2V244.5L500,244.5z M493.8,243.5h5.2v-9.8h-5.1L493.8,243.5L493.8,243.5L493.8,243.5z"
	/>
<polygon class="st0" points="493.4,233.2 499.5,244 493.5,244 "/>
<path class="st0" d="M500,260.4h-7.2v-11.8h7.2V260.4z M493.8,259.4h5.2v-9.8h-5.1L493.8,259.4L493.8,259.4L493.8,259.4z"/>
<polygon class="st0" points="493.4,249.1 499.5,259.9 493.5,259.9 "/>
<path class="st0" d="M1349.6,147.6l87.4,6.2h-87.4C1349.6,153.8,1349.9,147.3,1349.6,147.6"/>
<path class="st0" d="M1629.4,145.3h-60.8v-8.7h60.8V145.3z M1569.4,144h59.4v-6h-59.4V144z"/>
<path class="st0" d="M1569.3,137l60,8.1h-60C1569.3,145.1,1569.5,136.6,1569.3,137"/>
<path class="st0" d="M1631,166.3h-60.8v-8.7h60.8V166.3L1631,166.3z M1570.9,165h59.4v-6h-59.4V165z"/>
<path class="st0" d="M1570.8,158l60,8.1h-60C1570.8,166.1,1571,157.6,1570.8,158"/>
<path class="st0" d="M1631,187.3h-60.8v-8.7h60.8V187.3L1631,187.3z M1570.9,186h59.4v-6h-59.4V186z"/>
<path class="st0" d="M1570.8,179l60,8.1h-60C1570.8,187.1,1571,178.6,1570.8,179"/>
<path class="st0" d="M1631,208.3h-60.8v-8.7h60.8V208.3L1631,208.3z M1570.9,207h59.4v-6h-59.4V207z"/>
<path class="st0" d="M1570.8,200l60,8.1h-60C1570.8,208.1,1571,199.6,1570.8,200"/>
<path class="st0" d="M1631,229.3h-60.8v-8.7h60.8V229.3L1631,229.3z M1570.9,228h59.4v-6h-59.4V228z"/>
<path class="st0" d="M1570.8,221l60,8.1h-60C1570.8,229.1,1571,220.6,1570.8,221"/>
<path class="st0" d="M1631,250.4h-60.8v-8.7h60.8V250.4z M1570.9,249.1h59.4v-6h-59.4V249.1z"/>
<path class="st0" d="M1570.8,242l60,8.1h-60C1570.8,250.1,1571,241.6,1570.8,242"/>
<path class="st0" d="M1631,271.4h-60.8v-8.7h60.8V271.4z M1570.9,270.1h59.4v-6h-59.4V270.1z"/>
<path class="st0" d="M1570.8,263l60,8.1h-60C1570.8,271.1,1571,262.6,1570.8,263"/>
<path class="st0" d="M1631,292.4h-60.8v-8.7h60.8V292.4z M1570.9,291.1h59.4v-6h-59.4V291.1z"/>
<path class="st0" d="M1570.8,284l60,8.1h-60C1570.8,292.1,1571,283.6,1570.8,284"/>
<path class="st0" d="M1631,313.4h-60.8v-8.7h60.8V313.4z M1570.9,312.1h59.4v-6h-59.4V312.1z"/>
<path class="st0" d="M1570.8,305l60,8.1h-60C1570.8,313.1,1571,304.6,1570.8,305"/>
<path class="st0" d="M1349.6,168c0,0,0.3-5.6,0-5.3l87.4,5.3"/>
<path class="st0" d="M1349.6,183.9c0,0,0.3-5.6,0-5.3l87.4,5.3"/>
<path class="st0" d="M1349.6,198.9c0,0,0.3-5.6,0-5.3l87.4,5.3"/>
<path class="st0" d="M1349.6,214.8c0,0,0.3-5.6,0-5.3l87.4,5.3"/>
<path class="st0" d="M1349.6,229.8c0,0,0.3-5.6,0-5.3l87.4,5.3"/>
<path class="st0" d="M1349.6,245.7c0,0,0.3-5.6,0-5.3l87.4,5.3"/>
<path class="st0" d="M1349.6,259.8c0,0,0.3-5.6,0-5.3l87.4,5.3"/>
<path class="st0" d="M1349.6,275.7c0,0,0.3-5.6,0-5.3l87.4,5.3"/>
<path class="st0" d="M1349.6,289.8c0,0,0.3-5.6,0-5.3l87.4,5.3"/>
<path class="st0" d="M1534.2,137.1l28.3,7.1h-28.3C1534.2,144.1,1533.8,136.7,1534.2,137.1"/>
<path class="st0" d="M1564.4,167.4h-31.3v-10.5h31.3V167.4z M1536.1,164.4h25.3V160h-25.3V164.4L1536.1,164.4z"/>
<path class="st0" d="M1534.2,158.1l28.3,7.1h-28.3C1534.2,165.1,1533.8,157.7,1534.2,158.1"/>
<path class="st0" d="M1564.4,188.4h-31.3v-10.5h31.3V188.4z M1536.1,185.4h25.3V181h-25.3V185.4L1536.1,185.4z"/>
<path class="st0" d="M1534.2,179.1l28.3,7.1h-28.3C1534.2,186.1,1533.8,178.7,1534.2,179.1"/>
<path class="st0" d="M1564.4,209.4h-31.3v-10.5h31.3V209.4z M1536.1,206.4h25.3V202h-25.3V206.4L1536.1,206.4z"/>
<path class="st0" d="M1534.2,200.1l28.3,7.1h-28.3C1534.2,207.1,1533.8,199.7,1534.2,200.1"/>
<path class="st0" d="M1564.4,230.4h-31.3v-10.5h31.3V230.4z M1536.1,227.4h25.3V223h-25.3V227.4L1536.1,227.4z"/>
<path class="st0" d="M1534.2,221.1l28.3,7.1h-28.3C1534.2,228.1,1533.8,220.7,1534.2,221.1"/>
<path class="st0" d="M1564.4,251.4h-31.3v-10.5h31.3V251.4z M1536.1,248.4h25.3V244h-25.3V248.4L1536.1,248.4z"/>
<path class="st0" d="M1534.2,242.1l28.3,7.1h-28.3C1534.2,249.1,1533.8,241.7,1534.2,242.1"/>
<path class="st0" d="M1564.4,272.4h-31.3v-10.5h31.3V272.4z M1536.1,269.4h25.3V265h-25.3V269.4L1536.1,269.4z"/>
<path class="st0" d="M1534.2,263.1l28.3,7.1h-28.3C1534.2,270.1,1533.8,262.7,1534.2,263.1"/>
<path class="st0" d="M1564.4,293.4h-31.3v-10.5h31.3V293.4z M1536.1,290.4h25.3V286h-25.3V290.4L1536.1,290.4z"/>
<path class="st0" d="M1534.2,284.1l28.3,7.1h-28.3C1534.2,291.1,1533.8,283.8,1534.2,284.1"/>
<polygon class="st0" points="1161.2,520.2 1160.7,518.6 1161.3,518.5 1160.9,518.1 1220.8,443.8 1222,444.7 "/>
<polygon class="st0" points="1148.1,448 1151.4,446.5 1066,446.5 1062,448 "/>
<polygon class="st0" points="783.7,448.1 790,446.6 646.5,446.6 639.8,448.1 "/>
<polygon class="st0" points="1053.5,448 1057.5,446.5 982.6,446.5 976.8,448 "/>
<polygon class="st0" points="965.1,448 971,446.5 799.4,446.6 793.1,448.1 "/>
<polygon class="st0" points="388.3,446.7 388.3,448.2 625.4,448.1 632.1,446.6 "/>
<polygon class="st0" points="1155.4,448 1409.9,447.9 1408.3,446.4 1156,446.5 1156,447.7 "/>
<polygon class="st0" points="1789.2,447.8 1789.2,446.3 1483.2,446.4 1488.2,447.9 "/>
<polygon class="st0" points="1478.7,447.9 1473.8,446.4 1413.3,446.4 1414.9,447.9 "/>
<polygon class="st0" points="318.9,520.5 312.1,522.1 474.9,521.7 481.3,520.2 "/>
<polygon class="st0" points="55.1,521.1 51,522.6 297.1,522.1 303.9,520.6 "/>
<polygon class="st0" points="873.3,519.3 869.3,520.8 989.7,520.5 993,519 "/>
<polygon class="st0" points="493.9,520.1 487.5,521.7 682.2,521.2 688.1,519.7 "/>
<polygon class="st0" points="700.2,519.7 694.3,521.2 860.7,520.8 864.8,519.3 "/>
<polygon class="st0" points="1906.6,518.4 1906.6,516.9 1715.7,517.3 1720.9,518.8 "/>
<polygon class="st0" points="1317.2,444.2 1315.7,444.2 1317,518.3 1318.5,518.3 "/>
<polygon class="st0" points="999.2,519 995.9,520.5 1317,519.8 1317,518.3 "/>
<polygon class="st0" points="1486.3,519.4 1484.7,517.9 1318.5,518.3 1318.5,519.8 "/>
<polygon class="st0" points="1318.5,518.3 1317,518.3 1317,519.8 1318.5,519.8 "/>
<polygon class="st0" points="1489.1,517.9 1490.6,519.3 1490.6,519.4 1708.2,518.9 1703.4,517.4 "/>
<polygon class="st0" points="1148.1,448 993,519 999.2,519 1155.4,448 "/>
<polygon class="st0" points="1156,135.6 1249.7,135.6 1249.8,165.1 1252.6,165.1 1252.8,132.5 1152.9,132.5 1152.9,445.8
	1151.4,446.5 1156,446.5 "/>
<polygon class="st0" points="1155.4,448 1156,447.7 1156,446.5 1151.4,446.5 1148.1,448 "/>
<polygon class="st0" points="993,519 989.7,520.5 995.9,520.5 999.2,519 "/>
<polygon class="st0" points="1053.5,448 864.8,519.3 873.3,519.3 1062,448 "/>
<polygon class="st0" points="1062,448 1066,446.5 1057.5,446.5 1053.5,448 "/>
<polygon class="st0" points="864.8,519.3 860.7,520.8 869.3,520.8 873.3,519.3 "/>
<polygon class="st0" points="965.1,448 688.1,519.7 700.2,519.7 976.8,448 "/>
<polygon class="st0" points="976.8,448 982.6,446.5 971,446.5 965.1,448 "/>
<polygon class="st0" points="688.1,519.7 682.2,521.2 694.3,521.2 700.2,519.7 "/>
<polygon class="st0" points="783.7,448.1 481.3,520.2 493.9,520.1 793.1,448.1 "/>
<polygon class="st0" points="793.1,448.1 799.4,446.6 790,446.6 783.7,448.1 "/>
<polygon class="st0" points="481.3,520.2 474.9,521.7 487.5,521.7 493.9,520.1 "/>
<polygon class="st0" points="639.8,448.1 625.4,448.1 303.9,520.6 318.9,520.5 "/>
<polygon class="st0" points="646.5,446.6 632.1,446.6 625.4,448.1 639.8,448.1 "/>
<polygon class="st0" points="303.9,520.6 297.1,522.1 312.1,522.1 318.9,520.5 "/>
<polygon class="st0" points="1409.9,447.9 1484.7,517.9 1489.1,517.9 1414.9,447.9 "/>
<polygon class="st0" points="1414.9,447.9 1413.3,446.4 1408.3,446.4 1409.9,447.9 "/>
<polygon class="st0" points="1489.1,517.9 1484.7,517.9 1486.3,519.4 1490.6,519.4 1490.6,519.3 "/>
<polygon class="st0" points="1703.4,517.4 1715.7,517.3 1707.5,515 1488.2,447.9 1478.7,447.9 "/>
<polygon class="st0" points="1488.2,447.9 1483.2,446.4 1473.8,446.4 1478.7,447.9 "/>
<polygon class="st0" points="1715.7,517.3 1703.4,517.4 1708.2,518.9 1720.9,518.8 "/>
<polygon class="st0" points="11.2,538 -93.1,501.7 -138.1,433.3 -76.5,414.9 -5.8,489.6 55.6,521 52.7,522.5 -7,491.2 -7.1,491.1
	-77.1,417.2 -134.9,434.5 -91.8,500.1 15.9,537.8 "/>
<polygon class="st0" points="388.8,447.5 351,427.7 302.2,430.1 302.1,428.6 351.3,426.1 351.5,426.2 389.5,446.2 "/>
<path class="st0" d="M-94.9,498l-0.2-0.6C-95.2,497.3,15,454,26.8,449.6l-80.1-12.3l0.1-0.5l82,12.6l-0.9,0.3
	C-12.8,464.8-94.7,497.7-94.9,498"/>
<path class="st0" d="M225.8,485.5l-21.3-2.4l-0.1-0.2l-55.4-67.4l-46.7,35.8l-15.7-11.8l62.7-25.5l44-3.1l36-8.9l0.2,1l-36.1,8.9
	l-43.6,3.1l55.2,67.2l20.9,2.3L225.8,485.5z M88.6,439.7l13.7,10.3l44.1-33.8L88.6,439.7z"/>
<polygon class="st0" points="272.7,479.7 193.4,411.7 166.7,436 166.4,435.7 193.4,411 193.6,411.1 273.3,479.7 "/>
<polygon class="st0" points="324.1,473.3 229.7,403.1 211.5,427.1 211.1,426.8 229.6,402.4 229.8,402.6 324.7,473.2 "/>
<polygon class="st0" points="349.5,470.4 301.9,430.3 244.4,414.7 244.8,413.2 302.6,428.9 351,469.4 "/>
<polygon class="st0" points="1826.8,475.3 1824.8,474.6 1873.3,438.7 1874.3,439.8 "/>
<path class="st0" d="M1849.4,485.9l-0.6-1.4l52.8-20.6l16-16l-44.3-7.9l-6.8-15.6l-52.6,42c-0.1,0.5-0.5,0.9-1.1,0.9
	c-0.6-0.2-0.9-0.7-0.8-1.3h0.4l0.1-0.3l0.1-0.2l0.2-0.1l54.2-43.4l7.3,16.7l46.4,8.3l-18.3,18.3l-0.2,0.1L1849.4,485.9z
	 M1812.9,465.8c-0.2,0-0.4,0.1-0.5,0.2h1C1813.3,465.9,1813.2,465.8,1812.9,465.8L1812.9,465.8L1812.9,465.8z"/>
<path class="st0" d="M1789.5,447.4l-0.7-0.2l8.1-34.5l0.2-0.1l97.5-26.6l-45.8,38.5h-0.2l-51.1-11L1789.5,447.4z M1798.8,413
	l49.7,10.7l42.9-36.1L1798.8,413z"/>
<polygon class="st0" points="1812.3,468.6 1810.4,467.8 1848.8,424.4 1849.4,424.9 "/>
<polygon class="st0" points="1957.4,592.5 1877.9,540.1 1796.4,503.2 1788.7,487.3 1790.5,486.4 1797.9,501.7 1878.8,538.4
	1878.9,538.4 1958.6,590.8 "/>
<polygon class="st0" points="114.1,499.3 65.1,433.4 27.4,450.1 27.2,450 -81.3,410.1 -77.1,410.6 -77.1,410.5 51.9,427.3
	51.8,428.3 51.8,428.3 -72.5,412.2 27.4,449 65.4,432.1 114.9,498.7 "/>
<polygon class="st0" points="28.1,449.9 27.5,449.1 71.6,408.7 72.1,408.9 72.2,408.5 123.2,425.2 122.9,426.2 71.9,409.9 "/>
<polygon class="st0" points="1826.3,512.5 1922.3,483.5 1889.7,467.8 1895.3,423.9 1999.7,477.3 2016.8,565 1958.8,590.2
	1957.9,587.8 1957,588.2 1958.3,591.5 2017.9,565.6 2000.6,476.6 1894.5,422.4 1888.6,468.4 1919.6,483.3 1826,511.5 "/>
<polygon class="st0" points="1902.3,505.7 1971.2,513.3 2000.5,477.3 1999.7,476.7 1970.7,512.2 1902.4,504.7 "/>
</svg>
