<svg viewBox="0 0 58.8 44.6" xmlns="http://www.w3.org/2000/svg"><g fill="#fff"><path d="M.68 43.93h43.25V.68H.68zm1.8-1.8V9.69h39.65v32.44zM42.13 2.48v5.41H2.48V2.48z"/><path d="M44.6 44.6H0V0h44.6zM1.35 43.25h41.9V1.35H1.35zm41.45-.45h-41V9h41zM3.16 41.45h38.29V10.37H3.16zM42.8 8.56h-41V1.8h41zM3.16 7.21h38.29v-4H3.16z"/><path d="M28.87 19.34L34.54 25l-5.67 5.68 1.28 1.27L37.09 25l-6.94-6.94z"/><path d="M30.15 32.91l-2.23-2.23L33.58 25l-5.66-5.68 2.23-2.23 7.9 7.91zm-.32-2.23l.32.31 6-6-6-6-.32.31L35.5 25zM14.46 18.06L7.51 25l6.95 6.95 1.27-1.27L10.06 25l5.67-5.66z"/><path d="M14.46 32.91L6.55 25l7.91-7.91 2.23 2.23L11 25l5.67 5.67zm-6-7.9l6 6 .31-.31L9.1 25l5.67-5.68-.31-.32zm8.506 10.47l8.103-19.828 1.667.681-8.104 19.828z"/><path d="M19 37l-2.92-1.19 8.62-21.04L27.62 16zm-1.15-1.93l.41.17 7.59-18.57-.41-.17z"/></g></svg>