<svg viewBox="0 0 45.88 31.61" xmlns="http://www.w3.org/2000/svg"><g fill="#fff"><path d="M19.32 18.34l-6.64-3v-.73l6.66-3.1V13l-4.58 2 4.56 2zm.86 1.73l4.08-10.71h1.38l-4.1 10.71zm6.17-1.75v-1.47l4.56-1.91-4.52-2v-1.47L33 14.62v.79z"/><path d="M44.67 26.08h-1.13V3.24A2.75 2.75 0 0 0 40.79.49H5.09a2.75 2.75 0 0 0-2.75 2.75v22.84H1.21a.72.72 0 0 0-.72.72v2a2.33 2.33 0 0 0 2.34 2.33h40.22a2.33 2.33 0 0 0 2.34-2.33v-2a.72.72 0 0 0-.72-.72zM3.78 3.24a1.31 1.31 0 0 1 1.31-1.3h35.7a1.31 1.31 0 0 1 1.31 1.3v22.84H3.78zm40.16 25.54a.89.89 0 0 1-.89.89H2.83a.89.89 0 0 1-.89-.89v-1.26h42z"/><path d="M43.05 31.61H2.83A2.83 2.83 0 0 1 0 28.78v-2a1.21 1.21 0 0 1 1.21-1.21h.64V3.24A3.24 3.24 0 0 1 5.09 0h35.7A3.24 3.24 0 0 1 44 3.24v22.35h.64a1.21 1.21 0 0 1 1.21 1.21v2a2.83 2.83 0 0 1-2.8 2.81zm-41.84-5a.22.22 0 0 0-.21.19v2a1.84 1.84 0 0 0 1.84 1.84h40.21a1.84 1.84 0 0 0 1.84-1.84v-2a.22.22 0 0 0-.22-.23H43V3.24A2.25 2.25 0 0 0 40.79 1H5.09a2.25 2.25 0 0 0-2.25 2.24v23.33zm41.84 3.59H2.83a1.38 1.38 0 0 1-1.39-1.38V27h43v1.75a1.38 1.38 0 0 1-1.39 1.41zM2.43 28v.77a.4.4 0 0 0 .4.4h40.22a.4.4 0 0 0 .4-.4V28zm40.16-1.44H3.29V3.24a1.81 1.81 0 0 1 1.8-1.8h35.7a1.81 1.81 0 0 1 1.8 1.8zm-38.31-1H41.6V3.24a.81.81 0 0 0-.81-.81H5.09a.81.81 0 0 0-.81.81z"/></g></svg>