<svg viewBox="0 0 42.1 51.21" xmlns="http://www.w3.org/2000/svg"><g fill="#fff"><path d="M38.45 24.57a1.4 1.4 0 0 0-1.35-.49l-2.69.53c-.35-.29-.71-.57-1.08-.82l-.25-2.72a1.42 1.42 0 0 0-.85-1.16 16.78 16.78 0 0 0-4.81-1.23 1.41 1.41 0 0 0-1.3.62l-1.52 2.26a12.56 12.56 0 0 0-1.35.2L21.15 20a1.41 1.41 0 0 0-1.42-.22 14.75 14.75 0 0 0-4.27 2.53 1.41 1.41 0 0 0-.46 1.37l.53 2.68a10.7 10.7 0 0 0-.82 1.09L12 27.7a1.39 1.39 0 0 0-1.16.84 16.3 16.3 0 0 0-1.23 4.81 1.38 1.38 0 0 0 .61 1.3l2.27 1.53a12.76 12.76 0 0 0 .2 1.34l-1.79 2.11a1.38 1.38 0 0 0-.22 1.42 15 15 0 0 0 2.53 4.26 1.38 1.38 0 0 0 1.35.49l2.69-.52q.53.44 1.08.81l.25 2.72a1.4 1.4 0 0 0 .85 1.19 16.08 16.08 0 0 0 4.81 1.23 1.4 1.4 0 0 0 1.3-.61l1.52-2.27a12.56 12.56 0 0 0 1.35-.2l2.1 1.75a1.41 1.41 0 0 0 1.42.23A16.74 16.74 0 0 0 34.17 49a15.79 15.79 0 0 0 2-1.45 1.4 1.4 0 0 0 .49-1.35l-.53-2.68a13.5 13.5 0 0 0 .87-1.08l2.72-.25a1.4 1.4 0 0 0 1.16-.85 16.3 16.3 0 0 0 1.23-4.81 1.42 1.42 0 0 0-.61-1.3l-2.27-1.52a12.56 12.56 0 0 0-.2-1.35l1.75-2.1a1.38 1.38 0 0 0 .22-1.42 15.1 15.1 0 0 0-1.09-2.24 16.06 16.06 0 0 0-1.44-2zm-.39 4.56l-1.64 2a1.4 1.4 0 0 0-.29 1.24 10.65 10.65 0 0 1 .33 2.2 1.38 1.38 0 0 0 .61 1.11l2.12 1.42a13.3 13.3 0 0 1-.61 2.41l-2.58.2a1.39 1.39 0 0 0-1.08.68 10.64 10.64 0 0 1-1.33 1.77 1.39 1.39 0 0 0-.35 1.23l.49 2.52a11.62 11.62 0 0 1-2.12 1.26l-2-1.64a1.38 1.38 0 0 0-1.24-.28 11.34 11.34 0 0 1-2.2.32 1.36 1.36 0 0 0-1.11.62l-1.36 2.12a13.22 13.22 0 0 1-2.4-.62l-.24-2.54a1.39 1.39 0 0 0-.68-1.08 10 10 0 0 1-1.77-1.33 1.39 1.39 0 0 0-1.23-.35l-2.51.5a12.35 12.35 0 0 1-.69-1c-.2-.34-.39-.7-.58-1.1l1.64-2a1.42 1.42 0 0 0 .29-1.24 10.45 10.45 0 0 1-.33-2.2 1.39 1.39 0 0 0-.61-1.11l-2.12-1.42a13.2 13.2 0 0 1 .61-2.4l2.54-.24a1.38 1.38 0 0 0 1.08-.67 11.14 11.14 0 0 1 1.3-1.79 1.37 1.37 0 0 0 .35-1.22l-.46-2.5A11.06 11.06 0 0 1 20 22.72l2 1.64a1.41 1.41 0 0 0 1.24.28 10 10 0 0 1 2.2-.32 1.41 1.41 0 0 0 1.11-.62L28 21.58a13.2 13.2 0 0 1 2.4.61l.24 2.54a1.39 1.39 0 0 0 .68 1.08 10.18 10.18 0 0 1 1.77 1.34 1.42 1.42 0 0 0 1.23.34l2.47-.49a9.74 9.74 0 0 1 .69 1c.2.34.39.7.58 1.1z"/><path d="M22.35 29.08a6.49 6.49 0 1 0 8.89 2.27 6.49 6.49 0 0 0-8.89-2.27zm5.19 8.75a3.69 3.69 0 1 1 1.29-5 3.69 3.69 0 0 1-1.29 5zM22.19 4.61a1.09 1.09 0 0 0-1-.38l-2 .41a9.55 9.55 0 0 0-.92-.64l-.19-2.08a1.1 1.1 0 0 0-.65-.92 12.37 12.37 0 0 0-3.68-.89 1.07 1.07 0 0 0-1 .46l-1.16 1.74a9.47 9.47 0 0 0-1 .15L9 1.12A1.08 1.08 0 0 0 7.87 1a11.22 11.22 0 0 0-3.26 1.89 1.08 1.08 0 0 0-.38 1L4.64 6a9.55 9.55 0 0 0-.64.8L1.93 7a1.07 1.07 0 0 0-.93.64 12.6 12.6 0 0 0-.93 3.68 1.09 1.09 0 0 0 .46 1l1.74 1.16a9.13 9.13 0 0 0 .15 1l-1.3 1.64A1.06 1.06 0 0 0 1 17.2a12.58 12.58 0 0 0 .83 1.72 13.9 13.9 0 0 0 1.11 1.55 1.07 1.07 0 0 0 1 .37l2.06-.4a10.1 10.1 0 0 0 .84.62L7 23.14a1.05 1.05 0 0 0 .65.89 12.56 12.56 0 0 0 3.67.94 1.08 1.08 0 0 0 1-.47l1.16-1.73c.34 0 .69-.09 1-.15L16.12 24a1.06 1.06 0 0 0 1.08.17 12.55 12.55 0 0 0 1.72-.83 12.27 12.27 0 0 0 1.55-1.11 1.06 1.06 0 0 0 .37-1l-.4-2c.22-.27.43-.55.62-.83l2.08-.19a1.07 1.07 0 0 0 .89-.65 12.62 12.62 0 0 0 .97-3.81 1.06 1.06 0 0 0-.47-1l-1.73-1.17c0-.34-.09-.68-.15-1L24 9a1.06 1.06 0 0 0 .17-1.09 12.42 12.42 0 0 0-.83-1.71 12.13 12.13 0 0 0-1.1-1.55zm-.3 3.48L20.63 9.6a1 1 0 0 0-.21 1 8.2 8.2 0 0 1 .24 1.68 1.08 1.08 0 0 0 .47.85l1.63 1.09a10.46 10.46 0 0 1-.47 1.78l-1.95.18a1.09 1.09 0 0 0-.82.52 8.18 8.18 0 0 1-1 1.36 1.07 1.07 0 0 0-.27.93l.38 1.93a8.31 8.31 0 0 1-1.63 1l-1.51-1.25a1.07 1.07 0 0 0-.94-.22 7.67 7.67 0 0 1-1.69.25 1.09 1.09 0 0 0-.85.47l-1.08 1.62a10.54 10.54 0 0 1-1.84-.46l-.18-1.95a1 1 0 0 0-.52-.82A8.62 8.62 0 0 1 7 18.5a1.06 1.06 0 0 0-.93-.27l-1.93.38a8.22 8.22 0 0 1-.52-.79 7.33 7.33 0 0 1-.43-.82l1.25-1.51a1.07 1.07 0 0 0 .22-.94 8.32 8.32 0 0 1-.25-1.69 1.09 1.09 0 0 0-.47-.86l-1.62-1.09a10.57 10.57 0 0 1 .47-1.84l1.94-.18a1 1 0 0 0 .82-.52A8.69 8.69 0 0 1 6.58 7a1.05 1.05 0 0 0 .26-.93l-.38-1.92a8.84 8.84 0 0 1 1.63-1L9.6 4.44a1.09 1.09 0 0 0 1 .22 8.22 8.22 0 0 1 1.68-.25 1.08 1.08 0 0 0 .85-.47l1.09-1.62a10.46 10.46 0 0 1 1.78.47l.18 1.94a1.07 1.07 0 0 0 .52.82 8.25 8.25 0 0 1 1.36 1 1.06 1.06 0 0 0 .93.26l1.93-.38c.2.27.37.53.53.79s.29.53.44.84z"/><path d="M11.43 25.07h-.12a12.68 12.68 0 0 1-3.7-.95 1.17 1.17 0 0 1-.71-1l-.19-2a8.47 8.47 0 0 1-.71-.58l-2 .4a1.19 1.19 0 0 1-1.13-.41A12 12 0 0 1 1.7 19a12.71 12.71 0 0 1-.84-1.73A1.19 1.19 0 0 1 1 16.05l1.31-1.57c-.06-.32-.11-.64-.14-.94L.52 12.4A1.15 1.15 0 0 1 0 11.31a12.44 12.44 0 0 1 1-3.7 1.17 1.17 0 0 1 1-.71l2-.19A8.36 8.36 0 0 1 4.53 6l-.39-2a1.16 1.16 0 0 1 .4-1.13A11.41 11.41 0 0 1 7.83.86 1.19 1.19 0 0 1 9 1l1.57 1.31c.32-.06.63-.11.95-.14L12.67.52A1.15 1.15 0 0 1 13.76 0a12.58 12.58 0 0 1 3.71 1 1.17 1.17 0 0 1 .71 1l.18 2a9 9 0 0 1 .77.57l2-.39a1.15 1.15 0 0 1 1.13.4 12.53 12.53 0 0 1 1.12 1.57 13.17 13.17 0 0 1 .84 1.72A1.17 1.17 0 0 1 24 9l-1.31 1.57c.06.31.11.63.14.95l1.7 1.13a1.2 1.2 0 0 1 .51 1.09 12.91 12.91 0 0 1-.95 3.71 1.17 1.17 0 0 1-1 .71l-2 .18a8.61 8.61 0 0 1-.58.77l.4 2a1.16 1.16 0 0 1-.41 1.13 12.77 12.77 0 0 1-1.5 1.14 12.7 12.7 0 0 1-1.73.83 1.15 1.15 0 0 1-1.22-.21l-1.57-1.31c-.31.06-.63.11-.94.14l-1.14 1.7a1.17 1.17 0 0 1-.97.54zM6 20.33a9.79 9.79 0 0 0 .82.62l.2 2.12a1 1 0 0 0 .58.81 12.73 12.73 0 0 0 3.65.93 1 1 0 0 0 .9-.43l1.19-1.77h.05c.34 0 .68-.09 1-.15l1.64 1.37a1 1 0 0 0 1 .15 12.25 12.25 0 0 0 1.7-.83 12.17 12.17 0 0 0 1.53-1.09 1 1 0 0 0 .34-.94l-.41-2.1a8.39 8.39 0 0 0 .62-.82l2.32-.2a1 1 0 0 0 .81-.59 12.49 12.49 0 0 0 .93-3.65 1 1 0 0 0-.42-.9l-1.78-1.19v-.07a9 9 0 0 0-.15-1l1.37-1.65a1 1 0 0 0 .15-1 12.26 12.26 0 0 0-.83-1.7 11 11 0 0 0-1.09-1.54 1 1 0 0 0-.94-.34l-2.1.41c-.26-.21-.54-.42-.83-.62L18 1.94a1 1 0 0 0-.59-.8 12.18 12.18 0 0 0-3.67-.93 1 1 0 0 0-.9.42L11.65 2.4h-.05a9 9 0 0 0-1 .15L8.89 1.2a1 1 0 0 0-1-.16A11.09 11.09 0 0 0 4.67 3a1 1 0 0 0-.34.93L4.74 6c-.22.26-.42.54-.62.82l-2.13.2a.94.94 0 0 0-.8.58 12.51 12.51 0 0 0-.99 3.73 1 1 0 0 0 .43.9l1.77 1.19v.05a9.67 9.67 0 0 0 .15 1L1.2 16.18a1 1 0 0 0-.16 1 13.49 13.49 0 0 0 .83 1.7A13.82 13.82 0 0 0 3 20.4a1 1 0 0 0 .94.34zm5 2.53h-.06A10.67 10.67 0 0 1 9 22.38h-.06l-.19-2a1 1 0 0 0-.47-.75 7.8 7.8 0 0 1-1.37-1 1 1 0 0 0-.85-.24l-2 .39c-.2-.28-.38-.54-.53-.8A8.16 8.16 0 0 1 3.1 17v-.06l1.26-1.51a1 1 0 0 0 .19-.86 8.41 8.41 0 0 1-.25-1.7 1 1 0 0 0-.43-.77L2.21 11v-.06A10.23 10.23 0 0 1 2.69 9v-.06l2-.19a1 1 0 0 0 .75-.47A7.8 7.8 0 0 1 6.5 7a1 1 0 0 0 .24-.85l-.39-2h.06a8.64 8.64 0 0 1 1.64-1h.06l1.55 1.3a1 1 0 0 0 .86.19 8.61 8.61 0 0 1 1.71-.25 1 1 0 0 0 .77-.51l1.12-1.67h.06a11.27 11.27 0 0 1 1.82.48h.06l.18 2a1 1 0 0 0 .47.75 7.86 7.86 0 0 1 1.38 1 1 1 0 0 0 .85.24l2-.39v.05c.2.28.38.54.53.8a9.56 9.56 0 0 1 .45.85v.06l-1.21 1.61a1 1 0 0 0-.2.86 7.94 7.94 0 0 1 .25 1.7 1 1 0 0 0 .43.78l1.67 1.12v.06a10.56 10.56 0 0 1-.48 1.82v.06l-2 .18a1 1 0 0 0-.74.47 8.91 8.91 0 0 1-1 1.38 1 1 0 0 0-.24.84l.39 2A8.52 8.52 0 0 1 17 22l-1.56-1.29a1 1 0 0 0-.86-.2 7.85 7.85 0 0 1-1.7.25 1 1 0 0 0-.77.43zm-1.79-.65a11.48 11.48 0 0 0 1.7.44l1.05-1.57a1.18 1.18 0 0 1 .93-.52 8.11 8.11 0 0 0 1.66-.24 1.18 1.18 0 0 1 1 .23L17 21.77a9.41 9.41 0 0 0 1.5-.89L18.13 19a1.19 1.19 0 0 1 .29-1 7 7 0 0 0 1-1.34 1.22 1.22 0 0 1 .9-.57l1.88-.17a10.88 10.88 0 0 0 .44-1.7l-1.57-1.05a1.19 1.19 0 0 1-.52-.93 8.11 8.11 0 0 0-.24-1.66 1.16 1.16 0 0 1 .23-1l1.22-1.46a9.11 9.11 0 0 0-.89-1.51L19 6.94a1.2 1.2 0 0 1-1-.29 8 8 0 0 0-1.34-1 1.2 1.2 0 0 1-.57-.9l-.17-1.88a10.48 10.48 0 0 0-1.69-.43L13.16 4a1.12 1.12 0 0 1-.93.52 7.5 7.5 0 0 0-1.66.25 1.16 1.16 0 0 1-1-.24L8.08 3.31a7.51 7.51 0 0 0-1.5.89l.36 1.86a1.18 1.18 0 0 1-.29 1 8.88 8.88 0 0 0-1 1.34 1.15 1.15 0 0 1-.9.57l-1.88.17a10.85 10.85 0 0 0-.43 1.7L4 11.91a1.19 1.19 0 0 1 .51.93 7.5 7.5 0 0 0 .25 1.66 1.19 1.19 0 0 1-.24 1L3.31 17a7.86 7.86 0 0 0 .4.77 7.17 7.17 0 0 0 .49.73l1.86-.37a1.19 1.19 0 0 1 1 .29 7.72 7.72 0 0 0 1.34 1 1.17 1.17 0 0 1 .57.9z"/><path d="M9.88 8.05a5 5 0 1 0 6.8 1.74 5 5 0 0 0-6.8-1.74zm4 6.69a2.82 2.82 0 1 1 1-3.86 2.83 2.83 0 0 1-1 3.86z"/><path d="M12.42 17.38a5.06 5.06 0 0 1-4.91-6.31A5 5 0 0 1 9.83 8 5.06 5.06 0 0 1 15 16.67a5 5 0 0 1-2.58.71zm0-9.92a4.86 4.86 0 1 0 2.49 9 4.86 4.86 0 0 0-2.49-9zm0 7.78a3 3 0 0 1-.73-.09 2.92 2.92 0 0 1-.77-5.34 2.9 2.9 0 0 1 2.21-.32 2.93 2.93 0 0 1 1.79 1.34 2.94 2.94 0 0 1-1 4 2.92 2.92 0 0 1-1.5.41zm0-5.64A2.73 2.73 0 0 0 11 10a2.74 2.74 0 1 0 2.06-.29 2.59 2.59 0 0 0-.66-.11z"/></g></svg>