<svg id="Warstwa_1" data-name="Warstwa 1" xmlns="http://www.w3.org/2000/svg" viewBox="0 0 282.45 322.34"><title>cup</title><polygon points="97.24 266.05 97.19 266.06 94.26 267.81 93.73 266.05 97.41 263.86 99.4 263.78 100.17 281.03 97.91 281.13 97.24 266.05" fill="#fff"/><polygon points="204.66 67.8 203.55 67.77 208.57 55.91 209.69 55.95 204.66 67.8" fill="#8980ff"/><polygon points="210.34 67.99 209.23 67.95 214.25 56.1 215.37 56.13 210.34 67.99" fill="#8980ff"/><polygon points="110.02 309.87 108.91 309.83 113.93 297.97 115.05 298.01 110.02 309.87" fill="#8980ff"/><polygon points="115.7 310.05 114.59 310.01 119.61 298.16 120.73 298.2 115.7 310.05" fill="#8980ff"/><polygon points="212.16 285.58 211.05 285.55 216.07 273.69 217.19 273.73 212.16 285.58" fill="#8980ff"/><polygon points="217.84 285.77 216.73 285.74 221.74 273.88 222.87 273.92 217.84 285.77" fill="#8980ff"/><polygon points="242.4 194.04 241.29 194 246.31 182.14 247.43 182.18 242.4 194.04" fill="#8980ff"/><polygon points="248.08 194.22 246.97 194.19 251.99 182.33 253.11 182.37 248.08 194.22" fill="#8980ff"/><path d="M1415.07,1327v-1.43l1.82-1.79c4.38-4.23,6.36-6.47,6.37-9.08a3.08,3.08,0,0,0-3.45-3.35,5.88,5.88,0,0,0-3.66,1.49l-0.76-1.64a7.58,7.58,0,0,1,4.88-1.79c3.72,0,5.3,2.51,5.32,5,0,3.19-2.27,5.78-5.89,9.31l-1.37,1.29V1325l7.76-.05v1.94Z" transform="translate(-1200.46 -1132.43)" fill="#fff"/><path d="M1423.17,1277.12c0-2.18,1.28-3.73,3.4-4.65l0-.08a4.28,4.28,0,0,1-2.76-3.86c0-2.74,2.28-4.61,5.31-4.63,3.35,0,5,2.06,5.05,4.21a4.39,4.39,0,0,1-2.81,4.06v0.08c2.16,0.83,3.5,2.34,3.51,4.44,0,3-2.54,5-5.84,5.06-3.61,0-5.81-2.11-5.82-4.64m9.3-.17c0-2.1-1.48-3.1-3.82-3.75-2,.6-3.1,1.93-3.08,3.58a3.19,3.19,0,0,0,3.48,3.27c2.1,0,3.45-1.33,3.43-3.1m-6.49-8.59c0,1.73,1.32,2.65,3.32,3.16a3.4,3.4,0,0,0,2.61-3.15,2.69,2.69,0,0,0-2.94-2.8,2.75,2.75,0,0,0-3,2.78" transform="translate(-1200.46 -1132.43)" fill="#fff"/><path d="M1431.49,1362.77h0a2.4,2.4,0,0,0-2.61,2.44c0,1.51,1.16,2.31,2.9,2.77a3,3,0,0,0,2.28-2.76,2.34,2.34,0,0,0-2.54-2.44m-0.31,6.67c-1.76.53-2.71,1.69-2.7,3.13a2.79,2.79,0,0,0,3,2.86h0a2.74,2.74,0,0,0,3-2.72c0-1.84-1.3-2.71-3.35-3.28m0.25,7.48c-3.13,0-5-1.86-5-4.05a4.32,4.32,0,0,1,3-4.07l0-.07a3.74,3.74,0,0,1-2.42-3.37c0-2.4,2-4,4.65-4.05h0c2.9,0,4.36,1.82,4.37,3.69a3.84,3.84,0,0,1-2.46,3.55v0.07c1.89,0.73,3.06,2,3.07,3.88,0,2.63-2.23,4.41-5.11,4.43h-0.05" transform="translate(-1200.46 -1132.43)" fill="#8980ff"/><path d="M1351.82,1197.49a1.57,1.57,0,0,1,1.58-1.68,1.68,1.68,0,1,1-1.58,1.68" transform="translate(-1200.46 -1132.43)" fill="#fff"/><path d="M1251.32,1232.71v-2a5.78,5.78,0,0,1-3-.85l0.47-1.33a5.29,5.29,0,0,0,2.86.83,2.09,2.09,0,0,0,2.35-2c0-1.09-.79-1.76-2.26-2.35-2-.78-3.29-1.68-3.3-3.41a3.25,3.25,0,0,1,3-3.22v-2h1.23v1.93a5.3,5.3,0,0,1,2.58.68l-0.49,1.31a4.8,4.8,0,0,0-2.51-.66c-1.53,0-2.1.93-2.09,1.72,0,1,.75,1.54,2.48,2.25,2.05,0.82,3.09,1.84,3.1,3.61a3.45,3.45,0,0,1-3.11,3.4v2.06h-1.25Z" transform="translate(-1200.46 -1132.43)" fill="#fff"/><polygon points="80.28 73.44 85.71 59.01 87.06 59 81.61 73.43 80.28 73.44" fill="#fff"/><polygon points="87.08 73.39 92.52 58.97 93.87 58.96 88.42 73.39 87.08 73.39" fill="#fff"/><path d="M1276.56,1182.18c-1.78,0-3.71.38-3.7,2.11a1.5,1.5,0,0,0,1.59,1.61h0a2.32,2.32,0,0,0,2.25-1.56,1.81,1.81,0,0,0,.1-0.54v-1.62h-0.24m-2.55,5a2.65,2.65,0,0,1-2.84-2.67c0-2.24,2-3.47,5.54-3.47h0v-0.19a1.92,1.92,0,0,0-2.11-2.15h0a4.67,4.67,0,0,0-2.42.7l-0.39-1.12a5.8,5.8,0,0,1,3.06-.83h0c2.84,0,3.53,1.94,3.54,3.8v3.48a12.81,12.81,0,0,0,.16,2.23h-1.54l-0.14-1.17h-0.06a3.47,3.47,0,0,1-2.84,1.39h0" transform="translate(-1200.46 -1132.43)" fill="#695eff"/><polygon points="53.83 121.33 42.63 127.43 42.59 125.75 52.1 120.71 52.1 120.66 42.35 116.11 42.31 114.42 53.8 119.96 53.83 121.33" fill="#fff"/><path d="M1317,1399.66a12.09,12.09,0,0,0-2.12,7.56,12.37,12.37,0,0,0,2.5,7.38l-1.26,0a11.86,11.86,0,0,1-2.6-7.38,12.11,12.11,0,0,1,2.21-7.56Z" transform="translate(-1200.46 -1132.43)" fill="#fff"/><path d="M1318.14,1414.59a12.42,12.42,0,0,0,2.11-7.56,12.16,12.16,0,0,0-2.5-7.38l1.25,0a11.68,11.68,0,0,1,2.6,7.4,11.92,11.92,0,0,1-2.21,7.54Z" transform="translate(-1200.46 -1132.43)" fill="#fff"/><path d="M1225,1404.7a11.85,11.85,0,0,1-2.45-7.43,12.12,12.12,0,0,1,2.36-7.52h1.27a12.08,12.08,0,0,0-2.26,7.52,12.37,12.37,0,0,0,2.35,7.43H1225" transform="translate(-1200.46 -1132.43)" fill="#2a1aff"/><path d="M1227,1404.69a12.4,12.4,0,0,0,2.27-7.51,12.18,12.18,0,0,0-2.36-7.43h1.25a11.7,11.7,0,0,1,2.45,7.45,11.91,11.91,0,0,1-2.36,7.5H1227" transform="translate(-1200.46 -1132.43)" fill="#2a1aff"/><path d="M1227.43,1306.73a11.84,11.84,0,0,1-2.89-7.27,12.11,12.11,0,0,1,1.9-7.64l1.26-.09a12.11,12.11,0,0,0-1.81,7.64,12.35,12.35,0,0,0,2.8,7.28l-1.26.08" transform="translate(-1200.46 -1132.43)" fill="#8980ff"/><path d="M1229.42,1306.59a12.41,12.41,0,0,0,1.81-7.64,12.17,12.17,0,0,0-2.8-7.28l1.24-.08a11.69,11.69,0,0,1,2.89,7.29,11.89,11.89,0,0,1-1.9,7.63l-1.24.08" transform="translate(-1200.46 -1132.43)" fill="#8980ff"/><path d="M1228.76,1264.67c-1.54,0-2.46,1.35-2.48,3.17s0.79,3.06,2.41,3.08h0a2.26,2.26,0,0,0,2.2-1.77,2.7,2.7,0,0,0,.07-0.65v-1.44a2.6,2.6,0,0,0-.06-0.63,2.21,2.21,0,0,0-2.15-1.76h0m-0.47,7.46h0c-2,0-3.52-1.72-3.5-4.23,0-2.73,1.71-4.4,3.71-4.4h0a2.76,2.76,0,0,1,2.48,1.29h0l0-4.93,1.5,0-0.1,10c0,0.73,0,1.57,0,2.14h-1.35l-0.05-1.44h0a3,3,0,0,1-2.79,1.59" transform="translate(-1200.46 -1132.43)" fill="#8980ff"/><polygon points="171.23 49.81 171.22 48.13 180.82 43.26 180.82 43.21 171.15 38.49 171.14 36.8 182.53 42.54 182.54 43.91 171.23 49.81" fill="#7166ff"/><polygon points="46.22 301.21 46.2 299.52 55.81 294.66 55.81 294.62 46.14 289.88 46.13 288.2 57.52 293.94 57.53 295.31 46.22 301.21" fill="#2a1aff"/><polygon points="232.08 295.35 232.06 293.66 241.67 288.8 241.67 288.75 232 284.03 231.99 282.34 243.38 288.08 243.39 289.45 232.08 295.35" fill="#2a1aff"/><polygon points="45.61 71.11 45.6 69.42 55.2 64.56 55.2 64.51 45.53 59.78 45.52 58.09 56.91 63.84 56.92 65.21 45.61 71.11" fill="#7166ff"/><path d="M1356.24,1416.45c-0.47-.46-0.91-0.92-1.55-1.6a6.75,6.75,0,0,1-4.8,1.92c-3.2,0-5.08-2.12-5.1-4.59a5.41,5.41,0,0,1,3.19-4.84v-0.07a5.66,5.66,0,0,1-1.39-3.44,4,4,0,0,1,4.15-4.09,3.43,3.43,0,0,1,3.67,3.47c0,1.74-1,3.11-3.59,4.43v0.07c1.41,1.6,3,3.4,4,4.57a12.1,12.1,0,0,0,1.56-4.83h2a12.53,12.53,0,0,1-2.33,6.11c0.89,0.92,1.75,1.85,2.74,2.89Zm-2.61-2.82c-1-1.07-2.83-3.06-4.69-5.15a4.05,4.05,0,0,0-2.1,3.37,3.25,3.25,0,0,0,3.4,3.3,4.6,4.6,0,0,0,3.39-1.52m-5.09-10a4.62,4.62,0,0,0,1.27,3c1.66-1,2.73-1.85,2.71-3.25a1.94,1.94,0,0,0-1.92-2.11,2.14,2.14,0,0,0-2.06,2.41" transform="translate(-1200.46 -1132.43)" fill="#fff"/><path d="M1206.3,1296.39h0a2.15,2.15,0,0,0-2.06,2.41,4.63,4.63,0,0,0,1.27,3c1.66-1,2.73-1.85,2.72-3.25a1.94,1.94,0,0,0-1.9-2.11m-1.68,7.27a4.05,4.05,0,0,0-2.1,3.37,3.25,3.25,0,0,0,3.36,3.3h0a4.6,4.6,0,0,0,3.39-1.51c-1-1.07-2.83-3.06-4.69-5.15m0.89,8.29c-3.17,0-5-2.13-5-4.58a5.41,5.41,0,0,1,3.19-4.84v-0.07a5.67,5.67,0,0,1-1.39-3.44,4,4,0,0,1,4.15-4.09h0a3.43,3.43,0,0,1,3.64,3.47c0,1.74-1,3.11-3.59,4.43v0.07c1.41,1.6,3,3.4,4,4.57a12,12,0,0,0,1.55-4.83l2,0a12.53,12.53,0,0,1-2.33,6.11c0.89,0.92,1.75,1.85,2.73,2.89l-2.54,0c-0.47-.46-0.91-0.92-1.55-1.6a6.76,6.76,0,0,1-4.81,1.92h-0.05" transform="translate(-1200.46 -1132.43)" fill="#2a1aff"/><path d="M1394.63,1394.7c-0.19,3.11-1.91,4.56-3.82,4.44s-3.34-1.68-3.19-4.66,1.89-4.51,3.84-4.39,3.33,1.79,3.17,4.61m-5.41-.19c-0.16,1.88.46,3.36,1.71,3.43s2-1.29,2.11-3.25c0.11-1.79-.33-3.32-1.71-3.41s-2,1.36-2.11,3.22m1.08,10.82,9.59-14.74,1.27,0.08-9.59,14.74Zm13.57-4c-0.19,3.11-1.91,4.56-3.8,4.45s-3.34-1.68-3.19-4.64,1.89-4.53,3.84-4.42,3.31,1.79,3.14,4.61m-5.41-.19c-0.14,1.89.5,3.36,1.73,3.43s2-1.29,2.11-3.25c0.11-1.79-.32-3.33-1.71-3.41s-2,1.36-2.13,3.22" transform="translate(-1200.46 -1132.43)" fill="#fff"/><path d="M1321.8,1186.79c-0.19,3.11-1.91,4.56-3.82,4.44s-3.34-1.68-3.19-4.66,1.89-4.51,3.84-4.4,3.33,1.79,3.17,4.61m-5.41-.19c-0.16,1.88.46,3.36,1.71,3.43s2-1.29,2.11-3.25c0.11-1.79-.33-3.32-1.71-3.41s-2,1.36-2.11,3.22m1.08,10.82,9.59-14.74,1.27,0.08-9.59,14.74Zm13.57-4c-0.19,3.11-1.91,4.56-3.8,4.45s-3.34-1.68-3.19-4.64,1.89-4.54,3.84-4.42,3.31,1.79,3.14,4.61m-5.41-.19c-0.14,1.88.5,3.36,1.73,3.43s2-1.29,2.11-3.25c0.11-1.79-.32-3.33-1.71-3.41s-2,1.36-2.13,3.22" transform="translate(-1200.46 -1132.43)" fill="#fff"/><path d="M1368.44,1139.55c-1.19,0-1.91,1.41-2,3.23s0.46,3.35,1.71,3.43h0.11c1.25,0,1.89-1.35,2-3.25s-0.32-3.32-1.71-3.41h-0.09m-0.22,7.86H1368c-1.84-.11-3.34-1.68-3.18-4.66s1.77-4.4,3.64-4.4h0.21c2.07,0.12,3.33,1.8,3.16,4.61-0.18,3-1.79,4.45-3.61,4.45m0.55,6.26-1.27-.07,9.59-14.74,1.27,0.08-9.59,14.74m8.92-7.44c-1.2,0-1.93,1.41-2,3.23s0.5,3.36,1.73,3.43h0.11c1.25,0,1.89-1.35,2-3.25s-0.32-3.32-1.71-3.41h-0.09m-0.22,7.87h-0.2c-1.84-.11-3.34-1.68-3.19-4.64s1.77-4.42,3.64-4.42h0.21c2.07,0.12,3.31,1.79,3.14,4.61-0.18,3-1.79,4.45-3.6,4.45" transform="translate(-1200.46 -1132.43)" fill="#2a1aff"/><path d="M1223.76,1213.55l-12.62-.28,0-1.47,12.62,0.28Zm-0.11,4.79-12.62-.28,0-1.47,12.62,0.28,0,1.46" transform="translate(-1200.46 -1132.43)" fill="#2a1aff"/><polygon points="32.55 104.37 32.41 98.58 26.89 98.7 26.86 97.23 32.38 97.11 32.25 91.36 33.81 91.33 33.95 97.07 39.47 96.95 39.51 98.41 33.98 98.54 34.11 104.33 32.55 104.37" fill="#8980ff"/><path d="M1326.67,1163.11a1.53,1.53,0,0,1,0-3.06h0a1.53,1.53,0,0,1,0,3.06h0m-2.19,11.43a35,35,0,0,0,1.33-5.88l2.37-.3a31.5,31.5,0,0,1-2.21,6l-1.49.18" transform="translate(-1200.46 -1132.43)" fill="#8980ff"/><path d="M1209.34,1361.13l-0.06-2.47h-0.06a7.13,7.13,0,0,1-3.71-1l0.55-1.65a6.55,6.55,0,0,0,3.4,1h0.15c1.74,0,2.89-1.08,2.85-2.47s-1-2.15-2.84-2.84c-2.52-.91-4.09-2-4.14-4.12a4,4,0,0,1,3.59-4l-0.06-2.47,1.52,0,0.06,2.37a6.54,6.54,0,0,1,3.2.78l-0.57,1.63a5.91,5.91,0,0,0-2.94-.76h-0.17c-1.88,0-2.56,1.19-2.54,2.17,0,1.27,1,1.89,3.1,2.71,2.54,1,3.85,2.2,3.9,4.38a4.26,4.26,0,0,1-3.76,4.26l0.06,2.54-1.54,0" transform="translate(-1200.46 -1132.43)" fill="#2a1aff"/><path d="M1476.15,1284.43H1476a4.21,4.21,0,0,0-3.78,4.5,1.62,1.62,0,0,0,1.61,1.82h0.06c1.42,0,2.67-1.88,2.9-3.4l0.44-2.78a4.19,4.19,0,0,0-1.09-.14m-1.82,11.76a7.28,7.28,0,0,1-7.4-7.44c-0.13-5,3.26-9.48,8.68-9.62h0.23a6.77,6.77,0,0,1,7.06,6.89c0.09,3.67-1.9,5.87-4.2,5.93h-0.05a1.81,1.81,0,0,1-1.81-2.11h-0.1a3.85,3.85,0,0,1-3.4,2.24h-0.07a2.78,2.78,0,0,1-2.65-3,5.78,5.78,0,0,1,5.65-5.94h0.18a6.35,6.35,0,0,1,2.45.45l-0.72,4.45c-0.32,1.87,0,2.72.8,2.72,1.25,0,2.6-1.7,2.53-4.54-0.09-3.48-2.2-5.94-5.86-5.94h-0.21c-4,.1-7.25,3.34-7.13,8.3,0.1,4,2.73,6.44,6.25,6.44h0.2a7.63,7.63,0,0,0,3.67-.95l0.42,1a8.92,8.92,0,0,1-4.33,1.09h-0.21" transform="translate(-1200.46 -1132.43)" fill="#2a1aff"/><path d="M1460.91,1334.16l0-1.47,12.62-.32,0,1.47Zm0.12,4.79,0-1.46,12.62-.32,0,1.47-12.62.32" transform="translate(-1200.46 -1132.43)" fill="#2a1aff"/><path d="M1285.1,1139.09l0-1.47,12.61-.32,0,1.47Zm0.12,4.79,0-1.46,12.62-.32,0,1.47-12.62.32" transform="translate(-1200.46 -1132.43)" fill="#2a1aff"/><path d="M1449.1,1383.66l0-1.34h0.42c1.37-.06,1.94-0.81,1.9-2.18a15.48,15.48,0,0,0-.22-1.76,10.92,10.92,0,0,1-.24-1.85c0-1.57.62-2.41,1.69-2.71v-0.05a2.38,2.38,0,0,1-1.83-2.59,11.42,11.42,0,0,1,.15-1.86,14.09,14.09,0,0,0,.13-1.74c0-1.31-.56-2.06-2-2.06h-0.47l0-1.35h0.66c2,0,3.43.93,3.48,3.12a14.24,14.24,0,0,1-.14,2,14.56,14.56,0,0,0-.15,2.06c0,0.84.28,1.76,1.91,1.76h0.11l0,1.25c-1.74,0-2,1.1-1.94,1.86a13.89,13.89,0,0,0,.25,2,13.71,13.71,0,0,1,.25,2c0.06,2.47-1.45,3.39-3.46,3.44h-0.51" transform="translate(-1200.46 -1132.43)" fill="#2a1aff"/><path d="M1233.13,1189.78c-2,0-3.42-.93-3.48-3.11a13.89,13.89,0,0,1,.14-2,15,15,0,0,0,.14-2.06,1.61,1.61,0,0,0-1.91-1.76h-0.11l0-1.25c1.74,0,2-1.1,1.94-1.86a13.71,13.71,0,0,0-.25-2,13.72,13.72,0,0,1-.25-2c-0.07-2.47,1.45-3.39,3.46-3.44h0.51l0,1.35h-0.42c-1.37.06-1.94,0.81-1.9,2.18a14.4,14.4,0,0,0,.22,1.76,11.2,11.2,0,0,1,.24,1.85c0,1.56-.62,2.41-1.69,2.71v0a2.38,2.38,0,0,1,1.83,2.6,10.86,10.86,0,0,1-.15,1.86,14.56,14.56,0,0,0-.13,1.74c0,1.31.56,2.06,2,2.06h0.47l0,1.35h-0.66" transform="translate(-1200.46 -1132.43)" fill="#2a1aff"/><path d="M1343.78,1454.67a35,35,0,0,0,1.3-5.76l2.22-.3a28.14,28.14,0,0,1-2.15,5.85l-1.36.21m-3.62.09a35,35,0,0,0,1.3-5.76l2.19-.3a28.34,28.34,0,0,1-2.12,5.85l-1.37.2" transform="translate(-1200.46 -1132.43)" fill="#2a1aff"/><polygon points="174.71 307.77 170.23 307.73 170.39 288.21 174.87 288.25 174.86 289.6 172.04 289.57 171.91 306.4 174.72 306.43 174.71 307.77" fill="#8980ff"/><path d="M1232.1,1339.17H1232a4.2,4.2,0,0,0-3.79,4.49,1.62,1.62,0,0,0,1.61,1.82h0c1.42,0,2.67-1.87,2.91-3.39l0.45-2.77a4.24,4.24,0,0,0-1.13-.15m-1.8,11.76a7.28,7.28,0,0,1-7.4-7.46c-0.11-5,3.28-9.47,8.71-9.59h0.21a6.78,6.78,0,0,1,7.07,6.91c0.08,3.67-1.92,5.87-4.22,5.92h0a1.81,1.81,0,0,1-1.81-2.11h-0.1a3.84,3.84,0,0,1-3.4,2.23h-0.06a2.78,2.78,0,0,1-2.65-3,5.77,5.77,0,0,1,5.66-5.93h0.18a6.37,6.37,0,0,1,2.45.46l-0.73,4.45c-0.32,1.86,0,2.72.8,2.72,1.25,0,2.6-1.7,2.54-4.54-0.08-3.49-2.19-6-5.86-6h-0.19c-4,.09-7.26,3.32-7.15,8.29,0.09,4,2.73,6.46,6.26,6.46h0.18a7.62,7.62,0,0,0,3.67-.94l0.41,1a8.93,8.93,0,0,1-4.33,1.08h-0.18" transform="translate(-1200.46 -1132.43)" fill="#8980ff"/><path d="M1448.92,1194.3h-0.1a4.2,4.2,0,0,0-3.79,4.49,1.62,1.62,0,0,0,1.61,1.82h0c1.42,0,2.67-1.87,2.91-3.39l0.45-2.77a4.25,4.25,0,0,0-1.13-.15m-1.8,11.76a7.28,7.28,0,0,1-7.4-7.46c-0.11-5,3.28-9.47,8.71-9.6h0.2a6.78,6.78,0,0,1,7.07,6.91c0.08,3.67-1.92,5.87-4.22,5.92h0a1.81,1.81,0,0,1-1.81-2.11h-0.1a3.84,3.84,0,0,1-3.4,2.23h-0.06a2.78,2.78,0,0,1-2.65-3,5.78,5.78,0,0,1,5.67-5.93h0.18a6.35,6.35,0,0,1,2.45.46l-0.73,4.45c-0.32,1.86,0,2.71.8,2.72,1.25,0,2.6-1.7,2.54-4.53-0.08-3.49-2.19-6-5.86-6h-0.19c-4,.09-7.26,3.32-7.15,8.29,0.09,4,2.73,6.46,6.26,6.46h0.17a7.62,7.62,0,0,0,3.67-.94l0.42,1a8.94,8.94,0,0,1-4.33,1.08h-0.18" transform="translate(-1200.46 -1132.43)" fill="#2a1aff"/><path d="M1408.73,1367.39l0.49-4.81-2,.06,0-1.44,2.22-.07,0.36-3.56-2.1.06,0-1.44,2.32-.07,0.5-4.69,1.42,0-0.47,4.69,2.54-.08,0.5-4.69,1.44,0-0.47,4.69,2-.06,0,1.44-2.22.07-0.33,3.56,2.1-.06,0,1.44-2.32.07-0.49,4.81-1.47,0,0.49-4.81-2.54.08-0.49,4.81Zm4.68-6.38,0.36-3.56-2.54.08-0.36,3.56Z" transform="translate(-1200.46 -1132.43)" fill="#fff"/><path d="M1455.86,1263.83l-2.55.08-0.36,3.56,2.54-.08Zm-5,9.94,0.49-4.81-2,.06,0-1.44,2.23-.07,0.36-3.56-2.1.06,0-1.44,2.32-.07,0.49-4.69,1.42,0-0.47,4.69,2.55-.08,0.49-4.69,1.44,0-0.47,4.69,2-.06,0,1.44-2.22.07-0.34,3.56,2.1-.06,0,1.44-2.32.07-0.49,4.81-1.47,0,0.49-4.81-2.54.08-0.49,4.81-1.46,0" transform="translate(-1200.46 -1132.43)" fill="#8980ff"/><path d="M1275,1417.47h-0.06c-1.3,0-2.2,1.65-2.11,4.64,0.08,2.82,1,4.4,2.31,4.4h0c1.52,0,2.19-1.84,2.11-4.64s-0.81-4.4-2.3-4.4m0,10.19c-2.09,0-3.55-2-3.69-5.53s1.42-5.75,3.64-5.81h0.12c2.24,0,3.57,2,3.67,5.44,0.11,3.73-1.21,5.83-3.64,5.9H1275" transform="translate(-1200.46 -1132.43)" fill="#8980ff"/><polygon points="83.07 294.8 82.79 285.21 82.75 285.21 80.88 286.3 80.56 285.18 82.92 283.82 84.18 283.79 84.51 294.75 83.07 294.8" fill="#8980ff"/><path d="M1295.57,1447.93a1.06,1.06,0,0,1,0-2.11h0a1,1,0,0,1,1,1,1,1,0,0,1-1,1.08h0m0.18,6a1,1,0,0,1-1-1,1,1,0,0,1,1-1.09h0a1,1,0,0,1,1,1,1,1,0,0,1-1,1.07h0" transform="translate(-1200.46 -1132.43)" fill="#4133ff"/><path d="M1299.06,1447.83a1.06,1.06,0,0,1,0-2.11h0a1.06,1.06,0,0,1,0,2.11h0m0.18,6a1,1,0,0,1-1-1,1,1,0,0,1,1-1.1h0a1,1,0,0,1,1,1,1,1,0,0,1-1,1.08h0" transform="translate(-1200.46 -1132.43)" fill="#4133ff"/><path d="M1441.24,1219.65a1.06,1.06,0,0,1,0-2.11h0a1.06,1.06,0,0,1,0,2.11h0m0.18,6a1.06,1.06,0,0,1,0-2.11h0a1.06,1.06,0,0,1,0,2.11h0" transform="translate(-1200.46 -1132.43)" fill="#8980ff"/><path d="M1444.73,1219.55a1.06,1.06,0,0,1,0-2.11h0a1,1,0,0,1,1,1,1,1,0,0,1-1,1.08h0m0.17,6a1.06,1.06,0,0,1,0-2.11h0a1.06,1.06,0,0,1,0,2.11h0" transform="translate(-1200.46 -1132.43)" fill="#8980ff"/><polygon points="48.52 203.32 48.78 189 52.08 189.06 52.06 190.05 49.99 190.01 49.76 202.36 51.83 202.4 51.81 203.38 48.52 203.32" fill="#fff"/><polygon points="59.86 189.19 59.59 203.53 56.3 203.47 56.32 202.48 58.39 202.52 58.62 190.15 56.55 190.12 56.57 189.13 59.86 189.19" fill="#fff"/><path d="M1269.83,1368.34c-0.11,4-1.67,6.23-4.31,6.16-2.32-.06-3.84-2.28-3.76-6.22s1.89-6.13,4.31-6.06,3.87,2.34,3.76,6.13m-6.46,0c-0.09,3.09.81,4.87,2.28,4.91,1.65,0,2.49-1.85,2.57-4.89s-0.61-4.87-2.28-4.91c-1.41,0-2.48,1.65-2.57,4.89" transform="translate(-1200.46 -1132.43)" fill="#fff"/><path d="M1245,1294.13l0-.48a4.2,4.2,0,0,1,1.11-3.17,4,4,0,0,0,1.26-2.52,1.53,1.53,0,0,0-1.75-1.56,3.26,3.26,0,0,0-1.84.58l-0.45-1.15a4.8,4.8,0,0,1,2.61-.75c2.1,0,3.06,1.28,3.07,2.67a5,5,0,0,1-1.55,3.19,3.62,3.62,0,0,0-1,2.7l0,0.48H1245Zm-0.38,2.56a1.08,1.08,0,0,1,1.09-1.16,1.14,1.14,0,1,1-1.09,1.16" transform="translate(-1200.46 -1132.43)" fill="#fff"/><path d="M1327.08,1141.48l0-.48a4.21,4.21,0,0,1,1.11-3.17,4,4,0,0,0,1.26-2.52,1.53,1.53,0,0,0-1.75-1.56,3.27,3.27,0,0,0-1.84.58l-0.45-1.15a4.79,4.79,0,0,1,2.61-.75h0c2.08,0,3,1.28,3,2.67a5,5,0,0,1-1.55,3.2,3.62,3.62,0,0,0-1,2.7l0,0.48h-1.43m0.7,3.69a1.15,1.15,0,0,1,0-2.29h0a1.15,1.15,0,0,1,0,2.29h0" transform="translate(-1200.46 -1132.43)" fill="#4133ff"/><path d="M1397.4,1448.73l0-.48a4.2,4.2,0,0,1,1.11-3.17,4,4,0,0,0,1.26-2.52A1.53,1.53,0,0,0,1398,1441a3.25,3.25,0,0,0-1.84.58l-0.45-1.15a4.79,4.79,0,0,1,2.61-.75h0c2.08,0,3,1.29,3,2.67a5,5,0,0,1-1.55,3.2,3.62,3.62,0,0,0-1,2.7l0,0.48h-1.43m0.69,3.69a1.14,1.14,0,0,1,0-2.29h0a1.14,1.14,0,0,1,0,2.29h0" transform="translate(-1200.46 -1132.43)" fill="#4133ff"/><path d="M1275.29,1395.72v-0.48a4.21,4.21,0,0,1,1.3-3.1,4,4,0,0,0,1.41-2.44,1.53,1.53,0,0,0-1.65-1.66,3.27,3.27,0,0,0-1.87.47l-0.38-1.17a4.83,4.83,0,0,1,2.65-.6c2.1,0.11,3,1.46,2.91,2.85a5,5,0,0,1-1.74,3.1,3.62,3.62,0,0,0-1.18,2.63v0.48Zm-0.53,2.54a1.08,1.08,0,0,1,1.15-1.09,1.14,1.14,0,1,1-1.15,1.09" transform="translate(-1200.46 -1132.43)" fill="#fff"/><path d="M1259.06,1405.93a1.14,1.14,0,0,1-.95-0.56,1.08,1.08,0,0,1,.29-1.56,1.09,1.09,0,0,1,.59-0.18,1.14,1.14,0,0,1,.94.56,1.1,1.1,0,0,1-.88,1.75" transform="translate(-1200.46 -1132.43)" fill="#8980ff"/><path d="M1209.46,1257.64h-0.06c-1.54,0-2.61,1.36-2.56,3.41,0,1.71.93,3.12,2.61,3.12h0.07a2.35,2.35,0,0,0,2.2-1.7,2.84,2.84,0,0,0,.11-0.86l0-1.59a2.29,2.29,0,0,0-.11-0.73,2.32,2.32,0,0,0-2.23-1.65m-0.5,11.63a5.6,5.6,0,0,1-2.8-.66l0.37-1.24a5,5,0,0,0,2.49.64h0.12c1.65,0,2.84-.93,2.78-3.16l0-1h0a3.16,3.16,0,0,1-2.78,1.55H1209c-2.15,0-3.72-1.81-3.78-4.23-0.07-3,1.85-4.74,3.88-4.79h0.1a2.93,2.93,0,0,1,2.7,1.48h0l0-1.33,1.41,0c0,0.64,0,1.35,0,2.43l0.12,5.14c0,2-.32,3.28-1.17,4.07a4.69,4.69,0,0,1-3.2,1.13H1209" transform="translate(-1200.46 -1132.43)" fill="#2a1aff"/><path d="M1407.87,1153h-0.06c-1.54,0-2.6,1.36-2.56,3.41,0,1.71.93,3.12,2.62,3.12h0.07a2.36,2.36,0,0,0,2.19-1.7,2.84,2.84,0,0,0,.11-0.86l0-1.59a2.36,2.36,0,0,0-2.34-2.38m-0.5,11.63a5.61,5.61,0,0,1-2.81-.67l0.38-1.23a4.93,4.93,0,0,0,2.48.64h0.13c1.65,0,2.83-.93,2.78-3.16l0-1h0a3.16,3.16,0,0,1-2.78,1.55h-0.09c-2.15,0-3.72-1.81-3.78-4.23-0.07-3,1.85-4.75,3.88-4.79h0.1a2.93,2.93,0,0,1,2.7,1.47h0l0-1.33,1.41,0c0,0.64,0,1.36,0,2.44l0.12,5.14c0,2-.32,3.28-1.17,4.07a4.7,4.7,0,0,1-3.2,1.13h-0.15" transform="translate(-1200.46 -1132.43)" fill="#2a1aff"/><path d="M1355.39,1170.16a35,35,0,0,0,1.31-5.76l2.22-.29a28.29,28.29,0,0,1-2.17,5.85l-1.36.2m-3.62.08a34.81,34.81,0,0,0,1.31-5.75l2.2-.29a28.23,28.23,0,0,1-2.14,5.85l-1.36.2" transform="translate(-1200.46 -1132.43)" fill="#8980ff"/><path d="M1253.59,1168l4.07-6.14-4.14-5.7,2.4-.05,1.75,2.5c0.45,0.65.83,1.25,1.24,1.91H1259c0.37-.72.75-1.34,1.13-2l1.6-2.55,2.32-.05-3.9,5.81,4.29,6-2.44.05-1.8-2.63c-0.48-.67-0.89-1.33-1.32-2h0c-0.38.72-.78,1.36-1.2,2.08L1256,1168l-2.37.05" transform="translate(-1200.46 -1132.43)" fill="#2a1aff"/><path d="M1462.05,1241.69l4.07-6.13-4.14-5.7,2.4-.05,1.75,2.5c0.45,0.65.83,1.25,1.24,1.9h0.07c0.38-.72.75-1.34,1.13-2l1.6-2.56,2.32-.05-3.9,5.81,4.29,6-2.44.06-1.8-2.63c-0.48-.67-0.89-1.33-1.32-2h0c-0.37.72-.77,1.36-1.2,2.08l-1.65,2.71-2.37.05" transform="translate(-1200.46 -1132.43)" fill="#4133ff"/><path d="M1237.68,1387.36l4.07-6.14-4.15-5.7,2.4-.05,1.74,2.5c0.46,0.65.84,1.25,1.24,1.9h0.07c0.37-.72.75-1.34,1.13-2l1.61-2.56,2.32-.05-3.91,5.81,4.3,6-2.44.05-1.8-2.63c-0.48-.67-0.89-1.33-1.32-2h0c-0.37.72-.78,1.37-1.2,2.08l-1.65,2.71-2.37.05" transform="translate(-1200.46 -1132.43)" fill="#8980ff"/><path d="M1297.22,1175.84l0-1.34h0.41c1.37-.05,1.94-0.8,1.91-2.17a14.76,14.76,0,0,0-.21-1.76,10.93,10.93,0,0,1-.24-1.85c0-1.56.63-2.41,1.7-2.71v0a2.38,2.38,0,0,1-1.82-2.6,11.82,11.82,0,0,1,.15-1.86,14.21,14.21,0,0,0,.13-1.74c0-1.31-.56-2.06-2-2.06h-0.46l0-1.34h0.64c2,0,3.44.93,3.5,3.12a14.66,14.66,0,0,1-.15,2,14.88,14.88,0,0,0-.15,2.06c0,0.84.28,1.77,1.92,1.77h0.1l0,1.25c-1.74,0-2,1.1-1.94,1.86a13.48,13.48,0,0,0,.24,2,13.81,13.81,0,0,1,.24,2c0.06,2.47-1.46,3.38-3.47,3.43h-0.51" transform="translate(-1200.46 -1132.43)" fill="#8980ff"/><path d="M1372.15,1381.86l-84.49-13.93-12.11-7.22,4.26-18.88,31.64,5.22,2.64-16-28-41.09,2.79-17.9c-7.59-1.11-13.3-4.09-17-8.87a23.41,23.41,0,0,1-4.44-16.13l4.94-28.91,135.08,22.36,9.19,8.25-4.52,27.44c-0.08.44-2,10.39-10.11,15.68-4.58,3-10.17,3.87-16.64,2.59l-2.78,17.33-37.8,28.93-2,11.34,22.8,3.55,9.53,8.67Zm-83.8-15.84,82.15,13.54,2.4-14.54-8.28-7.54-24.23-3.77,2.51-14.12,37.79-28.92,3-18.63,1,0.24c6.36,1.46,11.79.76,16.14-2.09,7.38-4.83,9.22-14.26,9.23-14.36l4.34-26.34-7.94-7.13L1274,1220.42l-4.59,26.91s-1,8.1,4.06,14.62c3.52,4.54,9.13,7.31,16.67,8.23l1,0.12-3,19.15,28.06,41.09-3.1,18.79-31.75-5.23-3.53,15.63Z" transform="translate(-1200.46 -1132.43)" fill="#fff"/><path d="M1333.16,1333.9l-17.45-3-29.7-40.95,2.36-11.68,9.22-55.91,85.67,14.12-10.8,67.39Zm-16.31-4.86,15.79,2.74,38-29L1381,1238.1l-81.73-13.47-8.9,54-2.19,10.86Z" transform="translate(-1200.46 -1132.43)" fill="#fff"/><path d="M1290.81,1272.23l-0.9,0c-7.71-.43-13.56-3-17.4-7.72-6.26-7.64-4.86-18-4.8-18.42l4.6-27.91,26.7,4.4Zm-16.85-51.8-4.27,25.92c0,0.08-1.32,9.92,4.38,16.87,3.32,4,8.39,6.37,15.06,6.91l7.58-45.94Z" transform="translate(-1200.46 -1132.43)" fill="#fff"/><path d="M1287.06,1262.09l-0.87,0a11.12,11.12,0,0,1-8.62-3.79c-4.19-5-3.06-13-3-13.34l3.1-18.82,14.93,2.46Zm-7.76-33.68-2.77,16.83c0,0.06-1,7.46,2.57,11.75a8.88,8.88,0,0,0,6.28,3l4.91-29.79Z" transform="translate(-1200.46 -1132.43)" fill="#fff"/><path d="M1382.3,1287.35a30.79,30.79,0,0,1-8.23-1.21l-0.86-.24,8.19-49.7,26.7,4.4-4.6,27.89c-0.08.46-2.08,10.7-10.47,15.93a19.89,19.89,0,0,1-10.73,2.93m-6.83-2.91c6.5,1.64,12,1.06,16.5-1.72,7.64-4.77,9.54-14.48,9.55-14.58l4.27-25.89L1383,1238.5Z" transform="translate(-1200.46 -1132.43)" fill="#fff"/><path d="M1384.88,1278.41a13.74,13.74,0,0,1-4-.65l-0.83-.26,5.53-33.52,14.93,2.46-3.1,18.8c-0.06.35-1.57,8.31-7.14,11.69a10.11,10.11,0,0,1-5.34,1.48m-2.62-2.33a8.87,8.87,0,0,0,6.92-.85c4.81-2.92,6.19-10.25,6.2-10.32l2.77-16.81-11-1.81Z" transform="translate(-1200.46 -1132.43)" fill="#fff"/><path d="M1331.42,1352.37l-20.31-3.35,3.2-19.38,20.31,3.35Zm-18-5,16.36,2.7,2.55-15.44-16.36-2.7Z" transform="translate(-1200.46 -1132.43)" fill="#fff"/><path d="M1362.07,1373.92l-85.3-14.06,3-18,85.29,14.06Zm-83-15.71,81.35,13.41,2.32-14.09-81.35-13.41Z" transform="translate(-1200.46 -1132.43)" fill="#fff"/><path d="M1313.13,1243.64l-18.25-3,3-18.25,18.25,3Zm-15.95-4.66,14.3,2.36,2.36-14.3-14.3-2.36Z" transform="translate(-1200.46 -1132.43)" fill="#fff"/><polygon points="97.95 91.05 111.54 110 95.27 107.32 97.95 91.05" fill="#fff"/><path d="M1329.91,1246.4l-18.25-3,3-18.25,18.25,3Zm-15.95-4.66,14.3,2.36,2.36-14.3-14.3-2.36Z" transform="translate(-1200.46 -1132.43)" fill="#fff"/><polygon points="114.73 93.81 128.32 112.77 112.05 110.09 114.73 93.81" fill="#fff"/><path d="M1347,1249.22l-18.25-3,3-18.25,18.25,3Zm-15.95-4.66,14.3,2.36,2.36-14.3-14.3-2.36Z" transform="translate(-1200.46 -1132.43)" fill="#fff"/><polygon points="131.81 96.63 145.4 115.59 129.12 112.9 131.81 96.63" fill="#fff"/><path d="M1363.48,1251.94l-18.25-3,3-18.25,18.25,3Zm-15.95-4.66,14.3,2.36,2.36-14.3-14.3-2.36Z" transform="translate(-1200.46 -1132.43)" fill="#fff"/><polygon points="148.3 99.35 161.89 118.31 145.62 115.62 148.3 99.35" fill="#fff"/><path d="M1380.26,1254.7l-18.25-3,3-18.25,18.25,3Zm-15.95-4.66,14.3,2.36,2.36-14.3-14.3-2.36Z" transform="translate(-1200.46 -1132.43)" fill="#fff"/><polygon points="165.08 102.12 178.67 121.07 162.4 118.39 165.08 102.12" fill="#fff"/><path d="M1310.74,1259.9l-18.25-3,3-18.25,18.25,3Zm-15.95-4.66,14.3,2.36,2.36-14.3-14.3-2.36Z" transform="translate(-1200.46 -1132.43)" fill="#fff"/><polygon points="95.56 107.31 109.15 126.27 92.88 123.59 95.56 107.31" fill="#fff"/><path d="M1327.52,1262.67l-18.25-3,3-18.25,18.25,3Zm-15.95-4.66,14.3,2.36,2.36-14.3-14.3-2.36Z" transform="translate(-1200.46 -1132.43)" fill="#fff"/><polygon points="112.34 110.08 125.93 129.04 109.66 126.35 112.34 110.08" fill="#fff"/><path d="M1344.59,1265.48l-18.25-3,3-18.25,18.25,3Zm-15.95-4.66,14.3,2.36,2.36-14.3-14.3-2.36Z" transform="translate(-1200.46 -1132.43)" fill="#fff"/><polygon points="129.41 112.89 143 131.85 126.73 129.17 129.41 112.89" fill="#fff"/><path d="M1361.09,1268.2l-18.25-3,3-18.25,18.25,3Zm-15.95-4.66,14.3,2.36,2.36-14.3-14.3-2.36Z" transform="translate(-1200.46 -1132.43)" fill="#fff"/><polygon points="145.91 115.61 159.5 134.57 143.22 131.89 145.91 115.61" fill="#fff"/><path d="M1377.87,1271l-18.25-3,3-18.25,18.25,3Zm-15.95-4.66,14.3,2.36,2.36-14.3-14.3-2.36Z" transform="translate(-1200.46 -1132.43)" fill="#fff"/><polygon points="162.69 118.38 176.28 137.34 160.01 134.65 162.69 118.38" fill="#fff"/><path d="M1308.09,1276l-18.25-3,3-18.25,18.25,3Zm-15.95-4.66,14.3,2.36,2.36-14.3-14.3-2.36Z" transform="translate(-1200.46 -1132.43)" fill="#fff"/><polygon points="92.91 123.39 106.5 142.34 90.23 139.66 92.91 123.39" fill="#fff"/><path d="M1324.87,1278.74l-18.25-3,3-18.25,18.25,3Zm-15.95-4.66,14.3,2.36,2.36-14.3-14.3-2.36Z" transform="translate(-1200.46 -1132.43)" fill="#fff"/><polygon points="109.69 126.16 123.28 145.11 107.01 142.43 109.69 126.16" fill="#fff"/><path d="M1341.94,1281.56l-18.25-3,3-18.25,18.25,3ZM1326,1276.9l14.3,2.36,2.36-14.3-14.3-2.36Z" transform="translate(-1200.46 -1132.43)" fill="#fff"/><polygon points="126.77 128.97 140.35 147.93 124.08 145.24 126.77 128.97" fill="#fff"/><path d="M1358.44,1284.28l-18.25-3,3-18.25,18.25,3Zm-15.95-4.66,14.3,2.36,2.36-14.3-14.3-2.36Z" transform="translate(-1200.46 -1132.43)" fill="#fff"/><polygon points="143.26 131.69 156.85 150.65 140.57 147.96 143.26 131.69" fill="#fff"/><path d="M1375.22,1287l-18.25-3,3-18.25,18.25,3Zm-15.95-4.66,14.3,2.36,2.36-14.3-14.3-2.36Z" transform="translate(-1200.46 -1132.43)" fill="#fff"/><polygon points="160.04 134.46 173.63 153.41 157.36 150.73 160.04 134.46" fill="#fff"/><path d="M1306,1292.43l-18.25-3,3-18.25,18.25,3Zm-15.95-4.66,14.3,2.36,2.36-14.3-14.3-2.36Z" transform="translate(-1200.46 -1132.43)" fill="#fff"/><polygon points="90.78 139.84 104.37 158.8 88.09 156.11 90.78 139.84" fill="#fff"/><path d="M1318.77,1312.21l-18.25-3,3-18.25,18.25,3Zm-15.95-4.66,14.3,2.36,2.36-14.3-14.3-2.36Z" transform="translate(-1200.46 -1132.43)" fill="#fff"/><polygon points="103.59 159.63 117.18 178.58 100.91 175.9 103.59 159.63" fill="#fff"/><path d="M1336.07,1315.35l-18.25-3,3-18.25,18.25,3Zm-15.95-4.66,14.3,2.36,2.36-14.3-14.3-2.36Z" transform="translate(-1200.46 -1132.43)" fill="#fff"/><polygon points="120.89 162.77 134.48 181.72 118.21 179.04 120.89 162.77" fill="#fff"/><path d="M1352.57,1318.07l-18.25-3,3-18.25,18.25,3Zm-15.95-4.66,14.3,2.36,2.36-14.3-14.3-2.36Z" transform="translate(-1200.46 -1132.43)" fill="#fff"/><polygon points="137.39 165.49 150.98 184.44 134.71 181.76 137.39 165.49" fill="#fff"/><path d="M1332.84,1332.35l-18.25-3,3-18.25,18.25,3Zm-15.95-4.66,14.3,2.36,2.36-14.3-14.3-2.36Z" transform="translate(-1200.46 -1132.43)" fill="#fff"/><polygon points="117.66 179.76 131.25 198.72 114.97 196.03 117.66 179.76" fill="#fff"/><path d="M1322.74,1295.19l-18.25-3,3-18.25,18.25,3Zm-15.95-4.66,14.3,2.36,2.36-14.3-14.3-2.36Z" transform="translate(-1200.46 -1132.43)" fill="#fff"/><polygon points="107.56 142.61 121.15 161.56 104.88 158.88 107.56 142.61" fill="#fff"/><path d="M1339.81,1298l-18.25-3,3-18.25,18.25,3Zm-15.95-4.66,14.3,2.36,2.36-14.3-14.3-2.36Z" transform="translate(-1200.46 -1132.43)" fill="#fff"/><polygon points="124.63 145.42 138.22 164.38 121.95 161.7 124.63 145.42" fill="#fff"/><path d="M1356.3,1300.73l-18.25-3,3-18.25,18.25,3Zm-15.95-4.66,14.3,2.36,2.36-14.3-14.3-2.36Z" transform="translate(-1200.46 -1132.43)" fill="#fff"/><polygon points="141.13 148.14 154.72 167.1 138.44 164.41 141.13 148.14" fill="#fff"/><path d="M1373.09,1303.5l-18.25-3,3-18.25,18.25,3Zm-15.95-4.66,14.3,2.36,2.36-14.3-14.3-2.36Z" transform="translate(-1200.46 -1132.43)" fill="#fff"/><polygon points="157.91 150.91 171.5 169.87 155.22 167.18 157.91 150.91" fill="#fff"/><rect x="1374.19" y="1261.22" width="30.23" height="2" transform="translate(-1282.23 1295.69) rotate(-80.65)" fill="#fff"/><rect x="1267" y="1242.58" width="30.44" height="2" transform="translate(-1353.54 1174.41) rotate(-80.65)" fill="#fff"/><path d="M1424.84,1243.34l-0.06-.69a6.1,6.1,0,0,1,1.62-4.61c1.19-1.42,1.84-2.46,1.83-3.65,0-1.35-.86-2.25-2.54-2.27a4.72,4.72,0,0,0-2.68.84l-0.65-1.67a7,7,0,0,1,3.79-1.09c3.06,0,4.45,1.85,4.46,3.87,0,1.81-1,3.11-2.25,4.64a5.26,5.26,0,0,0-1.49,3.92l0,0.69h-2.07Zm-0.56,3.72a1.57,1.57,0,0,1,1.58-1.69,1.66,1.66,0,1,1-1.58,1.69" transform="translate(-1200.46 -1132.43)" fill="#fff"/><rect x="1400.21" y="1222.9" width="13.28" height="1.33" transform="translate(-1209.53 -1121.92) rotate(-0.43)" fill="#fff"/><polygon points="177.42 59.81 177.47 66.06 183.47 66.02 183.48 67.61 177.48 67.65 177.52 73.95 175.82 73.96 175.78 67.67 169.77 67.71 169.76 66.11 175.77 66.07 175.72 59.83 177.42 59.81" fill="#fff"/></svg>