<svg id="Warstwa_1" data-name="Warstwa 1" xmlns="http://www.w3.org/2000/svg" viewBox="0 0 373.62 330.86"><title>cv-computer</title><path d="M1213.64,1572.36c-2,0-4.15.42-4.14,2.36a1.68,1.68,0,0,0,1.79,1.81,2.6,2.6,0,0,0,2.52-1.75,2,2,0,0,0,.11-0.6v-1.81h-0.28m-2.85,5.57a3,3,0,0,1-3.18-3c0-2.51,2.21-3.89,6.21-3.89h0.06v-0.22a2.15,2.15,0,0,0-2.37-2.41h0a5.19,5.19,0,0,0-2.71.78l-0.44-1.25a6.46,6.46,0,0,1,3.43-.94c3.19,0,4,2.17,4,4.26v3.9a15.06,15.06,0,0,0,.18,2.5h-1.72l-0.15-1.32H1214a3.88,3.88,0,0,1-3.19,1.56h0" transform="translate(-1138.7 -1471.85)" fill="#137154"/><path d="M1403.92,1560.56l0-1.51h0.47c1.53-.06,2.18-0.9,2.14-2.43a16.59,16.59,0,0,0-.24-2,12.47,12.47,0,0,1-.27-2.08c0-1.75.71-2.7,1.9-3v-0.05c-1.21-.3-2-1.16-2-2.91a12.55,12.55,0,0,1,.17-2.09,16,16,0,0,0,.15-1.95c0-1.47-.62-2.31-2.2-2.31h-0.52l0-1.51h0.72c2.24,0,3.85,1,3.91,3.5a15.65,15.65,0,0,1-.17,2.28,16.28,16.28,0,0,0-.17,2.31c0,0.94.31,2,2.15,2H1410l0,1.4c-1.95,0-2.19,1.23-2.18,2.08a14.82,14.82,0,0,0,.27,2.21,16.07,16.07,0,0,1,.27,2.24c0.06,2.77-1.64,3.79-3.89,3.84h-0.57" transform="translate(-1138.7 -1471.85)" fill="#0f8f68"/><polygon points="278 264.13 107.13 264.13 107.44 156.36 140.41 156.41 140.41 159.41 110.43 159.36 110.13 261.13 275 261.13 275 160.27 245.62 160.27 245.62 157.27 278 157.27 278 264.13" fill="#4a31ff"/><polygon points="68.98 139.7 68.92 139.7 65.64 141.66 65.05 139.69 69.17 137.24 71.4 137.14 72.26 156.48 69.73 156.59 68.98 139.7" fill="#47FF3F"/><polygon points="113.18 121.83 118.8 108.54 120.06 108.58 114.42 121.87 113.18 121.83" fill="#47FF3F"/><polygon points="119.55 122.04 125.17 108.75 126.43 108.79 120.79 122.08 119.55 122.04" fill="#47FF3F"/><polygon points="3.61 260.88 2.37 260.83 7.99 247.55 9.25 247.59 3.61 260.88" fill="#1b352d"/><polygon points="9.98 261.08 8.73 261.04 14.35 247.76 15.62 247.8 9.98 261.08" fill="#1b352d"/><path d="M1142.76,1688.26h-0.39c-1.54-.05-2.67-0.76-2.61-2.63a10.84,10.84,0,0,1,.2-1.52,10.47,10.47,0,0,0,.2-1.5,1.27,1.27,0,0,0-1.46-1.42l0-.95h0.11a1.22,1.22,0,0,0,1.44-1.33,11.53,11.53,0,0,0-.1-1.56,10.65,10.65,0,0,1-.1-1.55,2.29,2.29,0,0,1,2.61-2.35h0.55l0,1h-0.43a1.33,1.33,0,0,0-1.43,1.55,8,8,0,0,0,.09,1.32,8.5,8.5,0,0,1,.08,1.41,1.78,1.78,0,0,1-1.4,2v0a1.79,1.79,0,0,1,1.27,2.07,8.27,8.27,0,0,1-.18,1.4,8.13,8.13,0,0,0-.17,1.33,1.36,1.36,0,0,0,1.41,1.66h0.33l0,1" transform="translate(-1138.7 -1471.85)" fill="#184b3b"/><path d="M1202.18,1658.27v-1.61l2-2c4.91-4.74,7.13-7.25,7.14-10.17,0-2-1-3.77-3.87-3.76a6.59,6.59,0,0,0-4.1,1.67l-0.85-1.84a8.49,8.49,0,0,1,5.46-2c4.17,0,5.94,2.82,6,5.58,0,3.57-2.55,6.48-6.6,10.44l-1.54,1.44v0.06l8.69-.06v2.17Z" transform="translate(-1138.7 -1471.85)" fill="#47FF3F"/><polygon points="138.73 87.31 126.19 94.15 126.14 92.26 136.8 86.62 136.8 86.57 125.87 81.47 125.82 79.58 138.69 85.78 138.73 87.31" fill="#47FF3F"/><path d="M1318.93,1513.81a13.56,13.56,0,0,0-2,8.56,13.86,13.86,0,0,0,3.14,8.16l-1.42.09a13.29,13.29,0,0,1-3.24-8.15,13.56,13.56,0,0,1,2.13-8.57Z" transform="translate(-1138.7 -1471.85)" fill="#47FF3F"/><path d="M1320.86,1530.47a13.91,13.91,0,0,0,2-8.56,13.63,13.63,0,0,0-3.14-8.16l1.39-.09a13.1,13.1,0,0,1,3.24,8.17,13.35,13.35,0,0,1-2.13,8.54Z" transform="translate(-1138.7 -1471.85)" fill="#47FF3F"/><path d="M1394.27,1521.44a13.29,13.29,0,0,1-3.24-8.15,13.55,13.55,0,0,1,2.13-8.57l1.41-.09a13.54,13.54,0,0,0-2,8.56,13.85,13.85,0,0,0,3.14,8.16l-1.41.09" transform="translate(-1138.7 -1471.85)" fill="#0f8f68"/><path d="M1396.51,1521.3a13.91,13.91,0,0,0,2-8.56,13.62,13.62,0,0,0-3.14-8.16l1.39-.09a13.08,13.08,0,0,1,3.24,8.17,13.33,13.33,0,0,1-2.13,8.54l-1.4.09" transform="translate(-1138.7 -1471.85)" fill="#0f8f68"/><polygon points="310.7 203.92 319.25 198.77 319.34 200.09 312.12 204.33 312.13 204.37 319.84 207.61 319.93 208.93 310.76 204.96 310.7 203.92" fill="#47FF3F"/><polygon points="321.22 209.61 325.63 195.42 326.93 195.33 322.5 209.53 321.22 209.61" fill="#47FF3F"/><polygon points="337.56 203.2 329 208.33 328.91 207.01 336.19 202.77 336.19 202.73 328.41 199.49 328.33 198.17 337.49 202.13 337.56 203.2" fill="#47FF3F"/><path d="M1240.47,1547.46c-1.72,0-2.76,1.52-2.78,3.55,0,1.87.88,3.43,2.7,3.45h0a2.53,2.53,0,0,0,2.46-2,2.78,2.78,0,0,0,.08-0.73l0-1.61a3,3,0,0,0-.07-0.71,2.48,2.48,0,0,0-2.41-2h0m-0.52,8.36h0c-2.24,0-3.94-1.93-3.92-4.75,0-3.06,1.92-4.93,4.16-4.93h0a3.1,3.1,0,0,1,2.78,1.44h0l0.05-5.53,1.68,0-0.11,11.19c0,0.82,0,1.76.05,2.39l-1.51,0-0.06-1.61h0a3.41,3.41,0,0,1-3.13,1.79" transform="translate(-1138.7 -1471.85)" fill="#0f8f68"/><polygon points="27.73 157.36 27.71 155.47 38.47 150.02 38.47 149.97 27.64 144.67 27.63 142.78 40.39 149.22 40.39 150.75 27.73 157.36" fill="#127859"/><polygon points="308.06 62.63 308.04 60.74 318.8 55.29 318.8 55.24 307.97 49.94 307.95 48.05 320.71 54.48 320.73 56.02 308.06 62.63" fill="#1b352d"/><polygon points="60.22 247.06 67.72 227.14 69.58 227.13 62.05 247.05 60.22 247.06" fill="#47FF3F"/><path d="M1285.56,1535.66c-0.21,3.49-2.15,5.11-4.28,5s-3.74-1.88-3.57-5.22,2.12-5.06,4.31-4.93,3.74,2,3.55,5.17m-6.07-.21c-0.18,2.11.51,3.76,1.91,3.84s2.23-1.45,2.36-3.64c0.12-2-.36-3.73-1.92-3.82-1.4-.08-2.24,1.53-2.36,3.61m1.21,12.13,10.75-16.52,1.43,0.09-10.75,16.52Zm15.21-4.43c-0.21,3.49-2.15,5.11-4.26,5s-3.74-1.88-3.57-5.2,2.12-5.08,4.31-5,3.71,2,3.52,5.17m-6.07-.21c-0.15,2.11.57,3.76,1.94,3.85s2.23-1.45,2.36-3.64c0.12-2-.36-3.73-1.92-3.82-1.4-.08-2.26,1.52-2.39,3.61" transform="translate(-1138.7 -1471.85)" fill="#47FF3F"/><path d="M1455,1648.32l0-1.64,14.14,0.31,0,1.65Zm0.12-5.37,0-1.64,14.14,0.31,0,1.64Z" transform="translate(-1138.7 -1471.85)" fill="#47FF3F"/><path d="M1146.62,1640.78a1.72,1.72,0,0,1,0-3.43h0a1.72,1.72,0,0,1,0,3.43h0m-2.47,12.8a39.6,39.6,0,0,0,1.5-6.59l2.65-.33a35,35,0,0,1-2.48,6.72l-1.67.2" transform="translate(-1138.7 -1471.85)" fill="#1b352d"/><path d="M1170.06,1673.67h-0.12c-2.41.06-4.31,2.37-4.25,5a1.81,1.81,0,0,0,1.8,2h0.06c1.59,0,3-2.1,3.26-3.8l0.51-3.11a4.68,4.68,0,0,0-1.26-.16m-2,13.17a8.15,8.15,0,0,1-8.28-8.36c-0.13-5.64,3.68-10.61,9.76-10.75h0.23a7.59,7.59,0,0,1,7.92,7.74c0.09,4.11-2.15,6.57-4.73,6.63h-0.05a2,2,0,0,1-2-2.37h-0.11a4.3,4.3,0,0,1-3.81,2.5h-0.07c-1.56,0-2.92-1.25-3-3.39a6.48,6.48,0,0,1,6.35-6.64h0.18a7.11,7.11,0,0,1,2.77.51l-0.82,5c-0.36,2.09,0,3,.89,3.05,1.4,0,2.92-1.9,2.84-5.08-0.09-3.91-2.46-6.67-6.57-6.67h-0.21c-4.47.1-8.14,3.72-8,9.28,0.1,4.5,3.06,7.24,7,7.24h0.2a8.53,8.53,0,0,0,4.11-1.05l0.47,1.17a10,10,0,0,1-4.85,1.2H1168" transform="translate(-1138.7 -1471.85)" fill="#0f8f68"/><path d="M1456.09,1621.2l0.55-5.39-2.25.07,0-1.62,2.49-.07,0.4-4-2.35.07,0-1.62,2.6-.08,0.56-5.25,1.59,0-0.53,5.25,2.85-.08,0.56-5.25,1.62,0-0.53,5.25,2.25-.07,0,1.62-2.49.08-0.37,4,2.35-.07,0,1.62-2.6.08-0.55,5.39-1.64,0,0.55-5.39-2.85.08-0.55,5.39Zm5.24-7.15,0.4-4-2.85.08-0.4,4Z" transform="translate(-1138.7 -1471.85)" fill="#47FF3F"/><path d="M1354.3,1492.51h-0.06c-1.46,0-2.46,1.85-2.36,5.2,0.09,3.16,1.11,4.94,2.59,4.94h0.05c1.7-.05,2.46-2.06,2.36-5.2s-0.91-4.94-2.58-4.94m0,11.43c-2.34,0-4-2.2-4.14-6.2s1.59-6.45,4.08-6.52h0.13c2.52,0,4,2.25,4.13,6.1,0.13,4.18-1.36,6.53-4.08,6.61h-0.12" transform="translate(-1138.7 -1471.85)" fill="#184b3b"/><polygon points="225.17 31.6 224.85 20.86 224.81 20.86 222.71 22.08 222.35 20.82 224.99 19.3 226.41 19.26 226.78 31.55 225.17 31.6" fill="#184b3b"/><path d="M1510.21,1474.22a1.11,1.11,0,0,1-1.11-1.14,1.12,1.12,0,0,1,1.1-1.23h0a1.11,1.11,0,0,1,1.11,1.16,1.1,1.1,0,0,1-1.1,1.2h0m0.2,6.68a1.18,1.18,0,0,1,0-2.36h0a1.12,1.12,0,0,1,1.11,1.16,1.1,1.1,0,0,1-1.1,1.21h0" transform="translate(-1138.7 -1471.85)" fill="#184b3b"/><path d="M1237.67,1503.52a1.18,1.18,0,0,1,0-2.36h0a1.12,1.12,0,0,1,1.11,1.16,1.1,1.1,0,0,1-1.1,1.21h0m0.2,6.68a1.18,1.18,0,0,1,0-2.36h0a1.19,1.19,0,0,1,0,2.36h0" transform="translate(-1138.7 -1471.85)" fill="#184b3b"/><path d="M1241.59,1503.4a1.19,1.19,0,0,1,0-2.36h0a1.12,1.12,0,0,1,1.11,1.16,1.1,1.1,0,0,1-1.1,1.21h0m0.2,6.68a1.18,1.18,0,0,1,0-2.36h0a1.12,1.12,0,0,1,1.11,1.16,1.11,1.11,0,0,1-1.1,1.21h0" transform="translate(-1138.7 -1471.85)" fill="#184b3b"/><polygon points="296.87 123.79 297.17 107.74 300.86 107.81 300.83 108.91 298.52 108.87 298.26 122.7 300.58 122.75 300.56 123.86 296.87 123.79" fill="#47FF3F"/><polygon points="309.58 107.95 309.28 124.02 305.6 123.95 305.62 122.84 307.93 122.89 308.19 109.03 305.87 108.99 305.89 107.88 309.58 107.95" fill="#47FF3F"/><rect x="1199.22" y="1681.2" width="13.7" height="1.37" transform="translate(-1169.06 -1449.66) rotate(-1.04)" fill="#47FF3F"/><path d="M1177.49,1583.1a0.81,0.81,0,0,1-.82-0.82,0.83,0.83,0,0,1,.84-0.86h0a0.84,0.84,0,0,1,0,1.69h0m-0.47,8.77-0.14-7.49,1.36,0,0.14,7.49-1.36,0" transform="translate(-1138.7 -1471.85)" fill="#0f8f68"/><path d="M1363.58,1537.13c-0.13,4.53-1.88,7-4.83,6.9-2.6-.07-4.3-2.56-4.22-7s2.12-6.87,4.83-6.8,4.34,2.63,4.22,6.87m-7.24,0c-0.1,3.47.91,5.46,2.55,5.51,1.84,0.05,2.79-2.08,2.88-5.48s-0.69-5.46-2.55-5.51c-1.58,0-2.78,1.85-2.88,5.48" transform="translate(-1138.7 -1471.85)" fill="#47FF3F"/><path d="M1427.79,1537.21c-1.55,0-2.73,1.89-2.83,5.48s0.91,5.46,2.55,5.51h0.07c1.8,0,2.72-2.12,2.81-5.48s-0.69-5.46-2.55-5.51h-0.05m-0.27,12.38h-0.14c-2.6-.07-4.3-2.56-4.22-7s2.06-6.8,4.71-6.8H1428c2.81,0.08,4.34,2.62,4.22,6.87-0.13,4.46-1.82,6.9-4.69,6.9" transform="translate(-1138.7 -1471.85)" fill="#11815f"/><path d="M1417.3,1576.52l0-.53a4.7,4.7,0,0,1,1.25-3.56,4.5,4.5,0,0,0,1.42-2.82,1.71,1.71,0,0,0-2-1.75,3.65,3.65,0,0,0-2.07.65l-0.5-1.29a5.37,5.37,0,0,1,2.93-.84c2.36,0,3.43,1.43,3.45,3,0,1.39-.76,2.4-1.74,3.58a4.05,4.05,0,0,0-1.15,3l0,0.53h-1.6Zm-0.43,2.87a1.21,1.21,0,0,1,1.22-1.3,1.28,1.28,0,1,1-1.22,1.3" transform="translate(-1138.7 -1471.85)" fill="#47FF3F"/><path d="M1169.48,1706.83l0-.53a4.71,4.71,0,0,1,1.24-3.56,4.48,4.48,0,0,0,1.41-2.82,1.71,1.71,0,0,0-2-1.75,3.64,3.64,0,0,0-2.07.65l-0.5-1.29a5.39,5.39,0,0,1,2.93-.84h0c2.33,0,3.4,1.44,3.41,3,0,1.39-.76,2.4-1.74,3.58a4.05,4.05,0,0,0-1.15,3l0,0.53h-1.6m0.78,4.14a1.28,1.28,0,0,1,0-2.56h0a1.28,1.28,0,0,1,0,2.56h0" transform="translate(-1138.7 -1471.85)" fill="#184b3b"/><path d="M1297.44,1500.1l-0.1-14.56h1.78l0.07,9.19h0c0.24-.35.59-0.78,0.88-1.14l2.89-3.44,2.17,0-3.8,4.11,4.41,5.81h-2.19l-3.46-4.73-0.91,1,0,3.73h-1.78" transform="translate(-1138.7 -1471.85)" fill="#184b3b"/><path d="M1421.7,1517.57a29.21,29.21,0,0,0,1.18-4.8l1.86-.22a23.58,23.58,0,0,1-1.89,4.87l-1.15.15m-3,0a29.18,29.18,0,0,0,1.17-4.81l1.84-.22a23.61,23.61,0,0,1-1.87,4.87l-1.15.15" transform="translate(-1138.7 -1471.85)" fill="#184b3b"/><polygon points="69.74 68.56 69.63 52.22 73.38 52.19 73.39 53.32 71.03 53.33 71.13 67.42 73.49 67.41 73.5 68.53 69.74 68.56" fill="#184b3b"/><path d="M1220.7,1597.22l0.06-1.23,10.57,0.55-0.06,1.23Zm0.21-4L1221,1592l10.57,0.55-0.06,1.23Z" transform="translate(-1138.7 -1471.85)" fill="#47FF3F"/><path d="M1453.43,1701.84a1.1,1.1,0,0,1,.3-1.59,1.17,1.17,0,1,1-.3,1.59" transform="translate(-1138.7 -1471.85)" fill="#47FF3F"/><path d="M1342.88,1514.13a1.21,1.21,0,0,1,.33-1.75,1.29,1.29,0,0,1,1.39,2.18,1.21,1.21,0,0,1-1.72-.43" transform="translate(-1138.7 -1471.85)" fill="#47FF3F"/><path d="M1291.69,1523.35a1.21,1.21,0,0,1,.33-1.75,1.29,1.29,0,1,1-.33,1.75" transform="translate(-1138.7 -1471.85)" fill="#47FF3F"/><path d="M1396.17,1588.23a1.1,1.1,0,0,1,.3-1.59,1.17,1.17,0,1,1-.3,1.59" transform="translate(-1138.7 -1471.85)" fill="#47FF3F"/><path d="M1378,1569.76a2.92,2.92,0,0,0,2-.8c0.48-.58.65-1.37,0.59-3.75l-0.19-8.3,1.8,0,0.21,9c0,1.93-.23,3.18-1.09,4.11a4.58,4.58,0,0,1-3,1.2Zm4.3-15.69a1.06,1.06,0,0,1-1.1,1.13,1.08,1.08,0,0,1-1.13-1.08,1.1,1.1,0,0,1,1.12-1.15,1.07,1.07,0,0,1,1.11,1.1" transform="translate(-1138.7 -1471.85)" fill="#47FF3F"/><path d="M1179.61,1559.82a39.09,39.09,0,0,0,1.47-6.45l2.49-.33a31.65,31.65,0,0,1-2.43,6.55l-1.53.23m-4.05.09a39.11,39.11,0,0,0,1.47-6.45l2.46-.33a31.63,31.63,0,0,1-2.4,6.55l-1.53.23" transform="translate(-1138.7 -1471.85)" fill="#1b352d"/><path d="M1262.87,1515.13l4.56-6.88-4.64-6.39,2.69-.06,2,2.81c0.51,0.73.94,1.4,1.39,2.13h0.08c0.42-.81.84-1.5,1.27-2.22l1.8-2.86,2.6-.06-4.37,6.51,4.82,6.75-2.74.06-2-2.94c-0.54-.75-1-1.48-1.47-2.27h-0.06c-0.42.81-.87,1.53-1.34,2.33l-1.85,3-2.66.06" transform="translate(-1138.7 -1471.85)" fill="#0f8f68"/><path d="M1498.15,1516.49l-0.05-7.24c0-1,0-1.87-.1-2.69h1.58l0.09,1.6h0.06a3.42,3.42,0,0,1,3.1-1.85h0a2.94,2.94,0,0,1,2.8,2h0a4.08,4.08,0,0,1,1.1-1.3,3.41,3.41,0,0,1,2.19-.71h0c1.31,0,3.25.86,3.27,4.29l0,5.84h-1.76l0-5.62c0-1.9-.71-3-2.16-3h0a2.33,2.33,0,0,0-2.12,1.65,3,3,0,0,0-.14.9l0,6.13h-1.77l0-5.95c0-1.57-.71-2.71-2.08-2.71h0a2.69,2.69,0,0,0-2.36,2.71l0,6h-1.76" transform="translate(-1138.7 -1471.85)" fill="#184b3b"/><polygon points="316.06 83.36 314.88 82.64 316.82 80.12 316.82 80.08 313.78 80.49 313.77 79.1 316.79 79.46 316.79 79.42 314.84 76.94 316.09 76.21 317.38 79.05 317.42 79.05 318.65 76.17 319.89 76.86 317.96 79.44 317.96 79.48 321.05 79.05 321.06 80.44 317.96 80.09 317.96 80.13 319.95 82.58 318.66 83.33 317.41 80.47 317.37 80.47 316.06 83.36" fill="#184b3b"/><path d="M1389.65,1790.63H1189.76l45.76-47.63h192.31Zm-192.85-3h191.41l33.36-41.63H1236.8Z" transform="translate(-1138.7 -1471.85)" fill="#4a31ff"/><polygon points="287.08 274.25 95.68 274.25 95.68 148.61 140.41 148.61 140.41 151.61 98.68 151.61 98.68 271.25 284.08 271.25 284.08 151.67 245.62 151.67 245.62 148.67 287.08 148.67 287.08 274.25" fill="#4a31ff"/><path d="M1393.27,1802.71h-0.72l-201.45-.61,0.72-13.6,43.7-45.55h188.42l12.39-12.39v19.25Zm-199-3.6,197.58,0.6,41.48-51V1737.8l-8.14,8.15H1236.8l-42,43.82Z" transform="translate(-1138.7 -1471.85)" fill="#4a31ff"/><polygon points="286.4 274.14 95.88 274.14 95.96 154.24 95.87 149.22 108.84 141.37 140.12 141.27 140.13 144.27 109.68 144.37 98.9 150.89 98.96 154.21 98.88 271.14 285.16 271.14 294.56 261.74 296.14 144.42 245.62 144.42 245.62 141.42 299.18 141.42 297.54 263 286.4 274.14" fill="#4a31ff"/><path d="M1300.46,1802.1h-29v-13.87h29v13.87Zm-26-3h23v-7.87h-23v7.87Z" transform="translate(-1138.7 -1471.85)" fill="#4a31ff"/><path d="M1286.17,1759.29h-25.83l10.8-11.44H1297Zm-21.18-2h20.32l7-7.44H1272Z" transform="translate(-1138.7 -1471.85)" fill="#47FF3F"/><polygon points="133.14 277.26 123.96 286.44 147.04 286.44 133.14 277.26" fill="#47FF3F"/><path d="M1256.58,1759.29h-25.83l10.8-11.44h25.82Zm-21.18-2h20.32l7-7.44h-20.32Z" transform="translate(-1138.7 -1471.85)" fill="#47FF3F"/><polygon points="103.55 277.26 94.38 286.44 117.45 286.44 103.55 277.26" fill="#47FF3F"/><path d="M1314.49,1759.29h-25.83l10.81-11.44h25.82Zm-21.18-2h20.32l7-7.44h-20.32Z" transform="translate(-1138.7 -1471.85)" fill="#47FF3F"/><polygon points="161.46 277.26 152.28 286.44 175.35 286.44 161.46 277.26" fill="#47FF3F"/><path d="M1343.85,1759.29H1318l10.81-11.44h25.82Zm-21.18-2H1343l7-7.44h-20.32Z" transform="translate(-1138.7 -1471.85)" fill="#47FF3F"/><polygon points="190.82 277.26 181.65 286.44 204.72 286.44 190.82 277.26" fill="#47FF3F"/><path d="M1373.22,1759.29h-25.82l10.8-11.44H1384Zm-21.18-2h20.32l7-7.44h-20.32Z" transform="translate(-1138.7 -1471.85)" fill="#47FF3F"/><polygon points="220.19 277.26 211.01 286.44 234.09 286.44 220.19 277.26" fill="#47FF3F"/><path d="M1403.41,1759.29h-25.83l10.8-11.44h25.82Zm-21.18-2h20.32l7-7.44h-20.32Z" transform="translate(-1138.7 -1471.85)" fill="#47FF3F"/><polygon points="250.38 277.26 241.21 286.44 264.28 286.44 250.38 277.26" fill="#47FF3F"/><path d="M1274.7,1773.17h-25.83l10.81-11.44h25.82Zm-21.18-2h20.32l7-7.44h-20.32Z" transform="translate(-1138.7 -1471.85)" fill="#47FF3F"/><polygon points="121.67 291.15 112.49 300.32 135.56 300.32 121.67 291.15" fill="#47FF3F"/><path d="M1326.32,1787.36h-70.68l11.75-12.44h70.68Zm-63.72-3H1325l6.08-6.44h-62.43Z" transform="translate(-1138.7 -1471.85)" fill="#47FF3F"/><path d="M1245.11,1773.17h-25.83l10.81-11.44h25.82Zm-21.18-2h20.32l7-7.44h-20.32Z" transform="translate(-1138.7 -1471.85)" fill="#47FF3F"/><polygon points="92.08 291.15 82.9 300.32 105.97 300.32 92.08 291.15" fill="#47FF3F"/><path d="M1303,1773.17h-25.82l10.8-11.44h25.82Zm-21.18-2h20.32l7-7.44h-20.32Z" transform="translate(-1138.7 -1471.85)" fill="#47FF3F"/><polygon points="149.99 291.15 140.81 300.32 163.88 300.32 149.99 291.15" fill="#47FF3F"/><path d="M1332.38,1773.17h-25.82l10.8-11.44h25.82Zm-21.18-2h20.32l7-7.44h-20.32Z" transform="translate(-1138.7 -1471.85)" fill="#47FF3F"/><polygon points="179.35 291.15 170.17 300.32 193.25 300.32 179.35 291.15" fill="#47FF3F"/><path d="M1361.74,1773.17h-25.83l10.8-11.44h25.82Zm-21.18-2h20.32l7-7.44h-20.32Z" transform="translate(-1138.7 -1471.85)" fill="#47FF3F"/><polygon points="208.72 291.15 199.54 300.32 222.61 300.32 208.72 291.15" fill="#47FF3F"/><path d="M1391.94,1773.17h-25.83l10.81-11.44h25.82Zm-21.18-2h20.32l7-7.44h-20.32Z" transform="translate(-1138.7 -1471.85)" fill="#47FF3F"/><polygon points="238.91 291.15 229.73 300.32 252.81 300.32 238.91 291.15" fill="#47FF3F"/><polygon points="129.55 304.6 187.22 313.96 120.19 313.96 129.55 304.6" fill="#47FF3F"/><path d="M1379.26,1698.06h-95.16v-122.3l77.28-.27,17.88,17.88v104.68Zm-90.92-4.24H1375v-98.69l-15.45.19,0.06-15.58-71.29.25v113.83Z" transform="translate(-1138.7 -1471.85)" fill="#47FF3F"/><path d="M1322.43,1644a4,4,0,0,1-.68,1.16,2.87,2.87,0,0,1-1,.76,3.43,3.43,0,0,1-1.46.27,3.63,3.63,0,0,1-2-.51,3.94,3.94,0,0,1-1.28-1.38,6.51,6.51,0,0,1-.68-1.94,10.1,10.1,0,0,1-.22-2.17,10.39,10.39,0,0,1,.22-2.19,6.46,6.46,0,0,1,.68-1.94,4,4,0,0,1,1.28-1.37,3.57,3.57,0,0,1,2-.52,3.14,3.14,0,0,1,1.7.41,3.38,3.38,0,0,1,1.07.92,3.24,3.24,0,0,1,.55,1c0.11,0.36.18,0.64,0.23,0.85h6.57a9.68,9.68,0,0,0-2.9-6.41q-2.48-2.26-7-2.29a12.18,12.18,0,0,0-4.6.83,9.89,9.89,0,0,0-5.73,5.95,13.53,13.53,0,0,0-.79,4.71,13.71,13.71,0,0,0,.74,4.53,10.05,10.05,0,0,0,5.65,6.06,12,12,0,0,0,4.74.9,10.76,10.76,0,0,0,4.26-.81,9.48,9.48,0,0,0,3.16-2.11,8.84,8.84,0,0,0,1.93-2.92,8.65,8.65,0,0,0,.67-3.29h-6.64a8.72,8.72,0,0,1-.41,1.45" transform="translate(-1138.7 -1471.85)" fill="#47FF3F"/><polygon points="201.81 170.63 201.75 170.63 198.16 157.32 191.33 157.32 197.89 179.26 205.43 179.26 212.29 157.32 205.35 157.32 201.81 170.63" fill="#47FF3F"/></svg>
