<svg id="Warstwa_1" data-name="Warstwa 1" xmlns="http://www.w3.org/2000/svg" viewBox="0 0 264.05 272.18"><title>cv-file</title><polygon points="206.34 180.32 206.29 180.33 203.36 182.08 202.83 180.32 206.51 178.14 208.5 178.05 209.26 195.3 207.01 195.4 206.34 180.32" fill="#47FF3F"/><polygon points="96.64 22.26 95.53 22.23 100.55 10.37 101.67 10.41 96.64 22.26" fill="#a2ff9e"/><polygon points="102.32 22.45 101.21 22.41 106.23 10.56 107.35 10.6 102.32 22.45" fill="#a2ff9e"/><polygon points="141.53 271.3 140.43 271.26 145.44 259.41 146.57 259.45 141.53 271.3" fill="#264b18"/><polygon points="147.22 271.49 146.11 271.45 151.12 259.6 152.25 259.63 147.22 271.49" fill="#264b18"/><polygon points="24.43 56.68 23.32 56.64 28.33 44.79 29.46 44.83 24.43 56.68" fill="#264b18"/><polygon points="30.11 56.87 29 56.83 34.01 44.97 35.14 45.01 30.11 56.87" fill="#264b18"/><path d="M1320.68,1881.11v-1.43l1.82-1.79c4.38-4.23,6.36-6.47,6.37-9.08a3.08,3.08,0,0,0-3.45-3.35,5.88,5.88,0,0,0-3.66,1.49l-0.76-1.64a7.58,7.58,0,0,1,4.88-1.79c3.72,0,5.3,2.51,5.32,5,0,3.19-2.27,5.78-5.89,9.31l-1.37,1.29v0.05l7.76-.05V1881Z" transform="translate(-1175.02 -1829.75)" fill="#47FF3F"/><path d="M1253.43,2072.62c0-2.18,1.28-3.73,3.4-4.65l0-.08A4.28,4.28,0,0,1,1254,2064c0-2.74,2.28-4.61,5.31-4.63,3.35,0,5,2.06,5.05,4.21a4.39,4.39,0,0,1-2.81,4.06v0.08c2.16,0.83,3.5,2.34,3.51,4.44,0,3-2.54,5-5.84,5.06-3.61,0-5.81-2.11-5.82-4.64m9.3-.17c0-2.1-1.48-3.1-3.82-3.75-2,.6-3.1,1.93-3.08,3.58a3.19,3.19,0,0,0,3.48,3.27c2.1,0,3.45-1.33,3.43-3.1m-6.49-8.59c0,1.73,1.32,2.65,3.32,3.16a3.4,3.4,0,0,0,2.61-3.15,2.69,2.69,0,0,0-2.94-2.8,2.75,2.75,0,0,0-3,2.78" transform="translate(-1175.02 -1829.75)" fill="#47FF3F"/><path d="M1210.08,2017c-1.79,0-3.71.38-3.71,2.11a1.5,1.5,0,0,0,1.6,1.62,2.32,2.32,0,0,0,2.25-1.56,1.8,1.8,0,0,0,.1-0.54V2017h-0.24m-2.56,5a2.65,2.65,0,0,1-2.84-2.67c0-2.24,2-3.47,5.55-3.47h0v-0.19a1.92,1.92,0,0,0-2.12-2.15,4.67,4.67,0,0,0-2.42.7l-0.39-1.12a5.8,5.8,0,0,1,3.06-.83h0c2.84,0,3.53,1.94,3.54,3.8v3.48a12.79,12.79,0,0,0,.16,2.23h-1.54l-0.14-1.17h-0.06a3.46,3.46,0,0,1-2.84,1.39h0" transform="translate(-1175.02 -1829.75)" fill="#137154"/><polygon points="169.63 234.85 158.43 240.96 158.39 239.27 167.9 234.24 167.9 234.19 158.14 229.64 158.1 227.95 169.59 233.49 169.63 234.85" fill="#47FF3F"/><path d="M1387.49,1976.18a12.1,12.1,0,0,0-1.81,7.64,12.36,12.36,0,0,0,2.8,7.28l-1.26.08a11.85,11.85,0,0,1-2.89-7.27,12.1,12.1,0,0,1,1.9-7.64Z" transform="translate(-1175.02 -1829.75)" fill="#47FF3F"/><path d="M1389.21,1991a12.42,12.42,0,0,0,1.81-7.64,12.16,12.16,0,0,0-2.8-7.28l1.24-.08a11.68,11.68,0,0,1,2.89,7.29,11.9,11.9,0,0,1-1.9,7.63Z" transform="translate(-1175.02 -1829.75)" fill="#47FF3F"/><path d="M1236.95,2101.14a11.88,11.88,0,0,1-2.45-7.43,12.09,12.09,0,0,1,2.36-7.52h1.26a12.09,12.09,0,0,0-2.26,7.51,12.37,12.37,0,0,0,2.36,7.43h-1.27" transform="translate(-1175.02 -1829.75)" fill="#1b352d"/><path d="M1238.95,2101.12a12.41,12.41,0,0,0,2.26-7.52,12.16,12.16,0,0,0-2.36-7.43h1.25a11.68,11.68,0,0,1,2.45,7.45,11.91,11.91,0,0,1-2.36,7.5h-1.25" transform="translate(-1175.02 -1829.75)" fill="#1b352d"/><path d="M1412.1,1957.39a11.84,11.84,0,0,1-2.89-7.27,12.11,12.11,0,0,1,1.9-7.64l1.26-.08a12.11,12.11,0,0,0-1.81,7.64,12.35,12.35,0,0,0,2.8,7.28l-1.26.08" transform="translate(-1175.02 -1829.75)" fill="#a2ff9e"/><path d="M1414.1,1957.26a12.41,12.41,0,0,0,1.81-7.64,12.16,12.16,0,0,0-2.8-7.27l1.24-.08a11.68,11.68,0,0,1,2.89,7.29,11.89,11.89,0,0,1-1.9,7.63l-1.24.08" transform="translate(-1175.02 -1829.75)" fill="#a2ff9e"/><polygon points="71.82 43.99 79.46 39.4 79.54 40.57 73.1 44.35 73.1 44.39 79.98 47.28 80.06 48.46 71.88 44.91 71.82 43.99" fill="#47FF3F"/><polygon points="81.21 49.07 85.15 36.4 86.31 36.33 82.36 48.99 81.21 49.07" fill="#47FF3F"/><polygon points="95.79 43.34 88.15 47.92 88.08 46.75 94.57 42.96 94.56 42.93 87.63 40.03 87.55 38.86 95.73 42.39 95.79 43.34" fill="#47FF3F"/><path d="M1406.74,1992.92c-1.54,0-2.46,1.35-2.48,3.17s0.79,3.06,2.41,3.08h0a2.26,2.26,0,0,0,2.2-1.77,2.56,2.56,0,0,0,.07-0.65v-1.44a2.6,2.6,0,0,0-.06-0.63,2.21,2.21,0,0,0-2.15-1.76h0m-0.47,7.46h0c-2,0-3.52-1.73-3.49-4.23,0-2.73,1.71-4.4,3.71-4.4h0A2.77,2.77,0,0,1,1409,1993h0l0-4.94,1.5,0-0.1,10c0,0.73,0,1.57,0,2.14h-1.35l-0.05-1.44h0a3,3,0,0,1-2.79,1.59" transform="translate(-1175.02 -1829.75)" fill="#a2ff9e"/><polygon points="160.88 27.71 160.87 26.02 170.47 21.16 170.47 21.11 160.81 16.39 160.79 14.7 172.18 20.44 172.19 21.81 160.88 27.71" fill="#127859"/><polygon points="180.71 266.83 180.7 265.15 190.3 260.29 190.3 260.24 180.63 255.51 180.62 253.82 192.01 259.56 192.02 260.93 180.71 266.83" fill="#1b352d"/><polygon points="54.8 242.68 54.79 240.99 64.4 236.13 64.4 236.08 54.73 231.35 54.71 229.67 66.1 235.41 66.11 236.78 54.8 242.68" fill="#127859"/><path d="M1386.88,1951c-0.47-.46-0.91-0.92-1.55-1.6a6.75,6.75,0,0,1-4.8,1.92c-3.2,0-5.08-2.12-5.1-4.59a5.41,5.41,0,0,1,3.19-4.84v-0.07a5.66,5.66,0,0,1-1.39-3.44,4,4,0,0,1,4.15-4.09,3.43,3.43,0,0,1,3.67,3.47c0,1.74-1,3.11-3.59,4.43v0.07c1.41,1.6,3,3.4,4,4.57a12.1,12.1,0,0,0,1.56-4.83h2a12.53,12.53,0,0,1-2.33,6.11c0.89,0.92,1.75,1.85,2.74,2.89Zm-2.61-2.82c-1-1.07-2.83-3.06-4.69-5.15a4.05,4.05,0,0,0-2.1,3.37,3.25,3.25,0,0,0,3.4,3.3,4.6,4.6,0,0,0,3.39-1.52m-5.09-10a4.62,4.62,0,0,0,1.27,3c1.66-1,2.73-1.85,2.71-3.25a1.94,1.94,0,0,0-1.92-2.11,2.14,2.14,0,0,0-2.06,2.41" transform="translate(-1175.02 -1829.75)" fill="#47FF3F"/><path d="M1407.44,2064.82h0a2.15,2.15,0,0,0-2.06,2.41,4.63,4.63,0,0,0,1.27,3c1.66-1,2.73-1.86,2.71-3.25a1.94,1.94,0,0,0-1.91-2.11m-1.67,7.28a4.05,4.05,0,0,0-2.1,3.37,3.25,3.25,0,0,0,3.37,3.3h0a4.61,4.61,0,0,0,3.39-1.52c-1-1.07-2.83-3.06-4.68-5.15m0.89,8.29c-3.17,0-5-2.13-5-4.59a5.42,5.42,0,0,1,3.19-4.84v-0.07a5.66,5.66,0,0,1-1.39-3.44,4,4,0,0,1,4.15-4.09h0a3.43,3.43,0,0,1,3.63,3.47c0,1.74-1,3.11-3.59,4.43v0.07c1.41,1.6,3,3.4,4,4.57a12.08,12.08,0,0,0,1.56-4.83h2a12.52,12.52,0,0,1-2.33,6.11c0.89,0.92,1.75,1.85,2.74,2.89l-2.55,0c-0.47-.46-0.91-0.92-1.55-1.6a6.75,6.75,0,0,1-4.8,1.92h0" transform="translate(-1175.02 -1829.75)" fill="#1b352d"/><path d="M1233.27,1943.78c-0.19,3.11-1.91,4.56-3.82,4.44s-3.34-1.68-3.19-4.66,1.89-4.51,3.84-4.4,3.33,1.79,3.17,4.61m-5.41-.19c-0.16,1.88.46,3.36,1.71,3.43s2-1.29,2.11-3.25c0.11-1.79-.33-3.32-1.71-3.41s-2,1.36-2.11,3.22m1.08,10.82,9.59-14.74,1.27,0.08-9.59,14.74Zm13.57-4c-0.19,3.11-1.91,4.56-3.8,4.45s-3.34-1.68-3.19-4.64,1.89-4.54,3.84-4.42,3.31,1.79,3.14,4.61m-5.41-.19c-0.14,1.88.5,3.36,1.73,3.43s2-1.29,2.11-3.25c0.11-1.79-.32-3.33-1.71-3.41s-2,1.36-2.13,3.22" transform="translate(-1175.02 -1829.75)" fill="#47FF3F"/><path d="M1426.43,1984.17c-1.2,0-1.91,1.41-2,3.23s0.46,3.35,1.71,3.43h0.11c1.24,0,1.89-1.35,2-3.25s-0.32-3.32-1.71-3.41h-0.09m-0.22,7.86H1426c-1.84-.11-3.34-1.68-3.18-4.66s1.77-4.4,3.64-4.4h0.21c2.07,0.13,3.33,1.8,3.16,4.61-0.18,3-1.79,4.45-3.61,4.45m0.56,6.26-1.28-.08,9.59-14.74,1.27,0.08-9.59,14.74m8.92-7.44c-1.19,0-1.93,1.41-2,3.23s0.5,3.36,1.73,3.43h0.11c1.25,0,1.89-1.35,2-3.25s-0.33-3.32-1.71-3.41h-0.09m-0.22,7.87h-0.2c-1.84-.11-3.34-1.68-3.19-4.64s1.77-4.42,3.64-4.42h0.2c2.07,0.12,3.31,1.79,3.14,4.61-0.18,3-1.79,4.45-3.6,4.45" transform="translate(-1175.02 -1829.75)" fill="#1b352d"/><path d="M1394.76,1861.42l-12.62-.28,0-1.47,12.62,0.28Zm-0.11,4.79-12.62-.28,0-1.47,12.62,0.28,0,1.46" transform="translate(-1175.02 -1829.75)" fill="#1b352d"/><polygon points="224.53 221.25 224.4 215.45 218.87 215.58 218.84 214.11 224.36 213.98 224.23 208.24 225.8 208.2 225.93 213.95 231.45 213.82 231.49 215.29 225.96 215.42 226.09 221.21 224.53 221.25" fill="#a2ff9e"/><path d="M1217.77,1912.57a1.53,1.53,0,0,1,0-3.06h0a1.53,1.53,0,0,1,0,3.06h0m-2.2,11.43a35,35,0,0,0,1.33-5.88l2.37-.3a31.21,31.21,0,0,1-2.21,6l-1.49.18" transform="translate(-1175.02 -1829.75)" fill="#a2ff9e"/><path d="M1285.74,2101.94l-0.06-2.47h-0.07a7.05,7.05,0,0,1-3.7-1l0.54-1.65a6.53,6.53,0,0,0,3.39,1H1286c1.74,0,2.89-1.08,2.85-2.47s-1-2.15-2.84-2.84c-2.52-.92-4.09-2-4.14-4.13a4,4,0,0,1,3.59-4l-0.06-2.47,1.52,0,0.06,2.37a6.51,6.51,0,0,1,3.2.77l-0.57,1.63a5.9,5.9,0,0,0-2.93-.75h-0.17c-1.88,0-2.57,1.19-2.54,2.17,0,1.27,1,1.88,3.1,2.71,2.54,1,3.85,2.2,3.9,4.38a4.25,4.25,0,0,1-3.76,4.25l0.07,2.54-1.54,0" transform="translate(-1175.02 -1829.75)" fill="#1b352d"/><path d="M1407.31,1905.56h-0.11a4.21,4.21,0,0,0-3.79,4.49,1.61,1.61,0,0,0,1.6,1.82h0.05c1.42,0,2.67-1.87,2.91-3.39l0.45-2.77a4.12,4.12,0,0,0-1.11-.15m-1.81,11.76a7.28,7.28,0,0,1-7.4-7.46c-0.11-5,3.28-9.47,8.71-9.6h0.2a6.78,6.78,0,0,1,7.07,6.91c0.09,3.67-1.92,5.87-4.22,5.92h0A1.81,1.81,0,0,1,1408,1911h-0.1a3.84,3.84,0,0,1-3.4,2.23h-0.06a2.78,2.78,0,0,1-2.65-3,5.77,5.77,0,0,1,5.67-5.93h0.18a6.3,6.3,0,0,1,2.45.46l-0.73,4.44c-0.32,1.87,0,2.72.8,2.72,1.25,0,2.6-1.7,2.54-4.54-0.08-3.49-2.2-6-5.87-6h-0.19c-4,.09-7.26,3.32-7.15,8.29,0.09,4,2.73,6.46,6.26,6.46h0.17a7.65,7.65,0,0,0,3.67-.94l0.42,1a8.94,8.94,0,0,1-4.33,1.08h-0.18" transform="translate(-1175.02 -1829.75)" fill="#a2ff9e"/><path d="M1211.09,2064.59H1211a4.21,4.21,0,0,0-3.79,4.49,1.61,1.61,0,0,0,1.61,1.82h0c1.42,0,2.67-1.87,2.91-3.39l0.45-2.77a4.24,4.24,0,0,0-1.13-.15m-1.8,11.76a7.28,7.28,0,0,1-7.4-7.46c-0.11-5,3.28-9.47,8.71-9.6h0.2a6.78,6.78,0,0,1,7.07,6.91c0.08,3.67-1.92,5.87-4.22,5.92h0a1.81,1.81,0,0,1-1.81-2.11h-0.1a3.84,3.84,0,0,1-3.4,2.23h-0.06a2.78,2.78,0,0,1-2.65-3,5.78,5.78,0,0,1,5.67-5.93h0.18a6.33,6.33,0,0,1,2.45.46l-0.73,4.45c-0.32,1.87,0,2.71.8,2.72,1.25,0,2.6-1.7,2.54-4.54-0.08-3.48-2.19-6-5.87-6h-0.19c-4,.09-7.26,3.32-7.15,8.29,0.09,4,2.73,6.46,6.26,6.46h0.18a7.59,7.59,0,0,0,3.67-.94l0.42,1a8.94,8.94,0,0,1-4.33,1.08h-0.18" transform="translate(-1175.02 -1829.75)" fill="#1b352d"/><path d="M1371.55,2073l0.49-4.81-2,.06,0-1.44,2.22-.07,0.36-3.56-2.1.06,0-1.44,2.32-.07,0.5-4.69,1.42,0-0.47,4.69,2.54-.08,0.5-4.69,1.44,0-0.47,4.69,2-.06,0,1.44-2.22.07-0.33,3.56,2.1-.06,0,1.44-2.32.07-0.49,4.81-1.47,0,0.49-4.81-2.54.08L1373,2073Zm4.68-6.38,0.36-3.56-2.54.08-0.36,3.56Z" transform="translate(-1175.02 -1829.75)" fill="#47FF3F"/><path d="M1186.49,1919.24l-2.54.08-0.36,3.56,2.54-.08Zm-5,9.94,0.49-4.81-2,.06,0-1.44,2.23-.07,0.36-3.56-2.1.06,0-1.44,2.32-.07,0.5-4.69,1.42,0-0.47,4.69,2.54-.08,0.49-4.69,1.44,0-0.47,4.69,2-.06,0,1.44-2.22.07-0.34,3.56,2.1-.06,0,1.44-2.32.07-0.49,4.81-1.47,0,0.49-4.81-2.54.08-0.49,4.81-1.46,0" transform="translate(-1175.02 -1829.75)" fill="#1b352d"/><path d="M1178.68,1998h-0.06c-1.3,0-2.2,1.65-2.11,4.64,0.08,2.82,1,4.4,2.31,4.4h0c1.52,0,2.19-1.84,2.11-4.64s-0.81-4.41-2.3-4.41m0,10.19c-2.09,0-3.56-2-3.7-5.53s1.42-5.75,3.64-5.81h0.12c2.24,0,3.57,2,3.67,5.44,0.11,3.73-1.21,5.83-3.64,5.9h-0.1" transform="translate(-1175.02 -1829.75)" fill="#264b18"/><polygon points="12.2 177.96 11.91 168.38 11.88 168.38 10 169.46 9.68 168.34 12.04 166.99 13.3 166.95 13.63 177.92 12.2 177.96" fill="#264b18"/><path d="M1197.83,1934.23a1.06,1.06,0,0,1,0-2.11h0a1,1,0,0,1,1,1,1,1,0,0,1-1,1.08h0m0.18,6a1.06,1.06,0,0,1,0-2.11h0a1,1,0,0,1,1,1,1,1,0,0,1-1,1.08h0" transform="translate(-1175.02 -1829.75)" fill="#264b18"/><path d="M1201.32,1934.12a1,1,0,0,1-1-1,1,1,0,0,1,1-1.09h0a1,1,0,0,1,1,1,1,1,0,0,1-1,1.08h0m0.17,6a1,1,0,0,1-1-1,1,1,0,0,1,1-1.09h0a1,1,0,0,1,1,1,1,1,0,0,1-1,1.07h0" transform="translate(-1175.02 -1829.75)" fill="#264b18"/><path d="M1251.41,1834.87a1.06,1.06,0,0,1,0-2.11h0a1,1,0,0,1,1,1,1,1,0,0,1-1,1.08h0m0.18,6a1.06,1.06,0,0,1,0-2.11h0a1.06,1.06,0,0,1,0,2.11h0" transform="translate(-1175.02 -1829.75)" fill="#264b18"/><path d="M1254.9,1834.77a1,1,0,0,1-1-1,1,1,0,0,1,1-1.09h0a1,1,0,0,1,1,1,1,1,0,0,1-1,1.08h0m0.17,6a1.06,1.06,0,0,1,0-2.11h0a1,1,0,0,1,1,1,1,1,0,0,1-1,1.08h0" transform="translate(-1175.02 -1829.75)" fill="#264b18"/><polygon points="52.69 208.29 52.95 193.97 56.24 194.03 56.22 195.02 54.16 194.98 53.93 207.33 56 207.37 55.98 208.35 52.69 208.29" fill="#47FF3F"/><polygon points="64.02 194.16 63.76 208.5 60.47 208.44 60.49 207.45 62.56 207.49 62.78 195.13 60.72 195.09 60.74 194.1 64.02 194.16" fill="#47FF3F"/><path d="M1231.81,1992.21c-0.11,4-1.68,6.23-4.31,6.16-2.32-.06-3.83-2.28-3.76-6.22s1.89-6.13,4.3-6.07,3.87,2.34,3.76,6.13m-6.46,0c-0.09,3.09.81,4.87,2.28,4.91,1.65,0,2.49-1.85,2.57-4.89s-0.61-4.87-2.28-4.91c-1.41,0-2.48,1.65-2.57,4.89" transform="translate(-1175.02 -1829.75)" fill="#47FF3F"/><path d="M1384.74,1901.8c-0.11,4-1.67,6.23-4.31,6.16-2.32-.06-3.84-2.28-3.76-6.22s1.89-6.13,4.31-6.06,3.87,2.34,3.76,6.13m-6.46,0c-0.09,3.09.81,4.87,2.28,4.91,1.65,0,2.49-1.85,2.57-4.89s-0.61-4.87-2.28-4.91c-1.41,0-2.48,1.65-2.57,4.89" transform="translate(-1175.02 -1829.75)" fill="#47FF3F"/><path d="M1309.15,2068.14l0-.48a4.2,4.2,0,0,1,1.11-3.17,4,4,0,0,0,1.26-2.52,1.53,1.53,0,0,0-1.75-1.56,3.26,3.26,0,0,0-1.84.58l-0.45-1.15a4.8,4.8,0,0,1,2.61-.75c2.1,0,3.06,1.28,3.07,2.67a5,5,0,0,1-1.55,3.19,3.62,3.62,0,0,0-1,2.7l0,0.48h-1.43Zm-0.38,2.56a1.08,1.08,0,0,1,1.09-1.16,1.14,1.14,0,1,1-1.09,1.16" transform="translate(-1175.02 -1829.75)" fill="#47FF3F"/><path d="M1431.94,1927.49l0-.48a4.19,4.19,0,0,1,1.11-3.17,4,4,0,0,0,1.26-2.52,1.53,1.53,0,0,0-1.75-1.56,3.25,3.25,0,0,0-1.84.58l-0.45-1.15a4.79,4.79,0,0,1,2.61-.75h0c2.07,0,3,1.29,3,2.67a5,5,0,0,1-1.55,3.2,3.62,3.62,0,0,0-1,2.7l0,0.48h-1.43m0.7,3.69a1.15,1.15,0,0,1,0-2.29h0a1.15,1.15,0,0,1,0,2.29h0" transform="translate(-1175.02 -1829.75)" fill="#264b18"/><path d="M1235.59,1911.32v-0.48a4.21,4.21,0,0,1,1.3-3.1,4,4,0,0,0,1.41-2.44,1.53,1.53,0,0,0-1.65-1.66,3.25,3.25,0,0,0-1.87.47l-0.38-1.17a4.83,4.83,0,0,1,2.65-.6c2.1,0.11,3,1.46,2.91,2.84a5,5,0,0,1-1.74,3.1,3.62,3.62,0,0,0-1.18,2.63v0.48Zm-0.53,2.54a1.08,1.08,0,0,1,1.15-1.09,1.14,1.14,0,1,1-1.15,1.09" transform="translate(-1175.02 -1829.75)" fill="#47FF3F"/><path d="M1294.61,1866.11a1.08,1.08,0,0,1,.29-1.56,1.15,1.15,0,1,1-.29,1.56" transform="translate(-1175.02 -1829.75)" fill="#47FF3F"/><path d="M1365.59,1868.38c0,0.64,0,1.35,0,2.43l0.12,5.14c0,2-.33,3.28-1.17,4.07a4.69,4.69,0,0,1-3.2,1.13,5.72,5.72,0,0,1-3-.66l0.37-1.24a5,5,0,0,0,2.61.64c1.65,0,2.83-.93,2.78-3.16l0-1h0a3.16,3.16,0,0,1-2.78,1.55c-2.2.05-3.81-1.78-3.87-4.23-0.07-3,1.85-4.75,3.88-4.79a2.94,2.94,0,0,1,2.8,1.47h0l0-1.34Zm-1.58,3.53a2.35,2.35,0,0,0-2.4-2.38c-1.54,0-2.6,1.36-2.56,3.41,0,1.74,1,3.16,2.69,3.12a2.36,2.36,0,0,0,2.19-1.7,2.81,2.81,0,0,0,.11-0.86Z" transform="translate(-1175.02 -1829.75)" fill="#47FF3F"/><path d="M1309.3,1831h-0.06c-1.54,0-2.6,1.36-2.56,3.41,0,1.71.93,3.12,2.61,3.12h0.07a2.35,2.35,0,0,0,2.2-1.7,2.74,2.74,0,0,0,.11-0.86l0-1.59a2.27,2.27,0,0,0-.11-0.73,2.32,2.32,0,0,0-2.23-1.65m-0.48,11.63a5.65,5.65,0,0,1-2.82-.67l0.38-1.24a5,5,0,0,0,2.49.64H1309c1.65,0,2.83-.93,2.78-3.16l0-1h0a3.17,3.17,0,0,1-2.78,1.55h-0.09c-2.15,0-3.72-1.81-3.78-4.23-0.07-3,1.85-4.74,3.88-4.79H1309a2.92,2.92,0,0,1,2.69,1.47h0l0-1.34,1.41,0c0,0.64,0,1.36,0,2.43l0.12,5.14c0,2-.33,3.28-1.17,4.07a4.7,4.7,0,0,1-3.19,1.14h-0.14" transform="translate(-1175.02 -1829.75)" fill="#1b352d"/><path d="M1228.07,1871.62a35,35,0,0,0,1.31-5.76l2.22-.3a28.29,28.29,0,0,1-2.17,5.85l-1.36.21m-3.62.08a34.83,34.83,0,0,0,1.31-5.76l2.2-.3a28.17,28.17,0,0,1-2.14,5.85l-1.37.2" transform="translate(-1175.02 -1829.75)" fill="#a2ff9e"/><path d="M1410.36,1877.84l4.07-6.14-4.14-5.7,2.4-.05,1.74,2.5c0.45,0.65.84,1.25,1.24,1.91h0.07c0.38-.72.75-1.34,1.13-2l1.61-2.55,2.32-.05-3.9,5.81,4.3,6-2.45.05-1.8-2.63c-0.48-.67-0.89-1.33-1.32-2h0c-0.37.72-.78,1.36-1.2,2.08l-1.65,2.71-2.37.05" transform="translate(-1175.02 -1829.75)" fill="#1b352d"/><path d="M1205.62,1978.32l0-1.34H1206c1.37-.05,1.94-0.8,1.91-2.17a14.74,14.74,0,0,0-.21-1.76,10.92,10.92,0,0,1-.24-1.85c0-1.56.63-2.41,1.7-2.7v-0.05a2.38,2.38,0,0,1-1.82-2.6,11.83,11.83,0,0,1,.15-1.86,14.14,14.14,0,0,0,.13-1.74c0-1.32-.56-2.06-2-2.06h-0.46l0-1.35h0.64c2,0,3.44.93,3.5,3.12a14.69,14.69,0,0,1-.15,2,14.88,14.88,0,0,0-.15,2.06c0,0.84.28,1.76,1.92,1.76H1211l0,1.25c-1.74,0-2,1.1-1.94,1.85a13.47,13.47,0,0,0,.24,2,13.88,13.88,0,0,1,.24,2c0.06,2.47-1.46,3.39-3.47,3.43h-0.51" transform="translate(-1175.02 -1829.75)" fill="#a2ff9e"/><path d="M1265.66,2044.58l-6-6.82v-145h73l30.36,30.58v121Zm-5-7.2,5.49,6.19,95.83-.23V1923.77l-29.78-30h-71.54v143.62Z" transform="translate(-1175.02 -1829.75)" fill="#4a31ff"/><path d="M1284.84,2038.08h-25.22v-25.22h25.22v25.22Zm-24.22-1h23.22v-23.22h-23.22v23.22Z" transform="translate(-1175.02 -1829.75)" fill="#4a31ff"/><polygon points="85.1 183.61 109.32 207.82 85.1 207.82 85.1 183.61" fill="#4a31ff"/><path d="M1308.86,2038.08h-25.22v-25.22h25.22v25.22Zm-24.22-1h23.22v-23.22h-23.22v23.22Z" transform="translate(-1175.02 -1829.75)" fill="#4a31ff"/><polygon points="109.12 183.61 133.34 207.82 109.12 207.82 109.12 183.61" fill="#4a31ff"/><path d="M1332.88,2038.08h-25.22v-25.22h25.22v25.22Zm-24.22-1h23.22v-23.22h-23.22v23.22Z" transform="translate(-1175.02 -1829.75)" fill="#4a31ff"/><polygon points="133.14 183.61 157.35 207.82 133.14 207.82 133.14 183.61" fill="#4a31ff"/><path d="M1356.89,2038.08h-25.22v-25.22h25.22v25.22Zm-24.22-1h23.22v-23.22h-23.22v23.22Z" transform="translate(-1175.02 -1829.75)" fill="#4a31ff"/><polygon points="157.16 183.61 181.37 207.82 157.16 207.82 157.16 183.61" fill="#4a31ff"/><path d="M1356.89,2014.06h-25.22v-25.22h25.22v25.22Zm-24.22-1h23.22v-23.22h-23.22v23.22Z" transform="translate(-1175.02 -1829.75)" fill="#4a31ff"/><polygon points="157.16 159.59 181.37 183.81 157.16 183.81 157.16 159.59" fill="#4a31ff"/><path d="M1332.88,2014.06h-25.22v-25.22h25.22v25.22Zm-24.22-1h23.22v-23.22h-23.22v23.22Z" transform="translate(-1175.02 -1829.75)" fill="#4a31ff"/><polygon points="133.14 159.59 157.35 183.81 133.14 183.81 133.14 159.59" fill="#4a31ff"/><path d="M1308.86,2014.06h-25.22v-25.22h25.22v25.22Zm-24.22-1h23.22v-23.22h-23.22v23.22Z" transform="translate(-1175.02 -1829.75)" fill="#4a31ff"/><polygon points="109.12 159.59 133.34 183.81 109.12 183.81 109.12 159.59" fill="#4a31ff"/><path d="M1284.84,2014.06h-25.22v-25.22h25.22v25.22Zm-24.22-1h23.22v-23.22h-23.22v23.22Z" transform="translate(-1175.02 -1829.75)" fill="#4a31ff"/><polygon points="85.1 159.59 109.32 183.81 85.1 183.81 85.1 159.59" fill="#4a31ff"/><path d="M1284.84,1990h-25.22v-25.22h25.22V1990Zm-24.22-1h23.22v-23.22h-23.22V1989Z" transform="translate(-1175.02 -1829.75)" fill="#4a31ff"/><polygon points="85.1 135.57 109.32 159.79 85.1 159.79 85.1 135.57" fill="#4a31ff"/><path d="M1308.86,1990h-25.22v-25.22h25.22V1990Zm-24.22-1h23.22v-23.22h-23.22V1989Z" transform="translate(-1175.02 -1829.75)" fill="#4a31ff"/><polygon points="109.12 135.57 133.34 159.79 109.12 159.79 109.12 135.57" fill="#4a31ff"/><path d="M1332.88,1990h-25.22v-25.22h25.22V1990Zm-24.22-1h23.22v-23.22h-23.22V1989Z" transform="translate(-1175.02 -1829.75)" fill="#4a31ff"/><polygon points="133.14 135.57 157.35 159.79 133.14 159.79 133.14 135.57" fill="#4a31ff"/><path d="M1356.89,1990h-25.22v-25.22h25.22V1990Zm-24.22-1h23.22v-23.22h-23.22V1989Z" transform="translate(-1175.02 -1829.75)" fill="#4a31ff"/><polygon points="157.16 135.57 181.37 159.79 157.16 159.79 157.16 135.57" fill="#4a31ff"/><path d="M1284.84,1966h-25.22v-25.22h25.22V1966Zm-24.22-1h23.22v-23.22h-23.22V1965Z" transform="translate(-1175.02 -1829.75)" fill="#4a31ff"/><polygon points="85.1 111.55 109.32 135.77 85.1 135.77 85.1 111.55" fill="#4a31ff"/><path d="M1356.89,1966h-25.22v-25.22h25.22V1966Zm-24.22-1h23.22v-23.22h-23.22V1965Z" transform="translate(-1175.02 -1829.75)" fill="#4a31ff"/><polygon points="157.16 111.55 181.37 135.77 157.16 135.77 157.16 111.55" fill="#4a31ff"/><path d="M1284.84,1942h-25.22v-25.22h25.22V1942Zm-24.22-1h23.22v-23.22h-23.22V1941Z" transform="translate(-1175.02 -1829.75)" fill="#4a31ff"/><polygon points="85.1 87.53 109.32 111.75 85.1 111.75 85.1 87.53" fill="#4a31ff"/><path d="M1308.86,1942h-25.22v-25.22h25.22V1942Zm-24.22-1h23.22v-23.22h-23.22V1941Z" transform="translate(-1175.02 -1829.75)" fill="#4a31ff"/><polygon points="109.12 87.53 133.34 111.75 109.12 111.75 109.12 87.53" fill="#4a31ff"/><path d="M1332.88,1942h-25.22v-25.22h25.22V1942Zm-24.22-1h23.22v-23.22h-23.22V1941Z" transform="translate(-1175.02 -1829.75)" fill="#4a31ff"/><polygon points="133.14 87.53 157.35 111.75 133.14 111.75 133.14 87.53" fill="#4a31ff"/><path d="M1356.89,1942h-25.22v-25.22h25.22V1942Zm-24.22-1h23.22v-23.22h-23.22V1941Z" transform="translate(-1175.02 -1829.75)" fill="#4a31ff"/><polygon points="157.16 87.53 181.37 111.75 157.16 111.75 157.16 87.53" fill="#4a31ff"/><path d="M1284.84,1918h-25.22v-25.22h25.22V1918Zm-24.22-1h23.22v-23.22h-23.22V1917Z" transform="translate(-1175.02 -1829.75)" fill="#4a31ff"/><polygon points="85.1 63.52 109.32 87.73 85.1 87.73 85.1 63.52" fill="#4a31ff"/><path d="M1308.86,1918h-25.22v-25.22h25.22V1918Zm-24.22-1h23.22v-23.22h-23.22V1917Z" transform="translate(-1175.02 -1829.75)" fill="#4a31ff"/><polygon points="109.12 63.52 133.34 87.73 109.12 87.73 109.12 63.52" fill="#4a31ff"/><path d="M1332.88,1918h-25.22v-25.22h25.22V1918Zm-24.22-1h23.22v-23.22h-23.22V1917Z" transform="translate(-1175.02 -1829.75)" fill="#4a31ff"/><polygon points="133.14 63.52 157.35 87.73 133.14 87.73 133.14 63.52" fill="#4a31ff"/><polygon points="157.16 63.52 181.37 87.73 157.16 87.73 157.16 63.52" fill="#4a31ff"/><path d="M1298.94,1944.27a8.36,8.36,0,0,1,8.54,6.31h-4.82a4,4,0,0,0-3.77-2.31c-2.69,0-4.54,2-4.54,5.18s1.85,5.18,4.54,5.18a4,4,0,0,0,3.77-2.31h4.82c-1,3.9-4.26,6.28-8.54,6.28a8.73,8.73,0,0,1-9.05-9.16c0-5.39,3.74-9.18,9.05-9.18" transform="translate(-1175.02 -1829.75)" fill="#47FF3F"/><polygon points="147.41 114.72 152.06 114.72 145.67 132.73 140.18 132.73 133.79 114.72 138.46 114.72 142.93 128.31 147.41 114.72" fill="#47FF3F"/></svg>
