<svg viewBox="0 0 42.6 32.64" xmlns="http://www.w3.org/2000/svg"><g fill="#fff"><path d="M32.71 30.57h-4.64a.3.3 0 0 1-.31-.3v-1.13a.3.3 0 0 0-.3-.31H21a.31.31 0 0 0-.31.31v1.13a.29.29 0 0 1-.3.3h-3.53a.31.31 0 0 0-.31.31v1.31a.31.31 0 0 0 .31.3h15.85a.31.31 0 0 0 .31-.3v-1.31a.31.31 0 0 0-.31-.31zM40.51 0H7.37a2.1 2.1 0 0 0-2.09 2.09v5.46c0 .72 0 .82.43.82h.83c.41 0 .33-.1.33-.84V2.09a.52.52 0 0 1 .5-.51h33.14a.52.52 0 0 1 .51.51v20.42H17.4s-.84 0-.84 1.07v2.56c0 1.07.86 1.07.86 1.07h23.09a2.09 2.09 0 0 0 2.09-2.09v-23A2.09 2.09 0 0 0 40.51 0zM23.94 25.41a.95.95 0 1 1 .95-.95.95.95 0 0 1-.95.95z"/><path d="M13.34 10.24h-12A1.35 1.35 0 0 0 0 11.59v19.7a1.36 1.36 0 0 0 1.35 1.35h12a1.36 1.36 0 0 0 1.35-1.35v-19.7a1.35 1.35 0 0 0-1.35-1.35zm-7.48 1.37h3a.26.26 0 0 1 .26.26.26.26 0 0 1-.26.25h-3a.25.25 0 0 1-.25-.25.26.26 0 0 1 .25-.26zm1.47 20.08A.7.7 0 1 1 8 31a.7.7 0 0 1-.69.7zm6.2-2.05a.33.33 0 0 1-.32.33H1.48a.32.32 0 0 1-.32-.33V13.27a.32.32 0 0 1 .32-.33h11.73a.33.33 0 0 1 .32.33z"/></g></svg>