<?xml version="1.0" encoding="utf-8"?>
<!-- Generator: Adobe Illustrator 22.1.0, SVG Export Plug-In . SVG Version: 6.00 Build 0)  -->
<svg version="1.1" id="Warstwa_1" xmlns="http://www.w3.org/2000/svg" xmlns:xlink="http://www.w3.org/1999/xlink" x="0px" y="0px"
	 viewBox="0 0 360.3 282" style="enable-background:new 0 0 360.3 282;" xml:space="preserve">
<style type="text/css">
	.st0{fill:#47FF3F;}
	.st1{fill:#0F8F68;}
	.st2{fill:#1B352D;}
	.st3{fill:#184B3B;}
	.st4{fill:#137154;}
	.st5{fill:#127859;}
	.st6{fill:#4A31FF;}
</style>
<title>envelope</title>
<polygon class="st0" points="302.6,196 302.6,196 299.6,197.8 299.1,196 302.8,193.8 304.8,193.7 305.5,211 303.3,211.1 "/>
<polygon class="st0" points="164.5,237 164.4,237 161.5,238.8 161,237 164.6,234.8 166.6,234.7 167.4,252 165.1,252.1 "/>
<polygon class="st1" points="180.7,42 179.6,41.9 184.6,30.1 185.7,30.1 "/>
<polygon class="st1" points="186.3,42.2 185.2,42.1 190.3,30.3 191.4,30.3 "/>
<polygon class="st2" points="91.1,273.9 90,273.8 95,262 96.1,262 "/>
<polygon class="st2" points="96.8,274.1 95.7,274 100.7,262.2 101.8,262.2 "/>
<polygon class="st3" points="211.9,281.1 210.8,281.1 215.8,269.2 216.9,269.3 "/>
<polygon class="st3" points="217.5,281.3 216.4,281.3 221.4,269.4 222.6,269.4 "/>
<polygon class="st3" points="19.8,66.6 18.7,66.5 23.7,54.7 24.8,54.7 "/>
<polygon class="st3" points="25.5,66.8 24.4,66.7 29.4,54.9 30.5,54.9 "/>
<polygon class="st0" points="237.1,53.7 234.6,57.1 234.6,57.1 238.6,56.5 238.6,58.4 234.6,57.9 234.6,58 237.2,61.1 235.5,62.1
	233.9,58.4 233.8,58.4 232.1,62.2 230.6,61.2 233.1,58 233.1,57.9 229.2,58.4 229.2,56.6 233.1,57.1 233.1,57 230.6,53.8
	232.2,52.9 233.9,56.6 233.9,56.6 235.5,52.8 "/>
<path class="st0" d="M78.4,246.8c0-2.2,1.3-3.7,3.4-4.7v-0.1c-1.6-0.6-2.7-2.1-2.8-3.9c0-2.7,2.3-4.6,5.3-4.6c3.3,0,5,2.1,5,4.2
	c0,1.8-1.1,3.4-2.8,4.1v0.1c2.2,0.8,3.5,2.3,3.5,4.4c0,3-2.5,5-5.8,5.1C80.7,251.4,78.5,249.3,78.4,246.8 M87.7,246.6
	c0-2.1-1.5-3.1-3.8-3.8c-2,0.6-3.1,1.9-3.1,3.6c-0.1,1.8,1.3,3.2,3.1,3.3c0.1,0,0.3,0,0.4,0C86.4,249.7,87.8,248.4,87.7,246.6
	 M81.3,238c0,1.7,1.3,2.7,3.3,3.2c1.5-0.4,2.5-1.6,2.6-3.2c0.1-1.5-1.1-2.7-2.6-2.8c-0.1,0-0.3,0-0.4,0c-1.5-0.1-2.9,1-3,2.5
	C81.3,237.8,81.3,237.9,81.3,238"/>
<path class="st4" d="M35.1,191.2c-1.8,0-3.7,0.4-3.7,2.1c-0.1,0.8,0.6,1.5,1.4,1.6c0.1,0,0.1,0,0.2,0c1,0,1.9-0.6,2.3-1.6
	c0.1-0.2,0.1-0.4,0.1-0.5v-1.6H35.1 M32.5,196.2c-1.5,0.1-2.7-1-2.8-2.5c0-0.1,0-0.1,0-0.2c0-2.2,2-3.5,5.5-3.5l0,0v-0.2
	c0.1-1.1-0.6-2-1.7-2.1c-0.2,0-0.3,0-0.5,0c-0.9,0-1.7,0.2-2.4,0.7l-0.4-1.1c0.9-0.6,2-0.8,3.1-0.8l0,0c2.8,0,3.5,1.9,3.5,3.8v3.5
	c0,0.7,0,1.5,0.2,2.2h-1.5l-0.1-1.2h-0.1C34.6,195.7,33.6,196.2,32.5,196.2"/>
<polygon class="st0" points="239.9,244.7 228.8,250.8 228.7,249.1 238.2,244 238.2,244 228.5,239.4 228.4,237.8 239.9,243.3 "/>
<polygon class="st0" points="104.3,58 93.1,64.1 93.1,62.4 102.6,57.3 102.6,57.3 92.8,52.8 92.8,51.1 104.3,56.6 "/>
<path class="st0" d="M308.7,162.1c-1.4,2.3-2.1,5-1.8,7.6c0.1,2.7,1.1,5.2,2.8,7.3l-1.3,0.1c-1.8-2-2.8-4.6-2.9-7.3
	c-0.2-2.7,0.4-5.4,1.9-7.6L308.7,162.1z"/>
<path class="st0" d="M310.5,177c1.4-2.3,2-5,1.8-7.6c-0.1-2.7-1.1-5.2-2.8-7.3l1.2-0.1c1.8,2,2.8,4.6,2.9,7.3
	c0.2,2.7-0.4,5.4-1.9,7.6L310.5,177z"/>
<path class="st2" d="M61.9,275.3c-1.6-2.1-2.5-4.7-2.5-7.4c-0.1-2.7,0.8-5.3,2.4-7.5h1.3c-1.6,2.2-2.4,4.8-2.3,7.5
	c0,2.7,0.8,5.3,2.4,7.4H61.9"/>
<path class="st2" d="M63.9,275.3c1.5-2.2,2.3-4.8,2.3-7.5c0.1-2.7-0.8-5.3-2.4-7.4h1.3c1.7,2.1,2.5,4.8,2.5,7.5
	c0.1,2.7-0.7,5.3-2.4,7.5H63.9"/>
<path class="st1" d="M333.4,143.3c-1.8-2-2.8-4.6-2.9-7.3c-0.2-2.7,0.4-5.4,1.9-7.6l1.3-0.1c-1.4,2.3-2.1,5-1.8,7.6
	c0.1,2.7,1.1,5.2,2.8,7.3L333.4,143.3"/>
<path class="st1" d="M335.4,143.2c1.4-2.3,2-5,1.8-7.6c-0.1-2.7-1.1-5.2-2.8-7.3l1.2-0.1c1.8,2,2.8,4.6,2.9,7.3
	c0.2,2.7-0.4,5.4-1.9,7.6L335.4,143.2"/>
<polygon class="st0" points="155.9,63.7 163.5,59.1 163.6,60.3 157.1,64.1 157.1,64.1 164,67 164.1,68.2 155.9,64.6 "/>
<polygon class="st0" points="165.2,68.8 169.2,56.1 170.3,56 166.4,68.7 "/>
<polygon class="st0" points="179.8,63 172.2,67.6 172.1,66.4 178.6,62.7 178.6,62.6 171.7,59.7 171.6,58.6 179.8,62.1 "/>
<path class="st1" d="M328,178.8c-1.5,0-2.5,1.3-2.5,3.2s0.8,3.1,2.4,3.1l0,0c1.1,0,2-0.7,2.2-1.8c0-0.2,0.1-0.4,0.1-0.7v-1.4
	c0-0.2,0-0.4-0.1-0.6C329.9,179.6,329,178.8,328,178.8L328,178.8 M327.5,186.3L327.5,186.3c-2,0-3.5-1.7-3.5-4.2
	c0-2.7,1.7-4.4,3.7-4.4l0,0c1-0.1,1.9,0.4,2.5,1.3l0,0V174h1.5l-0.1,10c0,0.7,0,1.6,0,2.1h-1.3l0-1.4l0,0
	C329.7,185.7,328.6,186.3,327.5,186.3"/>
<polygon class="st5" points="244.9,47.4 244.9,45.7 254.5,40.9 254.5,40.8 244.8,36.1 244.8,34.4 256.2,40.2 256.2,41.5 "/>
<polygon class="st2" points="251,276.6 251,275 260.6,270.1 260.6,270 251,265.3 250.9,263.6 262.3,269.4 262.3,270.7 "/>
<polygon class="st5" points="54.8,246.6 54.8,244.9 64.4,240.1 64.4,240 54.7,235.3 54.7,233.6 66.1,239.4 66.1,240.7 "/>
<path class="st0" d="M308.1,136.9c-0.5-0.5-0.9-0.9-1.5-1.6c-1.3,1.3-3,1.9-4.8,1.9c-3.2,0-5.1-2.1-5.1-4.6c0-2.1,1.3-4,3.2-4.8
	v-0.1c-0.8-1-1.3-2.2-1.4-3.4c-0.1-2.2,1.7-4,3.9-4.1c0.1,0,0.2,0,0.2,0c1.9-0.1,3.5,1.3,3.7,3.2c0,0.1,0,0.2,0,0.3
	c0,1.7-1,3.1-3.6,4.4v0.1c1.4,1.6,3,3.4,4,4.6c0.9-1.5,1.4-3.1,1.6-4.8h2c-0.2,2.2-1,4.3-2.3,6.1c0.9,0.9,1.8,1.8,2.7,2.9
	L308.1,136.9z M305.5,134.1c-1-1.1-2.8-3.1-4.7-5.2c-1.2,0.7-2,2-2.1,3.4c0,1.8,1.4,3.3,3.2,3.3c0.1,0,0.1,0,0.2,0
	C303.4,135.6,304.7,135.1,305.5,134.1 M300.4,124.1c0,1.1,0.5,2.2,1.3,3c1.7-1,2.7-1.8,2.7-3.3c0.1-1.1-0.7-2-1.8-2.1
	c-0.1,0-0.1,0-0.2,0c-1.2,0-2.1,1-2.1,2.2C300.4,124,300.4,124.1,300.4,124.1"/>
<path class="st2" d="M302.7,244.9L302.7,244.9c-1.2,0-2.1,1-2.1,2.2c0,0.1,0,0.1,0,0.2c0,1.1,0.5,2.2,1.3,3c1.7-1,2.7-1.8,2.7-3.3
	c0.1-1.1-0.7-2-1.8-2.1C302.9,244.9,302.8,244.9,302.7,244.9 M301.1,252.2c-1.2,0.7-2,2-2.1,3.4c0,1.8,1.4,3.3,3.2,3.3
	c0.1,0,0.1,0,0.2,0l0,0c1.3,0,2.5-0.6,3.4-1.5C304.7,256.3,302.9,254.3,301.1,252.2 M301.9,260.5c-3.2,0-5-2.1-5-4.6
	c0-2.1,1.3-4,3.2-4.8V251c-0.8-1-1.3-2.2-1.4-3.4c-0.1-2.2,1.7-4,3.9-4.1c0.1,0,0.2,0,0.2,0l0,0c1.9-0.1,3.5,1.3,3.6,3.2
	c0,0.1,0,0.2,0,0.3c0,1.7-1,3.1-3.6,4.4v0.1c1.4,1.6,3,3.4,4,4.6c0.9-1.5,1.4-3.2,1.6-4.9h2c-0.2,2.2-1,4.3-2.3,6.1
	c0.9,0.9,1.8,1.8,2.7,2.9h-2.5c-0.5-0.5-0.9-0.9-1.5-1.6C305.5,259.8,303.8,260.5,301.9,260.5L301.9,260.5"/>
<path class="st2" d="M84.2,25.5L84.2,25.5c-1.2,0-2.1,1-2.1,2.2c0,0.1,0,0.1,0,0.2c0,1.1,0.5,2.2,1.3,3c1.7-1,2.7-1.8,2.7-3.3
	c0.1-1.1-0.7-2-1.8-2.1C84.4,25.6,84.3,25.6,84.2,25.5 M82.5,32.8c-1.2,0.7-2,2-2.1,3.4c0,1.8,1.4,3.3,3.2,3.3c0.1,0,0.1,0,0.2,0
	l0,0c1.3,0,2.5-0.6,3.4-1.5C86.2,36.9,84.3,34.9,82.5,32.8 M83.4,41.1c-3.2,0-5-2.1-5-4.6c0-2.1,1.3-4,3.2-4.8v-0.1
	c-0.8-1-1.3-2.2-1.4-3.4c-0.1-2.2,1.7-4,3.9-4.1c0.1,0,0.2,0,0.3,0l0,0c1.9-0.1,3.5,1.3,3.7,3.2c0,0.1,0,0.2,0,0.3
	c0,1.7-1,3.1-3.6,4.4V32c1.4,1.6,3,3.4,4,4.6c0.9-1.5,1.4-3.1,1.5-4.8h2c-0.2,2.2-1,4.3-2.3,6.1c0.9,0.9,1.8,1.8,2.7,2.9h-2.5
	c-0.5-0.5-0.9-0.9-1.5-1.6C87,40.4,85.3,41.1,83.4,41.1L83.4,41.1"/>
<path class="st0" d="M53.6,123.9c-0.2,3.1-1.9,4.6-3.8,4.4s-3.3-1.7-3.2-4.7s1.9-4.5,3.8-4.4S53.8,121.1,53.6,123.9 M48.2,123.7
	c-0.2,1.9,0.5,3.4,1.7,3.4s2-1.3,2.1-3.3c0.1-1.8-0.3-3.3-1.7-3.4S48.3,121.9,48.2,123.7 M49.3,134.5l9.6-14.7l1.3,0.1l-9.6,14.8
	L49.3,134.5z M62.9,130.5c-0.2,3.1-1.9,4.6-3.8,4.5s-3.3-1.7-3.2-4.6s1.9-4.5,3.8-4.4S63,127.7,62.9,130.5 M57.5,130.3
	c-0.1,1.9,0.5,3.4,1.7,3.4s2-1.3,2.1-3.3c0.1-1.8-0.3-3.3-1.7-3.4S57.6,128.5,57.5,130.3"/>
<path class="st0" d="M129,58.6c-0.2,3.1-1.9,4.6-3.8,4.4s-3.3-1.7-3.2-4.7s1.9-4.5,3.8-4.4S129.1,55.8,129,58.6 M123.6,58.4
	c-0.2,1.9,0.5,3.4,1.7,3.4s2-1.3,2.1-3.3c0.1-1.8-0.3-3.3-1.7-3.4S123.7,56.6,123.6,58.4 M124.6,69.2l9.6-14.7l1.3,0.1l-9.6,14.7
	L124.6,69.2z M138.2,65.2c-0.2,3.1-1.9,4.6-3.8,4.5s-3.3-1.7-3.2-4.6s1.9-4.5,3.8-4.4S138.4,62.4,138.2,65.2 M132.8,65
	c-0.1,1.9,0.5,3.4,1.7,3.4s2-1.3,2.1-3.3c0.1-1.8-0.3-3.3-1.7-3.4S132.9,63.2,132.8,65"/>
<path class="st2" d="M347.7,170.1c-1.2,0-1.9,1.4-2,3.2s0.5,3.3,1.7,3.4h0.1c1.3,0,1.9-1.3,2-3.3s-0.3-3.3-1.7-3.4H347.7 M347.5,178
	h-0.2c-1.8-0.1-3.3-1.7-3.2-4.7s1.8-4.4,3.6-4.4h0.2c2.1,0.1,3.3,1.8,3.2,4.6C350.9,176.5,349.3,178,347.5,178 M348.1,184.2
	l-1.3-0.1l9.6-14.7l1.3,0.1L348.1,184.2 M357,176.8c-1.2,0-1.9,1.4-2,3.2s0.5,3.4,1.7,3.4h0.1c1.3,0,1.9-1.3,2-3.3s-0.3-3.3-1.7-3.4
	L357,176.8 M356.8,184.6h-0.3c-1.8-0.1-3.3-1.7-3.2-4.6s1.8-4.4,3.6-4.4h0.2c2.1,0.1,3.3,1.8,3.1,4.6
	C360.1,183.2,358.5,184.6,356.8,184.6"/>
<path class="st2" d="M143.4,21.1c-1.2,0-1.9,1.4-2,3.2s0.5,3.3,1.7,3.4h0.1c1.2,0,1.9-1.3,2-3.3s-0.3-3.3-1.7-3.4H143.4 M143.2,28.9
	H143c-1.8-0.1-3.3-1.7-3.2-4.7s1.8-4.4,3.6-4.4h0.2c2.1,0.1,3.3,1.8,3.2,4.6C146.6,27.5,145,28.9,143.2,28.9 M143.7,35.2l-1.3-0.1
	l9.6-14.7l1.3,0.1L143.7,35.2 M152.7,27.7c-1.2,0-1.9,1.4-2,3.2s0.5,3.4,1.7,3.4h0.1c1.3,0,1.9-1.3,2-3.3s-0.3-3.3-1.7-3.4
	L152.7,27.7 M152.5,35.6h-0.2c-1.8-0.1-3.3-1.7-3.2-4.6s1.8-4.4,3.6-4.4h0.2c2.1,0.1,3.3,1.8,3.1,4.6
	C155.9,34.1,154.3,35.6,152.5,35.6"/>
<path class="st2" d="M303.8,51.4l-12.6-0.3v-1.5l12.6,0.3V51.4z M303.6,56.2L291,55.9v-1.5l12.6,0.3V56.2"/>
<polygon class="st1" points="294.9,231.1 294.7,225.3 289.2,225.4 289.2,223.9 294.7,223.8 294.6,218 296.1,218 296.3,223.8
	301.8,223.6 301.8,225.1 296.3,225.2 296.4,231 "/>
<path class="st1" d="M38.1,92.7c-0.8,0-1.5-0.7-1.5-1.5c0-0.8,0.7-1.5,1.5-1.5l0,0c0.8,0,1.5,0.7,1.5,1.5C39.7,92,39,92.7,38.1,92.7
	L38.1,92.7 M35.9,104.1c0.6-1.9,1.1-3.9,1.3-5.9l2.4-0.3c-0.5,2.1-1.3,4.1-2.2,6L35.9,104.1"/>
<path class="st2" d="M181,282l-0.1-2.5h-0.1c-1.3,0-2.6-0.3-3.7-1l0.5-1.7c1,0.6,2.2,1,3.4,1h0.2c1.7,0,2.9-1.1,2.8-2.5
	s-1-2.2-2.8-2.8c-2.5-0.9-4.1-2-4.1-4.1c0-2.1,1.5-3.8,3.6-4l-0.1-2.5h1.5l0.1,2.4c1.1,0,2.2,0.3,3.2,0.8l-0.6,1.6
	c-0.9-0.5-1.9-0.8-2.9-0.8h-0.2c-1.9,0-2.6,1.2-2.5,2.2c0,1.3,1,1.9,3.1,2.7c2.5,1,3.8,2.2,3.9,4.4c0,2.2-1.6,4-3.8,4.3l0.1,2.5
	L181,282"/>
<path class="st1" d="M328.5,91.5L328.5,91.5c-2.4,0.2-4.1,2.2-3.9,4.5c-0.1,0.9,0.5,1.7,1.4,1.8c0.1,0,0.1,0,0.2,0l0,0
	c1.4,0,2.7-1.9,2.9-3.4l0.5-2.8C329.2,91.5,328.9,91.5,328.5,91.5 M326.7,103.2c-4,0.1-7.3-3.1-7.4-7.2c0-0.1,0-0.2,0-0.3
	c-0.1-5,3.3-9.5,8.7-9.6h0.2c3.7-0.2,6.9,2.7,7.1,6.5c0,0.1,0,0.3,0,0.4c0.1,3.7-1.9,5.9-4.2,5.9l0,0c-1,0-1.8-0.8-1.8-1.8
	c0-0.1,0-0.2,0-0.3h-0.1c-0.6,1.3-1.9,2.2-3.4,2.2h-0.1c-1.5-0.1-2.7-1.4-2.7-2.9c0,0,0-0.1,0-0.1c-0.1-3.2,2.4-5.8,5.6-5.9
	c0,0,0,0,0.1,0h0.2c0.8,0,1.7,0.1,2.5,0.5l-0.7,4.5c-0.3,1.9,0,2.7,0.8,2.7c1.3,0,2.6-1.7,2.5-4.5c-0.1-3.5-2.2-6-5.9-6h-0.2
	c-4,0.1-7.3,3.3-7.2,8.3c0.1,4,2.7,6.5,6.3,6.5h0.2c1.3,0,2.5-0.3,3.7-0.9l0.4,1c-1.3,0.7-2.8,1.1-4.3,1.1L326.7,103.2"/>
<path class="st2" d="M36.1,238.8H36c-2.3,0.2-4,2.2-3.8,4.5c-0.1,0.9,0.5,1.7,1.4,1.8c0.1,0,0.1,0,0.2,0l0,0c1.4,0,2.7-1.9,2.9-3.4
	l0.5-2.8C36.8,238.8,36.4,238.8,36.1,238.8 M34.3,250.5c-4,0.1-7.3-3.1-7.4-7.2c0-0.1,0-0.2,0-0.3c-0.1-5,3.3-9.5,8.7-9.6h0.2
	c3.7-0.2,6.9,2.7,7.1,6.5c0,0.1,0,0.3,0,0.4c0.1,3.7-1.9,5.9-4.2,5.9l0,0c-1,0-1.8-0.8-1.8-1.8c0-0.1,0-0.2,0-0.3h-0.1
	c-0.6,1.3-1.9,2.2-3.4,2.2h-0.1c-1.5-0.1-2.7-1.4-2.7-2.9c0,0,0-0.1,0-0.1c-0.1-3.2,2.4-5.8,5.6-5.9c0,0,0,0,0.1,0h0.2
	c0.8,0,1.7,0.1,2.5,0.5l-0.7,4.5c-0.3,1.9,0,2.7,0.8,2.7c1.3,0,2.6-1.7,2.5-4.5c-0.1-3.5-2.2-6-5.9-6h-0.2c-4,0.1-7.3,3.3-7.1,8.3
	c0.1,4,2.7,6.5,6.2,6.5h0.2c1.3,0,2.5-0.3,3.7-0.9l0.4,1c-1.3,0.7-2.8,1.1-4.3,1.1L34.3,250.5"/>
<path class="st0" d="M266.9,253.1l0.5-4.8l-2,0.1v-1.4l2.2-0.1l0.4-3.6l-2.1,0.1v-1.4l2.3-0.1l0.5-4.7h1.4l-0.5,4.7l2.5-0.1l0.5-4.7
	h1.4l-0.5,4.7l2-0.1v1.4l-2.2,0.1l-0.3,3.6l2.1-0.1v1.4l-2.3,0.1l-0.5,4.8h-1.5l0.5-4.8l-2.5,0.1l-0.5,4.8L266.9,253.1z
	 M271.5,246.7l0.4-3.6l-2.5,0.1l-0.4,3.6L271.5,246.7z"/>
<path class="st0" d="M68.4,73.9l0.5-4.8l-2,0.1v-1.4l2.2-0.1l0.4-3.6l-2.1,0.1v-1.4l2.3-0.1l0.5-4.7h1.4l-0.5,4.7l2.5-0.1l0.5-4.7
	h1.4l-0.6,4.6l2-0.1v1.4L74.9,64l-0.3,3.5l2.1-0.1v1.4L74.4,69l-0.5,4.8h-1.5l0.5-4.8l-2.5,0.1l-0.5,4.8L68.4,73.9z M73.1,67.5
	l0.4-3.6L70.9,64l-0.4,3.6L73.1,67.5z"/>
<path class="st2" d="M6.8,99.4l-2.5,0.1L3.9,103l2.5-0.1L6.8,99.4z M1.8,109.3l0.5-4.8l-2,0.1v-1.4l2.2-0.1l0.4-3.6l-2.1,0.1v-1.4
	l2.3-0.1l0.5-4.7h1.4l-0.5,4.7L7.1,98l0.5-4.7h1.4L8.6,98l2-0.1v1.4l-2.2,0.1L8,103l2.1-0.1v1.4l-2.3,0.1l-0.5,4.8H5.9l0.5-4.8
	l-2.5,0.1l-0.5,4.8H1.8"/>
<path class="st2" d="M327.6,216.5l-2.5,0.1l-0.4,3.6l2.5-0.1L327.6,216.5z M322.6,226.5l0.5-4.8l-2,0.1v-1.4l2.2-0.1l0.4-3.6
	l-2.1,0.1v-1.4l2.3-0.1l0.5-4.7h1.4l-0.5,4.7l2.5-0.1l0.5-4.7h1.4l-0.5,4.7l2-0.1v1.4l-2.2,0.1l-0.3,3.6l2.1-0.1v1.4l-2.3,0.1
	l-0.5,4.8h-1.5l0.5-4.8l-2.6,0l-0.5,4.8h-1.5"/>
<path class="st3" d="M3.6,172.2L3.6,172.2c-1.4,0-2.3,1.7-2.2,4.6c0.1,2.8,1,4.4,2.3,4.4l0,0c1.5,0,2.2-1.8,2.1-4.6
	S5.1,172.2,3.6,172.2 M3.6,182.4c-2.1,0-3.6-2-3.7-5.5s1.4-5.8,3.6-5.8h0.1c2.2,0,3.6,2,3.7,5.4C7.4,180.2,6.1,182.3,3.6,182.4
	L3.6,182.4"/>
<polygon class="st3" points="12.2,181.9 11.9,172.3 11.9,172.3 10,173.4 9.7,172.3 12,170.9 13.3,170.9 13.6,181.9 "/>
<path class="st3" d="M18.2,114.4c-0.6-0.1-1-0.6-1-1.2c0-0.5,0.4-0.9,1-1l0,0c0.6,0,1,0.4,1,1C19.2,113.8,18.8,114.3,18.2,114.4
	C18.2,114.3,18.2,114.3,18.2,114.4L18.2,114.4 M18.4,120.3c-0.6-0.1-1-0.6-1-1.2c0-0.5,0.4-0.9,1-1l0,0c0.6,0,1,0.4,1,1
	C19.4,119.8,19,120.3,18.4,120.3C18.4,120.3,18.4,120.3,18.4,120.3L18.4,120.3"/>
<path class="st3" d="M21.7,114.3c-0.6,0-1-0.4-1-1c0-0.6,0.4-1,0.9-1.1c0,0,0.1,0,0.1,0l0,0c0.6,0,1,0.4,1,1
	C22.7,113.7,22.3,114.2,21.7,114.3C21.7,114.3,21.7,114.3,21.7,114.3L21.7,114.3 M21.8,120.3c-0.6,0-1-0.4-1-1c0-0.6,0.4-1,0.9-1.1
	c0,0,0.1,0,0.1,0l0,0c0.6,0,1,0.4,1,1C22.9,119.7,22.5,120.2,21.8,120.3C21.9,120.2,21.9,120.2,21.8,120.3L21.8,120.3"/>
<path class="st3" d="M108.7,2.2c-0.6,0-1-0.4-1-1c0-0.6,0.4-1,0.9-1.1c0,0,0.1,0,0.1,0l0,0c0.6,0,1,0.4,1,1
	C109.7,1.7,109.3,2.2,108.7,2.2C108.8,2.2,108.7,2.2,108.7,2.2L108.7,2.2 M108.9,8.2c-0.6-0.1-1-0.6-1-1.2c0-0.5,0.4-0.9,1-1l0,0
	c0.6,0,1,0.4,1,1C109.9,7.6,109.5,8.1,108.9,8.2C108.9,8.2,108.9,8.2,108.9,8.2L108.9,8.2"/>
<path class="st3" d="M112.2,2.1c-0.6,0-1-0.4-1-1c0-0.6,0.4-1,0.9-1.1c0,0,0.1,0,0.1,0l0,0c0.6,0,1,0.4,1,1
	C113.2,1.6,112.8,2,112.2,2.1C112.2,2.1,112.2,2.1,112.2,2.1L112.2,2.1 M112.4,8.1c-0.6,0-1-0.4-1-1c0-0.6,0.4-1,0.9-1.1
	c0,0,0.1,0,0.1,0l0,0c0.6,0,1,0.4,1,1C113.4,7.6,113,8,112.4,8.1C112.4,8.1,112.4,8.1,112.4,8.1L112.4,8.1"/>
<polygon class="st0" points="52.7,212.2 53,197.9 56.2,198 56.2,199 54.2,198.9 53.9,211.3 56,211.3 56,212.3 "/>
<polygon class="st0" points="64,198.1 63.8,212.4 60.5,212.4 60.5,211.4 62.6,211.4 62.8,199.1 60.7,199 60.7,198 "/>
<path class="st0" d="M56.8,166.4c-0.1,4-1.7,6.2-4.3,6.2c-2.3-0.1-3.8-2.3-3.8-6.2s1.9-6.1,4.3-6.1S56.9,162.6,56.8,166.4
	 M50.3,166.4c-0.1,3.1,0.8,4.9,2.3,4.9c1.7,0,2.5-1.8,2.6-4.9s-0.7-4.9-2.3-4.9C51.5,161.5,50.4,163.2,50.3,166.4"/>
<path class="st0" d="M141.3,245.1c-0.1,4-1.7,6.2-4.3,6.2c-2.3-0.1-3.8-2.3-3.8-6.2s1.9-6.1,4.3-6.1S141.4,241.3,141.3,245.1
	 M134.9,245.1c-0.1,3.1,0.8,4.9,2.3,4.9c1.7,0,2.5-1.8,2.6-4.9s-0.6-4.9-2.3-4.9C136,240.2,135,241.9,134.9,245.1"/>
<path class="st0" d="M306,87.7c-0.1,4-1.7,6.2-4.3,6.2c-2.3-0.1-3.8-2.3-3.8-6.2s1.9-6.1,4.3-6.1S306.1,83.9,306,87.7 M299.5,87.7
	c-0.1,3.1,0.8,4.9,2.3,4.9c1.7,0,2.5-1.8,2.6-4.9s-0.6-4.9-2.3-4.9C300.7,82.8,299.6,84.5,299.5,87.7"/>
<path class="st0" d="M204.4,248.2v-0.5c-0.1-1.2,0.3-2.3,1.1-3.2c0.7-0.7,1.2-1.6,1.3-2.5c0-0.8-0.6-1.5-1.5-1.6c-0.1,0-0.2,0-0.3,0
	c-0.7,0-1.3,0.2-1.8,0.6l-0.5-1.2c0.8-0.5,1.7-0.8,2.6-0.8c2.1,0,3.1,1.3,3.1,2.7c-0.1,1.2-0.7,2.4-1.5,3.2c-0.7,0.7-1.1,1.7-1,2.7
	v0.5L204.4,248.2L204.4,248.2z M204.1,250.8c0-0.6,0.4-1.1,1-1.2c0,0,0.1,0,0.1,0c0.6,0,1.2,0.5,1.2,1.1c0,0.6-0.5,1.2-1.1,1.2
	C204.6,251.9,204.1,251.4,204.1,250.8C204.1,250.8,204.1,250.8,204.1,250.8"/>
<path class="st3" d="M353.2,113.4v-0.5c-0.1-1.2,0.3-2.3,1.1-3.2c0.7-0.7,1.2-1.6,1.3-2.5c0-0.8-0.6-1.5-1.5-1.6c-0.1,0-0.2,0-0.3,0
	c-0.7,0-1.3,0.2-1.8,0.6l-0.5-1.2c0.8-0.5,1.7-0.8,2.6-0.8l0,0c2.1,0,3,1.3,3,2.7c-0.1,1.2-0.7,2.4-1.5,3.2c-0.7,0.7-1.1,1.7-1,2.7
	v0.5H353.2 M353.9,117.1c-0.6,0-1.1-0.5-1.1-1.1c0,0,0,0,0-0.1c0-0.6,0.4-1.1,1-1.2c0,0,0.1,0,0.1,0l0,0c0.6,0,1.1,0.5,1.1,1.1
	C355,116.6,354.5,117.1,353.9,117.1L353.9,117.1"/>
<path class="st0" d="M55.9,91.5V91c0-1.2,0.5-2.3,1.3-3.1c0.8-0.6,1.3-1.5,1.4-2.4c0.1-0.8-0.5-1.6-1.4-1.7c-0.1,0-0.2,0-0.3,0
	c-0.7,0-1.3,0.1-1.9,0.5l-0.4-1.2c0.8-0.4,1.7-0.7,2.7-0.6c2.1,0.1,3,1.5,2.9,2.8c-0.2,1.2-0.8,2.3-1.7,3.1
	c-0.7,0.7-1.2,1.6-1.2,2.6v0.5L55.9,91.5z M55.4,94c0-0.6,0.5-1.1,1.1-1.1c0,0,0.1,0,0.1,0c0.6,0,1.1,0.5,1.1,1.2
	c0,0.6-0.5,1.1-1.2,1.1C55.9,95.2,55.4,94.7,55.4,94C55.4,94,55.4,94,55.4,94"/>
<path class="st0" d="M207,66.1c-0.4-0.5-0.3-1.2,0.2-1.5c0,0,0,0,0.1,0c0.5-0.4,1.2-0.3,1.6,0.3c0.4,0.5,0.3,1.2-0.3,1.6
	C208.1,66.8,207.4,66.7,207,66.1C207,66.1,207,66.1,207,66.1"/>
<path class="st0" d="M274.6,58.3c0,0.6,0,1.3,0,2.4l0.1,5.1c0,2-0.3,3.3-1.2,4.1c-0.9,0.8-2,1.2-3.2,1.1c-1,0.1-2.1-0.2-3-0.7
	l0.4-1.2c0.8,0.4,1.7,0.7,2.6,0.6c1.7,0,2.8-0.9,2.8-3.2v-1l0,0c-0.6,1-1.6,1.6-2.8,1.5c-2.2,0-3.8-1.8-3.9-4.2
	c-0.1-3,1.8-4.8,3.9-4.8c1.1-0.1,2.2,0.5,2.8,1.5l0,0v-1.3L274.6,58.3z M273,61.9c0-1.3-1-2.4-2.3-2.4c0,0-0.1,0-0.1,0
	c-1.5,0-2.6,1.4-2.6,3.4c0,1.7,1,3.2,2.7,3.1c1,0,1.9-0.7,2.2-1.7c0.1-0.3,0.1-0.6,0.1-0.9L273,61.9z"/>
<path class="st0" d="M112.2,236.7c0,0.6,0,1.3,0,2.4l0.1,5.1c0,2-0.3,3.3-1.2,4.1c-0.9,0.8-2,1.2-3.2,1.1c-1,0.1-2.1-0.2-3-0.7
	l0.4-1.2c0.8,0.4,1.7,0.7,2.6,0.6c1.7,0,2.8-0.9,2.8-3.2v-1l0,0c-0.6,1-1.6,1.6-2.8,1.5c-2.2,0-3.8-1.8-3.9-4.2
	c-0.1-3,1.8-4.8,3.9-4.8c1.1-0.1,2.2,0.5,2.8,1.5l0,0v-1.3L112.2,236.7z M110.6,240.2c0-1.3-1-2.4-2.3-2.4c0,0-0.1,0-0.1,0
	c-1.5,0-2.6,1.4-2.6,3.4c0,1.7,1,3.2,2.7,3.1c1,0,1.9-0.7,2.2-1.7c0.1-0.3,0.1-0.6,0.1-0.9L110.6,240.2z"/>
<path class="st2" d="M218.3,21L218.3,21c-1.6,0-2.7,1.4-2.6,3.4c0,1.7,0.9,3.1,2.6,3.1h0.1c1,0,1.9-0.7,2.2-1.7
	c0.1-0.3,0.1-0.6,0.1-0.9v-1.6C220.7,22,219.6,21,218.3,21C218.3,21,218.3,21,218.3,21 M217.8,32.6c-1,0-1.9-0.2-2.8-0.7l0.4-1.2
	c0.8,0.4,1.6,0.6,2.5,0.6h0.1c1.7,0,2.8-0.9,2.8-3.2v-1l0,0c-0.6,1-1.6,1.6-2.8,1.5h-0.1c-2.2,0-3.7-1.8-3.8-4.2
	c-0.1-3,1.8-4.7,3.9-4.8h0.1c1.1-0.1,2.2,0.5,2.7,1.5l0,0v-1.3h1.4c0,0.6,0,1.3,0,2.4l0.1,5.1c0,2-0.3,3.3-1.2,4.1
	c-0.9,0.8-2,1.2-3.2,1.1L217.8,32.6"/>
<path class="st2" d="M139.6,267.1L139.6,267.1c-1.6,0-2.7,1.4-2.6,3.4c0,1.7,0.9,3.1,2.6,3.1h0.1c1,0,1.9-0.7,2.2-1.7
	c0.1-0.3,0.1-0.6,0.1-0.9v-1.6c0-0.2,0-0.5-0.1-0.7C141.5,267.8,140.6,267.1,139.6,267.1 M139.1,278.7c-1,0-1.9-0.2-2.8-0.7l0.4-1.2
	c0.8,0.4,1.6,0.6,2.5,0.6h0.1c1.7,0,2.8-0.9,2.8-3.2v-1l0,0c-0.6,1-1.6,1.6-2.8,1.5h-0.1c-2.2,0-3.7-1.8-3.8-4.2
	c-0.1-3,1.8-4.8,3.9-4.8h0.1c1.1-0.1,2.1,0.5,2.7,1.5l0,0V266h1.4c0,0.6,0,1.4,0,2.4l0.1,5.1c0,2-0.3,3.3-1.2,4.1
	c-0.9,0.8-2,1.2-3.2,1.1L139.1,278.7"/>
<path class="st1" d="M48.4,51.8c0.6-1.9,1-3.8,1.3-5.8l2.2-0.3c-0.5,2-1.2,4-2.2,5.8L48.4,51.8 M44.8,51.8c0.6-1.9,1-3.8,1.3-5.8
	l2.2-0.3c-0.5,2-1.2,4-2.1,5.8L44.8,51.8"/>
<path class="st2" d="M319.4,67.8l4.1-6.1l-4.2-5.7l2.4,0l1.7,2.5c0.5,0.7,0.8,1.3,1.2,1.9h0.1c0.4-0.7,0.8-1.3,1.1-2l1.6-2.6l2.3,0
	l-3.9,5.8l4.3,6l-2.4,0l-1.8-2.6c-0.5-0.7-0.9-1.3-1.3-2l0,0c-0.4,0.7-0.8,1.4-1.2,2.1l-1.7,2.7L319.4,67.8"/>
<path class="st1" d="M30.6,152.5v-1.3H31c1.4-0.1,1.9-0.8,1.9-2.2c0-0.6-0.1-1.2-0.2-1.8c-0.1-0.6-0.2-1.2-0.2-1.9
	c0-1.6,0.6-2.4,1.7-2.7l0,0c-1.2-0.3-2-1.4-1.8-2.6c0-0.6,0.1-1.2,0.1-1.9c0.1-0.6,0.1-1.2,0.1-1.7c0-1.3-0.6-2.1-2-2.1h-0.5v-1.3
	h0.6c2,0,3.5,0.9,3.5,3.1c0,0.7-0.1,1.3-0.2,2c-0.1,0.7-0.1,1.4-0.2,2.1c0,0.8,0.3,1.8,1.9,1.8H36v1.3c-1.7,0-2,1.1-1.9,1.8
	c0,0.7,0.1,1.3,0.2,2c0.1,0.7,0.2,1.3,0.2,2c0.1,2.5-1.5,3.4-3.5,3.4L30.6,152.5"/>
<polygon class="st6" points="279.6,215.7 264.7,201 266.8,199.6 267.5,200.7 268,200.2 276.8,208.4 276.6,100.7 266.4,86.2
	268.9,84.5 279.6,99.7 "/>
<polygon class="st6" points="279.6,215.7 84,215.4 74.6,202.3 76.4,199.9 85.6,212.4 278.1,212.4 "/>
<polygon class="st0" points="171.4,147.4 76.1,86.6 77.8,84.1 171.4,143.9 266.8,84.1 268.4,86.6 "/>
<path class="st0" d="M269.1,202.3H74.5l0.9-118.5h193.7V202.3z M77.6,199.3h188.5V86.8H78.4L77.6,199.3z"/>
<rect x="60.7" y="163.2" transform="matrix(0.6905 -0.7233 0.7233 0.6905 -84.9275 130.8952)" class="st0" width="99.7" height="3"/>
<rect x="231" y="115.3" transform="matrix(0.7232 -0.6906 0.6906 0.7232 -49.7111 206.3127)" class="st0" width="3" height="99.7"/>
</svg>
