<svg viewBox="0 0 53.4 53.42" xmlns="http://www.w3.org/2000/svg"><g fill="#fff" stroke="#fff" stroke-miterlimit="10"><path d="M27 15.85c-1.36 0-2.39.71-2.39 1.85v10.53c0 1.14 1 1.85 2.39 1.85s2.39-.74 2.39-1.85V17.7c-.01-1.12-1.07-1.85-2.39-1.85zm0 16.6a2.37 2.37 0 1 0 2.37 2.37A2.37 2.37 0 0 0 27 32.45z"/><path d="M7.69 31.93L4 39.71l9.05 1 .52 8.9 8.45-4L27.58 53l4.94-7.42 7.78 3.78.7-9.2 9-.22-3.35-7.64L53 26.81l-7-5.63 4.42-7.56-9.35-.74-.75-9.2-7.87 3.78L27 .42l-5.1 7.19-8.15-4.3-.45 9.42-9.3.44 3.52 8.9-7.08 4.37zm2.91-8.85l-.76-1.92-2.25-5.69 5.83-.28 2.24-.11.11-2.23L16 7.3l4.72 2.49 1.92 1L23.92 9l3.16-4.47L30.5 9l1.22 1.57 1.79-.85 4.7-2.25.46 5.63.17 2.09 2.09.17 5.44.43-2.44 4.18-1.07 1.82 1.65 1.33 4.66 3.78-4.12 3.56-1.38 1.19.73 1.67 1.88 4.27-5.37.13-2.23.06-.17 2.22-.4 5.56-4.51-2.21-1.94-.94-1.19 1.79-3 4.52L24 44.16l-1.21-1.6-1.79.86-5.15 2.43-.31-5.24-.12-2.07-2.06-.23-5.64-.65L9.93 33l.85-1.81L9.18 30 4.8 26.65l4-2.48z" stroke-width=".5"/></g></svg>