<?xml version="1.0" encoding="utf-8"?>
<!-- Generator: Adobe Illustrator 23.0.1, SVG Export Plug-In . SVG Version: 6.00 Build 0)  -->
<svg version="1.1" id="Warstwa_1" xmlns="http://www.w3.org/2000/svg" xmlns:xlink="http://www.w3.org/1999/xlink" x="0px" y="0px"
	 viewBox="0 0 641 161" enable-background="new 0 0 641 161" xml:space="preserve">
<g>
	<g>
		<g>
			<defs>
				<rect id="XMLID_76_" x="192.6" y="96.5" width="32" height="32"/>
			</defs>
			<use xlink:href="#XMLID_76_"  overflow="visible" fill="#0000CC"/>
			<clipPath id="XMLID_2_">
				<use xlink:href="#XMLID_76_"  overflow="visible"/>
			</clipPath>
			<g clip-path="url(#XMLID_2_)">
				<g enable-background="new    ">
					<polygon fill="#000099" points="221.4,99.7 221.4,125.3 195.8,125.3 192.6,128.5 224.6,128.5 224.6,96.5 					"/>
					<polygon fill="#0000FF" points="192.6,96.5 192.6,128.5 195.8,125.3 195.8,99.7 221.4,99.7 224.6,96.5 					"/>
				</g>
			</g>
			<use xlink:href="#XMLID_76_"  overflow="visible" fill="none" stroke="#000000" stroke-miterlimit="10"/>
		</g>
		<g>
			<defs>
				<rect id="XMLID_75_" x="384.5" y="128.5" width="32" height="32"/>
			</defs>
			<use xlink:href="#XMLID_75_"  overflow="visible" fill="#0000CC"/>
			<clipPath id="XMLID_3_">
				<use xlink:href="#XMLID_75_"  overflow="visible"/>
			</clipPath>
			<g clip-path="url(#XMLID_3_)">
				<g enable-background="new    ">
					<polygon fill="#000099" points="413.3,131.7 413.3,157.3 387.7,157.3 384.5,160.5 416.5,160.5 416.5,128.5 					"/>
					<polygon fill="#0000FF" points="384.5,128.5 384.5,160.5 387.7,157.3 387.7,131.7 413.3,131.7 416.5,128.5 					"/>
				</g>
			</g>
			<use xlink:href="#XMLID_75_"  overflow="visible" fill="none" stroke="#000000" stroke-miterlimit="10"/>
		</g>
		<g>
			<defs>
				<rect id="XMLID_74_" x="160.6" y="128.5" width="32" height="32"/>
			</defs>
			<use xlink:href="#XMLID_74_"  overflow="visible" fill="#0000CC"/>
			<clipPath id="XMLID_4_">
				<use xlink:href="#XMLID_74_"  overflow="visible"/>
			</clipPath>
			<g clip-path="url(#XMLID_4_)">
				<g enable-background="new    ">
					<polygon fill="#000099" points="189.4,131.7 189.4,157.3 163.8,157.3 160.6,160.5 192.6,160.5 192.6,128.5 					"/>
					<polygon fill="#0000FF" points="160.6,128.5 160.6,160.5 163.8,157.3 163.8,131.7 189.4,131.7 192.6,128.5 					"/>
				</g>
			</g>
			<use xlink:href="#XMLID_74_"  overflow="visible" fill="none" stroke="#000000" stroke-miterlimit="10"/>
		</g>
		<g>
			<defs>
				<rect id="XMLID_73_" x="352.5" y="96.5" width="32" height="32"/>
			</defs>
			<use xlink:href="#XMLID_73_"  overflow="visible" fill="#0000CC"/>
			<clipPath id="XMLID_5_">
				<use xlink:href="#XMLID_73_"  overflow="visible"/>
			</clipPath>
			<g clip-path="url(#XMLID_5_)">
				<g enable-background="new    ">
					<polygon fill="#000099" points="381.3,99.7 381.3,125.3 355.7,125.3 352.5,128.5 384.5,128.5 384.5,96.5 					"/>
					<polygon fill="#0000FF" points="352.5,96.5 352.5,128.5 355.7,125.3 355.7,99.7 381.3,99.7 384.5,96.5 					"/>
				</g>
			</g>
			<use xlink:href="#XMLID_73_"  overflow="visible" fill="none" stroke="#000000" stroke-miterlimit="10"/>
		</g>
		<g>
			<defs>
				<rect id="XMLID_72_" x="352.5" y="128.5" width="32" height="32"/>
			</defs>
			<use xlink:href="#XMLID_72_"  overflow="visible" fill="#0000CC"/>
			<clipPath id="XMLID_6_">
				<use xlink:href="#XMLID_72_"  overflow="visible"/>
			</clipPath>
			<g clip-path="url(#XMLID_6_)">
				<g enable-background="new    ">
					<polygon fill="#000099" points="381.3,131.7 381.3,157.3 355.7,157.3 352.5,160.5 384.5,160.5 384.5,128.5 					"/>
					<polygon fill="#0000FF" points="352.5,128.5 352.5,160.5 355.7,157.3 355.7,131.7 381.3,131.7 384.5,128.5 					"/>
				</g>
			</g>
			<use xlink:href="#XMLID_72_"  overflow="visible" fill="none" stroke="#000000" stroke-miterlimit="10"/>
		</g>
		<g>
			<defs>
				<rect id="XMLID_71_" x="256.5" y="128.5" width="32" height="32"/>
			</defs>
			<use xlink:href="#XMLID_71_"  overflow="visible" fill="#0000CC"/>
			<clipPath id="XMLID_7_">
				<use xlink:href="#XMLID_71_"  overflow="visible"/>
			</clipPath>
			<g clip-path="url(#XMLID_7_)">
				<g enable-background="new    ">
					<polygon fill="#000099" points="285.3,131.7 288.5,128.5 288.5,160.5 285.3,157.3 					"/>
					<polygon fill="#000099" points="285.3,157.3 288.5,160.5 256.5,160.5 259.7,157.3 					"/>
					<polygon fill="#0000FF" points="256.5,128.5 256.5,160.5 259.7,157.3 259.7,131.7 285.3,131.7 288.5,128.5 					"/>
				</g>
			</g>
			<use xlink:href="#XMLID_71_"  overflow="visible" fill="none" stroke="#000000" stroke-miterlimit="10"/>
		</g>
		<g>
			<defs>
				<rect id="XMLID_70_" x="224.5" y="128.5" width="32" height="32"/>
			</defs>
			<use xlink:href="#XMLID_70_"  overflow="visible" fill="#0000CC"/>
			<clipPath id="XMLID_8_">
				<use xlink:href="#XMLID_70_"  overflow="visible"/>
			</clipPath>
			<g clip-path="url(#XMLID_8_)">
				<g enable-background="new    ">
					<polygon fill="#000099" points="253.3,131.7 253.3,157.3 227.7,157.3 224.5,160.5 256.5,160.5 256.5,128.5 					"/>
					<polygon fill="#0000FF" points="224.5,128.5 224.5,160.5 227.7,157.3 227.7,131.7 253.3,131.7 256.5,128.5 					"/>
				</g>
			</g>
			<use xlink:href="#XMLID_70_"  overflow="visible" fill="none" stroke="#000000" stroke-miterlimit="10"/>
		</g>
		<g>
			<defs>
				<rect id="XMLID_69_" x="224.5" y="96.5" width="32" height="32"/>
			</defs>
			<use xlink:href="#XMLID_69_"  overflow="visible" fill="#0000CC"/>
			<clipPath id="XMLID_9_">
				<use xlink:href="#XMLID_69_"  overflow="visible"/>
			</clipPath>
			<g clip-path="url(#XMLID_9_)">
				<g enable-background="new    ">
					<polygon fill="#000099" points="253.3,99.7 256.5,96.5 256.5,128.5 253.3,125.3 					"/>
					<polygon fill="#000099" points="253.3,125.3 256.5,128.5 224.5,128.5 227.7,125.3 					"/>
					<polygon fill="#0000FF" points="224.5,96.5 224.5,128.5 227.7,125.3 227.7,99.7 253.3,99.7 256.5,96.5 					"/>
				</g>
			</g>
			<use xlink:href="#XMLID_69_"  overflow="visible" fill="none" stroke="#000000" stroke-miterlimit="10"/>
		</g>
		<g>
			<defs>
				<rect id="XMLID_68_" x="288.5" y="128.5" width="32" height="32"/>
			</defs>
			<use xlink:href="#XMLID_68_"  overflow="visible" fill="#0000CC"/>
			<clipPath id="XMLID_10_">
				<use xlink:href="#XMLID_68_"  overflow="visible"/>
			</clipPath>
			<g clip-path="url(#XMLID_10_)">
				<g enable-background="new    ">
					<polygon fill="#000099" points="317.3,131.7 317.3,157.3 291.7,157.3 288.5,160.5 320.5,160.5 320.5,128.5 					"/>
					<polygon fill="#0000FF" points="288.5,128.5 288.5,160.5 291.7,157.3 291.7,131.7 317.3,131.7 320.5,128.5 					"/>
				</g>
			</g>
			<use xlink:href="#XMLID_68_"  overflow="visible" fill="none" stroke="#000000" stroke-miterlimit="10"/>
		</g>
		<g>
			<g>
				<defs>
					<rect id="XMLID_67_" x="544.5" y="128.5" width="32" height="32"/>
				</defs>
				<use xlink:href="#XMLID_67_"  overflow="visible" fill="#0000CC"/>
				<clipPath id="XMLID_11_">
					<use xlink:href="#XMLID_67_"  overflow="visible"/>
				</clipPath>
				<g clip-path="url(#XMLID_11_)">
					<g enable-background="new    ">
						<polygon fill="#000099" points="573.3,131.7 576.5,128.5 576.5,160.5 573.3,157.3 						"/>
						<polygon fill="#000099" points="573.3,157.3 576.5,160.5 544.5,160.5 547.7,157.3 						"/>
						<polygon fill="#0000FF" points="544.5,128.5 544.5,160.5 547.7,157.3 547.7,131.7 573.3,131.7 576.5,128.5 						"/>
					</g>
				</g>
				<use xlink:href="#XMLID_67_"  overflow="visible" fill="none" stroke="#000000" stroke-miterlimit="10"/>
			</g>
			<g>
				<path fill="#0000FF" d="M562.3,121.3V111l-2.2,0.7l-0.6-1.4l3.5-1.9h1.6v13H562.3z"/>
			</g>
			<g>
				<defs>
					<rect id="XMLID_66_" x="608.5" y="128.5" width="32" height="32"/>
				</defs>
				<use xlink:href="#XMLID_66_"  overflow="visible" fill="#0000CC"/>
				<clipPath id="XMLID_12_">
					<use xlink:href="#XMLID_66_"  overflow="visible"/>
				</clipPath>
				<g clip-path="url(#XMLID_12_)">
					<g enable-background="new    ">
						<polygon fill="#000099" points="611.7,157.3 637.3,157.3 637.3,131.7 640.5,128.5 640.5,160.5 608.5,160.5 						"/>
						<polygon fill="#0000FF" points="608.5,128.5 608.5,160.5 611.7,157.3 611.7,131.7 637.3,131.7 640.5,128.5 						"/>
					</g>
				</g>
				<use xlink:href="#XMLID_66_"  overflow="visible" fill="none" stroke="#000000" stroke-miterlimit="10"/>
			</g>
			<g>
				<defs>
					<rect id="XMLID_65_" x="576.5" y="128.5" width="32" height="32"/>
				</defs>
				<use xlink:href="#XMLID_65_"  overflow="visible" fill="#0000CC"/>
				<clipPath id="XMLID_13_">
					<use xlink:href="#XMLID_65_"  overflow="visible"/>
				</clipPath>
				<g clip-path="url(#XMLID_13_)">
					<g enable-background="new    ">
						<polygon fill="#000099" points="605.3,131.7 608.5,128.5 608.5,160.5 605.3,157.3 						"/>
						<polygon fill="#000099" points="605.3,157.3 608.5,160.5 576.5,160.5 579.7,157.3 						"/>
						<polygon fill="#0000FF" points="576.5,128.5 576.5,160.5 579.7,157.3 579.7,131.7 605.3,131.7 608.5,128.5 						"/>
					</g>
				</g>
				<use xlink:href="#XMLID_65_"  overflow="visible" fill="none" stroke="#000000" stroke-miterlimit="10"/>
			</g>
			<g>
				<defs>
					<rect id="XMLID_64_" x="576.5" y="96.5" width="32" height="32"/>
				</defs>
				<use xlink:href="#XMLID_64_"  overflow="visible" fill="#0000CC"/>
				<clipPath id="XMLID_14_">
					<use xlink:href="#XMLID_64_"  overflow="visible"/>
				</clipPath>
				<g clip-path="url(#XMLID_14_)">
					<g enable-background="new    ">
						<polygon fill="#000099" points="605.3,99.7 608.5,96.5 608.5,128.5 605.3,125.3 						"/>
						<polygon fill="#000099" points="605.3,125.3 608.5,128.5 576.5,128.5 579.7,125.3 						"/>
						<polygon fill="#0000FF" points="576.5,96.5 576.5,128.5 579.7,125.3 579.7,99.7 605.3,99.7 608.5,96.5 						"/>
					</g>
				</g>
				<use xlink:href="#XMLID_64_"  overflow="visible" fill="none" stroke="#000000" stroke-miterlimit="10"/>
			</g>
			<g>
				<polygon fill="#990033" points="591.6,101.5 590.9,102.1 583.5,107.4 591.6,113.3 				"/>
				<rect x="591.6" y="101.5" fill="#990033" width="1.2" height="11.8"/>
				<rect x="586.9" y="119.8" fill="#050505" width="10.5" height="1.9"/>
				<rect x="583.5" y="121.6" fill="#050505" width="18" height="1.9"/>
				<rect x="591.6" y="113.3" fill="#050505" width="1.2" height="7.1"/>
			</g>
		</g>
		<g>
			<polygon fill="#990033" points="175.6,133.5 174.9,134.1 167.6,139.4 175.6,145.3 			"/>
			<rect x="175.6" y="133.5" fill="#990033" width="1.2" height="11.8"/>
			<rect x="171" y="151.8" fill="#050505" width="10.5" height="1.9"/>
			<rect x="167.6" y="153.6" fill="#050505" width="18" height="1.9"/>
			<rect x="175.6" y="145.3" fill="#050505" width="1.2" height="7.1"/>
		</g>
		<g>
			<g>
				<defs>
					<rect id="XMLID_63_" x="512.5" y="96.5" width="32" height="32"/>
				</defs>
				<use xlink:href="#XMLID_63_"  overflow="visible" fill="#0000CC"/>
				<clipPath id="XMLID_15_">
					<use xlink:href="#XMLID_63_"  overflow="visible"/>
				</clipPath>
				<g clip-path="url(#XMLID_15_)">
					<g enable-background="new    ">
						<polygon fill="#000099" points="541.3,99.7 541.3,125.3 515.7,125.3 512.5,128.5 544.5,128.5 544.5,96.5 						"/>
						<polygon fill="#0000FF" points="512.5,96.5 512.5,128.5 515.7,125.3 515.7,99.7 541.3,99.7 544.5,96.5 						"/>
					</g>
				</g>
				<use xlink:href="#XMLID_63_"  overflow="visible" fill="none" stroke="#000000" stroke-miterlimit="10"/>
			</g>
			<g>
				<defs>
					<rect id="XMLID_62_" x="480.5" y="128.5" width="32" height="32"/>
				</defs>
				<use xlink:href="#XMLID_62_"  overflow="visible" fill="#0000CC"/>
				<clipPath id="XMLID_16_">
					<use xlink:href="#XMLID_62_"  overflow="visible"/>
				</clipPath>
				<g clip-path="url(#XMLID_16_)">
					<g enable-background="new    ">
						<polygon fill="#000099" points="509.3,131.7 509.3,157.3 483.7,157.3 480.5,160.5 512.5,160.5 512.5,128.5 						"/>
						<polygon fill="#0000FF" points="480.5,128.5 480.5,160.5 483.7,157.3 483.7,131.7 509.3,131.7 512.5,128.5 						"/>
					</g>
				</g>
				<use xlink:href="#XMLID_62_"  overflow="visible" fill="none" stroke="#000000" stroke-miterlimit="10"/>
			</g>
			<g>
				<defs>
					<rect id="XMLID_61_" x="512.5" y="128.5" width="32" height="32"/>
				</defs>
				<use xlink:href="#XMLID_61_"  overflow="visible" fill="#0000CC"/>
				<clipPath id="XMLID_17_">
					<use xlink:href="#XMLID_61_"  overflow="visible"/>
				</clipPath>
				<g clip-path="url(#XMLID_17_)">
					<g enable-background="new    ">
						<polygon fill="#000099" points="541.3,131.7 541.3,157.3 515.7,157.3 512.5,160.5 544.5,160.5 544.5,128.5 						"/>
						<polygon fill="#0000FF" points="512.5,128.5 512.5,160.5 515.7,157.3 515.7,131.7 541.3,131.7 544.5,128.5 						"/>
					</g>
				</g>
				<use xlink:href="#XMLID_61_"  overflow="visible" fill="none" stroke="#000000" stroke-miterlimit="10"/>
			</g>
			<g>
				<defs>
					<rect id="XMLID_60_" x="448.5" y="64.6" width="32" height="32"/>
				</defs>
				<use xlink:href="#XMLID_60_"  overflow="visible" fill="#0000CC"/>
				<clipPath id="XMLID_18_">
					<use xlink:href="#XMLID_60_"  overflow="visible"/>
				</clipPath>
				<g clip-path="url(#XMLID_18_)">
					<g enable-background="new    ">
						<polygon fill="#000099" points="477.3,67.8 477.3,93.4 451.7,93.4 448.5,96.6 480.5,96.6 480.5,64.6 						"/>
						<polygon fill="#0000FF" points="448.5,64.6 448.5,96.6 451.7,93.4 451.7,67.8 477.3,67.8 480.5,64.6 						"/>
					</g>
				</g>
				<use xlink:href="#XMLID_60_"  overflow="visible" fill="none" stroke="#000000" stroke-miterlimit="10"/>
			</g>
			<g>
				<defs>
					<rect id="XMLID_59_" x="448.5" y="128.5" width="32" height="32"/>
				</defs>
				<use xlink:href="#XMLID_59_"  overflow="visible" fill="#0000CC"/>
				<clipPath id="XMLID_19_">
					<use xlink:href="#XMLID_59_"  overflow="visible"/>
				</clipPath>
				<g clip-path="url(#XMLID_19_)">
					<g enable-background="new    ">
						<polygon fill="#000099" points="477.3,131.7 477.3,157.3 451.7,157.3 448.5,160.5 480.5,160.5 480.5,128.5 						"/>
						<polygon fill="#0000FF" points="448.5,128.5 448.5,160.5 451.7,157.3 451.7,131.7 477.3,131.7 480.5,128.5 						"/>
					</g>
				</g>
				<use xlink:href="#XMLID_59_"  overflow="visible" fill="none" stroke="#000000" stroke-miterlimit="10"/>
			</g>
			<g>
				<g>
					<defs>
						<rect id="XMLID_58_" x="480.5" y="96.5" width="32" height="32"/>
					</defs>
					<use xlink:href="#XMLID_58_"  overflow="visible" fill="#0000CC"/>
					<clipPath id="XMLID_20_">
						<use xlink:href="#XMLID_58_"  overflow="visible"/>
					</clipPath>
					<g clip-path="url(#XMLID_20_)">
						<g enable-background="new    ">
							<polygon fill="#000099" points="509.3,99.7 512.5,96.5 512.5,128.5 509.3,125.3 							"/>
							<polygon fill="#000099" points="509.3,125.3 512.5,128.5 480.5,128.5 483.7,125.3 							"/>
							<polygon fill="#0000FF" points="480.5,96.5 480.5,128.5 483.7,125.3 483.7,99.7 509.3,99.7 512.5,96.5 							"/>
						</g>
					</g>
					<use xlink:href="#XMLID_58_"  overflow="visible" fill="none" stroke="#000000" stroke-miterlimit="10"/>
				</g>
				<g>
					<polygon fill="#990033" points="495.6,101.5 494.9,102.1 487.5,107.4 495.6,113.3 					"/>
					<rect x="495.6" y="101.5" fill="#990033" width="1.2" height="11.8"/>
					<rect x="490.9" y="119.8" fill="#050505" width="10.5" height="1.9"/>
					<rect x="487.5" y="121.6" fill="#050505" width="18" height="1.9"/>
					<rect x="495.6" y="113.3" fill="#050505" width="1.2" height="7.1"/>
				</g>
			</g>
		</g>
	</g>
</g>
<g>
	<g>
		<defs>
			<rect id="XMLID_33_" x="64.5" y="96.5" width="32" height="32"/>
		</defs>
		<use xlink:href="#XMLID_33_"  overflow="visible" fill="#0000CC"/>
		<clipPath id="XMLID_21_">
			<use xlink:href="#XMLID_33_"  overflow="visible"/>
		</clipPath>
		<g clip-path="url(#XMLID_21_)">
			<g enable-background="new    ">
				<polygon fill="#000099" points="93.3,99.7 96.5,96.5 96.5,128.5 93.3,125.3 				"/>
				<polygon fill="#000099" points="93.3,125.3 96.5,128.5 64.5,128.5 67.7,125.3 				"/>
				<polygon fill="#0000FF" points="64.5,96.5 64.5,128.5 67.7,125.3 67.7,99.7 93.3,99.7 96.5,96.5 				"/>
			</g>
		</g>
		<use xlink:href="#XMLID_33_"  overflow="visible" fill="none" stroke="#000000" stroke-miterlimit="10"/>
	</g>
	<g>
		<defs>
			<rect id="XMLID_32_" x="32.5" y="128.5" width="32" height="32"/>
		</defs>
		<use xlink:href="#XMLID_32_"  overflow="visible" fill="#0000CC"/>
		<clipPath id="XMLID_34_">
			<use xlink:href="#XMLID_32_"  overflow="visible"/>
		</clipPath>
		<g clip-path="url(#XMLID_34_)">
			<g enable-background="new    ">
				<polygon fill="#000099" points="61.3,131.7 64.5,128.5 64.5,160.5 61.3,157.3 				"/>
				<polygon fill="#000099" points="61.3,157.3 64.5,160.5 32.5,160.5 35.7,157.3 				"/>
				<polygon fill="#0000FF" points="32.5,128.5 32.5,160.5 35.7,157.3 35.7,131.7 61.3,131.7 64.5,128.5 				"/>
			</g>
		</g>
		<use xlink:href="#XMLID_32_"  overflow="visible" fill="none" stroke="#000000" stroke-miterlimit="10"/>
	</g>
	<g>
		<defs>
			<rect id="XMLID_31_" x="64.5" y="128.5" width="32" height="32"/>
		</defs>
		<use xlink:href="#XMLID_31_"  overflow="visible" fill="#0000CC"/>
		<clipPath id="XMLID_35_">
			<use xlink:href="#XMLID_31_"  overflow="visible"/>
		</clipPath>
		<g clip-path="url(#XMLID_35_)">
			<g enable-background="new    ">
				<polygon fill="#000099" points="93.3,131.7 96.5,128.5 96.5,160.5 93.3,157.3 				"/>
				<polygon fill="#000099" points="93.3,157.3 96.5,160.5 64.5,160.5 67.7,157.3 				"/>
				<polygon fill="#0000FF" points="64.5,128.5 64.5,160.5 67.7,157.3 67.7,131.7 93.3,131.7 96.5,128.5 				"/>
			</g>
		</g>
		<use xlink:href="#XMLID_31_"  overflow="visible" fill="none" stroke="#000000" stroke-miterlimit="10"/>
	</g>
	<g>
		<defs>
			<rect id="XMLID_30_" x="0.5" y="64.6" width="32" height="32"/>
		</defs>
		<use xlink:href="#XMLID_30_"  overflow="visible" fill="#0000CC"/>
		<clipPath id="XMLID_36_">
			<use xlink:href="#XMLID_30_"  overflow="visible"/>
		</clipPath>
		<g clip-path="url(#XMLID_36_)">
			<g enable-background="new    ">
				<polygon fill="#000099" points="29.3,67.8 29.3,93.4 3.7,93.4 0.5,96.6 32.5,96.6 32.5,64.6 				"/>
				<polygon fill="#0000FF" points="0.5,64.6 0.5,96.6 3.7,93.4 3.7,67.8 29.3,67.8 32.5,64.6 				"/>
			</g>
		</g>
		<use xlink:href="#XMLID_30_"  overflow="visible" fill="none" stroke="#000000" stroke-miterlimit="10"/>
	</g>
	<g>
		<defs>
			<rect id="XMLID_29_" x="0.5" y="128.5" width="32" height="32"/>
		</defs>
		<use xlink:href="#XMLID_29_"  overflow="visible" fill="#0000CC"/>
		<clipPath id="XMLID_37_">
			<use xlink:href="#XMLID_29_"  overflow="visible"/>
		</clipPath>
		<g clip-path="url(#XMLID_37_)">
			<g enable-background="new    ">
				<polygon fill="#000099" points="29.3,131.7 32.5,128.5 32.5,160.5 29.3,157.3 				"/>
				<polygon fill="#000099" points="29.3,157.3 32.5,160.5 0.5,160.5 3.7,157.3 				"/>
				<polygon fill="#0000FF" points="0.5,128.5 0.5,160.5 3.7,157.3 3.7,131.7 29.3,131.7 32.5,128.5 				"/>
			</g>
		</g>
		<use xlink:href="#XMLID_29_"  overflow="visible" fill="none" stroke="#000000" stroke-miterlimit="10"/>
	</g>
	<g>
		<path fill="#0000FF" d="M75.9,51.6c1.7-1.6,2.9-2.8,3.6-3.6c0.7-0.8,1.3-1.5,1.7-2.1c0.4-0.7,0.6-1.3,0.6-2c0-0.5-0.2-1-0.5-1.3
			c-0.3-0.3-0.8-0.5-1.4-0.5c-0.4,0-0.7,0-1,0.1c-0.3,0.1-0.6,0.2-0.8,0.3s-0.4,0.2-0.4,0.3c-0.3,0.5-0.4,0.8-0.4,0.8c0,0,0,0,0,0
			c0,0,0,0,0.1,0c0,0,0.1,0,0.1,0c0,0,0,0,0,0l-0.1,0.2l-0.2-0.1l-1.5-1.2c0.5-0.8,1.1-1.4,1.8-1.9c0.7-0.4,1.5-0.6,2.4-0.6
			c0.8,0,1.5,0.2,2.1,0.5c0.6,0.3,1.1,0.8,1.4,1.3c0.3,0.6,0.5,1.2,0.5,2c0,0.7-0.2,1.4-0.5,2.1c-0.3,0.7-0.8,1.3-1.4,2
			c-0.6,0.6-1.4,1.5-2.5,2.6l-0.8,0.8H83c0.2,0,0.4,0,0.5,0c0.1,0,0.2-0.1,0.3-0.1H84v2.1h-8V51.6z"/>
	</g>
	<g>
		<defs>
			<rect id="XMLID_28_" x="64.5" y="64.5" width="32" height="32"/>
		</defs>
		<use xlink:href="#XMLID_28_"  overflow="visible" fill="#0000CC"/>
		<clipPath id="XMLID_38_">
			<use xlink:href="#XMLID_28_"  overflow="visible"/>
		</clipPath>
		<g clip-path="url(#XMLID_38_)">
			<g enable-background="new    ">
				<polygon fill="#000099" points="93.3,67.7 96.5,64.5 96.5,96.5 93.3,93.3 				"/>
				<polygon fill="#000099" points="93.3,93.3 96.5,96.5 64.5,96.5 67.7,93.3 				"/>
				<polygon fill="#0000FF" points="64.5,64.5 64.5,96.5 67.7,93.3 67.7,67.7 93.3,67.7 96.5,64.5 				"/>
			</g>
		</g>
		<use xlink:href="#XMLID_28_"  overflow="visible" fill="none" stroke="#000000" stroke-miterlimit="10"/>
	</g>
	<g>
		<polygon fill="#990033" points="79.6,69.5 78.9,70.1 71.5,75.4 79.6,81.3 		"/>
		<rect x="79.6" y="69.5" fill="#990033" width="1.2" height="11.8"/>
		<rect x="74.9" y="87.8" fill="#050505" width="10.5" height="1.9"/>
		<rect x="71.5" y="89.6" fill="#050505" width="18" height="1.9"/>
		<rect x="79.6" y="81.3" fill="#050505" width="1.2" height="7.1"/>
	</g>
	<g>
		<g>
			<defs>
				<rect id="XMLID_27_" x="32.5" y="96.5" width="32" height="32"/>
			</defs>
			<use xlink:href="#XMLID_27_"  overflow="visible" fill="#0000CC"/>
			<clipPath id="XMLID_39_">
				<use xlink:href="#XMLID_27_"  overflow="visible"/>
			</clipPath>
			<g clip-path="url(#XMLID_39_)">
				<g enable-background="new    ">
					<polygon fill="#000099" points="61.3,99.7 64.5,96.5 64.5,128.5 61.3,125.3 					"/>
					<polygon fill="#000099" points="61.3,125.3 64.5,128.5 32.5,128.5 35.7,125.3 					"/>
					<polygon fill="#0000FF" points="32.5,96.5 32.5,128.5 35.7,125.3 35.7,99.7 61.3,99.7 64.5,96.5 					"/>
				</g>
			</g>
			<use xlink:href="#XMLID_27_"  overflow="visible" fill="none" stroke="#000000" stroke-miterlimit="10"/>
		</g>
		<g>
			<polygon fill="#990033" points="47.6,101.5 46.9,102.1 39.5,107.4 47.6,113.3 			"/>
			<rect x="47.6" y="101.5" fill="#990033" width="1.2" height="11.8"/>
			<rect x="42.9" y="119.8" fill="#050505" width="10.5" height="1.9"/>
			<rect x="39.5" y="121.6" fill="#050505" width="18" height="1.9"/>
			<rect x="47.6" y="113.3" fill="#050505" width="1.2" height="7.1"/>
		</g>
	</g>
	<g>
		<defs>
			<rect id="XMLID_26_" x="64.5" y="0.5" width="32" height="32"/>
		</defs>
		<use xlink:href="#XMLID_26_"  overflow="visible" fill="#0000CC"/>
		<clipPath id="XMLID_40_">
			<use xlink:href="#XMLID_26_"  overflow="visible"/>
		</clipPath>
		<g clip-path="url(#XMLID_40_)">
			<g enable-background="new    ">
				<polygon fill="#000099" points="93.3,3.7 96.5,0.5 96.5,32.5 93.3,29.3 				"/>
				<polygon fill="#000099" points="93.3,29.3 96.5,32.5 64.5,32.5 67.7,29.3 				"/>
				<polygon fill="#0000FF" points="64.5,0.5 64.5,32.5 67.7,29.3 67.7,3.7 93.3,3.7 96.5,0.5 				"/>
			</g>
		</g>
		<use xlink:href="#XMLID_26_"  overflow="visible" fill="none" stroke="#000000" stroke-miterlimit="10"/>
	</g>
	<g>
		<g>
			<defs>
				<rect id="XMLID_25_" x="96.5" y="64.5" width="32" height="32"/>
			</defs>
			<use xlink:href="#XMLID_25_"  overflow="visible" fill="#0000CC"/>
			<clipPath id="XMLID_41_">
				<use xlink:href="#XMLID_25_"  overflow="visible"/>
			</clipPath>
			<g clip-path="url(#XMLID_41_)">
				<g enable-background="new    ">
					<polygon fill="#000099" points="125.3,67.7 128.5,64.5 128.5,96.5 125.3,93.3 					"/>
					<polygon fill="#000099" points="125.3,93.3 128.5,96.5 96.5,96.5 99.7,93.3 					"/>
					<polygon fill="#0000FF" points="96.5,64.5 96.5,96.5 99.7,93.3 99.7,67.7 125.3,67.7 128.5,64.5 					"/>
				</g>
			</g>
			<use xlink:href="#XMLID_25_"  overflow="visible" fill="none" stroke="#000000" stroke-miterlimit="10"/>
		</g>
		<g>
			<path fill="#0000FF" d="M15,121.3V111l-2.2,0.7l-0.6-1.4l3.5-1.9h1.6v13H15z"/>
		</g>
		<g>
			<defs>
				<rect id="XMLID_24_" x="128.5" y="128.5" width="32" height="32"/>
			</defs>
			<use xlink:href="#XMLID_24_"  overflow="visible" fill="#0000CC"/>
			<clipPath id="XMLID_42_">
				<use xlink:href="#XMLID_24_"  overflow="visible"/>
			</clipPath>
			<g clip-path="url(#XMLID_42_)">
				<g enable-background="new    ">
					<polygon fill="#000099" points="157.3,131.7 160.5,128.5 160.5,160.5 157.3,157.3 					"/>
					<polygon fill="#000099" points="157.3,157.3 160.5,160.5 128.5,160.5 131.7,157.3 					"/>
					<polygon fill="#0000FF" points="128.5,128.5 128.5,160.5 131.7,157.3 131.7,131.7 157.3,131.7 160.5,128.5 					"/>
				</g>
			</g>
			<use xlink:href="#XMLID_24_"  overflow="visible" fill="none" stroke="#000000" stroke-miterlimit="10"/>
		</g>
		<g>
			<defs>
				<rect id="XMLID_23_" x="96.5" y="128.5" width="32" height="32"/>
			</defs>
			<use xlink:href="#XMLID_23_"  overflow="visible" fill="#0000CC"/>
			<clipPath id="XMLID_43_">
				<use xlink:href="#XMLID_23_"  overflow="visible"/>
			</clipPath>
			<g clip-path="url(#XMLID_43_)">
				<g enable-background="new    ">
					<polygon fill="#000099" points="125.3,131.7 128.5,128.5 128.5,160.5 125.3,157.3 					"/>
					<polygon fill="#000099" points="125.3,157.3 128.5,160.5 96.5,160.5 99.7,157.3 					"/>
					<polygon fill="#0000FF" points="96.5,128.5 96.5,160.5 99.7,157.3 99.7,131.7 125.3,131.7 128.5,128.5 					"/>
				</g>
			</g>
			<use xlink:href="#XMLID_23_"  overflow="visible" fill="none" stroke="#000000" stroke-miterlimit="10"/>
		</g>
		<g>
			<defs>
				<rect id="XMLID_22_" x="96.5" y="96.5" width="32" height="32"/>
			</defs>
			<use xlink:href="#XMLID_22_"  overflow="visible" fill="#0000CC"/>
			<clipPath id="XMLID_44_">
				<use xlink:href="#XMLID_22_"  overflow="visible"/>
			</clipPath>
			<g clip-path="url(#XMLID_44_)">
				<g enable-background="new    ">
					<polygon fill="#000099" points="125.3,99.7 128.5,96.5 128.5,128.5 125.3,125.3 					"/>
					<polygon fill="#000099" points="125.3,125.3 128.5,128.5 96.5,128.5 99.7,125.3 					"/>
					<polygon fill="#0000FF" points="96.5,96.5 96.5,128.5 99.7,125.3 99.7,99.7 125.3,99.7 128.5,96.5 					"/>
				</g>
			</g>
			<use xlink:href="#XMLID_22_"  overflow="visible" fill="none" stroke="#000000" stroke-miterlimit="10"/>
		</g>
	</g>
</g>
</svg>
