<svg viewBox="0 0 2174.1 575" xmlns="http://www.w3.org/2000/svg"><path d="M2169.76 528.42l-17.5-87.83-106.47-53-95.79 26.22-9.07 36.29h-40.33v-2.87l-1351.09-1.07v1.93h-9.07l-37.31-21.18-46.38 5.04-60.5-16.13-16.13-12.1-36.3 9.08-42.35 4.03-32.26 10.08-46.38-16.13-20.17 20.17-125.02-19.16-68.57 23.19L0 712.25l2174.1.67zM923.91 325.14H913v-18.38h10.9zm-9.89-1h8.88v-16.37H914z" fill="#000000"/><path d="M913.54 307.26l9.86 17.38h-9.65s-.2-17.4-.21-17.38zM1586 444.22v-52.8l-60.54.35v-90.51h-2.53v11.84h-12.61v-11.84h-2.53v11.84h-12.61V170.53h-2.54v11.92H1480v-11.92h-2.54v11.92h-12.6V65.64h-2.54v12.12h-12.53V0h-2.53v77.76h-12.61V65.64h-2.53v116.81h-12.61v-11.92H1417v11.92h-12.61v-11.92h-2.53V313.1h-12.66v-11.84h-2.53v11.84h-12.61v-11.84h-2.53v90.51H1311v54.99h275zm-242.62-49.91l28.33 24.53h-28.73v-24.53zm-1.24 24l-27.67-24h27.67zm0 26h-.32l-28.2-24.42v-.11h28.52zm.84 0v-24l27.76 24zm.71-24.53h28.73v24.53h-.42zm238.94 24.53h-27.75v-24zm-27-24.53h27.88v24.14zm-.32-25.38l28.2 24.42v.11h-28.59v-24.62zm1.29 0h26.91v23.3zm-2.53 24l-27.75-24H1554zm-30.28 0l-27.75-24h27.75zm-30.28 0l-27.75-24h27.75zm-58-24h27.68v24zm-2.53 24l-27.75-24h27.75zm-30.28 0l-27.75-24h27.75zm.85-102.71h.39l28.33 24.54h-28.77zm89.07-80.43H1464v-24.89h.06l28.53 24.71zm0 26.22H1464v-24.94l28.59 24.77zm-29.43-.57l-28.7-24.91h28.65zm29.43 26.8H1464v-24.94l28.59 24.76zm-29.43-.57l-28.65-24.81h28.65zm59.72 79.31h-28.6v-24.93l28.6 24.76zM1402.65 341v24.88l-28.59-24.76V341zm31.18-130.64l28.67 24.83h-28.72v-24.82zm-.9 24.33l-28.09-24.33h28.09zm.85 1.84l28.72 24.88h-28.72zm-.85 24.38l-28.59-24.76V236h28.59zm.85 1.85l28.72 24.88h-28.72zm-.85 24.38l-28.59-24.77v-.11h28.59zm60.49 104.62h-.4l-28.33-24.53h28.73zm-29.44 0v-24l27.75 24zm0-25.38v-24.86l28.73 24.87zm-.84-.56L1434.49 341h28.65zm-29.36-50.2h.39l28.33 24.54h-28.72zm1.68 0h27.68v24zm28.52 0h.4l28.33 24.54H1464zm-30.2-2.6v-24l27.66 24zm-29.44-24.54h28.59V313h-.48l-28.11-24.35zm28.59 27.14v24l-27.75-24zm.85 25.89l28.72 24.87h-28.72zm29.36 25.72v24.53h-.32l-28.33-24.53zm-29.36 24.53v-24l27.75 24zm-.85 0h-.39l-28.33-24.53h28.72zm-29.43 0v-24l27.75 24zm0-25.38v-24.86l28.72 24.87zm-29.44.85h28.59v24.53h-.39l-28.2-24.42zm120.2 24.53v-24l27.76 24zm-.84-25.88L1464.69 341h28.73zm0-26.22l-27.75-24h27.75zM1464 313v-24l27.67 24zm-.84 0h-.41l-28.33-24.54h28.74zm-28-102.66h28v24.26zm28-1.42l-27.68-24h27.68zm-29-24l28.33 24.53h-28.35l-.37-.32V185zm-1.24 156v24.88l-28.71-24.8zm-29.43 53.3h.39l28.33 24.53h-28.71zm30.28 0h.39l28.33 24.53h-28.72zm30.2 0h.4l28.33 24.53H1464zm30.28 0h.4l28.35 24.62h-28.73zm30.28 0h.4l28.33 24.53h-28.73zM1495 367.24h27.89v24.15zm27.89-2.08L1495 341h27.89zm0-25h-28.6v-24.53h.4l28.2 24.42zm-30.29-27.46l-28-24.22h28zm0-26.3l-27.88-24.14h27.88zm0-26.22L1464.69 236h27.88zm0-26.22l-27.25-23.6h27.25zm0-24.45h-28.22l-.37-.32V185h.4l28.19 24.42zm-30.28-27.6l-27.67-24v-.12h27.67zm0-26.22l-27.67-24v-.12h27.67zm0-26.23l-27.67-24v-.12h27.67zm-29.36 79v.54l-27.75-24h27.75zm-30.28 131.2l-27.75-24h27.75zm-29.44 54.64h.4l28.33 24.53h-28.73zm0 49.91v-24l27.76 24zm.72-24.53h28.72v24.53h-.39zm29.57 24.53v-24l27.75 24zm.71-24.53h28.72v24.53h-.39zm29.57 24.53v-24l27.75 24zm.71-24.53h28.65v24.53h-.32zm29.48 24.54v-24l27.75 24zm.71-24.53h28.73v24.53h-.4zm29.57 24.53v-24l27.76 24zm.71-24.53h28.73v24.53h-.4zm29.57 24.53v-24l27.76 24zm.71-24.53H1554v24.53h-.39zm-2.39-80.75L1496 315.63h26.91zm-30.29-130.65l-26.9-23.3h26.9zm-30.28-105l-26.51-23h26.51zm-89.92 291.06v24l-27.75-24z" fill="#000000"/><path d="M113.54 562.64l-1.23-2.76 131.33-58.11.19-.03 64.32-10.29 71.82-8.42 44.43-5.97 79.69-9.67 36.82-21.84.82 3.03-36.64 21.73-80.3 9.75-44.44 5.97-71.78 8.42-64.07 10.24z" fill="#fff"/><path d="M379.95 484.05h1620.97v2.02H379.95z" fill="#fff"/><g fill="#000000"><path d="M1274.46 172.86h-32.36v-24.07h32.36zm-31.35-1h30.34V149.8h-30.34z"/><path d="M1273.88 172.37l-31.27-23.08v22.64zm-241.12 97.68H1012v-15.53h20.74zM1013 269h18.72v-13.47H1013z"/><path d="M1012.216 255.415l.6-.813 19.68 14.525-.6.813zm20.544 35.665H1012v-15.53h20.74zm-19.73-1h18.72v-13.52H1013z"/><path d="M1012.216 276.453l.6-.813 19.68 14.526-.6.812zm20.544 56.697H1012v-15.53h20.74zm-19.73-1h18.72v-13.52H1013z"/><path d="M1006.855 321.996l.596-.808 19.568 14.432-.596.808zm25.905 32.194H1012v-15.53h20.74zm-19.73-1h18.72v-13.52H1013z"/><path d="M1012.205 339.554l.6-.812 19.68 14.525-.6.813zm20.555 35.666H1012v-15.53h20.74zm-19.73-1h18.72V360.7H1013z"/><path d="M1012.214 360.589l.6-.813 19.68 14.525-.6.813zm20.546 35.671H1012v-15.53h20.74zm-19.73-1h18.72v-13.52H1013z"/><path d="M1012.214 381.617l.6-.812 19.68 14.525-.6.813zm20.546 35.673H1012v-15.53h20.74zm-19.73-1h18.72v-13.52H1013z"/><path d="M1012.212 402.662l.6-.813 19.68 14.525-.6.813zm20.548 35.668H1012V422.8h20.74zm-19.73-1h18.72v-13.52H1013z"/><path d="M1012.213 423.69l.6-.813 19.68 14.526-.6.812zM999.26 270.06h-20.74v-15.53h20.74zm-19.74-1h18.73v-13.52h-18.73z"/><path d="M998.75 269.55l-19.68-14.53v14.93z"/><path d="M979.07 269.95l20.56-.4-20.56-14.53m20.19 36.23h-20.74v-15.53h20.74zm-19.74-1h18.73v-13.52h-18.73z"/><path d="M998.75 290.75l-19.68-14.53v14.92z"/><path d="M979.07 291.14l20.56-.39-20.56-14.53m20.19 35.34h-20.74V296h20.74zm-19.74-1h18.73V297h-18.73z"/><path d="M998.75 311.06l-19.68-14.53v14.92z"/><path d="M979.07 311.45l20.56-.39-20.56-14.53m20.19 36.22h-20.74v-15.53h20.74zm-19.74-1h18.73v-13.52h-18.73z"/><path d="M998.75 332.25l-19.68-14.53v14.93z"/><path d="M979.07 332.65l20.56-.4-20.56-14.53M999.26 354h-20.74v-15.58h20.74zm-19.74-1h18.73v-13.57h-18.73z"/><path d="M998.75 353.44l-19.68-14.53v14.93z"/><path d="M979.07 353.84l20.56-.4-20.56-14.53m20.19 36.23h-20.74v-15.53h20.74zm-19.74-1h18.73v-13.52h-18.73z"/><path d="M998.75 374.63l-19.68-14.52v14.92z"/><path d="M979.07 375.03l20.56-.4-20.56-14.52m20.19 57.42h-20.74V402h20.74zm-19.74-1h18.73V403h-18.73z"/><path d="M998.75 417.02l-19.68-14.53v14.93z"/><path d="M979.07 417.42l20.56-.4-20.56-14.53m20.19 36.23h-20.74v-15.53h20.74zm-19.74-1h18.73V424.2h-18.73z"/><path d="M998.75 438.21l-19.68-14.52v14.92z"/><path d="M979.07 438.61l20.56-.4-20.56-14.52M760.05 306.54h-20.74V291h20.74zm-19.73-1H759V292h-18.68z"/><path d="M739.86 291.51L759.55 306h-19.7s.06-14.49.01-14.49zm20.19 36.22h-20.74v-15.52h20.74zm-19.73-1H759v-13.52h-18.68z"/><path d="M739.86 312.7l19.69 14.53h-19.7s.06-14.53.01-14.53zm20.19 36.23h-20.74V333.4h20.74zm-19.73-1H759v-13.52h-18.68z"/><path d="M739.86 333.89l19.69 14.53h-19.7s.06-14.53.01-14.53zm20.19 35.35h-20.74v-15.53h20.74zm-19.73-1H759v-13.52h-18.68z"/><path d="M739.86 354.21l19.69 14.52h-19.7s.06-14.52.01-14.52zm20.19 36.22h-20.74V374.9h20.74zm-19.73-1H759v-13.52h-18.68z"/><path d="M739.86 375.4l19.69 14.53h-19.7s.06-14.53.01-14.53zm20.19 36.22h-20.74V396.1h20.74zm-19.73-1H759v-13.51h-18.68z"/><path d="M739.86 396.59l19.69 14.53h-19.7s.06-14.53.01-14.53zm52.21 15.12h-20.74v-15.52h20.74zm-19.73-1h18.72v-13.52h-18.72z"/><path d="M771.573 397.067l.6-.813 19.68 14.526-.6.812zm20.497-6.387h-20.74v-15.53h20.74zm-19.73-1h18.72v-13.52h-18.72z"/><path d="M771.573 376.038l.6-.812 19.68 14.525-.6.813zm20.497-6.388h-20.74v-15.53h20.74zm-19.73-1h18.72v-13.52h-18.72z"/><path d="M771.574 355.004l.6-.813 19.68 14.526-.6.812zm20.496-6.394h-20.74v-15.53h20.74zm-19.73-1h18.72v-13.52h-18.72z"/><path d="M771.574 333.966l.6-.813 19.68 14.525-.6.813zm20.496-6.386h-20.74v-15.53h20.74zm-19.73-1h18.72v-13.52h-18.72z"/><path d="M771.565 312.931l.6-.812 19.68 14.525-.6.812zm20.505-6.391h-20.74V291h20.74zm-19.73-1h18.72V292h-18.72z"/><path d="M771.575 291.903l.6-.813 19.68 14.525-.6.813zM625.52 432h-20.74v-15.5h20.74zm-19.73-1h18.72v-13.49h-18.72z"/><path d="M605.03 417.381l.6-.813 19.68 14.526-.6.812zM625.52 411h-20.74v-15.54h20.74zm-19.73-1h18.72v-13.53h-18.72z"/><path d="M605.04 396.373l.6-.813 19.68 14.525-.6.813zM625.52 390h-20.74v-15.57h20.74zm-19.73-1h18.72v-13.56h-18.72z"/><path d="M605.03 375.324l.6-.813 19.68 14.526-.6.812zm20.49-6.404h-20.74v-15.53h20.74zm-19.73-1h18.72V354.4h-18.72z"/><path d="M605.03 354.28l.6-.813 19.68 14.525-.599.813zm20.49-6.39h-20.74v-15.53h20.74zm-19.73-1h18.72v-13.52h-18.72z"/><path d="M605.03 333.251l.6-.812 19.68 14.525-.6.813zm20.49-6.401h-20.74v-15.53h20.74zm-19.73-1h18.72v-13.52h-18.72z"/><path d="M605.032 312.217l.6-.813 19.68 14.526-.6.812zM590.2 369.8h-20.74v-15.52h20.74zm-19.73-1h18.72v-13.52h-18.72z"/><path d="M589.19 368.85l-19.16-14.11v14.34zM590.2 391h-20.74v-15.53h20.74zm-19.73-1h18.72v-13.52h-18.72z"/><path d="M589.19 390.04l-19.16-14.1v14.33zm1.01 22.15h-20.74v-15.53h20.74zm-19.73-1h18.72v-13.52h-18.72z"/><path d="M589.19 411.24l-19.16-14.11v14.34zm1.01 22.14h-20.74v-15.52h20.74zm-19.73-1h18.72v-13.52h-18.72z"/><path d="M589.19 432.43l-19.16-14.11v14.34zm334.72-207.96H913v-18.38h10.9zm-9.89-1h8.88V207.1H914z"/><path d="M913.54 206.59L923.4 224h-9.65s-.2-17.43-.21-17.41zm-246.69-7.75h-7.17V187h7.17zm-6.16-1h5.15V188h-5.15z"/><path d="M659.757 187.73l.878-.5 6.146 10.828-.878.499zm7.093-20.24h-7.17v-11.83h7.17zm-6.16-1h5.15v-9.81h-5.15z"/><path d="M659.766 156.414l.878-.498 6.146 10.827-.878.498zm7.084-4.604h-7.17V140h7.17zm-6.16-1h5.15V141h-5.15z"/><path d="M659.766 140.738l.878-.499 6.146 10.828-.878.498zM666.85 260h-7.17v-11.85h7.17zm-6.16-1h5.15v-9.81h-5.15z"/><path d="M659.763 248.91l.878-.499 6.146 10.827-.878.499zm7.087-4.6h-7.17v-11.83h7.17zm-6.16-1h5.15v-9.81h-5.15z"/><path d="M659.762 233.223l.879-.498 6.146 10.827-.879.499zm7.088-4.593h-7.17v-11.82h7.17zm-6.16-1h5.15v-9.81h-5.15z"/><path d="M659.757 217.526l.879-.499 6.145 10.827-.878.499zM666.85 213h-7.17v-11.87h7.17zm-6.16-1h5.15v-9.81h-5.15z"/><path d="M659.762 201.888l.878-.499 6.146 10.828-.878.498zm22.788-3.048h-7.17V187h7.17zm-6.16-1h5.15V188h-5.15z"/><path d="M675.46 187.73l.879-.5 6.146 10.828-.879.499zm7.09-4.57h-7.17v-11.83h7.17zm-6.16-1h5.15v-9.81h-5.15z"/><path d="M675.465 172.082l.879-.499 6.145 10.827-.878.5zm7.085-4.592h-7.17v-11.83h7.17zm-6.16-1h5.15v-9.81h-5.15z"/><path d="M675.47 156.414l.878-.499 6.146 10.828-.878.498zm7.08-4.604h-7.17V140h7.17zm-6.16-1h5.15V141h-5.15z"/><path d="M675.46 140.738l.878-.499 6.146 10.827-.879.499zM682.55 260h-7.17v-11.85h7.17zm-6.16-1h5.15v-9.81h-5.15z"/><path d="M675.466 248.91l.879-.499 6.146 10.827-.879.499zm7.084-20.28h-7.17v-11.82h7.17zm-6.16-1h5.15v-9.81h-5.15z"/><path d="M675.46 217.525l.88-.498 6.145 10.827-.878.499zm7.09-4.525h-7.17v-11.87h7.17zm-6.16-1h5.15v-9.81h-5.15z"/><path d="M675.466 201.888l.878-.499 6.146 10.828-.879.498zm42.614-50.078h-7.17V140h7.17zm-6.16-1h5.15V141h-5.15z"/><path d="M711.43 140.49l6.15 10.82h-5.99zm6.65 27.22h-7.17v-11.83h7.17zm-6.16-1h5.15v-9.81h-5.15z"/><path d="M711.43 156.38l6.15 10.83h-5.99zm6.65 42.24h-7.17v-11.83h7.17zm-6.16-1h5.15v-9.82h-5.15z"/><path d="M711.43 187.29l6.15 10.82h-5.99zm6.65 41.35h-7.17v-11.83h7.17zm-6.16-1h5.15v-9.81h-5.15z"/><path d="M711.43 217.31l6.15 10.83h-5.99zm6.65-4.56h-7.17v-11.83h7.17zm-6.16-1h5.15v-9.81h-5.15z"/><path d="M711.43 201.42l6.15 10.82h-5.99zm6.65 43.12h-7.17v-11.83h7.17zm-6.16-1h5.15v-9.81h-5.15z"/><path d="M711.43 233.21l6.15 10.82h-5.99zm6.65 27.22h-7.17V248.6h7.17zm-6.16-1h5.15v-9.81h-5.15z"/><path d="M711.43 249.1l6.15 10.83h-5.99zM733 198.84h-7.16V187H733zm-6.16-1H732V188h-5.16z"/><path d="M725.852 187.7l.878-.499 6.146 10.828-.878.498zm7.148-4.54h-7.16v-11.83H733zm-6.16-1H732v-9.81h-5.16z"/><path d="M725.856 172.062l.879-.498 6.146 10.827-.879.499zM733 151.81h-7.16V140H733zm-6.16-1H732V141h-5.16z"/><path d="M725.85 140.718l.88-.498 6.145 10.827-.878.499zM733 260h-7.16v-11.85H733zm-6.16-1H732v-9.81h-5.16z"/><path d="M725.858 248.88l.878-.498 6.146 10.827-.878.499zm7.142-4.57h-7.16v-11.83H733zm-6.16-1H732v-9.81h-5.16z"/><path d="M725.857 233.204l.879-.499 6.146 10.828-.879.498zM733 228.63h-7.16v-11.82H733zm-6.16-1H732v-9.81h-5.16z"/><path d="M725.852 217.506l.879-.498 6.145 10.827-.878.498zM733 213h-7.16v-11.87H733zm-6.16-1H732v-9.81h-5.16z"/><path d="M725.857 201.858l.878-.498 6.146 10.827-.878.499zm22.793-3.018h-7.16V187h7.16zm-6.16-1h5.15V188h-5.15z"/><path d="M741.546 187.7l.878-.499 6.146 10.828-.879.498zm7.104-4.54h-7.16v-11.83h7.16zm-6.16-1h5.15v-9.81h-5.15z"/><path d="M741.56 172.062l.879-.498 6.145 10.827-.878.499zm7.09-4.572h-7.16v-11.83h7.16zm-6.16-1h5.15v-9.81h-5.15z"/><path d="M741.555 156.395l.878-.5 6.146 10.828-.878.499zm7.095-4.585h-7.16V140h7.16zm-6.16-1h5.15V141h-5.15z"/><path d="M741.555 140.708l.878-.498 6.146 10.827-.879.498zM748.65 260h-7.16v-11.85h7.16zm-6.16-1h5.15v-9.81h-5.15z"/><path d="M741.561 248.88l.879-.499 6.146 10.828-.879.498zm7.089-4.57h-7.16v-11.83h7.16zm-6.16-1h5.15v-9.81h-5.15z"/><path d="M741.561 233.204l.879-.499 6.145 10.827-.878.499zM748.65 213h-7.16v-11.87h7.16zm-6.16-1h5.15v-9.81h-5.15z"/><path d="M741.56 201.858l.879-.498 6.146 10.827-.879.499zM948.48 325.15h-10.9v-18.38h10.9zm-9.89-1h8.88v-16.38h-8.88z"/><path d="M937.68 307.52l.878-.499 9.868 17.385-.878.498zm-36.86 45.92h-10.89v-18.38h10.89zm-9.89-1h8.89v-16.37h-8.89z"/><path d="M890.006 335.79l.879-.5 9.868 17.385-.879.499zm33.154 17.65h-10.9v-18.38h10.9zm-9.89-1h8.88v-16.37h-8.88z"/><path d="M912.355 335.811l.878-.498 9.868 17.384-.878.499zm35.375 17.629h-10.9v-18.38h10.9zm-9.89-1h8.89v-16.37h-8.89z"/><path d="M936.923 335.793l.878-.499 9.868 17.385-.879.498zM900.82 378h-10.89v-18.37h10.89zm-9.89-1h8.89v-16.36h-8.89z"/><path d="M890.005 360.367l.879-.499 9.867 17.385-.878.499zM923.16 378h-10.9v-18.37h10.9zm-9.89-1h8.88v-16.36h-8.88z"/><path d="M912.354 360.38l.878-.5 9.868 17.385-.879.499zM947.73 378h-10.9v-18.37h10.9zm-9.89-1h8.89v-16.36h-8.89z"/><path d="M936.921 360.36l.879-.498 9.867 17.384-.878.499zm-36.101 42.22h-10.89V384.2h10.89zm-9.89-1h8.89v-16.37h-8.89z"/><path d="M890.019 384.943l.878-.498 9.868 17.384-.878.499zm33.141 17.637h-10.9V384.2h10.9zm-9.89-1h8.88v-16.37h-8.88z"/><path d="M912.357 384.965l.879-.498 9.867 17.385-.878.498zm35.373 17.615h-10.9V384.2h10.9zm-9.89-1h8.89v-16.37h-8.89z"/><path d="M936.925 384.947l.878-.499 9.868 17.385-.878.498zM948.48 300h-10.9v-18.4h10.9zm-9.89-1h8.88v-16.39h-8.88z"/><path d="M937.675 282.35l.878-.499 9.868 17.385-.878.499zm10.805-7.54h-10.9v-18.38h10.9zm-9.89-1h8.88v-16.37h-8.88z"/><path d="M937.67 257.18l.878-.498 9.868 17.385-.878.498zm10.81-7.54h-10.9v-18.38h10.9zm-9.89-1h8.88v-16.37h-8.88z"/><path d="M937.665 231.991l.879-.499 9.867 17.385-.878.499zm10.815-7.521h-10.9v-18.38h10.9zm-9.89-1h8.88V207.1h-8.88z"/><path d="M937.67 206.841l.879-.498 9.867 17.385-.878.498zm34.64 17.629h-10.9v-18.38h10.9zm-9.9-1h8.89V207.1h-8.89z"/><path d="M961.496 206.843l.878-.499 9.868 17.385-.878.499zM1066.76 269.3H1046v-15.53h20.74zm-19.73-1h18.73v-13.52H1047z"/><path d="M1046.219 254.665l.6-.812 19.68 14.525-.6.813zm20.541 35.675H1046v-15.53h20.74zm-19.73-1h18.73v-13.52H1047z"/><path d="M1046.227 275.7l.6-.813 19.68 14.525-.6.813zm20.533 35.67H1046v-15.53h20.74zm-19.73-1h18.73v-13.52H1047z"/><path d="M1046.217 296.738l.6-.812 19.68 14.525-.6.812zm20.543 35.672H1046v-15.53h20.74zm-19.73-1h18.73v-13.52H1047z"/><path d="M1046.218 317.767l.6-.813 19.68 14.525-.6.813zm20.542 35.673H1046v-15.53h20.74zm-19.73-1h18.73v-13.52H1047z"/><path d="M1046.216 338.801l.6-.813 19.68 14.526-.6.812zm20.544 35.679H1046V359h20.74zm-19.73-1h18.73V360H1047z"/><path d="M1046.217 359.84l.6-.813 19.68 14.525-.6.813zm20.543 56.71H1046V401h20.74zm-19.73-1h18.73V402H1047z"/><path d="M1046.215 401.902l.6-.812 19.68 14.525-.6.813zm20.545 35.678H1046v-15.53h20.74zm-19.73-1h18.73v-13.52H1047z"/><path d="M1046.224 422.947l.6-.813 19.68 14.525-.6.813zM1100.77 269.3H1080v-15.53h20.74zm-19.73-1h18.72v-13.52H1081z"/><path d="M1080.22 254.67l.599-.813 19.68 14.525-.6.813zm20.55 35.67H1080v-15.53h20.74zm-19.73-1h18.72v-13.52H1081z"/><path d="M1080.228 275.704l.6-.813 19.68 14.526-.6.812zm20.542 35.666H1080v-15.53h20.74zm-19.73-1h18.72v-13.52H1081z"/><path d="M1080.218 296.742l.6-.812 19.68 14.525-.6.813zm20.552 35.668H1080v-15.53h20.74zm-19.73-1h18.72v-13.52H1081z"/><path d="M1080.218 317.77l.6-.812 19.68 14.525-.6.813zm20.552 56.71H1080V359h20.74zm-19.73-1h18.72V360H1081z"/><path d="M1080.217 359.834l.6-.813 19.68 14.525-.6.813zm20.553 35.676H1080V380h20.74zm-19.73-1h18.72V381H1081z"/><path d="M1080.226 380.878l.6-.813 19.68 14.526-.6.812zm20.544 35.672H1080V401h20.74zm-19.73-1h18.72V402H1081z"/><path d="M1080.216 401.907l.6-.813 19.68 14.525-.6.813zm20.554 35.673H1080v-15.53h20.74zm-19.73-1h18.72v-13.52H1081z"/><path d="M1080.224 422.94l.6-.812 19.68 14.526-.6.812zm706.026-38.32h-14.64v-11h14.64zm-13.63-1h12.62v-9h-12.62z"/><path d="M1772.12 374.09l13.59 10.03h-13.63zm14.13 24.66h-14.64v-11h14.64zm-13.63-1h12.62v-9h-12.62z"/><path d="M1772.12 388.22l13.59 10.03h-13.63zm14.13 25.54h-14.64v-11h14.64zm-13.63-1h12.62v-9h-12.62z"/><path d="M1772.12 403.23l13.59 10.03h-13.63zm14.13 24.66h-14.64v-11h14.64zm-13.63-1h12.62v-9h-12.62z"/><path d="M1772.12 417.36l13.59 10.03h-13.63zm14.13-18.22h-14.64v-11h14.64zm-13.63-1h12.62v-9h-12.62z"/><path d="M1771.76 388.957l.6-.813 13.598 10.036-.6.813zm14.49 24.713h-14.64v-11h14.64zm-13.63-1h12.62v-9h-12.62z"/><path d="M1771.821 403.555l.6-.812 13.59 10.03-.6.812zm14.429 24.645h-14.64v-11h14.64zm-13.63-1h12.62v-9h-12.62z"/><path d="M1771.832 418.084l.6-.813 13.59 10.03-.6.813zm40.028-33.464h-14.63v-11h14.63zm-13.62-1h12.62v-9h-12.62z"/><path d="M1797.442 374.501l.6-.813 13.59 10.03-.6.813zm14.418 24.639h-14.63v-11h14.63zm-13.62-1h12.62v-9h-12.62z"/><path d="M1797.385 388.954l.6-.813 13.597 10.036-.6.812zm14.475 24.716h-14.63v-11h14.63zm-13.62-1h12.62v-9h-12.62z"/><path d="M1797.445 403.552l.6-.813 13.59 10.03-.6.813zm14.415 24.648h-14.63v-11h14.63zm-13.62-1h12.62v-9h-12.62z"/><path d="M1797.446 418.08l.6-.812 13.59 10.03-.6.813zm40.034-33.46h-14.64v-11h14.64zm-13.63-1h12.62v-9h-12.62z"/><path d="M1823.05 374.506l.6-.813 13.59 10.03-.6.813zm14.43 24.634h-14.64v-11h14.64zm-13.63-1h12.62v-9h-12.62z"/><path d="M1822.993 388.958l.6-.812 13.597 10.035-.6.813zm14.487 24.712h-14.64v-11h14.64zm-13.63-1h12.62v-9h-12.62z"/><path d="M1823.054 403.557l.6-.813 13.589 10.03-.6.813zm14.426 24.643h-14.64v-11h14.64zm-13.63-1h12.62v-9h-12.62z"/><path d="M1823.054 418.085l.6-.812 13.59 10.03-.6.812zm40.036-33.465h-14.63v-11h14.63zm-13.62-1h12.61v-9h-12.61z"/><path d="M1848.669 374.5l.6-.812 13.589 10.03-.6.812zm14.421 24.64h-14.63v-11h14.63zm-13.62-1h12.61v-9h-12.61z"/><path d="M1848.601 388.963l.6-.813 13.598 10.036-.6.813zm14.489 24.707h-14.63v-11h14.63zm-13.62-1h12.61v-9h-12.61z"/><path d="M1848.662 403.551l.6-.812 13.59 10.03-.6.812zm14.428 24.649h-14.63v-11h14.63zm-13.62-1h12.61v-9h-12.61z"/><path d="M1848.673 418.08l.6-.813 13.589 10.03-.6.813zm40.037-33.46h-14.64v-11h14.64zm-13.63-1h12.62v-9h-12.62z"/><path d="M1874.303 374.527l.6-.813 13.59 10.03-.6.813zm-88.053-4.907h-14.64v-11h14.64zm-13.63-1h12.62v-9h-12.62z"/><path d="M1772.12 359.09l13.59 10.03h-13.63zm39.74 10.53h-14.63v-11h14.63zm-13.62-1h12.62v-9h-12.62z"/><path d="M1797.444 359.493l.6-.812 13.589 10.03-.6.812zm40.036 10.127h-14.64v-11h14.64zm-13.63-1h12.62v-9h-12.62z"/><path d="M1823.052 359.498l.6-.813 13.589 10.03-.6.813zm40.038 10.122h-14.63v-11h14.63zm-13.62-1h12.61v-9h-12.61z"/><path d="M1848.67 359.503l.6-.813 13.59 10.03-.6.813zm40.04 10.117h-14.64v-11h14.64zm-13.63-1h12.62v-9h-12.62z"/><path d="M1874.304 359.52l.6-.813 13.59 10.03-.6.812zm-88.054-4.9h-14.64v-11h14.64zm-13.63-1h12.62v-9h-12.62z"/><path d="M1772.12 344.09l13.59 10.03h-13.63zm39.74 10.53h-14.63v-11h14.63zm-13.62-1h12.62v-9h-12.62z"/><path d="M1797.445 344.496l.6-.813 13.589 10.03-.6.813zm40.035 10.124h-14.64v-11h14.64zm-13.63-1h12.62v-9h-12.62z"/><path d="M1823.053 344.5l.6-.812 13.59 10.03-.6.812zm40.037 10.12h-14.63v-11h14.63zm-13.62-1h12.61v-9h-12.61z"/><path d="M1848.671 344.505l.6-.813 13.59 10.03-.6.813zm40.039 10.115h-14.64v-11h14.64zm-13.63-1h12.62v-9h-12.62z"/><path d="M1874.306 344.522l.6-.813 13.589 10.03-.6.813zm14.404 54.618h-14.64v-11h14.64zm-13.63-1h12.62v-9h-12.62z"/><path d="M1874.246 388.98l.6-.813 13.597 10.036-.6.812zm14.464 24.69h-14.64v-11h14.64zm-13.63-1h12.62v-9h-12.62z"/><path d="M1874.306 403.578l.6-.813 13.59 10.03-.6.813zm14.404 24.622h-14.64v-11h14.64zm-13.63-1h12.62v-9h-12.62z"/><path d="M1874.307 418.106l.6-.812 13.589 10.03-.6.812zM1592.25 356.29h-14.64v-11h14.64zm-13.63-1h12.62v-9h-12.62z"/><path d="M1578.12 345.75l13.59 10.04h-13.63zm14.13 24.66h-14.64v-11h14.64zm-13.63-1h12.62v-9h-12.62z"/><path d="M1578.12 359.88l13.59 10.04h-13.63zm14.13 25.55h-14.64v-11h14.64zm-13.63-1h12.62v-9h-12.62z"/><path d="M1578.12 374.89l13.59 10.04h-13.63zm14.13-4.08h-14.64v-11h14.64zm-13.63-1h12.62v-9h-12.62z"/><path d="M1577.772 360.633l.6-.813 13.597 10.036-.6.812zm14.478 24.707h-14.64v-11h14.64zm-13.63-1h12.62v-9h-12.62z"/><path d="M1577.822 375.221l.6-.813 13.59 10.03-.6.813zm40.038-18.931h-14.63v-11h14.63zm-13.62-1h12.62v-9h-12.62z"/><path d="M1603.435 346.16l.6-.812 13.59 10.03-.6.813zm14.425 24.65h-14.63v-11h14.63zm-13.62-1h12.62v-9h-12.62z"/><path d="M1603.386 360.63l.6-.813 13.597 10.035-.6.813zm14.474 24.71h-14.63v-11h14.63zm-13.62-1h12.62v-9h-12.62z"/><path d="M1603.447 375.218l.6-.813 13.589 10.03-.6.813zm14.413 24.642h-14.63v-11h14.63zm-13.62-1h12.62v-9h-12.62z"/><path d="M1603.44 389.74l.599-.812 13.59 10.03-.6.812zm40.04-33.45h-14.64v-11h14.64zm-13.63-1h12.62v-9h-12.62z"/><path d="M1629.054 346.165l.6-.812 13.589 10.03-.6.812zm14.426 24.645h-14.64v-11h14.64zm-13.63-1h12.62v-9h-12.62z"/><path d="M1629.004 360.634l.6-.813 13.598 10.036-.6.813zm14.476 24.706h-14.64v-11h14.64zm-13.63-1h12.62v-9h-12.62z"/><path d="M1629.055 375.222l.6-.812 13.59 10.03-.6.812zm14.425 24.638h-14.64v-11h14.64zm-13.63-1h12.62v-9h-12.62z"/><path d="M1629.047 389.745l.6-.813 13.59 10.03-.6.813zm40.043-33.455h-14.63v-11h14.63zm-13.62-1h12.61v-9h-12.61z"/><path d="M1654.662 346.17l.6-.813 13.59 10.03-.6.813zm-62.412-4.89h-14.64v-11h14.64zm-13.63-1h12.62v-9h-12.62z"/><path d="M1578.12 330.75l13.59 10.04h-13.63zm39.74 10.53h-14.63v-11h14.63zm-13.62-1h12.62v-9h-12.62z"/><path d="M1603.437 331.163l.6-.813 13.589 10.03-.6.813zm40.043 10.117h-14.64v-11h14.64zm-13.63-1h12.62v-9h-12.62z"/><path d="M1629.055 331.158l.6-.813 13.59 10.03-.6.813zm40.035 10.122h-14.63v-11h14.63zm-13.62-1h12.61v-9h-12.61z"/><path d="M1654.663 331.162l.6-.812 13.59 10.03-.6.812zm-62.413-4.882h-14.64v-11h14.64zm-13.63-1h12.62v-9h-12.62z"/><path d="M1578.12 315.75l13.59 10.04h-13.63zm39.74 10.53h-14.63v-11h14.63zm-13.62-1h12.62v-9h-12.62z"/><path d="M1603.438 316.155l.6-.812 13.59 10.03-.6.812zm40.042 10.125h-14.64v-11h14.64zm-13.63-1h12.62v-9h-12.62z"/><path d="M1629.056 316.16l.6-.813 13.59 10.03-.6.813zm40.034 10.12h-14.63v-11h14.63zm-13.62-1h12.61v-9h-12.61z"/><path d="M1654.664 316.165l.6-.813 13.59 10.03-.6.813zm14.426 54.645h-14.63v-11h14.63zm-13.62-1h12.61v-9h-12.61z"/><path d="M1654.613 360.638l.6-.812 13.597 10.036-.6.812zm14.477 24.702h-14.63v-11h14.63zm-13.62-1h12.61v-9h-12.61z"/><path d="M1654.673 375.227l.6-.813 13.59 10.03-.6.813zm14.417 24.633h-14.63v-11h14.63zm-13.62-1h12.61v-9h-12.61z"/><path d="M1654.666 389.75l.6-.813 13.589 10.03-.6.812zm-36.806 24.11h-14.63v-11h14.63zm-13.62-1h12.62v-9h-12.62z"/><path d="M1603.443 403.744l.6-.813 13.59 10.03-.6.813zm40.037 10.116h-14.64v-11h14.64zm-13.63-1h12.62v-9h-12.62z"/><path d="M1629.052 403.739l.6-.813 13.589 10.03-.6.813zm40.038 10.121h-14.63v-11h14.63zm-13.62-1h12.61v-9h-12.61z"/><path d="M1654.66 403.743l.6-.812 13.589 10.03-.6.812zm-36.8 24.127h-14.63v-11h14.63zm-13.62-1h12.62v-9h-12.62z"/><path d="M1603.438 417.738l.6-.813 13.589 10.03-.6.813zm40.042 10.132h-14.64v-11h14.64zm-13.63-1h12.62v-9h-12.62z"/><path d="M1629.046 417.742l.6-.812 13.589 10.03-.6.812zm40.044 10.128h-14.63v-11h14.63zm-13.62-1h12.61v-9h-12.61z"/><path d="M1654.664 417.747l.6-.813 13.59 10.03-.6.813zM1227.9 448.25h-3.02V119.36h59.74V88.58h35.62l-.14 38.84h-3l.11-35.81h-29.56v30.78h-59.75z"/><path d="M1139.83 447.76l-37.74-407.6 160.38-16.33-1.87 2.7c-.14.21-15.34 35.73-11.84 85.73h-4c-2-40 7.9-77.78 11.75-84.78l-151.13 15.39 37.47 404.61zM1274.46 247h-32.36v-24h32.36zm-31.35-1h30.34v-22h-30.34z"/><path d="M1273.88 246.55l-31.27-23.08v22.64z"/><path d="M1274.46 247.92h-32.36v-24.07h32.36zm-31.35-1h30.34v-22.07h-30.34z"/><path d="M1273.88 247.43l-31.27-23.08V247zm.58-39.24h-32.36v-24.08h32.36zm-31.35-1h30.34v-22.07h-30.34z"/><path d="M1273.88 207.7l-31.27-23.09v22.64zm.58 77.3h-32.36v-24.07h32.36zm-31.35-1h30.34v-22.06h-30.34z"/><path d="M1273.88 284.52l-31.27-23.08v22.64zm.58 38.48h-32.36v-24.09h32.36zm-31.35-1h30.34v-22.09h-30.34z"/><path d="M1273.88 322.49l-31.27-23.08v22.64zm.58 38.51h-32.36v-24.12h32.36zm-31.35-1h30.34v-22.11h-30.34z"/><path d="M1273.88 360.46l-31.27-23.08V360zm.58 38.47h-32.36v-24.08h32.36zm-31.35-1h30.34v-22.07h-30.34z"/><path d="M1273.88 398.44l-31.27-23.09V398zm75.64-186.72h-32.36v-24.08h32.36zm-31.35-1h30.34v-22.07h-30.34z"/><path d="M1348.94 211.23l-31.28-23.08v22.63z"/><path d="M1349.52 212.6h-32.36v-24.08h32.36zm-31.35-1h30.34v-22.07h-30.34z"/><path d="M1348.94 212.11L1317.66 189v22.64zm.58-39.25h-32.36v-24.07h32.36zm-31.35-1h30.34V149.8h-30.34z"/><path d="M1348.94 172.37l-31.28-23.08v22.64zm.58 77.32h-32.36v-24.08h32.36zm-31.35-1h30.34v-22.07h-30.34z"/><path d="M1348.94 249.2l-31.28-23.08v22.64zm.58 38.46h-32.36v-24.08h32.36zm-31.35-1h30.34v-22.07h-30.34z"/><path d="M1348.94 287.17l-31.28-23.08v22.64zm.58 38.46h-32.36v-24.07h32.36zm-31.35-1h30.34v-22.07h-30.34z"/><path d="M1348.94 325.14l-31.28-23.08v22.64zm.58 38.46h-32.36v-24.07h32.36zm-31.35-1h30.34v-22.06h-30.34z"/><path d="M1348.94 363.11L1317.66 340v22.64zM1220.9 160.74h-75.57v-13.35h75.57zm-74.56-1h73.55V148.4h-73.55zm73.81-23.36H1139V123h81.17zm-80.17-1h79.17V124H1140zm79.43-23.38h-74.48V98.68h74.48zm-73.47-1h72.46V99.69h-72.46zm73.47-23.33H1133V74.33h86.39zm-85.38-1h84.37V75.34H1134zm86.87 98.42h-59v-13.34h59zm-58-1h57v-11.34h-57zm58 25.36h-75.57V196.1h75.57zm-74.56-1h73.55v-11.34h-73.55zm74.56 25.35h-61.18v-13.34h61.18zm-60.17-1h59.16v-11.34h-59.16zm60.17 25.36h-85.65v-13.35h85.65zm-84.64-1h83.63v-11.34h-83.63zm84.64 25.35h-75.57v-13.35h75.57zm-74.56-1h73.55v-11.34h-73.55zm74.56 25.36h-75.57v-13.35h75.57zm-74.56-1h73.55v-11.34h-73.55zm74.56 25.35h-59v-13.35h59zm-58-1h57v-11.34h-57zm58 25.35h-75.57v-13.34h75.57zm-74.56-1h73.55v-11.33h-73.55zm74.56 25.36h-61.18v-13.35h61.18zm-60.17-1h59.16v-11.34h-59.16zm60.17 25.35H1141v-13.34h79.89zm-78.88-1h77.87V392H1142zM963.78 447.5h-3.03V241.31h28.66v-13.49h115.96v15.17h11.79v204.14h-3.02V246.02h-11.8v-15.17H992.43v13.48h-28.65z"/><path d="M857.67 448.25l-3.02-.01.44-128.15h45.6V195.43h82.07v28.69h-3.02v-25.66h-76.03v124.66H858.1zM1589 154h-88.48v-6.65H1589zm-87.47-1H1588v-4.63h-86.5zm87.47 15.87h-88.48v-6.65H1589zm-87.47-1H1588v-4.64h-86.5zm87.47 16.68h-88.48v-6.65H1589zm-87.47-1H1588v-4.63h-86.5zM1589 199.4h-88.48v-6.65H1589zm-87.47-1H1588v-4.63h-86.5zm87.47 16.68h-88.48v-6.65H1589zm-87.47-1H1588v-4.64h-86.5zm87.47 15.85h-88.48v-6.65H1589zm-87.47-1H1588v-4.63h-86.5zm87.47 16.68h-88.48V239H1589zm-87.47-1H1588V240h-86.5zm87.47 15.85h-88.48v-6.65H1589zm-87.47-1H1588v-4.63h-86.5zm87.47 16.67h-88.48v-6.65H1589zm-87.47-1H1588v-4.64h-86.5zM1589 291h-88.48v-6.66H1589zm-87.47-1H1588v-4.64h-86.5z"/><path d="M815.86 318.83h-3.03V200.02h55.64v-22.56h39.12l.01 14.3-3.17.16.14-11.43H871.5v22.55h-55.64z"/><path d="M812.1 447.87h-3.03V316.56h34.61v25.57h-3.03v-22.54H812.1zm14.28-247.84h-3.02v-77.11l77.87 18.77v37.46h-3.03v-35.08l-71.82-17.31z"/><path d="M853 133.28l-15.44-3.86L843.33 60zm-12.21-6.17l8.63 2.15-5.39-41zM872 150.9h-47.63v-4H872zm-46.61-1H871v-2h-45.62zM872 159.93h-47.63v-4H872zm-46.61-1H871v-2h-45.62zM872 169h-47.63v-4H872zm-46.61-1H871v-2h-45.62zm36.08 44.56h-47.63v-4h47.63zm-46.62-1h45.61v-2h-45.61zm46.62 10.02h-47.63v-4h47.63zm-46.62-1h45.61v-2h-45.61zm46.62 10.03h-47.63v-4h47.63zm-46.62-1h45.61v-2h-45.61zm46.62 8.51h-47.63v-4h47.63zm-46.62-1h45.61v-2h-45.61zm46.62 10.03h-47.63v-4h47.63zm-46.62-1h45.61v-2h-45.61zm46.62 10.02h-47.63v-4h47.63zm-46.62-1h45.61v-2h-45.61zm46.62 10.02h-47.63v-4h47.63zm-46.62-1h45.61v-2h-45.61zm30.08 11.53h-31.09v-4h31.09zm-30.08-1h29.07v-2h-29.07zm30.08 11.53h-31.09v-4h31.09zm-30.08-1h29.07v-2h-29.07zm30.08 11.52h-31.09v-4h31.09zm-30.08-1h29.07v-2h-29.07zm30.08 11.53h-31.09v-4h31.09zm-30.08-1h29.07v-2h-29.07zm788.66-11.88h-2.75l.34-158.36h-105.68l-.16 28.37-2.62.12-.25-30.94h111.74zm96.3 152.07h-3.03V305.11h-145.89l-.38 77.2h-2.83l.19-81.22h151.94z"/><path d="M1678.17 311.09h3.02v136h-3.02zm-107.91 73.17l-2.91.08-.13-73.41h3.03zm217.17-64.5h-2.67l-.11-210.8h-108.3l.25 184.09h-3.5l.23-186.6h114.34z"/><path d="M1713.16 107.97h3.02v339.12h-3.02z"/><path d="M1716.19 146.34h-31.32v-10.47h31.32zm-28.29-3h25.26v-4.42h-25.26zM726.43 447.13h-3.02V273.62h83.42v3.02h-80.4zm-35.01.4h-56V126.71h56zm-52.94-3h49.91v-314.8h-49.91z"/><path d="M671.88 128.75l-4.9-61.3-3.73 60.94-3.01-.19 5.03-82.34 3.01-.02 6.62 82.67zm32.55 319.01l-3 .33.06-319.22h58.45v140.32h-3.02v-137.3h-52.41zm-60.02-176.5h36.36v8.26h-36.36zm1258.45 177.08H1761V324.42h141.84zM1764 445.76h135.75v-119L1764 327zm-1201.57 1.66l-2.67-.33-.34-101.83h33.56v-58.28h35.95V290H596v58.29h-33.55zM923.91 249.2H913v-18.38h10.9zm-9.89-1h8.88v-16.37H914z"/><path d="M913.54 231.31l9.86 17.39h-9.65s-.2-17.4-.21-17.39zm10.37 43.5H913v-18.38h10.9zm-9.89-1h8.88v-16.37H914z"/><path d="M913.54 256.92l9.86 17.38h-9.65s-.2-17.4-.21-17.38zm10.37 43.5H913V282h10.9zm-9.89-1h8.88V283H914z"/><path d="M913.54 282.53l9.86 17.38h-9.65s-.2-17.4-.21-17.38zm-37.32 69.99h-10.9v-18.38h10.9zm-9.89-1h8.88v-16.38h-8.88z"/><path d="M865.85 334.63l9.87 17.37h-9.65s-.2-17.39-.22-17.37zm10.37 43.5h-10.9v-18.39h10.9zm-9.89-1h8.88v-16.38h-8.88z"/><path d="M865.85 360.24l9.87 17.38h-9.65s-.2-17.4-.22-17.38zm10.37 42.61h-10.9v-18.38h10.9zm-9.89-1h8.88v-16.37h-8.88z"/><path d="M865.85 385l9.87 17.39h-9.65s-.2-17.39-.22-17.39zm-214-233.19h-7.17V140h7.17zm-6.16-1h5.15V141h-5.15z"/><path d="M645.2 140.49l6.15 10.82h-5.99zm6.65 27.22h-7.17v-11.83h7.17zm-6.16-1h5.15v-9.81h-5.15z"/><path d="M645.2 156.38l6.15 10.83h-5.99zm6.65 28.11h-7.17v-11.83h7.17zm-6.16-1h5.15v-9.81h-5.15z"/><path d="M645.2 173.16l6.15 10.82h-5.99zm6.65 55.48h-7.17v-11.83h7.17zm-6.16-1h5.15v-9.81h-5.15z"/><path d="M645.2 217.31l6.15 10.83h-5.99zm6.65-4.56h-7.17v-11.83h7.17zm-6.16-1h5.15v-9.81h-5.15z"/><path d="M645.2 201.42l6.15 10.82h-5.99zm6.65 43.12h-7.17v-11.83h7.17zm-6.16-1h5.15v-9.81h-5.15z"/><path d="M645.2 233.21l6.15 10.82h-5.99zm6.65 27.22h-7.17V248.6h7.17zm-6.16-1h5.15v-9.81h-5.15z"/><path d="M645.2 249.1l6.15 10.83h-5.99zm856.23-101.45l87.42 6.18h-87.42s.33-6.52 0-6.18zm279.83-2.33h-60.77v-8.68h60.77zm-60.08-1.32h59.39v-6h-59.39z"/><path d="M1721.13 137l60 8.06h-60s.23-8.49 0-8.06zm61.63 29.32H1722v-8.68h60.77zm-60.08-1.32h59.39v-6h-59.39z"/><path d="M1722.63 158l60 8.06h-60s.23-8.49 0-8.06zm60.13 29.32H1722v-8.68h60.77zm-60.08-1.32h59.39v-6h-59.39z"/><path d="M1722.63 179l60 8.07h-60s.23-8.5 0-8.07zm60.13 29.32H1722v-8.68h60.77zm-60.08-1.32h59.39v-6h-59.39z"/><path d="M1722.63 200l60 8.07h-60s.23-8.5 0-8.07zm60.13 29.32H1722v-8.68h60.77zm-60.08-1.32h59.39v-6h-59.39z"/><path d="M1722.63 221l60 8.07h-60s.23-8.5 0-8.07zm60.13 29.32H1722v-8.68h60.77zm-60.08-1.32h59.39v-6h-59.39z"/><path d="M1722.63 242l60 8.07h-60s.23-8.5 0-8.07zm60.13 29.32H1722v-8.68h60.77zm-60.08-1.32h59.39v-6h-59.39z"/><path d="M1722.63 263l60 8.06h-60s.23-8.49 0-8.06zm60.13 29.33H1722v-8.68h60.77zm-60.08-1.33h59.39v-6h-59.39z"/><path d="M1722.63 284l60 8.06h-60s.23-8.49 0-8.06zm60.13 29.33H1722v-8.68h60.77zm-60.08-1.33h59.39v-6h-59.39z"/><path d="M1722.63 305l60 8.06h-60s.23-8.48 0-8.06zm-221.2-137s.33-5.63 0-5.3l87.42 5.3m-87.42 15.85s.33-5.63 0-5.3l87.42 5.3m-87.42 15.01s.33-5.63 0-5.3l87.42 5.3m-87.42 15.9s.33-5.63 0-5.3l87.42 5.3m-87.42 15.01s.33-5.63 0-5.3l87.42 5.3m-87.42 15.89s.33-5.63 0-5.29l87.42 5.29m-87.42 14.13s.33-5.63 0-5.29l87.42 5.29m-87.42 15.9s.33-5.63 0-5.3l87.42 5.3m-87.42 14.13s.33-5.63 0-5.3l87.42 5.3M1686 137.05l28.25 7.06H1686s-.38-7.38 0-7.06zm30.19 30.29h-31.32v-10.47h31.32zm-28.29-3h25.26v-4.42h-25.26z"/><path d="M1686 158.05l28.25 7.06H1686s-.38-7.38 0-7.06zm30.19 30.29h-31.32v-10.47h31.32zm-28.29-3h25.26v-4.42h-25.26z"/><path d="M1686 179.05l28.25 7.07H1686s-.38-7.39 0-7.07zm30.19 30.29h-31.32v-10.47h31.32zm-28.29-3h25.26v-4.43h-25.26z"/><path d="M1686 200.05l28.25 7.07H1686s-.38-7.39 0-7.07zm30.19 30.29h-31.32v-10.47h31.32zm-28.29-3h25.26v-4.44h-25.26z"/><path d="M1686 221.05l28.25 7.07H1686s-.38-7.39 0-7.07zm30.19 30.29h-31.32v-10.47h31.32zm-28.29-3h25.26v-4.44h-25.26z"/><path d="M1686 242.05l28.25 7.07H1686s-.38-7.39 0-7.07zm30.19 30.29h-31.32v-10.47h31.32zm-28.29-3h25.26v-4.44h-25.26z"/><path d="M1686 263.06l28.25 7.06H1686s-.38-7.39 0-7.06zm30.19 30.29h-31.32v-10.48h31.32zm-28.29-3h25.26v-4.45h-25.26z"/><path d="M1686 284.06l28.25 7.06H1686s-.38-7.39 0-7.06z"/></g><path d="M1313.03 520.19l-.48-1.56.59-.18-.39-.32 59.88-74.38 1.17.95z" fill="#fff"/><path d="M1213.79 448.02l-188.63 71.24 119.67-.27L1299.92 448zm93.41-.03l-156.17 70.98 485.44-1.11-74.76-69.93zm259.54-.07l74.16 69.93 214.27-.49-224.63-69.45zm-621.82.17l-299.24 72.04 194.21-.45 277.05-71.63zm183.69-.05l-276.56 71.62 164.51-.38 188.75-71.26zm-337.04.09l-320.89 72.4 162.45-.37 302.37-72.07z" fill="none"/><path d="M1299.92 448l3.3-1.52-85.42.03-4.01 1.51zm-364.42.09l6.36-1.51-143.58.04-6.71 1.51zm269.81-.07l4.01-1.51-74.87.02-5.84 1.51zm-88.37.03l5.85-1.52-171.58.05-6.29 1.51zm-576.84-1.36v1.51l237.12-.06 6.72-1.52zm767.1 1.3l254.51-.06-1.61-1.52-252.32.07v1.25zm633.77-.17v-1.51l-305.94.08 4.94 1.51zm-310.43.09l-4.89-1.51-60.52.01 1.61 1.51zM470.68 520.53l-6.77 1.53 162.81-.38 6.41-1.52zm-263.74.6l-4.18 1.5 246.16-.54 6.78-1.52zm818.22-1.87l-4.03 1.52 120.38-.28 3.32-1.51zm-379.48.87l-6.34 1.53 194.65-.45 5.9-1.53zm206.37-.47l-5.89 1.52 166.37-.38 4.03-1.52zm1206.34-1.26v-1.51l-190.9.44 5.19 1.5z" fill="#fff"/><path d="M1469 444.21l-1.52.03 1.29 74h1.51zm-317.97 74.76l-3.34 1.52 321.1-.74-.02-1.51zm487.05.4l-1.61-1.51-166.19.38.03 1.51z" fill="#fff"/><path d="M1470.28 518.24h-1.51l.02 1.51h1.52zm170.62-.39l1.53 1.44.02.07 217.58-.5-4.86-1.5zM1299.92 448l-155.09 70.99 6.2-.02 156.17-70.98z" fill="#fff"/><path d="M1307.78 135.54h93.76l.1 29.59 2.79-.04.13-32.58h-99.8v313.27l-1.54.7h4.56z" fill="#000000"/><g fill="#fff"><path d="M1307.2 447.99l.58-.26v-1.25h-4.56l-3.3 1.52zm-162.37 71l-3.32 1.51 6.18-.01 3.34-1.52zm60.48-70.97l-188.75 71.26 8.6-.02 188.63-71.24zm8.48 0l4.01-1.51h-8.48l-4.01 1.51zm-197.23 71.26l-4.03 1.52 8.6-.02 4.03-1.52zm100.38-71.23l-277.05 71.63 12.16-.02 276.56-71.62zm11.67-.01l5.84-1.51h-11.66l-5.85 1.52z"/><path d="M839.89 519.68l-5.9 1.53 12.17-.03 5.89-1.52zm95.61-71.59l-302.37 72.07 12.55-.03 299.24-72.04zm9.42 0l6.29-1.51h-9.35l-6.36 1.51zm-311.79 72.07l-6.41 1.52 12.62-.02 6.34-1.53zm158.44-72.03l-14.35.01-321.52 72.43 14.98-.04zm6.71-1.51h-14.34l-6.72 1.52 14.35-.01zM455.7 520.57l-6.78 1.52 14.99-.03 6.77-1.53zm1106.01-72.64l74.76 69.93 4.43-.01-74.16-69.93z"/><path d="M1566.74 447.92l-1.61-1.51h-5.03l1.61 1.52zm74.16 69.93l-4.43.01 1.61 1.51 4.37-.01-.02-.07zm214.27-.49l12.32-.03-8.18-2.37-219.34-67.06-9.43.01zm-215.2-69.46l-4.94-1.51-9.38.01 4.89 1.51z"/><path d="M1867.49 517.33l-12.32.03 4.86 1.5 12.65-.03zM163.01 538.01L58.7 501.74l-44.95-68.41 61.59-18.46 70.7 74.69 61.36 31.43-2.89 1.52-59.7-31.31-.12-.13-69.96-73.92-57.8 17.34 43.08 65.57 107.75 37.7zm377.58-90.52l-37.8-19.83-48.83 2.47-.07-1.51 49.24-2.49.18.1 37.98 19.92z"/><path d="M46.89 487.94l-.19-.56c-.06-.06 110.12-43.44 121.92-47.81l-80.07-12.34.08-.5 82 12.64-.92.34c-40.77 15.08-122.57 48.05-122.82 48.23zm330.69-2.49l-21.32-2.38-.13-.16-55.39-67.39-46.65 35.77-15.73-11.82L301.09 414l44-3.14 36-8.88.24 1-36.11 8.9-43.64 3.12 55.2 67.16 20.91 2.34zm-137.2-45.72l13.7 10.27 44.09-33.8z"/><path d="M424.51 479.67l-79.28-68.02-26.71 24.39-.34-.37 27.04-24.69.17.15 79.71 68.54z"/><path d="M475.93 473.26L381.5 403.1l-18.16 23.95-.4-.3 18.46-24.35.2.15 94.91 70.62z"/><path d="M501.26 470.34l-47.57-40.05-57.44-15.6.4-1.46 57.76 15.69 48.44 40.5zm1477.34 4.92l-2-.67 48.52-35.89 1.01 1.12z"/><path d="M2001.2 485.84l-.55-1.41 52.78-20.61 16-16-44.35-7.88-6.82-15.6-52.58 42.08c-.15.4-.44 1-1.07.85s-.75-.51-.75-1.28h.36a2.09 2.09 0 0 0 .1-.27l.07-.21.18-.14 54.28-43.44 7.3 16.66 46.4 8.25-18.28 18.28-.15.06zm-36.45-20.08a.65.65 0 0 0-.5.22h1.02a.73.73 0 0 0-.39-.2zm-23.45-18.35l-.74-.17 8.12-34.5.22-.06 97.44-26.68-45.82 38.53h-.18l-51.06-11zm9.29-34.41l49.73 10.73 42.9-36.08z"/><path d="M1964.1 468.59l-1.84-.83 38.38-43.37.57.5z"/><path d="M2109.26 552.52l-79.59-52.39-81.42-36.91-7.72-15.96 1.81-.88 7.4 15.3 80.91 36.69.07.04 79.65 52.43zM265.93 499.28l-49.01-65.91-37.72 16.72-.19-.08-108.45-39.93 4.11.53.01-.08 129.07 16.77-.13 1h-.03L79.31 412.23 179.17 449l38.08-16.88 49.49 66.56z"/><path d="M179.96 449.85l-.68-.75 44.14-40.39.46.15.11-.33 51.03 16.7-.31.96-51.04-16.34z"/></g><path d="M1978.26 475.76l94.85-28.58-31.77-15.26 5.76-45.01 105.16 53.85 17.28 88.36-59.94 22.97v-.33m-34.21-104l80.67-6.67m-28.83 31.67l-68.63-7.59" fill="none" stroke="#fff" stroke-miterlimit="10"/></svg>