<svg viewBox="0 0 57.66 30.52" xmlns="http://www.w3.org/2000/svg"><g fill="#fff"><path d="M57.35 20L53.68 6.89A9.44 9.44 0 0 0 36.85 4h-16A9.44 9.44 0 0 0 4 6.89L.37 20c-1.22 4.34.68 8.53 4.51 10a8.48 8.48 0 0 0 3 .53 8.82 8.82 0 0 0 7.92-4.71l1.76-3.7a5.87 5.87 0 0 0 10.29-1.7h2.06a5.86 5.86 0 0 0 10.28 1.7l1.77 3.69A8.26 8.26 0 0 0 52.3 30a8.25 8.25 0 0 0 5.05-10zm-2.7 4.89a5.89 5.89 0 0 1-10.57-.13l-2.47-5.15a1.54 1.54 0 0 0-1.48-.88 1.52 1.52 0 0 0-1.37 1 3.5 3.5 0 0 1-6.76-.44A1.55 1.55 0 0 0 30.52 18h-3.33a1.55 1.55 0 0 0-1.52 1.26 3.49 3.49 0 0 1-6.71.49 1.55 1.55 0 0 0-2.86-.15l-2.46 5.15a6.57 6.57 0 0 1-7.93 3c-2.69-1-3.95-3.93-3.06-7.11L6.33 7.53a7.11 7.11 0 0 1 6.79-5.17 7.25 7.25 0 0 1 2.49.46 7.08 7.08 0 0 1 3.31 2.57 2.4 2.4 0 0 0 2 1h16a2.41 2.41 0 0 0 2-1 7.06 7.06 0 0 1 12.47 2.14l3.68 13.13a5.85 5.85 0 0 1-.42 4.25z"/><path d="M44.71 6a1.5 1.5 0 1 1-1.5 1.5 1.5 1.5 0 0 1 1.5-1.5zm0 7.1a1.5 1.5 0 1 1-1.5 1.5 1.5 1.5 0 0 1 1.5-1.5zm-3.54-3.54a1.5 1.5 0 1 1-1.5 1.5 1.5 1.5 0 0 1 1.5-1.5zm7.07 0a1.5 1.5 0 1 1-1.49 1.5 1.5 1.5 0 0 1 1.49-1.5zm-31.67.31h-2.1v-2.1a1.19 1.19 0 1 0-2.37 0v2.1H10a1.19 1.19 0 1 0 0 2.37h2.1v2.1a1.19 1.19 0 1 0 2.37 0v-2.1h2.1a1.19 1.19 0 1 0 0-2.37zm9.56 0h-1.3a1.19 1.19 0 0 0 0 2.37h1.3a1.19 1.19 0 1 0 0-2.37zm7.94 1.19a1.19 1.19 0 0 0-1.19-1.19h-1.29a1.19 1.19 0 1 0 0 2.37h1.29a1.18 1.18 0 0 0 1.19-1.18zm-11.83 5.17a2.39 2.39 0 1 0 2.39 2.38 2.39 2.39 0 0 0-2.39-2.38zm0 3a.61.61 0 1 1 .61-.61.6.6 0 0 1-.61.6zm13.17-3a2.39 2.39 0 1 0 2.39 2.38 2.39 2.39 0 0 0-2.39-2.38zm0 3a.61.61 0 1 1 .61-.61.61.61 0 0 1-.61.6z"/></g></svg>