<svg id="Warstwa_1" data-name="Warstwa 1" xmlns="http://www.w3.org/2000/svg" viewBox="0 0 181.73 111.84"><title>header-logo</title><path d="M519,123.76H504.27a3.17,3.17,0,0,0-3.16,3.16v20.43c-5.35-14.19-18.94-23.81-35.16-23.81H438.16a5,5,0,0,0-4.21,3.16l-12.74,36.12-9.48-36a4.37,4.37,0,0,0-4-3.16h-15a4.37,4.37,0,0,0-4,3.16l-9.48,36.32-12.95-36.43a5,5,0,0,0-4.22-3.16H347.4a2.18,2.18,0,0,0-2.11,3.16l23.8,67.39a5,5,0,0,0,3.05,2.95,2.51,2.51,0,0,0,1.26.31h14.74a4.63,4.63,0,0,0,4-3.16l8.11-30.85,8.11,30.85a4.63,4.63,0,0,0,4,3.16h14.74a2.22,2.22,0,0,0,1.68-.63,4.56,4.56,0,0,0,2.42-2.63l7.72-21.86v22.06a3.12,3.12,0,0,0,3.17,3.17H465.7a37.53,37.53,0,0,0,35.41-24v20.8a3.1,3.1,0,0,0,3.16,3.16H519a3.17,3.17,0,0,0,3.16-3.16V126.92a3.24,3.24,0,0,0-3.16-3.16m-34.77,44.09H469.88v14.37H455.51V167.85h14.37V153.48H455.51V139.12h14.37v14.36h14.36v14.36Z" transform="translate(-345.1 -85.63)" fill="#fff"/><rect x="171.82" y="9.91" width="9.91" height="9.91" fill="#fff"/><rect x="152.01" y="9.91" width="9.9" height="9.91" fill="#fff"/><rect x="161.91" y="19.82" width="9.91" height="9.91" fill="#fff"/><rect x="161.91" width="9.91" height="9.91" fill="#fff"/></svg>