<svg viewBox="0 0 32.42 44.2" xmlns="http://www.w3.org/2000/svg"><g fill="#fff"><circle cx="20.63" cy="14" r="1.47"/><path d="M16 19.11l-2.21-.73a.73.73 0 0 1-.44-.42.69.69 0 0 1 0-.61l2.21-4.42 1.31.66L15 17.25l1.4.47z"/><circle cx="11.05" cy="14" r="1.47"/><path d="M22.14 23.57h-.04V22.1zM7.37 12.52H5.89v-2.21a10.32 10.32 0 0 1 20.63 0v1.48H25v-1.48a8.84 8.84 0 1 0-17.67 0v2.21z"/><path d="M16.2 26.73a5.15 5.15 0 0 1-2.3-.54l-1.48-.74a8.81 8.81 0 0 1-4.93-7.94v-.57h-.12a2.95 2.95 0 1 1 0-5.89h.73a.74.74 0 0 1 .74.72L9 17.5a7.35 7.35 0 0 0 4.11 6.63l1.48.74a3.66 3.66 0 0 0 3.29 0l1.39-.7h.07a7.34 7.34 0 0 0 4.11-6.62l.14-5.75a.74.74 0 0 1 .74-.72H25a2.95 2.95 0 1 1 0 5.89h-.12v.59a8.79 8.79 0 0 1-4.88 7.9l-1.47.73a5.15 5.15 0 0 1-2.33.54zM25 15.47a1.48 1.48 0 1 0 0-3zm-17.59-3a1.48 1.48 0 1 0 0 3h.08zm8.06-5.1H14a4.32 4.32 0 0 0-1.26-2.43l1-1a5.72 5.72 0 0 1 1.73 3.43zm2.95 0h-1.48a5.72 5.72 0 0 1 1.69-3.47l1 1a4.32 4.32 0 0 0-1.21 2.47zm3.49.49l-1.09-1a3 3 0 0 1 1.95-1l.13 1.46a1.58 1.58 0 0 0-.99.54zm-10.67 0a1.58 1.58 0 0 0-1-.5l.14-1.46a3 3 0 0 1 1.95 1z"/><path d="M7.422 12.218l1.47-3.692 1.366.544-1.468 3.692zm14.755-3.041l1.315-.657 1.471 2.942-1.315.658z"/><path d="M29.46 27.25h-.12a6 6 0 0 1-5-5.94v-5.1h1.47v5.09a4.54 4.54 0 0 0 2.95 4.26V6.63A3.69 3.69 0 0 0 25 3h-3.64V1.47H25a5.17 5.17 0 0 1 5.2 5.16v19.89a.73.73 0 0 1-.26.56.74.74 0 0 1-.48.17zM1.47 44.2H0v-9.36a5.15 5.15 0 0 1 4.52-5.15l6.63-.82a.74.74 0 0 0 .64-.74V25h1.48v3.08a2.22 2.22 0 0 1-1.94 2.21l-6.63.82a3.7 3.7 0 0 0-3.23 3.69zm30.95 0H31v-9.32a3.69 3.69 0 0 0-3.23-3.69l-6.63-.82a2.21 2.21 0 0 1-1.94-2.21V25h1.48v3.12a.72.72 0 0 0 .64.74l6.63.83a5.16 5.16 0 0 1 4.52 5.15v9.36z"/><path d="M16.21 35.36a7.42 7.42 0 0 1-6.83-4.51l-.48-1.09 1.35-.59.47 1.1a6 6 0 0 0 5.48 3.61 5.94 5.94 0 0 0 5.48-3.61l.47-1.1 1.35.59-.5 1.09a7.42 7.42 0 0 1-6.79 4.51zM4.42 44.2a13.22 13.22 0 0 1 1.4-5.92l.07-.15v-2h1.48v2.17a.73.73 0 0 1-.08.33l-.16.31a11.86 11.86 0 0 0-1.24 5.26z"/><path d="M.74 37.57h5.89v1.47H.74zm25.04 0h5.89v1.47h-5.89z"/><path d="M28 44.2h-1.48a11.86 11.86 0 0 0-1.24-5.26l-.16-.31a.73.73 0 0 1-.12-.33v-2.21h1.48v2l.07.15A13.25 13.25 0 0 1 28 44.2z"/></g></svg>