<svg id="Warstwa_1" data-name="Warstwa 1" xmlns="http://www.w3.org/2000/svg" viewBox="0 0 101.46 35.52"><title>lingaro</title><path d="M1292,172.48c-4.51,0-8.17,3.22-8.17,7.2s3.66,7.2,8.17,7.2,8.17-3.22,8.17-7.2-3.66-7.2-8.17-7.2m4.93,7.2c0,2.41-2.22,4.34-4.93,4.34a4.67,4.67,0,0,1-4.93-4.34c0-2.41,2.23-4.34,4.93-4.34a4.65,4.65,0,0,1,4.93,4.34m-98.22-11.32h3.18v18.18h-3.18V168.36Zm8.14,4.71H1210v13.5h-3.18v-13.5Zm53.78-.59c-4.51,0-8.17,3.22-8.17,7.2s3.66,7.2,8.17,7.2a8.88,8.88,0,0,0,5-1.54v1.2h3.15v-6.86c0-4-3.66-7.2-8.17-7.2m0,11.54a4.67,4.67,0,0,1-4.93-4.34c0-2.41,2.22-4.34,4.93-4.34a4.38,4.38,0,1,1,0,8.68m-31.82-5.29v7.81h-3.18v-7.81c0-2.72-1.53-3.28-3.85-3.28a5.82,5.82,0,0,0-3.56,1v10.08H1215V175.14a12.14,12.14,0,0,1,6.71-2.35c4.51,0,7.06,2.1,7.06,5.94m53.34-5.86-0.51,2.61-0.22,0c-0.29,0-.6,0-0.92,0a5,5,0,0,0-3.59,1.23v9.89h-3.18V175.34s2.07-2.58,6.74-2.58c0.51,0,1.69.11,1.69,0.11" transform="translate(-1198.7 -168.36)" fill="#fff"/><path d="M1240.79,189.32c-4.55,0-8.26,3.28-8.26,7.28s3.72,7.28,8.26,7.28,8.27-3.28,8.27-7.28-3.72-7.28-8.27-7.28m4.93,7.28c0,2.41-2.22,4.34-4.93,4.34a4.67,4.67,0,0,1-4.93-4.34c0-2.41,2.22-4.34,4.93-4.34a4.67,4.67,0,0,1,4.93,4.34m-4.93-9.64c4.55,0,8.27-3.28,8.27-7.28s-3.72-7.28-8.27-7.28-8.26,3.28-8.26,7.28,3.72,7.28,8.26,7.28m-4.93-7.28c0-2.41,2.22-4.34,4.93-4.34a4.67,4.67,0,0,1,4.93,4.34c0,2.41-2.22,4.34-4.93,4.34a4.65,4.65,0,0,1-4.93-4.34" transform="translate(-1198.7 -168.36)" fill="#fff"/></svg>