<svg xmlns="http://www.w3.org/2000/svg" width="445.559" height="200.298" viewBox="0 0 445.559 200.298">
  <g id="Group_2435" data-name="Group 2435" transform="translate(-743.057 -5154)">
    <path id="Path_1712" data-name="Path 1712" d="M754.038,5280.922H743.057v32.261h10.981c5.108,0,9.279-1.532,12.343-4.6s4.6-7.066,4.6-12a14.853,14.853,0,0,0-4.767-11.236A17.391,17.391,0,0,0,754.038,5280.922Zm9.875,15.662a11.65,11.65,0,0,1-2.554,7.917c-1.7,1.958-4.171,2.894-7.406,2.894h-3.83V5286.71h3.745a9.881,9.881,0,0,1,7.406,2.809A9.705,9.705,0,0,1,763.913,5296.584Z" fill="#fff"/>
    <path id="Path_1713" data-name="Path 1713" d="M785.193,5280.922l-11.236,32.261h7.236l2.3-7.15h11.662l2.3,7.15h7.491l-11.236-32.261Zm5.278,10.129c.681,2.3,1.617,5.108,2.639,8.427l.255.852h-8l.255-.766c1.873-5.789,3.15-9.79,3.745-12.088C789.62,5288.327,789.96,5289.519,790.471,5291.051Z" fill="#fff"/>
    <path id="Path_1714" data-name="Path 1714" d="M807.07,5286.625h8.257v26.558h6.98v-26.558h8.172v-5.7H807.07Z" fill="#fff"/>
    <path id="Path_1715" data-name="Path 1715" d="M843.928,5280.922l-11.236,32.261h7.236l2.3-7.15h11.662l2.3,7.15h7.491l-11.236-32.261Zm5.193,10.129c.681,2.3,1.617,5.108,2.639,8.427l.255.852h-8l.255-.766c1.873-5.789,3.15-9.79,3.745-12.088C848.27,5288.327,848.61,5289.519,849.121,5291.051Z" fill="#fff"/>
    <path id="Path_1716" data-name="Path 1716" d="M897.641,5310.97a8.567,8.567,0,0,0,3.235-6.98,8.92,8.92,0,0,0-.766-3.745,7.939,7.939,0,0,0-2.213-2.81,14.868,14.868,0,0,0-2.724-1.787,28.929,28.929,0,0,0-3.15-1.447,23.247,23.247,0,0,1-4-2.128,2.708,2.708,0,0,1-.085-4.427,5.214,5.214,0,0,1,3.235-.851,14.584,14.584,0,0,1,7.491,2.043l.681.34v-6.724l-.256-.085a19.545,19.545,0,0,0-8.086-1.618c-3.49,0-6.3.851-8.342,2.554a8.306,8.306,0,0,0-3.235,6.725,9.223,9.223,0,0,0,.681,3.575,7.931,7.931,0,0,0,2.043,2.724,12.859,12.859,0,0,0,2.468,1.7,24.558,24.558,0,0,0,2.98,1.447,5.219,5.219,0,0,1,.681.341c1.191.511,1.872.851,2.3,1.021.341.171.851.511,1.532.937a3.812,3.812,0,0,1,1.192,1.106,3.12,3.12,0,0,1,.255,1.277,3.025,3.025,0,0,1-1.191,2.469,5.675,5.675,0,0,1-3.32.936,14.931,14.931,0,0,1-8.768-2.809l-.681-.426v7.066l.256.085a19.176,19.176,0,0,0,9.278,2.043A13.339,13.339,0,0,0,897.641,5310.97Z" fill="#fff"/>
    <path id="Path_1717" data-name="Path 1717" d="M921.731,5313.524c3.66,0,6.555-.681,8.6-1.958l.17-.085v-6.9l-.681.511a12.286,12.286,0,0,1-7.576,2.213,10.31,10.31,0,0,1-7.406-2.724,11.393,11.393,0,0,1,0-14.982,9.624,9.624,0,0,1,7.065-2.809,15.955,15.955,0,0,1,7.832,1.958l.6.34v-6.724l-.256-.086c-2.043-1.191-4.937-1.787-8.512-1.787a16.974,16.974,0,0,0-12.258,4.6,15.968,15.968,0,0,0-4.767,11.917,15.779,15.779,0,0,0,4.852,12A17.78,17.78,0,0,0,921.731,5313.524Z" fill="#fff"/>
    <rect id="Rectangle_504" data-name="Rectangle 504" width="6.895" height="32.262" transform="translate(936.287 5280.921)" fill="#fff"/>
    <path id="Path_1718" data-name="Path 1718" d="M970.251,5307.48H957.057v-7.661h11.577V5294.2H957.057v-7.661h13.024v-5.618h-20v32.262h20.174Z" fill="#fff"/>
    <path id="Path_1719" data-name="Path 1719" d="M983.02,5299.649c0-3.32-.085-6.3-.255-8.768.425.766.936,1.873,1.617,3.15,1.021,1.872,2.128,3.83,3.4,5.873l8,13.279h7.576v-32.261h-6.98v13.534c0,3.49.085,6.469.171,8.768-.426-.766-.937-1.788-1.618-2.979-1.021-1.873-2.128-3.831-3.405-5.959l-7.916-13.279H976.04v32.261h6.9v-13.619Z" fill="#fff"/>
    <path id="Path_1720" data-name="Path 1720" d="M1026.177,5307.31a10.306,10.306,0,0,1-7.405-2.724,11.393,11.393,0,0,1,0-14.982,9.623,9.623,0,0,1,7.065-2.809,16.523,16.523,0,0,1,7.916,1.958l.6.34v-6.724l-.255-.086c-2.043-1.191-4.937-1.787-8.512-1.787a16.97,16.97,0,0,0-12.258,4.6,15.964,15.964,0,0,0-4.767,11.917,15.776,15.776,0,0,0,4.852,12,17.356,17.356,0,0,0,12.173,4.512c3.66,0,6.554-.681,8.6-1.958l.17-.085v-6.9l-.681.511A12.773,12.773,0,0,1,1026.177,5307.31Z" fill="#fff"/>
    <path id="Path_1721" data-name="Path 1721" d="M1059.8,5286.54v-5.618h-20v32.262h20.174v-5.7h-13.279v-7.661h11.662V5294.2h-11.662v-7.661Z" fill="#fff"/>
    <path id="Path_1722" data-name="Path 1722" d="M1186.294,5256.321a4.214,4.214,0,0,0-2.3-.6l-19.578-33.964v-.085a4.424,4.424,0,0,0-7.661-4.427v.085h-39.242a.083.083,0,0,0-.085-.085l7.916-13.705h.085a4.365,4.365,0,0,0,3.831-2.213,4.147,4.147,0,0,0,.425-3.32,4.7,4.7,0,0,0-2.043-2.724,4.218,4.218,0,0,0-2.3-.6l-19.578-33.965v-.085a4.428,4.428,0,0,0-1.618-6.043,4.146,4.146,0,0,0-3.319-.426,4.7,4.7,0,0,0-2.724,2.043v.085h-39.242a5.157,5.157,0,0,0-1.618-1.7,4.146,4.146,0,0,0-3.319-.426,4.7,4.7,0,0,0-2.724,2.043,4.55,4.55,0,0,0,0,4.426l-7.917,13.705a4.425,4.425,0,0,0-3.915,2.213,4.546,4.546,0,0,0,0,4.427l-7.917,13.705a4.264,4.264,0,0,0-3.916,2.213,4.55,4.55,0,0,0,0,4.426l-7.916,13.705a4.426,4.426,0,0,0-2.3,8.257,4.21,4.21,0,0,0,2.3.6l19.578,33.964v.085a4.424,4.424,0,0,0,7.661,4.427v-.085H1086.1a.084.084,0,0,0,.085.085l-7.916,13.7h-.085a4.365,4.365,0,0,0-3.831,2.213,4.146,4.146,0,0,0-.425,3.32,4.694,4.694,0,0,0,2.043,2.723,4.214,4.214,0,0,0,2.3.6l19.578,33.965v.085a4.145,4.145,0,0,0-.425,3.319,4.693,4.693,0,0,0,2.043,2.724,4.428,4.428,0,0,0,6.043-1.617v-.085h39.242a5.16,5.16,0,0,0,1.618,1.7,4.122,4.122,0,0,0,2.213.6,5.77,5.77,0,0,0,1.192-.17,4.7,4.7,0,0,0,2.724-2.043,4.549,4.549,0,0,0,0-4.426l8.086-13.79h.085a4.365,4.365,0,0,0,3.831-2.214,4.549,4.549,0,0,0,0-4.426l7.916-13.705h.085a4.365,4.365,0,0,0,3.831-2.213,4.549,4.549,0,0,0,0-4.426l7.916-13.705h.086a4.365,4.365,0,0,0,3.83-2.214A4.623,4.623,0,0,0,1186.294,5256.321Zm-88.187-14.3a.083.083,0,0,0,.085.085l-7.917,13.62h-.085l-7.916-13.79h15.833Zm7.746-4.341a.083.083,0,0,0-.085-.085l7.916-13.62h.085l7.917,13.79h-15.833Zm35.156,20.344a5.168,5.168,0,0,0-1.618-1.7,4.214,4.214,0,0,0-2.3-.6l-7.916-13.705h18.471l9.279,16Zm-15.663,18.046-19.578-33.964v-.17h18.386l9.194,15.918v.085a4.424,4.424,0,0,0,7.661,4.427v-.085H1159.4l9.194,15.918v.17h-39.242a5.164,5.164,0,0,0-1.617-1.7A4.735,4.735,0,0,0,1125.346,5276.069Zm-70.312-40.6-7.916-13.7h15.833a5.143,5.143,0,0,0,1.617,1.7,4.211,4.211,0,0,0,2.3.6l7.917,13.705H1058.95a5.15,5.15,0,0,0-1.617-1.7A3.89,3.89,0,0,0,1055.034,5235.466Zm125.217,22.472h0l-18.387.085-11.577-20.089-.085-.255h-23.494l-9.193-15.918v-.17h39.242a5.151,5.151,0,0,0,1.617,1.7,4.211,4.211,0,0,0,2.3.6l19.579,34.049Zm-58.65-60.948a4.549,4.549,0,0,0,0,4.426l-7.832,13.705h-.085l-19.578-33.964v-.085a4.424,4.424,0,1,0-7.661-4.427v.086H1047.2a.084.084,0,0,0-.085-.086l7.916-13.7h.085a4.366,4.366,0,0,0,3.831-2.214v-.085h39.242a5.158,5.158,0,0,0,1.617,1.7,4.223,4.223,0,0,0,2.3.6l19.494,34.049Zm-74.483-15.918h0l39.242-.085a5.142,5.142,0,0,0,1.617,1.7,4.21,4.21,0,0,0,2.3.6l19.579,33.964v.085a4.552,4.552,0,0,0,0,4.427l-7.917,13.7h-.085a4.364,4.364,0,0,0-3.83,2.213v.085h-18.387l-9.023-16v-.085a4.148,4.148,0,0,0,.425-3.32,4.7,4.7,0,0,0-2.042-2.724,4.429,4.429,0,0,0-6.044,1.617v.085h-18.387l-9.193-15.918v-.085a4.55,4.55,0,0,0,0-4.426l7.916-13.7h.085A3.936,3.936,0,0,0,1047.118,5181.072Zm-23.409,40.689h0l18.387-.085,9.193,15.918v.085a4.151,4.151,0,0,0-.426,3.32,4.707,4.707,0,0,0,2.043,2.724,4.154,4.154,0,0,0,3.32.425,4.694,4.694,0,0,0,2.724-2.043v-.085h18.387l9.193,15.918v.085h0v.085h-39.242a5.164,5.164,0,0,0-1.617-1.7,4.216,4.216,0,0,0-2.3-.6l-19.663-34.049Zm58.65,60.948a4.549,4.549,0,0,0,0-4.426l7.916-13.705h.085l19.579,33.964v.085a4.43,4.43,0,0,0,1.617,6.044,4.152,4.152,0,0,0,3.32.426,4.7,4.7,0,0,0,2.724-2.043v-.086h39.242a.084.084,0,0,0,.085.086l-7.917,13.7h-.085a4.365,4.365,0,0,0-3.83,2.214v.085h-39.242a5.164,5.164,0,0,0-1.617-1.7,4.226,4.226,0,0,0-2.3-.6l-19.578-34.049Zm74.483,15.918h0l-39.242.085a5.157,5.157,0,0,0-1.617-1.7,4.218,4.218,0,0,0-2.3-.6l-19.578-33.964v-.085a4.552,4.552,0,0,0,0-4.427l7.916-13.705h.085l19.579,33.965v.085a4.151,4.151,0,0,0-.426,3.32,4.7,4.7,0,0,0,2.043,2.723,4.15,4.15,0,0,0,3.32.426,4.275,4.275,0,0,0,2.639-2.043v-.085H1168.5a.083.083,0,0,0,.085.085l-7.917,13.705h-.085A4.33,4.33,0,0,0,1156.842,5298.627Zm-133.218-81.378,7.916-13.619h.085l7.917,13.79h-15.918C1023.709,5217.334,1023.709,5217.334,1023.624,5217.249Zm156.712,45.2-7.917,13.619h-.085l-7.916-13.789h15.918C1180.251,5262.365,1180.336,5262.365,1180.336,5262.45Z" fill="#fff"/>
    <path id="Path_1723" data-name="Path 1723" d="M898.748,5338.039a14.81,14.81,0,0,0-2.724-1.787c-.851-.426-1.873-.937-3.15-1.447a23.206,23.206,0,0,1-4-2.129,2.67,2.67,0,0,1-1.192-2.213,2.7,2.7,0,0,1,1.106-2.213,5.216,5.216,0,0,1,3.235-.851,14.581,14.581,0,0,1,7.491,2.043l.681.34v-6.724l-.255-.086a19.569,19.569,0,0,0-8.087-1.617c-3.49,0-6.3.851-8.342,2.554a8.306,8.306,0,0,0-3.235,6.725,9.242,9.242,0,0,0,.681,3.575,7.932,7.932,0,0,0,2.043,2.724,12.908,12.908,0,0,0,2.469,1.7,24.608,24.608,0,0,0,2.979,1.447,4.926,4.926,0,0,1,.681.341q1.66.765,2.3,1.021c.341.17.852.511,1.533.937a3.818,3.818,0,0,1,1.191,1.106,3.117,3.117,0,0,1,.256,1.277,3.028,3.028,0,0,1-1.192,2.469,5.68,5.68,0,0,1-3.32.936,14.933,14.933,0,0,1-8.768-2.809l-.681-.426V5352l.256.086a19.176,19.176,0,0,0,9.278,2.043,13.1,13.1,0,0,0,8.427-2.554,8.568,8.568,0,0,0,3.235-6.98,8.927,8.927,0,0,0-.766-3.746A5.676,5.676,0,0,0,898.748,5338.039Z" fill="#fff"/>
    <path id="Path_1724" data-name="Path 1724" d="M925.987,5341.359c0,4.426-2.043,6.64-6.214,6.64a6.585,6.585,0,0,1-4.511-1.533,6.323,6.323,0,0,1-1.7-4.852v-20h-6.9v20.09c0,4,1.192,7.15,3.576,9.363a13.753,13.753,0,0,0,9.533,3.235c4,0,7.236-1.107,9.619-3.32,2.3-2.213,3.49-5.448,3.49-9.619V5321.61h-6.9Z" fill="#fff"/>
    <path id="Path_1725" data-name="Path 1725" d="M965.4,5321.61l-4.6,11.662c-1.532,3.831-2.809,7.236-3.746,10.13v-.085c-.255-.936-.766-2.384-1.447-4.256s-1.362-3.831-2.128-5.789l-4.511-11.662H941.4l-2.639,32.262h6.9l1.021-12.683c.256-3.746.426-6.64.6-8.6l3.065,8.683,4.511,12.087h4.767l4.6-12.087c1.277-3.32,2.468-6.384,3.49-9.193l.681,9.023,1.192,12.6h6.9l-3.235-32.262H965.4Z" fill="#fff"/>
    <path id="Path_1726" data-name="Path 1726" d="M1008.387,5321.61l-4.6,11.662c-1.532,3.831-2.809,7.236-3.745,10.13v-.085c-.256-.936-.766-2.384-1.447-4.256s-1.362-3.831-2.129-5.789l-4.511-11.662h-7.576l-2.639,32.262h6.9l1.022-12.683c.255-3.831.425-6.64.6-8.6l3.064,8.683,4.511,12.087h4.767l4.6-12.087c1.277-3.32,2.469-6.469,3.49-9.193l.681,9.023,1.192,12.6h6.9l-3.235-32.262h-7.831Z" fill="#fff"/>
    <rect id="Rectangle_505" data-name="Rectangle 505" width="6.895" height="32.262" transform="translate(1025.496 5321.61)" fill="#fff"/>
    <path id="Path_1727" data-name="Path 1727" d="M1037.158,5327.314h8.257v26.558h6.98v-26.558h8.172v-5.7h-23.409Z" fill="#fff"/>
  </g>
</svg>
