<svg xmlns="http://www.w3.org/2000/svg" xmlns:xlink="http://www.w3.org/1999/xlink" width="221.525" height="99.898" viewBox="0 0 221.525 99.898">
  <defs>
    <linearGradient id="linear-gradient" x1="-2.117" y1="0.5" x2="0.706" y2="0.5" gradientUnits="objectBoundingBox">
      <stop offset="0"/>
      <stop offset="0.989"/>
    </linearGradient>
    <linearGradient id="linear-gradient-2" x1="-9.376" y1="0.5" x2="4.113" y2="0.5" xlink:href="#linear-gradient"/>
    <linearGradient id="linear-gradient-3" x1="-8.794" y1="0.5" x2="5.615" y2="0.5" xlink:href="#linear-gradient"/>
    <linearGradient id="linear-gradient-4" x1="-10.179" y1="0.5" x2="7.706" y2="0.5" xlink:href="#linear-gradient"/>
    <linearGradient id="linear-gradient-5" x1="-6.879" y1="0.5" x2="7.532" y2="0.5" xlink:href="#linear-gradient"/>
    <linearGradient id="linear-gradient-6" x1="-6.852" y1="0.5" x2="10.244" y2="0.5" xlink:href="#linear-gradient"/>
    <linearGradient id="linear-gradient-7" x1="-4.937" y1="0.5" x2="9.898" y2="0.5" xlink:href="#linear-gradient"/>
    <linearGradient id="linear-gradient-8" x1="-8.147" y1="0.5" x2="18.847" y2="0.5" xlink:href="#linear-gradient"/>
    <linearGradient id="linear-gradient-9" x1="-3.682" y1="0.5" x2="11.56" y2="0.5" xlink:href="#linear-gradient"/>
    <linearGradient id="linear-gradient-10" x1="-2.048" y1="0.5" x2="10.215" y2="0.5" xlink:href="#linear-gradient"/>
    <linearGradient id="linear-gradient-11" x1="-1.487" y1="0.5" x2="13.347" y2="0.5" xlink:href="#linear-gradient"/>
    <linearGradient id="linear-gradient-12" x1="-0.637" y1="0.5" x2="14.605" y2="0.5" xlink:href="#linear-gradient"/>
  </defs>
  <g id="Group_1629" data-name="Group 1629" transform="translate(-1051.078 -568.244)">
    <g id="Group_1627" data-name="Group 1627">
      <path id="Path_1242" data-name="Path 1242" d="M1115.6,633.651h3.952v13.175h3.713V633.651h3.928v-2.97H1115.6Z"/>
      <path id="Path_1243" data-name="Path 1243" d="M1133.85,630.681l-5.39,16.146h3.857l.982-3.306h5.653l.982,3.306h3.953l-5.39-16.146Zm.335,9.869.167-.574a67.6,67.6,0,0,0,1.773-6.612l.1.479q.094.478.538,2.132t1.138,4l.168.574Z"/>
      <path id="Path_1244" data-name="Path 1244" d="M1157.564,635.855a4.736,4.736,0,0,0-1.64-3.737,6.362,6.362,0,0,0-4.347-1.437h-5.582v16.146h3.688v-5.606h1.127l3.5,5.606h4.408l-4.1-6.205A4.78,4.78,0,0,0,1157.564,635.855Zm-6.131,2.372h-1.75v-4.552h1.821a2.38,2.38,0,0,1,1.7.587,2.365,2.365,0,0,1-1.772,3.965Z"/>
      <path id="Path_1245" data-name="Path 1245" d="M1168.416,640.335h2.612v3.043a6.862,6.862,0,0,1-2.037.31,4.809,4.809,0,0,1-3.593-1.341,5.572,5.572,0,0,1,.024-7.223,4.871,4.871,0,0,1,3.617-1.353,9.386,9.386,0,0,1,4.719,1.318V631.4a10.317,10.317,0,0,0-4.719-1.006,9.217,9.217,0,0,0-6.408,2.275,8.665,8.665,0,0,0-.107,12.121,8.93,8.93,0,0,0,6.3,2.228,9.582,9.582,0,0,0,5.8-1.676V637.2h-6.2Z"/>
      <rect id="Rectangle_359" data-name="Rectangle 359" width="3.688" height="16.146" transform="translate(1177.855 630.681)"/>
    </g>
    <g id="Group_1628" data-name="Group 1628">
      <path id="Path_1246" data-name="Path 1246" d="M1104.5,627.853l-3.984-6.9a1.924,1.924,0,0,0,.148-.246H1120.1c.021.043.034.087.058.129a1.952,1.952,0,1,0,3.381-1.952c-.024-.042-.056-.075-.083-.115l9.717-16.828a1.949,1.949,0,1,0,0-3.887l-3.983-6.9a1.94,1.94,0,0,0-1.751-3.032l-3.984-6.9a1.94,1.94,0,0,0-1.751-3.032l-3.984-6.9a1.948,1.948,0,1,0-3.367-1.94h-19.433c-.02-.043-.034-.087-.058-.129a1.952,1.952,0,0,0-3.381,1.952c.025.042.056.076.083.115l-9.716,16.829a1.949,1.949,0,1,0,0,3.886l3.984,6.9a1.864,1.864,0,0,0-.148.245h-19.433c-.021-.043-.034-.087-.058-.128a1.952,1.952,0,1,0-3.381,1.952c.024.041.056.075.083.114l-9.717,16.829a1.949,1.949,0,1,0,0,3.886l3.983,6.9a1.94,1.94,0,0,0,1.751,3.033l3.984,6.9a1.94,1.94,0,0,0,1.751,3.033l3.984,6.9a1.948,1.948,0,1,0,3.367,1.94h19.433c.02.043.034.087.057.128a1.952,1.952,0,1,0,3.381-1.952c-.024-.041-.056-.075-.082-.114l9.716-16.829a1.949,1.949,0,1,0,0-3.886Zm17.49-9.939a1.949,1.949,0,0,0-1.9,1.1h-19.433c-.021-.042-.034-.086-.058-.128s-.056-.075-.082-.114l4.615-7.995h9.232c.021.042.034.087.058.128a1.952,1.952,0,1,0,3.381-1.952c-.024-.041-.056-.075-.082-.114l4.616-7.995h9.231c.021.042.034.087.058.129s.056.075.083.114Zm-22.938,0a1.971,1.971,0,0,0-.287.006l-3.984-6.9a1.851,1.851,0,0,0,.148-.245h8.244Zm7.057-8.834,4.122-7.14a1.948,1.948,0,0,0,1.9-1.1h8.244l-4.122,7.139a1.95,1.95,0,0,0-1.9,1.1ZM1127.723,592l3.983,6.9a1.962,1.962,0,0,0-.148.245h-8.244l4.122-7.139A1.971,1.971,0,0,0,1127.723,592Zm-5.735-9.933,3.984,6.9a1.944,1.944,0,0,0-.081,2.069c.024.041.055.075.082.114l-4.616,7.995h-9.232c-.02-.043-.034-.087-.057-.128a1.952,1.952,0,0,0-3.382,1.952c.025.041.056.075.083.114l-4.616,7.995h-9.232c-.02-.043-.034-.087-.058-.129a1.946,1.946,0,0,0-1.832-.964l-3.983-6.9a1.947,1.947,0,0,0,.081-2.068c-.024-.042-.056-.076-.083-.115l9.717-16.829a1.944,1.944,0,0,0,1.9-1.1H1120.1c.021.043.034.087.058.129A1.945,1.945,0,0,0,1121.988,582.069Zm-30.425,26.766a1.971,1.971,0,0,0-.148.245h-8.244l4.122-7.14a1.97,1.97,0,0,0,.287-.005Zm-8.25-17.681a1.946,1.946,0,0,0,.081-2.068c-.024-.042-.056-.075-.082-.114l9.716-16.83a1.948,1.948,0,0,0,1.9-1.1h19.432c.021.042.034.087.058.128a1.947,1.947,0,0,0,1.833.965l3.983,6.9a1.987,1.987,0,0,0-.148.245h-19.433c-.021-.042-.034-.086-.058-.128a1.952,1.952,0,0,0-3.381,1.952c.024.042.056.075.083.115l-9.717,16.829a1.946,1.946,0,0,0-.286.005Zm-18.958,10.786a1.947,1.947,0,0,0,1.9-1.1h19.433c.02.042.034.087.058.129s.055.075.082.114l-4.616,7.995h-11.469l-5.735,9.932h-9.232c-.02-.042-.033-.086-.057-.128s-.056-.075-.083-.114Zm15.88,8.835-4.121,7.139a1.952,1.952,0,0,0-1.9,1.1h-8.244l4.756-8.237Zm-21.611,17.078-3.984-6.9a1.86,1.86,0,0,0,.148-.245h8.244l-4.122,7.14A1.954,1.954,0,0,0,1058.624,627.853Zm6.365-7.146h9.231c.021.043.034.087.058.129a1.952,1.952,0,1,0,3.381-1.952c-.024-.042-.056-.075-.082-.115l4.615-7.994h9.233c.02.042.034.087.057.128s.056.076.083.115l-9.716,16.829a1.946,1.946,0,0,0-1.9,1.1h-19.433c-.02-.043-.034-.087-.058-.129s-.056-.075-.082-.114Zm-.631,17.078-3.984-6.9a1.86,1.86,0,0,0,.148-.245h19.433c.021.043.034.087.058.129a1.952,1.952,0,0,0,3.381-1.952c-.024-.042-.056-.075-.082-.114l9.716-16.83a1.946,1.946,0,0,0,.286-.006l3.984,6.9a1.946,1.946,0,0,0-.081,2.068c.024.042.056.075.083.115l-9.717,16.829a1.945,1.945,0,0,0-1.9,1.1h-19.433c-.021-.043-.034-.087-.058-.128A1.948,1.948,0,0,0,1064.358,637.785Zm28.96,9.927a1.951,1.951,0,0,0-1.9,1.1h-19.432c-.021-.042-.034-.087-.058-.129a1.948,1.948,0,0,0-1.833-.964l-3.983-6.9a1.86,1.86,0,0,0,.148-.245h19.433c.02.042.034.087.058.129a1.952,1.952,0,0,0,3.381-1.952c-.025-.042-.056-.076-.083-.115l9.717-16.829a1.957,1.957,0,0,0,.286-.006l3.984,6.9a1.944,1.944,0,0,0-.081,2.068c.024.041.056.075.082.114Z" fill="url(#linear-gradient)"/>
      <path id="Path_1247" data-name="Path 1247" d="M1120.991,651.8h-5.557V667.95h5.51a8.3,8.3,0,0,0,6.049-2.228,8.132,8.132,0,0,0,2.288-6.108,7.424,7.424,0,0,0-2.324-5.57A8.243,8.243,0,0,0,1120.991,651.8Zm3.343,11.738a4.312,4.312,0,0,1-3.437,1.389h-1.678V654.846h1.653a4.5,4.5,0,0,1,3.451,1.306,4.869,4.869,0,0,1,1.221,3.462A5.8,5.8,0,0,1,1124.334,663.542Z" fill="url(#linear-gradient-2)"/>
      <path id="Path_1248" data-name="Path 1248" d="M1136.179,651.8l-5.39,16.146h3.858l.982-3.306h5.654l.982,3.306h3.952l-5.39-16.146Zm.336,9.87.168-.575q1.581-5.3,1.773-6.612l.095.479q.1.48.539,2.132t1.138,4l.168.575Z" fill="url(#linear-gradient-3)"/>
      <path id="Path_1249" data-name="Path 1249" d="M1147.487,654.774h3.952V667.95h3.713V654.774h3.928V651.8h-11.594Z" fill="url(#linear-gradient-4)"/>
      <path id="Path_1250" data-name="Path 1250" d="M1165.739,651.8l-5.39,16.146h3.857l.982-3.306h5.654l.982,3.306h3.952l-5.389-16.146Zm.336,9.87.168-.575a67.81,67.81,0,0,0,1.772-6.612l.1.479q.093.48.538,2.132t1.138,4l.167.575Z" fill="url(#linear-gradient-5)"/>
      <path id="Path_1251" data-name="Path 1251" d="M1193.013,660.488a4.437,4.437,0,0,0-1.006-.934,9.686,9.686,0,0,0-1.127-.7q-.491-.25-1.232-.587a8.581,8.581,0,0,1-1.8-.994,1.338,1.338,0,0,1-.6-1.066,1.192,1.192,0,0,1,.49-.982,2.278,2.278,0,0,1,1.426-.384,7.926,7.926,0,0,1,4.025,1.126v-3.449a9.806,9.806,0,0,0-4.168-.815,6.42,6.42,0,0,0-4.241,1.282,4.173,4.173,0,0,0-1.532,3.365,4.034,4.034,0,0,0,.945,2.8,7.552,7.552,0,0,0,2.5,1.773c.191.08.443.191.754.335s.548.257.708.336.354.18.586.3a4,4,0,0,1,.527.311,3.338,3.338,0,0,1,.373.323,1.071,1.071,0,0,1,.262.407,1.433,1.433,0,0,1,.072.456,1.417,1.417,0,0,1-.55,1.161,2.147,2.147,0,0,1-1.389.444,7.767,7.767,0,0,1-4.648-1.582v3.713a9.448,9.448,0,0,0,4.648,1.007,6.393,6.393,0,0,0,4.262-1.353,4.7,4.7,0,0,0,1.341-5.091A4.671,4.671,0,0,0,1193.013,660.488Z" fill="url(#linear-gradient-6)"/>
      <path id="Path_1252" data-name="Path 1252" d="M1197.9,653.912a8.158,8.158,0,0,0-2.311,6.013,7.851,7.851,0,0,0,2.384,5.929,8.225,8.225,0,0,0,5.928,2.288,8.022,8.022,0,0,0,4.216-.911v-3.617a6.443,6.443,0,0,1-3.857,1.15,4.617,4.617,0,0,1-3.4-1.306,4.746,4.746,0,0,1-1.319-3.533,4.977,4.977,0,0,1,1.319-3.629,4.364,4.364,0,0,1,3.257-1.354,7.5,7.5,0,0,1,4,1.1V652.5a7.966,7.966,0,0,0-4.192-.911A8.133,8.133,0,0,0,1197.9,653.912Z" fill="url(#linear-gradient-7)"/>
      <rect id="Rectangle_360" data-name="Rectangle 360" width="3.688" height="16.146" transform="translate(1211.111 651.804)" fill="url(#linear-gradient-8)"/>
      <path id="Path_1253" data-name="Path 1253" d="M1221.866,661.338h5.557v-2.922h-5.557V654.75h6.229V651.8h-9.943V667.95h10.038V665h-6.324Z" fill="url(#linear-gradient-9)"/>
      <path id="Path_1254" data-name="Path 1254" d="M1241.077,658.488a38.932,38.932,0,0,0,.24,4.911l-.191-.527a17.884,17.884,0,0,0-.755-1.738q-.586-1.231-1.377-2.646l-3.76-6.684h-4.049V667.95h3.688v-6.684a30.728,30.728,0,0,0-.359-5.006l.191.6c.146.4.412,1.019.8,1.858s.843,1.688,1.353,2.55l3.857,6.684h4.049V651.8h-3.69Z" fill="url(#linear-gradient-10)"/>
      <path id="Path_1255" data-name="Path 1255" d="M1249.593,653.912a8.158,8.158,0,0,0-2.311,6.013,7.851,7.851,0,0,0,2.383,5.929,8.227,8.227,0,0,0,5.929,2.288,8.022,8.022,0,0,0,4.216-.911v-3.617a6.446,6.446,0,0,1-3.857,1.15,4.617,4.617,0,0,1-3.4-1.306,4.746,4.746,0,0,1-1.319-3.533,4.977,4.977,0,0,1,1.319-3.629,4.363,4.363,0,0,1,3.256-1.354,7.506,7.506,0,0,1,4,1.1V652.5a7.967,7.967,0,0,0-4.192-.911A8.132,8.132,0,0,0,1249.593,653.912Z" fill="url(#linear-gradient-11)"/>
      <path id="Path_1256" data-name="Path 1256" d="M1266.279,665v-3.666h5.557v-2.922h-5.557V654.75h6.229V651.8h-9.943V667.95H1272.6V665Z" fill="url(#linear-gradient-12)"/>
    </g>
  </g>
</svg>
