<svg xmlns="http://www.w3.org/2000/svg" xmlns:xlink="http://www.w3.org/1999/xlink" viewBox="0 0 115.96 161"><defs><style>.cls-1,.cls-2{fill:#e10b31;}.cls-1,.cls-7{stroke:#000;stroke-miterlimit:10;}.cls-3{clip-path:url(#clip-path);}.cls-4{isolation:isolate;}.cls-12,.cls-5{fill:#903;}.cls-6{fill:#fff;opacity:0.4;}.cls-7{fill:none;}.cls-8{clip-path:url(#clip-path-2);}.cls-9{clip-path:url(#clip-path-3);}.cls-10{clip-path:url(#clip-path-4);}.cls-11{clip-path:url(#clip-path-5);}.cls-12{font-size:20.8px;font-family:Inconsolata-Bold, Inconsolata;font-weight:700;}.cls-13{clip-path:url(#clip-path-6);}.cls-14{fill:#050505;}.cls-15{clip-path:url(#clip-path-7);}.cls-16{clip-path:url(#clip-path-8);}</style><clipPath id="clip-path"><rect class="cls-1" x="0.5" y="96.5" width="32" height="32"/></clipPath><clipPath id="clip-path-2"><rect class="cls-1" x="32.5" y="128.5" width="32" height="32"/></clipPath><clipPath id="clip-path-3"><rect class="cls-1" x="0.5" y="128.5" width="32" height="32"/></clipPath><clipPath id="clip-path-4"><rect class="cls-1" x="64.5" y="64.63" width="32" height="32"/></clipPath><clipPath id="clip-path-5"><rect class="cls-1" x="64.5" y="128.5" width="32" height="32"/></clipPath><clipPath id="clip-path-6"><rect class="cls-1" x="0.5" y="64.5" width="32" height="32"/></clipPath><clipPath id="clip-path-7"><rect class="cls-1" x="32.5" y="96.5" width="32" height="32"/></clipPath><clipPath id="clip-path-8"><rect class="cls-1" x="0.5" y="0.5" width="32" height="32"/></clipPath></defs><title>menu-2</title><g id="Layer_2" data-name="Layer 2"><g id="Modale"><rect class="cls-2" x="0.5" y="96.5" width="32" height="32"/><g class="cls-3"><g class="cls-4"><polygon class="cls-5" points="29.3 99.7 32.5 96.5 32.5 128.5 29.3 125.3 29.3 99.7"/><polygon class="cls-5" points="29.3 125.3 32.5 128.5 0.5 128.5 3.7 125.3 29.3 125.3"/><polygon class="cls-6" points="0.5 96.5 0.5 128.5 3.7 125.3 3.7 99.7 29.3 99.7 32.5 96.5 0.5 96.5"/></g></g><rect class="cls-7" x="0.5" y="96.5" width="32" height="32"/><rect class="cls-2" x="32.5" y="128.5" width="32" height="32"/><g class="cls-8"><g class="cls-4"><polygon class="cls-5" points="61.3 131.7 64.5 128.5 64.5 160.5 61.3 157.3 61.3 131.7"/><polygon class="cls-5" points="61.3 157.3 64.5 160.5 32.5 160.5 35.7 157.3 61.3 157.3"/><polygon class="cls-6" points="32.5 128.5 32.5 160.5 35.7 157.3 35.7 131.7 61.3 131.7 64.5 128.5 32.5 128.5"/></g></g><rect class="cls-7" x="32.5" y="128.5" width="32" height="32"/><rect class="cls-2" x="0.5" y="128.5" width="32" height="32"/><g class="cls-9"><g class="cls-4"><polygon class="cls-5" points="29.3 131.7 32.5 128.5 32.5 160.5 29.3 157.3 29.3 131.7"/><polygon class="cls-5" points="29.3 157.3 32.5 160.5 0.5 160.5 3.7 157.3 29.3 157.3"/><polygon class="cls-6" points="0.5 128.5 0.5 160.5 3.7 157.3 3.7 131.7 29.3 131.7 32.5 128.5 0.5 128.5"/></g></g><rect class="cls-7" x="0.5" y="128.5" width="32" height="32"/><rect class="cls-2" x="64.5" y="64.63" width="32" height="32"/><g class="cls-10"><g class="cls-4"><polygon class="cls-5" points="93.3 67.83 93.3 93.42 67.7 93.42 64.5 96.62 96.5 96.62 96.5 64.63 93.3 67.83"/><polygon class="cls-6" points="64.5 64.63 64.5 96.62 67.7 93.42 67.7 67.83 93.3 67.83 96.5 64.63 64.5 64.63"/></g></g><rect class="cls-7" x="64.5" y="64.63" width="32" height="32"/><rect class="cls-2" x="64.5" y="128.5" width="32" height="32"/><g class="cls-11"><g class="cls-4"><polygon class="cls-5" points="93.3 131.7 96.5 128.5 96.5 160.5 93.3 157.3 93.3 131.7"/><polygon class="cls-5" points="93.3 157.3 96.5 160.5 64.5 160.5 67.7 157.3 93.3 157.3"/><polygon class="cls-6" points="64.5 128.5 64.5 160.5 67.7 157.3 67.7 131.7 93.3 131.7 96.5 128.5 64.5 128.5"/></g></g><rect class="cls-7" x="64.5" y="128.5" width="32" height="32"/><text class="cls-12" transform="translate(105.56 151.67)">1</text><text class="cls-12" transform="translate(11.86 53.29)">2</text><rect class="cls-2" x="0.5" y="64.5" width="32" height="32"/><g class="cls-13"><g class="cls-4"><polygon class="cls-5" points="29.3 67.7 32.5 64.5 32.5 96.5 29.3 93.3 29.3 67.7"/><polygon class="cls-5" points="29.3 93.3 32.5 96.5 0.5 96.5 3.7 93.3 29.3 93.3"/><polygon class="cls-6" points="0.5 64.5 0.5 96.5 3.7 93.3 3.7 67.7 29.3 67.7 32.5 64.5 0.5 64.5"/></g></g><rect class="cls-7" x="0.5" y="64.5" width="32" height="32"/><polygon class="cls-5" points="15.57 69.5 14.85 70.09 7.51 75.39 15.57 81.28 15.57 69.5"/><rect class="cls-5" x="15.57" y="69.5" width="1.24" height="11.77"/><rect class="cls-14" x="10.92" y="87.78" width="10.54" height="1.86"/><rect class="cls-14" x="7.51" y="89.64" width="17.97" height="1.86"/><rect class="cls-14" x="15.57" y="81.27" width="1.24" height="7.13"/><rect class="cls-2" x="32.5" y="96.5" width="32" height="32"/><g class="cls-15"><g class="cls-4"><polygon class="cls-5" points="61.3 99.7 64.5 96.5 64.5 128.5 61.3 125.3 61.3 99.7"/><polygon class="cls-5" points="61.3 125.3 64.5 128.5 32.5 128.5 35.7 125.3 61.3 125.3"/><polygon class="cls-6" points="32.5 96.5 32.5 128.5 35.7 125.3 35.7 99.7 61.3 99.7 64.5 96.5 32.5 96.5"/></g></g><rect class="cls-7" x="32.5" y="96.5" width="32" height="32"/><polygon class="cls-5" points="47.57 101.5 46.85 102.09 39.51 107.39 47.57 113.28 47.57 101.5"/><rect class="cls-5" x="47.57" y="101.5" width="1.24" height="11.77"/><rect class="cls-14" x="42.92" y="119.78" width="10.54" height="1.86"/><rect class="cls-14" x="39.51" y="121.64" width="17.97" height="1.86"/><rect class="cls-14" x="47.57" y="113.27" width="1.24" height="7.13"/><rect class="cls-2" x="0.5" y="0.5" width="32" height="32"/><g class="cls-16"><g class="cls-4"><polygon class="cls-5" points="29.3 3.7 32.5 0.5 32.5 32.5 29.3 29.3 29.3 3.7"/><polygon class="cls-5" points="29.3 29.3 32.5 32.5 0.5 32.5 3.7 29.3 29.3 29.3"/><polygon class="cls-6" points="0.5 0.5 0.5 32.5 3.7 29.3 3.7 3.7 29.3 3.7 32.5 0.5 0.5 0.5"/></g></g><rect class="cls-7" x="0.5" y="0.5" width="32" height="32"/></g></g></svg>