<svg xmlns="http://www.w3.org/2000/svg" xmlns:xlink="http://www.w3.org/1999/xlink" viewBox="0 0 129 97"><defs><style>.cls-1,.cls-2{fill:#e10b31;}.cls-1,.cls-7{stroke:#000;stroke-miterlimit:10;}.cls-3{clip-path:url(#clip-path);}.cls-4{isolation:isolate;}.cls-5,.cls-8{fill:#903;}.cls-6{fill:#fff;opacity:0.4;}.cls-7{fill:none;}.cls-8{font-size:20.8px;font-family:Inconsolata-Bold, Inconsolata;font-weight:700;}.cls-9{clip-path:url(#clip-path-2);}.cls-10{clip-path:url(#clip-path-3);}.cls-11{clip-path:url(#clip-path-4);}.cls-12{clip-path:url(#clip-path-5);}.cls-13{clip-path:url(#clip-path-6);}.cls-14{fill:#050505;}</style><clipPath id="clip-path"><rect class="cls-1" x="32.5" y="0.5" width="32" height="32"/></clipPath><clipPath id="clip-path-2"><rect class="cls-1" x="0.5" y="32.5" width="32" height="32"/></clipPath><clipPath id="clip-path-3"><rect class="cls-1" x="0.5" y="64.5" width="32" height="32"/></clipPath><clipPath id="clip-path-4"><rect class="cls-1" x="0.5" y="0.5" width="32" height="32"/></clipPath><clipPath id="clip-path-5"><rect class="cls-1" x="96.5" y="0.5" width="32" height="32"/></clipPath><clipPath id="clip-path-6"><rect class="cls-1" x="64.5" y="32.5" width="32" height="32"/></clipPath></defs><title>menu-1</title><g id="Layer_2" data-name="Layer 2"><g id="Modale"><rect class="cls-2" x="32.5" y="0.5" width="32" height="32"/><g class="cls-3"><g class="cls-4"><polygon class="cls-5" points="61.3 3.7 61.3 29.3 35.7 29.3 32.5 32.5 64.5 32.5 64.5 0.5 61.3 3.7"/><polygon class="cls-6" points="32.5 0.5 32.5 32.5 35.7 29.3 35.7 3.7 61.3 3.7 64.5 0.5 32.5 0.5"/></g></g><rect class="cls-7" x="32.5" y="0.5" width="32" height="32"/><text class="cls-8" transform="translate(43.39 55.67)">2</text><rect class="cls-2" x="0.5" y="32.5" width="32" height="32"/><g class="cls-9"><g class="cls-4"><polygon class="cls-5" points="29.3 35.7 29.3 61.3 3.7 61.3 0.5 64.5 32.5 64.5 32.5 32.5 29.3 35.7"/><polygon class="cls-6" points="0.5 32.5 0.5 64.5 3.7 61.3 3.7 35.7 29.3 35.7 32.5 32.5 0.5 32.5"/></g></g><rect class="cls-7" x="0.5" y="32.5" width="32" height="32"/><rect class="cls-2" x="0.5" y="64.5" width="32" height="32"/><g class="cls-10"><g class="cls-4"><polygon class="cls-5" points="29.3 67.7 29.3 93.3 3.7 93.3 0.5 96.5 32.5 96.5 32.5 64.5 29.3 67.7"/><polygon class="cls-6" points="0.5 64.5 0.5 96.5 3.7 93.3 3.7 67.7 29.3 67.7 32.5 64.5 0.5 64.5"/></g></g><rect class="cls-7" x="0.5" y="64.5" width="32" height="32"/><rect class="cls-2" x="0.5" y="0.5" width="32" height="32"/><g class="cls-11"><g class="cls-4"><polygon class="cls-5" points="29.3 3.7 29.3 29.3 3.7 29.3 0.5 32.5 32.5 32.5 32.5 0.5 29.3 3.7"/><polygon class="cls-6" points="0.5 0.5 0.5 32.5 3.7 29.3 3.7 3.7 29.3 3.7 32.5 0.5 0.5 0.5"/></g></g><rect class="cls-7" x="0.5" y="0.5" width="32" height="32"/><rect class="cls-2" x="96.5" y="0.5" width="32" height="32"/><g class="cls-12"><g class="cls-4"><polygon class="cls-5" points="125.3 3.7 125.3 29.3 99.7 29.3 96.5 32.5 128.5 32.5 128.5 0.5 125.3 3.7"/><polygon class="cls-6" points="96.5 0.5 96.5 32.5 99.7 29.3 99.7 3.7 125.3 3.7 128.5 0.5 96.5 0.5"/></g></g><rect class="cls-7" x="96.5" y="0.5" width="32" height="32"/><rect class="cls-2" x="64.5" y="32.5" width="32" height="32"/><g class="cls-13"><g class="cls-4"><polygon class="cls-5" points="93.3 35.7 93.3 61.3 67.7 61.3 64.5 64.5 96.5 64.5 96.5 32.5 93.3 35.7"/><polygon class="cls-6" points="64.5 32.5 64.5 64.5 67.7 61.3 67.7 35.7 93.3 35.7 96.5 32.5 64.5 32.5"/></g></g><rect class="cls-7" x="64.5" y="32.5" width="32" height="32"/><text class="cls-8" transform="translate(106.43 55.67)">1</text><polygon class="cls-5" points="79.57 37.5 78.85 38.09 71.51 43.39 79.57 49.27 79.57 37.5"/><rect class="cls-5" x="79.57" y="37.5" width="1.24" height="11.77"/><rect class="cls-14" x="74.92" y="55.78" width="10.54" height="1.86"/><rect class="cls-14" x="71.51" y="57.64" width="17.97" height="1.86"/><rect class="cls-14" x="79.57" y="49.27" width="1.24" height="7.13"/></g></g></svg>