<?xml version="1.0" encoding="utf-8"?>
<!-- Generator: Adobe Illustrator 23.0.1, SVG Export Plug-In . SVG Version: 6.00 Build 0)  -->
<svg version="1.1" id="Warstwa_1" xmlns="http://www.w3.org/2000/svg" xmlns:xlink="http://www.w3.org/1999/xlink" x="0px" y="0px"
	 viewBox="0 0 407.6 161" style="enable-background:new 0 0 407.6 161;" xml:space="preserve">
<style type="text/css">
	.st0{clip-path:url(#XMLID_2_);}
	.st1{enable-background:new    ;}
	.st2{fill:#000099;}
	.st3{fill:#0000FF;}
	.st4{clip-path:url(#XMLID_3_);}
	.st5{clip-path:url(#XMLID_4_);}
	.st6{clip-path:url(#XMLID_5_);}
	.st7{clip-path:url(#XMLID_6_);}
	.st8{clip-path:url(#XMLID_7_);}
	.st9{clip-path:url(#XMLID_8_);}
	.st10{clip-path:url(#XMLID_9_);}
	.st11{fill:#111111;}
	.st12{clip-path:url(#XMLID_10_);}
	.st13{clip-path:url(#XMLID_11_);}
	.st14{clip-path:url(#XMLID_12_);}
	.st15{clip-path:url(#XMLID_13_);}
	.st16{clip-path:url(#XMLID_14_);}
	.st17{clip-path:url(#XMLID_15_);}
	.st18{clip-path:url(#XMLID_16_);}
	.st19{fill:#990033;}
	.st20{fill:#050505;}
	.st21{clip-path:url(#XMLID_17_);}
	.st22{clip-path:url(#XMLID_18_);}
</style>
<g>
	<g>
		<defs>
			<rect id="XMLID_462_" x="375.1" y="96.5" width="32" height="32"/>
		</defs>
		<use xlink:href="#XMLID_462_"  style="overflow:visible;fill:#0000CC;"/>
		<clipPath id="XMLID_2_">
			<use xlink:href="#XMLID_462_"  style="overflow:visible;"/>
		</clipPath>
		<g class="st0">
			<g class="st1">
				<polygon class="st2" points="403.9,99.7 407.1,96.5 407.1,128.5 403.9,125.3 				"/>
				<polygon class="st2" points="403.9,125.3 407.1,128.5 375.1,128.5 378.3,125.3 				"/>
				<polygon class="st3" points="375.1,96.5 375.1,128.5 378.3,125.3 378.3,99.7 403.9,99.7 407.1,96.5 				"/>
			</g>
		</g>
		<use xlink:href="#XMLID_462_"  style="overflow:visible;fill:none;stroke:#000000;stroke-miterlimit:10;"/>
	</g>
	<g>
		<defs>
			<rect id="XMLID_461_" x="343.1" y="128.5" width="32" height="32"/>
		</defs>
		<use xlink:href="#XMLID_461_"  style="overflow:visible;fill:#0000CC;"/>
		<clipPath id="XMLID_3_">
			<use xlink:href="#XMLID_461_"  style="overflow:visible;"/>
		</clipPath>
		<g class="st4">
			<g class="st1">
				<polygon class="st2" points="371.9,131.7 375.1,128.5 375.1,160.5 371.9,157.3 				"/>
				<polygon class="st2" points="371.9,157.3 375.1,160.5 343.1,160.5 346.3,157.3 				"/>
				<polygon class="st3" points="343.1,128.5 343.1,160.5 346.3,157.3 346.3,131.7 371.9,131.7 375.1,128.5 				"/>
			</g>
		</g>
		<use xlink:href="#XMLID_461_"  style="overflow:visible;fill:none;stroke:#000000;stroke-miterlimit:10;"/>
	</g>
	<g>
		<defs>
			<rect id="XMLID_460_" x="375.1" y="128.5" width="32" height="32"/>
		</defs>
		<use xlink:href="#XMLID_460_"  style="overflow:visible;fill:#0000CC;"/>
		<clipPath id="XMLID_4_">
			<use xlink:href="#XMLID_460_"  style="overflow:visible;"/>
		</clipPath>
		<g class="st5">
			<g class="st1">
				<polygon class="st2" points="403.9,131.7 407.1,128.5 407.1,160.5 403.9,157.3 				"/>
				<polygon class="st2" points="403.9,157.3 407.1,160.5 375.1,160.5 378.3,157.3 				"/>
				<polygon class="st3" points="375.1,128.5 375.1,160.5 378.3,157.3 378.3,131.7 403.9,131.7 407.1,128.5 				"/>
			</g>
		</g>
		<use xlink:href="#XMLID_460_"  style="overflow:visible;fill:none;stroke:#000000;stroke-miterlimit:10;"/>
	</g>
	<g>
		<defs>
			<rect id="XMLID_459_" x="55.2" y="96.5" width="32" height="32"/>
		</defs>
		<use xlink:href="#XMLID_459_"  style="overflow:visible;fill:#0000CC;"/>
		<clipPath id="XMLID_5_">
			<use xlink:href="#XMLID_459_"  style="overflow:visible;"/>
		</clipPath>
		<g class="st6">
			<g class="st1">
				<polygon class="st2" points="84,99.7 84,125.3 58.4,125.3 55.2,128.5 87.2,128.5 87.2,96.5 				"/>
				<polygon class="st3" points="55.2,96.5 55.2,128.5 58.4,125.3 58.4,99.7 84,99.7 87.2,96.5 				"/>
			</g>
		</g>
		<use xlink:href="#XMLID_459_"  style="overflow:visible;fill:none;stroke:#000000;stroke-miterlimit:10;"/>
	</g>
	<g>
		<defs>
			<rect id="XMLID_458_" x="247.1" y="128.5" width="32" height="32"/>
		</defs>
		<use xlink:href="#XMLID_458_"  style="overflow:visible;fill:#0000CC;"/>
		<clipPath id="XMLID_6_">
			<use xlink:href="#XMLID_458_"  style="overflow:visible;"/>
		</clipPath>
		<g class="st7">
			<g class="st1">
				<polygon class="st2" points="275.9,131.7 279.1,128.5 279.1,160.5 275.9,157.3 				"/>
				<polygon class="st2" points="275.9,157.3 279.1,160.5 247.1,160.5 250.3,157.3 				"/>
				<polygon class="st3" points="247.1,128.5 247.1,160.5 250.3,157.3 250.3,131.7 275.9,131.7 279.1,128.5 				"/>
			</g>
		</g>
		<use xlink:href="#XMLID_458_"  style="overflow:visible;fill:none;stroke:#000000;stroke-miterlimit:10;"/>
	</g>
	<g>
		<defs>
			<rect id="XMLID_457_" x="311.1" y="64.6" width="32" height="32"/>
		</defs>
		<use xlink:href="#XMLID_457_"  style="overflow:visible;fill:#0000CC;"/>
		<clipPath id="XMLID_7_">
			<use xlink:href="#XMLID_457_"  style="overflow:visible;"/>
		</clipPath>
		<g class="st8">
			<g class="st1">
				<polygon class="st2" points="339.9,67.8 339.9,93.4 314.3,93.4 311.1,96.6 343.1,96.6 343.1,64.6 				"/>
				<polygon class="st3" points="311.1,64.6 311.1,96.6 314.3,93.4 314.3,67.8 339.9,67.8 343.1,64.6 				"/>
			</g>
		</g>
		<use xlink:href="#XMLID_457_"  style="overflow:visible;fill:none;stroke:#000000;stroke-miterlimit:10;"/>
	</g>
	<g>
		<defs>
			<rect id="XMLID_455_" x="23.2" y="128.5" width="32" height="32"/>
		</defs>
		<use xlink:href="#XMLID_455_"  style="overflow:visible;fill:#0000CC;"/>
		<clipPath id="XMLID_8_">
			<use xlink:href="#XMLID_455_"  style="overflow:visible;"/>
		</clipPath>
		<g class="st9">
			<g class="st1">
				<polygon class="st2" points="52,131.7 52,157.3 26.4,157.3 23.2,160.5 55.2,160.5 55.2,128.5 				"/>
				<polygon class="st3" points="23.2,128.5 23.2,160.5 26.4,157.3 26.4,131.7 52,131.7 55.2,128.5 				"/>
			</g>
		</g>
		<use xlink:href="#XMLID_455_"  style="overflow:visible;fill:none;stroke:#000000;stroke-miterlimit:10;"/>
	</g>
	<g>
		<defs>
			<rect id="XMLID_454_" x="311.1" y="128.5" width="32" height="32"/>
		</defs>
		<use xlink:href="#XMLID_454_"  style="overflow:visible;fill:#0000CC;"/>
		<clipPath id="XMLID_9_">
			<use xlink:href="#XMLID_454_"  style="overflow:visible;"/>
		</clipPath>
		<g class="st10">
			<g class="st1">
				<polygon class="st2" points="339.9,131.7 343.1,128.5 343.1,160.5 339.9,157.3 				"/>
				<polygon class="st2" points="339.9,157.3 343.1,160.5 311.1,160.5 314.3,157.3 				"/>
				<polygon class="st3" points="311.1,128.5 311.1,160.5 314.3,157.3 314.3,131.7 339.9,131.7 343.1,128.5 				"/>
			</g>
		</g>
		<use xlink:href="#XMLID_454_"  style="overflow:visible;fill:none;stroke:#000000;stroke-miterlimit:10;"/>
	</g>
	<g>
		<path class="st11" d="M259.2,115.6c1.7-1.6,2.9-2.8,3.6-3.6c0.7-0.8,1.3-1.5,1.7-2.1c0.4-0.7,0.6-1.3,0.6-2c0-0.5-0.2-1-0.5-1.3
			s-0.8-0.5-1.4-0.5c-0.4,0-0.7,0-1,0.1c-0.3,0.1-0.6,0.2-0.8,0.3s-0.4,0.2-0.4,0.3c-0.3,0.5-0.4,0.8-0.4,0.8c0,0,0,0,0,0
			c0,0,0,0,0.1,0c0,0,0.1,0,0.1,0c0,0,0,0,0,0l-0.1,0.2l-0.2-0.1l-1.5-1.2c0.5-0.8,1.1-1.4,1.8-1.9c0.7-0.4,1.5-0.6,2.4-0.6
			c0.8,0,1.5,0.2,2.1,0.5c0.6,0.3,1.1,0.8,1.4,1.3c0.3,0.6,0.5,1.2,0.5,2c0,0.7-0.2,1.4-0.5,2.1c-0.3,0.7-0.8,1.3-1.4,2
			s-1.4,1.5-2.5,2.6l-0.8,0.8h4.2c0.2,0,0.4,0,0.5,0c0.1,0,0.2-0.1,0.3-0.1h0.2v2.1h-8V115.6z"/>
	</g>
	<g>
		<path class="st11" d="M292.9,150c1.7-1.6,2.9-2.8,3.6-3.6c0.7-0.8,1.3-1.5,1.7-2.1s0.6-1.3,0.6-2c0-0.5-0.2-1-0.5-1.3
			c-0.3-0.3-0.8-0.5-1.4-0.5c-0.4,0-0.7,0-1,0.1c-0.3,0.1-0.6,0.2-0.8,0.3c-0.2,0.1-0.4,0.2-0.4,0.3c-0.3,0.5-0.4,0.8-0.4,0.8
			c0,0,0,0,0,0c0,0,0,0,0.1,0c0,0,0.1,0,0.1,0s0,0,0,0l-0.1,0.2l-0.2-0.1l-1.5-1.2c0.5-0.8,1.1-1.4,1.8-1.9s1.5-0.6,2.4-0.6
			c0.8,0,1.5,0.2,2.1,0.5c0.6,0.3,1.1,0.8,1.4,1.3c0.3,0.6,0.5,1.2,0.5,2c0,0.7-0.2,1.4-0.5,2.1s-0.8,1.3-1.4,2
			c-0.6,0.6-1.4,1.5-2.5,2.6l-0.8,0.8h4.2c0.2,0,0.4,0,0.5,0c0.1,0,0.2-0.1,0.3-0.1h0.2v2.1h-8V150z"/>
	</g>
	<g>
		<path class="st11" d="M66.3,150c1.7-1.6,2.9-2.8,3.6-3.6c0.7-0.8,1.3-1.5,1.7-2.1c0.4-0.7,0.6-1.3,0.6-2c0-0.5-0.2-1-0.5-1.3
			c-0.3-0.3-0.8-0.5-1.4-0.5c-0.4,0-0.7,0-1,0.1c-0.3,0.1-0.6,0.2-0.8,0.3s-0.4,0.2-0.4,0.3c-0.3,0.5-0.4,0.8-0.4,0.8c0,0,0,0,0,0
			c0,0,0,0,0.1,0c0,0,0.1,0,0.1,0c0,0,0,0,0,0l-0.1,0.2l-0.2-0.1l-1.5-1.2c0.5-0.8,1.1-1.4,1.8-1.9c0.7-0.4,1.5-0.6,2.4-0.6
			c0.8,0,1.5,0.2,2.1,0.5c0.6,0.3,1.1,0.8,1.4,1.3c0.3,0.6,0.5,1.2,0.5,2c0,0.7-0.2,1.4-0.5,2.1s-0.8,1.3-1.4,2
			c-0.6,0.6-1.4,1.5-2.5,2.6l-0.8,0.8h4.2c0.2,0,0.4,0,0.5,0c0.1,0,0.2-0.1,0.3-0.1h0.2v2.1h-8V150z"/>
	</g>
	<g>
		<path class="st11" d="M2.8,151.7v-10.3L0.6,142L0,140.6l3.5-1.9h1.6v13H2.8z"/>
	</g>
	<g>
		<path class="st11" d="M386.6,51.6c1.7-1.6,2.9-2.8,3.6-3.6c0.7-0.8,1.3-1.5,1.7-2.1c0.4-0.7,0.6-1.3,0.6-2c0-0.5-0.2-1-0.5-1.3
			s-0.8-0.5-1.4-0.5c-0.4,0-0.7,0-1,0.1c-0.3,0.1-0.6,0.2-0.8,0.3s-0.4,0.2-0.4,0.3c-0.3,0.5-0.4,0.8-0.4,0.8c0,0,0,0,0,0
			c0,0,0,0,0.1,0c0,0,0.1,0,0.1,0c0,0,0,0,0,0l-0.1,0.2l-0.2-0.1l-1.5-1.2c0.5-0.8,1.1-1.4,1.8-1.9c0.7-0.4,1.5-0.6,2.4-0.6
			c0.8,0,1.5,0.2,2.1,0.5c0.6,0.3,1.1,0.8,1.4,1.3c0.3,0.6,0.5,1.2,0.5,2c0,0.7-0.2,1.4-0.5,2.1c-0.3,0.7-0.8,1.3-1.4,2
			s-1.4,1.5-2.5,2.6l-0.8,0.8h4.2c0.2,0,0.4,0,0.5,0c0.1,0,0.2-0.1,0.3-0.1h0.2v2.1h-8V51.6z"/>
	</g>
	<g>
		<defs>
			<rect id="XMLID_453_" x="375.1" y="64.5" width="32" height="32"/>
		</defs>
		<use xlink:href="#XMLID_453_"  style="overflow:visible;fill:#0000CC;"/>
		<clipPath id="XMLID_10_">
			<use xlink:href="#XMLID_453_"  style="overflow:visible;"/>
		</clipPath>
		<g class="st12">
			<g class="st1">
				<polygon class="st2" points="403.9,67.7 407.1,64.5 407.1,96.5 403.9,93.3 				"/>
				<polygon class="st2" points="403.9,93.3 407.1,96.5 375.1,96.5 378.3,93.3 				"/>
				<polygon class="st3" points="375.1,64.5 375.1,96.5 378.3,93.3 378.3,67.7 403.9,67.7 407.1,64.5 				"/>
			</g>
		</g>
		<use xlink:href="#XMLID_453_"  style="overflow:visible;fill:none;stroke:#000000;stroke-miterlimit:10;"/>
	</g>
	<g>
		<defs>
			<rect id="XMLID_452_" x="215.1" y="96.5" width="32" height="32"/>
		</defs>
		<use xlink:href="#XMLID_452_"  style="overflow:visible;fill:#0000CC;"/>
		<clipPath id="XMLID_11_">
			<use xlink:href="#XMLID_452_"  style="overflow:visible;"/>
		</clipPath>
		<g class="st13">
			<g class="st1">
				<polygon class="st2" points="243.9,99.7 247.1,96.5 247.1,128.5 243.9,125.3 				"/>
				<polygon class="st2" points="243.9,125.3 247.1,128.5 215.1,128.5 218.3,125.3 				"/>
				<polygon class="st3" points="215.1,96.5 215.1,128.5 218.3,125.3 218.3,99.7 243.9,99.7 247.1,96.5 				"/>
			</g>
		</g>
		<use xlink:href="#XMLID_452_"  style="overflow:visible;fill:none;stroke:#000000;stroke-miterlimit:10;"/>
	</g>
	<g>
		<defs>
			<rect id="XMLID_451_" x="215.1" y="128.5" width="32" height="32"/>
		</defs>
		<use xlink:href="#XMLID_451_"  style="overflow:visible;fill:#0000CC;"/>
		<clipPath id="XMLID_12_">
			<use xlink:href="#XMLID_451_"  style="overflow:visible;"/>
		</clipPath>
		<g class="st14">
			<g class="st1">
				<polygon class="st2" points="243.9,131.7 247.1,128.5 247.1,160.5 243.9,157.3 				"/>
				<polygon class="st2" points="243.9,157.3 247.1,160.5 215.1,160.5 218.3,157.3 				"/>
				<polygon class="st3" points="215.1,128.5 215.1,160.5 218.3,157.3 218.3,131.7 243.9,131.7 247.1,128.5 				"/>
			</g>
		</g>
		<use xlink:href="#XMLID_451_"  style="overflow:visible;fill:none;stroke:#000000;stroke-miterlimit:10;"/>
	</g>
	<g>
		<defs>
			<rect id="XMLID_450_" x="119.1" y="128.5" width="32" height="32"/>
		</defs>
		<use xlink:href="#XMLID_450_"  style="overflow:visible;fill:#0000CC;"/>
		<clipPath id="XMLID_13_">
			<use xlink:href="#XMLID_450_"  style="overflow:visible;"/>
		</clipPath>
		<g class="st15">
			<g class="st1">
				<polygon class="st2" points="147.9,131.7 151.1,128.5 151.1,160.5 147.9,157.3 				"/>
				<polygon class="st2" points="147.9,157.3 151.1,160.5 119.1,160.5 122.3,157.3 				"/>
				<polygon class="st3" points="119.1,128.5 119.1,160.5 122.3,157.3 122.3,131.7 147.9,131.7 151.1,128.5 				"/>
			</g>
		</g>
		<use xlink:href="#XMLID_450_"  style="overflow:visible;fill:none;stroke:#000000;stroke-miterlimit:10;"/>
	</g>
	<g>
		<defs>
			<rect id="XMLID_449_" x="87.1" y="128.5" width="32" height="32"/>
		</defs>
		<use xlink:href="#XMLID_449_"  style="overflow:visible;fill:#0000CC;"/>
		<clipPath id="XMLID_14_">
			<use xlink:href="#XMLID_449_"  style="overflow:visible;"/>
		</clipPath>
		<g class="st16">
			<g class="st1">
				<polygon class="st2" points="115.9,131.7 119.1,128.5 119.1,160.5 115.9,157.3 				"/>
				<polygon class="st2" points="115.9,157.3 119.1,160.5 87.1,160.5 90.3,157.3 				"/>
				<polygon class="st3" points="87.1,128.5 87.1,160.5 90.3,157.3 90.3,131.7 115.9,131.7 119.1,128.5 				"/>
			</g>
		</g>
		<use xlink:href="#XMLID_449_"  style="overflow:visible;fill:none;stroke:#000000;stroke-miterlimit:10;"/>
	</g>
	<g>
		<defs>
			<rect id="XMLID_445_" x="87.1" y="96.5" width="32" height="32"/>
		</defs>
		<use xlink:href="#XMLID_445_"  style="overflow:visible;fill:#0000CC;"/>
		<clipPath id="XMLID_15_">
			<use xlink:href="#XMLID_445_"  style="overflow:visible;"/>
		</clipPath>
		<g class="st17">
			<g class="st1">
				<polygon class="st2" points="115.9,99.7 119.1,96.5 119.1,128.5 115.9,125.3 				"/>
				<polygon class="st2" points="115.9,125.3 119.1,128.5 87.1,128.5 90.3,125.3 				"/>
				<polygon class="st3" points="87.1,96.5 87.1,128.5 90.3,125.3 90.3,99.7 115.9,99.7 119.1,96.5 				"/>
			</g>
		</g>
		<use xlink:href="#XMLID_445_"  style="overflow:visible;fill:none;stroke:#000000;stroke-miterlimit:10;"/>
	</g>
	<g>
		<defs>
			<rect id="XMLID_444_" x="151.1" y="128.5" width="32" height="32"/>
		</defs>
		<use xlink:href="#XMLID_444_"  style="overflow:visible;fill:#0000CC;"/>
		<clipPath id="XMLID_16_">
			<use xlink:href="#XMLID_444_"  style="overflow:visible;"/>
		</clipPath>
		<g class="st18">
			<g class="st1">
				<polygon class="st2" points="179.9,131.7 183.1,128.5 183.1,160.5 179.9,157.3 				"/>
				<polygon class="st2" points="179.9,157.3 183.1,160.5 151.1,160.5 154.3,157.3 				"/>
				<polygon class="st3" points="151.1,128.5 151.1,160.5 154.3,157.3 154.3,131.7 179.9,131.7 183.1,128.5 				"/>
			</g>
		</g>
		<use xlink:href="#XMLID_444_"  style="overflow:visible;fill:none;stroke:#000000;stroke-miterlimit:10;"/>
	</g>
	<g>
		<polygon class="st19" points="38.3,133.5 37.5,134.1 30.2,139.4 38.3,145.3 		"/>
		<rect x="38.3" y="133.5" class="st19" width="1.2" height="11.8"/>
		<rect x="33.6" y="151.8" class="st20" width="10.5" height="1.9"/>
		<rect x="30.2" y="153.6" class="st20" width="18" height="1.9"/>
		<rect x="38.3" y="145.3" class="st20" width="1.2" height="7.1"/>
	</g>
	<g>
		<polygon class="st19" points="390.2,69.5 389.5,70.1 382.2,75.4 390.2,81.3 		"/>
		<rect x="390.2" y="69.5" class="st19" width="1.2" height="11.8"/>
		<rect x="385.6" y="87.8" class="st20" width="10.5" height="1.9"/>
		<rect x="382.2" y="89.6" class="st20" width="18" height="1.9"/>
		<rect x="390.2" y="81.3" class="st20" width="1.2" height="7.1"/>
	</g>
	<g>
		<g>
			<defs>
				<rect id="XMLID_443_" x="343.1" y="96.5" width="32" height="32"/>
			</defs>
			<use xlink:href="#XMLID_443_"  style="overflow:visible;fill:#0000CC;"/>
			<clipPath id="XMLID_17_">
				<use xlink:href="#XMLID_443_"  style="overflow:visible;"/>
			</clipPath>
			<g class="st21">
				<g class="st1">
					<polygon class="st2" points="371.9,99.7 375.1,96.5 375.1,128.5 371.9,125.3 					"/>
					<polygon class="st2" points="371.9,125.3 375.1,128.5 343.1,128.5 346.3,125.3 					"/>
					<polygon class="st3" points="343.1,96.5 343.1,128.5 346.3,125.3 346.3,99.7 371.9,99.7 375.1,96.5 					"/>
				</g>
			</g>
			<use xlink:href="#XMLID_443_"  style="overflow:visible;fill:none;stroke:#000000;stroke-miterlimit:10;"/>
		</g>
		<g>
			<polygon class="st19" points="358.2,101.5 357.5,102.1 350.2,107.4 358.2,113.3 			"/>
			<rect x="358.2" y="101.5" class="st19" width="1.2" height="11.8"/>
			<rect x="353.6" y="119.8" class="st20" width="10.5" height="1.9"/>
			<rect x="350.2" y="121.6" class="st20" width="18" height="1.9"/>
			<rect x="358.2" y="113.3" class="st20" width="1.2" height="7.1"/>
		</g>
	</g>
	<g>
		<defs>
			<rect id="XMLID_442_" x="375.1" y="0.5" width="32" height="32"/>
		</defs>
		<use xlink:href="#XMLID_442_"  style="overflow:visible;fill:#0000CC;"/>
		<clipPath id="XMLID_18_">
			<use xlink:href="#XMLID_442_"  style="overflow:visible;"/>
		</clipPath>
		<g class="st22">
			<g class="st1">
				<polygon class="st2" points="403.9,3.7 407.1,0.5 407.1,32.5 403.9,29.3 				"/>
				<polygon class="st2" points="403.9,29.3 407.1,32.5 375.1,32.5 378.3,29.3 				"/>
				<polygon class="st3" points="375.1,0.5 375.1,32.5 378.3,29.3 378.3,3.7 403.9,3.7 407.1,0.5 				"/>
			</g>
		</g>
		<use xlink:href="#XMLID_442_"  style="overflow:visible;fill:none;stroke:#000000;stroke-miterlimit:10;"/>
	</g>
</g>
</svg>
