<?xml version="1.0" encoding="utf-8"?>
<!-- Generator: Adobe Illustrator 23.0.1, SVG Export Plug-In . SVG Version: 6.00 Build 0)  -->
<svg version="1.1" id="Warstwa_1" xmlns="http://www.w3.org/2000/svg" xmlns:xlink="http://www.w3.org/1999/xlink" x="0px" y="0px"
	 viewBox="0 0 65 97" style="enable-background:new 0 0 65 97;" xml:space="preserve">
<style type="text/css">
	.st0{clip-path:url(#XMLID_2_);}
	.st1{enable-background:new    ;}
	.st2{fill:#000099;}
	.st3{fill:#0000FF;}
	.st4{fill:#111111;}
	.st5{clip-path:url(#XMLID_3_);}
	.st6{clip-path:url(#XMLID_4_);}
	.st7{clip-path:url(#XMLID_5_);}
	.st8{fill:#990033;}
	.st9{fill:#050505;}
</style>
<g>
	<g>
		<defs>
			<rect id="XMLID_456_" x="0.5" y="0.5" width="32" height="32"/>
		</defs>
		<use xlink:href="#XMLID_456_"  style="overflow:visible;fill:#0000CC;"/>
		<clipPath id="XMLID_2_">
			<use xlink:href="#XMLID_456_"  style="overflow:visible;"/>
		</clipPath>
		<g class="st0">
			<g class="st1">
				<polygon class="st2" points="29.3,3.7 32.5,0.5 32.5,32.5 29.3,29.3 				"/>
				<polygon class="st2" points="29.3,29.3 32.5,32.5 0.5,32.5 3.7,29.3 				"/>
				<polygon class="st3" points="0.5,0.5 0.5,32.5 3.7,29.3 3.7,3.7 29.3,3.7 32.5,0.5 				"/>
			</g>
		</g>
		<use xlink:href="#XMLID_456_"  style="overflow:visible;fill:none;stroke:#000000;stroke-miterlimit:10;"/>
	</g>
	<g>
		<path class="st4" d="M45,57.3V47l-2.2,0.7l-0.6-1.4l3.5-1.9h1.6v13H45z"/>
	</g>
	<g>
		<defs>
			<rect id="XMLID_448_" x="32.5" y="64.5" width="32" height="32"/>
		</defs>
		<use xlink:href="#XMLID_448_"  style="overflow:visible;fill:#0000CC;"/>
		<clipPath id="XMLID_3_">
			<use xlink:href="#XMLID_448_"  style="overflow:visible;"/>
		</clipPath>
		<g class="st5">
			<g class="st1">
				<polygon class="st2" points="61.3,67.7 64.5,64.5 64.5,96.5 61.3,93.3 				"/>
				<polygon class="st2" points="61.3,93.3 64.5,96.5 32.5,96.5 35.7,93.3 				"/>
				<polygon class="st3" points="32.5,64.5 32.5,96.5 35.7,93.3 35.7,67.7 61.3,67.7 64.5,64.5 				"/>
			</g>
		</g>
		<use xlink:href="#XMLID_448_"  style="overflow:visible;fill:none;stroke:#000000;stroke-miterlimit:10;"/>
	</g>
	<g>
		<defs>
			<rect id="XMLID_447_" x="0.5" y="64.5" width="32" height="32"/>
		</defs>
		<use xlink:href="#XMLID_447_"  style="overflow:visible;fill:#0000CC;"/>
		<clipPath id="XMLID_4_">
			<use xlink:href="#XMLID_447_"  style="overflow:visible;"/>
		</clipPath>
		<g class="st6">
			<g class="st1">
				<polygon class="st2" points="29.3,67.7 32.5,64.5 32.5,96.5 29.3,93.3 				"/>
				<polygon class="st2" points="29.3,93.3 32.5,96.5 0.5,96.5 3.7,93.3 				"/>
				<polygon class="st3" points="0.5,64.5 0.5,96.5 3.7,93.3 3.7,67.7 29.3,67.7 32.5,64.5 				"/>
			</g>
		</g>
		<use xlink:href="#XMLID_447_"  style="overflow:visible;fill:none;stroke:#000000;stroke-miterlimit:10;"/>
	</g>
	<g>
		<defs>
			<rect id="XMLID_446_" x="0.5" y="32.5" width="32" height="32"/>
		</defs>
		<use xlink:href="#XMLID_446_"  style="overflow:visible;fill:#0000CC;"/>
		<clipPath id="XMLID_5_">
			<use xlink:href="#XMLID_446_"  style="overflow:visible;"/>
		</clipPath>
		<g class="st7">
			<g class="st1">
				<polygon class="st2" points="29.3,35.7 32.5,32.5 32.5,64.5 29.3,61.3 				"/>
				<polygon class="st2" points="29.3,61.3 32.5,64.5 0.5,64.5 3.7,61.3 				"/>
				<polygon class="st3" points="0.5,32.5 0.5,64.5 3.7,61.3 3.7,35.7 29.3,35.7 32.5,32.5 				"/>
			</g>
		</g>
		<use xlink:href="#XMLID_446_"  style="overflow:visible;fill:none;stroke:#000000;stroke-miterlimit:10;"/>
	</g>
	<g>
		<polygon class="st8" points="15.6,37.5 14.9,38.1 7.5,43.4 15.6,49.3 		"/>
		<rect x="15.6" y="37.5" class="st8" width="1.2" height="11.8"/>
		<rect x="10.9" y="55.8" class="st9" width="10.5" height="1.9"/>
		<rect x="7.5" y="57.6" class="st9" width="18" height="1.9"/>
		<rect x="15.6" y="49.3" class="st9" width="1.2" height="7.1"/>
	</g>
</g>
</svg>
