<?xml version="1.0" encoding="utf-8"?>
<!-- Generator: Adobe Illustrator 16.0.0, SVG Export Plug-In . SVG Version: 6.00 Build 0)  -->
<!DOCTYPE svg PUBLIC "-//W3C//DTD SVG 1.1//EN" "http://www.w3.org/Graphics/SVG/1.1/DTD/svg11.dtd" [
	<!ENTITY ns_extend "http://ns.adobe.com/Extensibility/1.0/">
	<!ENTITY ns_ai "http://ns.adobe.com/AdobeIllustrator/10.0/">
	<!ENTITY ns_graphs "http://ns.adobe.com/Graphs/1.0/">
	<!ENTITY ns_vars "http://ns.adobe.com/Variables/1.0/">
	<!ENTITY ns_imrep "http://ns.adobe.com/ImageReplacement/1.0/">
	<!ENTITY ns_sfw "http://ns.adobe.com/SaveForWeb/1.0/">
	<!ENTITY ns_custom "http://ns.adobe.com/GenericCustomNamespace/1.0/">
	<!ENTITY ns_adobe_xpath "http://ns.adobe.com/XPath/1.0/">
]>
<svg version="1.1" id="Layer_1" xmlns:x="&ns_extend;" xmlns:i="&ns_ai;" xmlns:graph="&ns_graphs;"
	 xmlns="http://www.w3.org/2000/svg" xmlns:xlink="http://www.w3.org/1999/xlink" x="0px" y="0px" width="97px" height="160.501px"
	 viewBox="0 0 97 160.501" enable-background="new 0 0 97 160.501" xml:space="preserve">
<metadata>
	<sfw  xmlns="&ns_sfw;">
		<slices></slices>
		<sliceSourceBounds  width="97" height="160.501" x="14.702" y="1230.817" bottomLeftOrigin="true"></sliceSourceBounds>
	</sfw>
</metadata>
<rect x="0.5" y="32.001" fill="#0000CC" width="32" height="32"/>
<g>
	<defs>
		<rect id="SVGID_1_" x="0.499" y="32" width="32" height="32"/>
	</defs>
	<clipPath id="SVGID_2_">
		<use xlink:href="#SVGID_1_"  overflow="visible"/>
	</clipPath>
	<polygon clip-path="url(#SVGID_2_)" fill="#000099" points="29.298,35.201 32.498,32.001 32.498,63.998 29.298,60.798 	"/>
	<polygon clip-path="url(#SVGID_2_)" fill="#000099" points="29.298,60.797 32.498,63.998 0.5,63.998 3.701,60.797 	"/>
	<polygon clip-path="url(#SVGID_2_)" fill="#0000FF" points="0.501,32 0.501,63.998 3.701,60.798 3.701,35.201 29.298,35.201 
		32.498,32 	"/>
</g>
<rect x="0.5" y="32.001" fill="none" stroke="#000000" stroke-miterlimit="10" width="32" height="32"/>
<rect x="32.5" y="32.001" fill="#0000CC" width="32" height="32"/>
<g>
	<defs>
		<rect id="SVGID_3_" x="32.499" y="32" width="32" height="32"/>
	</defs>
	<clipPath id="SVGID_4_">
		<use xlink:href="#SVGID_3_"  overflow="visible"/>
	</clipPath>
	<polygon clip-path="url(#SVGID_4_)" fill="#000099" points="61.298,35.201 64.498,32.001 64.498,63.998 61.298,60.798 	"/>
	<polygon clip-path="url(#SVGID_4_)" fill="#000099" points="61.298,60.797 64.498,63.998 32.5,63.998 35.701,60.797 	"/>
	<polygon clip-path="url(#SVGID_4_)" fill="#0000FF" points="32.501,32 32.501,63.998 35.701,60.798 35.701,35.201 61.298,35.201 
		64.498,32 	"/>
</g>
<rect x="32.5" y="32.001" fill="none" stroke="#000000" stroke-miterlimit="10" width="32" height="32"/>
<rect x="32.5" y="64.001" fill="#0000CC" width="32" height="32"/>
<g>
	<defs>
		<rect id="SVGID_5_" x="32.499" y="64.001" width="32" height="32"/>
	</defs>
	<clipPath id="SVGID_6_">
		<use xlink:href="#SVGID_5_"  overflow="visible"/>
	</clipPath>
	<polygon clip-path="url(#SVGID_6_)" fill="#000099" points="61.298,67.201 64.498,64.001 64.498,95.998 61.298,92.798 	"/>
	<polygon clip-path="url(#SVGID_6_)" fill="#000099" points="61.298,92.797 64.498,95.998 32.5,95.998 35.701,92.797 	"/>
	<polygon clip-path="url(#SVGID_6_)" fill="#0000FF" points="32.501,64 32.501,95.998 35.701,92.798 35.701,67.201 61.298,67.201 
		64.498,64 	"/>
</g>
<rect x="32.5" y="64.001" fill="none" stroke="#000000" stroke-miterlimit="10" width="32" height="32"/>
<rect x="32.5" y="96.001" fill="#0000CC" width="32" height="32"/>
<g>
	<defs>
		<rect id="SVGID_7_" x="32.499" y="96.001" width="32" height="32"/>
	</defs>
	<clipPath id="SVGID_8_">
		<use xlink:href="#SVGID_7_"  overflow="visible"/>
	</clipPath>
	<polygon clip-path="url(#SVGID_8_)" fill="#000099" points="61.298,99.201 64.498,96.001 64.498,127.998 61.298,124.798 	"/>
	<polygon clip-path="url(#SVGID_8_)" fill="#000099" points="61.298,124.797 64.498,127.998 32.5,127.998 35.701,124.797 	"/>
	<polygon clip-path="url(#SVGID_8_)" fill="#0000FF" points="32.501,96 32.501,127.998 35.701,124.798 35.701,99.201 61.298,99.201 
		64.498,96 	"/>
</g>
<rect x="32.5" y="96.001" fill="none" stroke="#000000" stroke-miterlimit="10" width="32" height="32"/>
<rect x="32.5" y="128.001" fill="#0000CC" width="32" height="32"/>
<g>
	<defs>
		<rect id="SVGID_9_" x="32.499" y="128.001" width="32" height="32"/>
	</defs>
	<clipPath id="SVGID_10_">
		<use xlink:href="#SVGID_9_"  overflow="visible"/>
	</clipPath>
	<polygon clip-path="url(#SVGID_10_)" fill="#000099" points="61.298,131.201 64.498,128.001 64.498,159.998 61.298,156.798 	"/>
	<polygon clip-path="url(#SVGID_10_)" fill="#000099" points="61.298,156.797 64.498,159.998 32.5,159.998 35.701,156.797 	"/>
	<polygon clip-path="url(#SVGID_10_)" fill="#0000FF" points="32.501,128 32.501,159.998 35.701,156.798 35.701,131.201 
		61.298,131.201 64.498,128 	"/>
</g>
<rect x="32.5" y="128.001" fill="none" stroke="#000000" stroke-miterlimit="10" width="32" height="32"/>
<rect x="64.5" y="128.001" fill="#0000CC" width="32" height="32"/>
<g>
	<defs>
		<rect id="SVGID_11_" x="64.499" y="128.001" width="32" height="32"/>
	</defs>
	<clipPath id="SVGID_12_">
		<use xlink:href="#SVGID_11_"  overflow="visible"/>
	</clipPath>
	<polygon clip-path="url(#SVGID_12_)" fill="#000099" points="93.298,131.201 96.498,128.001 96.498,159.998 93.298,156.798 	"/>
	<polygon clip-path="url(#SVGID_12_)" fill="#000099" points="93.298,156.797 96.498,159.998 64.5,159.998 67.701,156.797 	"/>
	<polygon clip-path="url(#SVGID_12_)" fill="#0000FF" points="64.501,128 64.501,159.998 67.701,156.798 67.701,131.201 
		93.298,131.201 96.498,128 	"/>
</g>
<rect x="64.5" y="128.001" fill="none" stroke="#000000" stroke-miterlimit="10" width="32" height="32"/>
<rect x="0.5" y="128.001" fill="#0000CC" width="32" height="32"/>
<g>
	<defs>
		<rect id="SVGID_13_" x="0.499" y="128.001" width="32" height="32"/>
	</defs>
	<clipPath id="SVGID_14_">
		<use xlink:href="#SVGID_13_"  overflow="visible"/>
	</clipPath>
	<polygon clip-path="url(#SVGID_14_)" fill="#000099" points="29.298,131.201 32.498,128.001 32.498,159.998 29.298,156.798 	"/>
	<polygon clip-path="url(#SVGID_14_)" fill="#000099" points="29.298,156.797 32.498,159.998 0.5,159.998 3.701,156.797 	"/>
	<polygon clip-path="url(#SVGID_14_)" fill="#0000FF" points="0.501,128 0.501,159.998 3.701,156.798 3.701,131.201 29.298,131.201 
		32.498,128 	"/>
</g>
<rect x="0.5" y="128.001" fill="none" stroke="#000000" stroke-miterlimit="10" width="32" height="32"/>
<rect x="32.5" y="0.001" fill="#0000CC" width="32" height="32"/>
<g>
	<defs>
		<rect id="SVGID_15_" x="32.499" width="32" height="32"/>
	</defs>
	<clipPath id="SVGID_16_">
		<use xlink:href="#SVGID_15_"  overflow="visible"/>
	</clipPath>
	<polygon clip-path="url(#SVGID_16_)" fill="#000099" points="61.298,3.201 64.498,0.001 64.498,31.998 61.298,28.798 	"/>
	<polygon clip-path="url(#SVGID_16_)" fill="#000099" points="61.298,28.797 64.498,31.998 32.5,31.998 35.701,28.797 	"/>
	<polygon clip-path="url(#SVGID_16_)" fill="#0000FF" points="32.501,0 32.501,31.998 35.701,28.798 35.701,3.201 61.298,3.201 
		64.498,0 	"/>
</g>
<g>
	<path fill="#0000FF" d="M78.006,20.785v-8.93l-1.925,0.58l-0.483-1.23l3.041-1.635h1.345v11.215H78.006z"/>
</g>
<g>
	<path fill="#0000FF" d="M78.006,53.779v-8.93l-1.925,0.58l-0.483-1.23l3.041-1.635h1.345v11.215H78.006z"/>
</g>
<g>
	<path fill="#0000FF" d="M13.281,115.303c1.447-1.389,2.486-2.414,3.116-3.076s1.11-1.279,1.441-1.85s0.497-1.156,0.497-1.753
		c0-0.475-0.149-0.851-0.448-1.129s-0.7-0.417-1.204-0.417c-0.305,0-0.595,0.035-0.87,0.105s-0.507,0.155-0.694,0.255
		s-0.305,0.193-0.352,0.281c-0.234,0.422-0.352,0.653-0.352,0.694c0,0.006,0.003,0.009,0.009,0.009
		c0.012-0.006,0.029-0.018,0.053-0.035s0.045-0.029,0.066-0.035s0.034,0.006,0.04,0.035l-0.097,0.176l-0.141-0.079l-1.336-1.011
		c0.434-0.697,0.965-1.232,1.595-1.604s1.334-0.558,2.114-0.558c0.668,0,1.269,0.139,1.802,0.417s0.951,0.667,1.252,1.165
		s0.453,1.069,0.453,1.714c0,0.639-0.151,1.251-0.453,1.837s-0.697,1.154-1.187,1.705s-1.208,1.301-2.158,2.25l-0.721,0.712h3.665
		c0.193,0,0.335-0.01,0.426-0.031s0.171-0.063,0.242-0.127h0.202v1.828h-6.961V115.303z"/>
</g>
</svg>
