<svg xmlns="http://www.w3.org/2000/svg" xmlns:xlink="http://www.w3.org/1999/xlink" viewBox="0 0 97 193"><defs><style>.cls-1,.cls-2{fill:#00c;}.cls-1,.cls-7{stroke:#000;stroke-miterlimit:10;}.cls-3{clip-path:url(#clip-path);}.cls-4{isolation:isolate;}.cls-5{fill:#009;}.cls-6{fill:blue;}.cls-7{fill:none;}.cls-8{clip-path:url(#clip-path-2);}.cls-9{clip-path:url(#clip-path-3);}.cls-10{clip-path:url(#clip-path-4);}.cls-11{clip-path:url(#clip-path-5);}.cls-12{clip-path:url(#clip-path-6);}.cls-13{clip-path:url(#clip-path-7);}.cls-14{clip-path:url(#clip-path-8);}.cls-15{clip-path:url(#clip-path-9);}.cls-16{clip-path:url(#clip-path-10);}.cls-17{clip-path:url(#clip-path-11);}</style><clipPath id="clip-path"><rect id="_Prostokąt_" data-name="&lt;Prostokąt&gt;" class="cls-1" x="0.5" y="0.5" width="32" height="32"/></clipPath><clipPath id="clip-path-2"><rect id="_Prostokąt_2" data-name="&lt;Prostokąt&gt;" class="cls-1" x="0.5" y="32.5" width="32" height="32"/></clipPath><clipPath id="clip-path-3"><rect id="_Prostokąt_3" data-name="&lt;Prostokąt&gt;" class="cls-1" x="0.5" y="64.5" width="32" height="32"/></clipPath><clipPath id="clip-path-4"><rect id="_Prostokąt_4" data-name="&lt;Prostokąt&gt;" class="cls-1" x="32.5" y="96.5" width="32" height="32"/></clipPath><clipPath id="clip-path-5"><rect id="_Prostokąt_5" data-name="&lt;Prostokąt&gt;" class="cls-1" x="64.5" y="160.5" width="32" height="32"/></clipPath><clipPath id="clip-path-6"><rect id="_Prostokąt_6" data-name="&lt;Prostokąt&gt;" class="cls-1" x="64.5" y="128.5" width="32" height="32"/></clipPath><clipPath id="clip-path-7"><rect id="_Prostokąt_7" data-name="&lt;Prostokąt&gt;" class="cls-1" x="64.5" y="0.5" width="32" height="32"/></clipPath><clipPath id="clip-path-8"><rect id="_Prostokąt_8" data-name="&lt;Prostokąt&gt;" class="cls-1" x="64.5" y="96.5" width="32" height="32"/></clipPath><clipPath id="clip-path-9"><rect id="_Prostokąt_9" data-name="&lt;Prostokąt&gt;" class="cls-1" x="0.5" y="96.5" width="32" height="32"/></clipPath><clipPath id="clip-path-10"><rect id="_Prostokąt_10" data-name="&lt;Prostokąt&gt;" class="cls-1" x="64.5" y="32.5" width="32" height="32"/></clipPath><clipPath id="clip-path-11"><rect id="_Prostokąt_11" data-name="&lt;Prostokąt&gt;" class="cls-1" x="64.5" y="64.5" width="32" height="32"/></clipPath></defs><title>Zasób 24</title><g id="Warstwa_2" data-name="Warstwa 2"><g id="Long_Page_cz.1" data-name="Long Page cz.1"><rect id="_Prostokąt_12" data-name="&lt;Prostokąt&gt;" class="cls-2" x="0.5" y="0.5" width="32" height="32"/><g class="cls-3"><g class="cls-4"><polygon class="cls-5" points="29.3 3.7 32.5 0.5 32.5 32.5 29.3 29.3 29.3 3.7"/><polygon class="cls-5" points="29.3 29.3 32.5 32.5 0.5 32.5 3.7 29.3 29.3 29.3"/><polygon class="cls-6" points="0.5 0.5 0.5 32.5 3.7 29.3 3.7 3.7 29.3 3.7 32.5 0.5 0.5 0.5"/></g></g><rect id="_Prostokąt_13" data-name="&lt;Prostokąt&gt;" class="cls-7" x="0.5" y="0.5" width="32" height="32"/><rect id="_Prostokąt_14" data-name="&lt;Prostokąt&gt;" class="cls-2" x="0.5" y="32.5" width="32" height="32"/><g class="cls-8"><g class="cls-4"><polygon class="cls-5" points="29.3 35.7 32.5 32.5 32.5 64.5 29.3 61.3 29.3 35.7"/><polygon class="cls-5" points="29.3 61.3 32.5 64.5 0.5 64.5 3.7 61.3 29.3 61.3"/><polygon class="cls-6" points="0.5 32.5 0.5 64.5 3.7 61.3 3.7 35.7 29.3 35.7 32.5 32.5 0.5 32.5"/></g></g><rect id="_Prostokąt_15" data-name="&lt;Prostokąt&gt;" class="cls-7" x="0.5" y="32.5" width="32" height="32"/><rect id="_Prostokąt_16" data-name="&lt;Prostokąt&gt;" class="cls-2" x="0.5" y="64.5" width="32" height="32"/><g class="cls-9"><g class="cls-4"><polygon class="cls-5" points="29.3 67.7 32.5 64.5 32.5 96.5 29.3 93.3 29.3 67.7"/><polygon class="cls-5" points="29.3 93.3 32.5 96.5 0.5 96.5 3.7 93.3 29.3 93.3"/><polygon class="cls-6" points="0.5 64.5 0.5 96.5 3.7 93.3 3.7 67.7 29.3 67.7 32.5 64.5 0.5 64.5"/></g></g><rect id="_Prostokąt_17" data-name="&lt;Prostokąt&gt;" class="cls-7" x="0.5" y="64.5" width="32" height="32"/><rect id="_Prostokąt_18" data-name="&lt;Prostokąt&gt;" class="cls-2" x="32.5" y="96.5" width="32" height="32"/><g class="cls-10"><g class="cls-4"><polygon class="cls-5" points="61.3 99.7 64.5 96.5 64.5 128.5 61.3 125.3 61.3 99.7"/><polygon class="cls-5" points="61.3 125.3 64.5 128.5 32.5 128.5 35.7 125.3 61.3 125.3"/><polygon class="cls-6" points="32.5 96.5 32.5 128.5 35.7 125.3 35.7 99.7 61.3 99.7 64.5 96.5 32.5 96.5"/></g></g><rect id="_Prostokąt_19" data-name="&lt;Prostokąt&gt;" class="cls-7" x="32.5" y="96.5" width="32" height="32"/><rect id="_Prostokąt_20" data-name="&lt;Prostokąt&gt;" class="cls-2" x="64.5" y="160.5" width="32" height="32"/><g class="cls-11"><g class="cls-4"><polygon class="cls-5" points="93.3 163.7 96.5 160.5 96.5 192.5 93.3 189.3 93.3 163.7"/><polygon class="cls-5" points="93.3 189.3 96.5 192.5 64.5 192.5 67.7 189.3 93.3 189.3"/><polygon class="cls-6" points="64.5 160.5 64.5 192.5 67.7 189.3 67.7 163.7 93.3 163.7 96.5 160.5 64.5 160.5"/></g></g><rect id="_Prostokąt_21" data-name="&lt;Prostokąt&gt;" class="cls-7" x="64.5" y="160.5" width="32" height="32"/><rect id="_Prostokąt_22" data-name="&lt;Prostokąt&gt;" class="cls-2" x="64.5" y="128.5" width="32" height="32"/><g class="cls-12"><g class="cls-4"><polygon class="cls-5" points="93.3 131.7 96.5 128.5 96.5 160.5 93.3 157.3 93.3 131.7"/><polygon class="cls-5" points="93.3 157.3 96.5 160.5 64.5 160.5 67.7 157.3 93.3 157.3"/><polygon class="cls-6" points="64.5 128.5 64.5 160.5 67.7 157.3 67.7 131.7 93.3 131.7 96.5 128.5 64.5 128.5"/></g></g><rect id="_Prostokąt_23" data-name="&lt;Prostokąt&gt;" class="cls-7" x="64.5" y="128.5" width="32" height="32"/><rect id="_Prostokąt_24" data-name="&lt;Prostokąt&gt;" class="cls-2" x="64.5" y="0.5" width="32" height="32"/><g class="cls-13"><g class="cls-4"><polygon class="cls-5" points="93.3 3.7 96.5 0.5 96.5 32.5 93.3 29.3 93.3 3.7"/><polygon class="cls-5" points="93.3 29.3 96.5 32.5 64.5 32.5 67.7 29.3 93.3 29.3"/><polygon class="cls-6" points="64.5 0.5 64.5 32.5 67.7 29.3 67.7 3.7 93.3 3.7 96.5 0.5 64.5 0.5"/></g></g><rect id="_Prostokąt_25" data-name="&lt;Prostokąt&gt;" class="cls-7" x="64.5" y="0.5" width="32" height="32"/><rect id="_Prostokąt_26" data-name="&lt;Prostokąt&gt;" class="cls-2" x="64.5" y="96.5" width="32" height="32"/><g class="cls-14"><g class="cls-4"><polygon class="cls-5" points="93.3 99.7 96.5 96.5 96.5 128.5 93.3 125.3 93.3 99.7"/><polygon class="cls-5" points="93.3 125.3 96.5 128.5 64.5 128.5 67.7 125.3 93.3 125.3"/><polygon class="cls-6" points="64.5 96.5 64.5 128.5 67.7 125.3 67.7 99.7 93.3 99.7 96.5 96.5 64.5 96.5"/></g></g><rect id="_Prostokąt_27" data-name="&lt;Prostokąt&gt;" class="cls-7" x="64.5" y="96.5" width="32" height="32"/><rect id="_Prostokąt_28" data-name="&lt;Prostokąt&gt;" class="cls-2" x="0.5" y="96.5" width="32" height="32"/><g class="cls-15"><g class="cls-4"><polygon class="cls-5" points="29.3 99.7 32.5 96.5 32.5 128.5 29.3 125.3 29.3 99.7"/><polygon class="cls-5" points="29.3 125.3 32.5 128.5 0.5 128.5 3.7 125.3 29.3 125.3"/><polygon class="cls-6" points="0.5 96.5 0.5 128.5 3.7 125.3 3.7 99.7 29.3 99.7 32.5 96.5 0.5 96.5"/></g></g><rect id="_Prostokąt_29" data-name="&lt;Prostokąt&gt;" class="cls-7" x="0.5" y="96.5" width="32" height="32"/><rect id="_Prostokąt_30" data-name="&lt;Prostokąt&gt;" class="cls-2" x="64.5" y="32.5" width="32" height="32"/><g class="cls-16"><g class="cls-4"><polygon class="cls-5" points="93.3 35.7 96.5 32.5 96.5 64.5 93.3 61.3 93.3 35.7"/><polygon class="cls-5" points="93.3 61.3 96.5 64.5 64.5 64.5 67.7 61.3 93.3 61.3"/><polygon class="cls-6" points="64.5 32.5 64.5 64.5 67.7 61.3 67.7 35.7 93.3 35.7 96.5 32.5 64.5 32.5"/></g></g><rect id="_Prostokąt_31" data-name="&lt;Prostokąt&gt;" class="cls-7" x="64.5" y="32.5" width="32" height="32"/><rect id="_Prostokąt_32" data-name="&lt;Prostokąt&gt;" class="cls-2" x="64.5" y="64.5" width="32" height="32"/><g class="cls-17"><g class="cls-4"><polygon class="cls-5" points="93.3 67.7 96.5 64.5 96.5 96.5 93.3 93.3 93.3 67.7"/><polygon class="cls-5" points="93.3 93.3 96.5 96.5 64.5 96.5 67.7 93.3 93.3 93.3"/><polygon class="cls-6" points="64.5 64.5 64.5 96.5 67.7 93.3 67.7 67.7 93.3 67.7 96.5 64.5 64.5 64.5"/></g></g><rect id="_Prostokąt_33" data-name="&lt;Prostokąt&gt;" class="cls-7" x="64.5" y="64.5" width="32" height="32"/><path class="cls-6" d="M50.14,87.59V84.82H45.86V83.55l4.86-7.18h1.45v6.77h1.49v1.7H52.17v2.75Zm-2.2-4.4h2.27V79.84Z"/><path class="cls-6" d="M45.27,150.11c1.45-1.39,2.49-2.41,3.12-3.08a10.06,10.06,0,0,0,1.44-1.85,3.45,3.45,0,0,0,.5-1.75,1.48,1.48,0,0,0-.45-1.13,1.7,1.7,0,0,0-1.21-.42,3.58,3.58,0,0,0-.87.11,3.23,3.23,0,0,0-.69.25.91.91,0,0,0-.35.28,4.11,4.11,0,0,0-.35.7h0l0,0,.06,0s0,0,0,0l-.09.18-.14-.08-1.34-1a4.74,4.74,0,0,1,1.6-1.61,4.08,4.08,0,0,1,2.11-.55,3.91,3.91,0,0,1,1.8.41,3.13,3.13,0,0,1,1.25,1.17,3.17,3.17,0,0,1,.46,1.71,3.89,3.89,0,0,1-.46,1.84,8,8,0,0,1-1.18,1.7q-.73.84-2.16,2.25l-.72.72h3.66a2.17,2.17,0,0,0,.43,0,.56.56,0,0,0,.24-.13h.2v1.83h-7Z"/><path class="cls-6" d="M13.27,150.11c1.45-1.39,2.49-2.41,3.12-3.08a10.06,10.06,0,0,0,1.44-1.85,3.45,3.45,0,0,0,.5-1.75,1.48,1.48,0,0,0-.45-1.13,1.7,1.7,0,0,0-1.21-.42,3.58,3.58,0,0,0-.87.11,3.23,3.23,0,0,0-.69.25.91.91,0,0,0-.35.28,4.11,4.11,0,0,0-.35.7h0l.05,0,.06,0s0,0,0,0l-.09.18-.14-.08-1.34-1a4.74,4.74,0,0,1,1.6-1.61,4.08,4.08,0,0,1,2.11-.55,3.91,3.91,0,0,1,1.8.41,3.13,3.13,0,0,1,1.25,1.17,3.17,3.17,0,0,1,.46,1.71,3.89,3.89,0,0,1-.46,1.84,8,8,0,0,1-1.18,1.7q-.73.84-2.16,2.25l-.72.72h3.66a2.17,2.17,0,0,0,.43,0,.56.56,0,0,0,.24-.13h.2v1.83h-7Z"/></g></g></svg>