<?xml version="1.0" encoding="utf-8"?>
<!-- Generator: Adobe Illustrator 22.0.1, SVG Export Plug-In . SVG Version: 6.00 Build 0)  -->
<svg version="1.1" id="Warstwa_1" xmlns="http://www.w3.org/2000/svg" xmlns:xlink="http://www.w3.org/1999/xlink" x="0px" y="0px"
	 viewBox="0 0 436.2 284.2" style="enable-background:new 0 0 436.2 284.2;" xml:space="preserve">
<style type="text/css">
	.st0{fill:#0000CC;stroke:#000000;stroke-width:1.1111;stroke-miterlimit:10;}
	.st1{fill:#000099;}
	.st2{fill:#0000FF;}
</style>
<g>
	<rect x="19" y="20.2" class="st0" width="400" height="240"/>
	<polygon class="st1" points="407,32.1 407,248.2 31,248.2 19,260.1 419,260.1 419,20.2 	"/>
	<polygon class="st2" points="19,20.2 19,260.1 31,248.2 31,32.1 407,32.1 419,20.2 	"/>
</g>
<g>
	<path class="st2" d="M429.3,249.7c1.4-1.4,2.5-2.4,3.1-3.1s1.1-1.3,1.4-1.9c0.3-0.6,0.5-1.2,0.5-1.8c0-0.5-0.1-0.9-0.4-1.1
		c-0.3-0.3-0.7-0.4-1.2-0.4c-0.3,0-0.6,0-0.9,0.1s-0.5,0.2-0.7,0.3s-0.3,0.2-0.4,0.3c-0.2,0.4-0.4,0.7-0.4,0.7c0,0,0,0,0,0
		c0,0,0,0,0.1,0s0,0,0.1,0s0,0,0,0l-0.1,0.2l-0.1-0.1l-1.3-1c0.4-0.7,1-1.2,1.6-1.6c0.6-0.4,1.3-0.6,2.1-0.6c0.7,0,1.3,0.1,1.8,0.4
		c0.5,0.3,1,0.7,1.3,1.2s0.5,1.1,0.5,1.7c0,0.6-0.2,1.3-0.5,1.8s-0.7,1.2-1.2,1.7s-1.2,1.3-2.2,2.3l-0.7,0.7h3.7c0.2,0,0.3,0,0.4,0
		c0.1,0,0.2-0.1,0.2-0.1h0.2v1.8h-7V249.7z"/>
</g>
<g>
	<path class="st2" d="M409,284.2v-8.9l-1.9,0.6l-0.5-1.2l3-1.6h1.3v11.2H409z"/>
</g>
<g>
	<path class="st2" d="M0.3,36.7c1.4-1.4,2.5-2.4,3.1-3.1s1.1-1.3,1.4-1.9c0.3-0.6,0.5-1.2,0.5-1.8c0-0.5-0.1-0.9-0.4-1.1
		c-0.3-0.3-0.7-0.4-1.2-0.4c-0.3,0-0.6,0-0.9,0.1s-0.5,0.2-0.7,0.3s-0.3,0.2-0.4,0.3c-0.2,0.4-0.4,0.7-0.4,0.7c0,0,0,0,0,0
		c0,0,0,0,0.1,0s0,0,0.1,0s0,0,0,0L1.5,30l-0.1-0.1l-1.3-1c0.4-0.7,1-1.2,1.6-1.6c0.6-0.4,1.3-0.6,2.1-0.6c0.7,0,1.3,0.1,1.8,0.4
		c0.5,0.3,1,0.7,1.3,1.2s0.5,1.1,0.5,1.7c0,0.6-0.2,1.3-0.5,1.8S6.1,33,5.6,33.6s-1.2,1.3-2.2,2.3l-0.7,0.7h3.7c0.2,0,0.3,0,0.4,0
		c0.1,0,0.2-0.1,0.2-0.1h0.2v1.8h-7V36.7z"/>
</g>
<g>
	<path class="st2" d="M33,11.2V2.3l-1.9,0.6l-0.5-1.2l3-1.6H35v11.2H33z"/>
</g>
<g>
	<path class="st2" d="M0.3,64.7c1.4-1.4,2.5-2.4,3.1-3.1s1.1-1.3,1.4-1.9c0.3-0.6,0.5-1.2,0.5-1.8c0-0.5-0.1-0.9-0.4-1.1
		c-0.3-0.3-0.7-0.4-1.2-0.4c-0.3,0-0.6,0-0.9,0.1s-0.5,0.2-0.7,0.3s-0.3,0.2-0.4,0.3c-0.2,0.4-0.4,0.7-0.4,0.7c0,0,0,0,0,0
		c0,0,0,0,0.1,0s0,0,0.1,0s0,0,0,0L1.5,58l-0.1-0.1l-1.3-1c0.4-0.7,1-1.2,1.6-1.6c0.6-0.4,1.3-0.6,2.1-0.6c0.7,0,1.3,0.1,1.8,0.4
		c0.5,0.3,1,0.7,1.3,1.2s0.5,1.1,0.5,1.7c0,0.6-0.2,1.3-0.5,1.8S6.1,61,5.6,61.6s-1.2,1.3-2.2,2.3l-0.7,0.7h3.7c0.2,0,0.3,0,0.4,0
		c0.1,0,0.2-0.1,0.2-0.1h0.2v1.8h-7V64.7z"/>
</g>
</svg>
