<svg id="Warstwa_1" data-name="Warstwa 1" xmlns="http://www.w3.org/2000/svg" viewBox="0 0 114.4 29.6"><title>pracuj</title><path d="M1577.29,174.29c-2.75,0-3.81,2.05-3.81,4.08s1.11,4.1,3.93,4.1,3.74-2.07,3.74-4.19a3.72,3.72,0,0,0-3.86-4" transform="translate(-1485.4 -162.88)" fill="#fff"/><path d="M1521.53,180.88c0,1.17,1.16,1.59,2.41,1.59,2.7,0,3.81-1.47,3.81-2.45V178.2c-0.8.5-2.34,0.53-3.72,0.73s-2.51.63-2.51,1.95" transform="translate(-1485.4 -162.88)" fill="#fff"/><path d="M1585.47,162.88h-85.71a14.78,14.78,0,0,0-14.36,14.8,14.6,14.6,0,0,0,14.36,14.8h85.71a14.59,14.59,0,0,0,14.33-14.8,14.77,14.77,0,0,0-14.33-14.8M1503.89,184a5.08,5.08,0,0,1-4-1.7h0v5.59h-2.05V173h2.05v1.47h0c0.68-1.19,2.27-1.72,4-1.72a5.38,5.38,0,0,1,5.74,5.69,5.31,5.31,0,0,1-5.69,5.63m14.6-9.44c-3.3,0-4.51,1.63-4.51,4.37v4.81h-2.05V173h1.93v2.28h0a4.61,4.61,0,0,1,4.58-2.53v1.88Zm12.6,9.15a3.1,3.1,0,0,1-1.47.29,1.52,1.52,0,0,1-1.74-1.68,5.94,5.94,0,0,1-4.39,1.68c-2.27,0-4.12-.88-4.12-3,0-2.45,2.1-3,4.22-3.33s4.2-.25,4.2-1.59c0-1.55-1.47-1.8-2.78-1.8-1.74,0-3,.46-3.11,2.05h-2c0.12-2.68,2.51-3.62,5.29-3.62,2.24,0,4.68.44,4.68,3v5.57c0,0.84,0,1.21.65,1.21a2,2,0,0,0,.63-0.1v1.38Zm7.07,0.29c-3.81,0-5.84-2.3-5.84-5.53s1.93-5.8,5.89-5.8c2.82,0,5.09,1.15,5.38,3.73h-2.12a2.83,2.83,0,0,0-3.09-2.16c-3,0-3.89,2-3.89,4.23,0,2,1,4,3.64,4a3.1,3.1,0,0,0,3.42-2.64h2.1c-0.46,2.64-2.36,4.21-5.5,4.21m18.12-.25h-1.93v-1.72h0a4.52,4.52,0,0,1-4.06,2c-3.28,0-4.29-1.63-4.29-4V173h2v7.33c0,1.32,1,2.18,2.54,2.18,2.48,0,3.69-1.44,3.69-3.39V173h2v10.82Zm5.26,1.38c0,1.93-1.18,2.76-3,2.76a6.12,6.12,0,0,1-1.06-.08v-1.53a5.8,5.8,0,0,0,.84,0c0.89,0,1.16-.37,1.16-1.49V173h2v12.21Zm0-14.15h-2.05v-2.18h2.05V171Zm6.32,12.77h-2.68v-2.32h2.68v2.32Zm9.77,0.25a5.08,5.08,0,0,1-4-1.7h0v5.59h-2.05V173h2.05v1.47h0c0.68-1.19,2.27-1.72,4-1.72a5.38,5.38,0,0,1,5.74,5.69,5.31,5.31,0,0,1-5.7,5.63m10.28-.25h-2.05V168.84h2.05v14.95Z" transform="translate(-1485.4 -162.88)" fill="#fff"/><path d="M1503.55,174.29c-2.75,0-3.81,2.05-3.81,4.08s1.11,4.1,3.93,4.1,3.74-2.07,3.74-4.19a3.72,3.72,0,0,0-3.86-4" transform="translate(-1485.4 -162.88)" fill="#fff"/></svg>