<svg id="Warstwa_1" data-name="Warstwa 1" xmlns="http://www.w3.org/2000/svg" viewBox="0 0 72.51 55.03"><title>pwc</title><path d="M1411.55,174c-2.33.38-3.53,2.1-3.53,5.13s1.59,5.09,4,5.09c1.13,0,2.16-.38,4.33-1.44v2.47a13.36,13.36,0,0,1-6.22,1.56,6.69,6.69,0,0,1-5.17-1.93,7,7,0,0,1-2-5.06c0-4.37,3.23-7.32,8-7.32,3.14,0,5.29,1.43,5.29,3.54a2.28,2.28,0,0,1-2.49,2.29,4.12,4.12,0,0,1-2.2-.67V174Z" transform="translate(-1362.45 -137.6)" fill="#fff"/><path d="M1400,179.78c2.09-2.64,2.83-3.7,2.83-5a2.33,2.33,0,0,0-2.39-2.33,2.77,2.77,0,0,0-2,.81v5.37l-3.43,4.57V172.79h-3.26l-5.42,9v-9h-1.87l-4.92,1.2v1.26l2.68,0.27v11h3.47L1391,178v8.54h3.8Z" transform="translate(-1362.45 -137.6)" fill="#fff"/><path d="M1369.25,184.84l0.76,0c2.79,0,4.29-1.74,4.29-5.08,0-2.83-1.22-4.33-3.49-4.33a13.72,13.72,0,0,0-1.57.14v9.25Zm0,6,2.25,0.5v1.28h-8.82v-1.28l2-.5V175.45h-2.24v-1.32l5.4-1.64h1.4v1.84c2.53-1.51,3.4-1.77,4.69-1.77,3,0,5.2,2.76,5.2,6.58,0,4.42-2.95,7.39-7.59,7.39a21.57,21.57,0,0,1-2.3-.14v4.46Z" transform="translate(-1362.45 -137.6)" fill="#fff"/><rect x="32.63" y="23.63" width="13.5" height="3.38" fill="#fff"/><path d="M1431.53,154.49V144.35h-6.83v-4.11h-2.65V137.6h-13.47v23.63H1435v-6.75h-3.43Zm-0.67,0h-6.16V145h6.16v9.46Zm-21.6-2.71h7.07v2.71h-7.07v-2.71Zm0-10.86h12.12v3.44h-12.12v-3.44Zm12.12,4.11v9.46H1417V151.1h-7.74V145h12.12Zm-12.12,10.13h7.07v5.4h-7.07v-5.4Zm7.74,0h4.38v5.4H1417v-5.4Zm5.05,0h2v5.4h-2v-5.4Zm0-10.13h2v9.46h-2V145Zm2-.67h-2v-3.44h2v3.44Zm-14.77-6.07h12.12v2h-12.12v-2Zm15.44,16.88h6.16v5.4h-6.16v-5.4Zm9.58,5.4h-2.75v-5.4h2.75v5.4Z" transform="translate(-1362.45 -137.6)" fill="#fff"/></svg>