<?xml version="1.0" encoding="utf-8"?>
<!-- Generator: Adobe Illustrator 23.0.6, SVG Export Plug-In . SVG Version: 6.00 Build 0)  -->
<svg version="1.1" id="Warstwa_1" xmlns="http://www.w3.org/2000/svg" xmlns:xlink="http://www.w3.org/1999/xlink" x="0px" y="0px"
	 viewBox="0 0 385.5 161" style="enable-background:new 0 0 385.5 161;" xml:space="preserve">
<style type="text/css">
	.st0{fill:#0000CC;}
	.st1{clip-path:url(#SVGID_2_);}
	.st2{enable-background:new    ;}
	.st3{fill:#000099;}
	.st4{fill:#0000FF;}
	.st5{fill:none;stroke:#000000;stroke-miterlimit:10;}
	.st6{clip-path:url(#SVGID_4_);}
	.st7{clip-path:url(#SVGID_6_);}
	.st8{clip-path:url(#SVGID_8_);}
	.st9{clip-path:url(#SVGID_10_);}
	.st10{clip-path:url(#SVGID_12_);}
	.st11{clip-path:url(#SVGID_14_);}
	.st12{clip-path:url(#SVGID_16_);}
	.st13{clip-path:url(#SVGID_18_);}
	.st14{clip-path:url(#SVGID_20_);}
	.st15{clip-path:url(#SVGID_22_);}
</style>
<g>
	<g>
		<g>
			<rect id="XMLID_28_" x="353" y="32.5" class="st0" width="32" height="32"/>
		</g>
		<g>
			<defs>
				<rect id="SVGID_1_" x="353" y="32.5" width="32" height="32"/>
			</defs>
			<clipPath id="SVGID_2_">
				<use xlink:href="#SVGID_1_"  style="overflow:visible;"/>
			</clipPath>
			<g class="st1">
				<g class="st2">
					<polygon class="st3" points="381.8,35.7 385,32.5 385,64.5 381.8,61.3 					"/>
					<polygon class="st3" points="381.8,61.3 385,64.5 353,64.5 356.2,61.3 					"/>
					<polygon class="st4" points="353,32.5 353,64.5 356.2,61.3 356.2,35.7 381.8,35.7 385,32.5 					"/>
				</g>
			</g>
		</g>
		<g>
			<rect x="353" y="32.5" class="st5" width="32" height="32"/>
		</g>
	</g>
	<g>
		<g>
			<rect id="XMLID_25_" x="321" y="0.5" class="st0" width="32" height="32"/>
		</g>
		<g>
			<defs>
				<rect id="SVGID_3_" x="321" y="0.5" width="32" height="32"/>
			</defs>
			<clipPath id="SVGID_4_">
				<use xlink:href="#SVGID_3_"  style="overflow:visible;"/>
			</clipPath>
			<g class="st6">
				<g class="st2">
					<polygon class="st3" points="349.8,3.7 353,0.5 353,32.5 349.8,29.3 					"/>
					<polygon class="st3" points="349.8,29.3 353,32.5 321,32.5 324.2,29.3 					"/>
					<polygon class="st4" points="321,0.5 321,32.5 324.2,29.3 324.2,3.7 349.8,3.7 353,0.5 					"/>
				</g>
			</g>
		</g>
		<g>
			<rect x="321" y="0.5" class="st5" width="32" height="32"/>
		</g>
	</g>
	<g>
		<g>
			<rect id="XMLID_24_" x="32.5" y="128.5" class="st0" width="32" height="32"/>
		</g>
		<g>
			<defs>
				<rect id="SVGID_5_" x="32.5" y="128.5" width="32" height="32"/>
			</defs>
			<clipPath id="SVGID_6_">
				<use xlink:href="#SVGID_5_"  style="overflow:visible;"/>
			</clipPath>
			<g class="st7">
				<g class="st2">
					<polygon class="st3" points="61.3,131.7 64.5,128.5 64.5,160.5 61.3,157.3 					"/>
					<polygon class="st3" points="61.3,157.3 64.5,160.5 32.5,160.5 35.7,157.3 					"/>
					<polygon class="st4" points="32.5,128.5 32.5,160.5 35.7,157.3 35.7,131.7 61.3,131.7 64.5,128.5 					"/>
				</g>
			</g>
		</g>
		<g>
			<rect x="32.5" y="128.5" class="st5" width="32" height="32"/>
		</g>
	</g>
	<g>
		<g>
			<rect id="XMLID_23_" x="0.5" y="32.5" class="st0" width="32" height="32"/>
		</g>
		<g>
			<defs>
				<rect id="SVGID_7_" x="0.5" y="32.5" width="32" height="32"/>
			</defs>
			<clipPath id="SVGID_8_">
				<use xlink:href="#SVGID_7_"  style="overflow:visible;"/>
			</clipPath>
			<g class="st8">
				<g class="st2">
					<polygon class="st3" points="29.3,35.7 32.5,32.5 32.5,64.5 29.3,61.3 					"/>
					<polygon class="st3" points="29.3,61.3 32.5,64.5 0.5,64.5 3.7,61.3 					"/>
					<polygon class="st4" points="0.5,32.5 0.5,64.5 3.7,61.3 3.7,35.7 29.3,35.7 32.5,32.5 					"/>
				</g>
			</g>
		</g>
		<g>
			<rect x="0.5" y="32.5" class="st5" width="32" height="32"/>
		</g>
	</g>
	<g>
		<g>
			<rect id="XMLID_22_" x="0.5" y="96.5" class="st0" width="32" height="32"/>
		</g>
		<g>
			<defs>
				<rect id="SVGID_9_" x="0.5" y="96.5" width="32" height="32"/>
			</defs>
			<clipPath id="SVGID_10_">
				<use xlink:href="#SVGID_9_"  style="overflow:visible;"/>
			</clipPath>
			<g class="st9">
				<g class="st2">
					<polygon class="st3" points="29.3,99.7 32.5,96.5 32.5,128.5 29.3,125.3 					"/>
					<polygon class="st3" points="29.3,125.3 32.5,128.5 0.5,128.5 3.7,125.3 					"/>
					<polygon class="st4" points="0.5,96.5 0.5,128.5 3.7,125.3 3.7,99.7 29.3,99.7 32.5,96.5 					"/>
				</g>
			</g>
		</g>
		<g>
			<rect x="0.5" y="96.5" class="st5" width="32" height="32"/>
		</g>
	</g>
	<g>
		<g>
			<rect id="XMLID_21_" x="32.5" y="0.5" class="st0" width="32" height="32"/>
		</g>
		<g>
			<defs>
				<rect id="SVGID_11_" x="32.5" y="0.5" width="32" height="32"/>
			</defs>
			<clipPath id="SVGID_12_">
				<use xlink:href="#SVGID_11_"  style="overflow:visible;"/>
			</clipPath>
			<g class="st10">
				<g class="st2">
					<polygon class="st3" points="61.3,3.7 64.5,0.5 64.5,32.5 61.3,29.3 					"/>
					<polygon class="st3" points="61.3,29.3 64.5,32.5 32.5,32.5 35.7,29.3 					"/>
					<polygon class="st4" points="32.5,0.5 32.5,32.5 35.7,29.3 35.7,3.7 61.3,3.7 64.5,0.5 					"/>
				</g>
			</g>
		</g>
		<g>
			<rect x="32.5" y="0.5" class="st5" width="32" height="32"/>
		</g>
	</g>
	<g class="st2">
		<path class="st4" d="M19.2,16.3c0.4,0.5,0.5,1.1,0.5,1.8c0,0.7-0.2,1.2-0.5,1.8s-0.7,0.9-1.3,1.3c-0.6,0.3-1.2,0.5-2,0.5
			c-1.5,0-2.7-0.5-3.5-1.5l0.8-1.7l0,0l0,0c0.3,0.5,0.6,0.9,1,1.1s1,0.3,1.6,0.3c0.6,0,1-0.2,1.3-0.5s0.5-0.8,0.5-1.3
			c0-0.6-0.2-1.1-0.5-1.3s-0.9-0.4-1.7-0.4c-0.3,0-0.6,0-0.9,0.1v-1.6c0.1,0,0.2,0,0.4,0c0.9,0,1.6-0.1,1.9-0.4s0.5-0.7,0.5-1.2
			c0-0.4-0.1-0.8-0.4-1.1s-0.6-0.4-1.1-0.4c-0.4,0-0.8,0.1-1.1,0.2s-0.7,0.4-1.1,0.7l-1.1-1.2c0.4-0.5,0.9-0.9,1.5-1.1
			s1.2-0.4,1.8-0.4c0.7,0,1.3,0.1,1.8,0.4s0.9,0.6,1.2,1.1s0.4,1,0.4,1.5c0,0.6-0.2,1.1-0.5,1.6c-0.3,0.4-0.7,0.8-1.1,0.9
			C18.4,15.5,18.8,15.8,19.2,16.3z M13.2,18.3C13.2,18.3,13.2,18.3,13.2,18.3C13.3,18.3,13.3,18.3,13.2,18.3l0,0.1
			C13.2,18.4,13.2,18.3,13.2,18.3z M13.5,18.4C13.5,18.4,13.5,18.4,13.5,18.4c0,0-0.1,0-0.1,0c0,0-0.1,0-0.1-0.1l0,0L13.5,18.4
			L13.5,18.4z"/>
	</g>
	<g class="st2">
		<path class="st4" d="M373.6,17.3c0.4,0.5,0.5,1.1,0.5,1.8c0,0.7-0.2,1.2-0.5,1.8s-0.7,0.9-1.3,1.3c-0.6,0.3-1.2,0.5-2,0.5
			c-1.5,0-2.7-0.5-3.5-1.5l0.8-1.7l0,0l0,0c0.3,0.5,0.6,0.9,1,1.1s1,0.3,1.6,0.3c0.6,0,1-0.2,1.3-0.5s0.5-0.8,0.5-1.3
			c0-0.6-0.2-1.1-0.5-1.3s-0.9-0.4-1.7-0.4c-0.3,0-0.6,0-0.9,0.1v-1.6c0.1,0,0.2,0,0.4,0c0.9,0,1.6-0.1,1.9-0.4s0.5-0.7,0.5-1.2
			c0-0.4-0.1-0.8-0.4-1.1s-0.6-0.4-1.1-0.4c-0.4,0-0.8,0.1-1.1,0.2s-0.7,0.4-1.1,0.7l-1.1-1.2c0.4-0.5,0.9-0.9,1.5-1.1
			s1.2-0.4,1.8-0.4c0.7,0,1.3,0.1,1.8,0.4s0.9,0.6,1.2,1.1s0.4,1,0.4,1.5c0,0.6-0.2,1.1-0.5,1.6c-0.3,0.4-0.7,0.8-1.1,0.9
			C372.9,16.5,373.3,16.8,373.6,17.3z M367.7,19.3C367.7,19.3,367.7,19.3,367.7,19.3C367.7,19.3,367.8,19.3,367.7,19.3l0,0.1
			C367.7,19.4,367.7,19.3,367.7,19.3z M368,19.4C368,19.4,368,19.4,368,19.4c0,0-0.1,0-0.1,0c0,0-0.1,0-0.1-0.1l0,0L368,19.4
			L368,19.4z"/>
	</g>
	<g>
		<path class="st4" d="M91.2,14.4c0,0,0.2,0.2,0.7,0.6c0.5,0.4,0.8,0.8,1,1.2c0.2,0.4,0.3,0.9,0.3,1.5c0,0.7-0.2,1.3-0.5,1.9
			s-0.8,1.1-1.5,1.5s-1.6,0.6-2.6,0.6c-1.7,0-3.1-0.6-4.4-1.8l1-1.8l0,0l0,0c1,1,2.2,1.6,3.5,1.6c0.6,0,1.2-0.2,1.5-0.5
			s0.5-0.8,0.5-1.4c0-0.3-0.1-0.6-0.2-0.8s-0.4-0.5-0.8-0.7s-0.9-0.5-1.5-0.8c-1.2-0.5-2.1-1.1-2.6-1.8C85.2,13,85,12.3,85,11.4
			c0-0.6,0.2-1.2,0.5-1.7s0.8-0.9,1.4-1.2C87.6,8.1,88.2,8,89,8c0.9,0,1.6,0.1,2.2,0.4c0.6,0.3,1.2,0.7,1.8,1.3l-1.2,1.6l0,0l0,0
			c-0.3-0.5-0.7-0.9-1.2-1.1c-0.5-0.2-1-0.4-1.6-0.4c-0.4,0-0.7,0.1-1,0.2c-0.3,0.1-0.5,0.3-0.6,0.5s-0.2,0.5-0.2,0.7
			c0,0.3,0.1,0.6,0.2,0.8c0.2,0.2,0.4,0.5,0.8,0.7s0.9,0.6,1.7,0.9C90.8,14.2,91.2,14.4,91.2,14.4z M85.3,18L85.3,18
			C85.3,17.9,85.3,17.9,85.3,18L85.3,18L85.3,18L85.3,18z M85.6,18.1L85.6,18.1L85.6,18.1c-0.2,0-0.2,0-0.2-0.1v-0.1L85.6,18.1
			L85.6,18.1z M91.6,11.4C91.6,11.3,91.6,11.3,91.6,11.4L91.6,11.4l0.2,0.1v0.1L91.6,11.4L91.6,11.4z M91.9,11.5L91.9,11.5
			c0,0-0.1,0-0.1-0.1l0.1-0.1C91.9,11.5,91.9,11.5,91.9,11.5z"/>
		<path class="st4" d="M95.3,11.6h2.2v1.2c0.3-0.5,0.7-0.9,1.1-1.1c0.4-0.2,0.9-0.3,1.4-0.3c0.7,0,1.4,0.2,2,0.6s1.1,1,1.4,1.7
			c0.4,0.8,0.5,1.7,0.5,2.8s-0.2,2-0.5,2.8c-0.4,0.8-0.8,1.3-1.4,1.7c-0.6,0.4-1.2,0.6-1.9,0.6c-0.5,0-1-0.1-1.4-0.3
			c-0.4-0.2-0.8-0.6-1-1v4.5h-2.3L95.3,11.6z M100.6,19.3c0.3-0.2,0.6-0.6,0.8-1.1s0.3-1.1,0.3-1.9c0-0.9-0.2-1.7-0.5-2.2
			c-0.3-0.6-0.8-0.8-1.5-0.8s-1.2,0.3-1.6,0.9c-0.3,0.6-0.5,1.4-0.5,2.4s0.2,1.8,0.5,2.3s0.8,0.8,1.4,0.8
			C99.9,19.7,100.3,19.6,100.6,19.3z"/>
		<path class="st4" d="M107.4,21c-0.7-0.4-1.3-1.1-1.7-1.8c-0.4-0.8-0.6-1.7-0.6-2.7c0-0.9,0.2-1.8,0.6-2.6s1-1.4,1.7-1.8
			c0.7-0.4,1.5-0.7,2.3-0.7s1.6,0.2,2.3,0.7c0.7,0.4,1.3,1.1,1.7,1.8s0.6,1.6,0.6,2.6s-0.2,1.9-0.6,2.7c-0.4,0.8-1,1.4-1.7,1.8
			s-1.5,0.7-2.3,0.7C108.9,21.6,108.1,21.4,107.4,21z M111,19.3c0.3-0.3,0.6-0.7,0.8-1.2c0.2-0.5,0.3-1.1,0.3-1.7
			c0-0.7-0.1-1.2-0.3-1.7c-0.2-0.5-0.4-0.8-0.8-1.1c-0.3-0.3-0.7-0.4-1.2-0.4c-0.4,0-0.8,0.1-1.2,0.4s-0.6,0.6-0.8,1.1
			c-0.2,0.5-0.3,1.1-0.3,1.7c0,0.7,0.1,1.2,0.3,1.7c0.2,0.5,0.4,0.9,0.8,1.2c0.3,0.3,0.7,0.4,1.2,0.4
			C110.2,19.7,110.6,19.6,111,19.3z"/>
		<path class="st4" d="M116.2,11.6h2.3v1c0.3-0.4,0.8-0.7,1.2-0.9c0.5-0.2,1-0.3,1.5-0.3c0.9,0,1.7,0.3,2.2,1s0.8,1.7,0.8,3.1v5.9
			H122v-5.9c0-0.7-0.1-1.3-0.4-1.6s-0.7-0.5-1.2-0.5c-0.3,0-0.6,0.1-0.9,0.2c-0.3,0.1-0.5,0.3-0.7,0.6s-0.3,0.6-0.3,1v6.2h-2.3V11.6
			z"/>
		<path class="st4" d="M132.7,15.9c0,0,0.2,0.1,0.7,0.4c0.5,0.2,0.8,0.5,1,0.9s0.3,0.8,0.3,1.3c0,0.6-0.2,1.1-0.5,1.6
			s-0.8,0.9-1.4,1.2c-0.6,0.3-1.2,0.4-2,0.4c-1,0-1.8-0.1-2.5-0.4s-1.4-0.7-2-1.3l1-1.7l0,0l0,0c0.5,0.5,1,0.9,1.5,1.1
			c0.6,0.2,1.2,0.4,2,0.4c1.1,0,1.7-0.4,1.7-1.1c0-0.2-0.1-0.4-0.2-0.6c-0.1-0.2-0.4-0.3-0.6-0.4c-0.3-0.1-0.7-0.3-1.2-0.4
			c-1.1-0.3-2-0.7-2.6-1.1s-0.9-1.1-0.9-1.8c0-0.6,0.2-1.1,0.5-1.5s0.7-0.8,1.3-1s1.2-0.4,2-0.4s1.5,0.1,2.1,0.4
			c0.6,0.2,1.2,0.6,1.7,1.1l-1.2,1.6l0,0l0,0c-0.3-0.4-0.7-0.7-1.1-0.9s-0.9-0.3-1.5-0.3c-0.4,0-0.8,0.1-1,0.2
			c-0.3,0.1-0.4,0.3-0.4,0.6c0,0.2,0.1,0.4,0.2,0.6c0.2,0.2,0.4,0.3,0.7,0.4c0.3,0.1,0.8,0.3,1.3,0.5
			C132.3,15.7,132.7,15.9,132.7,15.9z M127.2,18.2L127.2,18.2C127.2,18.1,127.2,18.1,127.2,18.2L127.2,18.2L127.2,18.2
			C127.3,18.2,127.2,18.2,127.2,18.2z M127.6,18.3L127.6,18.3L127.6,18.3c-0.2,0-0.2,0-0.2-0.1v-0.1L127.6,18.3L127.6,18.3z
			 M133,14.5L133,14.5h0.1c0.1,0,0.1,0.1,0.1,0.1v0.1L133,14.5L133,14.5z M133.4,14.7C133.4,14.7,133.3,14.7,133.4,14.7
			c-0.1,0-0.1,0-0.1-0.1l0.1-0.1C133.3,14.6,133.4,14.6,133.4,14.7z"/>
		<path class="st4" d="M138.6,21c-0.7-0.4-1.3-1.1-1.7-1.8c-0.4-0.8-0.6-1.7-0.6-2.7c0-0.9,0.2-1.8,0.6-2.6c0.4-0.8,1-1.4,1.7-1.8
			c0.7-0.4,1.5-0.7,2.3-0.7s1.6,0.2,2.3,0.7s1.3,1.1,1.7,1.8c0.4,0.8,0.6,1.6,0.6,2.6s-0.2,1.9-0.6,2.7c-0.4,0.8-1,1.4-1.7,1.8
			s-1.5,0.7-2.3,0.7S139.3,21.4,138.6,21z M142.2,19.3c0.3-0.3,0.6-0.7,0.8-1.2s0.3-1.1,0.3-1.7c0-0.7-0.1-1.2-0.3-1.7
			s-0.4-0.8-0.8-1.1c-0.3-0.3-0.7-0.4-1.2-0.4c-0.4,0-0.8,0.1-1.2,0.4c-0.3,0.3-0.6,0.6-0.8,1.1s-0.3,1.1-0.3,1.7
			c0,0.7,0.1,1.2,0.3,1.7s0.4,0.9,0.8,1.2c0.3,0.3,0.7,0.4,1.2,0.4S141.8,19.6,142.2,19.3z"/>
		<path class="st4" d="M154.9,14.5L154.9,14.5c-0.3-0.4-0.5-0.7-0.8-0.9s-0.6-0.3-1-0.3c-0.5,0-0.9,0.1-1.3,0.4s-0.7,0.6-0.9,1
			s-0.3,0.9-0.3,1.5v5.1H148v-9.7h2.4V13c0.3-0.5,0.6-0.9,1.1-1.2s1.1-0.4,1.7-0.4c0.5,0,1,0.1,1.4,0.3c0.5,0.2,0.9,0.4,1.3,0.8
			L154.9,14.5z M154.6,14.5L154.6,14.5h0.1c0.1,0,0.1,0.1,0.1,0.1l0,0L154.6,14.5L154.6,14.5z M154.9,14.5c0,0.1,0.1,0.1,0.1,0.1
			l0,0h-0.1V14.5z"/>
	</g>
	<g>
		<g>
			<rect id="XMLID_20_" x="0.5" y="128.5" class="st0" width="32" height="32"/>
		</g>
		<g>
			<defs>
				<rect id="SVGID_13_" x="0.5" y="128.5" width="32" height="32"/>
			</defs>
			<clipPath id="SVGID_14_">
				<use xlink:href="#SVGID_13_"  style="overflow:visible;"/>
			</clipPath>
			<g class="st11">
				<g class="st2">
					<polygon class="st3" points="29.3,131.7 32.5,128.5 32.5,160.5 29.3,157.3 					"/>
					<polygon class="st3" points="29.3,157.3 32.5,160.5 0.5,160.5 3.7,157.3 					"/>
					<polygon class="st4" points="0.5,128.5 0.5,160.5 3.7,157.3 3.7,131.7 29.3,131.7 32.5,128.5 					"/>
				</g>
			</g>
		</g>
		<g>
			<rect x="0.5" y="128.5" class="st5" width="32" height="32"/>
		</g>
	</g>
	<g>
		<g>
			<rect id="XMLID_19_" x="353" y="32.5" class="st0" width="32" height="32"/>
		</g>
		<g>
			<defs>
				<rect id="SVGID_15_" x="353" y="32.5" width="32" height="32"/>
			</defs>
			<clipPath id="SVGID_16_">
				<use xlink:href="#SVGID_15_"  style="overflow:visible;"/>
			</clipPath>
			<g class="st12">
				<g class="st2">
					<polygon class="st3" points="381.8,35.7 385,32.5 385,64.5 381.8,61.3 					"/>
					<polygon class="st3" points="381.8,61.3 385,64.5 353,64.5 356.2,61.3 					"/>
					<polygon class="st4" points="353,32.5 353,64.5 356.2,61.3 356.2,35.7 381.8,35.7 385,32.5 					"/>
				</g>
			</g>
		</g>
		<g>
			<rect x="353" y="32.5" class="st5" width="32" height="32"/>
		</g>
	</g>
	<g>
		<g>
			<g>
				<rect id="XMLID_27_" x="353" y="96.5" class="st0" width="32" height="32"/>
			</g>
			<g>
				<defs>
					<rect id="SVGID_17_" x="353" y="96.5" width="32" height="32"/>
				</defs>
				<clipPath id="SVGID_18_">
					<use xlink:href="#SVGID_17_"  style="overflow:visible;"/>
				</clipPath>
				<g class="st13">
					<g class="st2">
						<polygon class="st3" points="381.8,99.7 385,96.5 385,128.5 381.8,125.3 						"/>
						<polygon class="st3" points="381.8,125.3 385,128.5 353,128.5 356.2,125.3 						"/>
						<polygon class="st4" points="353,96.5 353,128.5 356.2,125.3 356.2,99.7 381.8,99.7 385,96.5 						"/>
					</g>
				</g>
			</g>
			<g>
				<rect x="353" y="96.5" class="st5" width="32" height="32"/>
			</g>
		</g>
		<g>
			<g>
				<rect id="XMLID_26_" x="321" y="128.5" class="st0" width="32" height="32"/>
			</g>
			<g>
				<defs>
					<rect id="SVGID_19_" x="321" y="128.5" width="32" height="32"/>
				</defs>
				<clipPath id="SVGID_20_">
					<use xlink:href="#SVGID_19_"  style="overflow:visible;"/>
				</clipPath>
				<g class="st14">
					<g class="st2">
						<polygon class="st3" points="349.8,131.7 353,128.5 353,160.5 349.8,157.3 						"/>
						<polygon class="st3" points="349.8,157.3 353,160.5 321,160.5 324.2,157.3 						"/>
						<polygon class="st4" points="321,128.5 321,160.5 324.2,157.3 324.2,131.7 349.8,131.7 353,128.5 						"/>
					</g>
				</g>
			</g>
			<g>
				<rect x="321" y="128.5" class="st5" width="32" height="32"/>
			</g>
		</g>
		<g>
			<g>
				<rect id="XMLID_18_" x="353" y="128.5" class="st0" width="32" height="32"/>
			</g>
			<g>
				<defs>
					<rect id="SVGID_21_" x="353" y="128.5" width="32" height="32"/>
				</defs>
				<clipPath id="SVGID_22_">
					<use xlink:href="#SVGID_21_"  style="overflow:visible;"/>
				</clipPath>
				<g class="st15">
					<g class="st2">
						<polygon class="st3" points="381.8,131.7 385,128.5 385,160.5 381.8,157.3 						"/>
						<polygon class="st3" points="381.8,157.3 385,160.5 353,160.5 356.2,157.3 						"/>
						<polygon class="st4" points="353,128.5 353,160.5 356.2,157.3 356.2,131.7 381.8,131.7 385,128.5 						"/>
					</g>
				</g>
			</g>
			<g>
				<rect x="353" y="128.5" class="st5" width="32" height="32"/>
			</g>
		</g>
	</g>
</g>
</svg>
