<svg xmlns="http://www.w3.org/2000/svg" viewBox="0 0 505.32 461.4"><defs><style>.cls-1{fill:#0a0a0a;}.cls-2{fill:#999;}.cls-3{fill:#1e1e1e;}.cls-4{fill:gray;}.cls-12,.cls-16,.cls-18,.cls-5{fill:#e10b31;}.cls-15,.cls-6{fill:#fff;}.cls-7{fill:#ccc;}.cls-8{fill:#585858;}.cls-9{fill:#d6d6d6;}.cls-10{fill:#b3b3b3;}.cls-11{fill:#161616;}.cls-12,.cls-15,.cls-16,.cls-19,.cls-20{stroke:#000;stroke-miterlimit:10;}.cls-12{stroke-width:0.96px;}.cls-13{fill:#903;}.cls-14,.cls-17,.cls-19{fill:blue;}.cls-14,.cls-18{stroke:#0a0a0a;stroke-linecap:round;stroke-linejoin:round;}.cls-14,.cls-15,.cls-18{stroke-width:1.91px;}.cls-16{stroke-width:4.31px;}.cls-19,.cls-20{stroke-width:3.48px;}.cls-20{fill:none;}.cls-21{fill:#009;}</style></defs><title>robot-party</title><g id="Layer_2" data-name="Layer 2"><g id="Long_Page_cz.2" data-name="Long Page cz.2"><path class="cls-1" d="M297.37,334.28c21.59.59,28.55-5.68,70.14,13.34,25,11.44,17.55,43.5-15.27,48.28-55.36,8.06-46.45,38.63-77,54.5-66.38,34.46-119.49-20.8-99.81-46.44,10.78-14-19.83-18-43.2-14.82-74.06,10.1-80.67-19.15-57-33C101.54,340.73,248.79,333,297.37,334.28Z"/><g id="arm_1" data-name="arm 1"><path class="cls-2" d="M105.65,166.29c5.4,8.48,11,18.19,18.27,25.12s16.67,12.16,26.71,12.48c8.15.26,16.54-2.66,24.3-.16,4.17,1.34,7.93,4.42,9.36,8.56s.09,9.3-3.6,11.67l-4.25,2.28a8.23,8.23,0,0,1-2.35.83c-17.29,3.2-33.41,1.91-48.26-7.43-16.65-10.47-28.56-30.65-36-48.84A39.86,39.86,0,0,0,105.65,166.29Z"/><path class="cls-3" d="M127.27,196A43.77,43.77,0,0,0,154,208.77c7,.51,25-.72,25.47-1.38,1-1.41-3.79-3.06-5-3.43-8.29-2.48-17.58.88-25.83.28a27.08,27.08,0,0,1-11-3c-1.8-1.05-3.7-2.19-5.25-3.16-1.08-.68-2.15-2.65-3.4-2.79C129.15,195.32,125.76,194.42,127.27,196Z"/><path class="cls-4" d="M114.07,185s-5.18,5.19-15.1-10.16c-1.67-2.58-5.94-.9-6.36-4.34a54.62,54.62,0,0,0,12.56-4.44C102.23,168.81,117.71,182,114.07,185Z"/><path d="M175,225.45c-18.81,3.52-37.71,1-53.13-11-14.1-11-23.59-27-30.35-43.31-.7-1.69-3.48-1-2.77.76,7.13,17.15,17.1,34,32.14,45.41,16,12.11,35.52,14.55,54.87,10.93,1.81-.34,1-3.11-.76-2.77Z"/><path d="M181.42,225.2a12,12,0,0,0,2.4-16.81c-5.46-7.63-15.14-7.48-23.53-6.58-11.95,1.28-22.14-.63-31.75-8.27-9.07-7.21-15.37-17.18-21.53-26.83-1-1.56-3.47-.12-2.48,1.45,8.77,13.75,18.4,28.4,34.23,34.63,8.1,3.2,15.7,2.35,24.17,1.62,5.18-.46,10.73-.57,15.24,2.45,5.34,3.59,7.59,11.44,1.8,15.86-1.45,1.11,0,3.6,1.45,2.48Z"/><path d="M164.19,203.85c3.48,7.35,3.71,17-3,22.49-.82.67,1.84,4.58,2.32,4.19,7.85-6.48,6.18-17.83,2.25-26.11-.74-1.58-3-3.58-1.6-.57Z"/><path d="M147,203.07c3.84,7.05,3.56,15.89-2.92,21.2-.51.42,2.48,4.16,3,3.76,7-5.75,6.6-15.23,2.53-22.69-.36-.67-3.53-4-2.58-2.27Z"/><path d="M130.28,199.27c2.91,7.1,1,15-5.91,18.77-1,.54.68.82,1,.89a5.22,5.22,0,0,0,3.23-.59c7.17-4,9.56-12.05,6.48-19.56-.5-1.21-5-.15-4.76.49Z"/><path d="M117,187.91c-.51,5.06-2.89,13-8.31,14.82-3.13,1-.2,1.44,1.51.87,7.26-2.41,10.73-9.5,11.47-16.77,0-.44-4.54-.16-4.67,1.08Z"/><path d="M106.58,170.77A18.59,18.59,0,0,1,95,181.5c-.84.27,1.3,4.4,2.7,4a19.26,19.26,0,0,0,11.91-11.13c.47-1.25-2.58-4.61-3-3.56Z"/></g><g id="hand_1" data-name="hand 1"><path class="cls-5" d="M105.65,166.29a27.56,27.56,0,0,0,9.17-8.92,20.55,20.55,0,0,0,1.51-17.2c-3-8.36-7.47-15.54-17.92-18.71-4.29-1.3-8.93-.59-13.3.41-8.26,1.89-17.56,8.12-18.29,20.64-.43,7.3,2.21,16,7.45,21.07s9.19,8,15.71,7.26A41,41,0,0,0,105.65,166.29Z"/><path class="cls-5" d="M117.73,141.66c3.75-.65,8.88-1.83,10-3.06a33.71,33.71,0,0,1-5.84-8c-2.89,1.08-5.2,1.92-8.08,3A36.5,36.5,0,0,1,117.73,141.66Z"/><path class="cls-5" d="M80.93,124.07l-3.19-11.76,1-.37a15.29,15.29,0,0,1,8.06-1.3s.75,7.82,2.47,11.59Z"/><path class="cls-5" d="M68.82,155.73c-4.37,0-13.76-.09-13.76-.09l-3-7.83a91.87,91.87,0,0,0,14.57-1.13C66.4,149.5,67.21,151.55,68.82,155.73Z"/><path class="cls-5" d="M106.52,125.24a51.47,51.47,0,0,1,3.27-7.28c-2.41-.54-3.59-1.49-5.65-2.83l-.09,0a23.29,23.29,0,0,0-3.46,6.51A20.69,20.69,0,0,1,106.52,125.24Z"/><path class="cls-5" d="M67.7,135.69c-1.79-1.27-6.08-3.54-6.08-3.54.88-1.65,2.55-5.53,2.55-5.53l6.77,3.52Z"/><path class="cls-6" d="M100.45,154.49A35.38,35.38,0,0,0,96.34,141l7.2-5.09c2.57,4.6,5.95,11.28,3.54,15.39A33.62,33.62,0,0,1,100.45,154.49Z"/><path d="M117.84,143.42c3.09-1.33,6.18-2.65,9.31-3.86a1.46,1.46,0,0,0,.86-2.11,46.84,46.84,0,0,0-5.1-7.89,1.42,1.42,0,0,0-1.4-.37l-8.08,3c-1.71.64-1,3.42.77,2.77l8.08-3-1.4-.36a42.78,42.78,0,0,1,4.65,7.3l.86-2.11c-3.36,1.3-6.69,2.72-10,4.15-1.69.72-.23,3.2,1.45,2.48Z"/><path d="M82.38,122.68c-1.32-3.51-2.27-7.13-3.25-10.75l-1,1.77a18.28,18.28,0,0,1,8.62-1.62L85.36,111a50.43,50.43,0,0,1,2.12,9.79c.24,1.81,3.11,1.83,2.87,0a54.25,54.25,0,0,0-2.22-10.55,1.5,1.5,0,0,0-1.38-1.06,20,20,0,0,0-9.39,1.73,1.47,1.47,0,0,0-1,1.77c1,3.62,1.93,7.23,3.25,10.75.65,1.71,3.42,1,2.77-.77Z"/><path d="M69.32,153.91c-4.75,0-9.5.16-14.26.29l1.39,1.06a40,40,0,0,1-1.93-7.45l-1.39,1.82c4.49-.55,9-1.1,13.49-1.52,1.82-.16,1.84-3,0-2.87-4.51.41-9,1-13.49,1.52a1.47,1.47,0,0,0-1.38,1.82A40.1,40.1,0,0,0,53.68,156a1.46,1.46,0,0,0,1.38,1c4.76-.13,9.51-.26,14.26-.28a1.44,1.44,0,0,0,0-2.88Z"/><path d="M108.09,126.61a66,66,0,0,0,2.6-8.49,1.46,1.46,0,0,0-.66-1.62l-5.26-2.59a1.46,1.46,0,0,0-2,.51,64.35,64.35,0,0,0-3.46,6.51c-.77,1.67,1.7,3.13,2.48,1.45a64.35,64.35,0,0,1,3.46-6.51l-2,.52,5.26,2.59-.66-1.62a60.67,60.67,0,0,1-2.31,7.8c-.72,1.68,1.75,3.14,2.48,1.45Z"/><path d="M67.73,134.72l-5.37-3.82a1.46,1.46,0,0,0-1.74.23h0l2.25,1.74c.93-1.8,1.74-3.67,2.55-5.54l-2,.52,7.27,3.79c1.63.85,3.09-1.62,1.45-2.48l-7.27-3.79a1.44,1.44,0,0,0-2,.51c-.81,1.87-1.62,3.74-2.55,5.54a1.44,1.44,0,0,0,2.26,1.74h0l-1.74.22,5.37,3.82c1.51,1.07,3-1.42,1.45-2.48Z"/><path d="M88.67,169.7c-8.86.13-16.08-6.61-18.87-14.78a27.66,27.66,0,0,1-.55-17c2.81-8.91,11-13.81,19.73-15.41,7.84-1.43,16,.21,21,6.91,3.32,4.39,6,10.53,5.94,16-.08,11.1-8.44,18.39-18,22.12.26-.1,2,2.57,2.79,2.27,10.7-4.19,20.18-13.68,17.57-26.23A32.14,32.14,0,0,0,104,123.45c-9.08-5.68-21.44-4.69-30,1.7-9.49,7.07-10.58,20.14-5.9,30.4,3.95,8.64,13.4,16.57,23.16,16.43-.26,0-1.69-2.29-2.61-2.28Z"/></g><path class="cls-7" d="M162.47,197.81s107.12,19.25,135.58,20.93c0,46.86-3.35,93.73-7.33,150.27A456.38,456.38,0,0,1,188,345.67Z"/><path class="cls-2" d="M219.8,338.83c10.88,8.37,25.81,10.69,31.8,6.69,10-6.69,13.39-12.55,31-3.34,11.71-1.68,11.71-27.62,11.71-27.62l-3.35,47.7c-40.17-2.51-73-12.53-102.93-23.28l-7.53-35.3a117.14,117.14,0,0,0,6.69,13.39C195.53,331.3,206.41,314.56,219.8,338.83Z"/><path class="cls-8" d="M297.63,358.08c.84-25.11-2.72-62.26-5.87-17.24-.33,4.67-2.5,13.05-9.19,14.73-2.51-9.21-5-12.08-8.37-12.56-8.13-1.15-15.47-3.08-20.92,0-3.89,2.2-5,10.05-11.72,9.21-13.8-1.73-22.6-5-25.11-8.37-1.67-9.21-4.18-18.41-14.22-18.41-5.17,0-14.77,3.74-15.64-1.35,0,0-11.37-57.41-10.31-44.68L188,345.52A446.76,446.76,0,0,0,290.1,369Z"/><path class="cls-6" d="M298.89,218.74c2.51-2.51,32.63-25.11,32.63-25.11.84,12.55-7.53,123.86-13.39,145.62l-25.94,29.29Z"/><path class="cls-8" d="M295.12,191.54c-7.61,4.16-14.35,13.3-25.23,11.63-20-3.08-52.85-10.38-65.4-12-5-.84-14.59.48-33.23,6.31,16.89,3.49,46,7.57,62.91,10.48,1.61.26,17.54,3.14,19.8,3.5,13.58,2.13,40.63,4.8,43.69,5.24.45-.55,19.69-15.68,28.42-20.93C308.61,194.56,296.65,190.7,295.12,191.54Z"/><g id="HEAD"><path class="cls-4" d="M262.42,183.6a84.68,84.68,0,0,1,6.76,11.49c-32.06-8.55-74-17.84-106.34-25h-.28c-1.09-4-3.78-7.46-5.89-10.9Z"/><path class="cls-6" d="M287.64,63.86c1.34,1.74,8.7,22.37,23.3,35.75l-7.45,61.69c-13.55,9-31.91,31.5-34.17,32.92Z"/><path class="cls-9" d="M156.56,157.13c2.78-16.08,7.39-71.61,7.95-87.86L274,78.76l-.19,1.2c-.84,17.57-12.09,102.64-12.09,102.64L157.14,158.46Z"/><path d="M157.94,157.51c2.44-14.39,3.53-29.08,4.81-43.61,1.31-14.84,2.66-29.73,3.2-44.63l-1.44,1.43L260.26,79,274,80.19l-1.39-1.82c-2.14,13.81-2.78,28-4.44,41.92q-3,25.41-6.38,50.79-.74,5.76-1.5,11.52l1.82-1.38-92.53-21.37-9.12-2.11a13.88,13.88,0,0,1-2.23-.51c-1.29-.53.38.92-.39-.82s-3.22-.23-2.48,1.45c1.38,3.13,6,3,9,3.73l24.26,5.61,58.69,13.55,14,3.24a1.46,1.46,0,0,0,1.82-1.39c3.66-27.71,7.26-55.43,10.29-83.22.73-6.7.9-13.59,1.93-20.24A1.47,1.47,0,0,0,274,77.32L178.21,69l-13.7-1.19a1.45,1.45,0,0,0-1.43,1.44c-.53,14.47-1.83,28.93-3.09,43.35-1.28,14.7-2.35,29.57-4.82,44.13C154.87,158.56,157.63,159.33,157.94,157.51Z"/><path class="cls-10" d="M270.11,193.35c11-55.07,19-127.56,16.26-129C283.89,67.34,278,74,274,78.76L263.42,182.87s3.77,6.48,5.9,11.35Z"/><polygon class="cls-6" points="185.16 58.25 284.79 64.35 274 78.45 166.22 68.9 185.16 58.25"/><path d="M272.33,80c-2,34.21-6.48,68.47-12,102.26-.3,1.81,2.47,2.59,2.77.76,5.59-34,10.15-68.56,12.13-103,.11-1.85-2.76-1.84-2.87,0Z"/><path d="M166.69,69.79a202.22,202.22,0,0,0,18.84-10,1.44,1.44,0,0,0-1.45-2.48,202.22,202.22,0,0,1-18.84,10c-1.67.78-.21,3.26,1.45,2.48Z"/><path d="M287.51,62.29c-34.08-.2-68.11-3-102.1-5.12-1.84-.12-1.84,2.75,0,2.87,34,2.1,68,4.92,102.1,5.12a1.44,1.44,0,0,0,0-2.87Z"/><path d="M285.13,63.59c-2.72,5.6-8.28,9.42-12.19,14.15-1.17,1.42.85,3.46,2,2,4.08-4.93,9.8-8.88,12.64-14.73.8-1.65-1.67-3.11-2.48-1.45Z"/><path d="M286.4,64.59c2.68,3.75,4.75,8,7.15,12,2,3.35,4.13,6.68,6.29,10,2.72,4.11,6.42,8.07,8.74,12.37.78,1.45.63.4.78,1.85a17.3,17.3,0,0,1-.43,3.63l-1.38,11.39L304,145.59l-1.39,11.5c-.37,3.07,0,3.59-2.39,5.12-3.8,2.43-7.16,6.39-10.41,9.52s-6.43,6.33-9.58,9.55c-3.69,3.76-7.27,8.64-11.59,11.7-1.49,1.07-.06,3.56,1.45,2.48,3.51-2.49,6.39-6.21,9.37-9.28,5.73-5.89,11.51-11.74,17.56-17.29,2.82-2.59,7.37-4.85,8.09-8.71.54-2.92.72-6,1.07-8.89l3.74-31,1.63-13.49c.25-2.06,1.16-4.94.85-7-.38-2.55-3.56-5.37-5.06-7.48-3.12-4.37-6.08-8.86-8.93-13.42-3.23-5.16-5.95-10.8-9.48-15.75-1.06-1.49-3.56-.06-2.48,1.45Z"/><g id="lips"><path class="cls-2" d="M184.8,150.28s-7.85-10.39-6.74-12.93c1.27-2.9,6.43-2.94,6.43-2.94S187.74,147,184.8,150.28Z"/><path class="cls-11" d="M184.51,134.48c18,4.1,38.2,9.17,60.85,8.34,0,0,2,2,1.95,3a46.28,46.28,0,0,1-2.44,13.34l-1.46.38a112.1,112.1,0,0,1-56.87-8.31c-4-6.34-3.92-12-3.69-16.43Z"/><path d="M184.13,135.87c20.28,4.54,40.26,9.55,61.23,8.39,1.83-.1,1.85-3,0-2.87-20.71,1.15-40.44-3.81-60.47-8.29-1.8-.41-2.57,2.36-.76,2.77Z"/><path d="M245.7,145.36c.64,0-1.07,11.36-1.64,12.17-.91,1.28-5.67,1.13-7.4,1.23a115,115,0,0,1-39.43-4.87c-2.62-.82-6.67-1.65-8.79-3.33-3.68-2.91-4.85-11.11-4.2-15.37.28-1.8-2.49-2.58-2.77-.76-.74,4.84.25,9.3,2.11,13.8,1.77,4.27,3.29,4.9,7.47,6.54a108.35,108.35,0,0,0,29.71,6.57,109.59,109.59,0,0,0,15.9.3c2.32-.14,7.08.3,9.08-1.34,2.41-2,2.57-8.89,2.84-11.92.24-2.61.35-5.71-2.88-5.9-1.84-.1-1.84,2.77,0,2.88Z"/></g><path d="M274,77.32,178.21,69l-13.7-1.19a1.45,1.45,0,0,0-1.43,1.44c-.53,14.47-1.83,28.93-3.09,43.35-1.28,14.7-2.35,29.57-4.82,44.13-.3,1.81,2.46,2.58,2.77.76,2.44-14.39,3.53-29.08,4.81-43.61,1.31-14.84,2.66-29.73,3.2-44.63l-1.44,1.43L260.26,79,274,80.19c1.84.16,1.83-2.71,0-2.87Z"/><path d="M285.65,64c-.66,21.29-2.67,42.57-5.21,63.71-2.63,21.86-5.59,44.06-11.71,65.26a1.44,1.44,0,0,0,2.77.76c6.06-21,9-42.93,11.63-64.55s4.72-43.4,5.39-65.18c.06-1.85-2.81-1.85-2.87,0Z"/><path d="M162.6,170.65c35.47,8.19,71.14,15.61,106.33,25a1.46,1.46,0,0,0,1.63-2.11c-1.86-3.61-4.75-10.32-8.57-12.3a18.42,18.42,0,0,0-4.12-.95l-23-5.31L172.5,160.53,157.19,157a1.45,1.45,0,0,0-1.62,2.11c2.16,3.43,4.47,6.66,5.74,10.55a1.49,1.49,0,0,0,1.39,1.06H163c1.84-.07,1.85-2.95,0-2.88l-.28,0,1.38,1c-1.34-4.12-3.74-7.6-6-11.24l-1.63,2.11L253,182.07a65.79,65.79,0,0,1,7.38,1.7c.58.21,1.16.5.39,0,3.11,2.2,5.65,8,7.32,11.22l1.62-2.11c-35.2-9.35-70.87-16.77-106.34-25C161.56,167.46,160.79,170.23,162.6,170.65Z"/><path class="cls-2" d="M259.61,109.64c-5.14-7.46-14.54-4.25-22.54-3-5.17.82-11.89-.12-13.2-1.44-4.48-6.52-12.61-3-19.67-2.61-6.24.32-13.73-1.13-15-2.4-4.26-6.33-13.1-6.27-18.75-2.5s-4.67,12.44-.67,17.09c5.87,6,31.74,3.14,33.7,5.38,14.73,8.17,25.91,1.49,32.78,6.6,7.79,7.78,25.1,4.31,27-7.64A12.14,12.14,0,0,0,259.61,109.64Z"/><path d="M223.61,110c-2.05,5.17-6.74,9.87-12.7,6.81a8.17,8.17,0,0,1-4.16-12.08c3.6-4,10.82-2.54,14.85.51A5.46,5.46,0,0,1,223.61,110Z"/><path d="M255.65,119.17c-2,5.23-7.31,5.74-12.45,5.75-6.13-.19-7.12-5.73-6.33-9.68,1.57-7.91,9.68-9.78,14.81-7.13C253.3,109.58,257.42,115.42,255.65,119.17Z"/><path d="M192.31,107c-4.56,10.54-14.29,8.61-17.81.83-1.95-5.45,3.23-9.58,9.14-10.33,3.11-.39,5.36,1.07,7.4,3.49C192.42,102.33,192.49,105,192.31,107Z"/><g id="eyes"><path class="cls-12" d="M188,105.62c1.81,1.35,3.67,2.65,5.56,3.89,3.92,2.57.91,9.43-3.07,6.82-2.46-1.61-4.87-3.27-7.21-5l-3.37,4.06c-3.05,3.68-8.68-1.16-5.62-4.84,1.08-1.3,2.15-2.6,3.23-3.89a72.13,72.13,0,0,1-5.47-5.32c-3.21-3.49,1.41-9.31,4.65-5.78a76.37,76.37,0,0,0,5.54,5.41l4.55-5.49c3.05-3.67,8.67,1.17,5.62,4.85Z"/><path class="cls-12" d="M223.11,103.59c-2,2-3.82,4-5.6,6.16a76.74,76.74,0,0,0,7.09,6c3.84,2.84-.84,8.61-4.65,5.78a76.16,76.16,0,0,1-7-5.83c-.89,1.27-1.74,2.56-2.55,3.89-1.06,1.73-2.88,2.73-4.84,1.8-1.62-.77-2.82-3.31-1.77-5,1.26-2.06,2.59-4.06,4-6-1.68-1.89-3.29-3.84-4.81-5.88-2.9-3.86,3-8.21,5.92-4.37q1.67,2.23,3.46,4.3c1.63-1.94,3.33-3.83,5.12-5.64C220.82,95.4,226.47,100.21,223.11,103.59Z"/><path class="cls-12" d="M254.32,129a84.78,84.78,0,0,1-10-6.8c-1.7,2.1-3.49,4.13-5.4,6.06-3.47,3.5-9.37-1.53-5.87-5.07a74.3,74.3,0,0,0,5.42-6.1,81.61,81.61,0,0,1-7.16-7.87c-3.13-4,3.08-8.48,6.19-4.57a68.82,68.82,0,0,0,5.51,6.14,75.92,75.92,0,0,0,5.09-9.31c2.09-4.57,9-1.23,6.91,3.37A85.19,85.19,0,0,1,248.86,116a73,73,0,0,0,8.67,5.89C261.79,124.38,258.62,131.53,254.32,129Z"/></g><path class="cls-13" d="M249.11,2.2c7.82,18,12.4,36.78,15.73,56.1.32,1.82,3.09,1.05,2.77-.76C264.24,38,259.51,19,251.59.75c-.74-1.69-3.21-.23-2.48,1.45Z"/><path class="cls-5" d="M244.66,1.77,200.53,24.43,255.15,37.5S254.72,24.52,244.66,1.77Z"/><path d="M254,129.64a84.37,84.37,0,0,1-9.94-7h0l.67-.07c-1.49,1.85-3,3.64-4.69,5.35a12,12,0,0,1-1.36,1.26,5.18,5.18,0,0,1-.86.49,6.53,6.53,0,0,1-1,.27,4.8,4.8,0,0,1-3.67-1.08,4.22,4.22,0,0,1-1.63-3.48,3.63,3.63,0,0,1,.72-1.87,12.85,12.85,0,0,1,1.23-1.36q2.43-2.53,4.63-5.29h0l0,.65c-1.87-1.8-3.66-3.69-5.35-5.65l-1.25-1.5-.61-.75c-.19-.3-.4-.59-.57-.91a3.87,3.87,0,0,1,.5-4.15,4.7,4.7,0,0,1,3.76-1.82,4.56,4.56,0,0,1,1.09.16,4.46,4.46,0,0,1,1,.46l.46.31a4.54,4.54,0,0,1,.38.38l.37.39.3.37a69.37,69.37,0,0,0,5.16,5.68h0l-.81.09a73.56,73.56,0,0,0,4.16-7.72l.46-1a8.28,8.28,0,0,1,.51-1A4.15,4.15,0,0,1,249.6,99a4.25,4.25,0,0,1,2.62-.31,4.84,4.84,0,0,1,2.36,1.09,4.49,4.49,0,0,1,1.49,4.89l-.21.63-.23.51-.46,1-1,2a86.85,86.85,0,0,1-4.39,7.82h0l-.24-1.53q2.15,1.77,4.42,3.36,1.14.8,2.31,1.56l1.17.74c.21.13.39.23.61.38l.69.51a4.85,4.85,0,0,1,1.57,3,5.44,5.44,0,0,1-.58,3.23,4.41,4.41,0,0,1-2.49,2.22A4,4,0,0,1,254,129.64Zm.7-1.21a2.62,2.62,0,0,0,2.11.24,2.91,2.91,0,0,0,1.53-1.52,3.38,3.38,0,0,0-.75-4.08l-.45-.32c-.17-.11-.41-.23-.61-.34l-1.23-.72q-1.23-.72-2.43-1.5c-1.61-1-3.17-2.13-4.69-3.28l-.85-.64.6-.89h0a84.77,84.77,0,0,0,4.54-7.46l1-1.94.48-1,.24-.49.15-.42a3,3,0,0,0,.18-.83,2.84,2.84,0,0,0-.1-.82,2.71,2.71,0,0,0-.91-1.42,3.22,3.22,0,0,0-1.58-.8,2.63,2.63,0,0,0-1.69.13A2.57,2.57,0,0,0,249,101.5a6.8,6.8,0,0,0-.49.91l-.5,1a73,73,0,0,1-4.5,7.7l-.36.54-.45-.45h0a69.92,69.92,0,0,1-5.23-5.78l-.3-.38-.3-.31c-.1-.1-.19-.21-.3-.3l-.35-.23a3.38,3.38,0,0,0-.74-.36,4.51,4.51,0,0,0-.82-.12,3.75,3.75,0,0,0-3,1.43,2.88,2.88,0,0,0-.39,3.1c.14.25.31.48.46.72l.6.75,1.23,1.48c1.66,2,3.42,3.81,5.27,5.6l.31.3-.27.34h0c-1.48,1.85-3,3.65-4.68,5.36-.87.87-1.62,1.6-1.68,2.64a3.26,3.26,0,0,0,1.28,2.66,3.87,3.87,0,0,0,2.92.87c.24-.06.49-.12.73-.2a5.57,5.57,0,0,0,.67-.39,7.31,7.31,0,0,0,.61-.52l.62-.63q2.43-2.53,4.63-5.28l.3-.37.37.29h0A84.94,84.94,0,0,0,254.67,128.43Z"/><path d="M223.67,104.15c-.94,1-1.86,2-2.72,3.11a37.8,37.8,0,0,0-2.43,3.33h0l-.11-1.79c1.73,1.74,3.54,3.4,5.43,5l1.45,1.17a4.71,4.71,0,0,1,1.42,1.91,4,4,0,0,1,.17,2.39,5,5,0,0,1-1,2,4.77,4.77,0,0,1-4,1.76l-.57-.08c-.18,0-.36-.12-.54-.18a3.83,3.83,0,0,1-1-.52c-.59-.39-1-.78-1.52-1.18-1.95-1.59-3.81-3.28-5.59-5h0l.72-.07-1.6,2.43-.8,1.22a7.3,7.3,0,0,1-.94,1.25,4.15,4.15,0,0,1-2.93,1.34,3.87,3.87,0,0,1-1.62-.36,3.74,3.74,0,0,1-1.33-1,4.72,4.72,0,0,1-1.2-3,3.29,3.29,0,0,1,.38-1.64c.27-.47.54-.84.81-1.26l3.25-4.91v0l0,.6-4-4.76c-.33-.4-.67-.77-1-1.21-.15-.24-.31-.49-.45-.74s-.21-.56-.3-.85a4,4,0,0,1,.85-3.37,4.74,4.74,0,0,1,3-1.73,4.1,4.1,0,0,1,3.35,1.13c.19.22.42.45.58.65l.49.59,1,1.18,1.94,2.36h-1.09l3.29-3.52,1.61-1.79a7.09,7.09,0,0,1,1-.88,3.7,3.7,0,0,1,.61-.35,2.3,2.3,0,0,1,.66-.25,4.78,4.78,0,0,1,5,1.7,3.91,3.91,0,0,1,.92,2.7A4.29,4.29,0,0,1,223.67,104.15ZM222.55,103a2.81,2.81,0,0,0,.82-1.6,2.43,2.43,0,0,0-.55-1.73,3.33,3.33,0,0,0-3.49-1.31,1.5,1.5,0,0,0-.46.17c-.14.09-.29.14-.42.24a5.21,5.21,0,0,0-.79.73l-1.59,1.75c-1,1.19-2.11,2.36-3.14,3.56l-.58.66-.52-.65v0l-1.93-2.44-1-1.22-.48-.61c-.16-.2-.3-.33-.44-.5a2.76,2.76,0,0,0-2.27-.83,3.49,3.49,0,0,0-2.23,1.24,2.81,2.81,0,0,0-.67,2.37l.21.61.33.58c.28.39.63.79.94,1.19l3.84,4.78.23.29-.2.31h0L205,115.49c-.25.4-.56.83-.78,1.2a2.35,2.35,0,0,0-.26,1.18,3.77,3.77,0,0,0,1,2.35,3,3,0,0,0,1,.75,3.09,3.09,0,0,0,1.22.27,3.16,3.16,0,0,0,2.25-1,6.52,6.52,0,0,0,.82-1.08l.81-1.24,1.61-2.46.3-.45.43.37h0c1.85,1.64,3.77,3.2,5.77,4.65.49.35,1,.77,1.48,1a2.36,2.36,0,0,0,.69.31,3.57,3.57,0,0,0,.35.1l.35,0a3.07,3.07,0,0,0,2.5-1.3,2.55,2.55,0,0,0,.4-2.56,2.67,2.67,0,0,0-.85-1l-1.52-1.1a75,75,0,0,1-5.88-4.8l-1-.92.92-.86h0c1-1,2-2,3-3Z"/><path d="M188.86,105.51c1.8,1.08,3.45,2.12,5.11,3.34a4.71,4.71,0,0,1,2.06,3.3,5.35,5.35,0,0,1-.85,3.73,4,4,0,0,1-1.51,1.32,3.77,3.77,0,0,1-1,.32,3.58,3.58,0,0,1-1-.06,3.06,3.06,0,0,1-.95-.33,4.46,4.46,0,0,1-.79-.48l-1.39-1-5.52-4,.66-.08c-1.18,1.4-2.3,2.8-3.53,4.21a3.7,3.7,0,0,1-2.72,1.33,4.24,4.24,0,0,1-2.83-1,4.45,4.45,0,0,1-1.56-2.57,3.9,3.9,0,0,1,.65-3,10.46,10.46,0,0,1,.87-1.11l.87-1,1.75-2.11.05.66q-2.58-2.17-5-4.6l-.59-.61c-.19-.23-.39-.49-.59-.75a8.69,8.69,0,0,1-.44-.86,7.81,7.81,0,0,1-.25-1,5.22,5.22,0,0,1,.9-3.68,4,4,0,0,1,3.49-1.85c1.52,0,2.59,1.33,3.26,2,1.55,1.57,3.18,3.08,4.86,4.52h0l-1.37.1,4.1-4.9c.18-.21.33-.4.53-.62s.46-.47.7-.68a8.79,8.79,0,0,1,.87-.53,5.12,5.12,0,0,1,1-.3,4.69,4.69,0,0,1,3.72,1.08,4.8,4.8,0,0,1,1.76,3.4,3.13,3.13,0,0,1-.07,1,3.51,3.51,0,0,1-.3.95,3.8,3.8,0,0,1-.5.85,4.34,4.34,0,0,1-.5.64C191.56,102.7,190.26,104.07,188.86,105.51Zm-1.73.21c1.32-1.83,2.74-3.75,4.23-5.56a4.6,4.6,0,0,0,.47-.62,1.68,1.68,0,0,0,.31-.53,1.84,1.84,0,0,0,.18-.56,1.37,1.37,0,0,0,0-.57,3,3,0,0,0-1.12-2.1,2.86,2.86,0,0,0-2.23-.66,3.27,3.27,0,0,0-.53.17c-.17.08-.33.21-.5.3l-.43.43-.51.6L183,101.56l-.64.77-.74-.67h0c-1.67-1.53-3.28-3.13-4.81-4.8l-.57-.63c-.2-.23-.34-.32-.51-.5a3.58,3.58,0,0,0-.52-.34,3,3,0,0,0-.57-.15,2.52,2.52,0,0,0-2.19,1.15,3.79,3.79,0,0,0-.77,2.65c0,.23.1.46.16.69s.18.43.3.64l.43.58.55.62c1.5,1.64,3.09,3.2,4.73,4.71l.35.31-.29.35-1.75,2.11-.87,1a11.59,11.59,0,0,0-.82,1,2.89,2.89,0,0,0-.5,2.23,3.52,3.52,0,0,0,1.23,2,3.34,3.34,0,0,0,2.19.81,2.77,2.77,0,0,0,2-1c1.16-1.35,2.33-2.79,3.49-4.18l.28-.34.38.26,5.59,3.77,1.4,1a4.11,4.11,0,0,0,.66.37,2,2,0,0,0,.65.21,2.15,2.15,0,0,0,2.2-1.11,3.94,3.94,0,0,0,.54-2.74,3.19,3.19,0,0,0-1.48-2.23C191.08,108.78,189,107.24,187.13,105.72Z"/></g><g id="foot_2" data-name="foot 2"><path class="cls-9" d="M87.52,310.7c15.39,22.38,26.45,38.52,32.69,64.95,0,0-16.74,3.35-27.62,7.53-5.85-15.06-21-43.39-36-55.23Z"/><path d="M86.28,311.42c14,20.3,26.68,40.38,32.55,64.61l1-1.76a180.75,180.75,0,0,0-27.62,7.53l1.77,1a189.81,189.81,0,0,0-14.72-29.17c-5.94-9.71-12.73-19.46-21.64-26.7l-.29,2.26,30.92-17.25a1.44,1.44,0,0,0-1.45-2.48L55.88,326.71a1.45,1.45,0,0,0-.29,2.26c8.74,7.09,15.36,16.58,21.19,26.11a184.41,184.41,0,0,1,14.43,28.49,1.46,1.46,0,0,0,1.77,1A180.31,180.31,0,0,1,120.59,377a1.47,1.47,0,0,0,1-1.77c-5.93-24.46-18.74-44.79-32.84-65.3C87.72,308.46,85.23,309.89,86.28,311.42Z"/><path class="cls-3" d="M55.77,328.79c13.39,12.55,21.76,25.1,33.48,51.88,0,0-6.7-7.53-12.56-11.71a113,113,0,0,0-28.45-41.85Z"/><path d="M55.18,329.38c15.39,14.28,25.63,32.67,33.1,52.09.66,1.71,3.44,1,2.77-.76C83.4,360.82,73,342,57.21,327.35c-1.36-1.25-3.39.77-2,2Z"/><path d="M57.21,329.48c10.48-6,20.63-12.44,30.67-19.12,1.53-1,.09-3.51-1.45-2.48C76.39,314.56,66.24,321,55.76,327a1.44,1.44,0,0,0,1.45,2.48Z"/><path d="M92.56,384.15c8.26-2.18,16.19-5.61,24.72-6.64,1.81-.22,1.84-3.1,0-2.88-8.81,1.07-17,4.5-25.49,6.75a1.44,1.44,0,0,0,.77,2.77Z"/><path d="M86.51,310a178.58,178.58,0,0,1,32.74,67.25c.43,1.79,3.2,1,2.76-.76A181.86,181.86,0,0,0,88.54,308c-1.13-1.46-3.15.58-2,2Z"/></g><g id="body"><path d="M162.47,198.87Q229.16,212.51,296.88,220c1.83.2,1.82-2.67,0-2.87q-67.27-7.41-133.65-21c-1.8-.36-2.57,2.4-.76,2.77Z"/><path d="M160.26,198.1c4.91,25.45,9.07,51,13.66,76.55,4.18,23.3,9.82,46.64,11.78,70.27.15,1.83,3,1.85,2.87,0-1.93-23.32-7.43-46.33-11.57-69.31-4.71-26.08-8.95-52.25-14-78.27-.35-1.82-3.12-1.05-2.77.76Z"/><path d="M330.88,193.64c-2,27.09-4.19,54.16-6.24,81.25-1.47,19.44-3.24,39.18-7,58.32a20.72,20.72,0,0,1-1.53,5.74c-1.9,3.64-5.33,6.88-8,9.95-6,6.82-12,13.58-18.06,20.37-1.22,1.38.8,3.42,2,2q8.25-9.32,16.52-18.62c3.58-4.05,9-8.79,10.79-14,2.92-8.67,3.36-18.78,4.47-27.81,2.8-22.76,4.37-45.6,6.14-68.45q1.89-24.39,3.75-48.79c.14-1.84-2.73-1.83-2.87,0Z"/><path d="M293.7,365c1.85-27.32,3.12-54.7,4.37-82.05.64-14.14,1.25-28.28,1.72-42.42.17-5,.33-10.07.42-15.1a30.21,30.21,0,0,0,.06-5.46c-.14-.79.46-2.5-.69-.74a3.85,3.85,0,0,1,1.05-.77c11.3-6.92,21.52-16,32.41-23.59,1.51-1,.07-3.54-1.45-2.48-10.36,7.21-20.47,14.79-30.63,22.28-2.57,1.89-3.56,2.24-3.56,5.54,0,4.52-.13,9-.26,13.56-.86,29.64-2.34,59.26-3.88,88.86-.73,14.13-1.47,28.26-2.43,42.37-.12,1.85,2.75,1.84,2.87,0Z"/><path d="M162.61,199.1c12-2.9,23.54-7.34,35.39-10.78a1.44,1.44,0,0,0-.76-2.77c-11.85,3.44-23.38,7.88-35.39,10.78-1.8.44-1,3.21.76,2.77Z"/><path d="M297.21,190.05c11.65,1,23.2,3.3,34.77,5,1.81.25,2.59-2.51.76-2.77-11.82-1.7-23.62-4-35.53-5.08-1.84-.16-1.83,2.71,0,2.88Z"/><path d="M187.62,347.06a465.58,465.58,0,0,0,103.1,23.38c1.83.21,1.82-2.67,0-2.87a462.38,462.38,0,0,1-102.34-23.28c-1.74-.61-2.5,2.16-.76,2.77Z"/></g><g id="leg_1" data-name="leg 1"><path class="cls-2" d="M237.08,376.2c1.45-11.31,14.73-31.23,16.69-33.34,7.18-7.71,22.41-4.45,23.79,5.14,2.08,12.33-4.15,20.7-6.22,30.29Z"/><path d="M238.47,376.59c1.14-7.45,4.93-14.42,8.63-20.88,2.56-4.46,5.48-11,10.06-13.78,7.37-4.51,18.2-1.08,19.18,8,1.09,10-4.15,18.56-6.39,28l1.39-1.05-34.26-2.09c-1.84-.12-1.83,2.76,0,2.87l34.26,2.09a1.45,1.45,0,0,0,1.38-1.06c2.49-10.47,9.14-20.93,6-32.09-2-7.28-10.51-10.37-17.42-9.19-7.3,1.25-10.67,6.95-14.25,12.76-4.79,7.76-10,16.52-11.37,25.67C235.42,377.63,238.19,378.41,238.47,376.59Z"/></g><g id="foot_1" data-name="foot 1"><path class="cls-6" d="M271.19,365.74s-46.37-5.15-65.49-3.25c-2.5,3.57-6.71,10.69-9.33,13.16a476.36,476.36,0,0,1,67.37,5.44c3.34-4.18,6.58-11.65,7.53-15.06"/><path class="cls-2" d="M263.74,381.09c4.18,15.9,5,36.82,3.34,61.09,6.7-12.55,9.39-60.06,4.11-76.44Z"/><path class="cls-7" d="M197.46,439q33.43,2.42,66.8,5.67s1.69-11.32,2.08-17.38c1.11-16.78-.92-40.52-2.61-46.56-4.58-1.08-46.92-5-67.2-4.71,1.17,14,3,41,1.19,61.47"/><path d="M197.46,440.47q33.43,2.41,66.8,5.67a1.46,1.46,0,0,0,1.39-1.06,197.12,197.12,0,0,0,2.43-31.26c-.14-10.93-.19-22.8-3-33.45a1.44,1.44,0,0,0-1-1c-8.89-1.93-18.42-2.16-27.45-2.88-13.33-1.06-26.75-2-40.13-1.87a1.44,1.44,0,0,0-1.43,1.43c1.67,20.39,2.85,41,1.18,61.47-.15,1.84,2.73,1.83,2.88,0,1.67-20.43.49-41.08-1.19-61.47l-1.44,1.44a419.11,419.11,0,0,1,64.58,4.28,5.88,5.88,0,0,1,1.52.23c1,.46-.39-1.21,0,.3a56.22,56.22,0,0,1,1.07,7.06c.77,6.56,1.18,13.17,1.4,19.77a196.37,196.37,0,0,1-2.22,35.19l1.38-1.06q-33.36-3.24-66.8-5.67c-1.85-.13-1.84,2.74,0,2.88Z"/><path d="M267.76,368.07a45,45,0,0,1-3.81,9.19c-.89,1.62,1.59,3.07,2.48,1.45a47.92,47.92,0,0,0,4.1-9.88,1.44,1.44,0,0,0-2.77-.76Z"/><path d="M197.8,376.25a54.45,54.45,0,0,0,4.29-5.17c1.31-1.76,2.92-6.07,4.64-7.13s5.84-.48,7.83-.53c3.21-.08,6.42-.07,9.62,0,11.75.22,23.48,1.14,35.15,2.37,3.32.35,6.63.8,9.94,1.15a5.49,5.49,0,0,1,1.29.16c.79.29,0,0,0-.07-.6-.87,0,1.94.12,2.32.24,1.08.43,2.16.61,3.25,1.79,11.16,1.49,22.77.83,34-.65,11.07-1.41,22.88-5,33.45-.6,1.75,2.17,2.51,2.77.77,4-11.6,4.7-24.74,5.28-36.88.61-12.56,1.19-26.4-2.54-38.58a1.4,1.4,0,0,0-1-1c-21.61-2.93-44.11-5.23-65.88-3.31a1.46,1.46,0,0,0-1.24.72,45,45,0,0,1-8.69,12.45c-1.28,1.33.75,3.37,2,2Z"/></g><path class="cls-7" d="M318.71,225.83s-8.53,1.69-9.36,27.64c-.62,19.25.83,32.64,5,28.45s1.32-34.42,9.45-38.13S318.71,225.83,318.71,225.83Z"/><g id="arm_1-2" data-name="arm 1"><path class="cls-2" d="M377.55,315c-2.23-11.06-4.16-23.49-9-33.69S356,261.82,345.63,257.43c-8.43-3.56-18.4-3.89-25.51-9.64-3.83-3.1-6.53-7.84-6.35-12.76s3.65-9.77,8.48-10.76l5.37-.67a9.39,9.39,0,0,1,2.8.08c19.41,3.63,35.77,11.49,47.55,27.28,13.2,17.68,17.54,43.63,18,65.69A44.85,44.85,0,0,0,377.55,315Z"/><path class="cls-3" d="M366.92,275.09c-4-9.84-13.27-19.61-22.82-24.11-7.14-3.37-26.49-9.35-27.24-8.85-1.59,1.08,2.74,4.73,3.89,5.63,7.68,5.93,18.77,6.17,27.17,10.13a30.41,30.41,0,0,1,10.31,7.58c1.46,1.82,3,3.78,4.22,5.43.86,1.15,1.19,3.64,2.44,4.29C364.67,275.08,367.86,277.4,366.92,275.09Z"/><path class="cls-4" d="M376.3,292s7.53-3.34,11.71,16.74c.71,3.38,5.86,3.35,4.92,7.11a61.65,61.65,0,0,0-15-.41C382.15,313.72,371.28,293.64,376.3,292Z"/><path d="M328.65,224.81c19.86,3.64,37.94,12.81,49.49,29.86,12,17.77,15.85,40.08,16.39,61.14,0,1.85,2.92,1.86,2.87,0-.56-22.05-4.66-45.54-17.68-63.88-12-16.93-30.24-26.21-50.31-29.89-1.81-.33-2.58,2.44-.76,2.77Z"/><path d="M321.86,222.88c-8,2.27-11.37,10.94-8.35,18.43,3.84,9.5,14,12.3,23,14.7,12.16,3.25,21.38,9.66,27.94,20.56,6.86,11.39,9.49,24.67,12.09,37.55.37,1.81,3.14,1,2.77-.77-3.83-19-8.47-39.9-24.73-52.34-7-5.35-15-6.89-23.25-9.39-5.53-1.69-11.33-4.29-14.24-9.61-3.36-6.12-1.78-14.26,5.58-16.36a1.44,1.44,0,0,0-.77-2.77Z"/><path d="M332.27,253.06c-.73-9.6,2.47-21,12.49-24.23.3-.1-1.85-4.08-3-3.7-10.1,3.27-13.35,14.91-12.62,24.56.1,1.31,3.18,3.51,3.17,3.37Z"/><path d="M350.46,258.79c-1.2-9,2.41-18.6,11.56-21.51.56-.18-2.77-2.6-4.09-2.19-9.47,3-13.11,13-11.87,22.26.16,1.2,4.54,2.45,4.4,1.44Z"/><path d="M364.72,270.36c-.19-8.13,4.61-15,12.89-16,2.85-.37.73-4.58-1.79-4.25-9.6,1.23-15.79,9.63-15.57,19.13.06,2.53,4.54,4,4.47,1.14Z"/><path d="M373.87,288.32c2.65-5.24,8.2-11.62,15-11.3,3,.14,1.8-4.3-.88-4.42-8.36-.4-15,6.91-18.47,13.81-1.21,2.39,3.06,4.44,4.35,1.91Z"/><path d="M379.26,308.45a18.36,18.36,0,0,1,14.5-5.79c2.5.14,4.19-3.64,1.06-3.82a24.34,24.34,0,0,0-19,7.6c-2.09,2.32,1.73,3.87,3.42,2Z"/></g><polygon class="cls-14" points="453.03 226.69 467.26 271.75 416.18 242.44 382.58 269.74 387.66 220.63 348.73 197.16 399.24 186.59 393.98 130 437.01 176.91 469.82 163.55 459.71 192.88 504.36 202.91 453.03 226.69"/><polygon class="cls-15" points="392.75 201.78 371.36 172.08 405.69 182.21 422.03 145.1 432.18 188.43 454.23 181.06 449.55 200.66 476.81 204.04 445.86 222.23 451.29 249.82 423.47 226.48 355.49 236.51 392.75 201.78"/><path class="cls-16" d="M352.24,395.9c21.62,5.14,34.21,2.82,34.21,2.82l1.48-7s-17.09-7.94-21-9.89-5.84-6.69-4-14.54c2.94-12.37,12.64-56.06,15.23-58.69,2.3,0,6.39-2.07,8.67-5.63,52.92-9.48,43.33-102,43.33-102A366.71,366.71,0,0,0,370,186.6s-50.2,78.34-7.21,110.61a13.84,13.84,0,0,0,5.21,8.93c1.13,3.51-9.87,46.89-12.81,59.27-1.86,7.84-5.74,11.2-10.09,11.19s-23.19-.61-23.19-.61l-1.48,7S330.62,390.76,352.24,395.9Z"/><path class="cls-13" d="M351.72,271.13l3.11-20.19s7.39-19.43,19.42-3.81c13.28,17.26,41.32,18.11,43,18.64-1.41,5.92-3.81,24.11-30.79,32.37-9-1.15-12.59-1.87-20.49-4.87C365.94,293.27,352.93,282.24,351.72,271.13Z"/><path d="M372.06,305l2.79.66s3.84-3.72,2.52-4.35c-.85-.4-5.25-1.52-5.82-1.13C370.51,300.94,372.06,305,372.06,305Z"/><path d="M417.22,265.77c-1.41,5.92-3.81,24.11-30.79,32.37-9-1.16-12.59-1.87-20.49-4.87,0,0-13-11-14.22-22.14l.41-2.66c1.76,10.8,14.1,21.26,14.1,21.26,7.9,3,11.5,3.72,20.49,4.87,22.91-7,28.09-21.18,30-28.92A3.05,3.05,0,0,1,417.22,265.77Z"/><polygon class="cls-13" points="410.08 236.27 408.07 237.18 408.97 234.21 404.88 233.45 409.78 230.95 408.52 227.42 413.28 230.64 416.66 227.29 416.37 231.69 419.83 233.61 414.95 234.82 413.97 241.12 410.08 236.27"/><polygon class="cls-13" points="401.9 218.47 400.27 219.21 401 216.81 397.7 216.19 401.66 214.18 400.64 211.32 404.49 213.93 407.21 211.22 406.98 214.78 409.77 216.32 405.83 217.3 405.04 222.39 401.9 218.47"/><path d="M323.12,376.19a98,98,0,0,0,15.25,6.86,119.89,119.89,0,0,0,16.14,4.5A146.82,146.82,0,0,0,371.09,390a167.24,167.24,0,0,0,16.75.5l.05,3.89c-5.72-.05-11.44-.27-17.14-.89a151.63,151.63,0,0,1-16.92-2.85,123.61,123.61,0,0,1-16.41-5,101.43,101.43,0,0,1-15.5-7.39Z"/><polygon class="cls-17" points="364.92 147.46 362.9 148.37 363.81 145.4 359.72 144.64 364.62 142.14 363.36 138.61 368.12 141.83 371.5 138.48 371.21 142.88 374.67 144.8 369.79 146.01 368.81 152.31 364.92 147.46"/><polygon class="cls-17" points="437.49 150.4 434.37 151.81 435.77 147.22 429.44 146.04 437.03 142.18 435.07 136.71 442.44 141.7 447.67 136.51 447.22 143.32 452.57 146.29 445.03 148.16 443.5 157.9 437.49 150.4"/><path d="M360.23,378.36s-.9,6.91.58,8.23,10.35,2.76,12.72,2.54C370.22,387.38,362.8,384.84,360.23,378.36Z"/><g id="leg_2" data-name="leg 2"><path class="cls-3" d="M117.93,347.6s6,14.11,6.62,24c5-2.32,39.73-16.94,77.66-22.58,6-.71,13.75-5.37,8.12-16.59-6-12-34.16-3.93-34.16-3.93S124.55,340.54,117.93,347.6Z"/><path class="cls-2" d="M211.43,341.34c-28.05-.87-81.61,20.83-88.09,23.21-1.51-4.48-5.41-16.95-5.41-16.95a7.67,7.67,0,0,1,1.38-1.13c6.53-3,13.62-5.79,20.94-8.32,16.53-5.14,35.92-9.66,35.92-9.66s.85-.25,2.29-.58c4.33-.81,8.52-1.48,12.49-1.94,7.8-.53,15.46-1.37,19.39,6.46C212.28,336.31,212.27,338,211.43,341.34Z"/><path class="cls-7" d="M211.78,337.1c-24.4-.76-69.63,14.34-85.25,19.84a5.1,5.1,0,0,1-6.53-3.18c-1.1-3.26-2.07-6.16-2.07-6.16a7.67,7.67,0,0,1,1.38-1.13c6.53-3,13.62-5.79,20.94-8.32,16.53-5.14,35.92-9.66,35.92-9.66s.85-.25,2.29-.58c4.33-.81,8.52-1.48,12.49-1.94,7.8-.53,16.36.45,19.39,6.46C210.56,332.88,211.61,336.67,211.78,337.1Z"/><path d="M118.35,348.48A256.84,256.84,0,0,1,162,333.09c6.93-1.81,13.94-3.35,21-4.54,6-1,14.18-3.21,20.12-.95,6.1,2.31,10.78,11.78,5.25,17.09-3.23,3.09-8.8,3.29-12.88,4-12.15,2.25-24.38,4.15-36.14,8-11.06,3.62-22.31,7.42-32.76,12.56-1.66.82-.21,3.3,1.45,2.48,11.14-5.47,23.23-9.52,35.06-13.23a170,170,0,0,1,19.22-4.46c7.44-1.42,15.49-2.06,22.72-4.35,9-2.85,11.32-14.1,4.88-21.08-4.23-4.59-10-5-15.86-4.46a195.09,195.09,0,0,0-22.53,3.67A262.1,262.1,0,0,0,116.91,346c-1.68.78-.22,3.26,1.44,2.48Z"/></g><g id="hand_1-2" data-name="hand 1"><path class="cls-5" d="M377.55,315a30.85,30.85,0,0,0-13.2,5.64,23.09,23.09,0,0,0-8.53,17.4c-.2,10,1.54,19.3,11.21,26.84,4,3.1,9.11,4.23,14.1,4.95,9.41,1.35,21.67-1.42,27.49-14.24,3.4-7.47,4.14-17.62.71-25.07s-6.39-12.1-13.52-13.95C389.78,315,384.25,314.14,377.55,315Z"/><path class="cls-5" d="M355,335.9c-4.19-.84-10-1.67-11.72-.84a38.24,38.24,0,0,1,2.88,10.76c3.45,0,6.22.09,9.67.12A41.05,41.05,0,0,1,355,335.9Z"/><path class="cls-5" d="M386.39,369.19,385,382.79h-1.14a17.08,17.08,0,0,1-9-1.89s2.37-8.49,2.09-13.13Z"/><path class="cls-5" d="M411.86,340.92c4.59,1.75,14.38,5.65,14.38,5.65V356a103.93,103.93,0,0,0-15.72-4.7C411.89,348.42,411.86,345.94,411.86,340.92Z"/><path class="cls-5" d="M360.06,357.63a58.73,58.73,0,0,1-6.36,6.31c2.3,1.53,3.16,3,4.78,5.24l.1,0a26.55,26.55,0,0,0,6.25-5.42A23.54,23.54,0,0,1,360.06,357.63Z"/><path class="cls-5" d="M405,362.36c1.36,2.06,4.93,6.16,4.93,6.16-1.58,1.38-4.9,4.77-4.9,4.77l-5.67-6.43Z"/><path class="cls-6" d="M378.24,329.44a39.67,39.67,0,0,0-1.13,15.75l-9.6,2.43c-.84-5.86-1.67-14.23,2.51-17.55A37,37,0,0,1,378.24,329.44Z"/><path d="M355.81,334.17c-3.91.15-7.82.29-11.73.29a1.45,1.45,0,0,0-1.44,1.44,51.81,51.81,0,0,0,2.09,10.31,1.49,1.49,0,0,0,1.39,1.05l9.67.12a1.44,1.44,0,0,0,0-2.87l-9.67-.12,1.38,1.05a47.74,47.74,0,0,1-2-9.54l-1.43,1.44c3.91,0,7.82-.15,11.73-.29,1.84-.07,1.85-2.95,0-2.88Z"/><path d="M384.48,370.21c0,4.22-.49,8.39-.93,12.58l1.43-1.44c-3.33,0-6.32-.2-9.38-1.69l.71,1.24a57.62,57.62,0,0,1,1.79-11.14c.43-1.8-2.33-2.57-2.77-.77a61.69,61.69,0,0,0-1.89,11.91,1.41,1.41,0,0,0,.71,1.24A23,23,0,0,0,385,384.22a1.46,1.46,0,0,0,1.44-1.43c.44-4.19.9-8.36.94-12.58a1.44,1.44,0,0,0-2.88,0Z"/><path d="M410.81,342.5c5,1.89,10,3.67,15,5.46l-1.05-1.39a42.66,42.66,0,0,1-.93,8.2l1.77-1c-4.93-1.23-9.86-2.47-14.74-3.85a1.43,1.43,0,0,0-.76,2.76c4.88,1.39,9.81,2.63,14.73,3.86a1.45,1.45,0,0,0,1.77-1,46.52,46.52,0,0,0,1-9,1.46,1.46,0,0,0-1.05-1.38c-5-1.79-10.06-3.57-15.05-5.46-1.73-.66-2.48,2.12-.76,2.77Z"/><path d="M359,355.81a73.35,73.35,0,0,0-6.08,7.82,1.44,1.44,0,0,0,.22,1.74l4.46,4.84a1.44,1.44,0,0,0,1.74.23,76.57,76.57,0,0,0,6.54-5.65c1.33-1.28-.7-3.31-2-2a70.21,70.21,0,0,1-6,5.2l1.75.22-4.47-4.84.23,1.74a68.1,68.1,0,0,1,5.63-7.24c1.29-1.33-.74-3.36-2-2Z"/><path d="M404.54,363.08l4.08,6.17a1.47,1.47,0,0,0,1.63.66h0l-1.4-2.41c-1.71,1.52-3.31,3.15-4.9,4.77h2l-6.08-6.9c-1.22-1.39-3.25.65-2,2l6.08,6.9a1.45,1.45,0,0,0,2,0c1.59-1.62,3.19-3.25,4.9-4.76a1.45,1.45,0,0,0-1.4-2.4h0l1.62.66L407,361.63c-1-1.53-3.5-.09-2.48,1.45Z"/><path d="M395.93,318c14,5.07,17,23.16,11.74,35.64-4.64,10.94-15.51,16.1-27,14.57-7.9-1.05-14.7-4-19.26-10.86-3.74-5.64-4.85-13.33-4.15-20,1.51-14.31,15.52-20.78,28.29-20.84,1.85,0,.41-3.15-.93-3.15-11.78.05-23.32,4.28-28.37,15.86-4.37,10-1.43,23.91,5.51,32.1,7.4,8.71,20.25,12.25,31.3,9.52,12.13-3,19-14.14,19.77-26.13s-5.35-25.4-17.15-29.68c-2-.72-1,2.48.25,2.95Z"/></g><path d="M48.48,329.38c7.48,7.66,13.68,17,19.28,26.09,1.61,2.61,3.17,5.27,4.61,8,1.1,2.08,1.85,4.85,3.3,6.69,1.58,2,4.25,3.74,6,5.65,2.4,2.59,4.69,5.28,7,8,1.19,1.42,3.21-.62,2-2-2.26-2.71-4.55-5.39-7-8-1.7-1.83-4.08-3.47-5.63-5.39-1.81-2.24-2.84-5.68-4.23-8.19-1.5-2.73-3.12-5.4-4.78-8-5.46-8.59-11.42-17.49-18.57-24.81-1.29-1.32-3.32.71-2,2Z"/><path d="M47.39,327.38c2.93.6,5.88,1.17,8.75,2,1.78.53,2.53-2.24.76-2.76-2.87-.86-5.81-1.43-8.74-2-1.81-.38-2.58,2.39-.77,2.77Z"/><path d="M48.79,327a95.34,95.34,0,0,1,18.94-14c2.6-1.52,5.65-3.67,8.6-4.21a24.93,24.93,0,0,1,9.92.67,1.44,1.44,0,0,0,.76-2.77,29.39,29.39,0,0,0-10.36-.79c-3.05.33-5.7,2-8.38,3.48A99,99,0,0,0,46.76,325c-1.32,1.3.71,3.33,2,2Z"/><path class="cls-7" d="M293.56,157.92c-1.45-.78-1.16-6.37-.24-8.2.61-1.21,4.72-3.25,5.32.43S295.31,158.87,293.56,157.92Z"/><path class="cls-6" d="M299.73,146.61a89.25,89.25,0,0,1,9.16-5.56l3.1-21.53s-7.36-6.07-11.76-9.91l-3.33.53L294,145.83Z"/><path class="cls-7" d="M299.73,146.61l3.83-3.09c-2.26-3.58-1.88-18.84,1.9-23.63-3.95-3.72-5.76-5.93-7.65-10.52-1.63,9.77-2.82,24.57-3.78,36.46Z"/><path d="M295.52,110.14l-2.86,35.69c-.15,1.77,2.61,1.76,2.75,0l2.86-35.69c.15-1.76-2.61-1.75-2.75,0Z"/><path d="M305.63,121a42.9,42.9,0,0,0-2.24,17.09c.07,1.32,2.14,1.32,2.07,0a41.26,41.26,0,0,1,2.16-16.54c.45-1.25-1.55-1.79-2-.55Z"/><path d="M297.45,109.67c4,4.31,9,7.82,13.84,11l-.63-1.56a72.33,72.33,0,0,0-3,17.53c-.22,3.23.92,2.94-1.75,4.44a61.86,61.86,0,0,0-6.88,4.3c-1.39,1.05,0,3.44,1.39,2.37a71.55,71.55,0,0,1,9.16-5.55,1.37,1.37,0,0,0,.68-1.19,69.51,69.51,0,0,1,3.05-21.16,1.4,1.4,0,0,0-.63-1.56,70.84,70.84,0,0,1-13.28-10.6c-1.21-1.3-3.15.65-1.95,1.94Z"/><path d="M264.59,243.28a54.29,54.29,0,0,0,15,2,1,1,0,0,0,0-2.06,52,52,0,0,1-14.41-1.9,1,1,0,0,0-.54,2Z"/><path d="M282.4,226.81A127.86,127.86,0,0,1,264.92,224a1,1,0,0,0-1.26.72c-1.29,5.46-2,11.5-.92,17,.26,1.3,2.25.75,2-.55-1-5.15-.28-10.89.92-16l-1.27.72a130.85,130.85,0,0,0,18,2.92c1.32.09,1.32-2,0-2.06Z"/><path d="M282.06,228.58a34.36,34.36,0,0,0-1.05,17c.24,1.31,2.23.75,2-.55a32.09,32.09,0,0,1,1.05-15.86c.4-1.27-1.59-1.81-2-.55Z"/><path class="cls-5" d="M273.54,230.67c-5.46-1.27-7.06,3.45-6.14,5.28a5,5,0,0,0,4.13,3.14,5.32,5.32,0,0,0,5.27-2.5C277.8,234.78,276.57,231.37,273.54,230.67Z"/><path d="M273.73,230c-2.75-.55-5.72.08-6.88,2.92a5,5,0,0,0,2.64,6.27c2.73,1.39,7,.37,8.11-2.72,1-2.83-1.24-5.71-3.87-6.47a.69.69,0,0,0-.37,1.33c1.94.56,3.85,2.8,2.84,4.91-1.19,2.51-5.11,2.86-7,1.08a3.38,3.38,0,0,1-.95-4.15c1-2,3.17-2.23,5.12-1.84C274.23,231.5,274.6,230.18,273.73,230Z"/><path d="M272.89,234.86a26.3,26.3,0,0,0,1.43-5.21c.27-1.3-1.72-1.85-2-.55a23.9,23.9,0,0,1-1.22,4.72c-.51,1.2,1.26,2.26,1.78,1Z"/><polygon class="cls-18" points="116.76 98.2 151.17 118.32 100.59 131.1 101.29 182.05 67.03 144.29 22.14 158.03 48.83 111.91 13.52 65.25 69.5 70.42 79.78 41.75 95.36 69.74 133.86 42.33 116.76 98.2"/><polygon class="cls-15" points="50.34 135.53 24.37 137.98 52.02 112.14 37.88 81.24 72.95 87.85 82.5 65.81 94.34 82.92 115.74 64.3 108.39 100.64 133.29 109.09 96.21 120.78 57.06 179.97 50.34 135.53"/><polygon class="cls-6" points="11.92 103.65 9.62 98.68 17 100.85 18.79 90.7 25.08 102.79 33.81 99.58 25.93 111.46 34.31 119.75 23.4 119.13 18.73 127.73 15.62 115.69 0 113.39 11.92 103.65"/><polygon class="cls-6" points="38.55 52.84 36.38 54.78 36.33 50.7 30.91 51.38 36.06 46.3 33.07 42.38 40.32 44.52 43.21 38.98 44.6 44.61 49.69 45.63 44.07 49.09 45.34 57.36 38.55 52.84"/><path class="cls-19" d="M22.56,115.78S75.78,164,86.32,178c7.84,14.1,17.69,64.32,17.69,64.32L77.47,263.19,79,270s37.46,1.81,73.06-16.86l-1.56-6.76-33.9-6.9s-12.32-50.63-10.47-66c5-20.34,30.94-84.1,30.94-84.1Z"/><path class="cls-20" d="M77.47,263.19s36.4-.8,73.07-16.86"/><path d="M94.51,187.06c-3.39-8.72,1.67-13.69,4.37-2,1,4.51,11.21,51.56,12.25,56.07l-3.27.76S100.83,203.32,94.51,187.06Z"/><path class="cls-21" d="M95.09,171.72c2.52-.64,6.94-1.6,8.7-5.81,2.43-5.78,22.77-66,22.44-65,0,0-10.75-30.89-29.38-18-8.29,5.76-8,35-22,32.39-15.48-2.81-35.51,4.68-36.62,7.78,5.8,5.32,24.84,24.67,28.48,28.58s15.88,17.24,18,18.64S89.85,173.05,95.09,171.72Z"/><polygon class="cls-17" points="98.59 124.53 96.61 125.67 97.23 122.52 92.95 122.16 97.74 119.09 96.08 115.59 101.31 118.42 104.43 114.63 104.58 119.18 108.33 120.8 103.45 122.54 103.08 129.11 98.59 124.53"/><path d="M107.94,154.4c-2,5.83-3.58,10.16-4.14,11.51-1.77,4.21-6.18,5.17-8.71,5.81-5.25,1.33-8.22,0-10.37-1.41s-14.39-14.73-18-18.64l-.81-.85c4.82,4.42,16.63,14.8,18.78,16.2S91.25,169,95,168.43c3.12-.45,6.43-1.56,10.39-9.31C106,158.05,106.79,156.35,107.94,154.4Z"/><path d="M93,257.33s11.78-9.76,14.94-13.9c.51-.67,3.27-.75,3.27-.75l-2.8,12S98.07,257.24,93,257.33Z"/><path class="cls-5" d="M182.91,250.67c0-1.1.06-2.2.13-3.29,1.3.36,3.27.84,4.43,1.06a14.36,14.36,0,0,0,1.58.24,1.17,1.17,0,0,0,.75-.07c.24-.09.19-.14.26-.31a1.61,1.61,0,0,0,.07-.63,1.26,1.26,0,0,0-.08-.71c-.13-.22-.13-.25-.46-.41a11.7,11.7,0,0,0-1.21-.43c-.58-.19-2-.6-2.67-.82a3.57,3.57,0,0,1-2.37-1.82,7.48,7.48,0,0,1-.51-3.43,4.18,4.18,0,0,1,.87-2.81,2.81,2.81,0,0,1,2.16-1,12.2,12.2,0,0,1,3.29.25,34,34,0,0,1,5.29,1.43c0,1.08-.05,2.16-.11,3.24-1.29-.39-3.26-.83-4.42-1.07a5.19,5.19,0,0,0-1.89-.16c-.46.09-.22.11-.39.27s-.08.34-.11.54a1.62,1.62,0,0,0,0,.69c.08.2.08.23.34.36a5.13,5.13,0,0,0,.91.35c.72.23,2.06.58,2.78.83a5.66,5.66,0,0,1,1.74.78,2.84,2.84,0,0,1,1.11,1.34,7.12,7.12,0,0,1,.43,3.08,5.91,5.91,0,0,1-.85,3.12,2.62,2.62,0,0,1-2,1.12,10.63,10.63,0,0,1-3.13-.23A47.78,47.78,0,0,1,182.91,250.67Z"/><path class="cls-5" d="M200.78,254.12c.12-3.89.19-7.78.3-11.67-1.38-.25-2.77-.49-4.15-.75l.12-3.62,13.07,2.36c0,1.21-.07,2.41-.11,3.62l-4.16-.75q-.16,5.83-.34,11.67Z"/><path class="cls-5" d="M220.79,257.75c-.22-.91-.44-1.81-.65-2.71l-5.15-.93c-.26.81-.53,1.63-.8,2.45l-4.65-.85,5.21-14.43,6.55,1.18c1.42,5.39,2.86,10.77,4.27,16.15Zm-2.88-12-.18,0-1.7,5.24,3.29.59Z"/><path class="cls-5" d="M236.05,260.52q-.81-2.77-1.63-5.55l-1.91-.35c-.06,1.74-.13,3.48-.19,5.22L227.6,259c.19-5.09.3-10.2.57-15.28,2.38.44,5.7,1,7.86,1.43a7.77,7.77,0,0,1,3.25,1.16,3,3,0,0,1,1.42,1.91,8.11,8.11,0,0,1,.26,2.9,7.68,7.68,0,0,1-.5,2.72,2.45,2.45,0,0,1-1.61,1.4l2.07,6.2Zm-.56-8.76c.38,0,.41-.07.57-.36a2.58,2.58,0,0,0,.17-1.09,3.15,3.15,0,0,0-.07-1.15.8.8,0,0,0-.53-.56,6.1,6.1,0,0,0-1.4-.38l-1.47-.27c-.06,1.14-.1,2.27-.13,3.41l1.46.26A5.29,5.29,0,0,0,235.49,251.76Z"/><path class="cls-5" d="M246.65,262.46l.42-11.66L243,250c.05-1.2.09-2.41.13-3.62l12.9,2.37c0,1.21-.09,2.42-.13,3.63l-4.11-.76-.42,11.67Z"/><path class="cls-5" d="M192.15,283.16q6,1,12.06,2,0,2.88,0,5.76L185,287.69c0-.92-.09-2.85-.12-3.58a33.1,33.1,0,0,1,0-4.81,4.26,4.26,0,0,1,1-2.68,4.69,4.69,0,0,1,2.75-1.46c1.14-.32,2.55-.56,3.8-.84.4-.09,1.33-.28,1.68-.37a7.07,7.07,0,0,0,1.46-.44.9.9,0,0,0,.59-.63,3.37,3.37,0,0,0,.15-1.28,1.89,1.89,0,0,0-.29-1.32,1.65,1.65,0,0,0-1.08-.71,15.07,15.07,0,0,0-2.38-.53c-2.05-.33-5.13-.6-7.41-.71,0-1.81.08-3.61.12-5.42,1.53,0,3.11,0,4.62.18s3.45.33,4.81.58a22.16,22.16,0,0,1,5.06,1.39,6.86,6.86,0,0,1,3.28,2.7,8.4,8.4,0,0,1,1.12,4.79,9.14,9.14,0,0,1-1.13,4.87,4.63,4.63,0,0,1-3.15,2c-.88.25-2.31.44-3.26.68-.5.13-.94.2-1.39.31s-1.08.2-1.47.28a7.51,7.51,0,0,0-.92.27.75.75,0,0,0-.48.35,1.17,1.17,0,0,0-.23.63,5.57,5.57,0,0,0,0,1Z"/><path class="cls-5" d="M211.63,292.46q.24-9,.47-18.06l-4.67,1c0-1.92.09-3.85.14-5.77l7.19-2.27,5.36.91-.66,25.52Z"/><path class="cls-5" d="M223.87,295.55l.21-6L231.5,291c-.07,2-.15,4-.22,6Zm.46-12.93.21-6L232,278c-.07,2-.15,4-.22,6Z"/><path class="cls-5" d="M240,297.88c-1.81-1.24-2.19-1.85-2.74-4.11s-.43-6.06-.34-8.63.21-6.3.94-8.4,1-2.47,3-3.07,5,0,7.18.41,5.3,1,7.1,2.22,2.19,1.85,2.74,4.12.43,6.06.34,8.63-.21,6.29-.94,8.39-1,2.48-3,3.08-5,0-7.19-.41S241.82,299.12,240,297.88Zm9.38-3.47c.6-.42.56-.58.73-1.67s.26-3.68.31-5.13.14-4,0-5.17-.08-1.33-.59-1.91a3.28,3.28,0,0,0-2-.75c-.66-.11-1.46-.42-2.07,0s-.57.59-.75,1.69-.27,3.66-.33,5.1-.13,4,0,5.16.09,1.34.62,1.93a3.3,3.3,0,0,0,2,.74C248,294.52,248.79,294.83,249.39,294.41Z"/><path class="cls-5" d="M265.93,302.66c-1.81-1.24-2.19-1.85-2.74-4.11s-.43-6.06-.34-8.63.21-6.3.94-8.4,1-2.47,3-3.07,5,0,7.19.41,5.3,1,7.1,2.22,2.19,1.85,2.74,4.12.43,6.06.34,8.63-.21,6.29-.94,8.39-1,2.48-3,3.07-5,0-7.19-.41S267.74,303.9,265.93,302.66Zm9.38-3.47c.6-.42.56-.58.73-1.68s.26-3.68.31-5.12.14-4,0-5.17-.08-1.33-.59-1.91a3.28,3.28,0,0,0-2-.75c-.67-.11-1.46-.42-2.07,0s-.57.59-.75,1.68-.27,3.67-.33,5.11-.13,4,0,5.16.09,1.34.61,1.93a3.35,3.35,0,0,0,2,.74C273.91,299.3,274.7,299.61,275.31,299.19Z"/></g></g></svg>