<?xml version="1.0" encoding="utf-8"?>
<!-- Generator: Adobe Illustrator 22.0.1, SVG Export Plug-In . SVG Version: 6.00 Build 0)  -->
<svg version="1.1" id="Warstwa_1" xmlns="http://www.w3.org/2000/svg" xmlns:xlink="http://www.w3.org/1999/xlink" x="0px" y="0px"
	 viewBox="0 0 362.5 232.5" style="enable-background:new 0 0 362.5 232.5;" xml:space="preserve">
<style type="text/css">
	.st0{fill:#808080;}
	.st1{fill:#FFFFFF;}
	.st2{fill:#D6D6D6;}
	.st3{fill:#B3B3B3;}
	.st4{fill:#999999;}
	.st5{fill:#E10B31;stroke:#000000;stroke-width:1.3026;stroke-miterlimit:10;}
	.st6{fill:#990033;}
	.st7{fill:#E10B31;}
	.st8{fill:#161616;}
</style>
<g id="HEAD_6_">
	<g>
		<path class="st0" d="M79.9,216.3c0,0-3.7,8.9-4.9,15.1c35-18.2,81.3-39.8,116.9-56.4l0.3-0.1c0.2-4.9,2.5-9.6,4-14.2L79.9,216.3z"
			/>
	</g>
	<g>
		<path class="st1" d="M19.7,83.9c-1.1,2.4-4.3,28.2-17.8,47.5l24.6,69.6c18.1,7,45.2,28.3,48.2,29.4L19.7,83.9z"/>
	</g>
	<g>
		<path class="st2" d="M195.9,158.3c-7.4-17.9-27.1-81.2-31.9-99.9L39.4,97.7L40,99c5.5,20.2,40.5,116,40.5,116l115-55L195.9,158.3z
			"/>
		<g>
			<path d="M197.8,157.8c-6.6-16.2-11.7-33-16.9-49.6c-5.3-16.6-10.6-33.3-15-50.2c-0.3-1-1.4-1.7-2.4-1.4C127,68,90.6,79.5,54.3,91
				c-5.1,1.6-10.2,3.2-15.3,4.8c-0.9,0.3-1.8,1.4-1.4,2.4c2.4,6,3.9,12.4,6,18.6c3.3,9.7,6.6,19.3,10,29
				c6.7,19.1,13.6,38.1,20.5,57.1c1.5,4.2,3.1,8.4,4.6,12.6c0.5,1.3,1.7,1.7,2.9,1.2c34.4-16.5,68.9-32.9,103.3-49.4
				c3.9-1.9,12-3.7,13-8.5c0.5-2.5-3.3-3.5-3.8-1c-0.5,2.3,1,0.2,0.1,0.7c-0.6,0.4-1.4,0.7-2.1,1c-2.7,1.3-5.4,2.6-8.1,3.9
				c-9.2,4.4-18.3,8.8-27.5,13.1c-20.7,9.9-41.5,19.8-62.2,29.8c-4.9,2.3-9.8,4.7-14.7,7c1,0.4,1.9,0.8,2.9,1.2
				c-11.6-31.7-23.1-63.4-33.9-95.4c-2.5-7.2-4.3-14.8-7.1-21.9c-0.5,0.8-0.9,1.6-1.4,2.4c36.4-11.5,72.8-23,109.2-34.4
				c5.1-1.6,10.2-3.2,15.3-4.8c-0.8-0.5-1.6-0.9-2.4-1.4c4.4,16.9,9.7,33.6,15,50.2c5.3,16.6,10.3,33.5,16.9,49.6
				C194.9,161.1,198.7,160.1,197.8,157.8z"/>
		</g>
	</g>
	<g>
		<path class="st3" d="M73.5,229.6c-27-61-55-143.1-52.2-145.5c3.7,2.9,12.2,9,18.1,13.5l39.1,118.1c0,0-2.7,8.5-3.9,14.7
			L73.5,229.6z"/>
	</g>
	<polygon class="st1" points="137.1,51 23.1,83.8 39.3,97.3 161.9,58.4 	"/>
	<g>
		<g>
			<path d="M38.1,99.6c11.2,39.3,25.3,78.1,40.5,116c0.9,2.3,4.7,1.3,3.8-1c-15.2-37.9-29.4-76.6-40.5-116
				C41.2,96.1,37.4,97.1,38.1,99.6L38.1,99.6z"/>
		</g>
	</g>
	<g>
		<g>
			<path d="M162.6,56.1c-8.3-1.8-16.4-4.1-24.5-6.8c-2.4-0.8-3.4,3-1,3.8c8,2.7,16.2,4.9,24.5,6.8C164,60.4,165,56.6,162.6,56.1
				L162.6,56.1z"/>
		</g>
	</g>
	<g>
		<g>
			<path d="M20.3,85.6c39.5-9,78.2-21.1,117.1-32.3c2.4-0.7,1.4-4.5-1-3.8C97.5,60.8,58.8,72.8,19.3,81.9
				C16.8,82.4,17.9,86.2,20.3,85.6L20.3,85.6z"/>
		</g>
	</g>
	<g>
		<g>
			<path d="M19.9,85.5c4.7,6,12.2,9,18.1,13.5c2,1.5,4.7-1.2,2.8-2.8c-5.9-4.6-13.4-7.7-18.1-13.5C21.1,80.8,18.4,83.6,19.9,85.5
				L19.9,85.5z"/>
		</g>
	</g>
	<g>
		<g>
			<path d="M18,83c-2.2,5.2-3.6,10.9-5.4,16.3c-1.6,4.8-3.3,9.5-5.1,14.2c-1,2.5-1.9,4.9-3,7.4c-1.1,2.7-4.1,7-4.5,10
				c-0.2,1.8,1.1,4,1.6,5.7c1.6,4.5,3.2,8.9,4.7,13.4c4.2,12,8.5,24,12.7,36c1.5,4.1,2.9,8.2,4.4,12.3c1.2,3.3,1.3,4,4.7,5.8
				c10,5.3,19.6,11.4,29.1,17.5c5.4,3.5,10.9,8.2,16.8,10.7c2.3,1,3.3-2.8,1-3.8c-4.8-2-9.3-5.9-13.6-8.8
				c-8.1-5.3-16.2-10.5-24.5-15.2c-1.8-1-3.6-2.1-5.5-3c-0.5-0.3-3.4-1.3-3.2-1.1c-0.4-0.4-0.6-1.8-0.8-2.3
				c-1.3-3.6-2.5-7.2-3.8-10.8c-4-11.3-8-22.7-12-34c-1.7-4.9-3.4-9.8-5.2-14.6c-0.7-2-2.6-5.2-2.6-7.4c0-0.7,0.7-1.2,1.2-2.2
				c1.3-2.2,2.1-4.8,3.1-7.2c2.3-5.5,4.4-11.1,6.4-16.7c2.4-6.7,4-13.8,6.8-20.3C22.4,82.6,19,80.7,18,83L18,83z"/>
		</g>
	</g>
	<g>
		<g>
			<path d="M39.9,99.6c36.4-11.5,72.8-23,109.2-34.4c5.1-1.6,10.2-3.2,15.3-4.8c-0.8-0.5-1.6-0.9-2.4-1.4c4.4,16.9,9.7,33.6,15,50.2
				c5.3,16.6,10.3,33.5,16.9,49.6c0.9,2.3,4.7,1.3,3.8-1c-6.6-16.2-11.7-33-16.9-49.6c-5.3-16.6-10.6-33.3-15-50.2
				c-0.3-1-1.4-1.7-2.4-1.4C127,68,90.6,79.5,54.3,91c-5.1,1.6-10.2,3.2-15.3,4.8C36.5,96.6,37.5,100.3,39.9,99.6L39.9,99.6z"/>
		</g>
	</g>
	<g>
		<g>
			<path d="M18.5,84.5c6.4,25.1,14.4,49.7,23,74.1c8.7,24.5,17.8,49.2,30.3,72c1.2,2.2,4.6,0.2,3.4-2c-12.6-23-21.7-47.9-30.4-72.5
				c-8.4-23.9-16.3-48.1-22.6-72.7C21.6,81,17.9,82,18.5,84.5L18.5,84.5z"/>
		</g>
	</g>
	<g>
		<g>
			<path d="M190.6,172.3c-39,18.7-78.5,36.5-116.9,56.4c1,0.7,1.9,1.5,2.9,2.2c1.3-4.9,3.6-9.2,5.2-14c0.6-1.8-0.8,0.1,0.4-0.6
				c1.9-1.1,4.1-2,6.1-2.9c8.8-4.2,17.7-8.5,26.5-12.7c22.1-10.6,44.1-21.1,66.2-31.7c5.3-2.6,10.7-5.1,16-7.7
				c-1-0.7-1.9-1.5-2.9-2.2c-1.7,4.9-3.6,9.5-4.1,14.7c0.5-0.6,1-1.3,1.4-1.9c-0.1,0-0.2,0-0.3,0.1c-2.5,0.5-1.4,4.2,1,3.8
				c0.1,0,0.2,0,0.3-0.1c0.9-0.2,1.4-1.1,1.4-1.9c0.4-4.8,2.4-9.2,4-13.6c0.6-1.7-1.5-2.9-2.9-2.2c-36.1,17.3-72.2,34.5-108.3,51.8
				c-2.1,1-4.9,1.8-6.8,3.2c-0.7,0.6-1,1-1.5,1.9c-2.6,4.5-4.3,10-5.5,14.9c-0.4,1.7,1.4,3,2.9,2.2c38.4-19.9,77.9-37.8,116.9-56.4
				C194.8,174.6,192.8,171.2,190.6,172.3z"/>
		</g>
	</g>
	<path class="st4" d="M64.1,129.8c4-10,15.8-8.7,25.4-9.3c6.2-0.4,13.8-3.2,14.9-5.1c3.5-8.7,13.9-6.7,22.2-8.1
		c7.3-1.2,15.6-4.9,16.7-6.6c3.3-8.4,13.6-10.7,21.1-7.7c7.5,2.9,8.6,13.2,5.2,19.7c-5.3,8.5-36,11.9-37.7,15
		c-15,13.3-29.7,8.4-36.3,16.1c-7,11-28,11.5-33.3-1.9C61,137.7,61.8,133.4,64.1,129.8z"/>
	<g>
		<path d="M105.9,121c3.7,5.5,10.4,9.7,16.5,4.6c5.6-3.6,5.9-11,1.7-15.1c-5.2-3.7-13.2-0.1-17.1,4.4
			C105.7,116.7,105.2,118.9,105.9,121z"/>
	</g>
	<g>
		<path d="M71.1,139.8c3.6,5.6,10,4.8,15.9,3.5c7.1-1.8,6.8-8.5,4.8-12.9c-3.9-8.8-13.8-8.8-19-4.4
			C71.3,128.1,68.1,135.9,71.1,139.8z"/>
	</g>
	<g>
		<path d="M141.4,109.3c8,11,18.8,6.3,20.9-3.6c0.9-6.8-6.2-10.3-13.3-9.6c-3.7,0.3-5.9,2.6-7.7,6
			C140.1,104,140.7,107.1,141.4,109.3z"/>
	</g>
	<g id="eyes_6_">
		<path class="st5" d="M146.1,106.6c-1.8,2-3.6,4-5.4,5.9c-3.9,4,1.4,11.2,5.3,7.1c2.4-2.5,4.8-5.1,7.1-7.7c1.7,1.3,3.3,2.6,5,3.8
			c4.5,3.5,9.8-3.6,5.3-7.1c-1.6-1.2-3.2-2.5-4.7-3.7c1.8-2.4,3.4-4.9,5-7.6c2.8-4.9-4-10.4-6.9-5.5c-1.5,2.7-3.2,5.2-5,7.7
			c-2.2-1.7-4.5-3.5-6.7-5.2c-4.5-3.5-9.8,3.6-5.3,7.1C141.8,103.3,143.9,105,146.1,106.6z"/>
		<path class="st5" d="M104.8,113.4c2.8,1.8,5.5,3.7,8.1,5.7c-2,3-4.3,6-6.7,8.8c-3.7,4.3,3.2,9.8,6.9,5.5c2.4-2.7,4.6-5.6,6.6-8.6
			c1.4,1.2,2.7,2.5,4,3.8c1.7,1.7,4.1,2.4,6.1,0.8c1.7-1.3,2.4-4.6,0.8-6.3c-2-2.1-4.1-4-6.2-6c1.5-2.6,2.8-5.3,4.1-8.1
			c2.4-5.2-5.7-8.7-8-3.5c-0.9,2-1.9,4-2.9,5.9c-2.4-1.8-4.8-3.6-7.4-5.2C105.4,103.3,100.1,110.3,104.8,113.4z"/>
		<path class="st5" d="M75.2,150.9c3.6-3.3,6.8-6.8,9.8-10.5c2.5,2,5.1,3.9,7.8,5.6c4.9,3.2,10.5-4.2,5.5-7.4
			c-2.7-1.8-5.4-3.7-7.9-5.7c2.3-3.5,4.4-7.1,6.3-11c2.6-5.4-5.8-9-8.4-3.7c-1.4,3-3.1,5.8-4.8,8.5c-3-2.9-5.7-6.1-8.3-9.5
			c-3.6-4.8-10.8,0.9-7.1,5.7c3.1,4.1,6.4,7.8,10,11.3c-2.6,3.2-5.5,6.2-8.5,9.1C65.3,147.5,70.9,154.9,75.2,150.9z"/>
	</g>
	<g>
		<g>
			<g>
				<path class="st6" d="M45,1.4c-4.5,23.3-5.1,46.5-3.9,70.1c0.1,2.5,4,2.5,3.9,0c-1.1-23.3-0.6-46.2,3.8-69.1
					C49.2,0,45.4-1.1,45,1.4L45,1.4z"/>
			</g>
		</g>
		<path class="st7" d="M53.5,0.8l57,14.9L50.6,45C50.6,45,47.7,29.8,53.5,0.8z"/>
	</g>
	<g>
		<path d="M74.6,150.2c3.6-3.1,6.9-6.5,10-10.2l0,0l0.4-0.5l0.5,0.4c2.2,1.7,4.4,3.4,6.7,4.9l0.9,0.6c0.3,0.2,0.6,0.3,0.8,0.4
			c0.3,0.1,0.6,0.2,0.9,0.3c0.3,0,0.6,0,0.9,0.1c1.2-0.1,2.3-0.8,3.1-1.7c0.8-1,1.1-2.3,0.8-3.3c-0.1-0.3-0.2-0.5-0.4-0.8
			c-0.2-0.2-0.3-0.5-0.6-0.7c-0.4-0.4-1-0.8-1.6-1.2c-2.4-1.6-4.6-3.2-6.8-5l0,0l-0.5-0.4l0.3-0.5c1.7-2.5,3.2-5.2,4.7-7.8l1-2
			l0.5-1c0.1-0.3,0.2-0.6,0.3-0.9c0.3-1.3-0.1-2.6-1.2-3.4c-1-0.8-2.5-1.2-3.7-0.9c-0.3,0.1-0.6,0.2-0.9,0.3
			c-0.2,0.2-0.6,0.3-0.8,0.6l-0.3,0.4c-0.1,0.1-0.2,0.3-0.3,0.4l-0.3,0.4l-0.3,0.5c-1.4,2.8-2.9,5.5-4.6,8.1l0,0l-0.5,0.7l-0.6-0.6
			c-2.6-2.4-5-5-7.2-7.8l-0.8-1c-0.3-0.4-0.6-0.7-0.8-0.9c-0.5-0.5-1.1-0.8-1.7-1c-0.6-0.1-1.3,0-1.9,0.3c-0.6,0.3-1.2,0.7-1.6,1.3
			c-0.4,0.5-0.7,1.2-0.7,1.8c-0.1,0.3,0.1,0.6,0.1,0.9c0.1,0.3,0.2,0.6,0.4,0.9l0.3,0.4l0.4,0.5l0.8,1l1.7,2
			c2.3,2.6,4.7,5.1,7.2,7.5l0,0l1.1,1l-0.9,1.1c-1.5,1.7-3,3.4-4.6,5c-0.8,0.8-1.6,1.6-2.4,2.4l-1.3,1.1c-0.2,0.2-0.4,0.4-0.6,0.6
			c-0.1,0.2-0.3,0.3-0.4,0.5c-0.5,0.7-0.8,1.4-0.7,2.3c0,0.9,0.4,1.7,0.9,2.4c0.5,0.7,1.3,1.2,2.1,1.3
			C73,151.1,73.8,150.8,74.6,150.2z M75.8,151.6c-0.9,0.9-2.3,1.6-3.8,1.4c-1.5-0.1-2.7-1-3.6-2c-0.9-1-1.4-2.3-1.5-3.7
			c-0.1-1.4,0.3-2.8,1.1-4l0.7-0.8c0.2-0.2,0.4-0.4,0.6-0.6l1.2-1.2c0.8-0.8,1.5-1.6,2.3-2.4c1.5-1.6,2.9-3.3,4.2-5l0.1,2.1l0,0
			c-2.5-2.5-4.9-5.2-7.1-8c-0.6-0.7-1.1-1.4-1.6-2.1l-0.8-1.1l-0.4-0.5l-0.4-0.7c-1.2-1.9-0.9-4.6,0.5-6.2c0.7-0.9,1.5-1.5,2.5-1.9
			c1-0.4,2.1-0.6,3.2-0.3c1.1,0.2,2.1,0.9,2.7,1.7c0.4,0.4,0.6,0.8,0.9,1.1l0.8,1c2.1,2.8,4.4,5.4,6.8,7.9l-1.1,0.1l0,0
			c1.6-2.6,3.2-5.2,4.5-7.9l0.3-0.5l0.3-0.6c0.1-0.2,0.2-0.4,0.4-0.5l0.5-0.5c0.3-0.3,0.7-0.5,1.1-0.8c0.4-0.2,0.8-0.4,1.2-0.5
			c1.7-0.4,3.6,0,4.9,1.2c1.4,1,2.1,3.1,1.7,4.8c-0.1,0.4-0.3,0.8-0.4,1.2l-0.5,1c-0.3,0.7-0.7,1.4-1.1,2.1c-1.5,2.7-3,5.4-4.7,7.9
			l-0.1-0.9l0,0c2.2,1.7,4.4,3.4,6.7,4.9c0.6,0.4,1.2,0.7,1.8,1.3c0.3,0.2,0.5,0.6,0.8,0.9c0.2,0.3,0.4,0.7,0.5,1.1
			c0.5,1.6,0,3.3-1,4.5c-1,1.2-2.4,2.1-4,2.2c-0.4,0-0.8,0-1.2-0.1c-0.4-0.1-0.8-0.2-1.1-0.3c-0.3-0.2-0.7-0.4-1-0.5l-0.9-0.6
			c-2.4-1.6-4.6-3.2-6.8-5l0.9-0.1l0,0C82.6,144.7,79.3,148.3,75.8,151.6z"/>
	</g>
	<g>
		<path d="M105.4,112.5c2.9,1.7,5.7,3.5,8.6,5.2h0l1.5,0.9l-1.1,1.5c-1.8,2.5-3.6,4.8-5.6,7.1l-1.5,1.7c-0.3,0.4-0.6,0.8-0.7,1.3
			c-0.3,0.9,0.2,2,1.1,2.7c0.9,0.7,2.1,1.2,3.1,0.8l0.4-0.1c0.1-0.1,0.2-0.1,0.4-0.2c0.3-0.1,0.5-0.3,0.7-0.5
			c0.2-0.2,0.5-0.5,0.7-0.7l0.7-0.8c1.9-2.2,3.8-4.5,5.5-6.9l0,0l0.5-0.6l0.5,0.5l2.5,2.4l1.3,1.2c0.4,0.4,0.8,0.7,1.2,1
			c0.9,0.6,1.9,0.8,2.8,0.6c0.5-0.1,0.9-0.3,1.3-0.6c0.4-0.3,0.7-0.7,0.9-1.1c0.5-0.9,0.7-2,0.5-2.9c-0.1-0.5-0.3-0.9-0.6-1.3
			c-0.3-0.4-0.8-0.8-1.2-1.2l-5-4.8l0,0l-0.4-0.4l0.2-0.4c1.2-2.1,2.2-4.3,3.3-6.5c0.2-0.5,0.5-1.1,0.7-1.6l0.2-0.7l0.1-0.7
			c0-1-0.5-1.9-1.3-2.5c-0.8-0.6-1.9-0.9-2.8-0.8c-1,0.1-1.8,0.7-2.3,1.5c-0.1,0.2-0.2,0.4-0.4,0.7l-0.4,0.8l-0.8,1.7l-1.6,3.3l0,0
			l-0.5,1.1l-0.9-0.8c-1.5-1.2-3-2.3-4.5-3.4c-0.8-0.5-1.6-1.1-2.3-1.6c-0.4-0.3-0.8-0.4-1.1-0.6c-0.2-0.1-0.4-0.1-0.5-0.2
			c-0.2-0.1-0.4-0.1-0.5-0.1c-1.5-0.2-3,1-3.6,2.4c-0.3,0.7-0.4,1.4-0.2,2.1C104.3,111.5,104.8,112,105.4,112.5z M104.2,114.3
			c-0.9-0.7-1.8-1.6-2.1-2.8c-0.4-1.2-0.1-2.5,0.4-3.5c0.5-1,1.3-1.9,2.2-2.5c0.9-0.6,2.1-0.9,3.2-0.9c0.3,0,0.6,0,0.8,0.1
			c0.3,0.1,0.6,0.1,0.8,0.3c0.5,0.2,1,0.5,1.4,0.8c0.8,0.5,1.6,1.1,2.4,1.6c1.6,1.1,3.1,2.2,4.7,3.3l-1.5,0.3l0,0l1.6-3.2l0.8-1.6
			l0.4-0.8c0.1-0.3,0.3-0.6,0.5-0.9c0.8-1.2,2.2-2.1,3.7-2.2c1.5-0.1,2.9,0.4,4,1.2c1.1,0.9,1.9,2.3,1.9,3.8c0,0.4-0.1,0.7-0.1,1.1
			c-0.1,0.3-0.2,0.7-0.3,1c-0.3,0.6-0.5,1.1-0.8,1.7c-1.1,2.2-2.2,4.4-3.4,6.5l-0.1-0.8l0,0l5,4.9c0.4,0.4,0.8,0.8,1.3,1.3
			c0.5,0.5,0.8,1.2,0.9,1.8c0.3,1.3,0,2.7-0.6,3.8c-0.3,0.6-0.8,1.1-1.3,1.5c-0.5,0.4-1.1,0.7-1.8,0.8c-1.3,0.3-2.7-0.1-3.8-0.8
			c-0.5-0.3-1-0.8-1.4-1.2l-1.2-1.2l-2.5-2.4l1-0.1l0,0c-1.6,2.5-3.3,5-5.2,7.3l-0.7,0.9c-0.3,0.3-0.4,0.6-0.8,0.9
			c-0.3,0.3-0.6,0.6-1,0.9c-0.2,0.1-0.4,0.3-0.6,0.4l-0.7,0.2c-0.4,0.2-0.9,0.2-1.4,0.3c-0.5,0-0.9,0-1.4-0.1
			c-0.9-0.2-1.7-0.6-2.5-1.1c-0.7-0.6-1.4-1.3-1.8-2.2c-0.4-0.9-0.6-1.9-0.4-2.9c0.1-1,0.6-1.9,1.2-2.7l1.4-1.7
			c1.8-2.3,3.4-4.7,5-7.2l0.4,2.4h0C109.5,118.1,106.9,116.1,104.2,114.3z"/>
	</g>
	<g>
		<path d="M147.3,106.5c-1.8,2.3-3.8,4.7-5.9,6.8c-0.8,0.8-1.2,1.8-1.1,2.9c0.1,1.1,0.5,2.2,1.3,3c0.8,0.7,1.8,1.1,2.7,0.7
			c0.2-0.1,0.5-0.2,0.7-0.4c0.2-0.2,0.4-0.3,0.7-0.6l1.4-1.5l5.5-5.8l0.4-0.4l0.5,0.4c1.7,1.3,3.4,2.7,5.1,3.9
			c0.8,0.6,1.7,0.8,2.6,0.6c0.9-0.2,1.7-0.7,2.3-1.5c0.6-0.7,0.9-1.7,0.9-2.6c0-0.9-0.4-1.8-1.1-2.4c-0.3-0.3-0.8-0.7-1.2-1l-1.3-1
			l-2.6-2l-0.5-0.4l0.4-0.5c1.5-2.2,2.9-4.4,4.2-6.7l0.5-0.9l0.3-0.8c0.1-0.3,0.1-0.5,0.2-0.8c0-0.3,0-0.5,0-0.8
			c-0.1-1.1-0.7-2.1-1.5-2.8c-0.8-0.7-1.9-1-2.7-0.7c-0.2,0.1-0.4,0.2-0.6,0.3c-0.2,0.2-0.4,0.3-0.5,0.5c-0.1,0.2-0.3,0.4-0.4,0.7
			l-0.5,0.9c-1.3,2.3-2.8,4.6-4.3,6.8l0,0l-0.8,1.1l-1.1-0.8l-6-4.7c-0.2-0.2-0.5-0.4-0.7-0.6l-0.6-0.4c-0.2-0.1-0.4-0.2-0.6-0.2
			c-0.2,0-0.4-0.1-0.6,0c-0.8,0-1.7,0.5-2.3,1.3c-0.6,0.7-0.9,1.7-0.7,2.6c0,0.1,0,0.2,0.1,0.3l0.1,0.3c0,0.2,0.2,0.4,0.3,0.6
			c0.1,0.2,0.3,0.3,0.5,0.5c0.1,0.1,0.4,0.4,0.7,0.6C143.1,102.8,145.3,104.7,147.3,106.5z M144.9,106.8c-2-1.3-3.8-2.5-5.6-3.9
			c-0.2-0.2-0.4-0.3-0.7-0.6c-0.3-0.3-0.6-0.5-0.8-0.9c-0.2-0.3-0.5-0.7-0.6-1.1l-0.2-0.6c-0.1-0.2-0.1-0.4-0.1-0.6
			c-0.3-1.6,0.2-3.3,1.2-4.5c1-1.2,2.4-2.2,4.2-2.3c0.4,0,0.8,0.1,1.3,0.1c0.4,0.1,0.8,0.3,1.2,0.4c0.4,0.2,0.7,0.4,1,0.6
			c0.3,0.2,0.5,0.4,0.8,0.6l6,4.6l-1.9,0.3l0,0c1.6-2.1,3.1-4.3,4.5-6.5l0.5-0.8c0.2-0.3,0.5-0.6,0.7-1c0.2-0.3,0.6-0.6,0.9-0.9
			c0.4-0.2,0.8-0.4,1.2-0.6c1.8-0.5,3.5,0.2,4.6,1.3c1.2,1.1,1.9,2.5,2,4.1c0,0.4,0,0.8,0,1.2c-0.1,0.4-0.2,0.8-0.3,1.1
			c-0.2,0.3-0.3,0.7-0.5,1l-0.5,0.9c-1.4,2.3-3,4.5-4.6,6.6l-0.1-0.9l2.6,2l1.3,1c0.4,0.3,0.8,0.6,1.3,1.1c0.9,0.8,1.5,2,1.5,3.3
			c0,1.3-0.4,2.5-1.2,3.4c-0.7,1-1.8,1.7-3.1,2c-1.2,0.3-2.6-0.1-3.6-0.8c-1.8-1.3-3.4-2.7-5.2-4l0.9-0.1l-5.4,6l-1.3,1.5
			c-0.2,0.2-0.5,0.5-0.8,0.8c-0.3,0.3-0.7,0.5-1,0.6c-0.4,0.2-0.8,0.2-1.2,0.3c-0.4,0-0.9,0-1.3-0.1c-0.2-0.1-0.4-0.1-0.6-0.2
			l-0.6-0.3c-0.4-0.2-0.7-0.5-1-0.7c-1.2-1.1-1.9-2.6-2-4.2c-0.2-1.6,0.4-3.3,1.6-4.5C141.5,110,143.1,108.4,144.9,106.8z"/>
	</g>
	<g id="lips_7_">
		<path class="st4" d="M160.8,157.2c0,0,6.7-13.9,4.9-16.5c-2.1-3.1-8.1-1.9-8.1-1.9S156.7,154.1,160.8,157.2z"/>
		<g>
			<path class="st8" d="M157.5,138.8c-19.7,8.1-43.9,20-68,27.2c0,0-1.8,2.8-1.6,3.9c1.2,5.2,3.2,10.3,5.9,14.9l1.8,0.1
				c23.6-8.8,45.2-14.1,63.4-26.2c3.2-8.3,1.8-14.9,0.5-19.9L157.5,138.8z"/>
		</g>
		<g>
			<g>
				<path d="M156.6,137.1c-22.2,9.7-44.8,18.5-67.5,27c-2.3,0.9-1.3,4.6,1,3.7c23-8.6,45.9-17.5,68.4-27.4
					C160.8,139.5,158.8,136.2,156.6,137.1L156.6,137.1z"/>
			</g>
		</g>
		<g>
			<g>
				<path d="M89.4,165.4c-3.3,0.3-3.7,3.1-3.1,5.9c0.6,2.8,1.6,5.5,2.7,8.1c0.8,2,1.9,6,3.9,7.1c2.8,1.6,7.8-1.2,10.4-2
					c5.9-2,11.8-4,17.6-6.1c10.9-4,21.8-8.4,32.1-13.9c2.1-1.1,4.7-2.2,6.5-3.8c1.7-1.4,1.9-2.8,2.3-5.1c1.3-5.8,1.7-11.7-0.4-17.4
					c-0.9-2.3-4.6-1.3-3.7,1c1.8,4.8,1.8,10.3,0.4,15.3c-1.1,3.8-3.7,4.7-7.1,6.5c-7.5,4-15.4,7.4-23.3,10.5
					c-7.6,3-15.4,5.8-23.2,8.4c-1.8,0.6-8.4,3.9-10.1,2.9c0.6-0.7,0.5-1.5-0.5-2.2c-0.7-1.5-1.4-2.9-1.9-4.5c-0.3-0.7-1.9-7-2.5-7
					C91.9,169,91.9,165.2,89.4,165.4L89.4,165.4z"/>
			</g>
		</g>
	</g>
</g>
<g>
	<g>
		<path class="st1" d="M243.1,187.9c-4.9-2.3-11.3-6.8-13.2-11.8c-7.8-21-63.6-26.5-54.8-29.2c64.1-19.7,37.8-63.3,49.6-74.4
			C244.1,54.1,333,54,339.6,55.2c21.4,3.8,19.5,72.1,19.2,88.7c-0.1,10.9-4.3,23.5-11.7,31.5s-66.8,15-76.6,14.4
			C262.3,189.3,251.1,191.7,243.1,187.9z"/>
	</g>
	<path class="st2" d="M217.7,105.2c-1.7,8.5-1.3,21.4-1.1,24.5c0.5,7.8-29.2,18.6-39.2,18C193.8,141.6,213.7,128.4,217.7,105.2z"/>
	<path class="st2" d="M224.4,167.9c-9.9-8.6-29.8-14.6-40.2-17.2C210,152.8,224.2,155.4,224.4,167.9z"/>
	<path class="st2" d="M349.8,137.7c0.4,8.9,0.7,14.2-1.1,24.5c-1.4,7.7-27.7,16.2-39.2,18C323.4,176.8,342.2,164.8,349.8,137.7z"/>
	<g>
		<g>
			<path d="M349.5,176.8c14.8-16.7,14.1-41.4,11.7-62.1c-1.3-11.4-3.2-22.7-6-33.8c-2.1-8.1-4.6-18-10.5-24.3
				c-3.5-3.8-7.9-4-12.7-4.3c-8.3-0.5-16.6-0.4-24.9-0.1c-21,0.7-42.7,2.2-63.1,7.8c-6.8,1.9-14.6,4.2-19.9,9.1
				c-5,4.7-6.9,11.7-7.5,18.3c-0.7,7.4-0.2,14.8-1.4,22.1c-1.6,9.3-6.6,16.9-14.2,22.5c-5.5,4.1-11.8,7.1-18.2,9.5
				c-2.4,0.9-11.2,1.9-11.6,6c-0.5,4.6,9.7,5.8,12.6,6.6c9.6,2.6,19.3,5.3,28.3,9.7c4.3,2.1,8.6,4.5,12,7.9
				c3.6,3.6,4.8,8.6,8.5,12.1c6.7,6.3,14,8,22.8,8.4c10,0.4,20-0.3,29.9-1.2c19.1-1.7,39.9-3.5,58-10.3c2-0.8,4.2-1.6,5.8-3.2
				c2.8-2.8-1.1-6.6-3.7-4c-3.3,3.3-10.7,4.3-15.2,5.3c-9.5,2.2-19.1,3.7-28.7,4.9c-10.4,1.4-20.8,2.4-31.2,2.8
				c-7.3,0.3-15.3,0.9-22.5-0.7c-4.7-1-9.4-4.2-12.3-8c-2.8-3.6-3.9-7.6-7.4-10.8c-6.6-6.1-15.2-9.7-23.6-12.7
				c-7.8-2.8-15.8-4.7-23.7-7c-1-0.3-2.4-1-3.4-1.1c-0.2,0-0.5-0.4-0.7-0.3c0.4-0.1-1.1,3.8-1.1,3.8c0.4,0.5,8.7-2.9,9.7-3.3
				c3.4-1.3,6.8-2.8,10.1-4.5c8.6-4.5,16.5-10.5,21.3-19c3.6-6.4,5-13.7,5.4-21c0.7-12.2-1.1-26.4,11.9-32.6
				c16.5-7.8,36.8-9.2,54.7-10.5c9.5-0.7,19-1.1,28.5-1.2c6.2,0,12.7-0.3,18.9,0.8c2,0.3,2.1,0.3,3.6,1.8c2.5,2.4,4.1,6,5.4,9.2
				c3.9,9.4,6,19.6,7.7,29.5c3.3,18.8,6.4,38.8,0.9,57.4c-1.9,6.4-4.5,12.7-9,17.8C342.1,176.9,347.2,179.5,349.5,176.8z"/>
		</g>
	</g>
	<g>
		<path d="M259,101.3c1.4,1.2,2.2,3.3,2.4,6.3l0.8,12.3l-3.7,0.4l-0.1-1.8c-0.6,0.8-1.3,1.5-2.1,2c-0.9,0.5-1.8,0.8-2.8,0.9
			c-1.7,0.2-3-0.2-4-1.1c-1-0.9-1.5-2.3-1.6-4.1c-0.1-1.4,0.2-2.7,0.9-3.8c0.7-1.1,1.7-2,3-2.7c1.3-0.7,3-1.1,4.9-1.3l1.2-0.1
			c-0.2-1.7-0.7-3-1.3-3.6c-0.6-0.7-1.5-1-2.7-0.8c-0.8,0.1-1.5,0.4-2.3,1c-0.8,0.6-1.5,1.3-2.1,2.3l-2.2-3c0.9-1.3,2-2.3,3.1-3
			c1.1-0.7,2.3-1.1,3.4-1.3C255.8,99.7,257.6,100.2,259,101.3z M257,116c0.6-1,0.9-2.4,0.9-4.4l-0.8,0.1c-2,0.2-3.4,0.7-4.3,1.3
			c-0.9,0.6-1.3,1.5-1.2,2.7c0.1,0.8,0.3,1.3,0.8,1.7c0.5,0.3,1.1,0.4,1.9,0.3C255.5,117.5,256.4,117,257,116z"/>
		<path d="M275.3,92.5c1.2,1,2.2,2.5,2.9,4.5c0.7,2,1.2,4.5,1.4,7.5s0.1,5.5-0.4,7.7s-1.2,3.9-2.3,5.1s-2.4,2-3.9,2.1
			c-1.6,0.2-3-0.2-4.2-1.2c-1.2-1-2.2-2.5-2.9-4.6c-0.7-2-1.2-4.5-1.4-7.5s-0.1-5.5,0.4-7.7s1.2-3.9,2.3-5.1
			c1.1-1.2,2.4-1.9,3.9-2.1C272.7,91.2,274.1,91.6,275.3,92.5z M269.4,96.7c-0.5,0.9-0.9,2.1-1.1,3.7c-0.2,1.6-0.2,3.4-0.1,5.6
			c0.1,1.1,0.2,2.2,0.3,3.2l6.1-10.6c-0.4-1.1-0.9-2-1.4-2.5s-1.2-0.8-1.9-0.7C270.6,95.3,269.9,95.8,269.4,96.7z M274.7,114.2
			c0.5-0.9,0.9-2.1,1.1-3.7c0.2-1.6,0.2-3.4,0.1-5.6c-0.1-1.3-0.2-2.4-0.4-3.4l-6.1,10.7c0.4,1.2,0.9,2,1.5,2.6
			c0.6,0.6,1.2,0.8,1.9,0.8C273.5,115.6,274.2,115.1,274.7,114.2z"/>
		<path d="M288.6,117c-0.8-0.4-1.5-0.9-2.1-1.7l-0.4,2l-2.7,0.3l-1.9-29.1l4.2-0.5l0,0.5c-0.1,0.2-0.2,0.4-0.2,0.6c0,0.2,0,0.5,0,1
			l0.6,8.6c0.5-0.7,1-1.3,1.6-1.8c0.6-0.5,1.3-0.7,2-0.8c1.3-0.1,2.4,0.1,3.5,0.8c1.1,0.6,2,1.7,2.7,3.1c0.7,1.4,1.2,3.3,1.3,5.4
			c0.2,2.4,0,4.4-0.6,6.2c-0.6,1.8-1.3,3.1-2.4,4.1c-1,1-2.1,1.5-3.3,1.7C290.1,117.5,289.3,117.3,288.6,117z M291.8,112.6
			c0.5-0.5,0.9-1.3,1.2-2.3c0.3-1,0.4-2.3,0.3-3.8c-0.1-2.1-0.6-3.7-1.2-4.9c-0.7-1.2-1.7-1.7-2.9-1.6c-1.2,0.1-1.9,0.8-2.3,2
			s-0.5,2.8-0.4,4.7c0.2,2.4,0.5,4.1,1.2,5.2c0.6,1,1.4,1.5,2.5,1.4C290.8,113.3,291.3,113.1,291.8,112.6z"/>
		<path d="M300.9,112c2.6-3.6,4.4-6.3,5.6-8.1c1.1-1.7,2-3.3,2.5-4.8c0.6-1.4,0.8-2.9,0.7-4.3c-0.1-1.1-0.4-2-1-2.6
			c-0.6-0.6-1.4-0.8-2.4-0.7c-0.6,0.1-1.1,0.2-1.7,0.4c-0.5,0.2-1,0.5-1.3,0.8c-0.3,0.3-0.6,0.5-0.6,0.8c-0.4,1.1-0.6,1.6-0.6,1.7
			c0,0,0,0,0,0c0,0,0.1,0,0.1-0.1c0,0,0.1-0.1,0.1-0.1c0,0,0.1,0,0.1,0.1l-0.2,0.4l-0.3-0.2l-2.8-2.1c0.7-1.8,1.7-3.2,2.8-4.2
			c1.2-1,2.5-1.6,4-1.8c1.3-0.1,2.5,0.1,3.6,0.6c1.1,0.6,2,1.4,2.6,2.5c0.7,1.1,1,2.5,1.1,4c0.1,1.5-0.1,3-0.6,4.5
			c-0.5,1.5-1.2,2.9-2,4.3s-2.1,3.4-3.8,5.9l-1.3,1.9l7.1-0.8c0.4,0,0.6-0.1,0.8-0.2c0.2-0.1,0.3-0.2,0.4-0.4l0.4,0l0.3,4.4
			l-13.5,1.5L300.9,112z"/>
		<path d="M328.8,93.5c1.4,1.2,2.2,3.3,2.4,6.3l0.8,12.3l-3.7,0.4l-0.1-1.8c-0.6,0.8-1.3,1.5-2.1,2c-0.9,0.5-1.8,0.8-2.8,0.9
			c-1.7,0.2-3-0.2-4-1.1c-1-0.9-1.5-2.3-1.6-4.1c-0.1-1.4,0.2-2.7,0.9-3.8c0.7-1.1,1.7-2,3-2.7c1.3-0.7,3-1.1,4.9-1.3l1.2-0.1
			c-0.2-1.7-0.7-3-1.3-3.6c-0.6-0.7-1.5-1-2.7-0.8c-0.8,0.1-1.5,0.4-2.3,1s-1.5,1.3-2.1,2.3l-2.2-3c0.9-1.3,2-2.3,3.1-3
			c1.1-0.7,2.3-1.1,3.4-1.3C325.7,91.8,327.4,92.3,328.8,93.5z M326.9,108.1c0.6-1,0.9-2.4,0.9-4.4l-0.8,0.1c-2,0.2-3.4,0.7-4.3,1.3
			c-0.9,0.6-1.3,1.5-1.2,2.7c0.1,0.8,0.3,1.3,0.8,1.7c0.5,0.3,1.1,0.4,1.9,0.3C325.4,109.7,326.2,109.1,326.9,108.1z"/>
		<path d="M258.8,160.3l-0.4-6.6l-8.3,0.9l-0.2-3l8.3-18.3l2.8-0.3l1.1,16.2l2.9-0.3l0.3,4.1l-2.9,0.3l0.4,6.6L258.8,160.3z
			 M253.9,150.3l4.4-0.5l-0.5-8L253.9,150.3z"/>
		<path d="M279.1,139.1c1.4,1.2,2.2,3.3,2.4,6.3l0.8,12.3l-3.7,0.4l-0.1-1.8c-0.6,0.8-1.3,1.5-2.1,2c-0.9,0.5-1.8,0.8-2.8,0.9
			c-1.7,0.2-3-0.2-4-1.1c-1-0.9-1.5-2.3-1.6-4.1c-0.1-1.4,0.2-2.7,0.9-3.8c0.7-1.1,1.7-2,3-2.7c1.3-0.7,3-1.1,4.9-1.3l1.2-0.1
			c-0.2-1.7-0.7-3-1.3-3.6c-0.6-0.7-1.5-1-2.7-0.8c-0.8,0.1-1.5,0.4-2.3,1c-0.8,0.6-1.5,1.3-2.1,2.3l-2.2-3c0.9-1.3,2-2.3,3.1-3
			c1.1-0.7,2.3-1.1,3.4-1.3C275.9,137.4,277.7,137.9,279.1,139.1z M277.1,153.7c0.6-1,0.9-2.4,0.9-4.4l-0.8,0.1
			c-2,0.2-3.4,0.7-4.3,1.3c-0.9,0.6-1.3,1.5-1.2,2.7c0.1,0.8,0.3,1.3,0.8,1.7c0.5,0.3,1.1,0.4,1.9,0.3
			C275.6,155.3,276.5,154.7,277.1,153.7z"/>
		<path d="M298.1,132.1L298.1,132.1L298.1,132.1c-0.8-0.7-1.4-1.2-1.9-1.4c-0.5-0.2-1.1-0.3-1.7-0.2c-1.1,0.1-1.8,0.6-2.3,1.5
			c-0.5,0.8-0.7,2-0.6,3.6l0.1,0.8l5-0.6l0.3,3.8l-5,0.6l1.1,16.3l-3.8,0.4l-1.1-16.3l-3.5,0.4l-0.3-3.8l3.5-0.4l-0.1-0.8
			c-0.1-1.8,0.1-3.4,0.6-4.7c0.5-1.4,1.3-2.4,2.2-3.2c1-0.8,2.1-1.2,3.3-1.4c2.1-0.2,4,0.5,5.6,2.2L298.1,132.1z M297.6,132.2
			C297.6,132.2,297.6,132.1,297.6,132.2c0.1-0.1,0.2,0,0.4,0.1l-0.1,0.2L297.6,132.2L297.6,132.2z M298.3,132.4
			C298.3,132.4,298.3,132.4,298.3,132.4l-0.3-0.1l0.1-0.1C298.2,132.3,298.3,132.4,298.3,132.4z"/>
		<path d="M315.3,141.9c0.8,1.1,1.2,2.5,1.3,4.3c0.1,1.6-0.1,3-0.6,4.3c-0.5,1.3-1.3,2.4-2.3,3.3c-1.1,0.9-2.3,1.4-3.8,1.5
			c-3,0.3-5.3-0.6-7-2.9l1.4-4.2l0,0l0,0c0.6,1.2,1.3,2,2.2,2.4c0.9,0.4,1.9,0.6,3.2,0.4c1.1-0.1,1.9-0.6,2.4-1.5
			c0.5-0.9,0.8-2,0.7-3.3c-0.1-1.4-0.5-2.5-1.2-3.1c-0.7-0.6-1.8-0.9-3.4-0.7c-0.5,0.1-1.2,0.2-1.8,0.3l-0.3-3.9
			c0.2,0,0.4,0,0.7-0.1c1.8-0.2,3-0.7,3.7-1.5c0.7-0.8,0.9-1.8,0.9-3.1c-0.1-1-0.4-1.9-0.9-2.4c-0.5-0.6-1.3-0.8-2.2-0.7
			c-0.8,0.1-1.5,0.3-2.1,0.8c-0.6,0.4-1.3,1.1-2,2l-2.4-2.5c0.7-1.3,1.7-2.3,2.7-3.1c1.1-0.7,2.2-1.2,3.5-1.3c1.3-0.1,2.5,0,3.6,0.5
			c1.1,0.5,1.9,1.3,2.6,2.3c0.6,1,1,2.2,1.1,3.6c0.1,1.4-0.1,2.7-0.6,3.8c-0.5,1.1-1.2,2-2,2.5C313.6,140.2,314.5,140.9,315.3,141.9
			z M304.1,148.1C304.1,148,304.1,148,304.1,148.1c0.1,0,0.1,0,0.2,0l-0.1,0.3C304.1,148.2,304.1,148.1,304.1,148.1z M304.7,148.2
			C304.7,148.2,304.7,148.3,304.7,148.2c0,0-0.1,0-0.2-0.1c-0.1-0.1-0.2-0.1-0.2-0.1l0-0.1L304.7,148.2L304.7,148.2z"/>
		<path d="M330.3,126.4c1.2,1,2.2,2.5,2.9,4.5c0.7,2,1.2,4.5,1.4,7.5c0.2,3,0.1,5.5-0.4,7.7c-0.5,2.2-1.2,3.9-2.3,5.1
			c-1.1,1.2-2.4,2-3.9,2.1c-1.6,0.2-3-0.2-4.2-1.2c-1.2-1-2.2-2.5-2.9-4.6c-0.7-2-1.2-4.5-1.4-7.5c-0.2-3-0.1-5.5,0.4-7.7
			c0.5-2.2,1.2-3.9,2.3-5.1c1.1-1.2,2.4-1.9,3.9-2.1C327.7,125,329.1,125.4,330.3,126.4z M324.4,130.5c-0.5,0.9-0.9,2.1-1.1,3.7
			c-0.2,1.6-0.2,3.4-0.1,5.6c0.1,1.1,0.2,2.2,0.3,3.2l6.1-10.6c-0.4-1.1-0.9-2-1.4-2.5c-0.6-0.6-1.2-0.8-1.9-0.7
			C325.6,129.1,324.9,129.6,324.4,130.5z M329.7,148.1c0.5-0.9,0.9-2.1,1.1-3.7c0.2-1.6,0.2-3.4,0.1-5.6c-0.1-1.3-0.2-2.4-0.4-3.4
			l-6.1,10.7c0.4,1.2,0.9,2,1.5,2.6c0.6,0.6,1.2,0.8,1.9,0.8C328.5,149.4,329.2,148.9,329.7,148.1z"/>
	</g>
</g>
</svg>
