<svg xmlns="http://www.w3.org/2000/svg" xmlns:xlink="http://www.w3.org/1999/xlink" viewBox="0 0 435.93 529.51"><defs><style>.cls-1{fill:url(#radial-gradient);}.cls-2{fill:#0a0a0a;}.cls-3{fill:#999;}.cls-4{fill:#1e1e1e;}.cls-5{fill:gray;}.cls-13,.cls-6{fill:#e10b31;}.cls-7{fill:#fff;}.cls-8{fill:#ccc;}.cls-9{fill:#585858;}.cls-10{fill:#d6d6d6;}.cls-11{fill:#b3b3b3;}.cls-12{fill:#161616;}.cls-13,.cls-18{stroke:#000;stroke-miterlimit:10;}.cls-13{stroke-width:0.96px;}.cls-14{fill:#903;}.cls-15{clip-path:url(#clip-path);}.cls-16{fill:blue;}.cls-17{fill:#009;}.cls-18{fill:#666;stroke-width:1.92px;}</style><radialGradient id="radial-gradient" cx="212.17" cy="315.72" fx="234.77679358798102" fy="338.2482121969735" r="48.12" gradientUnits="userSpaceOnUse"><stop offset="0" stop-color="#009"/><stop offset="0.01" stop-color="#0008a9"/><stop offset="0.03" stop-color="#0015c4"/><stop offset="0.05" stop-color="#0020da"/><stop offset="0.08" stop-color="#0029eb"/><stop offset="0.11" stop-color="#002ff6"/><stop offset="0.15" stop-color="#0032fd"/><stop offset="0.27" stop-color="#03f"/><stop offset="0.34" stop-color="#0031f5"/><stop offset="0.44" stop-color="#002bd9"/><stop offset="0.58" stop-color="#0023ad"/><stop offset="0.74" stop-color="#00166f"/><stop offset="0.93" stop-color="#000721"/><stop offset="1"/></radialGradient><clipPath id="clip-path"><path class="cls-1" d="M164.29,267.36s10.53,65.12,12.45,73.74c9.57,6.7,83.31,23,83.31,23V287.47S191.1,274.07,164.29,267.36Z"/></clipPath></defs><title>robot-hero</title><g id="Layer_2" data-name="Layer 2"><g id="Long_Page_cz.1" data-name="Long Page cz.1"><path class="cls-2" d="M295.74,374.09c25.8.7,77.84,6.17,98.42,21.05,23.74,17.16,11.74,51.84-56.27,50.6-77.69-1.42-32.09,48.13-68.64,67.11-79.33,41.17-161-3.21-137.51-33.85,12.88-16.77-5.46-43.17-33.38-39.36C9.86,451.71,2,416.75,30.22,400.23,61.74,381.8,237.69,372.5,295.74,374.09Z"/><g id="arm_1" data-name="arm 1"><path class="cls-3" d="M67.67,191.07c6.18,9.7,12.58,20.82,20.9,28.75s19.07,13.91,30.57,14.28c9.32.29,18.92-3,27.8-.19,4.77,1.54,9.07,5.06,10.71,9.8s.11,10.63-4.11,13.35l-4.87,2.61a9.59,9.59,0,0,1-2.69.95c-19.79,3.67-38.23,2.18-55.23-8.51-19-12-32.68-35.06-41.2-55.88A45.63,45.63,0,0,0,67.67,191.07Z"/><path class="cls-4" d="M92.41,225.11c7.4,7.9,19.81,13.78,30.54,14.56,8,.59,28.63-.82,29.15-1.58,1.12-1.61-4.33-3.49-5.76-3.92-9.48-2.83-20.11,1-29.55.33a30.79,30.79,0,0,1-12.58-3.43c-2.06-1.19-4.24-2.5-6-3.62-1.24-.78-2.46-3-3.89-3.19C94.55,224.29,90.67,223.26,92.41,225.11Z"/><path class="cls-5" d="M77.3,212.5S71.37,218.45,60,200.88c-1.9-3-6.8-1-7.28-5a62.81,62.81,0,0,0,14.38-5.09C63.75,194,81.47,209.07,77.3,212.5Z"/><path d="M147,259c-22,4.14-44.09.94-61.88-13.35C69.47,233,58.84,215,51.24,196.65c-.7-1.69-3.48-1-2.77.76C56.58,217,68,236.21,85.07,249.19c18.29,13.87,40.6,16.7,62.71,12.54,1.81-.34,1-3.11-.77-2.77Z"/><path d="M154.26,258.3a13.56,13.56,0,0,0,2.52-19.2c-6.64-8.89-18.15-8.09-28-7-13.67,1.48-25.46-1.64-36.14-10.53-9.85-8.2-16.81-19.19-23.62-29.89-1-1.55-3.48-.11-2.48,1.45,10.21,16,21.53,33.2,40.24,40,9.76,3.55,19,1.75,29,1.18,5.72-.33,11.64.28,16.21,4.05,5.36,4.42,6.91,12.87.77,17.49-1.46,1.1,0,3.59,1.45,2.48Z"/><path d="M133.62,235.13c3.82,8.05,5,19-2.55,25.19-2.09,1.71.92,5.43,3,3.72,9.13-7.47,8.08-20.63,3.43-30.42-1.24-2.62-5.22-1.3-3.89,1.51Z"/><path d="M114.16,235.31c4.5,8.25,4.67,18.71-3.06,25,.64-.52,3.27-.65,4.36-1.54,7.75-6.33,7.72-16.85,3.17-25.2-.26-.48-4.54,1.58-4.47,1.72Z"/><path d="M97.72,228.25a16,16,0,0,1-7.33,20.08c-.85.47,1.39,4.7,2.19,4.26,8.9-4.91,10.49-14.89,6.84-23.78-.69-1.67-3-3.63-1.7-.56Z"/><path d="M81,215.33c-.65,6.36-3.56,14.85-10.18,17-3,1,1,2.29,2.52,1.77,8-2.64,11.65-11.28,12.44-19.1.14-1.4-4.61-1.38-4.78.28Z"/><path d="M68.22,197.37a19.8,19.8,0,0,1-12.36,11.34c-2.78.88-.27,4.85,2.22,4.06A23.48,23.48,0,0,0,72.64,199.1c.94-2.46-3.41-4.36-4.42-1.73Z"/></g><g id="hand_1" data-name="hand 1"><path class="cls-6" d="M67.67,191.07a31.4,31.4,0,0,0,10.48-10.21,23.49,23.49,0,0,0,1.74-19.67c-3.47-9.57-8.55-17.79-20.51-21.42-4.91-1.49-10.21-.68-15.22.47-9.45,2.17-20.09,9.3-20.93,23.62-.49,8.35,2.54,18.28,8.53,24.11s10.51,9.16,18,8.31C56,195.55,61.61,194.32,67.67,191.07Z"/><path class="cls-6" d="M81.49,162.89c4.28-.74,10.16-2.09,11.45-3.5a39,39,0,0,1-6.69-9.18c-3.29,1.24-5.94,2.19-9.24,3.43A42,42,0,0,1,81.49,162.89Z"/><path class="cls-6" d="M39.38,142.76l-3.65-13.45,1.09-.43A17.5,17.5,0,0,1,46,127.39s.85,9,2.82,13.26Z"/><path class="cls-6" d="M25.52,179c-5,0-15.74-.1-15.74-.1l-3.45-9A105.11,105.11,0,0,0,23,168.63C22.75,171.86,23.68,174.21,25.52,179Z"/><path class="cls-6" d="M68.66,144.1a58.37,58.37,0,0,1,3.74-8.33c-2.75-.62-4.1-1.7-6.47-3.24l-.1,0A26.66,26.66,0,0,0,61.88,140,23.58,23.58,0,0,1,68.66,144.1Z"/><path class="cls-6" d="M24.24,156.06c-2-1.46-6.95-4.05-6.95-4.05,1-1.89,2.91-6.33,2.91-6.33l7.75,4Z"/><path class="cls-7" d="M61.72,177.57A40.49,40.49,0,0,0,57,162.18l8.24-5.83c3,5.26,6.81,12.92,4,17.61A38.34,38.34,0,0,1,61.72,177.57Z"/><path d="M81.51,164.72c3.55-1.53,7.1-3,10.71-4.44a1.45,1.45,0,0,0,.85-2.11,52.75,52.75,0,0,0-5.8-9,1.42,1.42,0,0,0-1.4-.37c-3.08,1.16-6.16,2.29-9.24,3.44-1.72.64-1,3.42.76,2.77,3.08-1.15,6.17-2.28,9.25-3.44l-1.4-.37a49.79,49.79,0,0,1,5.35,8.4l.86-2.11c-3.83,1.49-7.61,3.11-11.39,4.73-1.7.72-.23,3.2,1.45,2.48Z"/><path d="M40.84,141.23c-1.51-4-2.6-8.16-3.72-12.3l-1,1.76c3.31-1.29,6.31-2.17,9.92-1.86l-1.39-1.06A58.73,58.73,0,0,1,47.08,139c.24,1.81,3.11,1.83,2.87,0a62.55,62.55,0,0,0-2.53-12A1.49,1.49,0,0,0,46,126c-3.89-.33-7.13.57-10.69,2a1.48,1.48,0,0,0-1,1.77c1.12,4.14,2.21,8.28,3.72,12.3.64,1.72,3.42,1,2.77-.76Z"/><path d="M26.1,177.12c-5.44,0-10.88.17-16.32.33l1.39,1.05A45.61,45.61,0,0,1,9,170L7.57,171.8c5.14-.63,10.28-1.26,15.43-1.73,1.83-.17,1.84-3,0-2.88-5.15.48-10.29,1.1-15.43,1.74a1.47,1.47,0,0,0-1.38,1.82,45.51,45.51,0,0,0,2.21,8.51,1.47,1.47,0,0,0,1.38,1.06c5.44-.15,10.88-.3,16.32-.33a1.44,1.44,0,0,0,0-2.87Z"/><path d="M70.28,145.56a73.74,73.74,0,0,0,3-9.66,1.45,1.45,0,0,0-.66-1.62l-6-3a1.46,1.46,0,0,0-2,.51,73.71,73.71,0,0,0-4,7.45c-.78,1.67,1.7,3.13,2.48,1.45a73.71,73.71,0,0,1,3.95-7.45l-2,.52,6,3-.66-1.62a69.48,69.48,0,0,1-2.66,9c-.72,1.68,1.75,3.14,2.48,1.45Z"/><path d="M24.17,155.12,18,150.75a1.47,1.47,0,0,0-1.74.23h0l2.26,1.74c1.06-2.06,2-4.2,2.91-6.33l-2,.52,8.32,4.33c1.63.86,3.09-1.62,1.45-2.48l-8.32-4.33a1.44,1.44,0,0,0-2,.51c-.92,2.13-1.85,4.27-2.92,6.33A1.45,1.45,0,0,0,18.3,153l0,0-1.74.23,6.14,4.36c1.51,1.08,3-1.41,1.45-2.48Z"/><path d="M51.21,195.78c-13.74.26-23.76-12.45-25.83-25.13-2.25-13.72,5-26.64,18.85-30.13,16.14-4.07,29,6.31,33.91,21.08s-5.88,27.24-18.92,32.32c-1.35.53,2.06,0,2.57-.17,10.88-4.25,20.12-12.07,21-24.56.81-11.82-8-24.45-18.75-28.84-8.78-3.59-20-1.63-28.28,2.57-10.62,5.36-15.6,16.14-14,27.82,1.85,13.23,12.27,26.3,26.48,26,.73,0,3.38-1,3-1Z"/></g><path class="cls-8" d="M132.69,227.14s122.57,22,155.13,23.94c0,53.63-3.83,107.25-8.39,171.95a521.8,521.8,0,0,1-117.53-26.7Z"/><path class="cls-3" d="M198.28,388.5c12.45,9.57,29.54,12.23,36.39,7.66,11.49-7.66,15.32-14.36,35.43-3.83,13.41-1.92,13.41-31.6,13.41-31.6l-3.83,54.58c-46-2.87-83.59-14.33-117.79-26.64l-8.62-40.39a136,136,0,0,0,7.67,15.32C170.51,379.88,183,360.73,198.28,388.5Z"/><path class="cls-9" d="M287.34,410.52c1-28.72-3.11-71.24-6.72-19.72-.37,5.35-2.86,14.94-10.52,16.85-2.87-10.53-5.69-13.81-9.57-14.36-9.3-1.32-17.7-3.53-23.94,0-4.44,2.5-5.75,11.49-13.41,10.53-15.79-2-25.86-5.75-28.73-9.58-1.91-10.53-4.79-21.06-16.28-21.06-5.91,0-16.89,4.27-17.89-1.55,0,0-13-65.69-11.79-51.12l13.4,75.65A511.21,511.21,0,0,0,278.72,423Z"/><path class="cls-7" d="M288.77,251.08c2.88-2.87,37.35-28.72,37.35-28.72,1,14.36-8.62,141.72-15.32,166.62l-29.69,33.51Z"/><path class="cls-9" d="M284.47,220c-2.29,3.32-10.54,12.45-23,10.53-22.86-3.51-71.82-6.7-86.18-8.61-5.75-1-11.24-1.85-32.56,4.82,19.32,4,52.64,8.67,72,12,1.84.29,20.07,3.59,22.66,4,15.53,2.43,46.49,5.49,50,6,.52-.62,22.53-17.94,32.53-23.94C299.9,223.42,285.6,218.31,284.47,220Z"/><g id="HEAD"><path class="cls-5" d="M259.66,205.54s6.36,6.7,9.58,11.87c-37.72-4.32-86.78-7.81-124.54-10.46l-.32.06c-1.91-4.33-5.53-7.81-8.49-11.35Z"/><path class="cls-7" d="M268.17,65.78c1.81,1.73,13.6,23.86,32.35,36.56l1.9,71.07c-13.83,12.5-30.85,41-33.17,43Z"/><path class="cls-10" d="M135.4,193.29c.46-18.67-3.61-82.3-5.7-100.79l125.47-7.58v1.4c2,20,3.51,118.21,3.51,118.21L136.29,194.7Z"/><path d="M136.84,193.29c.36-16.8-.9-33.7-1.89-50.46S133,109.21,131.14,92.5l-1.44,1.44,109.64-6.62,15.83-1-1.43-1.44c-.05,6.19.74,12.47,1,18.66.41,9.83.71,19.66,1,29.49q.79,29.2,1.28,58.41.12,6.53.22,13.05l1.44-1.44-108.36-8.7-10.41-.84c-.91-.07-1.87-.06-2.77-.22-1.81-.31.66,1.06-.49-.76-1-1.56-3.47-.12-2.48,1.45,2.16,3.41,7.28,2.53,11,2.83l28.57,2.29,68.87,5.53L258.67,206a1.44,1.44,0,0,0,1.43-1.43c-.5-32.47-1.07-65-2.34-97.41-.29-7.36-1.2-14.84-1.15-22.2a1.44,1.44,0,0,0-1.44-1.43L145.54,90.11l-15.84,1c-.7,0-1.52.62-1.43,1.43,1.86,16.71,2.81,33.55,3.8,50.33s2.26,33.66,1.9,50.46C133.93,195.14,136.8,195.14,136.84,193.29Z"/><path class="cls-11" d="M270,215.28c3.27-64.19.12-147.56-3.2-148.78-2.31,3.84-7.88,12.32-11.64,18.42l5.5,119.62s5.35,6.7,8.58,11.87Z"/><polygon class="cls-7" points="151.23 76.58 265.02 66.8 255.18 84.58 131.58 91.8 151.23 76.58"/><path d="M253.73,86.32c3.52,39.19,4.14,78.88,3.5,118.21a1.44,1.44,0,0,0,2.87,0c.64-39.33,0-79-3.5-118.21-.16-1.83-3-1.84-2.87,0Z"/><path d="M132,92.69a233,233,0,0,0,19.93-14.75c1.43-1.18-.62-3.2-2-2a228.79,228.79,0,0,1-19.35,14.3c-1.54,1-.1,3.5,1.45,2.48Z"/><path d="M267.62,64.26c-38.48,5.46-77.35,7.93-116,11.24-1.83.15-1.84,3,0,2.87,39-3.33,78.08-5.84,116.81-11.34,1.82-.26,1.05-3-.76-2.77Z"/><path d="M265.42,66.12c-2.15,6.79-7.85,12.07-11.49,18.08a1.44,1.44,0,0,0,2.48,1.45c3.8-6.28,9.53-11.67,11.78-18.77.56-1.76-2.21-2.52-2.77-.76Z"/><path d="M267.16,66.79c3.69,3.81,6.77,8.36,10.16,12.44,2.83,3.4,5.7,6.76,8.65,10q2.91,3.24,5.9,6.4c1.91,2,4.83,4.11,6.33,6.41.7,1.07.56.09.92,1.52a19.83,19.83,0,0,1,.11,4.08l.37,13.82.93,34.93.34,12.68a17.05,17.05,0,0,1,.09,3.42c-.34,1.59-1.74,2.3-3,3.8-6.52,7.62-12.53,15.66-18.42,23.77-3.58,4.92-6.84,11.07-11.29,15.28-1.34,1.27.69,3.3,2,2,3.41-3.22,5.94-7.82,8.66-11.59,5.83-8.12,11.73-16.19,18.08-23.91,2.57-3.13,6.74-5.9,6.81-10.09.06-3.61-.19-7.25-.29-10.86l-1-36.26-.41-15.24c-.06-2.13.38-5-.19-7.06-.78-2.85-5.39-6-7.44-8.12-4.09-4.26-8-8.66-11.85-13.14-4.55-5.34-8.6-11.36-13.48-16.39-1.29-1.33-3.32.71-2,2Z"/><g id="lips"><path class="cls-3" d="M166.23,180.81s-10.63-10.45-9.8-13.51c.95-3.49,6.79-4.4,6.79-4.4S169,176.64,166.23,180.81Z"/><path class="cls-12" d="M163.26,163c22.24-3.95,47.6-2,68.74,5.56,0,0,2.59,2,2.71,3.08a52.73,52.73,0,0,1-.53,15.51l-1.58.67a431.69,431.69,0,0,0-64.24-6.2c-5.61-6.5-6.46-13-6.93-18Z"/><path d="M163.26,164.41a224.58,224.58,0,0,1,68.36,5.52c1.79.43,2.56-2.34.76-2.77a227,227,0,0,0-69.12-5.62c-1.84.13-1.85,3,0,2.87Z"/><path d="M232.57,171.16c1.09-.09,1.54,14,.82,14.76-1.45,1.47-7.48-.7-9.34-1q-11.67-1.77-23.43-2.87-12-1.15-24.11-1.64c-4.88-.2-7.22.45-9.79-4-2.29-4-3.92-8.13-3.85-12.78a1.44,1.44,0,0,0-2.87,0,26.26,26.26,0,0,0,3.4,12.72c.87,1.66,2.31,5.18,3.94,6.27,1.25.83,3.2.47,4.62.52q18.09.54,36.1,2.57c6.3.71,12.58,1.55,18.83,2.57,2.23.36,6.32,2,8.31-.13.85-.91.86-3.71,1-4.87a53.49,53.49,0,0,0,.15-9.72c-.18-2.49-.65-5.54-3.76-5.27-1.82.16-1.84,3,0,2.87Z"/></g><path d="M255.17,83.49,145.54,90.11l-15.84,1c-.7,0-1.52.62-1.43,1.43,1.86,16.71,2.81,33.55,3.8,50.33s2.26,33.66,1.9,50.46c0,1.85,2.83,1.85,2.87,0,.36-16.8-.9-33.7-1.89-50.46S133,109.21,131.14,92.5l-1.44,1.44,109.64-6.62,15.83-1c1.84-.11,1.85-3,0-2.87Z"/><path d="M266.13,66c2.82,24.25,4.11,48.71,4.77,73.1.68,25.15,1.11,50.79-2.28,75.78-.24,1.81,2.52,2.59,2.77.76,3.36-24.78,3.06-50.12,2.42-75.06S271.88,90.75,269,66c-.21-1.81-3.08-1.83-2.87,0Z"/><path d="M144.7,207.38c41.52,3.34,83.15,5.76,124.55,10.46a1.44,1.44,0,0,0,1.24-2.16,76.22,76.22,0,0,0-8.76-10.22,8.06,8.06,0,0,0-3.11-2.37c-1.38-.46-3.31-.27-4.75-.39l-26.45-2.12-73.27-5.89-18.26-1.47c-1.34-.11-1.75,1.59-1,2.45,3,3.54,6.19,6.85,8.27,11.06a1.46,1.46,0,0,0,1.62.66l.31-.06c1.82-.34,1-3.11-.76-2.77l-.31.06,1.62.66c-2.19-4.43-5.53-7.91-8.72-11.64l-1,2.46,113.31,9.1c2.7.22,5.71.85,8.43.68a2.82,2.82,0,0,1,.82.07c.82.19-1.39-.87-.44-.07a60.1,60.1,0,0,1,10,11.25l1.24-2.16c-41.4-4.7-83-7.12-124.55-10.46C142.86,204.36,142.87,207.24,144.7,207.38Z"/><path class="cls-3" d="M244.1,122.29c-7.06-7.59-17.17-2.39-26,.39-5.72,1.79-13.47,1.84-15.18.57-6.16-6.62-14.78-1.25-22.71.34-7,1.4-15.73,1-17.33-.21-5.88-6.45-15.88-4.91-21.64.31s-3.2,14.85,2.1,19.45c7.64,5.79,36.45-1.75,39,.45,18,6.79,29.57-2.65,38.21,2,10.11,7.5,29.12.67,29.23-13.17A13.83,13.83,0,0,0,244.1,122.29Z"/><path d="M200.58,129.17c-1.46,6.2-6,12.3-13.23,9.84a9.35,9.35,0,0,1-6.74-13c3.41-5.11,11.83-4.69,16.89-1.91A6.27,6.27,0,0,1,200.58,129.17Z"/><path d="M237.43,134.3c-1.36,6.25-7.31,7.72-13.13,8.59-7,.81-9-5.29-8.79-9.9.45-9.22,9.33-12.69,15.57-10.55C233.17,123.83,238.81,129.75,237.43,134.3Z"/><path d="M163.69,131.1c-3.4,12.7-14.74,12.14-20,3.92-3.12-5.84,2.05-11.39,8.61-13.22,3.46-1,6.26.32,9,2.71C163,125.82,163.57,128.85,163.69,131.1Z"/><g id="eyes"><path class="cls-13" d="M151.45,131.33c-1.83,1.84-3.71,3.61-5.64,5.34-4,3.56.55,10.82,4.62,7.21,2.51-2.24,5-4.52,7.32-6.89l4.49,4c4.07,3.65,9.63-2.77,5.55-6.43l-4.3-3.86a84.39,84.39,0,0,0,5.29-6.93c3.05-4.49-3.15-10.31-6.23-5.77a86.56,86.56,0,0,1-5.36,7l-6.07-5.45c-4.07-3.64-9.62,2.78-5.55,6.43Z"/><path class="cls-13" d="M181.43,124.56q3.81,2.85,7.37,6a87.89,87.89,0,0,1-7,7.94c-3.86,3.86,2.39,9.61,6.23,5.77a89.06,89.06,0,0,0,6.91-7.76q1.82,1.94,3.53,4c1.49,1.78,3.72,2.61,5.79,1.23,1.7-1.14,2.64-4.22,1.16-6-1.78-2.12-3.61-4.16-5.51-6.14q2.38-3.62,4.47-7.46c2.63-4.86-4.82-8.79-7.43-4q-1.51,2.79-3.21,5.45-3.24-2.89-6.74-5.53C182.65,114.9,177.06,121.29,181.43,124.56Z"/><path class="cls-13" d="M220.27,148.24a95.4,95.4,0,0,0,10.18-9.36,90.55,90.55,0,0,0,7.12,6c4.51,3.38,10.35-3.31,5.79-6.72a89.84,89.84,0,0,1-7.16-6A90.72,90.72,0,0,0,243,122c2.88-5-4.91-9.08-7.77-4.12a79.85,79.85,0,0,1-5.21,7.86,86.5,86.5,0,0,1-7.32-9.68c-3.13-4.83-10.4.12-7.26,5a94.61,94.61,0,0,0,8.83,11.56,85.14,85.14,0,0,1-8.82,8.13C211,144.22,215.82,151.79,220.27,148.24Z"/></g><path class="cls-14" d="M214.27,2.13C226.16,21.24,234.54,41.67,241.56,63c.57,1.75,3.35,1,2.77-.77C237.24,40.68,228.77,20,216.75.68c-1-1.57-3.46-.13-2.48,1.45Z"/><path class="cls-6" d="M209.12,2.68,163,35.73l64,5.65S224.32,26.75,209.12,2.68Z"/><path d="M219.84,147.69a96.54,96.54,0,0,0,10.26-9.14h0l.33-.34.34.32c2,1.82,4,3.56,6.14,5.2l.8.61a8.62,8.62,0,0,0,.79.5,6,6,0,0,0,.83.33,8.65,8.65,0,0,0,.89.11,4.53,4.53,0,0,0,3.21-1.5,3.78,3.78,0,0,0,1-3.29,4,4,0,0,0-.32-.81,4.08,4.08,0,0,0-.54-.7,17,17,0,0,0-1.51-1.24c-2.15-1.66-4.21-3.42-6.2-5.27h0l-.32-.3.27-.34q2.68-3.5,5-7.23l1.14-1.88.56-.94c.13-.31.29-.61.4-.92a3.33,3.33,0,0,0-1-3.51,4.32,4.32,0,0,0-3.65-1.14,4.25,4.25,0,0,0-.92.28,3.37,3.37,0,0,0-.8.53l-.37.33c-.11.12-.19.27-.29.4l-.29.41-.28.48a83.67,83.67,0,0,1-4.94,7.41h0l-.38.52-.43-.49a85.63,85.63,0,0,1-6.36-8l-.73-1.05a9.22,9.22,0,0,0-.71-1,3.17,3.17,0,0,0-1.69-1.14,3.24,3.24,0,0,0-2,.13,3.87,3.87,0,0,0-1.7,1.2,3.3,3.3,0,0,0-.83,1.83,3.58,3.58,0,0,0,0,1,3.79,3.79,0,0,0,.36,1l.24.46.35.51.71,1,1.47,2a95.92,95.92,0,0,0,6.38,7.71h0l.72.79-.74.76q-2.28,2.34-4.74,4.5c-.82.72-1.65,1.43-2.49,2.11l-1.28,1c-.2.17-.45.34-.62.5l-.48.44a3.67,3.67,0,0,0-.92,2.35,4.5,4.5,0,0,0,.77,2.56,3.42,3.42,0,0,0,2.05,1.5A3.13,3.13,0,0,0,219.84,147.69Zm.87,1.1a4.55,4.55,0,0,1-3.58,1.05,5,5,0,0,1-3.12-2.06,6.18,6.18,0,0,1-1.16-3.49,5.39,5.39,0,0,1,1.26-3.56l.67-.68c.22-.21.42-.35.62-.53l1.22-1c.8-.7,1.58-1.41,2.36-2.14q2.31-2.19,4.46-4.54l0,1.55v0a98.1,98.1,0,0,1-6.28-8.08l-1.43-2.12-.7-1.07-.34-.54-.34-.67a5,5,0,0,1,.84-5.65,5.43,5.43,0,0,1,2.44-1.6,4.65,4.65,0,0,1,3-.08,4.55,4.55,0,0,1,2.39,1.69,11.54,11.54,0,0,1,.76,1.09l.68,1a85.66,85.66,0,0,0,6,8.05l-.81,0h0a80.85,80.85,0,0,0,4.9-7.3l.27-.47.35-.5c.13-.16.23-.34.37-.48l.46-.42a4.49,4.49,0,0,1,1-.68,5,5,0,0,1,1.18-.36,5.34,5.34,0,0,1,4.5,1.41,4.33,4.33,0,0,1,1.24,4.54,11,11,0,0,1-.49,1.11l-.56,1-1.16,1.89q-2.38,3.76-5.11,7.29l-.05-.64h0q3,2.74,6.13,5.22a16.51,16.51,0,0,1,1.62,1.32,4.63,4.63,0,0,1,.68.9,5.09,5.09,0,0,1,.42,1.06,4.79,4.79,0,0,1-1.24,4.16,5.49,5.49,0,0,1-3.92,1.81,8.16,8.16,0,0,1-1.12-.15,5.89,5.89,0,0,1-1-.4,12.35,12.35,0,0,1-1.74-1.2c-2.14-1.66-4.21-3.42-6.2-5.26l.68,0h0A96.09,96.09,0,0,1,220.71,148.79Z"/><path d="M181.9,123.93l3.89,2.82,3.88,2.87h0l1,.73-.86,1.05q-2.76,3.36-5.82,6.43l-1.53,1.5a3.13,3.13,0,0,0-.83,1.34,3.07,3.07,0,0,0,.93,3,3.68,3.68,0,0,0,3.16,1.06l.42-.09c.13-.05.26-.13.39-.18a3.17,3.17,0,0,0,.74-.49c.48-.38,1-.95,1.51-1.42,2-2,3.92-4.09,5.73-6.27h0l.37-.43.36.4,2.24,2.52,1.12,1.26a7.26,7.26,0,0,0,1.12,1.1,3.71,3.71,0,0,0,2.77.82,3.48,3.48,0,0,0,1.37-.52,3.52,3.52,0,0,0,1-1,4.45,4.45,0,0,0,.7-2.87,2.74,2.74,0,0,0-.51-1.31c-.32-.4-.73-.83-1.09-1.24l-4.46-5h0l-.26-.28.2-.31q1.91-3,3.61-6c.27-.51.57-1,.81-1.54l.3-.72.12-.75a3.28,3.28,0,0,0-1.17-2.65,4.14,4.14,0,0,0-2.79-1.05,3.26,3.26,0,0,0-2.5,1.36c-.14.22-.28.4-.43.65l-.44.77L196.1,121,194.33,124h0l-.44.76-.65-.61c-1.32-1.23-2.7-2.41-4.1-3.56-.71-.57-1.42-1.12-2.14-1.67a10.71,10.71,0,0,0-1-.68,3.5,3.5,0,0,0-.54-.2,1.51,1.51,0,0,0-.55-.12,3.92,3.92,0,0,0-3.84,2.1,2.88,2.88,0,0,0-.35,2.12A3.26,3.26,0,0,0,181.9,123.93Zm-1,1.26a4.84,4.84,0,0,1-1.76-2.69,4.41,4.41,0,0,1,.57-3.14,5.39,5.39,0,0,1,5.27-2.72,2.47,2.47,0,0,1,.77.17,6,6,0,0,1,.74.29,9.87,9.87,0,0,1,1.24.81c.73.56,1.46,1.13,2.17,1.7,1.45,1.13,2.85,2.32,4.24,3.51l-1.08.15h0l1.8-3,.9-1.5.45-.75c.15-.26.36-.55.55-.82a4.51,4.51,0,0,1,3.52-1.81A5.34,5.34,0,0,1,204,116.8a4.49,4.49,0,0,1,1.5,3.61c-.05.33-.12.66-.19,1s-.25.6-.38.9c-.28.55-.57,1-.86,1.56q-1.77,3.08-3.75,6l-.05-.59h0l4.5,5c.37.43.74.8,1.12,1.28a3.67,3.67,0,0,1,.7,1.77,5.34,5.34,0,0,1-.85,3.51,4.41,4.41,0,0,1-3.06,2,4.66,4.66,0,0,1-3.49-1,7.87,7.87,0,0,1-1.27-1.24l-1.11-1.25-2.22-2.49.72,0h0c-1.72,2.28-3.55,4.5-5.49,6.62-.51.53-.93,1-1.52,1.58a4.56,4.56,0,0,1-1,.73,6.1,6.1,0,0,1-.57.29l-.62.18a5.43,5.43,0,0,1-1.27.14,5.82,5.82,0,0,1-3.44-1.45,5.62,5.62,0,0,1-1.45-2.09,4.46,4.46,0,0,1-.2-2.66,5.16,5.16,0,0,1,1.26-2.32l1.44-1.57c1.89-2.08,3.68-4.26,5.36-6.51l.15,1.78h0c-1-1.17-2.19-2.27-3.35-3.33S182.19,126.17,181,125.19Z"/><path d="M152.32,131.31c-1.89,2-3.94,4.05-6,5.93a3.72,3.72,0,0,0-1.33,2.85,4.67,4.67,0,0,0,1.1,3.09,2.57,2.57,0,0,0,2.78.9c1-.31,1.87-1.37,2.84-2.21l5.69-5.22.33-.31.33.29c1.55,1.38,3.11,2.82,4.65,4.15a3.26,3.26,0,0,0,2.54.82,3.89,3.89,0,0,0,2.39-1.31,4.06,4.06,0,0,0,1.07-2.53,3.39,3.39,0,0,0-1-2.49,11.16,11.16,0,0,0-1.1-1.05l-1.16-1-2.33-2.09-.34-.31.29-.36c1.62-2,3.16-4,4.58-6.11l.53-.8.4-.74c.11-.26.16-.53.25-.79s.05-.55.06-.82a4.51,4.51,0,0,0-1.33-3,3,3,0,0,0-2.78-1,4.55,4.55,0,0,0-.65.28,4.36,4.36,0,0,0-.56.5c-.16.23-.32.37-.5.65l-.54.81c-1.46,2.15-3,4.22-4.65,6.23h0l-.62.77-.75-.68-5.43-4.9c-.22-.19-.46-.42-.67-.59l-.59-.44c-.22-.08-.42-.2-.64-.27a3.87,3.87,0,0,0-.67-.1,3.4,3.4,0,0,0-2.51,1.17,3.49,3.49,0,0,0-.95,2.65,2,2,0,0,0,0,.35l.11.33a2.05,2.05,0,0,0,.31.63,2.4,2.4,0,0,0,.45.57,7.74,7.74,0,0,0,.64.63C148.6,127.59,150.51,129.49,152.32,131.31Zm-1.75.05c-1.82-1.44-3.54-2.8-5.2-4.28a7.53,7.53,0,0,1-.67-.64,4.09,4.09,0,0,1-.68-.86,3.72,3.72,0,0,1-.49-1l-.17-.54a3.43,3.43,0,0,1-.07-.56,5.35,5.35,0,0,1,1.39-4,5.24,5.24,0,0,1,3.92-1.79,5.51,5.51,0,0,1,1.14.17,7.9,7.9,0,0,1,1,.44c.31.2.6.42.89.63s.47.41.7.62l5.46,4.87-1.37.09h0c1.66-1.92,3.25-3.9,4.74-5.95l.56-.77a9.56,9.56,0,0,1,.69-.85,5.94,5.94,0,0,1,.91-.73,4.09,4.09,0,0,1,5.27,1,5.86,5.86,0,0,1,1.63,3.94c0,.37-.07.74-.12,1.1s-.21.7-.36,1-.35.64-.53.93l-.56.79c-1.52,2.1-3.14,4.11-4.84,6l0-.67,2.33,2.1,1.16,1a13.28,13.28,0,0,1,1.17,1.11,4.39,4.39,0,0,1,1.21,3.18,5.06,5.06,0,0,1-1.32,3.13,4.81,4.81,0,0,1-3,1.62,4.21,4.21,0,0,1-3.26-1c-1.62-1.38-3.12-2.78-4.69-4.17l.66,0-5.6,5.4-1.4,1.35a5.75,5.75,0,0,1-.81.66,3.61,3.61,0,0,1-1,.53,4.79,4.79,0,0,1-1.15.23,4.39,4.39,0,0,1-1.15-.19l-.55-.2-.49-.3a5,5,0,0,1-.85-.73,6,6,0,0,1-1.55-4,5.23,5.23,0,0,1,1.75-4C147,134.4,148.71,132.91,150.57,131.36Z"/></g><g id="foot_2" data-name="foot 2"><path class="cls-3" d="M46.93,356.31c17.61,25.61,30.25,44.07,37.4,74.32,0,0-19.15,3.83-31.6,8.62C46,422,28.7,389.59,11.55,376.05Z"/><path class="cls-4" d="M10.59,377c15.32,14.36,24.9,28.73,38.31,59.37,0,0-7.66-8.62-14.37-13.41A129.31,129.31,0,0,0,2,375.09Z"/><path d="M10.06,377.54C27.7,393.88,39.44,415,48,437.24c.66,1.71,3.44,1,2.77-.76-8.72-22.72-20.66-44.29-38.67-61-1.36-1.25-3.39.77-2,2Z"/><path d="M12.13,377.62c12-6.82,23.62-14.24,35.1-21.88,1.53-1,.09-3.5-1.45-2.48-11.48,7.64-23.11,15.06-35.1,21.88a1.44,1.44,0,0,0,1.45,2.48Z"/><path d="M52.63,440.16c9.47-2.49,18.56-6.45,28.35-7.61,1.81-.22,1.83-3.09,0-2.88-10.07,1.21-19.37,5.16-29.11,7.72a1.44,1.44,0,0,0,.76,2.77Z"/><path d="M45.91,355.41a204,204,0,0,1,37.51,77c.44,1.8,3.21,1,2.77-.76a207.42,207.42,0,0,0-38.25-78.31c-1.13-1.46-3.15.58-2,2Z"/></g><g id="body"><path d="M132.74,228.16q76.27,15.6,153.74,24.11c1.84.2,1.82-2.67,0-2.87q-77-8.47-153-24c-1.8-.37-2.58,2.39-.76,2.77Z"/><path d="M130.35,227.41c5.65,29.3,10.44,58.74,15.72,88.1,4.77,26.51,11.19,53.07,13.4,80,.15,1.83,3,1.84,2.87,0-2.18-26.57-8.46-52.8-13.19-79-5.4-29.94-10.27-60-16-89.84-.35-1.81-3.12-1.05-2.77.76Z"/><path d="M325.59,222.37c-2.33,31.06-4.81,62.11-7.15,93.17-1.69,22.34-3.7,45-8.07,67-.52,2.64-.88,5.12-2.45,7.36A131.22,131.22,0,0,1,298.73,401q-9.93,11.26-19.92,22.47c-1.22,1.38.8,3.42,2,2q9.2-10.36,18.4-20.74c4.1-4.63,10.48-10.14,12.68-16,1.68-4.48,2.07-9.83,2.8-14.52.94-6,1.74-12.09,2.48-18.14,3.19-26,5-52.09,7-78.19q2.16-27.76,4.27-55.53c.14-1.85-2.73-1.84-2.87,0Z"/><path d="M282.64,418.46c2.12-31.3,3.57-62.65,5-94,.73-16.2,1.43-32.41,2-48.61.2-5.82.38-11.64.48-17.46a44.22,44.22,0,0,0,.06-6c-.09-.86.49-2.61-.69-.94a5.4,5.4,0,0,1,1.26-.93c12.76-8.29,24.53-18.26,37-26.95,1.51-1.05.08-3.54-1.45-2.48-11.84,8.23-23.39,16.9-35,25.45-3.26,2.4-4,2.72-4,6.84,0,5.08-.16,10.15-.31,15.22-1,33.93-2.68,67.84-4.44,101.73-.84,16-1.68,32.07-2.77,48.09-.12,1.84,2.75,1.84,2.88,0Z"/><path d="M132.79,228.42c13.74-3.31,26.93-8.41,40.5-12.34a1.44,1.44,0,0,0-.77-2.77c-13.56,3.93-26.75,9-40.5,12.34-1.79.43-1,3.2.77,2.77Z"/><path d="M286.86,218.05c13.35,1.19,26.58,3.79,39.84,5.69,1.81.26,2.59-2.51.76-2.77-13.51-1.94-27-4.58-40.6-5.8-1.84-.16-1.83,2.71,0,2.88Z"/><path d="M161.51,397.72a532.2,532.2,0,0,0,117.92,26.75c1.84.2,1.82-2.68,0-2.88A528.21,528.21,0,0,1,162.28,395c-1.75-.62-2.5,2.16-.77,2.77Z"/></g><g id="leg_1" data-name="leg 1"><path class="cls-3" d="M218.06,431.26c1.66-12.94,16.85-35.73,19.09-38.14,8.22-8.84,25.64-5.1,27.22,5.87,2.38,14.11-4.74,23.69-7.12,34.66Z"/><path d="M219.44,431.65c1.27-8.46,5.6-16.43,9.8-23.76,3-5.24,6.38-12.75,11.74-16,8.39-5.15,21-1.3,22.19,9,1.36,11.63-4.73,21.44-7.3,32.37l1.38-1-39.19-2.39c-1.85-.11-1.84,2.76,0,2.87l39.19,2.39a1.44,1.44,0,0,0,1.39-1.06c2.81-12,10.32-23.71,6.92-36.46-2.3-8.59-12.45-12.06-20.47-10.37s-11.67,8.24-15.62,14.67c-5.39,8.77-11.24,18.67-12.8,29C216.4,432.69,219.17,433.47,219.44,431.65Z"/></g><g id="foot_1" data-name="foot 1"><path class="cls-7" d="M257.09,419.29s-53.06-5.89-74.94-3.72c-2.86,4.09-7.68,12.24-10.68,15.06a543.78,543.78,0,0,1,77.09,6.23c3.83-4.79,7.52-13.33,8.61-17.24"/><path class="cls-3" d="M248.56,436.86c4.78,18.19,5.74,42.13,3.83,69.9,7.66-14.36,10.73-68.72,4.7-87.47Z"/><path class="cls-8" d="M172.71,503.15q38.26,2.76,76.45,6.49s1.92-12.95,2.38-19.89c1.27-19.19-1.06-46.36-3-53.28-5.23-1.23-53.68-5.76-76.88-5.38C173,447.14,175,478,173,501.42"/><path d="M172.71,504.59q38.26,2.78,76.45,6.49a1.42,1.42,0,0,0,1.38-1.06,223.91,223.91,0,0,0,2.77-36.11c-.18-12.34-.22-25.79-3.38-37.82a1.42,1.42,0,0,0-1-1c-10.17-2.23-21.09-2.47-31.44-3.3-15.22-1.21-30.54-2.34-45.82-2.14a1.46,1.46,0,0,0-1.44,1.44c1.92,23.32,3.29,47,1.36,70.33-.15,1.84,2.72,1.83,2.87,0,1.93-23.36.57-47-1.36-70.33l-1.43,1.44c20.57-.27,41.27,1.54,61.73,3.54,3.59.35,7.17.71,10.75,1.17a12.52,12.52,0,0,1,3.33.48c1,.49-.44-.82-.1,0a12,12,0,0,1,.51,2.54c2,11.28,2.44,23,2.57,34.45a218.7,218.7,0,0,1-2.68,34.57l1.39-1.06q-38.19-3.7-76.45-6.48c-1.84-.14-1.83,2.74,0,2.87Z"/><path d="M253.36,422A51.36,51.36,0,0,1,249,432.58c-.89,1.62,1.59,3.07,2.48,1.45a54.83,54.83,0,0,0,4.67-11.26,1.44,1.44,0,0,0-2.77-.76Z"/><path d="M173,431.17a61.49,61.49,0,0,0,5-6c.94-1.27,1.85-2.56,2.71-3.89.65-1,1.53-3.6,2.5-4.21,1.9-1.19,6.89-.54,9.09-.6,3.66-.09,7.32-.09,11,0,13.47.26,26.93,1.32,40.32,2.73,3.87.41,7.74,1,11.61,1.34,2,.17,1,.57.76-.06a34.25,34.25,0,0,1,1.5,7c2,12.76,1.65,26,.89,38.86-.75,12.6-1.61,26-5.76,38.07-.61,1.75,2.17,2.5,2.77.76,4.56-13.23,5.37-28.27,6-42.14.69-14.34,1.38-30.19-2.9-44.09a1.42,1.42,0,0,0-1-1c-24.7-3.35-50.43-6-75.32-3.77a1.43,1.43,0,0,0-1.24.71,50.67,50.67,0,0,1-10,14.29c-1.28,1.33.75,3.37,2,2Z"/></g><path class="cls-8" d="M311.46,259.2s-9.76,1.94-10.72,31.62c-.71,22,1,37.35,5.75,32.56S308,284,317.3,279.75,311.46,259.2,311.46,259.2Z"/><g id="arm_1-2" data-name="arm 1"><path class="cls-3" d="M378.79,361.21c-2.55-12.66-4.76-26.88-10.29-38.55s-14.35-22.28-26.24-27.31c-9.65-4.07-21.05-4.45-29.19-11-4.38-3.55-7.47-9-7.26-14.6s4.18-11.18,9.7-12.32l6.15-.76a10.42,10.42,0,0,1,3.2.09c22.21,4.15,40.92,13.15,54.41,31.21,15.11,20.24,20.06,49.92,20.59,75.17A51.27,51.27,0,0,0,378.79,361.21Z"/><path class="cls-4" d="M366.63,315.57c-4.56-11.27-15.19-22.44-26.11-27.6-8.17-3.85-30.32-10.69-31.17-10.12-1.83,1.24,3.13,5.42,4.45,6.44,8.78,6.79,21.48,7.07,31.09,11.59,4.36,2.06,9,5.18,11.79,8.68,1.67,2.08,3.42,4.32,4.83,6.21,1,1.32,1.36,4.16,2.79,4.91C364.05,315.55,367.7,318.21,366.63,315.57Z"/><path class="cls-7" d="M319.14,263.37c15.39,2.53,31.73,8.81,43.46,19.36a87.74,87.74,0,0,1,24.92,40.08c.52,1.77,3.3,1,2.77-.77a90.48,90.48,0,0,0-25.66-41.35c-12.08-10.85-28.87-17.48-44.73-20.09-1.81-.3-2.59,2.47-.76,2.77Z"/><path class="cls-5" d="M377.35,334.87S386,331,390.76,354c.8,3.87,6.7,3.84,5.62,8.14a70.53,70.53,0,0,0-17.11-.47C384.06,359.77,371.61,336.79,377.35,334.87Z"/><path d="M322.88,257.83c23.17,4.23,44.11,15.08,57.34,35.13,13.33,20.21,17.61,45.4,18.2,69.2.05,1.85,2.92,1.86,2.87,0-.61-24.76-5.15-51.15-19.46-71.94-13.7-19.91-34.79-30.89-58.18-35.16-1.81-.33-2.59,2.44-.77,2.77Z"/><path d="M315.12,256c-9.52,2.64-13,13.25-9,21.82,5,10.75,17.12,13.32,27.48,16.16,30.48,8.37,38.6,38.56,44.17,66.16.36,1.81,3.13,1,2.77-.77-4.37-21.65-9.66-45.51-28.17-59.74-8.39-6.45-18.11-8-27.92-11.17-6-1.95-11.93-5-15.15-10.73-4-7.05-1.84-16.63,6.57-19a1.44,1.44,0,0,0-.77-2.77Z"/><path d="M327.47,287.86c-.73-9.57,2.29-22,12.44-25.23,2.77-.89,2.2-5.17-.77-4.23-12.84,4.11-17.23,18.22-16.28,30.6.21,2.83,4.82,1.56,4.61-1.14Z"/><path d="M346.91,296.6c-1.32-9.93,2.84-20.23,12.87-23.42,1.73-.56-.29-4.87-2.2-4.26-11.28,3.59-15.41,15.7-13.95,26.66.27,2,3.7,4.13,3.28,1Z"/><path d="M363.92,309.15c-.21-8.84,5.05-17,14.15-18.13,2.93-.38,2.46-3.65-.48-3.27-11.34,1.46-18.68,10.78-18.41,22.09.05,2.16,4.8,1.56,4.74-.69Z"/><path d="M374.3,330c3.16-6.24,9.11-13.34,16.7-13,2.69.13,3.6-3.37.48-3.52-9.65-.45-17.53,7.72-21.61,15.76-1.21,2.39,3.45,2.66,4.43.74Z"/><path d="M381,351.83a18.17,18.17,0,0,1,14.84-6c1.34.07,3.56-1.8,4.27-1.76-8.13-.46-17.92,3.17-23.47,9.3.45-.5,3.46-.52,4.36-1.52Z"/></g><g id="leg_2" data-name="leg 2"><path class="cls-4" d="M81.72,398.53s6.89,16.15,7.57,27.46c5.72-2.66,45.47-19.38,88.86-25.84,6.89-.81,15.74-6.15,9.3-19-6.89-13.73-39.09-4.5-39.09-4.5S89.29,390.46,81.72,398.53Z"/><path class="cls-3" d="M188.71,391.37c-32.1-1-93.39,23.84-100.8,26.56-1.73-5.13-6.2-19.4-6.2-19.4a9.7,9.7,0,0,1,1.58-1.29c7.48-3.42,15.59-6.63,24-9.52,18.92-5.88,41.11-11.06,41.11-11.06s1-.28,2.62-.66c5-.93,9.75-1.68,14.29-2.22,8.93-.6,17.69-1.56,22.18,7.39C189.68,385.62,189.66,387.54,188.71,391.37Z"/><path class="cls-8" d="M189.11,386.52c-27.92-.87-79.68,16.41-97.56,22.71a5.83,5.83,0,0,1-7.46-3.65l-2.38-7.05a9.7,9.7,0,0,1,1.58-1.29c7.48-3.42,15.59-6.63,24-9.52,18.92-5.88,41.11-11.06,41.11-11.06s1-.28,2.62-.66c5-.93,9.75-1.68,14.29-2.22,8.93-.6,18.72.52,22.18,7.39C187.71,381.69,188.91,386,189.11,386.52Z"/><path d="M82.1,399.37a292.38,292.38,0,0,1,49.5-17.53c8.3-2.17,16.68-4,25.14-5.41,6.89-1.13,16-3.58,22.75-.88s12,13.29,6.11,19.49c-3.3,3.48-8.8,3.81-13.19,4.63-14.19,2.64-28.57,4.73-42.33,9.19-13,4.2-26.17,8.64-38.41,14.68-1.66.81-.2,3.29,1.45,2.48,12.78-6.3,26.66-10.93,40.23-15.19a193.09,193.09,0,0,1,21.75-5c8.53-1.64,17.61-2.43,25.92-4.93,10.36-3.12,13.14-15.91,5.71-23.88-4.88-5.24-11.43-5.68-18.1-5a229.27,229.27,0,0,0-25.78,4.22,298.75,298.75,0,0,0-62.2,20.71c-1.68.78-.22,3.25,1.45,2.48Z"/></g><g id="hand_1-2" data-name="hand 1"><path class="cls-6" d="M378.79,361.21a35.3,35.3,0,0,0-15.1,6.46,26.42,26.42,0,0,0-9.77,19.91c-.23,11.41,1.77,22.08,12.83,30.71,4.55,3.54,10.43,4.83,16.13,5.65,10.77,1.55,24.8-1.62,31.46-16.28,3.89-8.55,4.73-20.17.81-28.7s-7.31-13.84-15.47-16C392.78,361.21,386.45,360.25,378.79,361.21Z"/><path class="cls-6" d="M352.93,385.15c-4.78-1-11.49-1.92-13.4-1a43.65,43.65,0,0,1,3.29,12.31c4,0,7.12.1,11.07.14A46.54,46.54,0,0,1,352.93,385.15Z"/><path class="cls-6" d="M388.91,423.24l-1.62,15.56H386a19.51,19.51,0,0,1-10.25-2.17s2.72-9.72,2.39-15Z"/><path class="cls-6" d="M418.05,390.89c5.25,2,16.45,6.47,16.45,6.47v10.78a118.22,118.22,0,0,0-18-5.38C418.08,399.48,418.05,396.64,418.05,390.89Z"/><path class="cls-6" d="M358.78,410c-2,2.72-7.28,7.22-7.28,7.22,2.63,1.76,3.61,3.43,5.46,6l.12,0a30.31,30.31,0,0,0,7.15-6.21A26.8,26.8,0,0,1,358.78,410Z"/><path class="cls-6" d="M410.13,415.42c1.56,2.36,5.66,7.05,5.66,7.05-1.82,1.58-5.61,5.46-5.61,5.46-2.32-2.63-4.18-4.72-6.49-7.35Z"/><path class="cls-7" d="M379.57,377.75a45.3,45.3,0,0,0-1.28,18l-11,2.78c-1-6.7-1.92-16.28,2.87-20.08A43.47,43.47,0,0,1,379.57,377.75Z"/><path d="M353.91,383.38c-4.47.17-9,.33-13.42.33-.7,0-1.55.66-1.44,1.44a58.4,58.4,0,0,0,2.38,11.73,1.51,1.51,0,0,0,1.39,1.06c3.69,0,7.38.1,11.07.13a1.44,1.44,0,0,0,0-2.87c-3.69,0-7.38-.1-11.07-.13l1.38,1.05a54.57,54.57,0,0,1-2.28-11l-1.43,1.43c4.47,0,8.95-.16,13.42-.33,1.84-.07,1.85-2.94,0-2.87Z"/><path d="M386.93,424.41c0,4.82-.57,9.6-1.07,14.39l1.43-1.44c-3.84,0-7.3-.24-10.84-2l.71,1.24a65.54,65.54,0,0,1,2.06-12.81c.43-1.79-2.34-2.56-2.77-.76a69.39,69.39,0,0,0-2.16,13.57,1.41,1.41,0,0,0,.71,1.24c4,2,7.88,2.38,12.29,2.36a1.48,1.48,0,0,0,1.44-1.44c.5-4.79,1-9.57,1.07-14.39a1.44,1.44,0,0,0-2.87,0Z"/><path d="M416.9,392.5c5.7,2.17,11.46,4.2,17.21,6.24l-1.05-1.38a49,49,0,0,1-1.07,9.43l1.76-1c-5.63-1.41-11.27-2.83-16.86-4.42a1.44,1.44,0,0,0-.76,2.77c5.59,1.59,11.23,3,16.86,4.42a1.47,1.47,0,0,0,1.77-1,52.87,52.87,0,0,0,1.17-10.19,1.47,1.47,0,0,0-1.05-1.39c-5.76-2-11.51-4.07-17.22-6.24-1.73-.66-2.48,2.12-.76,2.77Z"/><path d="M357.66,408.07a84.22,84.22,0,0,0-6.92,8.91,1.44,1.44,0,0,0,.22,1.74l5.1,5.54a1.45,1.45,0,0,0,1.75.23,85.82,85.82,0,0,0,7.43-6.43c1.34-1.29-.7-3.32-2-2a81,81,0,0,1-6.85,6l1.74.22L353,416.69l.23,1.74a76.78,76.78,0,0,1,6.48-8.33c1.29-1.32-.74-3.36-2-2Z"/><path d="M409.85,416.15l4.67,7.06a1.48,1.48,0,0,0,1.62.66h0l-1.4-2.4c-1.95,1.73-3.79,3.59-5.61,5.45h2l-6.95-7.9c-1.23-1.39-3.25.65-2,2l7,7.9a1.45,1.45,0,0,0,2,0c1.83-1.86,3.66-3.72,5.61-5.45a1.45,1.45,0,0,0-1.4-2.4h0l1.62.66-4.67-7.06c-1-1.54-3.5-.1-2.48,1.45Z"/><path d="M399.79,364.31c16,5.75,19.36,26.94,13.6,41.12-5.32,13.11-18.22,19-31.79,17-9.72-1.42-17.88-5.83-22.53-14.81a38,38,0,0,1-3.32-22.29c1.22-7.67,6.65-14.58,13.27-18.43,6-3.5,12.44-4.26,19.25-4.28,1.76,0-.37-2.81-1.73-2.81-13.37.05-26.29,5-32.1,18-5.34,11.95-1.38,28.5,7.53,37.69,8.67,8.93,23.14,12.33,35.13,9.14,13.59-3.62,21.18-16.15,22.07-29.68.9-13.72-6.23-28.46-19.6-33.26-2.22-.79-1.25,2.09.22,2.62Z"/></g><path d="M2.4,377.54c8.5,8.69,15.55,19.35,21.93,29.65,2,3.19,3.89,6.44,5.64,9.77,1.18,2.25,2,5.29,3.54,7.23,1.84,2.31,4.83,4.25,6.89,6.47,2.75,2.95,5.37,6,8,9.13,1.19,1.42,3.21-.62,2-2-2.59-3.1-5.21-6.18-8-9.13-2-2.14-4.7-4-6.51-6.22-2.06-2.53-3.19-6.43-4.77-9.31-1.73-3.13-3.58-6.19-5.49-9.21-6.24-9.83-13-20-21.23-28.38-1.3-1.32-3.33.71-2,2Z"/><path d="M1.06,375.19c3.35.7,6.73,1.35,10,2.33a1.44,1.44,0,0,0,.76-2.77c-3.28-1-6.65-1.63-10-2.33-1.8-.37-2.57,2.4-.76,2.77Z"/><path d="M2.46,374.82c6.29-6.23,13.85-11.37,21.46-15.86,3-1.79,6.6-4.35,10-5a28.63,28.63,0,0,1,11.55.77,1.44,1.44,0,0,0,.76-2.77,32.3,32.3,0,0,0-12-.89c-3.53.45-6.7,2.48-9.79,4.23-8.56,4.8-17.08,10.55-24.07,17.48a1.44,1.44,0,0,0,2,2Z"/><path class="cls-1" d="M164.29,267.36s10.53,65.12,12.45,73.74c9.57,6.7,83.31,23,83.31,23V287.47S191.1,274.07,164.29,267.36Z"/><g class="cls-15"><circle class="cls-16" cx="229.84" cy="341.33" r="33.13" transform="translate(-174.04 262.49) rotate(-45)"/><path d="M261.47,339.19c.56,12.86-6.11,25-17.82,30.67a31.7,31.7,0,1,1-11.1-60.12c15.58,1.31,27.6,14.06,28.92,29.45.15,1.83,3,1.84,2.87,0-1.21-14.19-10.41-26.52-24.16-30.86A34.58,34.58,0,1,0,237.83,375c16.38-3.85,27.24-19.2,26.51-35.78C264.26,337.35,261.39,337.34,261.47,339.19Z"/><path class="cls-17" d="M227.7,308.26c.57,0,1.14-.06,1.71-.06l-.89-4.65a1.78,1.78,0,0,0-1.45-1.43,19.13,19.13,0,0,0-16.14,4.49,1.81,1.81,0,0,0-.52,1.9l1.57,4.91A33,33,0,0,1,227.7,308.26Z"/><path d="M227.7,309.34c.57,0,1.14-.06,1.71-.07a1.1,1.1,0,0,0,1-1.36c-.36-1.87-.34-5-1.94-6.29-2.74-2.26-9.28-.65-12.15.46-2.07.81-6.18,2.56-7,5-.62,1.93,1,4.86,1.54,6.64a1.09,1.09,0,0,0,1.58.64,33.94,33.94,0,0,1,15.18-5c1.37-.11,1.38-2.27,0-2.15a36.23,36.23,0,0,0-16.27,5.3l1.59.64c-.42-1.29-1.42-3.13-1.44-4.48,0-2.36,3.87-3.95,5.78-4.66,2.29-.85,8.59-2.48,10.14-.08.67,1,.64,3.35.87,4.57l1-1.36c-.57,0-1.14,0-1.71.07C226.32,307.26,226.31,309.41,227.7,309.34Z"/><path d="M228.52,303.55a1.78,1.78,0,0,0-1.45-1.43,19.64,19.64,0,0,0-4-.31l2.33,6.68h0c.74-.1,1.5-.18,2.26-.23.57,0,1.14-.06,1.71-.06Z"/><path class="cls-7" d="M215,318.69a15.11,15.11,0,0,0-1.58,1.52c-.5.53-1,1.1-1.41,1.67a25.31,25.31,0,0,0-2.33,3.62,24.89,24.89,0,0,0-1.7,3.9,28.52,28.52,0,0,0-1.1,4.05,24.29,24.29,0,0,0-.36,4.17l0,1c0,.34,0,.69,0,1s0,.7-.08,1-.05.7-.09,1c-.16,1.4-.29,2.82-.5,4.28-.09.73-.18,1.47-.32,2.22a18.79,18.79,0,0,1-.48,2.32l-.48.1a17.11,17.11,0,0,1-1.25-2.08,22,22,0,0,1-.89-2.2,20.54,20.54,0,0,1-.95-4.65,15.19,15.19,0,0,1,.31-4.75c.39-1.57.87-3.09,1.39-4.59a30.67,30.67,0,0,1,1.91-4.35,26.77,26.77,0,0,1,2.62-3.92,25.66,25.66,0,0,1,3.26-3.33,18.58,18.58,0,0,1,3.84-2.55Z"/><path class="cls-17" d="M217.78,311.25c5.81-1.41,42,16.65,21.26,61.91a33.14,33.14,0,0,0,23.86-34C261.72,320.93,241.46,301.74,217.78,311.25Z"/><path d="M261.47,339.19c.56,12.86-6.11,25-17.82,30.67a31.7,31.7,0,1,1-11.1-60.12c15.58,1.31,27.6,14.06,28.92,29.45.15,1.83,3,1.84,2.87,0-1.21-14.19-10.41-26.52-24.16-30.86A34.58,34.58,0,1,0,237.83,375c16.38-3.85,27.24-19.2,26.51-35.78C264.26,337.35,261.39,337.34,261.47,339.19Z"/></g><path class="cls-11" d="M162.37,326.09c-8.42-24.18-17.53-82.5-17.71-87-.09-2-7-7.82-7-6.11C138,246.34,156.54,348.73,162,352c.87.52,1.64-10.44,1.9-11.92A27.08,27.08,0,0,0,162.37,326.09Z"/><path d="M162.9,267.74c3.62,22.36,7.18,44.74,11.18,67,.54,3,.35,6.63,3.17,8.3,3.72,2.2,8.31,3.38,12.4,4.67,13.52,4.26,27.32,7.65,41.09,11,9.62,2.33,19.26,4.59,28.93,6.72a1.45,1.45,0,0,0,1.81-1.38V287.47a1.45,1.45,0,0,0-1.05-1.38c-32-6.22-64.13-12.25-95.76-20.11-1.8-.45-2.56,2.32-.76,2.77,31.62,7.86,63.77,13.89,95.76,20.11l-1.06-1.39v76.61l1.82-1.39c-21.31-4.7-42.63-9.68-63.59-15.77a154.16,154.16,0,0,1-15.28-5c-4.21-1.73-3.59-1.69-4.43-6.29-2.31-12.68-4.37-25.41-6.47-38.13q-2.52-15.25-5-30.5C165.38,265.16,162.61,265.93,162.9,267.74Z"/><path class="cls-18" d="M217.75,301.11c-2.19-9.33-6.09-18.34-14.94-23.09-7.93-4.25-17.38-3.71-24.16,2.48-8.51,7.78-6.87,20.44-15.06,28.18-8,7.5-20.11,8.2-30.32,6.33-1.69-.31.88,3.43,2.13,3.66,7.94,1.45,16.43,1.45,24-1.73,8.53-3.6,12.45-10.27,14.67-18.88,2.29-8.88,8.27-17.51,17.93-19a19.23,19.23,0,0,1,13.85,3.37c5.19,3.75,7,10.37,8.42,16.29.29,1.2,3.88,3.95,3.51,2.38Z"/><path class="cls-8" d="M286.94,173.9c-1.7-.75-1.87-7.07-1-9.22.57-1.42,5-4.09,6,0S289,174.82,286.94,173.9Z"/><path class="cls-7" d="M292.87,160.59c2.52-2.39,9.82-7.09,9.82-7.09l1.55-24.56s-8.85-6.18-14.15-10.11l-3.71.91v40.49Z"/><path class="cls-8" d="M292.87,160.59l4-3.83c-2.87-3.83-3.83-21.07,0-26.81-4.78-3.83-7-6.16-9.57-11.17-1,11.17-1,28-1,41.45Z"/><path d="M284.94,119.74v40.49a1.44,1.44,0,0,0,2.88,0V119.74a1.44,1.44,0,0,0-2.88,0Z"/><path d="M297.31,131.1a48.43,48.43,0,0,0-1,19.44c.18,1.35,2.33,1.37,2.15,0a47.07,47.07,0,0,1,.92-18.87,1.08,1.08,0,0,0-2.08-.57Z"/><path d="M287,119c4.88,4.51,10.76,8,16.57,11.19l-.66-1.62a81,81,0,0,0-1.81,21.23,12.83,12.83,0,0,1,.12,2.54c-.06.25.77-.49.39.2s-2.05,1.35-2.66,1.77a64.85,64.85,0,0,0-7,5.27c-1.38,1.24.66,3.27,2,2a73.4,73.4,0,0,1,9.53-6.87,1.44,1.44,0,0,0,.71-1.24,77.91,77.91,0,0,1,1.5-24.18,1.49,1.49,0,0,0-.66-1.62c-5.58-3.06-11.3-6.41-16-10.74-1.35-1.25-3.39.78-2,2Z"/><path d="M251.36,276A56.85,56.85,0,0,0,267,278a1.08,1.08,0,0,0,0-2.15,54.68,54.68,0,0,1-15.05-2,1.08,1.08,0,0,0-.57,2.08Z"/><path d="M270,258.77a133.11,133.11,0,0,1-18.26-3,1.09,1.09,0,0,0-1.32.75c-1.35,5.71-2.12,12-1,17.81.28,1.36,2.35.79,2.08-.57-1.08-5.38-.29-11.38,1-16.67l-1.33.76A136.53,136.53,0,0,0,270,260.92c1.38.1,1.38-2.06,0-2.15Z"/><path d="M269.61,260.62a35.86,35.86,0,0,0-1.09,17.72c.25,1.36,2.33.78,2.08-.58a33.52,33.52,0,0,1,1.09-16.57c.42-1.32-1.66-1.89-2.08-.57Z"/><path class="cls-6" d="M260.72,262.8c-5.71-1.33-7.38,3.6-6.42,5.52a5.23,5.23,0,0,0,4.32,3.28,5.55,5.55,0,0,0,5.5-2.62C265.16,267.1,263.88,263.53,260.72,262.8Z"/><path d="M260.91,262.11c-2.87-.58-6,.08-7.18,3a5.25,5.25,0,0,0,2.75,6.56c2.85,1.45,7.3.38,8.47-2.85,1.08-3-1.29-6-4-6.75a.72.72,0,0,0-.38,1.38c2,.58,4,2.93,3,5.13-1.25,2.62-5.35,3-7.33,1.13a3.52,3.52,0,0,1-1-4.34c1-2,3.31-2.33,5.35-1.92C261.43,263.67,261.82,262.29,260.91,262.11Z"/><path d="M260,267.18a27.83,27.83,0,0,0,1.49-5.45c.28-1.35-1.8-1.93-2.08-.57a25.32,25.32,0,0,1-1.27,4.93c-.54,1.26,1.31,2.36,1.86,1.09Z"/></g></g></svg>