<?xml version="1.0" encoding="utf-8"?>
<!-- Generator: Adobe Illustrator 23.0.1, SVG Export Plug-In . SVG Version: 6.00 Build 0)  -->
<svg version="1.1" id="Warstwa_1" xmlns="http://www.w3.org/2000/svg" xmlns:xlink="http://www.w3.org/1999/xlink" x="0px" y="0px"
	 viewBox="0 0 296.5 390.9" enable-background="new 0 0 296.5 390.9" xml:space="preserve">
<g>
	<path fill="#0A0A0A" d="M75,278.8c-19,0.5-25.2-5-61.8,11.8C-8.9,300.7-2.3,329,26.6,333.2c48.8,7.1,41,34.1,67.9,48.1
		c58.5,30.4,105.4-18.3,88-41c-9.5-12.4,17.5-15.9,38.1-13.1c65.3,8.9,71.1-16.9,50.3-29.1C247.7,284.5,117.8,277.7,75,278.8z"/>
	<g>
		<g>
			<g id="arm_1_16_">
				<g>
					<path fill="#999999" d="M196.4,247.2c0.3-8.2,0.5-14.4-3-22.2c-3.6-7.8-7.9-17.1-13.3-24c-4.4-5.6-11.1-8.2-14.1-14.8
						c-1.6-3.5-1.2-7.2,0.9-10.4c2-3.2,5.7-5.3,9.6-4.7c1.1,0.2,2.6,0.8,3.6,1.1c0.7,0.2,1.2,0.4,1.8,0.9
						c11.2,9.2,18.1,17.8,23.5,31.7c6.1,15.6,8.3,30.9,4.5,47.7C205.7,250,201.2,248,196.4,247.2z"/>
				</g>
				<path fill="#1E1E1E" d="M192.6,220.8c-2.2-7.7-7.2-18.9-11.4-25c-3.1-4.6-12.6-13-14.4-13.5c-3.8-1.2-0.8,3.4-0.3,4.3
					c3.2,6.3,10.4,9.9,15.1,15.7c2.1,2.6,4.3,6.3,5.7,9.5c0.8,1.9,1.5,3.6,2.3,5.4c0.5,1.3,0.3,2.7,1.4,3.6
					C191.4,220.9,193.2,222.6,192.6,220.8z"/>
				<path fill="#808080" d="M198.9,232.1c6.4,0.1,6.4,8,6.7,13c0.1,0.8,3.2,4.5,2.1,6c-3.6-1.4-7.2-2.9-11.1-3.5
					C200.7,243.5,194.6,235.3,198.9,232.1z"/>
				<g>
					<g>
						<path d="M180.1,173.5c22.2,18.5,34.8,49.2,28.5,78c-0.4,1.8,2.4,2.6,2.8,0.8c6.5-29.7-6.3-61.6-29.3-80.8
							C180.7,170.3,178.7,172.3,180.1,173.5L180.1,173.5z"/>
					</g>
				</g>
				<g>
					<g>
						<path d="M176.4,169.6c-6.3-0.1-11.6,4-12.6,10.3c-1.2,7.4,4.7,12.5,9.8,16.8c7,5.8,11.3,13.8,15.2,21.9c2,4.2,4.3,8.5,5.5,13
							c1.3,4.8,1.3,9.8,1.2,14.8c0,1.8,2.8,1.8,2.9,0c0.1-7-0.2-13.6-2.9-20.2c-2.6-6.4-5.8-12.7-9.3-18.6
							c-3.4-5.7-7.1-10-12.2-14.2c-2.9-2.5-6.1-5.2-7.2-9.1c-1.7-6.3,3.3-12,9.6-11.8C178.3,172.5,178.3,169.6,176.4,169.6
							L176.4,169.6z"/>
					</g>
				</g>
				<g>
					<g>
						<path d="M173.6,192.8c3.2-6.3,8.1-11,15.4-11.7c3-0.3,3.1-4.5,0.1-4.2c-9,0.8-15.5,5.7-19.5,13.7
							C168.2,193.3,172.4,195.2,173.6,192.8L173.6,192.8z"/>
					</g>
				</g>
				<g>
					<g>
						<path d="M183.8,203.8c2.2-7.3,7.3-11.5,15-12.1c0.5,0-1-1.3-1.1-1.3c-0.6-0.4-1.8-1.5-2.6-1.4c-7.7,0.6-13,4.8-15.2,12.2
							C179.6,202,183.8,203.9,183.8,203.8L183.8,203.8z"/>
					</g>
				</g>
				<g>
					<g>
						<path d="M192.1,215.7c1.5-6,5.4-8.6,11.3-9c1.7-0.1,4.5-3,1.4-2.8c-8.2,0.6-15.2,4.7-17.3,13
							C187.2,218.4,191.7,217.2,192.1,215.7L192.1,215.7z"/>
					</g>
				</g>
				<g>
					<g>
						<path d="M197.7,230.1c3.6-3.7,7.9-6,13.1-6c3.1,0,0.2-2.8-1.6-2.8c-6.2,0-11.3,2.2-15.7,6.6
							C192.2,229.2,196.5,231.2,197.7,230.1L197.7,230.1z"/>
					</g>
				</g>
				<g>
					<g>
						<path d="M199.2,243.6c4.2-2,8.5-1.8,12.9-0.8c2.3,0.5,0.7-3.9-1-4.3c-4.9-1.1-9.8-1.2-14.4,1
							C195,240.4,197.4,244.5,199.2,243.6L199.2,243.6z"/>
					</g>
				</g>
				<g display="none">
					<g display="inline">
						<path fill="#FFFFFF" d="M164.3,180.3c4.1,8,12.7,11.7,17.7,18.9c6.1,8.8,9,19.3,11.7,29.6c0.5,1.8,3.2,1,2.8-0.8
							c-2.6-10-5.5-20.1-11.1-28.9c-5-7.9-14.4-11.9-18.6-20.3C165.9,177.2,163.4,178.7,164.3,180.3L164.3,180.3z"/>
					</g>
				</g>
			</g>
		</g>
		<g>
			<g display="none">
				<rect x="-157.7" y="-53.2" display="inline" width="571.2" height="486.9"/>
			</g>
			<g>
				<g>
					<path fill="#CCCCCC" d="M193.9,158.5c0,0-94.5,17-119.6,18.4c0,41.3,3,82.7,6.5,132.5c30.9-3.3,61.3-10.3,90.6-20.6
						L193.9,158.5z"/>
				</g>
				<path fill="#999999" d="M143.4,282.8c-9.6,7.4-22.8,9.4-28,5.9c-8.9-5.9-11.8-11.1-27.3-3c-10.3-1.5-10.3-24.4-10.3-24.4l3,42.1
					c35.4-2.2,64.4-11,90.8-20.5l6.6-31.1c0,0-2.4,5.8-5.9,11.8C164.8,276.2,155.2,261.4,143.4,282.8z"/>
				<g>
					<path fill="#585858" d="M74.8,299.8c-0.7-22.1,2.4-54.9,5.2-15.2c0.3,4.1,2.2,11.5,8.1,13c2.2-8.1,4.4-10.6,7.4-11.1
						c7.2-1,13.6-2.7,18.4,0c3.4,1.9,4.4,8.9,10.3,8.1c12.2-1.5,19.9-4.4,22.1-7.4c1.5-8.1,3.7-16.2,12.5-16.2
						c4.6,0,13,3.3,13.8-1.2c0,0,10-50.6,9.1-39.4l-10.3,58.3c-26.7,9.6-56.3,16.9-90,20.7L74.8,299.8z"/>
				</g>
				<g>
					<path fill="#FFFFFF" d="M73.6,176.9c-2.2-2.2-28.8-22.1-28.8-22.1c-0.7,11.1,6.6,109.2,11.8,128.4L79.5,309L73.6,176.9z"/>
				</g>
				<path fill="#585858" d="M77,153c6.7,3.7,10.9,14.6,20.5,13.1c17.6-2.7,62.3-7.6,62.3-7.6s13.6-3.7,26.4-0.3
					c-14.9,3.1-40.6,6.7-55.5,9.2c-1.4,0.2-15.5,2.8-17.5,3.1c-12,1.9-35.8,4.2-38.5,4.6c-0.4-0.5-17.4-13.8-25.1-18.5
					C65.1,155.6,75.6,152.2,77,153z"/>
			</g>
			<g display="none">
				<g display="inline">
					<g>
						<path fill="#FFFFFF" d="M164.4,154.9c-28.5,3.8-56.9,7.7-85.2,13c-1.8,0.3-1,3.1,0.8,2.8c28-5.2,56.2-9.1,84.4-12.9
							C166.2,157.6,166.2,154.7,164.4,154.9L164.4,154.9z"/>
					</g>
				</g>
				<g display="inline">
					<g>
						<path fill="#FFFFFF" d="M80.8,168.5c-5.4-7-11.8-12.4-19-17.5c-1.5-1.1-3,1.4-1.4,2.5c6.8,4.7,12.9,9.8,18,16.4
							C79.5,171.4,82,169.9,80.8,168.5L80.8,168.5z"/>
					</g>
				</g>
			</g>
			<g id="HEAD_8_">
				<g>
					<path fill="#808080" d="M90.9,137.2c0,0-5.5,4.5-8.4,8.2c29.3,0.2,67.1,2.1,96.3,3.6l0.2,0.1c1.9-3.1,5-5.5,7.6-7.9L90.9,137.2
						z"/>
				</g>
				<g>
					<path fill="#FFFFFF" d="M97.4,29.5c-1.5,1.2-12.6,17-28.2,24.9l-8.1,54.2c9.4,10.8,19.8,34.3,21.4,36L97.4,29.5z"/>
				</g>
				<g>
					<path fill="#D6D6D6" d="M187.1,139.4c1.4-14.3,10.5-62.6,13.8-76.6l-95.3-17.5l-0.1,1.1c-3.4,15.1-13.7,90.1-13.7,90.1
						l94.5,3.9L187.1,139.4z"/>
					<g>
						<path d="M188.5,139.4c1.3-13,3.9-25.9,6.2-38.7c2.3-12.5,4.6-25.1,7.5-37.5c0.2-0.7-0.2-1.6-1-1.8
							c-27.7-5.1-55.5-10.2-83.2-15.3c-4-0.7-8-1.5-12.1-2.2c-1-0.2-1.7,0.4-1.8,1.4c-0.8,6.9-2.5,13.8-3.6,20.7
							C99,76,97.5,86.1,96,96.2c-1.9,13.3-3.8,26.6-5.7,39.9c-0.1,0.9,0.4,1.8,1.4,1.8c28.4,1.2,56.8,2.4,85.3,3.5
							c3.1,0.1,8.9,1.7,11.1-1c1.2-1.4-0.9-3.5-2-2c-0.8,1,0.7,0.3-0.3,0.6c-0.5,0.1-1.2-0.1-1.7-0.1c-2.2-0.1-4.5-0.2-6.7-0.3
							c-7.4-0.3-14.8-0.6-22.1-0.9c-17.2-0.7-34.4-1.4-51.6-2.1c-4-0.2-7.9-0.3-11.9-0.5c0.5,0.6,0.9,1.2,1.4,1.8
							c1.9-13.7,3.8-27.3,5.8-41c1.5-10.2,3-20.4,4.6-30.5c1.1-6.6,2.7-13.3,3.5-20c-0.6,0.5-1.2,0.9-1.8,1.4
							c27.7,5.1,55.5,10.2,83.2,15.3c4,0.7,8,1.5,12.1,2.2c-0.3-0.6-0.7-1.2-1-1.8c-3,12.8-5.4,25.8-7.7,38.8
							c-2.3,12.6-4.8,25.4-6.1,38.2C185.5,141.3,188.3,141.2,188.5,139.4z"/>
					</g>
				</g>
				<g>
					<path fill="#B3B3B3" d="M82.1,143.6C85.6,94.2,95.8,30.8,98.4,30.1c1.4,3.2,4.9,10.2,7.2,15.2l-15.4,91c0,0-4.7,4.6-7.7,8.3
						L82.1,143.6z"/>
				</g>
				<polygon fill="#FFFFFF" points="185.9,48.7 99.8,30.5 105.6,45.1 199.5,62.1 				"/>
				<g>
					<g>
						<path d="M104.1,46c-6.4,29.8-10.6,60.2-13.8,90.5c-0.2,1.8,2.7,1.8,2.9,0c3.2-30,7.4-60.2,13.7-89.7
							C107.2,45,104.5,44.2,104.1,46L104.1,46z"/>
					</g>
				</g>
				<g>
					<g>
						<path d="M200.8,60.9c-4.8-4.1-9.4-8.4-13.7-12.9c-1.3-1.3-3.3,0.7-2,2c4.3,4.6,8.9,8.9,13.7,12.9
							C200.2,64.1,202.2,62.1,200.8,60.9L200.8,60.9z"/>
					</g>
				</g>
				<g>
					<g>
						<path d="M97.2,30.8c29,7.8,58.6,13.4,88,19.5c1.8,0.4,2.6-2.4,0.8-2.8c-29.4-6.2-59-11.7-88-19.5
							C96.2,27.5,95.4,30.3,97.2,30.8L97.2,30.8z"/>
					</g>
				</g>
				<g>
					<g>
						<path d="M97,30.5c1.1,5.7,5,10.4,7.3,15.5c0.8,1.7,3.2,0.2,2.5-1.4c-2.2-4.9-6-9.5-7-14.8C99.5,27.9,96.7,28.7,97,30.5
							L97,30.5z"/>
					</g>
				</g>
				<g>
					<g>
						<path d="M96.4,28.4c-3.3,2.7-6.2,6-9.3,8.9c-2.6,2.5-5.3,4.9-8,7.3c-1.7,1.5-3.5,3-5.2,4.4c-1.6,1.3-4.4,2.7-5.6,4.3
							c-0.8,1.1-0.7,2.9-0.9,4.2c-0.5,3.6-1.1,7.2-1.6,10.8c-1.4,9.4-2.8,18.7-4.2,28.1c-0.5,3.2-1,6.4-1.4,9.6
							c-0.4,2.7-0.3,3.1,1.5,5.7c4.7,7,8.9,14.4,13.1,21.9c2.2,3.9,4,8.5,6.8,12c1.2,1.4,3.2-0.6,2-2c-2.4-3-3.9-6.9-5.8-10.2
							c-3.4-6.3-7-12.5-10.8-18.5c-1.9-3-4.4-4.6-4.1-7.8c0.2-3,0.9-6,1.3-9c1.3-8.7,2.6-17.5,3.9-26.2c0.6-3.8,1.1-7.6,1.7-11.5
							c0.2-1.4,0.1-4.1,0.8-5.4c0.2-0.4,1.8-1.2,2.3-1.6c1.7-1.2,3.3-2.6,4.9-4c3.3-2.8,6.5-5.6,9.7-8.5c3.7-3.4,7-7.2,10.9-10.4
							C99.9,29.3,97.8,27.3,96.4,28.4L96.4,28.4z"/>
					</g>
				</g>
				<g id="lips_8_">
					<path fill="#999999" d="M164.7,130c0,0,9.1-7,8.8-9.4c-0.4-2.8-4.8-4-4.8-4S162.9,126.6,164.7,130z"/>
					<g>
						<path fill="#161616" d="M168.6,116.6c-16-7.3-32.6-7.2-53.7-7.1c0,0-2.2,1.3-2.4,2.1c-0.9,3.9-1.3,7.9-1,11.9l1.1,0.7
							c20.4-1.9,36.6-0.9,50.3,6.2c4.9-4.5,6.2-9.3,7-13.1L168.6,116.6z"/>
					</g>
					<g>
						<g>
							<path d="M169.3,115.4c-8.4-4.3-18-5.9-27.3-6.9c-8.9-1-18.1-1.4-27.1-0.4c-1.8,0.2-1.8,3.1,0,2.9c8.1-0.9,16.3-0.6,24.4,0.2
								c9.6,0.9,19.9,2.4,28.6,6.8C169.5,118.7,171,116.2,169.3,115.4L169.3,115.4z"/>
						</g>
					</g>
					<g>
						<g>
							<path d="M114.8,109c-4.9-1.1-4.7,8.3-4.7,11.1c-0.2,7.7,4.4,5,10.7,4.5c8.5-0.7,17.1-0.2,25.5,1.5c5.4,1.1,11.4,2.4,16,5.6
								c0.5,0.3,1.3,0.2,1.7-0.2c3.7-4.2,6.7-8.5,7.4-14.1c0.2-1.8-2.6-1.8-2.9,0c-0.6,4.8-3.5,8.6-6.6,12.1
								c0.6-0.1,1.2-0.1,1.7-0.2c-6.7-4.7-16.1-6.1-24-7c-6.3-0.8-12.6-0.9-19-0.4c-0.8,0.1-7.2,1.5-7.9,0.9
								c-1.2-1,1.7-10.8,1.2-10.9C115.8,112.1,116.6,109.4,114.8,109L114.8,109z"/>
						</g>
					</g>
				</g>
				<g>
					<g>
						<path d="M105.2,46.7c27.7,5.1,55.5,10.2,83.2,15.3c4,0.7,8,1.5,12.1,2.2c-0.3-0.6-0.7-1.2-1-1.8c-3,12.8-5.4,25.8-7.7,38.8
							c-2.3,12.6-4.8,25.4-6.1,38.2c-0.2,1.8,2.7,1.8,2.9,0c1.3-13,3.9-25.9,6.2-38.7c2.3-12.5,4.6-25.1,7.5-37.5
							c0.2-0.7-0.2-1.6-1-1.8c-27.7-5.1-55.5-10.2-83.2-15.3c-4-0.7-8-1.5-12.1-2.2C104.2,43.6,103.4,46.4,105.2,46.7L105.2,46.7z"
							/>
					</g>
				</g>
				<g>
					<g>
						<path d="M96.5,29.3C92,48,88.6,67.1,85.8,86.1c-2.8,19-5.4,38.3-5.2,57.6c0,1.8,2.9,1.9,2.9,0c-0.2-19.5,2.4-39.1,5.3-58.3
							c2.8-18.5,6.1-37.1,10.5-55.3C99.7,28.3,96.9,27.5,96.5,29.3L96.5,29.3z"/>
					</g>
				</g>
				<g>
					<g>
						<path d="M178.8,146.8c-32.1-1.3-64.1-3.4-96.3-3.6c0.3,0.8,0.7,1.6,1,2.5c2.4-2.6,5.1-4.8,7.9-7.1c1.5-1.2-0.1-0.4,0.8-0.6
							c1.5-0.2,3.3,0.1,4.8,0.2c7.1,0.3,14.3,0.6,21.4,0.9c18.3,0.8,36.7,1.5,55,2.3c4.4,0.2,8.8,0.4,13.2,0.5
							c-0.3-0.8-0.7-1.6-1-2.5c-2.8,2.6-5.6,5-7.8,8.2c0.5-0.2,1.1-0.4,1.6-0.7c-0.1,0-0.2,0-0.2-0.1c-1.8-0.6-2.5,2.2-0.8,2.8
							c0.1,0,0.2,0,0.2,0.1c0.6,0.2,1.3-0.1,1.6-0.7c2-3,4.7-5.2,7.3-7.6c1-0.9,0.2-2.4-1-2.5c-29.8-1.2-59.5-2.5-89.3-3.7
							c-1.6-0.1-3.8-0.5-5.4-0.2c-3.8,0.7-8,5.9-10.4,8.5c-0.8,0.9-0.3,2.4,1,2.5c32.1,0.3,64.2,2.3,96.3,3.6
							C180.6,149.7,180.6,146.9,178.8,146.8z"/>
					</g>
				</g>
				<path fill="#999999" d="M110.6,74.9c6.1-5.1,13.4-0.2,19.9,2.7c4.2,1.9,10.1,2.7,11.6,1.9c5.3-4.5,11.4,0.4,17.3,2.4
					c5.2,1.7,11.9,2.2,13.3,1.5c5.1-4.4,12.6-2.3,16.5,2.3c3.9,4.5,1.1,11.7-3.4,14.7c-6.4,3.7-27.7-4.8-29.9-3.3
					c-14.4,3.5-22.4-4.8-29.4-2.1c-8.4,4.8-22.3-2.2-21.1-12.8C105.9,79,107.8,76.5,110.6,74.9z"/>
				<g>
					<path d="M141.1,83.7c0.5,4.9,3.4,10,9.2,8.8c4.9-0.5,7.7-5.1,6.4-9.3c-2.1-4.2-8.6-4.7-12.7-3
						C142.4,80.8,141.3,82.1,141.1,83.7z"/>
				</g>
				<g>
					<path d="M111.7,84c0.5,4.9,4.9,6.6,9.2,7.8c5.3,1.3,7.4-3.2,7.7-6.8c0.5-7.1-5.9-10.6-10.9-9.5C115.9,76.4,111.1,80.4,111.7,84
						z"/>
				</g>
				<g>
					<path d="M168.4,88.4c1.4,10,10.1,10.7,14.9,4.9c2.9-4.2-0.5-8.9-5.4-10.9c-2.6-1.1-4.8-0.3-7.1,1.2
						C169.4,84.4,168.7,86.7,168.4,88.4z"/>
				</g>
				<g id="eyes_8_">
					<path fill="#E10B31" stroke="#000000" stroke-width="0.9574" stroke-miterlimit="10" d="M172.4,88.1c-1.9,0.7-3.7,1.4-5.7,2.1
						c-3.9,1.3-3,7.9,1,6.6c2.5-0.8,4.9-1.7,7.3-2.6c0.6,1.4,1.3,2.9,1.9,4.3c1.7,3.9,7.7,1,5.9-2.9c-0.6-1.4-1.2-2.7-1.8-4.1
						c2-1,4-2.1,5.9-3.3c3.6-2.3,1-8.3-2.6-6.1c-2,1.2-4,2.3-6,3.4c-0.9-1.9-1.7-3.9-2.6-5.8c-1.7-3.9-7.7-1-5.9,2.9
						C170.8,84.4,171.6,86.3,172.4,88.1z"/>
					<path fill="#E10B31" stroke="#000000" stroke-width="0.9574" stroke-miterlimit="10" d="M143,78.4c1.2,2.1,2.3,4.3,3.3,6.5
						c-2.4,1.3-4.9,2.4-7.4,3.4c-3.9,1.5-1.3,7.5,2.6,6c2.5-1,4.9-2.1,7.3-3.3c0.5,1.3,0.9,2.6,1.3,3.9c0.5,1.7,1.8,3,3.7,2.7
						c1.6-0.3,3.2-2.1,2.7-3.8c-0.6-2-1.3-4.1-2-6c1.9-1.2,3.7-2.5,5.5-3.9c3.4-2.6-0.7-7.7-4-5.1c-1.3,1-2.6,1.9-3.9,2.8
						c-0.9-2-1.9-4-3-6C146.9,72,140.9,74.7,143,78.4z"/>
					<path fill="#E10B31" stroke="#000000" stroke-width="0.9574" stroke-miterlimit="10" d="M109.9,92.2c3.4-1,6.7-2.2,9.8-3.6
						c1.1,2.1,2.2,4.1,3.5,6c2.3,3.6,8.3,0.6,6-3c-1.3-2-2.5-4-3.5-6.1c2.6-1.5,5.2-3.2,7.6-5c3.4-2.6-1.1-7.6-4.5-5
						c-1.9,1.4-3.8,2.7-5.9,3.9c-1.1-2.8-2-5.7-2.7-8.7c-1-4.2-7.5-2.8-6.6,1.4c0.8,3.5,1.9,7,3.2,10.4c-2.7,1.2-5.6,2.3-8.5,3.1
						C104.4,86.8,105.8,93.3,109.9,92.2z"/>
					<g>
						<path d="M143.7,78c0.6,1.1,1.2,2.2,1.8,3.2c0.6,1.1,1.3,2.1,2,3.2l0.7,1.1l-1.3,0.6c-2,1-4.1,1.9-6.1,2.7l-1.6,0.6
							c-0.4,0.2-0.7,0.3-0.9,0.6c-0.5,0.5-0.5,1.4-0.3,2.2c0.3,0.8,1,1.5,1.7,1.6l0.3,0.1c0.1,0,0.2,0,0.3,0c0.2,0,0.4,0,0.6-0.1
							c0.4-0.1,1-0.3,1.5-0.5c2-0.8,4-1.6,6-2.6l0,0l0.5-0.2l0.2,0.5l0.8,2.5l0.4,1.2c0.1,0.4,0.2,0.8,0.4,1.1
							c0.4,0.7,0.9,1.2,1.6,1.4c0.3,0.1,0.7,0.1,1.1,0.1c0.4,0,0.7-0.2,1-0.4c0.6-0.4,1.1-1,1.3-1.7c0.1-0.3,0.1-0.7,0-1
							c-0.1-0.4-0.3-0.8-0.4-1.2l-1.6-4.9l0,0l-0.1-0.3l0.3-0.2l4.4-3.2c0.4-0.3,0.7-0.5,1.1-0.8l0.4-0.4l0.3-0.5
							c0.3-0.6,0.3-1.4,0-2.1c-0.3-0.7-0.9-1.2-1.6-1.5c-0.7-0.3-1.4-0.2-2.1,0.2c-0.2,0.1-0.3,0.2-0.5,0.3l-0.6,0.4l-1.1,0.8
							l-2.2,1.6l0,0l-0.7,0.5l-0.4-0.8c-0.6-1.3-1.2-2.5-1.8-3.7l-0.9-1.9c-0.2-0.3-0.3-0.5-0.5-0.8c-0.2-0.2-0.4-0.4-0.6-0.5
							c-0.9-0.6-2.3-0.4-3.2,0.3c-0.4,0.3-0.8,0.8-0.8,1.3C143.3,77,143.4,77.5,143.7,78z M142.3,78.8c-0.4-0.7-0.6-1.7-0.4-2.6
							c0.2-0.9,0.8-1.7,1.5-2.1c1.4-1,3.2-1.2,4.7-0.3c0.4,0.2,0.7,0.5,1,0.8c0.2,0.3,0.5,0.7,0.6,1l1,1.9c0.7,1.3,1.3,2.5,2,3.8
							l-1.1-0.3l0,0l2.2-1.5l1.1-0.8l0.6-0.4c0.2-0.1,0.4-0.3,0.7-0.4c0.9-0.5,2.2-0.6,3.2-0.2c1,0.4,1.8,1.2,2.2,2.2
							c0.4,1,0.5,2.2-0.1,3.1c-0.1,0.2-0.3,0.4-0.5,0.7c-0.2,0.2-0.4,0.4-0.6,0.5c-0.4,0.3-0.8,0.5-1.1,0.8l-4.5,3.1l0.2-0.6l0,0
							l1.6,4.9c0.1,0.4,0.3,0.8,0.4,1.3c0.1,0.5,0.1,1-0.1,1.5c-0.3,1-0.9,1.7-1.7,2.3c-0.4,0.3-0.9,0.5-1.4,0.5
							c-0.5,0.1-1,0.1-1.5-0.1c-1-0.3-1.8-1-2.2-1.8c-0.2-0.4-0.4-0.9-0.5-1.3l-0.4-1.2l-0.8-2.4l0.7,0.3l0,0
							c-1.9,1.1-3.9,2.1-5.9,3c-0.5,0.2-1,0.5-1.6,0.7c-0.3,0.1-0.6,0.2-1,0.2c-0.2,0-0.3,0-0.5,0l-0.5-0.1
							c-1.4-0.2-2.5-1.3-3.1-2.5c-0.3-0.6-0.4-1.3-0.4-2c0-0.7,0.2-1.5,0.7-2.1c0.4-0.6,1.1-1,1.7-1.3l1.5-0.7
							c2-0.9,3.9-1.9,5.7-2.9l-0.6,1.7c-0.4-1.1-0.9-2.3-1.3-3.4C143.3,81,142.8,79.9,142.3,78.8z"/>
					</g>
					<g>
						<path d="M173.3,88.5c-2,0.9-4.1,1.8-6.2,2.5c-1.6,0.4-2.4,2.3-1.9,4c0.3,0.8,0.8,1.4,1.5,1.4c0.2,0,0.4,0,0.6,0
							c0.2,0,0.4-0.1,0.6-0.2l1.4-0.5l5.7-1.9l0.4-0.1l0.2,0.4c0.7,1.5,1.3,3,2,4.4c0.3,0.7,0.8,1.1,1.5,1.3c0.6,0.2,1.4,0.1,2-0.2
							c0.6-0.3,1.2-0.8,1.5-1.4c0.3-0.6,0.3-1.3,0.1-2c-0.6-1.4-1.3-2.9-1.9-4.4l-0.2-0.4l0.4-0.2c1.8-0.9,3.5-1.9,5.1-3l0.6-0.4
							l0.5-0.4c0.1-0.1,0.3-0.3,0.4-0.5c0.1-0.2,0.2-0.4,0.3-0.5c0.3-0.8,0.3-1.6,0-2.4c-0.3-0.8-0.9-1.3-1.5-1.5
							c-0.2,0-0.3,0-0.5,0c-0.2,0.1-0.3,0.1-0.5,0.2c-0.2,0.1-0.3,0.1-0.5,0.3l-0.6,0.4c-1.7,1.1-3.5,2.1-5.2,3l0,0l-0.9,0.5
							l-0.4-0.9l-2.3-5.2c-0.1-0.2-0.2-0.4-0.3-0.6l-0.3-0.5c-0.1-0.1-0.2-0.2-0.3-0.4c-0.1-0.1-0.2-0.2-0.4-0.3
							c-0.6-0.3-1.3-0.2-2,0.1c-0.7,0.3-1.2,0.9-1.4,1.5c-0.1,0.2-0.1,0.3-0.1,0.5c0,0.2,0,0.3,0,0.5c0,0.2,0.1,0.3,0.1,0.5
							c0,0.1,0.2,0.4,0.3,0.6C171.8,84.6,172.6,86.6,173.3,88.5z M171.6,87.8c-0.9-1.6-1.6-3-2.3-4.5c-0.1-0.3-0.4-1-0.5-1.5
							c0-0.3-0.1-0.6,0-0.9c0-0.3,0.1-0.6,0.2-0.9c0.4-1.2,1.3-2.1,2.3-2.6c1.1-0.5,2.4-0.6,3.5-0.1c0.3,0.1,0.5,0.3,0.8,0.5
							c0.2,0.2,0.4,0.4,0.6,0.7c0.2,0.3,0.3,0.5,0.5,0.8c0.1,0.2,0.2,0.4,0.3,0.7l2.3,5.2l-1.3-0.5l0,0c1.8-0.8,3.5-1.8,5.2-2.7
							c0.7-0.4,2-1.3,3.3-1c1.4,0.3,2.2,1.4,2.6,2.5c0.4,1.1,0.4,2.3-0.1,3.4c-0.1,0.3-0.3,0.5-0.4,0.8c-0.2,0.2-0.4,0.5-0.6,0.6
							c-0.2,0.2-0.5,0.4-0.7,0.5l-0.6,0.4c-1.7,1-3.5,1.9-5.3,2.8l0.2-0.6c0.6,1.5,1.3,2.9,2,4.5c0.3,0.9,0.3,1.9-0.1,2.7
							c-0.4,0.8-1.1,1.5-1.9,1.9c-0.8,0.4-1.8,0.5-2.7,0.2c-0.9-0.3-1.7-1-2.1-1.8c-0.7-1.5-1.3-3-2-4.5l0.6,0.3l-5.6,2.1l-1.4,0.5
							c-0.2,0.1-0.5,0.2-0.8,0.2c-0.3,0.1-0.6,0.1-0.9,0.1c-0.3,0-0.6-0.1-0.9-0.2c-0.3-0.2-0.6-0.3-0.8-0.5c-0.5-0.4-0.8-1-1-1.5
							c-0.4-1.1-0.3-2.3,0.2-3.4c0.5-1.1,1.4-2,2.6-2.4C168.2,88.8,169.9,88.3,171.6,87.8z"/>
					</g>
					<g>
						<path d="M109.7,91.5c3.3-0.9,6.6-2,9.8-3.3l0,0L120,88l0.2,0.4c0.9,1.8,1.9,3.6,3,5.3c0.3,0.4,0.5,0.9,0.8,1.2
							c0.3,0.3,0.7,0.6,1.1,0.7c0.8,0.3,1.8,0.3,2.6-0.1c0.8-0.4,1.5-1.1,1.6-1.9c0.1-0.4,0-0.8-0.2-1.2c-0.2-0.4-0.5-0.8-0.8-1.2
							c-1.1-1.7-2.1-3.5-3-5.3l0,0l-0.2-0.4l0.4-0.2c1.9-1.1,3.8-2.3,5.6-3.5l1.3-1l0.7-0.5c0.2-0.2,0.4-0.3,0.5-0.5
							c0.6-0.7,0.6-1.7,0.2-2.6c-0.5-0.8-1.3-1.5-2.2-1.7c-0.5-0.1-0.9-0.1-1.4,0.1c-0.5,0.1-0.8,0.4-1.3,0.7
							c-1.8,1.3-3.6,2.6-5.6,3.7l0,0l-0.5,0.3l-0.2-0.6c-1-2.4-1.8-4.8-2.5-7.2l-0.2-0.9c-0.1-0.3-0.2-0.6-0.2-0.8
							c-0.2-0.5-0.5-0.9-0.9-1.1c-0.8-0.5-1.9-0.6-2.8-0.1c-0.9,0.4-1.4,1.3-1.2,2.2c0,0.1,0,0.2,0.1,0.4l0.1,0.4l0.2,0.9l0.5,1.8
							c0.7,2.4,1.6,4.7,2.5,7l0,0l0.4,1l-1,0.4c-1.5,0.6-3.1,1.2-4.6,1.7c-0.8,0.3-1.6,0.5-2.4,0.7l-1.2,0.3l-0.6,0.2
							c-0.1,0-0.3,0.1-0.4,0.2c-0.5,0.2-1,0.7-1.2,1.2c-0.2,0.6-0.3,1.2-0.1,1.9c0.2,0.6,0.5,1.2,1,1.5
							C108.4,91.6,109.1,91.6,109.7,91.5z M110.1,92.8c-0.9,0.3-2,0.3-2.9-0.2c-0.9-0.5-1.5-1.4-1.8-2.3c-0.3-0.9-0.3-2,0.1-2.9
							c0.3-1,1.1-1.8,2-2.3c0.2-0.1,0.5-0.2,0.7-0.3l0.6-0.2l1.1-0.4c0.8-0.3,1.5-0.5,2.3-0.8c1.5-0.6,3-1.2,4.4-1.9l-0.6,1.5l0,0
							c-0.9-2.4-1.7-4.8-2.3-7.3l-0.5-1.9l-0.2-0.9l-0.1-0.5c0-0.2-0.1-0.4-0.1-0.6c-0.1-0.8,0.1-1.7,0.6-2.4
							c0.4-0.7,1.1-1.2,1.8-1.5c1.4-0.6,3.1-0.6,4.4,0.4c0.6,0.5,1.1,1.2,1.3,1.9c0.1,0.4,0.2,0.7,0.2,1l0.2,0.9
							c0.6,2.4,1.3,4.8,2.1,7.2l-0.8-0.3l0,0c1.9-1.1,3.7-2.3,5.5-3.6c0.4-0.3,1-0.7,1.6-0.9c0.6-0.2,1.3-0.2,1.9-0.1
							c1.2,0.3,2.3,1.1,2.9,2.2c0.3,0.6,0.5,1.2,0.4,1.9c0,0.7-0.3,1.3-0.7,1.8c-0.2,0.3-0.4,0.5-0.7,0.7l-0.7,0.5l-1.4,1
							c-1.8,1.3-3.7,2.5-5.6,3.6l0.2-0.6l0,0c0.9,1.8,1.9,3.6,3,5.3c0.3,0.4,0.6,0.8,0.8,1.4c0.2,0.5,0.4,1.1,0.3,1.8
							c-0.2,1.2-1.1,2.2-2.2,2.6c-1,0.5-2.3,0.5-3.3,0.1c-0.5-0.2-1-0.6-1.4-1c-0.4-0.4-0.6-0.9-0.9-1.3c-1.1-1.7-2.1-3.5-3.1-5.3
							l0.6,0.2v0C116.8,90.5,113.5,91.8,110.1,92.8z"/>
					</g>
				</g>
				<g>
					<g>
						<g>
							<path fill="#990033" d="M161.5,0c-17.5,3.4-39.9,9.4-42.8,30.1c-0.3,1.8,2.5,2.6,2.8,0.8c2.7-19.7,24.3-24.9,40.8-28.1
								C164.1,2.4,163.4-0.3,161.5,0L161.5,0z"/>
						</g>
					</g>
					<path fill="#E10B31" d="M166,6.6c1.8,15.2,0.8,30.4-0.2,45.5c-7.1-14.1-17.1-27.2-31.2-36.3c8.1-3,15.1-7.1,24.4-7.9
						C161.2,7.4,163.5,7,166,6.6z"/>
				</g>
				<g>
					<path fill="#CCCCCC" d="M70.4,108c1.4-0.3,2.5-5.1,2.1-6.9c-0.2-1.2-3.3-3.9-4.6-0.9C66.5,103.2,68.7,108.4,70.4,108z"/>
					<g>
						<g>
							<g>
								<path fill="#FFFFFF" d="M67.8,97c-1.6-2.2-6.5-6.9-6.5-6.9l2.4-19c0,0,7.7-3.4,12.3-5.7l2.7,1.2c-2,10.3-3.9,20.7-5.9,31
									L67.8,97z"/>
							</g>
						</g>
						<g>
							<g>
								<path fill="#CCCCCC" d="M67.8,97c-1.6-2.2-2.5-3.5-2.5-3.5c2.8-2.5,6-15.6,3.9-20.5c4.2-2.2,6.3-3.7,9-7.2
									c-0.9,8.7-3.3,21.5-5.3,31.9L67.8,97z"/>
							</g>
						</g>
						<g>
							<g>
								<path d="M77.4,66.3c-2,10.3-3.9,20.7-5.9,31c-0.3,1.7,2.3,2.5,2.7,0.7c2-10.3,3.9-20.7,5.9-31
									C80.4,65.3,77.8,64.5,77.4,66.3L77.4,66.3z"/>
							</g>
						</g>
						<g>
							<g>
								<path d="M66.8,73.8c0.4,5.1-0.4,9.7-2,14.5c-0.4,1.3,1.6,1.8,2,0.5c1.7-5,2.5-9.9,2.1-15.1C68.8,72.5,66.7,72.5,66.8,73.8
									L66.8,73.8z"/>
							</g>
						</g>
						<g>
							<g>
								<path d="M77.1,63.9c-4.2,2.6-9,4.4-13.7,5.9c-0.6,0.2-1,0.7-1,1.3c0.3,6.2-0.7,12.7-2.3,18.7c-0.1,0.5,0,1,0.4,1.3
									c2.3,2.2,4.6,4.4,6.5,6.9c1.1,1.4,3-0.6,1.9-1.9c-1.4-1.8-3-3.4-4.6-5c-2.2-2.2-1.3-1.1-0.7-4.2c1-5.1,1.8-10.5,1.6-15.8
									c-0.3,0.4-0.7,0.9-1,1.3c4.9-1.6,10-3.4,14.4-6.2C80,65.3,78.6,62.9,77.1,63.9L77.1,63.9z"/>
							</g>
						</g>
					</g>
				</g>
			</g>
			<g id="foot_2_8_">
				<g>
					<path fill="#D6D6D6" d="M260,258c-13.6,19.7-23.3,34-28.8,57.3c0,0,14.8,3,24.4,6.6c5.2-13.3,18.5-38.3,31.7-48.7L260,258z"/>
					<g>
						<path d="M258.8,257.3c-12.4,18.1-23.7,36-29,57.6c-0.2,0.7,0.2,1.6,1,1.8c8.2,1.7,16.5,3.7,24.4,6.6c0.8,0.3,1.5-0.3,1.8-1
							c6.8-17.1,16.9-36.3,31.4-48.1c0.7-0.6,0.5-1.8-0.3-2.3c-9.1-5.1-18.2-10.1-27.3-15.2c-1.6-0.9-3.1,1.6-1.4,2.5
							c9.1,5.1,18.2,10.1,27.3,15.2c-0.1-0.8-0.2-1.5-0.3-2.3c-14.9,12.1-25.1,31.7-32.1,49.3c0.6-0.3,1.2-0.7,1.8-1
							c-7.9-2.9-16.1-5-24.4-6.6c0.3,0.6,0.7,1.2,1,1.8c5.2-21.4,16.4-39,28.7-56.9C262.3,257.2,259.8,255.8,258.8,257.3z"/>
					</g>
				</g>
				<g>
					<path fill="#1E1E1E" d="M288,274c-11.8,11.1-19.2,22.1-29.5,45.8c0,0,5.9-6.6,11.1-10.3c5.2-13.3,13.3-25.8,25.1-36.9L288,274z
						"/>
				</g>
				<g>
					<g>
						<path d="M286.6,272.6c-13.9,12.9-23.1,29.5-29.9,47.1c-0.7,1.7,2.1,2.5,2.8,0.8c6.6-17.1,15.6-33.3,29.1-45.9
							C290,273.4,288,271.4,286.6,272.6L286.6,272.6z"/>
					</g>
				</g>
				<g>
					<g>
						<path d="M288.1,272.3c-9.2-5.3-18.2-11-27-16.9c-1.5-1-3,1.5-1.4,2.5c8.9,5.9,17.8,11.6,27,16.9
							C288.3,275.7,289.7,273.2,288.1,272.3L288.1,272.3z"/>
					</g>
				</g>
				<g>
					<g>
						<path d="M256.3,320.2c-7.5-2-14.7-5-22.5-6c-1.8-0.2-1.8,2.7,0,2.9c7.5,0.9,14.5,3.9,21.8,5.9
							C257.3,323.4,258.1,320.7,256.3,320.2L256.3,320.2z"/>
					</g>
				</g>
				<g>
					<g>
						<path d="M259,255.5c-13.9,17.9-24.2,38.4-29.6,60.5c-0.4,1.8,2.3,2.6,2.8,0.8c5.2-21.5,15.2-41.7,28.8-59.2
							C262.2,256.1,260.1,254.1,259,255.5L259,255.5z"/>
					</g>
				</g>
			</g>
			<g id="body_8_">
				<g>
					<g>
						<path d="M193.2,156.8c-39,8-78.3,14.1-117.8,18.5c-1.8,0.2-1.8,3.1,0,2.9c39.8-4.4,79.4-10.6,118.6-18.6
							C195.8,159.2,195,156.5,193.2,156.8L193.2,156.8z"/>
					</g>
				</g>
				<g>
					<g>
						<path d="M193.3,158c-4.5,23.3-8.3,46.7-12.5,70c-3.6,20-8.4,39.9-10,60.2c-0.2,1.8,2.7,1.8,2.9,0c1.7-20.6,6.6-40.9,10.2-61.2
							c4.1-22.7,7.8-45.6,12.2-68.2C196.4,157,193.6,156.2,193.3,158L193.3,158z"/>
					</g>
				</g>
				<g>
					<g>
						<path d="M42.7,154.8c2.2,28.8,3.9,57.7,6.8,86.4c1.2,12.1,2.5,24.2,4.7,36.1c0.3,1.8,0.6,3.9,1.2,5.6c1,2.7,3.4,5.1,5.2,7.3
							c6.1,7.3,12.5,14.2,18.8,21.3c1.2,1.4,3.3-0.7,2-2c-5.9-6.7-12-13.3-17.8-20.1c-2.3-2.7-4.9-5.3-5.9-8.7
							c-0.7-2.3-1-4.8-1.4-7.2c-2-11.8-3.2-23.8-4.4-35.7c-2.7-27.6-4.4-55.4-6.5-83.1C45.5,153,42.6,153,42.7,154.8L42.7,154.8z"/>
					</g>
				</g>
				<g>
					<g>
						<path d="M80.9,305.9c-1.7-24.9-2.8-49.8-4-74.7c-0.6-12.5-1.1-25.1-1.5-37.6c-0.1-4.3-0.3-8.6-0.3-12.9c0-2.4,0.4-4.3-1.3-6.1
							c-3.7-3.7-8.9-6.5-13.1-9.6c-5.3-3.9-10.5-7.7-15.9-11.5c-1.5-1.1-3,1.4-1.4,2.5c9,6.3,17.8,12.8,26.6,19.3
							c0.8,0.6,2.3,1.3,2.8,2.1c-1.2-1.7-0.6,1.5-0.6,2.7c0,4.2,0.2,8.4,0.3,12.6c0.8,25.6,2.1,51.3,3.4,76.9
							c0.6,12.1,1.3,24.2,2.1,36.3C78.2,307.8,81,307.8,80.9,305.9L80.9,305.9z"/>
					</g>
				</g>
				<g>
					<g>
						<path d="M194.5,157c-10.6-2.6-20.8-6.5-31.2-9.5c-1.8-0.5-2.5,2.3-0.8,2.8c10.5,3,20.6,6.9,31.2,9.5
							C195.6,160.2,196.3,157.5,194.5,157L194.5,157z"/>
					</g>
				</g>
				<g>
					<g>
						<path d="M75.1,148.9c-10.5,1-20.9,3-31.4,4.5c-1.8,0.3-1,3,0.8,2.8c10.2-1.5,20.4-3.4,30.6-4.4
							C76.9,151.7,77,148.8,75.1,148.9L75.1,148.9z"/>
					</g>
				</g>
				<g>
					<g>
						<path d="M171,287.5c-29.2,10.2-59.4,17.1-90.2,20.5c-1.8,0.2-1.8,3.1,0,2.9c31-3.4,61.5-10.3,91-20.6
							C173.5,289.7,172.8,286.9,171,287.5L171,287.5z"/>
					</g>
				</g>
			</g>
			<g id="leg_1_8_">
				<g>
					<path fill="#999999" d="M128.1,315.8c-1.3-10-13-27.5-14.7-29.4c-6.3-6.8-19.8-3.9-21,4.5c-1.8,10.9,3.7,18.3,5.5,26.7
						L128.1,315.8z"/>
				</g>
				<g>
					<g>
						<path d="M129.5,315.4c-1.3-8.3-6-16.2-10.4-23.2c-3.1-5-6.1-9.7-12.4-10.8c-6.1-1-13.6,1.7-15.5,8.1
							c-2.9,9.8,3.1,19.3,5.3,28.5c0.1,0.6,0.8,1.1,1.4,1.1c10.1-0.6,20.1-1.2,30.2-1.8c1.8-0.1,1.8-3,0-2.9
							c-10.1,0.6-20.1,1.2-30.2,1.8c0.5,0.4,0.9,0.7,1.4,1.1c-1.9-7.7-6.1-14.8-5.8-23c0.2-4.8,2.1-8.2,6.8-9.7
							c3.5-1.1,7.5-0.6,10.5,1.5c3.7,2.6,6.1,7.8,8.3,11.6c3.3,5.7,6.6,11.9,7.7,18.5C127,318,129.8,317.2,129.5,315.4z"/>
					</g>
				</g>
			</g>
			<g id="foot_1_8_">
				<g>
					<path fill="#FFFFFF" d="M98.1,306.6c0,0,40.9-4.5,57.8-2.9c2.2,3.1,5.9,9.4,8.2,11.6c-20.7,0-46.1,2.6-59.4,4.8
						c-3-3.7-5.8-10.3-6.6-13.3"/>
				</g>
				<g>
					<path fill="#999999" d="M104.6,320.1c-3.7,14-4.4,32.5-3,53.9c-5.9-11.1-8.3-53-3.6-67.4L104.6,320.1z"/>
				</g>
				<g>
					<path fill="#CCCCCC" d="M163.1,371.2c-19.7,1.4-39.3,3.1-58.9,5c0,0-1.5-10-1.8-15.3c-1-14.8,0.8-35.7,2.3-41.1
						c4-0.9,41.4-4.4,59.3-4.1c-1,12.4-2.6,36.2-1,54.2"/>
				</g>
				<g>
					<g>
						<path d="M163.1,369.8c-19.7,1.4-39.3,3.1-58.9,5c0.5,0.4,0.9,0.7,1.4,1.1c-1.5-10-2.3-19.8-2-29.9c0.2-6.1,0.5-12.3,1.2-18.3
							c0.2-2,0.4-4.2,0.9-6.2c0.4-1.6-0.8,0.1-0.2-0.3c0.4-0.2,1.2-0.2,1.6-0.2c18.9-1.6,37.7-4,56.7-3.7c-0.5-0.5-1-1-1.4-1.4
							c-1.5,18-2.5,36.2-1,54.2c0.1,1.8,3,1.8,2.9,0c-1.5-18-0.4-36.2,1-54.2c0.1-0.8-0.7-1.4-1.4-1.4c-11.8-0.1-23.7,0.7-35.5,1.7
							c-8,0.6-16.3,0.9-24.2,2.5c-0.5,0.1-0.9,0.5-1,1c-2.4,9.4-2.5,19.9-2.6,29.5c-0.1,9.3,0.8,18.4,2.1,27.6
							c0.1,0.6,0.8,1.1,1.4,1.1c19.6-1.9,39.3-3.6,58.9-5C164.9,372.5,164.9,369.6,163.1,369.8L163.1,369.8z"/>
					</g>
				</g>
				<g>
					<g>
						<path d="M98.5,309.4c0.9,3,2.1,6,3.6,8.8c0.9,1.6,3.4,0.2,2.5-1.4c-1.4-2.6-2.5-5.2-3.3-8.1C100.7,306.8,98,307.6,98.5,309.4
							L98.5,309.4z"/>
					</g>
				</g>
				<g>
					<g>
						<path d="M164.7,313.9c-3-3.2-5.9-6.9-7.6-10.9c-0.2-0.5-0.8-0.7-1.2-0.7c-19.2-1.7-39.1,0.3-58.1,2.9c-0.5,0.1-0.9,0.6-1,1
							c-3.3,10.8-2.8,23-2.2,34.1c0.5,10.7,1.2,22.3,4.7,32.6c0.6,1.7,3.4,1,2.8-0.8c-3.8-11-4.3-23.6-4.7-35.1
							c-0.2-6.3-0.2-12.6,0.4-18.9c0.2-2.6,0.5-5.2,1.1-7.8c0.2-0.8,1.4-3.4-0.4-2.2c0.2-0.1,0.8-0.1,1.1-0.1
							c10.3-0.6,20.6-2.3,31-2.8c6.9-0.4,13.7-0.5,20.6-0.2c1.1,0.1,3.2-0.2,4.1,0.5c0.9,0.7,1.7,3,2.4,4c1.6,2.3,3.3,4.6,5.3,6.6
							C163.9,317.3,166,315.3,164.7,313.9L164.7,313.9z"/>
					</g>
				</g>
			</g>
			<path fill="#CCCCCC" d="M56.2,183.2c0,0,7.5,1.5,8.3,24.4c0.5,17-0.7,28.8-4.4,25.1c-3.7-3.7-1.2-30.4-8.3-33.6
				S56.2,183.2,56.2,183.2z"/>
			<g id="arm_1_15_">
				<g>
					<path fill="#999999" d="M54.3,274.4c-3.9-9.1-8.7-19.1-10.3-29s-0.6-20.4,4.7-28.8c4.3-6.8,11.4-12,13.7-19.8
						c1.2-4.2,0.8-9-1.8-12.4c-2.6-3.5-7.5-5.3-11.5-3.6l-4.2,2.2c-0.7,0.4-1.4,0.9-2,1.5c-12.3,12.3-20.2,26.2-20.9,43.6
						c-0.8,19.4,9.1,40.5,19.8,56.7C44.6,281.1,49.8,276.5,54.3,274.4z"/>
				</g>
				<path fill="#1E1E1E" d="M42.1,240.1c-2-9.1-0.2-20.9,4.5-28.9c3.5-6,14.6-20,15.4-20c1.7,0,0.4,4.8,0,6
					c-2.6,8.2-10.5,13.9-14.7,20.9c-1.9,3.2-3.4,7.2-3.7,10.7c-0.2,2.1-0.3,4.2-0.4,6.1c0,1.3,1,3.2,0.4,4.3
					C43.7,238.9,42.6,242.2,42.1,240.1z"/>
				<g display="none">
					<g display="inline">
						<path fill="#FFFFFF" d="M61.1,188.5c-3.6,11.1-14.7,17.5-19,28.4c-4.3,10.9-2.8,23.2,1.4,33.9c0.7,1.7,3.4,1,2.8-0.8
							c-4.5-11.5-6-25.1,0.5-36.3c5-8.7,13.8-14.6,17.1-24.5C64.4,187.5,61.6,186.7,61.1,188.5L61.1,188.5z"/>
					</g>
				</g>
				<path fill="#808080" d="M43.7,257c0,0-7.1,1.3-0.1,18c1.2,2.8-2.6,5.4,0,7.6c4.8-4.6,10.7-7.8,10.7-7.8
					C50.3,275.7,48.2,255.7,43.7,257z"/>
				<g>
					<g>
						<path d="M42.8,182.6C30.1,195.2,21.5,210.8,21,229c-0.5,20.1,8.3,39.4,19.1,55.9c1,1.5,3.5,0.1,2.5-1.4
							c-10.2-15.6-18.6-33.8-18.7-52.8c0-18,8.4-33.5,20.9-46C46.1,183.3,44.1,181.3,42.8,182.6L42.8,182.6z"/>
					</g>
				</g>
				<g>
					<g>
						<path d="M49.5,182.2c6.2-2,11.6,2.7,12.1,8.9c0.5,5.2-2.2,9.8-5.3,13.8c-4.8,6.1-10,11.2-12.4,18.8
							c-5.7,17.3,1.6,34.9,8.3,50.7c0.7,1.7,3.2,0.2,2.5-1.4c-4.7-11.1-9.7-22.7-9.9-35c-0.1-5.6,0.7-11.2,3-16.4
							c2.3-5.2,6.1-9.1,9.6-13.4c4.7-5.6,8.8-12.6,6.6-20.2c-1.9-6.6-8.6-10.6-15.2-8.4C47,180,47.7,182.8,49.5,182.2L49.5,182.2z"
							/>
					</g>
				</g>
				<g>
					<g>
						<path d="M58.1,204c-4.9-8.3-13.7-15.9-23.9-12.9c-2.1,0.6-0.2,5,2,4.3c5.3-1.6,10.2,0.6,14.1,4.3c1.3,1.2,2.4,2.5,3.4,3.9
							c0.3,0.4,1.8,2.8,1.3,1.8C56.5,208,59.6,206.6,58.1,204L58.1,204z"/>
					</g>
				</g>
				<g>
					<g>
						<path d="M49.1,218.5c-4.2-8.3-13.3-14.7-22.8-11.9c-2.2,0.7,1.2,3.8,2.7,3.4c7.1-2.1,13,2,16.1,8.2
							C46,219.7,50.3,221,49.1,218.5L49.1,218.5z"/>
					</g>
				</g>
				<g>
					<g>
						<path d="M44.4,233c-5-7.5-13.8-10.9-22.1-6.7c-2.3,1.2,0.1,5.3,2.4,4.1c6.1-3,12.7-0.7,16.2,4.6C42.6,237.5,46,235.5,44.4,233
							L44.4,233z"/>
					</g>
				</g>
				<g>
					<g>
						<path d="M45.4,249.6c-6.1-3.3-14.6-5.2-20.5-0.9c-2.1,1.6,1,5.1,2.9,3.7c4.8-3.5,11.4-2,16.3,0.7
							C46.8,254.6,47.8,250.9,45.4,249.6L45.4,249.6z"/>
					</g>
				</g>
				<g>
					<g>
						<path d="M52.4,268c-6.7-1.6-14.2,0.5-19.5,4.6c-0.9,0.7,0.8,0.7,1.1,0.8c1,0,2.3-0.5,3.1-1.1c3.3-2.5,7.5-3.4,11.5-2.4
							c1,0.2,2.4-0.1,3.2-0.6C52.2,269,53.5,268.2,52.4,268L52.4,268z"/>
					</g>
				</g>
			</g>
			<g id="leg_2_8_">
				<path fill="#1E1E1E" d="M233.2,290.6c0,0-5.3,12.4-5.8,21.2c-4.4-2-35-14.9-68.5-19.9c-5.3-0.6-12.1-4.7-7.2-14.6
					c5.3-10.6,30.1-3.5,30.1-3.5S227.4,284.4,233.2,290.6z"/>
				<g>
					<path fill="#999999" d="M150.8,285.1c24.7-0.8,72,18.4,77.7,20.5c1.3-3.9,4.8-14.9,4.8-14.9c-0.3-0.3-0.7-0.7-1.2-1
						c-5.8-2.6-12-5.1-18.5-7.3c-14.6-4.5-31.7-8.5-31.7-8.5s-0.7-0.2-2-0.5c-3.8-0.7-7.5-1.3-11-1.7c-6.9-0.5-13.6-1.2-17.1,5.7
						C150,280.6,150,282.1,150.8,285.1z"/>
				</g>
				<g>
					<path fill="#CCCCCC" d="M150.5,281.3c21.5-0.7,61.4,12.6,75.2,17.5c2.4,0.8,4.9-0.4,5.8-2.8c1-2.9,1.8-5.4,1.8-5.4
						c-0.3-0.3-0.7-0.7-1.2-1c-5.8-2.6-12-5.1-18.5-7.3c-14.6-4.5-31.7-8.5-31.7-8.5s-0.7-0.2-2-0.5c-3.8-0.7-7.5-1.3-11-1.7
						c-6.9-0.5-14.4,0.4-17.1,5.7C151.5,277.6,150.6,280.9,150.5,281.3z"/>
				</g>
				<g>
					<g>
						<path d="M234.2,289c-13.7-6.3-28-11.2-42.6-14.7c-6.9-1.7-13.8-3.1-20.8-4c-5.2-0.7-10.5-1.7-15.4,0.9
							c-7.4,4-9.5,16.1-1.4,20.5c4.2,2.3,9.7,2.5,14.3,3.3c7.1,1.3,14.4,2.4,21.4,4.3c11.7,3.2,23.7,7.4,34.5,12.8
							c1.7,0.8,3.1-1.7,1.4-2.5c-10.3-5.1-21.5-8.8-32.4-12.2c-6.2-1.9-12.7-3-19.1-4.2c-4.6-0.9-9.2-1.7-13.7-2.5
							c-1.8-0.4-3.7-0.6-5.3-1.6c-8.2-4.8-1.3-16.2,6.4-16.7c7.2-0.4,15.2,1.7,22.2,3.1c16.8,3.5,33.4,8.8,49,16.1
							C234.4,292.3,235.9,289.8,234.2,289L234.2,289z"/>
					</g>
				</g>
			</g>
			<g id="hand_1_15_">
				<g>
					<g>
						<path fill="#E10B31" d="M54.3,274.4c3.2-1.7,8.9-2.8,12.4-2.5c5.9,0.5,11.3,3.4,14.9,8.4c5.1,7.1,8.5,14.8,5.3,25.1
							c-1.3,4.2-4.5,7.6-7.8,10.6c-6.2,5.7-16.4,9.8-27.1,3.4c-6.2-3.7-11.8-10.7-13-17.9c-1.2-7.1-1.4-12,2.9-16.9
							C45.4,280.5,49,277.1,54.3,274.4z"/>
					</g>
					<g>
						<path fill="#E10B31" d="M81.2,278.3c2.6-2.7,6.5-6.2,8.1-6.5c0.7,3,1.5,6.1,3.3,9.3c-2.5,1.7-4.5,3.2-7,4.9
							C84.1,282.5,83.3,281.3,81.2,278.3z"/>
					</g>
					<g>
						<path fill="#E10B31" d="M75,318.2c2.6,3.1,5.2,6.1,7.8,9.2l0.8-0.6c2.3-1.4,4.3-3.4,5.6-5.9c0,0-6-5-8.1-8.5L75,318.2z"/>
					</g>
					<g>
						<path fill="#E10B31" d="M42.3,310.4c-2.5,3.6-7.6,11.3-7.6,11.3c1.7,2.5,3,4.4,4.7,6.8c0,0,4.5-6.7,9.1-11.3
							C46.1,315.8,44.8,314,42.3,310.4z"/>
					</g>
					<g>
						<path fill="#E10B31" d="M88.3,296.6c2.5,0.8,7.8,1.4,7.8,1.4c-0.9,2.3-0.8,3.8-0.8,6.2l-0.1,0.1c-2.4,0.1-4.9-0.2-7.2-0.8
							C88.4,301.1,88.6,298.7,88.3,296.6z"/>
					</g>
					<g>
						<path fill="#E10B31" d="M58.1,322.5c0,2.2-0.5,6.9-0.5,6.9c1.8,0.2,5.9,1,5.9,1c0.3-2.7,0.6-4.8,0.9-7.5L58.1,322.5z"/>
					</g>
				</g>
				<g>
					<path fill="#FFFFFF" d="M61,285.2c3.6,3,6.6,6.7,8.7,10.9l8.2-3c-2.3-4.7-5.9-11.2-10.6-11.5C63.2,283.4,61,285.2,61,285.2z"/>
				</g>
				<g>
					<g>
						<path d="M81.1,279.7c2.9-1.8,5.8-3.7,8.7-5.7c-0.7-0.2-1.3-0.3-2-0.5c1.3,2.6,2.6,5.1,3.3,7.9c0.2-0.5,0.4-1.1,0.7-1.6
							c-2.3,1.6-4.6,3.3-7,4.9c-1.5,1.1-0.1,3.5,1.4,2.5c2.3-1.6,4.6-3.3,7-4.9c0.5-0.4,0.8-1,0.7-1.6c-0.8-3-2.2-5.8-3.6-8.6
							c-0.3-0.7-1.4-0.9-2-0.5c-2.8,2-5.8,3.8-8.7,5.7C78.1,278.2,79.6,280.7,81.1,279.7L81.1,279.7z"/>
					</g>
				</g>
				<g>
					<g>
						<path d="M74.6,319.4c2.2,3.1,4.7,6,7.2,9c0.4,0.5,1.2,0.6,1.7,0.2c2.9-1.9,5.2-3.9,6.9-6.9c0.2-0.4,0.3-1,0-1.4
							c-2.1-2.8-4.7-5.4-7.3-7.7c-1.4-1.2-3.4,0.8-2,2c2.4,2.2,5,4.6,6.9,7.2c0-0.5,0-1,0-1.4c-1.5,2.6-3.4,4.2-5.9,5.9
							c0.6,0.1,1.2,0.1,1.7,0.2c-2.3-2.7-4.7-5.4-6.7-8.4C76,316.4,73.5,317.9,74.6,319.4L74.6,319.4z"/>
					</g>
				</g>
				<g>
					<g>
						<path d="M41.7,309.4c-2.7,3.9-5.4,7.7-8.2,11.5c-0.3,0.4-0.3,1.1,0,1.4c1.6,2.2,3.2,4.2,5.2,6c0.5,0.5,1.5,0.6,2,0
							c3-3.4,5.9-6.7,8.8-10.2c1.2-1.4-0.9-3.5-2-2c-2.9,3.4-5.8,6.8-8.8,10.2c0.7,0,1.4,0,2,0c-1.8-1.7-3.3-3.5-4.8-5.4
							c0,0.5,0,1,0,1.4c2.8-3.8,5.5-7.6,8.2-11.5C45.2,309.4,42.7,307.9,41.7,309.4L41.7,309.4z"/>
					</g>
				</g>
				<g>
					<g>
						<path d="M87.6,297.4c2.8,0.5,5.4,1.6,8,2.5c-0.3-0.6-0.7-1.2-1-1.8c-0.3,1.9-0.5,3.8-0.8,5.7c0.5-0.4,0.9-0.7,1.4-1.1
							c-2.3-0.1-4.6-0.4-6.9-0.8c-1.8-0.3-2.6,2.5-0.8,2.8c2.5,0.4,5.1,0.7,7.6,0.9c0.6,0,1.3-0.5,1.4-1.1c0.3-1.9,0.5-3.8,0.8-5.7
							c0.1-0.8-0.2-1.5-1-1.8c-2.7-0.9-5.2-2-8-2.5C86.5,294.2,85.8,297,87.6,297.4L87.6,297.4z"/>
					</g>
				</g>
				<g>
					<g>
						<path d="M56,322.9c0,2.2,0.1,4.3,0.1,6.5c0.4-0.5,0.7-0.9,1.1-1.4c0,0,0,0,0,0c-1.7,0.4-1.1,2.6,0.4,2.8
							c1.9,0.2,3.7,0.6,5.6,1c1,0.2,1.7-0.4,1.8-1.4c0.3-2.7,0.6-5.4,1-8.1c0.2-1.8-2.7-1.8-2.9,0c-0.3,2.7-0.6,5.4-1,8.1
							c0.6-0.5,1.2-0.9,1.8-1.4c-2.1-0.4-4.2-0.8-6.3-1.1c0.1,0.9,0.3,1.9,0.4,2.8c0,0,0,0,0,0c0.6-0.2,1.1-0.8,1.1-1.4
							c0-2.2-0.1-4.3-0.1-6.5C58.9,321,56,321,56,322.9L56,322.9z"/>
					</g>
				</g>
				<g>
					<g>
						<path d="M40.4,285.4c-8.3,11.8-1.4,28.1,10.1,35c11.6,6.9,24,1.4,32.4-7.5c9.8-10.3,8.2-26.9-2.3-36.4
							c-9.7-8.7-22.4-5.1-31.9,1.4c-1.7,1.1-1.4,1.7,0.4,0.5c9.4-6.4,22.9-7.4,30.6,2.3c6.9,8.5,10,21.1,3.1,30.6
							c-9,12.5-24.7,13.2-35.1,2.4c-7.4-7.7-11-20.5-4.4-29.8C43.5,283.4,40.9,284.7,40.4,285.4L40.4,285.4z"/>
					</g>
				</g>
			</g>
			<g display="none">
				
					<path display="inline" fill-rule="evenodd" clip-rule="evenodd" fill="#101010" stroke="#101010" stroke-width="0.9574" stroke-miterlimit="10" d="
					M177.8,87.8c0.1-0.7,0.3-1.3,0.4-2c0.2-1,0.2-2-0.3-2.8c-1-1.7-1.8-3.4-3.1-5c-1.5-1.8-3.3-2.2-5.2-1.9
					c-4.2,0.5-7.5,2.6-9.5,6.5c-1.7,3.3-0.8,5.6,0.8,7.9c0.9,1.3,2.2,2.4,3.7,3.3c3.4,2.1,8.4,1.5,11.4-1.2c0.7-0.7,1.3-1.4,1.4-2.4
					C177.4,89.3,177.6,88.5,177.8,87.8z"/>
				
					<path display="inline" fill-rule="evenodd" clip-rule="evenodd" fill="#101010" stroke="#101010" stroke-width="0.9574" stroke-miterlimit="10" d="
					M126.3,86.1c0.2-1,0.3-2.2,0.2-3.7c-0.3-2.6-1.7-4.2-3.9-5.4c-1-0.5-2.2-1-3.3-1.4c-3.3-1.1-6.5-0.3-9.4,1.8
					c-2,1.4-3.3,3.6-3.9,6c-0.6,2-0.1,4.1,0.6,6c1,2.2,2.7,4,4.7,5.5c1.9,1.4,4,1.3,6,0.8c2.9-0.7,5.3-2.2,7.2-4.7
					C125.4,89.6,125.9,88,126.3,86.1z"/>
				
					<path display="inline" fill-rule="evenodd" clip-rule="evenodd" fill="#E21F36" stroke="#0A0A0A" stroke-width="0.8231" stroke-linecap="round" stroke-linejoin="round" stroke-miterlimit="10" d="
					M107.6,77.7c0.8,0.3,1.4,0.9,2.1,1.4c1.6,1.5,3.1,2.8,4.6,4.2c0.6,0.6,1.3,0.7,1.9,0.3c1.6-1.1,3.3-2,4.9-3.1
					c1-0.7,2.1-1.3,3.1-1.8c0.5-0.2,1-0.1,1.4,0.3c0.4,0.4,0.4,0.8,0.3,1.3c-0.3,1.2-1,2.2-1.9,3c-1.6,1.5-3.1,3.1-4.8,4.9
					c1.3,1.4,2.3,2.6,3.2,3.8c0.8,1,0.7,2.3,0,3c-0.6,0.6-1.7,0.8-2.6,0.3c-1.4-0.9-2.7-1.7-3.9-2.7c-0.8-0.7-1.7-0.8-2.7-0.1
					c-0.7,0.4-1.3,1-2.1,1.4c-1.5,0.8-2.9,1.7-4.4,2.5c-0.5,0.2-0.9,0.2-1.4,0c-2-1.1-2.6-3.4-1.1-5.1c0.5-0.5,1.2-0.9,1.7-1.4
					c1.2-0.9,3.2-1.1,3.2-2.6c0-1.4-1.9-2-2.8-3.1c-0.2-0.3-0.5-0.5-0.8-0.7c-0.6-0.6-1-1.3-1.4-2.1c-0.4-0.9-0.3-1.9,0.4-2.8
					C105.2,77.6,106.5,77.5,107.6,77.7z"/>
				
					<path display="inline" fill-rule="evenodd" clip-rule="evenodd" fill="#101010" stroke="#101010" stroke-width="0.9574" stroke-miterlimit="10" d="
					M151.9,85.9c0.2-0.9,0.3-2.1,0.2-3.4c-0.3-2.4-1.6-3.9-3.6-5c-1-0.5-2.1-1-3-1.3c-3.1-1-6-0.3-8.7,1.7c-1.9,1.3-3.1,3.3-3.7,5.6
					c-0.5,1.9-0.1,3.8,0.6,5.6c0.9,2,2.6,3.7,4.4,5.1c1.7,1.3,3.7,1.2,5.5,0.7c2.7-0.6,4.9-2,6.7-4.3
					C151.1,89.3,151.4,87.8,151.9,85.9z"/>
				
					<path display="inline" fill-rule="evenodd" clip-rule="evenodd" fill="#E21F36" stroke="#0A0A0A" stroke-width="0.8231" stroke-linecap="round" stroke-linejoin="round" stroke-miterlimit="10" d="
					M134.5,78.3c0.7,0.3,1.3,0.8,2,1.3c1.4,1.4,2.9,2.6,4.2,3.9c0.6,0.5,1.2,0.6,1.8,0.2c1.5-1,3-1.9,4.6-2.9c0.9-0.6,2-1.2,2.9-1.7
					c0.4-0.2,0.9-0.1,1.3,0.3c0.3,0.3,0.4,0.7,0.3,1.2c-0.2,1.1-1,2.1-1.8,2.8c-1.5,1.4-2.8,2.9-4.5,4.5c1.2,1.3,2.2,2.4,3,3.5
					c0.7,0.9,0.6,2.1,0,2.8c-0.5,0.6-1.6,0.7-2.4,0.3c-1.3-0.8-2.5-1.6-3.6-2.5c-0.8-0.7-1.6-0.7-2.5-0.1c-0.6,0.4-1.3,0.9-2,1.3
					c-1.4,0.8-2.7,1.6-4.1,2.3c-0.4,0.2-0.8,0.2-1.3,0c-1.9-1.1-2.4-3.1-1-4.7c0.5-0.4,1.1-0.8,1.6-1.3c1.1-0.8,3-1,3-2.4
					c0-1.3-1.7-1.8-2.6-2.9c-0.2-0.3-0.4-0.5-0.8-0.7c-0.6-0.5-0.9-1.3-1.3-2c-0.4-0.9-0.3-1.8,0.4-2.6
					C132.3,78.2,133.6,77.9,134.5,78.3z"/>
				
					<path display="inline" fill-rule="evenodd" clip-rule="evenodd" fill="#E21F36" stroke="#0A0A0A" stroke-width="0.8231" stroke-linecap="round" stroke-linejoin="round" stroke-miterlimit="10" d="
					M175.3,93.2c-1.5-0.2-3-0.6-4.3-1.5c-0.9-0.6-1.6-1.8-2.6-1.6c-1,0.3-1.7,1.1-2.6,1.7c-1.2,0.9-2.4,1.9-3.9,2.5
					c-0.4,0.2-0.7,0.3-1.1,0.3c-0.9-0.1-2.1-2-1.8-3c0.3-1.1,1.1-1.7,2.1-2.3c4.4-3.1,4.2-2.2,0-5.7c-0.5-0.4-1.1-0.8-1.7-1.2
					c-0.5-0.4-0.8-0.9-1.2-1.3c-0.7-0.9-0.6-2.2,0.4-3.1c0.7-0.6,1.7-1,2.7-0.2c0.9,0.6,1.9,1.4,2.7,2.1c1.2,0.9,2.4,2,3.6,2.9
					c1,0.8,1.2,0.8,2.3,0c0.8-0.6,1.6-1.4,2.6-2c1.1-0.8,2.1-1.6,3.3-2.4c0.4-0.3,0.9-0.4,1.4-0.5c0.6-0.1,1.3,0.8,1.1,1.4
					c-0.4,0.7-0.8,1.3-1.4,1.9c-1.6,1.8-3.2,3.6-4.7,5.4c1.2,1.9,1.9,2.8,4,4.1c0.3,0.2,0.6,0.4,0.9,0.6c0.4,0.3,0.3,1-0.1,1.2
					C176.3,93.2,175.8,93.3,175.3,93.2z"/>
			</g>
			<g>
				<g>
					<path d="M292.5,272.6c-6.2,6.4-11.5,14.2-16.3,21.7c-1.6,2.4-3.1,4.9-4.5,7.5c-1.2,2.2-2.1,5.1-3.7,7.1
						c-3.3,4.1-7.6,7.7-11,11.7c-1.2,1.4,0.8,3.4,2,2c2-2.4,4-4.8,6.1-7c1.6-1.7,3.9-3.2,5.3-5c1.2-1.5,1.9-3.9,2.7-5.6
						c1.3-2.5,2.8-5,4.3-7.4c4.9-8,10.4-16.2,17-23C295.9,273.3,293.8,271.3,292.5,272.6L292.5,272.6z"/>
				</g>
			</g>
			<g>
				<g>
					<path d="M294.7,270.1c-2.6,0.5-5.2,1-7.7,1.8c-1.8,0.5-1,3.3,0.8,2.8c2.5-0.8,5.1-1.3,7.7-1.8
						C297.3,272.5,296.5,269.8,294.7,270.1L294.7,270.1z"/>
				</g>
			</g>
			<g>
				<g>
					<path d="M296.1,270.5c-5.5-5.4-12.1-9.9-18.8-13.6c-5.7-3.2-10.3-4.2-16.8-2.5c-1.8,0.5-1,3.2,0.8,2.8c6.7-1.7,10.9,0,16.6,3.3
						c5.8,3.4,11.5,7.3,16.2,12C295.4,273.8,297.4,271.8,296.1,270.5L296.1,270.5z"/>
				</g>
			</g>
		</g>
		<g>
			<g>
				<g>
					<path d="M103.4,196.7c-4.2,1.1-8.4,1.7-12.7,1.7c-1.3,0-1.3,2.1,0,2.1c4.5,0,8.9-0.5,13.2-1.7
						C105.2,198.4,104.7,196.4,103.4,196.7L103.4,196.7z"/>
				</g>
			</g>
			<g>
				<g>
					<path d="M88.2,186c5.4-0.4,10.7-1.5,15.9-2.6c-0.4-0.2-0.8-0.5-1.3-0.7c1,4.4,1.7,9.5,0.8,14c-0.3,1.3,1.7,1.9,2,0.5
						c1-4.9,0.3-10.3-0.8-15.1c-0.1-0.6-0.7-0.8-1.3-0.7c-5.1,1.1-10.2,2.2-15.4,2.5C86.9,184,86.9,186.1,88.2,186L88.2,186z"/>
				</g>
			</g>
			<g>
				<g>
					<path d="M86.6,186.1c1.5,4.6,1.8,9.2,0.9,13.9c-0.2,1.3,1.7,1.9,2,0.5c0.9-5.1,0.7-10.1-0.9-15
						C88.2,184.3,86.2,184.9,86.6,186.1L86.6,186.1z"/>
				</g>
			</g>
			<g>
				<path fill="#E10B31" d="M96,187.5c4.8-1.1,6.2,3,5.4,4.7c-0.8,1.6-1.8,2.5-3.6,2.8c-1.8,0.2-3.8-0.6-4.6-2.2
					C92.2,191.1,93.3,188.1,96,187.5z"/>
				<g>
					<path d="M96.2,188.1c1.7-0.3,3.6-0.1,4.4,1.6c0.7,1.3,0.2,2.6-0.8,3.6c-1.6,1.5-5,1.2-6.1-0.9
						C92.9,190.5,94.5,188.6,96.2,188.1c0.8-0.2,0.5-1.6-0.4-1.3c-2.4,0.7-4.4,3.3-3.5,5.8c1,2.8,4.8,3.7,7.3,2.4
						c2.1-1.1,3.2-3.4,2.4-5.6c-1-2.5-3.7-3.1-6.2-2.6C94.9,187,95.3,188.3,96.2,188.1z"/>
				</g>
			</g>
			<g>
				<g>
					<path d="M98.2,190.2c-0.6-1.3-0.8-2.7-1.1-4.1c-0.3-1.3-2.3-0.7-2,0.5c0.3,1.6,0.6,3.1,1.3,4.6C97,192.4,98.8,191.4,98.2,190.2
						L98.2,190.2z"/>
				</g>
			</g>
		</g>
	</g>
	<g>
		<g>
			<polygon fill="#E1435F" points="117.1,212.7 107.3,215 107.3,205.8 117.1,203.5 			"/>
			<g>
				<path d="M117,212.3c-3.3,0.8-6.5,1.5-9.8,2.3c0.3,0.1,0.6,0.2,0.8,0.3c0-3.1,0-6.1,0-9.2c-0.2,0.2-0.4,0.3-0.6,0.5
					c3.3-0.8,6.5-1.5,9.8-2.3c-0.3-0.1-0.6-0.2-0.8-0.3c0,3.1,0,6.1,0,9.2c0,0.7,1.5,0.4,1.5-0.2c0-3.1,0-6.1,0-9.2
					c0-0.4-0.5-0.4-0.8-0.3c-3.3,0.8-6.5,1.5-9.8,2.3c-0.2,0-0.6,0.2-0.6,0.5c0,3.1,0,6.1,0,9.2c0,0.4,0.5,0.4,0.8,0.3
					c3.3-0.8,6.5-1.5,9.8-2.3C118.1,212.9,117.9,212.1,117,212.3z"/>
			</g>
		</g>
		<g>
			<polygon fill="#E1435F" points="126.8,210.4 117.1,212.7 117.1,203.5 126.8,201.2 			"/>
			<g>
				<path d="M126.7,209.9c-3.3,0.8-6.5,1.5-9.8,2.3c0.3,0.2,0.6,0.3,0.9,0.5c0-3.1,0-6.1,0-9.2c-0.2,0.2-0.4,0.4-0.6,0.6
					c3.3-0.8,6.5-1.5,9.8-2.3c-0.3-0.2-0.6-0.3-0.9-0.5c0,3.1,0,6.1,0,9.2c0,0.8,1.5,0.6,1.5-0.1c0-3.1,0-6.1,0-9.2
					c0-0.5-0.5-0.5-0.9-0.5c-3.3,0.8-6.5,1.5-9.8,2.3c-0.2,0.1-0.6,0.3-0.6,0.6c0,3.1,0,6.1,0,9.2c0,0.5,0.5,0.5,0.9,0.5
					c3.3-0.8,6.5-1.5,9.8-2.3C127.9,210.7,127.6,209.7,126.7,209.9z"/>
			</g>
		</g>
		<g>
			<polygon fill="#E10B31" points="151.4,209.9 141.7,212.2 141.6,203 151.4,200.7 			"/>
			<g>
				<path d="M151.3,209.6c-3.3,0.8-6.5,1.5-9.8,2.3c0.3,0,0.5,0.1,0.8,0.1c0-3.1,0-6.1,0-9.2c-0.2,0.2-0.4,0.3-0.6,0.5
					c3.3-0.8,6.5-1.5,9.8-2.3c-0.3,0-0.5-0.1-0.8-0.1c0,3.1,0,6.1,0,9.2c0,0.3,1.5,0.1,1.4-0.4c0-3.1,0-6.1,0-9.2
					c0-0.3-0.7-0.1-0.8-0.1c-3.3,0.8-6.5,1.5-9.8,2.3c-0.2,0.1-0.6,0.2-0.6,0.5c0,3.1,0,6.1,0,9.2c0,0.3,0.7,0.1,0.8,0.1
					c3.3-0.8,6.5-1.5,9.8-2.3C152.4,210,152.2,209.4,151.3,209.6z"/>
			</g>
		</g>
		<g>
			<polygon fill="#E10B31" points="161.2,207.6 151.4,209.9 151.4,200.7 161.1,198.4 			"/>
			<g>
				<path d="M161.1,207.2c-3.3,0.8-6.5,1.5-9.8,2.3c0.3,0.1,0.6,0.2,0.8,0.3c0-3.1,0-6.1,0-9.2c-0.2,0.2-0.4,0.3-0.6,0.5
					c3.3-0.8,6.5-1.5,9.8-2.3c-0.3-0.1-0.6-0.2-0.8-0.3c0,3.1,0,6.1,0,9.2c0,0.6,1.5,0.3,1.5-0.2c0-3.1,0-6.1,0-9.2
					c0-0.4-0.6-0.4-0.8-0.3c-3.3,0.8-6.5,1.5-9.8,2.3c-0.2,0-0.6,0.2-0.6,0.5c0,3.1,0,6.1,0,9.2c0,0.4,0.6,0.4,0.8,0.3
					c3.3-0.8,6.5-1.5,9.8-2.3C162.2,207.8,162,207,161.1,207.2z"/>
			</g>
		</g>
		<g>
			<polygon fill="#E1435F" points="107.4,224.2 97.6,226.5 97.6,217.3 107.3,215 			"/>
			<g>
				<path d="M107.3,223.9c-3.3,0.8-6.5,1.5-9.8,2.3c0.3,0,0.5,0.1,0.8,0.1c0-3.1,0-6.1,0-9.2c-0.2,0.2-0.4,0.3-0.6,0.5
					c3.3-0.8,6.5-1.5,9.8-2.3c-0.3,0-0.5-0.1-0.8-0.1c0,3.1,0,6.1,0,9.2c0,0.4,1.5,0.1,1.4-0.4c0-3.1,0-6.1,0-9.2
					c0-0.3-0.7-0.1-0.8-0.1c-3.3,0.8-6.5,1.5-9.8,2.3c-0.2,0.1-0.6,0.2-0.6,0.5c0,3.1,0,6.1,0,9.2c0,0.3,0.7,0.1,0.8,0.1
					c3.3-0.8,6.5-1.5,9.8-2.3C108.3,224.3,108.2,223.7,107.3,223.9z"/>
			</g>
		</g>
		<g>
			<polygon fill="#E1B4BC" points="117.1,221.9 107.4,224.2 107.3,215 117.1,212.7 			"/>
			<g>
				<path d="M117,221.6c-3.3,0.8-6.5,1.5-9.8,2.3c0.3,0,0.5,0.1,0.8,0.1c0-3.1,0-6.1,0-9.2c-0.2,0.2-0.4,0.3-0.6,0.5
					c3.3-0.8,6.5-1.5,9.8-2.3c-0.3,0-0.5-0.1-0.8-0.1c0,3.1,0,6.1,0,9.2c0,0.4,1.5,0.1,1.4-0.4c0-3.1,0-6.1,0-9.2
					c0-0.3-0.7-0.1-0.8-0.1c-3.3,0.8-6.5,1.5-9.8,2.3c-0.2,0.1-0.6,0.2-0.6,0.5c0,3.1,0,6.1,0,9.2c0,0.3,0.7,0.1,0.8,0.1
					c3.3-0.8,6.5-1.5,9.8-2.3C118.1,222,117.9,221.4,117,221.6z"/>
			</g>
		</g>
		<g>
			<polygon fill="#E17C8E" points="126.9,219.6 117.1,221.9 117.1,212.7 126.8,210.4 			"/>
			<g>
				<path d="M126.8,219.4c-3.3,0.8-6.5,1.5-9.8,2.3c0.3,0,0.5,0,0.8,0c0-3.1,0-6.1,0-9.2c-0.2,0.1-0.4,0.3-0.7,0.4
					c3.3-0.8,6.5-1.5,9.8-2.3c-0.3,0-0.5,0-0.8,0c0,3.1,0,6.1,0,9.2c0,0.2,1.5,0,1.4-0.4c0-3.1,0-6.1,0-9.2c0-0.2-0.7,0-0.8,0
					c-3.3,0.8-6.5,1.5-9.8,2.3c-0.2,0-0.7,0.2-0.7,0.4c0,3.1,0,6.1,0,9.2c0,0.2,0.7,0,0.8,0c3.3-0.8,6.5-1.5,9.8-2.3
					C127.8,219.6,127.7,219.2,126.8,219.4z"/>
			</g>
		</g>
		<g>
			<polygon fill="#E1435F" points="136.6,217.3 126.9,219.6 126.8,210.4 136.6,208.1 			"/>
			<g>
				<path d="M136.6,217c-3.3,0.8-6.5,1.5-9.8,2.3c0.3,0,0.5,0.1,0.8,0.1c0-3.1,0-6.1,0-9.2c-0.2,0.2-0.4,0.3-0.6,0.5
					c3.3-0.8,6.5-1.5,9.8-2.3c-0.3,0-0.5-0.1-0.8-0.1c0,3.1,0,6.1,0,9.2c0,0.3,1.5,0.1,1.4-0.4c0-3.1,0-6.1,0-9.2
					c0-0.3-0.7-0.1-0.8-0.1c-3.3,0.8-6.5,1.5-9.8,2.3c-0.2,0-0.7,0.2-0.6,0.5c0,3.1,0,6.1,0,9.2c0,0.3,0.7,0.1,0.8,0.1
					c3.3-0.8,6.5-1.5,9.8-2.3C137.6,217.4,137.4,216.8,136.6,217z"/>
			</g>
		</g>
		<g>
			<polygon fill="#E1435F" points="151.5,219.1 141.7,221.4 141.7,212.2 151.4,209.9 			"/>
			<g>
				<path d="M151.4,218.9c-3.3,0.8-6.5,1.5-9.8,2.3c0.3,0,0.5,0,0.8,0c0-3.1,0-6.1,0-9.2c-0.2,0.1-0.4,0.3-0.7,0.4
					c3.3-0.8,6.5-1.5,9.8-2.3c-0.3,0-0.5,0-0.8,0c0,3.1,0,6.1,0,9.2c0,0.2,1.5,0,1.4-0.4c0-3.1,0-6.1,0-9.2c0-0.2-0.7,0-0.8,0
					c-3.3,0.8-6.5,1.5-9.8,2.3c-0.2,0-0.7,0.2-0.7,0.4c0,3.1,0,6.1,0,9.2c0,0.2,0.7,0,0.8,0c3.3-0.8,6.5-1.5,9.8-2.3
					C152.4,219.1,152.3,218.7,151.4,218.9z"/>
			</g>
		</g>
		<g>
			<polygon fill="#E10B31" points="161.2,216.8 151.5,219.1 151.4,209.9 161.2,207.6 			"/>
			<g>
				<path d="M161.1,216.4c-3.3,0.8-6.5,1.5-9.8,2.3c0.3,0.1,0.6,0.2,0.8,0.4c0-3.1,0-6.1,0-9.2c-0.2,0.2-0.4,0.3-0.6,0.5
					c3.3-0.8,6.5-1.5,9.8-2.3c-0.3-0.1-0.6-0.2-0.8-0.4c0,3.1,0,6.1,0,9.2c0,0.7,1.5,0.4,1.5-0.1c0-3.1,0-6.1,0-9.2
					c0-0.4-0.5-0.4-0.8-0.4c-3.3,0.8-6.5,1.5-9.8,2.3c-0.2,0-0.6,0.2-0.6,0.5c0,3.1,0,6.1,0,9.2c0,0.4,0.5,0.4,0.8,0.4
					c3.3-0.8,6.5-1.5,9.8-2.3C162.2,217,162,216.2,161.1,216.4z"/>
			</g>
		</g>
		<g>
			<polygon fill="#E10B31" points="171,214.5 161.2,216.8 161.2,207.6 170.9,205.3 			"/>
			<g>
				<path d="M170.9,214.3c-3.3,0.8-6.5,1.5-9.8,2.3c0.3,0,0.5,0,0.8,0c0-3.1,0-6.1,0-9.2c-0.2,0.1-0.4,0.3-0.7,0.4
					c3.3-0.8,6.5-1.5,9.8-2.3c-0.3,0-0.5,0-0.8,0c0,3.1,0,6.1,0,9.2c0,0.2,1.5,0,1.4-0.4c0-3.1,0-6.1,0-9.2c0-0.2-0.7,0-0.8,0
					c-3.3,0.8-6.5,1.5-9.8,2.3c-0.2,0-0.7,0.2-0.7,0.4c0,3.1,0,6.1,0,9.2c0,0.2,0.7,0,0.8,0c3.3-0.8,6.5-1.5,9.8-2.3
					C171.9,214.6,171.8,214.1,170.9,214.3z"/>
			</g>
		</g>
		<g>
			<polygon fill="#E1435F" points="107.4,233.4 97.7,235.7 97.6,226.5 107.4,224.2 			"/>
			<g>
				<path d="M107.3,233.1c-3.3,0.8-6.5,1.5-9.8,2.3c0.3,0,0.5,0.1,0.8,0.1c0-3.1,0-6.1,0-9.2c-0.2,0.2-0.4,0.3-0.6,0.5
					c3.3-0.8,6.5-1.5,9.8-2.3c-0.3,0-0.5-0.1-0.8-0.1c0,3.1,0,6.1,0,9.2c0,0.3,1.5,0.1,1.4-0.4c0-3.1,0-6.1,0-9.2
					c0-0.3-0.7-0.1-0.8-0.1c-3.3,0.8-6.5,1.5-9.8,2.3c-0.2,0.1-0.6,0.2-0.6,0.5c0,3.1,0,6.1,0,9.2c0,0.3,0.7,0.1,0.8,0.1
					c3.3-0.8,6.5-1.5,9.8-2.3C108.3,233.5,108.2,232.9,107.3,233.1z"/>
			</g>
		</g>
		<g>
			<polygon fill="#E17C8E" points="117.2,231.1 107.4,233.4 107.4,224.2 117.1,221.9 			"/>
			<g>
				<path d="M117,230.6c-3.3,0.8-6.5,1.5-9.8,2.3c0.3,0.2,0.6,0.3,0.9,0.5c0-3.1,0-6.1,0-9.2c-0.2,0.2-0.4,0.4-0.6,0.6
					c3.3-0.8,6.5-1.5,9.8-2.3c-0.3-0.2-0.6-0.3-0.9-0.5c0,3.1,0,6.1,0,9.2c0,0.8,1.5,0.6,1.5-0.1c0-3.1,0-6.1,0-9.2
					c0-0.5-0.5-0.6-0.9-0.5c-3.3,0.8-6.5,1.5-9.8,2.3c-0.2,0.1-0.6,0.3-0.6,0.6c0,3.1,0,6.1,0,9.2c0,0.5,0.5,0.6,0.9,0.5
					c3.3-0.8,6.5-1.5,9.8-2.3C118.2,231.4,117.9,230.4,117,230.6z"/>
			</g>
		</g>
		<g>
			<polygon fill="#E17C8E" points="126.9,228.8 117.2,231.1 117.1,221.9 126.9,219.6 			"/>
			<g>
				<path d="M126.8,228.4c-3.3,0.8-6.5,1.5-9.8,2.3c0.3,0.1,0.6,0.2,0.8,0.3c0-3.1,0-6.1,0-9.2c-0.2,0.2-0.4,0.3-0.6,0.5
					c3.3-0.8,6.5-1.5,9.8-2.3c-0.3-0.1-0.6-0.2-0.8-0.3c0,3.1,0,6.1,0,9.2c0,0.7,1.5,0.4,1.5-0.2c0-3.1,0-6.1,0-9.2
					c0-0.4-0.5-0.4-0.8-0.3c-3.3,0.8-6.5,1.5-9.8,2.3c-0.2,0-0.6,0.2-0.6,0.5c0,3.1,0,6.1,0,9.2c0,0.4,0.5,0.4,0.8,0.3
					c3.3-0.8,6.5-1.5,9.8-2.3C127.9,229,127.7,228.2,126.8,228.4z"/>
			</g>
		</g>
		<g>
			<polygon fill="#E1435F" points="136.7,226.5 126.9,228.8 126.9,219.6 136.6,217.3 			"/>
			<g>
				<path d="M136.6,226.2c-3.3,0.8-6.5,1.5-9.8,2.3c0.3,0,0.5,0.1,0.8,0.1c0-3.1,0-6.1,0-9.2c-0.2,0.2-0.4,0.4-0.6,0.5
					c3.3-0.8,6.5-1.5,9.8-2.3c-0.3,0-0.5-0.1-0.8-0.1c0,3.1,0,6.1,0,9.2c0,0.4,1.5,0.2,1.4-0.4c0-3.1,0-6.1,0-9.2
					c0-0.3-0.7-0.2-0.8-0.1c-3.3,0.8-6.5,1.5-9.8,2.3c-0.3,0.1-0.6,0.2-0.6,0.5c0,3.1,0,6.1,0,9.2c0,0.3,0.7,0.2,0.8,0.1
					c3.3-0.8,6.5-1.5,9.8-2.3C137.6,226.6,137.4,226,136.6,226.2z"/>
			</g>
		</g>
		<g>
			<polygon fill="#E1435F" points="151.5,228.3 141.7,230.6 141.7,221.4 151.5,219.1 			"/>
			<g>
				<path d="M151.4,228c-3.3,0.8-6.5,1.5-9.8,2.3c0.3,0,0.5,0.1,0.8,0.1c0-3.1,0-6.1,0-9.2c-0.2,0.2-0.4,0.4-0.6,0.5
					c3.3-0.8,6.5-1.5,9.8-2.3c-0.3,0-0.5-0.1-0.8-0.1c0,3.1,0,6.1,0,9.2c0,0.4,1.5,0.2,1.4-0.4c0-3.1,0-6.1,0-9.2
					c0-0.3-0.7-0.2-0.8-0.1c-3.3,0.8-6.5,1.5-9.8,2.3c-0.3,0.1-0.6,0.2-0.6,0.5c0,3.1,0,6.1,0,9.2c0,0.3,0.7,0.2,0.8,0.1
					c3.3-0.8,6.5-1.5,9.8-2.3C152.5,228.5,152.3,227.8,151.4,228z"/>
			</g>
		</g>
		<g>
			<polygon fill="#E10B31" points="161.2,226 151.5,228.3 151.5,219.1 161.2,216.8 			"/>
			<g>
				<path d="M161.2,225.8c-3.3,0.8-6.5,1.5-9.8,2.3c0.3,0,0.5,0,0.8,0.1c0-3.1,0-6.1,0-9.2c-0.2,0.2-0.4,0.3-0.7,0.5
					c3.3-0.8,6.5-1.5,9.8-2.3c-0.3,0-0.5,0-0.8-0.1c0,3.1,0,6.1,0,9.2c0,0.3,1.5,0.1,1.4-0.4c0-3.1,0-6.1,0-9.2
					c0-0.2-0.7-0.1-0.8-0.1c-3.3,0.8-6.5,1.5-9.8,2.3c-0.2,0-0.7,0.2-0.7,0.5c0,3.1,0,6.1,0,9.2c0,0.2,0.7,0.1,0.8,0.1
					c3.3-0.8,6.5-1.5,9.8-2.3C162.2,226.1,162,225.5,161.2,225.8z"/>
			</g>
		</g>
		<g>
			<polygon fill="#E10B31" points="171,223.7 161.2,226 161.2,216.8 171,214.5 			"/>
			<g>
				<path d="M170.9,223.3c-3.3,0.8-6.5,1.5-9.8,2.3c0.3,0.1,0.6,0.3,0.9,0.4c0-3.1,0-6.1,0-9.2c-0.2,0.2-0.4,0.3-0.6,0.5
					c3.3-0.8,6.5-1.5,9.8-2.3c-0.3-0.1-0.6-0.3-0.9-0.4c0,3.1,0,6.1,0,9.2c0,0.7,1.5,0.4,1.5-0.1c0-3.1,0-6.1,0-9.2
					c0-0.4-0.5-0.5-0.9-0.4c-3.3,0.8-6.5,1.5-9.8,2.3c-0.2,0-0.6,0.3-0.6,0.5c0,3.1,0,6.1,0,9.2c0,0.4,0.5,0.5,0.9,0.4
					c3.3-0.8,6.5-1.5,9.8-2.3C172,224,171.8,223.1,170.9,223.3z"/>
			</g>
		</g>
		<g>
			<polygon fill="#E1435F" points="117.2,240.3 107.4,242.6 107.4,233.4 117.2,231.1 			"/>
			<g>
				<path d="M117.1,240c-3.3,0.8-6.5,1.5-9.8,2.3c0.3,0,0.5,0.1,0.8,0.1c0-3.1,0-6.1,0-9.2c-0.2,0.2-0.4,0.3-0.6,0.5
					c3.3-0.8,6.5-1.5,9.8-2.3c-0.3,0-0.5-0.1-0.8-0.1c0,3.1,0,6.1,0,9.2c0,0.4,1.5,0.1,1.4-0.4c0-3.1,0-6.1,0-9.2
					c0-0.3-0.7-0.2-0.8-0.1c-3.3,0.8-6.5,1.5-9.8,2.3c-0.2,0.1-0.6,0.2-0.6,0.5c0,3.1,0,6.1,0,9.2c0,0.3,0.7,0.2,0.8,0.1
					c3.3-0.8,6.5-1.5,9.8-2.3C118.1,240.4,118,239.8,117.1,240z"/>
			</g>
		</g>
		<g>
			<polygon fill="#E1435F" points="126.9,238 117.2,240.3 117.2,231.1 126.9,228.8 			"/>
			<g>
				<path d="M126.8,237.5c-3.3,0.8-6.5,1.5-9.8,2.3c0.3,0.1,0.6,0.3,0.9,0.4c0-3.1,0-6.1,0-9.2c-0.2,0.2-0.4,0.4-0.6,0.5
					c3.3-0.8,6.5-1.5,9.8-2.3c-0.3-0.1-0.6-0.3-0.9-0.4c0,3.1,0,6.1,0,9.2c0,0.7,1.5,0.5,1.5-0.1c0-3.1,0-6.1,0-9.2
					c0-0.5-0.5-0.5-0.9-0.4c-3.3,0.8-6.5,1.5-9.8,2.3c-0.2,0.1-0.6,0.3-0.6,0.5c0,3.1,0,6.1,0,9.2c0,0.5,0.5,0.5,0.9,0.4
					c3.3-0.8,6.5-1.5,9.8-2.3C128,238.3,127.7,237.3,126.8,237.5z"/>
			</g>
		</g>
		<g>
			<polygon fill="#E1435F" points="141.8,239.8 132,242.1 132,232.9 141.7,230.6 			"/>
			<g>
				<path d="M141.7,239.4c-3.3,0.8-6.5,1.5-9.8,2.3c0.3,0.1,0.6,0.2,0.8,0.3c0-3.1,0-6.1,0-9.2c-0.2,0.2-0.4,0.3-0.6,0.5
					c3.3-0.8,6.5-1.5,9.8-2.3c-0.3-0.1-0.6-0.2-0.8-0.3c0,3.1,0,6.1,0,9.2c0,0.7,1.5,0.4,1.5-0.2c0-3.1,0-6.1,0-9.2
					c0-0.4-0.5-0.4-0.8-0.3c-3.3,0.8-6.5,1.5-9.8,2.3c-0.2,0-0.6,0.2-0.6,0.5c0,3.1,0,6.1,0,9.2c0,0.4,0.5,0.4,0.8,0.3
					c3.3-0.8,6.5-1.5,9.8-2.3C142.8,240,142.5,239.2,141.7,239.4z"/>
			</g>
		</g>
		<g>
			<polygon fill="#E10B31" points="151.5,237.5 141.8,239.8 141.7,230.6 151.5,228.3 			"/>
			<g>
				<path d="M151.4,237.1c-3.3,0.8-6.5,1.5-9.8,2.3c0.3,0.1,0.6,0.2,0.8,0.3c0-3.1,0-6.1,0-9.2c-0.2,0.2-0.4,0.3-0.6,0.5
					c3.3-0.8,6.5-1.5,9.8-2.3c-0.3-0.1-0.6-0.2-0.8-0.3c0,3.1,0,6.1,0,9.2c0,0.6,1.5,0.3,1.5-0.2c0-3.1,0-6.1,0-9.2
					c0-0.4-0.6-0.4-0.8-0.3c-3.3,0.8-6.5,1.5-9.8,2.3c-0.2,0-0.6,0.2-0.6,0.5c0,3.1,0,6.1,0,9.2c0,0.4,0.6,0.4,0.8,0.3
					c3.3-0.8,6.5-1.5,9.8-2.3C152.5,237.7,152.3,236.9,151.4,237.1z"/>
			</g>
		</g>
		<g>
			<polygon fill="#E10B31" points="161.3,235.2 151.5,237.5 151.5,228.3 161.2,226 			"/>
			<g>
				<path d="M161.2,235c-3.3,0.8-6.5,1.5-9.8,2.3c0.3,0,0.5,0,0.8,0c0-3.1,0-6.1,0-9.2c-0.2,0.1-0.4,0.3-0.7,0.4
					c3.3-0.8,6.5-1.5,9.8-2.3c-0.3,0-0.5,0-0.8,0c0,3.1,0,6.1,0,9.2c0,0.2,1.5,0,1.4-0.4c0-3.1,0-6.1,0-9.2c0-0.2-0.7,0-0.8,0
					c-3.3,0.8-6.5,1.5-9.8,2.3c-0.2,0-0.7,0.2-0.7,0.4c0,3.1,0,6.1,0,9.2c0,0.2,0.7,0,0.8,0c3.3-0.8,6.5-1.5,9.8-2.3
					C162.2,235.2,162.1,234.8,161.2,235z"/>
			</g>
		</g>
		<g>
			<polygon fill="#E10B31" points="127,247.2 117.2,249.5 117.2,240.3 126.9,238 			"/>
			<g>
				<path d="M126.8,246.7c-3.3,0.8-6.5,1.5-9.8,2.3c0.3,0.1,0.6,0.3,0.9,0.4c0-3.1,0-6.1,0-9.2c-0.2,0.2-0.4,0.4-0.6,0.6
					c3.3-0.8,6.5-1.5,9.8-2.3c-0.3-0.1-0.6-0.3-0.9-0.4c0,3.1,0,6.1,0,9.2c0,0.8,1.5,0.5,1.5-0.1c0-3.1,0-6.1,0-9.2
					c0-0.5-0.5-0.5-0.9-0.4c-3.3,0.8-6.5,1.5-9.8,2.3c-0.2,0.1-0.6,0.3-0.6,0.6c0,3.1,0,6.1,0,9.2c0,0.5,0.5,0.5,0.9,0.4
					c3.3-0.8,6.5-1.5,9.8-2.3C128,247.5,127.7,246.5,126.8,246.7z"/>
			</g>
		</g>
		<g>
			<polygon fill="#E10B31" points="141.8,249 132.1,251.3 132,242.1 141.8,239.8 			"/>
			<g>
				<path d="M141.7,248.7c-3.3,0.8-6.5,1.5-9.8,2.3c0.3,0,0.5,0.1,0.8,0.1c0-3.1,0-6.1,0-9.2c-0.2,0.2-0.4,0.3-0.7,0.5
					c3.3-0.8,6.5-1.5,9.8-2.3c-0.3,0-0.5-0.1-0.8-0.1c0,3.1,0,6.1,0,9.2c0,0.3,1.5,0.1,1.4-0.4c0-3.1,0-6.1,0-9.2
					c0-0.3-0.7-0.1-0.8-0.1c-3.3,0.8-6.5,1.5-9.8,2.3c-0.2,0-0.7,0.2-0.7,0.5c0,3.1,0,6.1,0,9.2c0,0.3,0.7,0.1,0.8,0.1
					c3.3-0.8,6.5-1.5,9.8-2.3C142.7,249.1,142.6,248.5,141.7,248.7z"/>
			</g>
		</g>
		<g>
			<polygon fill="#E10B31" points="151.6,246.7 141.8,249 141.8,239.8 151.5,237.5 			"/>
			<g>
				<path d="M151.5,246.4c-3.3,0.8-6.5,1.5-9.8,2.3c0.3,0,0.5,0.1,0.8,0.1c0-3.1,0-6.1,0-9.2c-0.2,0.2-0.4,0.3-0.6,0.5
					c3.3-0.8,6.5-1.5,9.8-2.3c-0.3,0-0.5-0.1-0.8-0.1c0,3.1,0,6.1,0,9.2c0,0.3,1.5,0.1,1.4-0.4c0-3.1,0-6.1,0-9.2
					c0-0.3-0.7-0.1-0.8-0.1c-3.3,0.8-6.5,1.5-9.8,2.3c-0.2,0.1-0.6,0.2-0.6,0.5c0,3.1,0,6.1,0,9.2c0,0.3,0.7,0.1,0.8,0.1
					c3.3-0.8,6.5-1.5,9.8-2.3C152.5,246.8,152.3,246.2,151.5,246.4z"/>
			</g>
		</g>
		<g>
			<polygon fill="#E10B31" points="141.8,258.2 132.1,260.5 132.1,251.3 141.8,249 			"/>
			<g>
				<path d="M141.7,257.8c-3.3,0.8-6.5,1.5-9.8,2.3c0.3,0.1,0.5,0.1,0.8,0.2c0-3.1,0-6.1,0-9.2c-0.2,0.2-0.4,0.4-0.6,0.6
					c3.3-0.8,6.5-1.5,9.8-2.3c-0.3-0.1-0.5-0.1-0.8-0.2c0,3.1,0,6.1,0,9.2c0,0.5,1.5,0.2,1.4-0.4c0-3.1,0-6.1,0-9.2
					c0-0.3-0.7-0.2-0.8-0.2c-3.3,0.8-6.5,1.5-9.8,2.3c-0.3,0.1-0.6,0.2-0.6,0.6c0,3.1,0,6.1,0,9.2c0,0.3,0.7,0.2,0.8,0.2
					c3.3-0.8,6.5-1.5,9.8-2.3C142.8,258.4,142.6,257.6,141.7,257.8z"/>
			</g>
		</g>
	</g>
	<g id="hand_1_16_">
		<g>
			<g>
				<path fill="#E10B31" d="M197.1,242.6c-3.2,0-8.2,1.3-10.9,3c-4.5,2.8-7.6,7.3-8.5,12.6c-1.2,7.7-0.8,15.2,5.9,22.1
					c2.8,2.8,6.6,4.3,10.5,5.3c7.2,2,17,1.2,22.9-8.2c3.4-5.5,5.1-13.3,3.2-19.4c-1.9-6.2-3.7-10.1-9-12.3
					C206.6,243.9,202.4,242.6,197.1,242.6z"/>
			</g>
			<g>
				<path fill="#E10B31" d="M177.3,256.5c-3.2-1.1-7.6-2.4-9-1.9c0.6,2.7,1.2,5.5,1.1,8.7c2.7,0.4,4.8,0.7,7.5,1.1
					C176.6,261,176.8,259.7,177.3,256.5z"/>
			</g>
			<g>
				<path fill="#E10B31" d="M198.2,285.7c-0.8,3.5-1.7,7-2.5,10.4l-0.9-0.1c-2.4-0.2-4.8-1-6.8-2.4c0,0,2.7-6.4,3-10L198.2,285.7z"
					/>
			</g>
			<g>
				<path fill="#E10B31" d="M221,266.4c3.4,1.9,10.6,5.9,10.6,5.9c-0.4,2.7-0.6,4.7-1,7.3c0,0-6.3-3.5-11.7-5.3
					C220.3,272.2,220.5,270.3,221,266.4z"/>
			</g>
			<g>
				<path fill="#E10B31" d="M178.9,273.9c-1.6,1.7-5.6,4.2-5.6,4.2c1.6,1.4,2.1,2.7,3.2,4.6l0.1,0c2-0.9,3.8-2.1,5.4-3.6
					C180.7,277.5,179.5,275.7,178.9,273.9z"/>
			</g>
			<g>
				<path fill="#E10B31" d="M213.4,282.3c0.8,1.7,3.2,5.3,3.2,5.3c-1.4,0.9-4.3,3.2-4.3,3.2c-1.3-2-2.4-3.6-3.7-5.6L213.4,282.3z"/>
			</g>
		</g>
		<g>
			<path fill="#FFFFFF" d="M196.1,253.9c-1.7,3.8-2.5,8-2.5,12.1l-7.7,0.9c0-4.6,0.2-11.3,3.8-13.4
				C193.6,253.4,196.1,253.9,196.1,253.9z"/>
		</g>
		<g>
			<g>
				<path d="M178,254.9c-2.2-0.2-4.4-0.4-6.6-0.7c-0.6-0.1-1.2-0.1-1.8-0.2c-0.2,0-1.1-0.1-0.4,0c-0.9-0.1-1.8,0.4-1.8,1.4
					c0,2.8,0,5.6,0.6,8.3c0.1,0.4,0.5,0.9,1,1c2.5,0.4,5,0.8,7.5,1.1c1.8,0.3,2.6-2.5,0.8-2.8c-2.5-0.4-5-0.8-7.5-1.1
					c0.3,0.3,0.7,0.7,1,1c-0.5-2.5-0.5-5-0.5-7.6c-0.6,0.5-1.2,0.9-1.8,1.4c3.2,0.4,6.4,0.8,9.5,1.1
					C179.8,257.9,179.8,255.1,178,254.9L178,254.9z"/>
			</g>
		</g>
		<g>
			<g>
				<path d="M196.3,286.1c-0.5,3.3-1.3,6.5-2.1,9.7c0.5-0.4,0.9-0.7,1.4-1.1c-2.6-0.3-4.7-0.9-6.9-2.3c0.2,0.5,0.4,1.1,0.7,1.6
					c0.5-3,1.5-5.9,2.7-8.8c0.7-1.7-2.1-2.5-2.8-0.8c-1.1,2.8-2.1,5.8-2.7,8.8c-0.1,0.7,0.1,1.2,0.7,1.6c2.6,1.8,5.3,2.3,8.4,2.7
					c0.6,0.1,1.2-0.5,1.4-1.1c0.8-3.2,1.6-6.4,2.1-9.7C199.4,285,196.6,284.2,196.3,286.1L196.3,286.1z"/>
			</g>
		</g>
		<g>
			<g>
				<path d="M219.8,267.7c3.7,2,7.4,3.9,11.1,5.8c-0.2-0.5-0.4-1.1-0.7-1.6c-0.4,2.3-0.8,4.4-1.7,6.6c0.6-0.3,1.2-0.7,1.8-1
					c-3.6-1.4-7.2-2.9-10.7-4.4c-1.7-0.7-3.1,1.7-1.4,2.5c3.8,1.6,7.6,3.2,11.4,4.7c0.8,0.3,1.5-0.3,1.8-1c0.8-2.1,1.3-4.3,1.7-6.6
					c0.1-0.6-0.1-1.3-0.7-1.6c-3.7-1.9-7.5-3.8-11.1-5.8C219.6,264.3,218.1,266.8,219.8,267.7L219.8,267.7z"/>
			</g>
		</g>
		<g>
			<g>
				<path d="M177.9,272.3c-2,1.6-3.6,3.4-5.4,5.2c-0.4,0.4-0.6,1.2-0.2,1.7c1,1.4,2,2.8,3,4.2c0.4,0.6,1.2,0.9,2,0.5
					c1.9-1.1,3.7-2.3,5.4-3.6c1.5-1.1,0-3.6-1.4-2.5c-1.8,1.3-3.5,2.5-5.4,3.6c0.7,0.2,1.3,0.3,2,0.5c-1-1.4-2-2.8-3-4.2
					c-0.1,0.6-0.1,1.2-0.2,1.7c1.8-1.8,3.4-3.7,5.4-5.2C181.4,273.2,179.4,271.1,177.9,272.3L177.9,272.3z"/>
			</g>
		</g>
		<g>
			<g>
				<path d="M212.8,283.2c0.8,1.7,1.7,3.5,2.5,5.2c0.3,0.6,1,0.8,1.6,0.7c0,0,0,0,0,0c-0.4-0.9-0.7-1.7-1.1-2.6
					c-1.6,1.1-3.1,2.2-4.6,3.4c0.8,0.1,1.5,0.2,2.3,0.3c-1.3-2-2.7-4-4-6c-1-1.5-3.5-0.1-2.5,1.4c1.3,2,2.7,4,4,6
					c0.6,0.8,1.5,0.9,2.3,0.3c1.3-1,2.6-2,4-3c1.4-0.9,0.5-3-1.1-2.6c0,0,0,0,0,0c0.5,0.2,1.1,0.4,1.6,0.7c-0.8-1.7-1.7-3.5-2.5-5.2
					C214.5,280,212,281.5,212.8,283.2L212.8,283.2z"/>
			</g>
		</g>
		<g>
			<g>
				<path d="M209.6,246.5c7.8,4.1,10.7,13.7,9.3,22.1c-0.8,4.9-3.2,10.4-7.1,13.6c-5,4-11.1,4.1-16.9,2.4c-9.3-2.7-15.7-10.1-16-20
					c-0.2-4.7,0.5-9.6,3.2-13.5c4.6-6.6,12-7.9,19.4-7c1,0.1,3.1-1.6,3.1-1.6c-10-1.3-21.1,1.5-26.5,10.8
					c-3.1,5.5-3.3,13.8-1.2,19.6c2.5,7,8,11.2,15,13.2c9.3,2.7,19.9,0.1,25.8-7.9c7.4-10,6.9-27.1-4.9-33.4
					C211.9,244.5,209.2,246.3,209.6,246.5L209.6,246.5z"/>
			</g>
		</g>
	</g>
</g>
</svg>
