<svg xmlns="http://www.w3.org/2000/svg" viewBox="0 0 298.58 420.24"><defs><style>.cls-1{fill:#999;}.cls-2{fill:#262626;}.cls-3{fill:gray;}.cls-4{fill:#fff;}.cls-12,.cls-5{fill:#e10b31;}.cls-6{fill:#ccc;}.cls-7{fill:#585858;}.cls-8{fill:#d8d8d8;}.cls-9{fill:#fafafa;}.cls-10{fill:#161616;}.cls-11{fill:#b3b3b3;}.cls-12{stroke:#000;stroke-miterlimit:10;stroke-width:0.74px;}.cls-13{fill:#903;}.cls-14{fill:blue;}.cls-15{fill:#009;}</style></defs><title>robot-executive-meetup</title><g id="Layer_2" data-name="Layer 2"><g id="Long_Page_cz.2" data-name="Long Page cz.2"><path class="cls-1" d="M184.49,268.09c5.39-5.91,13.32-10,15.19-18.42s-2.68-14.17-8.26-20.5c-4.52-5.13-12.24-8.48-17.06-13.95-2.59-2.95-3.94-6.58-2.75-10.75s4.22-6.37,8.66-7a13.93,13.93,0,0,1,4.41.57c.85.2,1.92.07,2.58.6,13.77,11.19,27.18,17.29,30.4,37.15,3.61,22.27-9,35-28.28,45C187.79,276.4,187.17,272.07,184.49,268.09Z"/><path class="cls-2" d="M201.09,247.41c1.57-9.57-3.24-17-8.13-23.25-3.66-4.68-13-10.87-16.92-11.91-8.41-2.23-2.3,2.21-1.34,3.06,6.37,5.66,12.74,9.57,18.58,14.84a27.6,27.6,0,0,1,5.72,7.76C200,239.6,199.57,251.33,201.09,247.41Z"/><path class="cls-3" d="M196.38,257c-4.69,5.9,1.22,11.71-4,16.38-.88.78-1.78,4.26-3.65,4.66a34.56,34.56,0,0,0-4.42-9.53C189.76,265.79,192.58,261.74,196.38,257Z"/><path d="M185.65,198.59c10.51,8.32,22.66,15.69,28,28.62a40.71,40.71,0,0,1,2.69,21.73,33.27,33.27,0,0,1-8.07,16.66c-5.18,5.86-11.85,10.2-18.69,13.88-1.26.68-.14,2.6,1.12,1.92,12-6.45,23.91-15.52,27.29-29.41a42.13,42.13,0,0,0-1-22.13,43.91,43.91,0,0,0-11.46-18.14c-5.6-5.49-12.16-9.84-18.29-14.7-1.11-.87-2.69.69-1.57,1.57Z"/><path d="M179.7,196.27a13.53,13.53,0,0,0-7,3.89,11.19,11.19,0,0,0-2.54,8.1c.51,6.55,6.25,10.72,11.19,14.22a78.32,78.32,0,0,1,7.53,5.66,42.86,42.86,0,0,1,6.45,7.51c3.56,5.18,5.05,11.53,2.13,17.4s-8.58,9.29-12.64,14.08c-.92,1.08.64,2.66,1.57,1.57,3.63-4.29,8.37-7.54,11.59-12.19A18.06,18.06,0,0,0,200.1,240a28.38,28.38,0,0,0-4.46-7.58,42.5,42.5,0,0,0-6.37-6.83c-4.77-3.94-10.76-6.82-14.63-11.76A10.13,10.13,0,0,1,173,203.76c1.25-3.08,4.25-4.56,7.3-5.35a1.11,1.11,0,0,0-.59-2.14Z"/><path d="M183.36,221.16c.79-1.56,1.6-3.11,2.53-4.59a25.06,25.06,0,0,1,2.68-3.61,23,23,0,0,1,8-5.42c1.92-.84.06-4-1.72-3.24a25.42,25.42,0,0,0-8.65,5.85,37.54,37.54,0,0,0-5.73,8.82,2,2,0,0,0,.68,2.42c.63.47,1.83.62,2.25-.23Z"/><path class="cls-4" d="M197.61,212.67a38.58,38.58,0,0,1,12,18.5,36.14,36.14,0,0,1-1.23,22.53A48.32,48.32,0,0,1,200.45,267c-.83,1,2.47,2.56,3.14,1.75,5.65-6.86,9.78-15,10.61-23.9a36.52,36.52,0,0,0-5.14-22.08,43.13,43.13,0,0,0-8.6-10.2,3.54,3.54,0,0,0-2.42-1c-.65,0-1,.54-.43,1.06Z"/><path d="M195.06,231.69A21.74,21.74,0,0,1,210.8,218.8a11.51,11.51,0,0,0-1.2-1.43c-.25-.23-1.09-1.22-1.5-1.11a21.75,21.75,0,0,0-15.73,12.9c-.14.28,1,1.25,1.2,1.42s1.43,1.25,1.49,1.11Z"/><path d="M202.17,242.25a23.76,23.76,0,0,1,6.52-5.12,16.79,16.79,0,0,1,7.53-1.31c.37,0,1.58-.09,1.34-.71s-1.78-.59-2.24-.6a22.52,22.52,0,0,0-9.44,1.61,24.51,24.51,0,0,0-7.25,5.55c-.48.5,1,.84,1.24.87.63.11,1.79.23,2.3-.29Z"/><path d="M197.91,255.16a46.48,46.48,0,0,1,7.91-.22,23.18,23.18,0,0,1,7.53,2.07c1,.44,3.67-1.9,2.75-2.31a24.58,24.58,0,0,0-7.8-2.13,45.18,45.18,0,0,0-8.14.2,3.63,3.63,0,0,0-2.25,1.2c-.25.27-.85,1.26,0,1.19Z"/><path d="M188.3,266a26.12,26.12,0,0,1,11.77,8.51c.5.61,1.64.53,2.33.36.39-.1,1.67-.61,1.16-1.24a30.31,30.31,0,0,0-5.72-5.48,31,31,0,0,0-7.08-3.69,3.16,3.16,0,0,0-2.6.29c-.64.41-.56,1,.14,1.25Z"/><g id="hand_1" data-name="hand 1"><path class="cls-5" d="M197.39,279a25.82,25.82,0,0,1,2.94,11.68,19.33,19.33,0,0,1-7.28,14.53c-6.55,5.21-13.66,8.78-23.61,6.16-4.09-1.08-7.45-3.94-10.46-6.9-5.69-5.6-10.07-15.18-4.47-25.58,3.26-6.06,9.66-11.72,16.38-13.22s11.32-1.88,16.18,1.94A38.69,38.69,0,0,1,197.39,279Z"/><path class="cls-5" d="M194.91,304.71c2.68,2.37,6.22,5.85,6.51,7.39a32.17,32.17,0,0,0-8.64,3.55c-1.78-2.29-3.22-4.1-5-6.4A33.85,33.85,0,0,0,194.91,304.71Z"/><path class="cls-5" d="M156.72,300.64l-8.37,7.85.58.77a14.36,14.36,0,0,0,5.82,5s4.46-5.9,7.7-8.07Z"/><path class="cls-5" d="M162.64,269.28c-3.5-2.17-11.07-6.72-11.07-6.72l-6.29,4.78a87.06,87.06,0,0,1,11.12,8.1C157.62,273.07,159.29,271.83,162.64,269.28Z"/><path class="cls-5" d="M177.81,312.34a49,49,0,0,0-1,7.45c-2.19-.75-3.6-.58-5.93-.52l-.06-.06a22,22,0,0,1,.45-6.92A19.59,19.59,0,0,0,177.81,312.34Z"/><path class="cls-5" d="M151.85,284.79c-2.07.14-6.62-.17-6.62-.17-.12,1.76-.7,5.7-.7,5.7l7.17.52Z"/><path class="cls-4" d="M187.39,285.89a33.21,33.21,0,0,1-9.94,8.75l3.26,7.64c4.33-2.41,10.35-6.11,10.44-10.59A31.42,31.42,0,0,0,187.39,285.89Z"/><path d="M193.71,304.55c1.89,2.69,3.78,5.37,5.77,8l.39-1.52a37.29,37.29,0,0,1-7.39,3.57l1.08.29c-1.66-2.14-3.34-4.26-5-6.4a1.11,1.11,0,0,0-1.57,0,1.15,1.15,0,0,0,0,1.57c1.66,2.14,3.34,4.26,5,6.4a1.08,1.08,0,0,0,1.08.28,40.64,40.64,0,0,0,7.93-3.79,1.11,1.11,0,0,0,.39-1.52c-2-2.61-3.88-5.29-5.76-8a1.14,1.14,0,0,0-1.52-.4,1.12,1.12,0,0,0-.4,1.52Z"/><path d="M155.71,300.52a104.58,104.58,0,0,0-8.14,7.19,1.12,1.12,0,0,0-.18,1.34,29.66,29.66,0,0,0,2.48,3.11,15.34,15.34,0,0,0,4.32,3.08,1.18,1.18,0,0,0,1.34-.17,47.24,47.24,0,0,0,6.76-7.09,1.14,1.14,0,0,0,0-1.57,1.12,1.12,0,0,0-1.57,0A47.24,47.24,0,0,1,154,313.5l1.35-.18a13.64,13.64,0,0,1-3.87-2.73,24.81,24.81,0,0,1-2.13-2.66l-.17,1.35a101.54,101.54,0,0,1,7.69-6.84,1.15,1.15,0,0,0,.4-1.52,1.11,1.11,0,0,0-1.52-.4Z"/><path d="M163.42,268.87c-3.81-2.36-7.55-4.82-11.29-7.27a1.13,1.13,0,0,0-1.35.17,35.85,35.85,0,0,0-5.22,5,1.12,1.12,0,0,0,0,1.57c3.39,2.72,6.8,5.45,10.28,8,1.15.86,2.26-1.07,1.12-1.92-3.33-2.49-6.58-5.09-9.83-7.7v1.57a35.85,35.85,0,0,1,5.22-5l-1.34.17c3.74,2.46,7.48,4.92,11.28,7.28,1.22.75,2.34-1.17,1.13-1.92Z"/><path d="M177.32,311.69a57.27,57.27,0,0,1-2,7.74l1.07-.81-5.5-.52,1.11,1.11a59.26,59.26,0,0,1,.45-6.92,1.11,1.11,0,0,0-1.11-1.11,1.13,1.13,0,0,0-1.11,1.11,59.26,59.26,0,0,0-.45,6.92,1.13,1.13,0,0,0,1.11,1.11l5.5.52a1.12,1.12,0,0,0,1.07-.82,54.46,54.46,0,0,0,2.05-7.74,1.14,1.14,0,0,0-.77-1.36,1.13,1.13,0,0,0-1.37.77Z"/><path d="M151.42,283.12l-6.19.41,1.07.81h0a1.12,1.12,0,0,0-2.19.29c-.07,1.16-.23,2.31-.38,3.46,0,.09-.06.47,0,.2l-.06.42c0,.23-.06.45-.1.68l-.09.64a1.14,1.14,0,0,0,1.07,1.41l7.7.55a1.12,1.12,0,0,0,1.11-1.11,1.14,1.14,0,0,0-1.11-1.12l-7.7-.54,1.07,1.4c.3-2,.6-4,.74-6l-2.19.3h0a1.13,1.13,0,0,0,1.07.82l6.19-.41a1.13,1.13,0,0,0,1.11-1.11,1.12,1.12,0,0,0-1.11-1.11Z"/><path d="M187.12,266.49a17.65,17.65,0,0,0-12.75-2.83,26.34,26.34,0,0,0-13.74,5.79A27.28,27.28,0,0,0,152,281.84a21.5,21.5,0,0,0,.71,14.64,29.86,29.86,0,0,0,8.41,11.15,25.07,25.07,0,0,0,6.23,4.17,22.17,22.17,0,0,0,7.53,1.69,23.8,23.8,0,0,0,13.28-3.24c4.1-2.32,8-5.29,10.22-9.56a22.82,22.82,0,0,0,1.89-15.07c-1-4.65-3.34-8.56-6.18-12.31-1.12-1.47-1.85.21-1,1.32a27.72,27.72,0,0,1,5.05,9,21,21,0,0,1-.36,12.62c-1.52,4.37-4.5,7.35-8.25,9.91a26,26,0,0,1-11.26,4.65,20.68,20.68,0,0,1-13.53-2.71,28.9,28.9,0,0,1-9.11-9.17,18.53,18.53,0,0,1-2.49-12.75A24.19,24.19,0,0,1,160,273.73a24.91,24.91,0,0,1,13.66-7.24,22.7,22.7,0,0,1,6.88-.37,15.21,15.21,0,0,1,6.52,2.61c1.33.89.93-1.7.11-2.24Z"/></g><path class="cls-4" d="M188,186.64S87.16,204.76,60.37,206.34c0,44.13,3.15,88.26,6.9,141.51a429.61,429.61,0,0,0,96.72-22Z"/><path class="cls-6" d="M134.05,319.43c-10.24,7.88-24.31,10.06-30,6.3-9.45-6.3-12.61-11.82-29.16-3.15-11-1.58-11-26-11-26l3.15,44.92c37.83-2.36,68.79-11.8,96.94-21.92l7.09-33.24a112.26,112.26,0,0,1-6.3,12.61C156.9,312.33,146.66,296.57,134.05,319.43Z"/><path class="cls-1" d="M60.76,337.55c-.79-23.64,2.56-58.63,5.53-16.23.31,4.4,2.35,12.29,8.65,13.87,2.37-8.67,4.69-11.37,7.89-11.82,7.65-1.09,14.56-2.9,19.7,0,3.65,2.06,4.73,9.45,11,8.67,13-1.63,21.28-4.73,23.64-7.88,1.58-8.67,3.94-17.34,13.4-17.34,4.86,0,13.9,3.52,14.73-1.28,0,0,10.7-54.06,9.7-42.07l-11,62.26A421,421,0,0,1,67.85,347.8Z"/><path class="cls-3" d="M59.58,206.34C57.21,204,28.84,182.7,28.84,182.7c-.79,11.82,7.1,116.63,12.61,137.12L65.88,347.4Z"/><path class="cls-7" d="M63.12,180.73A22.75,22.75,0,0,0,82,189.39c16.77-.63,50.33-5.17,65.07-8.25,3-.62,4.38-.81,6.51-1.33,4.21-1,10.78,1.66,26.14,6.46-15.9,3.29-43.32,7.14-59.24,9.87-1.52.25-16.52,3-18.65,3.3-12.78,2-38.26,4.52-41.14,4.93-.42-.51-18.54-14.77-26.76-19.7C50.42,183.57,62.19,179.37,63.12,180.73Z"/><g id="HEAD"><path class="cls-3" d="M88.13,171.75a79.67,79.67,0,0,0-6.95,10.45c30.59-6.39,70.53-13,101.27-18l.27,0c1.23-3.69,3.94-6.81,6.1-9.94Z"/><path class="cls-1" d="M70.58,57.86c-1.34,1.56-9.33,20.59-23.74,32.41l3.83,58.39C62.94,157.85,79,179.93,81.1,181.38Z"/><path class="cls-4" d="M189,152.31c-1.78-15.26-3.26-67.71-2.95-83L82.69,72.57l.11,1.14c-1.57,26,4.37,87.68,6.07,97.14l99.54-17.32Z"/><path class="cls-8" d="M80.39,180.52C72.86,128.17,69.12,59.6,71.76,58.36c2.18,3,7.39,9.5,10.93,14.21L87.23,171s-3.88,5.9-6.13,10.37Z"/><polygon class="cls-9" points="167.24 57.87 73.24 58.47 82.66 72.28 184.49 68.85 167.24 57.87"/><path d="M81.69,73.71c.22,25.27,1.38,50.5,3.78,75.65.68,7.17,1.46,14.33,2.29,21.49.17,1.4,2.39,1.42,2.22,0-2.9-24.81-4.86-49.69-5.64-74.66-.23-7.49-.36-15-.43-22.48a1.11,1.11,0,0,0-2.22,0Z"/><path d="M185.31,67.58a182,182,0,0,1-17.2-10.41c-1.18-.82-2.29,1.11-1.12,1.91a180,180,0,0,0,17.2,10.42c1.26.67,2.38-1.25,1.12-1.92Z"/><path d="M70.72,58.85c25,1.25,50,.87,75,.63q10.65-.1,21.3-.19a1.11,1.11,0,0,0,0-2.22c-25.58.18-51.16.68-76.74.2-6.51-.12-13-.32-19.52-.64-1.43-.07-1.43,2.15,0,2.22Z"/><path d="M70.69,58.65a23.45,23.45,0,0,0,4.58,6.91c2.21,2.48,4.5,4.88,6.46,7.57a1.14,1.14,0,0,0,1.52.4A1.12,1.12,0,0,0,83.64,72a90,90,0,0,0-6.38-7.55,22,22,0,0,1-4.43-6.4,1.15,1.15,0,0,0-1.37-.78,1.12,1.12,0,0,0-.77,1.37Z"/><path d="M69.8,57.08a39.16,39.16,0,0,0-2.55,3.7c-1.63,2.47-3.27,4.94-4.94,7.38A235.71,235.71,0,0,1,46.65,88.8a2.53,2.53,0,0,0-.86,2.38L46,94.3l.74,11.26,1.92,29.34.7,10.62c.06.88.11,1.77.17,2.65.12,1.62,1.73,2.54,2.84,3.61,5.7,5.48,11,11.33,16.26,17.26,3.58,4.07,7,8.34,10.76,12.25a8.27,8.27,0,0,0,1.16,1.05c1.15.85,2.26-1.08,1.12-1.92.29.22-.13-.12-.23-.22l-.57-.58c-.56-.58-1.09-1.18-1.62-1.78-1.66-1.87-3.29-3.77-4.93-5.65-4.57-5.27-9.19-10.5-14-15.55-2.87-3-5.8-5.95-8.86-8.76l.33.78-1.3-19.77L48.42,97.52,48,90.27l-.33.79a236.32,236.32,0,0,0,16-20.9c1.78-2.57,3.51-5.17,5.23-7.78l1.68-2.53c.19-.29.39-.58.59-.86a2.66,2.66,0,0,1,.25-.34c.92-1.09-.65-2.67-1.57-1.57Z"/><g id="lips"><path class="cls-6" d="M163.25,144.37c2-2.66,7-8.8,6.41-11.77-.7-3.4-3.76-2.33-5.8-3.17C162.58,134.42,160.94,139.64,163.25,144.37Z"/><path class="cls-10" d="M161.67,129.62c-9.66.24-40.26,4.24-52.85,9.87a3.73,3.73,0,0,0-2.38,2.51,47,47,0,0,0,.59,12.76c.44.17.86.36,1.29.54,18-3,35.46-5.39,53.22-9.88,2.91-5,3.58-9.87,4.18-15.57C160,129.94,171.32,129.38,161.67,129.62Z"/><path d="M163.81,128.43c-18.74,2.07-37.27,5.78-55.64,10-1.39.32-.8,2.47.59,2.15,18.18-4.17,36.51-7.87,55.05-9.92,1.41-.16,1.42-2.38,0-2.22Z"/><path d="M108.32,139.39c-2.86-.75-3.09,2.68-3.16,4.61a53.84,53.84,0,0,0,.57,9.58,3.58,3.58,0,0,0,.52,2,5,5,0,0,0,1.77.83,6.44,6.44,0,0,0,2-.24l2.65-.44,9.57-1.54c12.78-2.07,25.56-4.2,38.14-7.31a4.21,4.21,0,0,0,1.92-.64,7.52,7.52,0,0,0,1.09-2.24c.63-1.43,1.24-2.87,1.75-4.35a22.65,22.65,0,0,0,1.3-9.75c-.15-1.41-2.37-1.42-2.22,0,.57,5.34-1.47,10.24-3.66,15l.66-.51c-17.53,4.41-35.43,6.91-53.24,9.89l.86.11-1.28-.55.51.67a53.36,53.36,0,0,1-.72-6.79c0-.53,0-6.23.34-6.14a1.11,1.11,0,0,0,.59-2.14Z"/></g><path d="M82.69,73.68l10.24-.32,24.74-.79,29.82-.95,25.88-.82,8.49-.27a22.66,22.66,0,0,0,4-.13,1.08,1.08,0,0,1,.18,0L185,69.29c-.2,10.16.1,20.34.36,30.5.33,12.64.76,25.29,1.48,37.92.27,4.87.55,9.75,1.11,14.6.17,1.41,2.39,1.42,2.23,0-1.18-10.09-1.46-20.32-1.87-30.46q-.76-19-1.05-37.94c-.07-4.87-.14-9.75,0-14.62a1.12,1.12,0,0,0-1.11-1.11l-10.25.32-24.74.79-29.82.94-25.88.83c-4.15.13-8.39,0-12.53.39h-.17c-1.43.05-1.44,2.27,0,2.22Z"/><path d="M70,58c-.38,15.34.08,30.71.82,46,.84,17.58,2.13,35.17,4.38,52.63,1,8.09,2.28,16.18,4.13,24.13.33,1.39,2.47.81,2.14-.59C77.92,165,76.33,149.3,75,133.76q-2.25-26.07-2.76-52.25c-.16-7.83-.22-15.66,0-23.49A1.11,1.11,0,0,0,70,58Z"/><path class="cls-11" d="M182.37,163.39c-31.41,5.48-70.68,11.6-101.27,18a63.73,63.73,0,0,1,7.77-10.53l99.87-17.38c-2.17,3.13-4.87,6.25-6.11,9.94Z"/><path d="M182,162c-26.6,4.64-53.28,8.85-79.83,13.79q-10.74,2-21.45,4.21l1.6,2.08a56.53,56.53,0,0,1,6.76-9.36,5.28,5.28,0,0,0,.7-.8c.19-.38-.61.22-.5.26s.26,0,.33,0c1.64-.15,3.31-.58,4.93-.86l22.59-3.93,30.5-5.31,27.55-4.79,9.33-1.63a36.45,36.45,0,0,0,4.4-.76l.2,0-1.59-2.07c-2.31,3.31-4.89,6.42-6.25,10.28l1.36-1-.26,0c-1.81-.16-1.8,2.66,0,2.83l.26,0a1.43,1.43,0,0,0,1.37-1c1.25-3.59,3.81-6.53,6-9.61.77-1.11-.51-2.26-1.6-2.07l-11.38,2-26.72,4.65-30.94,5.38-24,4.18-5.94,1a6,6,0,0,0-.85.14c-.72.25-1.23,1-1.71,1.59-1.13,1.31-2.21,2.67-3.25,4.06a51,51,0,0,0-3.66,5.54,1.43,1.43,0,0,0,1.6,2.07c26.32-5.49,52.88-9.78,79.39-14.25q10.95-1.85,21.88-3.74C184.54,164.44,183.78,161.71,182,162Z"/><path class="cls-6" d="M94.59,102.35c5.21-6.75,13.89-3.25,21.34-1.65,4.82,1,11.18.5,12.48-.68,4.55-5.89,12-2.14,18.64-1.44,5.85.62,13-.36,14.19-1.48,4.33-5.73,12.64-5.23,17.75-1.39s3.75,11.94-.24,16.1c-5.83,5.33-30,1.33-32,3.33-14.28,6.93-24.44.07-31.16,4.52-7.72,6.91-23.82,2.76-25-8.58A11.39,11.39,0,0,1,94.59,102.35Z"/><path d="M130.77,104.7c1.67,5,5.83,9.63,11.59,7.06a7.7,7.7,0,0,0,4.54-11.15c-3.19-3.92-10.05-2.94-14-.28A5.15,5.15,0,0,0,130.77,104.7Z"/><path d="M101,111.69c1.59,5,6.58,5.77,11.41,6,5.77.13,7-5,6.46-8.78-1.07-7.52-8.61-9.7-13.57-7.47C103.66,102.79,99.49,108.07,101,111.69Z"/><path d="M161.15,103.49c3.74,10.15,13,8.83,16.7,1.69,2.12-5-2.54-9.17-8.06-10.18-2.91-.53-5.1.74-7.14,2.91C161.28,99.11,161.08,101.63,161.15,103.49Z"/><g id="eyes"><path class="cls-12" d="M171.2,102.75c1.63,1.37,3.31,2.68,5,4,3.56,2.61.37,8.91-3.24,6.26-2.23-1.64-4.41-3.33-6.52-5.1q-1.68,1.83-3.38,3.65c-3.05,3.3-8.09-1.54-5-4.85l3.24-3.49a68,68,0,0,1-4.87-5.28c-2.83-3.45,1.8-8.68,4.67-5.2A72,72,0,0,0,166,98.06l4.56-4.92c3.06-3.3,8.1,1.55,5,4.85Z"/><path class="cls-12" d="M146.12,99.47c-1.94,1.75-3.8,3.59-5.59,5.5a70.81,70.81,0,0,0,6.37,6c3.45,2.87-1.24,8.05-4.67,5.2a73.54,73.54,0,0,1-6.25-5.84c-.9,1.14-1.77,2.32-2.6,3.52-1.08,1.57-2.85,2.41-4.64,1.44-1.49-.8-2.49-3.26-1.41-4.81,1.29-1.88,2.64-3.69,4-5.45q-2.24-2.79-4.23-5.78c-2.52-3.78,3.29-7.57,5.79-3.8,1,1.45,2,2.86,3,4.22,1.63-1.74,3.32-3.43,5.11-5C144.38,91.64,149.45,96.46,146.12,99.47Z"/><path class="cls-12" d="M116.08,121.82a79.16,79.16,0,0,1-9-6.91,72.4,72.4,0,0,1-5.38,5.42c-3.44,3.12-8.73-1.92-5.26-5.06a73.31,73.31,0,0,0,5.41-5.46A75.17,75.17,0,0,1,95.47,102c-2.74-3.87,3.33-7.82,6-4a68.5,68.5,0,0,0,4.87,6.05,70.45,70.45,0,0,0,5.26-8.49c2.21-4.2,8.54-.69,6.33,3.52a78.93,78.93,0,0,1-6.37,10.14,68.89,68.89,0,0,0,7.85,6C123.34,117.82,120,124.39,116.08,121.82Z"/></g><path class="cls-13" d="M107.91.56A200.78,200.78,0,0,0,93.44,38.87C92.18,43.58,91,48.33,90,53.09c-.32,1.39,1.83,2,2.14.59,3.26-14.28,7.1-28.45,13-41.9,1.49-3.41,3.09-6.77,4.76-10.1.64-1.27-1.27-2.4-1.91-1.12Z"/><path class="cls-5" d="M114.2,1.69l40.32,23.59-52,9.47S103.57,22.57,114.2,1.69Z"/><path d="M115.74,122.34a79.09,79.09,0,0,1-9-7.11h0l.59,0c-1.47,1.68-3,3.3-4.62,4.84a10.52,10.52,0,0,1-1.34,1.15,4.84,4.84,0,0,1-.85.43,6,6,0,0,1-.93.22,4.69,4.69,0,0,1-3.51-1.19,4.17,4.17,0,0,1-1.44-3.49,4.77,4.77,0,0,1,.28-1,4.26,4.26,0,0,1,.51-.85,14.69,14.69,0,0,1,1.24-1.25c1.59-1.52,3.1-3.12,4.55-4.78h0v1c-1.65-1.81-3.22-3.7-4.69-5.66l-1.08-1.48-.53-.76c-.17-.3-.36-.6-.51-.92a3.84,3.84,0,0,1,.75-4.05,4.58,4.58,0,0,1,3.75-1.52,5.1,5.1,0,0,1,1,.22,4.17,4.17,0,0,1,.93.51l.42.32a4.13,4.13,0,0,1,.34.39l.33.39.26.37a64.07,64.07,0,0,0,4.49,5.66h0l-.72,0a69.58,69.58,0,0,0,4.33-7l.48-.92a9.74,9.74,0,0,1,.53-1,3.9,3.9,0,0,1,4.31-1.74,4.64,4.64,0,0,1,2.14,1.14,4.19,4.19,0,0,1,1.13,4.62l-.23.58-.24.47-.48.93-1,1.85a77.67,77.67,0,0,1-4.53,7.11h0l-.15-1.36q1.93,1.77,4,3.39c.68.54,1.38,1.06,2.09,1.58l1.07.75.55.39.61.51a4.51,4.51,0,0,1,1.32,2.86,5.06,5.06,0,0,1-.71,3,4.1,4.1,0,0,1-2.42,1.94A3.81,3.81,0,0,1,115.74,122.34Zm.68-1a2.47,2.47,0,0,0,2,.34,2.77,2.77,0,0,0,1.55-1.36,3.25,3.25,0,0,0-.5-3.94l-.42-.33c-.15-.11-.37-.24-.55-.36l-1.12-.73c-.75-.5-1.48-1-2.21-1.54q-2.17-1.59-4.23-3.33l-.71-.61.57-.75h0a77,77,0,0,0,4.65-6.8l1-1.77.51-.9.25-.45.16-.38a3.34,3.34,0,0,0,.22-.79,3,3,0,0,0-.06-.79,2.62,2.62,0,0,0-.8-1.41,3.07,3.07,0,0,0-1.46-.84,2.54,2.54,0,0,0-2.91,1.08,6.21,6.21,0,0,0-.5.84l-.52.91a71.26,71.26,0,0,1-4.62,7l-.34.45-.38-.41h0a70.47,70.47,0,0,1-4.68-5.65l-.27-.37-.26-.3c-.09-.09-.17-.2-.27-.29l-.31-.22a2.89,2.89,0,0,0-.67-.36,4.6,4.6,0,0,0-.74-.14,3.41,3.41,0,0,0-2.74,1.19,2.52,2.52,0,0,0-.46,2.72c.11.23.26.44.38.67l.53.72,1.1,1.44c1.48,1.89,3.06,3.71,4.71,5.46l.49.51-.48.52h0c-1.52,1.66-3.1,3.25-4.76,4.75-.9.79-1.56,1.36-1.69,2.26a2.92,2.92,0,0,0,1,2.44,3.52,3.52,0,0,0,2.59,1A4.18,4.18,0,0,0,102,119.3c1.64-1.48,3.2-3,4.7-4.67l.28-.31.31.28h0A78.45,78.45,0,0,0,116.42,121.3Z"/><path d="M146.53,99.92c-.9,1-1.81,1.87-2.69,2.82s-1.75,1.92-2.56,2.92v-1.38c1.55,1.72,3.18,3.37,4.89,4.93l1.31,1.17a4.18,4.18,0,0,1,1.19,1.79,3.62,3.62,0,0,1,0,2.16,4.63,4.63,0,0,1-1,1.81,4.33,4.33,0,0,1-3.72,1.42l-.52-.1c-.16,0-.32-.13-.48-.19a3.46,3.46,0,0,1-.87-.52c-.53-.39-.92-.78-1.37-1.18-1.75-1.58-3.42-3.26-5-5h0l.56,0-1.63,2.21-.81,1.11a6.58,6.58,0,0,1-1,1.11,3.79,3.79,0,0,1-2.76,1.09,3.6,3.6,0,0,1-2.64-1.39,4.41,4.41,0,0,1-1-2.8,3.07,3.07,0,0,1,.44-1.49c.27-.41.55-.75.83-1.13l3.35-4.41h0v.37l-3.52-4.64c-.29-.39-.6-.76-.88-1.18-.12-.23-.26-.47-.38-.71s-.16-.52-.22-.79a3.63,3.63,0,0,1,1-3,4.29,4.29,0,0,1,2.84-1.43,3.71,3.71,0,0,1,3,1.2c.37.44.66.83.93,1.21l.85,1.16,1.7,2.33h0l-.85,0c1-1.12,2.06-2.22,3.11-3.31l1.59-1.62a5.85,5.85,0,0,1,1-.81,4.44,4.44,0,0,1,1.27-.53,4.16,4.16,0,0,1,2.68.29,4.86,4.86,0,0,1,2,1.72,3.67,3.67,0,0,1,.62,2.59A4,4,0,0,1,146.53,99.92Zm-.82-.9a2.54,2.54,0,0,0,.85-1.55,2.35,2.35,0,0,0-.53-1.66,3.21,3.21,0,0,0-3.17-1.25,2.82,2.82,0,0,0-.8.31,4.72,4.72,0,0,0-.76.62L139.69,97c-1.08,1-2.17,2-3.3,3l-.51.45-.34-.49h0l-1.69-2.39L133,96.41l-.42-.6c-.14-.19-.27-.33-.4-.5a2.68,2.68,0,0,0-2.18-.93,3.45,3.45,0,0,0-2.23,1.08,2.75,2.75,0,0,0-.76,2.28l.16.61.3.57c.24.39.54.79.81,1.18l3.33,4.73.14.19-.14.18v0l-3.23,4.45c-.26.37-.56.75-.79,1.1a2.29,2.29,0,0,0-.33,1.13,3.66,3.66,0,0,0,.81,2.31,2.86,2.86,0,0,0,2.09,1.11,3.09,3.09,0,0,0,2.23-.89,6.27,6.27,0,0,0,.84-1l.82-1.12,1.64-2.23.25-.34.32.31h0c1.65,1.65,3.37,3.23,5.17,4.71.44.36.91.78,1.34,1.06a2.25,2.25,0,0,0,.65.34,2.79,2.79,0,0,0,.34.12l.35,0a3,3,0,0,0,2.55-1.12,2.39,2.39,0,0,0-.24-3.6L145,110.5c-1.82-1.52-3.57-3.14-5.24-4.83l-.77-.78.76-.61c1.05-.83,2-1.7,3-2.58S144.74,99.91,145.71,99Z"/><path d="M172.11,102.7A49.4,49.4,0,0,1,176.7,106a4.5,4.5,0,0,1,1.79,3.26,5.16,5.16,0,0,1-1,3.51A3.89,3.89,0,0,1,176,114a3.29,3.29,0,0,1-1,.25,3.47,3.47,0,0,1-1.89-.48,6.6,6.6,0,0,1-.73-.49l-1.24-1-5-4,.69,0c-1.18,1.27-2.31,2.52-3.53,3.79a3.56,3.56,0,0,1-2.67,1.11A4,4,0,0,1,158,112a4.32,4.32,0,0,1-1.35-2.52,3.69,3.69,0,0,1,.78-2.78,9.91,9.91,0,0,1,.87-1l.88-1,1.75-1.89,0,.7c-1.55-1.46-3-3-4.45-4.58l-.52-.61c-.18-.22-.36-.49-.53-.74a7.3,7.3,0,0,1-.38-.85,7,7,0,0,1-.19-.91,5,5,0,0,1,1-3.47,3.87,3.87,0,0,1,3.44-1.6c1.47.13,2.43,1.43,3,2.09,1.38,1.56,2.84,3.06,4.35,4.49h0l-1.43,0,4.1-4.4c.18-.18.33-.36.53-.55s.47-.43.72-.62a8.84,8.84,0,0,1,.86-.46,4.74,4.74,0,0,1,1-.24A4.51,4.51,0,0,1,176,92.34a4.6,4.6,0,0,1,1.51,3.36,3.19,3.19,0,0,1-.12,1,3.48,3.48,0,0,1-.34.9,3.54,3.54,0,0,1-.52.78,5.85,5.85,0,0,1-.5.58C174.79,100.24,173.5,101.43,172.11,102.7Zm-1.82.11c1.34-1.67,2.78-3.43,4.28-5.07a4,4,0,0,0,.48-.56,1.69,1.69,0,0,0,.31-.46,1.68,1.68,0,0,0,.18-.5,1.15,1.15,0,0,0,.06-.52,2.69,2.69,0,0,0-.92-2,2.61,2.61,0,0,0-2-.71,4.37,4.37,0,0,0-.49.12c-.16.07-.3.18-.46.25l-.42.37c-.16.16-.33.36-.5.54l-4.08,4.43-.71.78-.72-.74h0Q163.07,96.48,161,94l-.5-.62c-.18-.23-.3-.31-.44-.48a3.63,3.63,0,0,0-.46-.34,3.28,3.28,0,0,0-.5-.17,2.35,2.35,0,0,0-2.06.94,3.58,3.58,0,0,0-.84,2.41c0,.21.07.42.1.63s.15.41.25.61l.36.56.49.61c1.32,1.62,2.73,3.17,4.2,4.67l.34.35-.33.35-1.75,1.89-.87.94a11,11,0,0,0-.82.94,2.7,2.7,0,0,0-.58,2,3.3,3.3,0,0,0,1,1.92,3.09,3.09,0,0,0,2,.87,2.56,2.56,0,0,0,1.94-.84c1.16-1.2,2.33-2.5,3.5-3.74l.3-.33.38.28,5.07,3.83,1.27,1a3.89,3.89,0,0,0,.6.38,1.87,1.87,0,0,0,.58.22,2,2,0,0,0,2.06-.91,3.71,3.71,0,0,0,.63-2.5,2.94,2.94,0,0,0-1.25-2.12C173.87,105.94,172,104.36,170.29,102.81Z"/><path class="cls-3" d="M63.39,147.89c1.33-.74,1-5.94.12-7.63-.58-1.12-4.43-3-4.94.46S61.77,148.8,63.39,147.89Z"/><path class="cls-11" d="M58.31,102.14c-3.69,4.3-12.5,10.22-12.5,10.22,1.56,4.24,3.12,14.1,3.12,20a83.24,83.24,0,0,1,8.59,5.07"/><path d="M57.56,101.39c-3.45,4-8,7.14-12.29,10a1.09,1.09,0,0,0-.49,1.2,49.81,49.81,0,0,1,2.12,9.19,69,69,0,0,1,1,10.53,1.08,1.08,0,0,0,.53.92A56.4,56.4,0,0,1,57,138.35c1.08.83,2.14-1,1.07-1.83a56.4,56.4,0,0,0-8.58-5.07l.52.91a74.3,74.3,0,0,0-1-10.72,51.43,51.43,0,0,0-2.18-9.57l-.49,1.2c4.48-3,9.16-6.3,12.72-10.38.89-1-.6-2.53-1.5-1.5Z"/><path class="cls-9" d="M59,137.43a11,11,0,0,0-4.72-3.65c2.06-3.35,1.14-16.74-2.43-21.16,3.63-3.5,5.29-5.57,7-9.87,1.63,9.08,2.9,22.84,3.92,33.9Z"/><path d="M58.63,103.46l3.07,33.19c.13,1.41,2.35,1.42,2.22,0l-3.06-33.19c-.13-1.41-2.36-1.42-2.23,0Z"/><path d="M50,114.13a37.19,37.19,0,0,1,2.21,15.4c0,1.07,1.61,1.07,1.66,0a38.44,38.44,0,0,0-2.26-15.84c-.38-1-2-.56-1.61.44Z"/></g><g id="body"><path d="M187.38,185.26q-24.31,5-48.8,9.09t-49.3,7.34Q75.39,203.51,61.47,205c-1.41.16-1.43,2.38,0,2.23q24.81-2.73,49.53-6.34t49.23-8.12q13.91-2.55,27.74-5.39c1.4-.29.81-2.43-.59-2.14Z"/><path d="M187.74,186.25c-3.7,19.17-7,38.42-10.31,57.66-3.14,18-6.75,36-9.9,54-1.58,9-3.11,18.11-3.83,27.24-.11,1.43,2.11,1.42,2.22,0,1.28-16.25,4.75-32.34,7.8-48.33,3.57-18.77,6.73-37.61,10-56.43q2.94-16.8,6.15-33.56c.26-1.4-1.88-2-2.15-.59Z"/><path d="M27,182.71q1.46,19.54,3,39.1t3,38.83c.66,8.76,1.59,17.5,2.59,26.23,1.12,9.76,2.23,19.59,4.22,29.22.32,1.59.52,3.54,1.47,4.87,1.88,2.64,4,5.13,6.07,7.58,4.84,5.63,9.83,11.13,14.75,16.69l4.09,4.61c1,1.07,2.51-.51,1.57-1.57L52.37,331c-2.25-2.54-4.49-5.1-6.63-7.74A27.25,27.25,0,0,1,43,319.56a9.46,9.46,0,0,1-.65-2.24c-2.1-9.09-3.12-18.46-4.21-27.71-2.48-20.95-3.89-42-5.52-63-1.13-14.62-2.28-29.25-3.37-43.87-.11-1.42-2.33-1.43-2.22,0Z"/><path d="M66.92,344.08c-.76-11.17-1.36-22.36-2-33.55q-1.18-22.12-2.18-44.26c-.62-13.49-1.2-27-1.64-40.46-.16-4.74-.3-9.49-.38-14.23,0-1.62,0-3.25,0-4.87,0-.81.1-1.45-.58-2-.3-.25-.63-.47-.95-.7-9.29-6.85-18.58-13.73-28-20.43-.85-.6-1.7-1.21-2.56-1.8-1.18-.82-2.29,1.1-1.12,1.91,9.61,6.67,19,13.72,28.4,20.66l3.14,2.31-.55-1c-.09,5.9.13,11.82.32,17.72.3,9.5.68,19,1.08,28.5q.7,16.64,1.52,33.26.78,16,1.65,32c.45,8.21.91,16.42,1.45,24.63l.15,2.3c.1,1.42,2.32,1.43,2.22,0Z"/><path d="M188.56,185.47c-11.32-2.68-22.16-6.95-33.33-10.15a1.11,1.11,0,0,0-.59,2.14c11.17,3.21,22,7.47,33.33,10.16,1.39.33,2-1.82.59-2.15Z"/><path d="M61.15,176.86c-11.19.95-22.28,3.18-33.39,4.76-1.41.21-.81,2.35.59,2.15,10.92-1.55,21.81-3.75,32.8-4.69,1.42-.12,1.43-2.34,0-2.22Z"/><path d="M163.7,324.8a430.76,430.76,0,0,1-74.57,19q-10.89,1.77-21.86,2.95c-1.41.15-1.43,2.37,0,2.22a432.12,432.12,0,0,0,76.21-15.27q10.49-3.1,20.81-6.75c1.34-.47.76-2.61-.59-2.14Z"/></g><g id="leg_1" data-name="leg 1"><path class="cls-2" d="M117.77,354.62c-1.36-10.65-13.86-29.41-15.71-31.39C95.3,316,81,319,79.66,328.06c-2,11.61,3.9,19.5,5.86,28.53Z"/><path class="cls-6" d="M116.37,352.79c-2.32-12.37-11.94-27.38-15.64-30.79-5.12-4.73-18.36-2.3-20.68,6.2,3.87,10.06,7.73,20.11,10.83,27.84Z"/><path d="M118.84,354.33c-.84-6.28-4-12.33-7-17.82a99.44,99.44,0,0,0-8.4-13.35c-3.41-4.4-9.51-5.81-14.78-4.73a14,14,0,0,0-7.41,4c-2.3,2.48-2.87,5.59-3,8.87a35.77,35.77,0,0,0,2.2,13.35c1.39,4.08,3.12,8,4.06,12.26a1.11,1.11,0,0,0,1.07.82l28.2-1.72,4-.25c1.42-.08,1.43-2.31,0-2.22l-28.2,1.72-4,.25,1.07.81c-1.56-7-5.3-13.41-6.06-20.62-.34-3.22-.5-7.29,1.18-10.2A10.5,10.5,0,0,1,87.78,321c4.75-1.48,10.67-.52,13.89,3.54a93.73,93.73,0,0,1,7.47,11.74c3.23,5.74,6.67,12.07,7.56,18.69C116.89,356.33,119,355.73,118.84,354.33Z"/></g><path class="cls-4" d="M103.93,341.59a46.87,46.87,0,0,1-2.66-4.06l-2.38-4c-.81-1.37-1.65-2.76-2.47-4.27a18.69,18.69,0,0,1-2-5.13,2,2,0,0,1,1.53-2.28,1.92,1.92,0,0,1,1.87.68l.13.16,3,3.62a40.73,40.73,0,0,1,3,4.19,22.17,22.17,0,0,1,2.32,4.86,15.31,15.31,0,0,1,.81,5.39,1.7,1.7,0,0,1-1.77,1.62,1.73,1.73,0,0,1-1.27-.66Z"/><g id="foot_1" data-name="foot 1"><path class="cls-9" d="M85.65,344.77s43.67-4.85,61.68-3.06c2.35,3.36,6.32,10.07,8.79,12.39a448.92,448.92,0,0,0-63.44,5.12c-3.16-3.94-6.2-11-7.1-14.18"/><path class="cls-2" d="M92.68,359.22c-3.94,15-4.73,34.68-3.16,57.53-6.3-11.82-8.83-56.55-3.87-72Z"/><path class="cls-6" d="M155.09,413.78q-31.49,2.28-62.91,5.34s-1.58-10.66-2-16.36c-1-15.8.87-38.16,2.47-43.85,4.3-1,44.17-4.74,63.27-4.43-1.1,13.2-2.79,38.62-1.12,57.88"/><path d="M155.09,412.67Q123.6,415,92.18,418l1.07.82A179.43,179.43,0,0,1,91.11,398a219,219,0,0,1,1.11-28.74,61.5,61.5,0,0,1,1.54-10.09L93,360a53.38,53.38,0,0,1,6.07-.84c3.94-.44,7.9-.82,11.86-1.17,10-.89,20-1.62,30-2.07,5-.22,10-.39,15-.31l-1.11-1.11a443.23,443.23,0,0,0-1.78,44.33c.08,4.52.28,9,.66,13.55.12,1.41,2.35,1.42,2.22,0-1.34-15.76-.69-31.71.35-47.47q.33-5.2.77-10.41a1.12,1.12,0,0,0-1.11-1.11c-9.61-.15-19.24.45-28.82,1.1-9.1.62-18.2,1.36-27.27,2.36a64.92,64.92,0,0,0-7.48,1,1.09,1.09,0,0,0-.77.77,56.74,56.74,0,0,0-1.41,8.7c-.52,4.54-.86,9.11-1.09,13.68a168.39,168.39,0,0,0,.66,28.49c.39,3.32.84,6.63,1.33,9.94a1.08,1.08,0,0,0,1.07.81q31.42-3.06,62.91-5.33c1.42-.11,1.43-2.33,0-2.23Z"/><path d="M86.51,347.62a43.63,43.63,0,0,0,3.83,9.24,1.11,1.11,0,0,0,1.92-1.12A41,41,0,0,1,88.65,347a1.11,1.11,0,0,0-2.14.6Z"/><path d="M156.51,352.92a43.29,43.29,0,0,1-4.42-5.41,30.14,30.14,0,0,1-3.69-6.1,1.17,1.17,0,0,0-1.07-.81c-10.34-1-20.81-.56-31.15.1-8.55.53-17.09,1.34-25.59,2.34-1.75.21-3.49.42-5.23.66a1.1,1.1,0,0,0-.78.77,56.15,56.15,0,0,0-2.09,11.87c-.47,5-.59,10.07-.56,15.11a217,217,0,0,0,2.43,31.49,69.76,69.76,0,0,0,2.8,12.46c.48,1.34,2.62.76,2.15-.59a62.61,62.61,0,0,1-2.5-10.56c-.82-4.84-1.38-9.73-1.8-14.62a196.94,196.94,0,0,1-.47-31.29,58.48,58.48,0,0,1,2.18-13.28l-.77.78h0c.28,0,.58-.08.86-.11l3.07-.38c3.45-.42,6.91-.79,10.37-1.13,10.07-1,20.19-1.74,30.32-1.9a153.74,153.74,0,0,1,16.76.5l-1.07-.82a32.28,32.28,0,0,0,3.91,6.63,47.86,47.86,0,0,0,4.77,5.86c1,1,2.57-.55,1.57-1.57Z"/></g><path class="cls-7" d="M40.91,213s8,1.59,8.82,26c.58,18.14-.79,30.74-4.73,26.8s-1.25-32.42-8.9-35.91S40.91,213,40.91,213Z"/><g id="arm_1" data-name="arm 1"><path class="cls-1" d="M31.61,311.32c-3.42-10.06-7.74-21.1-8.64-31.68s1-21.79,7.37-30.29c5.17-6.88,13.13-11.87,16.2-19.92,1.65-4.33,1.6-9.47-.87-13.39s-7.61-6.22-12-4.75l-4.7,2a8.56,8.56,0,0,0-2.23,1.38C12.65,226.83,3.07,241,1,259.4c-2.37,20.65,6.39,43.82,16.47,62A42,42,0,0,1,31.61,311.32Z"/><path class="cls-2" d="M21.37,273.82c-1.42-9.9,1.52-22.25,7.16-30.44,4.21-6.12,17.13-20.15,18-20.1,1.81.13,0,5.15-.5,6.42-3.44,8.47-12.36,13.92-17.32,21.12a28.59,28.59,0,0,0-4.8,11.05c-.33,2.17-.64,4.49-.86,6.42-.16,1.34.76,3.52,0,4.65C23.2,272.74,21.7,276.14,21.37,273.82Z"/><path class="cls-4" d="M31.92,215.42a80.23,80.23,0,0,0-20.45,25.33c-4.59,9-6.29,19.44-6.32,29.45a72.8,72.8,0,0,0,2.14,18,1.11,1.11,0,0,0,2.14-.59,72.84,72.84,0,0,1-.81-31.07,55.73,55.73,0,0,1,4.24-13.61A82.57,82.57,0,0,1,33.49,217c1.11-.9-.47-2.46-1.57-1.57Z"/><path class="cls-3" d="M6.94,298.51C8.7,297.19,12.2,310,19.48,313.25c3,1.31,6.83-1.34,9.31.3C22,315.65,17.4,321.5,17.4,321.5,14.41,315.73,9.24,306,6.94,298.51Z"/><path d="M27,213c-11,9.36-20.1,21.06-24.28,35.07C-2,263.7-.13,280.27,4.78,295.57a145.55,145.55,0,0,0,11.28,25.71c.69,1.25,2.61.13,1.92-1.12C10.16,306,4,290.39,2.5,274.19a65.06,65.06,0,0,1,9.91-41.77,83.27,83.27,0,0,1,16.12-17.81c1.1-.93-.48-2.5-1.57-1.58Z"/><path d="M34,212.36a9.44,9.44,0,0,1,9.22,2.4,12.23,12.23,0,0,1,3.32,10c-.65,7.28-6.31,12.54-11.17,17.41a54.21,54.21,0,0,0-6.89,7.94,37.8,37.8,0,0,0-4.7,9.95,53.47,53.47,0,0,0-1.58,22.4c1.23,9.73,4.37,19,7.52,28.29.45,1.34,2.6.77,2.14-.59-5.45-16-11.26-33.49-5.69-50.29a34.67,34.67,0,0,1,5.46-10.34,92.43,92.43,0,0,1,7.49-8c5-5.08,9.88-11,9.7-18.59a13.76,13.76,0,0,0-4.84-10.5,11.57,11.57,0,0,0-10.57-2.26c-1.36.43-.78,2.57.59,2.14Z"/><path d="M41.49,237.37c-2.93-6.11-8.37-12.33-15.12-14.05a21.42,21.42,0,0,0-10.1,0c-.72.18.53.31.66.32a8.25,8.25,0,0,0,2.53-.06,6.9,6.9,0,0,1,2.38-.31,11.76,11.76,0,0,1,3,.82,19.35,19.35,0,0,1,5.35,3.35,32.13,32.13,0,0,1,6.53,8c.37.62.73,1.25,1,1.9.17.34,1.54.24,1.85.24a9.65,9.65,0,0,0,1.86-.21Z"/><path d="M30.2,250.39c-2.31-5.65-7.15-11.19-13.09-13a16.33,16.33,0,0,0-8.69-.18,1.93,1.93,0,0,0-1.63,2,1.67,1.67,0,0,0,2,1.37A12.78,12.78,0,0,1,20.18,243a20.59,20.59,0,0,1,3.62,3.76c.46.61.89,1.24,1.31,1.88l.1.16.24.4c.16.28.32.56.47.84a17.76,17.76,0,0,1,.88,1.81c.82,2,4.22.54,3.4-1.47Z"/><path d="M24.15,266.63c-2.75-5.05-8-9.13-13.79-9.64A17.27,17.27,0,0,0,2,258.57c-.73.32-1.47,1.19-1.11,2s1.56.8,2.26.49a12,12,0,0,1,10.83.28,18.68,18.68,0,0,1,6,5.53c.08.11.23.34.06.08l.21.32c.1.14.19.29.29.44s.17.28.24.43c.89,1.62,4.25.07,3.37-1.54Z"/><path d="M22.93,284.47c-5.52-3.6-14-6.42-20-2.37-.88.59.87,3.82,1.56,3.35,5.73-3.89,13.83-1.27,19.16,2.21.69.44.63-.62.55-1a3.67,3.67,0,0,0-1.29-2.19Z"/><path d="M29,304.18a22.44,22.44,0,0,0-19,2.62,1,1,0,0,0,0,1.68,2.59,2.59,0,0,0,2.62,0,17,17,0,0,1,10.1-2.95c.36,0,.72,0,1.07.05l.46,0c.58.06-.35,0,.2,0s1.07.14,1.6.25c.36.07.72.16,1.08.25.56.14-.33-.11,0,0a2.46,2.46,0,0,0,2.54-.39c.57-.62.06-1.41-.63-1.63Z"/></g><g id="hand_1-2" data-name="hand 1"><path class="cls-5" d="M31.61,311.32A29.08,29.08,0,0,1,45,309.66a21.73,21.73,0,0,1,15.18,10.12c4.89,8,7.88,16.44,3.59,27.16-1.77,4.4-5.42,7.75-9.14,10.7-7,5.56-18.31,9.1-29.12,1.43-6.3-4.47-11.71-12.38-12.45-20.08s-.53-12.87,4.4-17.75A43.43,43.43,0,0,1,31.61,311.32Z"/><path class="cls-5" d="M59.91,317.64c3-2.66,7.38-6.11,9.14-6.22a36.16,36.16,0,0,0,2.75,10.12c-2.8,1.66-5,3-7.82,4.68A38.4,38.4,0,0,0,59.91,317.64Z"/><path class="cls-5" d="M50.08,359.63,57.67,370l.94-.54a16.2,16.2,0,0,0,6.4-5.78s-6-5.79-7.93-9.7Z"/><path class="cls-5" d="M16,348.68c-2.91,3.6-9,11.41-9,11.41l4.47,7.66A97.61,97.61,0,0,1,22,356.48C19.5,354.8,18.35,352.77,16,348.68Z"/><path class="cls-5" d="M66,337.75a54.58,54.58,0,0,0,8.17,2.12c-1.15,2.34-1.15,3.94-1.41,6.53l-.07.06A24.63,24.63,0,0,1,65.08,345,22.06,22.06,0,0,0,66,337.75Z"/><path class="cls-5" d="M31.75,362.85c-.13,2.32-1.1,7.36-1.1,7.36,1.94.37,6.25,1.56,6.25,1.56.56-2.84,1-5.08,1.57-7.92Z"/><path class="cls-4" d="M37.9,323.41a37.33,37.33,0,0,1,8.37,12.29l9-2.57C53.15,328,49.86,320.75,44.89,320A35.53,35.53,0,0,0,37.9,323.41Z"/><path d="M59.64,318.77c3.25-1.73,6.5-3.47,9.68-5.32l-1.63-.66a43.91,43.91,0,0,1,3,9l.51-1.25c-2.61,1.55-5.21,3.13-7.82,4.68a1.11,1.11,0,0,0,1.12,1.91c2.62-1.55,5.21-3.12,7.82-4.67a1.16,1.16,0,0,0,.51-1.26,43.88,43.88,0,0,0-3-9,1.14,1.14,0,0,0-1.64-.67c-3.18,1.85-6.43,3.59-9.68,5.32-1.27.67-.14,2.59,1.12,1.92Z"/><path d="M50,360.8a118.48,118.48,0,0,0,6.71,9.79,1.14,1.14,0,0,0,1.52.4A31,31,0,0,0,62,368.65a17.5,17.5,0,0,0,4-4.38,1.12,1.12,0,0,0,0-1.12,55.44,55.44,0,0,0-7.13-8.74c-1-1-2.57.54-1.57,1.57a52.89,52.89,0,0,1,6.78,8.29v-1.12a15.15,15.15,0,0,1-3.59,3.9,31.67,31.67,0,0,1-3.35,2l1.52.4c-2.33-3.2-4.71-6.37-6.72-9.79A1.11,1.11,0,0,0,50,360.8Z"/><path d="M15.82,347.73c-3.15,3.91-6.41,7.74-9.66,11.57A1.17,1.17,0,0,0,6,360.65a42,42,0,0,0,5,6.74,1.14,1.14,0,0,0,1.57,0c3.43-3.34,6.86-6.67,10.17-10.12,1-1-.58-2.61-1.57-1.57-3.31,3.45-6.74,6.78-10.17,10.12h1.57a39.41,39.41,0,0,1-4.69-6.29l-.17,1.34c3.25-3.83,6.51-7.66,9.66-11.57.89-1.1-.67-2.68-1.57-1.57Z"/><path d="M65.43,338.12a60.2,60.2,0,0,1,8.07,3.25L73,340.11l-1.33,6.06,1.07-.82a65.44,65.44,0,0,1-7.36-1.41c-1.39-.34-2,1.8-.59,2.14a69.13,69.13,0,0,0,8,1.49,1.11,1.11,0,0,0,1.07-.81l1.34-6.06a1.14,1.14,0,0,0-.51-1.25A65.91,65.91,0,0,0,66,336a1.11,1.11,0,0,0-.59,2.14Z"/><path d="M30,363.25l-.4,6.95.81-1.07h0a1.12,1.12,0,0,0,0,2.14c2.11.41,4.19,1,6.25,1.56a1.13,1.13,0,0,0,1.37-.78l1.68-8.5a1.14,1.14,0,0,0-.78-1.36,1.12,1.12,0,0,0-1.37.77l-1.67,8.5,1.36-.77c-2.06-.57-4.14-1.16-6.25-1.56v2.14h0a1.14,1.14,0,0,0,.82-1.08l.4-6.95a1.11,1.11,0,0,0-1.11-1.11A1.13,1.13,0,0,0,30,363.25Z"/><path d="M16.41,320.37a19.45,19.45,0,0,0-4.8,13.11,30.3,30.3,0,0,0,4.08,16c5.79,9.74,16.69,17,28.33,14.59a30.06,30.06,0,0,0,13.31-6.89A30.5,30.5,0,0,0,63.18,351a23.77,23.77,0,0,0,3.34-8.44,27.18,27.18,0,0,0-1.75-16.07c-2.07-5-4.88-9.86-9.36-13a26.06,26.06,0,0,0-16.34-4.63c-5.31.3-9.95,2.37-14.5,5-1.09.64.86,2.58,1.81,2,3.5-2,7.16-3.94,11.19-4.57a23.82,23.82,0,0,1,13.9,1.86,18.54,18.54,0,0,1,5.66,4,26.77,26.77,0,0,1,4,6.13,28,28,0,0,1,3.49,14.23,23.07,23.07,0,0,1-6.17,14.84,34,34,0,0,1-11.68,8.28,21.7,21.7,0,0,1-14.58.78A26.16,26.16,0,0,1,19.51,352a25.88,25.88,0,0,1-5.46-16.17,22.21,22.21,0,0,1,.75-7.17,17.85,17.85,0,0,1,3.78-6.51c.75-.86-1.4-2.62-2.17-1.73Z"/></g><path d="M106.3,327.4c-6.08-3-14.77-4.33-20.49,0a16.25,16.25,0,0,0-5.37,8.51c-.36,1.19.35,2.69,0,3.86,1.64-5.5,5.3-9.92,11.14-11a24.39,24.39,0,0,1,12.13,1.39,25.44,25.44,0,0,1,2.59,1,12.57,12.57,0,0,1,0-1.93c0-.21.16-1.85,0-1.93Z"/><path d="M111.72,337.53c-6.86-2.63-16-3.58-22.54.26a16,16,0,0,0-6.42,7.51,5.73,5.73,0,0,0,0,1.85,6.05,6.05,0,0,1,0,1.85,16.23,16.23,0,0,1,12.84-9.7,32.81,32.81,0,0,1,13.29,1.05,28.12,28.12,0,0,1,2.83.89,14.52,14.52,0,0,1,0-1.86,8.13,8.13,0,0,0,0-1.85Z"/><g id="leg_2" data-name="leg 2"><path class="cls-2" d="M234.92,343.46s-7.49,12.36-9.37,21.49c-4.35-2.83-40.57-24.26-75.17-34.58-5.52-1.46-12.11-6.84-5.37-16.54,7.22-10.38,32.38.88,32.38.88S229.69,336,234.92,343.46Z"/><path class="cls-1" d="M142.8,322c1.95,10.8,25.16,4.8,75.41,31.76,7.92,4.25,7.92,5.47,15.25-5a14.76,14.76,0,0,0,2.12-4.45,7.69,7.69,0,0,0-1.13-1.24c-5.7-3.65-18.38-11.26-24.86-14.59-14.73-7-32.21-13.8-32.21-13.8s-.75-.34-2-.84c-3.92-1.34-7.75-2.51-11.39-3.48-7.2-1.53-14.23-3.33-18.93,3.44C142.68,317.19,142.47,318.76,142.8,322Z"/><path class="cls-6" d="M143,318c-.86,10.52,38.05,10.18,80.22,33.82,2.34,1.31,8.36.39,9.57-2,1.46-2.89,2.75-5.47,2.75-5.47a7.69,7.69,0,0,0-1.13-1.24c-5.7-3.65-18.38-11.26-24.86-14.59-14.73-7-32.21-13.8-32.21-13.8s-.75-.34-2-.84c-3.92-1.34-7.75-2.51-11.39-3.48-7.2-1.53-15.31-1.76-18.93,3.44A9.24,9.24,0,0,0,143,318Z"/><path d="M234.53,341.72A275,275,0,0,0,193.3,320c-7-3-14.15-5.85-21.41-8.26-3.21-1.06-6.44-2-9.71-2.89-2.87-.75-5.73-1.57-8.72-1.2a13.82,13.82,0,0,0-8.44,4,15.14,15.14,0,0,0-3.7,9.27c-.17,4.49,2.79,8,6.74,9.74,3,1.32,6.15,2.19,9.22,3.22,4.31,1.45,8.61,2.88,12.9,4.37a151.59,151.59,0,0,1,16.14,6.38,317.6,317.6,0,0,1,30.91,16.6c.84.53,1.68,1.07,2.5,1.64,1.18.81,2.29-1.11,1.12-1.92a145.24,145.24,0,0,0-12.72-7.55q-7.9-4.33-16-8.36c-3.72-1.86-7.45-3.79-11.32-5.3-8-3.13-16.3-5.75-24.47-8.5a62.23,62.23,0,0,1-7.81-2.78,9.48,9.48,0,0,1-4-3.41,8.56,8.56,0,0,1-.43-7.22c1.11-3.41,3.11-6,6.54-7.22a14.17,14.17,0,0,1,8.5-.18c3,.71,6,1.55,8.94,2.47,6.94,2.16,13.75,4.73,20.45,7.53a287.46,287.46,0,0,1,40.55,20.58c1.44.89,2.87,1.79,4.29,2.72,1.2.79,2.31-1.14,1.12-1.92Z"/><path class="cls-4" d="M223.16,348.64a92.76,92.76,0,0,0-10.29-6.25c-5.07-2.76-10.24-5.35-15.45-7.83A284.79,284.79,0,0,0,163,320.31c-4.37-1.42-9.05-2.93-13.69-3-2,0-.22,4.29,1.6,4.31a22.88,22.88,0,0,1,4.72.63c2.2.47,4.37,1.08,6.52,1.74,5.44,1.69,10.77,3.73,16,5.88a356.07,356.07,0,0,1,32.7,15.32c2.33,1.24,4.64,2.51,6.91,3.85.89.52,1.77,1.05,2.63,1.61l1.17.76.47.32c.11.08.72.52.21.14.71.52,1.69.86,2.07-.2a3.24,3.24,0,0,0-1.16-3.05Z"/></g><path d="M174.28,337.68a17.93,17.93,0,0,1,.7-5.19,16.85,16.85,0,0,1,5.32-9.15,14.12,14.12,0,0,1,7-2.93c1.61-.23.11-3.58-1.29-3.38a15.23,15.23,0,0,0-11.08,7.19,24.14,24.14,0,0,0-3.12,9.82,17.12,17.12,0,0,0-.14,2.15,2.7,2.7,0,0,0,1.31,2.26.84.84,0,0,0,1.34-.77Z"/><path d="M191.7,343.74c-.1.67,0,.19,0-.06s.15-.74.23-1.11a33.91,33.91,0,0,1,1-3.57,22.67,22.67,0,0,1,5.09-8.71,11.74,11.74,0,0,1,5.28-3.15c.74-.22,1.55-1.13,1.24-1.94s-1.48-.83-2.22-.61c-7.71,2.26-12,10.11-13.81,17.44a23,23,0,0,0-.46,2.31c-.14.92,1.16,1.22,1.8,1.11a2,2,0,0,0,1.79-1.71Z"/><path d="M206.54,354.21h0c.2.15.69.3.93.12.4-.28.42-.62.49-1.05s-.07.38,0,0l.09-.49a24.16,24.16,0,0,1,.86-3A20.88,20.88,0,0,1,221.1,337c1.35-.56-.28-3.88-1.69-3.3a23.14,23.14,0,0,0-13.63,16c-.1.4-.19.81-.26,1.22l-.12.67c.13-.73.06-.28,0-.2-.13.29.88-.79.36-.42l.94.13h0a.84.84,0,0,0-1.37.71,2.82,2.82,0,0,0,1.19,2.33Z"/><path d="M171.33,311.58c-3-.39-6.14,1.11-8.41,3a17.38,17.38,0,0,0-5.7,10.1,25.26,25.26,0,0,0,.07,9c.23,1.33,3.1.91,2.87-.42-.93-5.28-.44-10.95,2.87-15.36a12.42,12.42,0,0,1,4.07-3.52,8.47,8.47,0,0,1,1.06-.46c.33-.11.7-.22.84-.25a4.1,4.1,0,0,1,1.84-.07,1.6,1.6,0,0,0,1.67-.95c.16-.73-.63-1-1.18-1.08Z"/><g id="foot_2" data-name="foot 2"><path class="cls-6" d="M262.39,310c-17.33,18.81-29.78,32.38-39.13,56.19,0,0,15.16,5.35,24.74,10.7,7.47-13.26,25.37-37.65,40.91-46.69Z"/><path class="cls-4" d="M289.58,331C275.42,341,266,351.55,251.46,375c0,0,7.24-6.13,13.26-9.25a106.37,106.37,0,0,1,32.11-35.21Z"/><path d="M288.69,329.64c-13.18,9-23.76,21.18-32.35,34.54-2.22,3.44-4.3,7-6.29,10.54-.69,1.25,1.23,2.38,1.92,1.12,7.25-13.06,15.93-25.46,27-35.62a96.56,96.56,0,0,1,10.88-8.66c1.17-.8.06-2.73-1.12-1.92Z"/><path d="M261.83,307.6a172.2,172.2,0,0,0-33.2,44,156.47,156.47,0,0,0-7,15.31,1.13,1.13,0,0,0,.78,1.37c8.61,3,17.3,5.82,25.74,9.25,1.33.54,1.9-1.61.59-2.14-8.44-3.43-17.13-6.29-25.74-9.26l.78,1.37a164.44,164.44,0,0,1,29.71-48q4.74-5.38,9.91-10.35c1-1-.54-2.56-1.57-1.57Z"/></g><path d="M294.93,330.53c-5.7,4.3-10.72,9.7-15.55,14.92-3.23,3.49-6.35,7.09-9.29,10.84-1.41,1.8-2.79,3.64-4.09,5.53-.55.8-1.09,1.61-1.61,2.43s-.82.92-1.77,1.52c-4.55,2.9-8.62,6.69-12.62,10.29-1.06,1,.51,2.52,1.57,1.57a114.35,114.35,0,0,1,11.34-9.39q1-.66,2-1.23a5.53,5.53,0,0,0,1.76-2.17c1.22-1.89,2.53-3.72,3.88-5.51a179.71,179.71,0,0,1,18.15-20.25,78.5,78.5,0,0,1,7.37-6.63c1.13-.85,0-2.78-1.12-1.92Z"/><path class="cls-4" d="M288.66,330.19c-9.05-7-17.57-14.33-26-21.91l.62-.86c3.7-.65,10.52.86,10.52.86,8.62,5.27,19.28,15.49,23.32,21-3.26.2-6.17.37-8.43.72Z"/><path d="M297.41,328.39c-2.91.18-5.84.32-8.72.77a1.11,1.11,0,0,0-.78,1.36,1.14,1.14,0,0,0,1.37.78c1.07-.16,2.39-.29,3.61-.38,1.51-.12,3-.21,4.52-.31a1.11,1.11,0,0,0,0-2.22Z"/><path d="M298.37,328.94a83.86,83.86,0,0,0-12.31-12.75,99.61,99.61,0,0,0-8-6.35,16.67,16.67,0,0,0-3.7-2.38,12.27,12.27,0,0,0-1.9-.37,28.2,28.2,0,0,0-9.2-.5c-1.41.23-.81,2.37.59,2.14,3-.47,6.3.14,9.25.73A8.17,8.17,0,0,1,275.9,311c1.7,1.16,3.35,2.4,5,3.69,5.61,4.51,11.28,9.55,15.59,15.35.84,1.14,2.77,0,1.92-1.12Z"/><path d="M289.55,329.48c-8.91-6.88-17.43-14.24-25.82-21.74-1.06-.95-2.64.62-1.57,1.57,8.53,7.63,17.21,15.09,26.27,22.09,1.13.87,2.24-1.06,1.12-1.92Z"/><path class="cls-6" d="M163.6,268.07c6.93-19.91,14.43-67.9,14.58-71.58.07-1.66,5.77-6.44,5.73-5-.27,11-15.51,95.24-20,97.95-.73.43-1.36-8.59-1.57-9.81A22.31,22.31,0,0,1,163.6,268.07Z"/><path class="cls-11" d="M91.65,215.3c.12-1.73,3.29,7.4.77,11.6-2.32,3.86-13.92,3.86-17,.77a106.59,106.59,0,0,0,10.83-.77C91.65,226.12,90.88,226.12,91.65,215.3Z"/><path d="M89.91,225.17a43.3,43.3,0,0,1-12.4,1.63.84.84,0,0,0,0,1.67,44.56,44.56,0,0,0,12.84-1.7.83.83,0,0,0-.44-1.6Z"/><path d="M75.06,214.38a104.11,104.11,0,0,0,15.47-2.51l-1-.58a41.2,41.2,0,0,1,1,6.54,24.14,24.14,0,0,1-.23,7.2c-.24,1,1.37,1.49,1.6.44a25.1,25.1,0,0,0,.29-7.64,44.42,44.42,0,0,0-1.07-7,.86.86,0,0,0-1-.59,102.15,102.15,0,0,1-15,2.46c-1.07.06-1.08,1.73,0,1.66Z"/><path d="M73.69,214.64a26.57,26.57,0,0,1,.9,13.67c-.21,1.05,1.4,1.5,1.61.44a28.43,28.43,0,0,0-.9-14.55c-.34-1-2-.58-1.61.44Z"/><path class="cls-5" d="M82.67,216c4.7-1.09,6.07,3,5.28,4.54a4.31,4.31,0,0,1-3.55,2.7,4.58,4.58,0,0,1-4.53-2.15C79,219.52,80.07,216.58,82.67,216Z"/><path d="M82.81,216.52a4,4,0,0,1,4,.91,3,3,0,0,1,.71,1.35,2.5,2.5,0,0,1,0,1.24s-.1.29-.05.18a6,6,0,0,1-.3.56,4.82,4.82,0,0,1-.82,1,3.73,3.73,0,0,1-2.2.89,4.37,4.37,0,0,1-2.7-.69,2.79,2.79,0,0,1-1.32-1.86,3.47,3.47,0,0,1,2.66-3.62.56.56,0,0,0-.29-1.08,4.65,4.65,0,0,0-3.49,4.2c-.12,2.19,2,3.8,4,4.1a4.87,4.87,0,0,0,5.39-2.83,3.78,3.78,0,0,0-.38-3.74c-1.23-1.83-3.44-2.18-5.47-1.73C81.82,215.6,82.12,216.67,82.81,216.52Z"/><path d="M84.71,218.71l-.06-.15c0,.08,0,0,0,0l-.13-.31-.18-.52c-.1-.32-.19-.65-.26-1-.16-.69-.26-1.39-.41-2.08a.84.84,0,0,0-1-.59.86.86,0,0,0-.59,1c.15.71.26,1.43.42,2.14a13.64,13.64,0,0,0,.8,2.33.83.83,0,0,0,1.14.29.85.85,0,0,0,.3-1.14Z"/><path class="cls-11" d="M117.5,201.08s8,15.57,6.7,21.75-12.26,22.81-9.15,31c3.92,10.3,9.4,37.34,12.55,36.06s11.26-34,11.26-34l-2.09-51.5S122.72,195.76,117.5,201.08Z"/><path class="cls-14" d="M117.5,201.08s6.32,10.83,14.66,17.19,24.31-23.73,18.57-25.14S122.48,191,117.5,201.08Z"/><path d="M116.28,201.79a77.58,77.58,0,0,0,10,13.14,27,27,0,0,0,5.68,4.93c5.48,3.06,11.21-3.88,14-7.69a47.32,47.32,0,0,0,5.13-8.85c1.08-2.45,2.23-5.21,2.21-7.93a4.1,4.1,0,0,0-.89-2.79,4.14,4.14,0,0,0-2.58-1.08,52.58,52.58,0,0,0-10.11-.6A47,47,0,0,0,126,193.06c-3.88,1.32-7.79,3.51-9.71,7.31-.82,1.61,1.62,3,2.44,1.42,1.46-2.88,4.32-4.64,7.27-5.73a39.33,39.33,0,0,1,11.06-2.18,59,59,0,0,1,9.95.1c1.1.1,2.07.27,3.18.47a2,2,0,0,0,.26.07c.26,0-.21,0-.08,0s-.07-.13.06.05c-.27-.38,0,0,.05.14-.1-.45,0,.21.05.3-.05-.4,0,.2,0,.3s0,.42,0,.63a8.22,8.22,0,0,1-.2,1.24,23.78,23.78,0,0,1-1.14,3.62,44.45,44.45,0,0,1-4.25,8,31.55,31.55,0,0,1-5.82,6.85,11.7,11.7,0,0,1-2.68,1.71,4.79,4.79,0,0,1-.73.24c-.1,0-.67.13-.49.11a2.76,2.76,0,0,1-1.2-.07c-1.47-.38-3.36-2.41-4.61-3.63a62,62,0,0,1-5.6-6.29,67.18,67.18,0,0,1-5.08-7.35A1.41,1.41,0,0,0,116.28,201.79Z"/><path class="cls-14" d="M138.64,217.75s14.43,28.49,10.63,36.95-21.67,35.17-21.67,35.17a61.46,61.46,0,0,0-7.71-30.77c-2.73-5,12.27-40.83,12.27-40.83Z"/><path d="M137.42,218.46c1.66,3.28,3.18,6.65,4.61,10,2.54,6,5,12.23,6.1,18.66.38,2.2.69,4.69,0,6.76a45.09,45.09,0,0,1-3.29,6.21c-3.45,6-7.15,11.78-10.89,17.57q-3.72,5.76-7.52,11.47l2.63.71a50.34,50.34,0,0,0-1.27-13.4,65.76,65.76,0,0,0-4.2-13.12c-.51-1.16-1.05-2.31-1.63-3.44-.26-.52-.57-1-.82-1.55.08.17,0,.18,0-.08,0-.11,0-.23-.08-.35s0,.21,0-.15a10.27,10.27,0,0,1,0-1.11c.22-4.31,1.9-9.08,3.27-13.33,1.73-5.3,3.66-10.54,5.68-15.74,1.16-3,2.34-6,3.58-8.95l-1.36,1,6.48-.52c1.8-.14,1.82-3,0-2.83l-6.48.53a1.48,1.48,0,0,0-1.36,1c-3.16,7.56-6.1,15.23-8.7,23a76.45,76.45,0,0,0-3.81,14.46,7.86,7.86,0,0,0,.33,4.38c1.08,2.28,2.29,4.47,3.22,6.83a66.91,66.91,0,0,1,2.21,6.63,51.24,51.24,0,0,1,2.13,16.69c-.1,1.5,1.92,1.79,2.64.72,6.09-9.11,12.1-18.3,17.65-27.75,1.35-2.29,2.71-4.61,3.84-7a13,13,0,0,0,.89-7c-.71-6.57-3.13-12.95-5.6-19-1.75-4.32-3.64-8.6-5.74-12.76C139,215.41,136.6,216.84,137.42,218.46Z"/><path class="cls-15" d="M138.64,217.75a5.31,5.31,0,0,0-1.75.52c1,3.34,7.36,22,7.46,28.61.16,10.27-9,31.24-7.18,28.33s9.74-18.23,12.1-20.51C153.25,250.85,141.34,221.93,138.64,217.75Z"/><path d="M137.42,218.46c1.66,3.28,3.18,6.65,4.61,10,2.54,6,5,12.23,6.1,18.66.38,2.2.69,4.69,0,6.76a45.09,45.09,0,0,1-3.29,6.21c-3.45,6-7.15,11.78-10.89,17.57q-3.72,5.76-7.52,11.47l2.63.71a50.34,50.34,0,0,0-1.27-13.4,65.76,65.76,0,0,0-4.2-13.12c-.51-1.16-1.05-2.31-1.63-3.44-.26-.52-.57-1-.82-1.55.08.17,0,.18,0-.08,0-.11,0-.23-.08-.35s0,.21,0-.15a10.27,10.27,0,0,1,0-1.11c.22-4.31,1.9-9.08,3.27-13.33,1.73-5.3,3.66-10.54,5.68-15.74,1.16-3,2.34-6,3.58-8.95l-1.36,1,6.48-.52c1.8-.14,1.82-3,0-2.83l-6.48.53a1.48,1.48,0,0,0-1.36,1c-3.16,7.56-6.1,15.23-8.7,23a76.45,76.45,0,0,0-3.81,14.46,7.86,7.86,0,0,0,.33,4.38c1.08,2.28,2.29,4.47,3.22,6.83a66.91,66.91,0,0,1,2.21,6.63,51.24,51.24,0,0,1,2.13,16.69c-.1,1.5,1.92,1.79,2.64.72,6.09-9.11,12.1-18.3,17.65-27.75,1.35-2.29,2.71-4.61,3.84-7a13,13,0,0,0,.89-7c-.71-6.57-3.13-12.95-5.6-19-1.75-4.32-3.64-8.6-5.74-12.76C139,215.41,136.6,216.84,137.42,218.46Z"/><path d="M140.5,200.48a23.87,23.87,0,0,0-2.07,7.67c-.09,1.37-.06,2.76-.06,4.14,0,2.13-.07,4.28,0,6.4a7.63,7.63,0,0,0,.23,1.64,2.6,2.6,0,0,0,.21.59,6.79,6.79,0,0,1,0-1.38c0-1.11,0-2.22,0-3.33s0-2.22,0-3.33a4,4,0,0,0,0-1.38,4.8,4.8,0,0,1-.42-1.86v.16c0-.16,0-.75,0-.1v8.05a1.27,1.27,0,0,1,0-.2c0-.11,0-.21,0-.32l0,.17a24,24,0,0,1,2.06-7.5,5.4,5.4,0,0,0,0-1.38c0-1.11,0-2.22,0-3.33s0-2.22,0-3.33v-.73c0-.22,0-.43,0-.65Z"/><path class="cls-4" d="M75.79,241.34,75.57,257c11.38-.9,22.8-2.08,33.57-6.28l.64-15.3C101.32,239.2,88.88,240.7,75.79,241.34Z"/><path d="M74.73,241.34,74.51,257A1.07,1.07,0,0,0,75.57,258c11.47-.91,23-2.15,33.85-6.31a1.11,1.11,0,0,0,.78-1l.64-15.3a1.07,1.07,0,0,0-1.59-.92,60.14,60.14,0,0,1-15,4.07,167.61,167.61,0,0,1-18.45,1.75c-1.35.07-1.36,2.19,0,2.12a172.93,172.93,0,0,0,19-1.82,62.31,62.31,0,0,0,15.52-4.29l-1.6-.91-.64,15.3.78-1c-10.65,4.1-22,5.34-33.29,6.24L76.63,257l.22-15.62A1.06,1.06,0,0,0,74.73,241.34Z"/><path class="cls-13" d="M81.35,240.79S97,225.4,96.89,219.8s9.1,14.84,9.24,16.22S86.64,241.23,81.35,240.79Z"/><path d="M82.1,241.54a127.4,127.4,0,0,0,9-9.84,48.83,48.83,0,0,0,5.35-7.46,12.08,12.08,0,0,0,1.32-3.2,6.9,6.9,0,0,0,.14-1.36c0-.25-.06-.24,0-.19s0-.13,0-.13-.31.44-.53.5c.38-.1-.76.08-.58-.05s0,.17,0,0,.12.1.2.19a7.11,7.11,0,0,1,.6.81c.62.93,1.16,1.9,1.69,2.88,1.31,2.43,2.51,4.93,3.65,7.45.45,1,.9,2,1.31,3a13.78,13.78,0,0,0,.72,1.92c.13.19-.13,1,.13-.51,0-.14.25-.17.13-.15a5.08,5.08,0,0,0-.85.4,31.46,31.46,0,0,1-3.22,1c-3.53.9-7.13,1.57-10.74,2.13a40.29,40.29,0,0,1-9.16.8c-1.36-.1-1.35,2,0,2.12a40.44,40.44,0,0,0,8.64-.71c3.59-.52,7.16-1.18,10.69-2,1.3-.31,2.59-.63,3.85-1.06a5.57,5.57,0,0,0,2.23-1.07c1.09-1.12-.39-3.44-.87-4.55-1.13-2.67-2.36-5.3-3.67-7.88a26.31,26.31,0,0,0-3.57-6,1.7,1.7,0,0,0-2.06-.65c-.8.45-.69,1.35-.76,2.12-.22,2.5-2.27,5-3.71,7A110,110,0,0,1,80.6,240C79.63,241,81.13,242.49,82.1,241.54Z"/></g></g></svg>