<svg id="Warstwa_1" data-name="Warstwa 1" xmlns="http://www.w3.org/2000/svg" xmlns:xlink="http://www.w3.org/1999/xlink" viewBox="0 0 267.73 234.33"><defs><clipPath id="clip-path" transform="translate(-839.61 -550.69)"><rect x="914.36" y="590.38" width="103.89" height="144.68" fill="none"/></clipPath></defs><title>robot</title><path d="M1023.39,717.07H909.71V603.39h113.68V717.07Zm-112.68-1h111.68V604.39H910.71V716.07Z" transform="translate(-839.61 -550.69)" fill="#47FF3F"/><polygon points="220.2 148.56 220.16 148.56 217.74 150 217.31 148.56 220.34 146.76 221.98 146.69 222.61 160.9 220.75 160.98 220.2 148.56" fill="#47FF3F"/><polygon points="79.61 21.73 78.69 21.7 82.82 11.93 83.75 11.96 79.61 21.73" fill="#0f8f68"/><polygon points="84.28 21.88 83.37 21.85 87.5 12.08 88.43 12.11 84.28 21.88" fill="#0f8f68"/><polygon points="166.82 223.53 165.91 223.5 170.04 213.73 170.97 213.76 166.82 223.53" fill="#184b3b"/><polygon points="171.5 223.68 170.59 223.65 174.72 213.88 175.65 213.91 171.5 223.68" fill="#184b3b"/><polygon points="20.12 50.08 19.2 50.05 23.34 40.28 24.27 40.31 20.12 50.08" fill="#184b3b"/><polygon points="24.8 50.23 23.89 50.2 28.02 40.43 28.95 40.46 24.8 50.23" fill="#184b3b"/><path d="M1009.82,593.05v-1.18l1.5-1.48c3.61-3.48,5.24-5.33,5.24-7.48a2.54,2.54,0,0,0-2.84-2.76,4.85,4.85,0,0,0-3,1.22l-0.62-1.35a6.25,6.25,0,0,1,4-1.47,4,4,0,0,1,4.38,4.1c0,2.63-1.87,4.76-4.85,7.67l-1.13,1.06v0l6.39,0V593Z" transform="translate(-839.61 -550.69)" fill="#47FF3F"/><path d="M904.2,754.16a4.06,4.06,0,0,1,2.8-3.83l0-.07a3.52,3.52,0,0,1-2.28-3.18c0-2.25,1.88-3.8,4.37-3.82,2.76,0,4.15,1.7,4.16,3.47a3.61,3.61,0,0,1-2.32,3.34v0.07a3.94,3.94,0,0,1,2.89,3.66c0,2.47-2.09,4.15-4.81,4.17-3,0-4.78-1.74-4.8-3.82m7.66-.14c0-1.73-1.22-2.55-3.15-3.09a3.09,3.09,0,0,0-2.54,3,2.63,2.63,0,0,0,2.86,2.69,2.57,2.57,0,0,0,2.83-2.56m-5.34-7.08c0,1.42,1.09,2.18,2.73,2.61a2.8,2.8,0,0,0,2.15-2.6,2.21,2.21,0,0,0-2.42-2.3,2.26,2.26,0,0,0-2.46,2.29" transform="translate(-839.61 -550.69)" fill="#47FF3F"/><path d="M868.47,708.37c-1.47,0-3,.31-3,1.74a1.23,1.23,0,0,0,1.32,1.33,1.91,1.91,0,0,0,1.85-1.29,1.47,1.47,0,0,0,.08-0.44v-1.33h-0.2m-2.09,4.09a2.18,2.18,0,0,1-2.35-2.2c0-1.84,1.63-2.86,4.56-2.86h0v-0.16a1.58,1.58,0,0,0-1.75-1.77,3.83,3.83,0,0,0-2,.58l-0.32-.92a4.77,4.77,0,0,1,2.52-.69c2.34,0,2.92,1.59,2.92,3.13v2.87a10.77,10.77,0,0,0,.13,1.84h-1.27l-0.11-1h0a2.86,2.86,0,0,1-2.34,1.14" transform="translate(-839.61 -550.69)" fill="#137154"/><polygon points="189.95 193.48 180.73 198.51 180.69 197.12 188.53 192.97 188.53 192.93 180.5 189.18 180.46 187.79 189.92 192.35 189.95 193.48" fill="#47FF3F"/><polygon points="106.23 31.9 97.01 36.93 96.97 35.54 104.81 31.39 104.81 31.35 96.77 27.6 96.74 26.21 106.2 30.77 106.23 31.9" fill="#47FF3F"/><path d="M1064.85,671.33a10,10,0,0,0-1.49,6.29,10.18,10.18,0,0,0,2.3,6l-1,.07a9.77,9.77,0,0,1-2.38-6,10,10,0,0,1,1.57-6.3Z" transform="translate(-839.61 -550.69)" fill="#47FF3F"/><path d="M1066.27,683.57a10.23,10.23,0,0,0,1.49-6.29,10,10,0,0,0-2.31-6l1-.07a9.62,9.62,0,0,1,2.38,6,9.8,9.8,0,0,1-1.57,6.28Z" transform="translate(-839.61 -550.69)" fill="#47FF3F"/><path d="M890.61,777.61a9.77,9.77,0,0,1-2-6.12,10,10,0,0,1,1.94-6.19h1a10,10,0,0,0-1.86,6.19,10.17,10.17,0,0,0,1.94,6.12h-1" transform="translate(-839.61 -550.69)" fill="#1b352d"/><path d="M892.26,777.6a10.23,10.23,0,0,0,1.87-6.19,10,10,0,0,0-1.94-6.12h1a9.61,9.61,0,0,1,2,6.14,9.81,9.81,0,0,1-1.94,6.17h-1" transform="translate(-839.61 -550.69)" fill="#1b352d"/><path d="M1085.13,655.85a9.77,9.77,0,0,1-2.38-6,10,10,0,0,1,1.57-6.3l1-.07a10,10,0,0,0-1.49,6.29,10.19,10.19,0,0,0,2.31,6l-1,.07" transform="translate(-839.61 -550.69)" fill="#0f8f68"/><path d="M1086.78,655.74a10.23,10.23,0,0,0,1.49-6.29,10,10,0,0,0-2.31-6l1-.07a9.62,9.62,0,0,1,2.38,6,9.81,9.81,0,0,1-1.57,6.28l-1,.07" transform="translate(-839.61 -550.69)" fill="#0f8f68"/><polygon points="59.16 39.61 65.45 35.82 65.51 36.79 60.21 39.91 60.21 39.93 65.88 42.32 65.94 43.29 59.21 40.37 59.16 39.61" fill="#47FF3F"/><polygon points="66.89 43.79 70.14 33.35 71.09 33.29 67.83 43.73 66.89 43.79" fill="#47FF3F"/><polygon points="78.9 39.08 72.61 42.85 72.55 41.88 77.89 38.76 77.89 38.73 72.18 36.35 72.12 35.38 78.85 38.29 78.9 39.08" fill="#47FF3F"/><path d="M1080.71,685.11c-1.27,0-2,1.11-2,2.61s0.65,2.52,2,2.54h0a1.86,1.86,0,0,0,1.81-1.46,2.13,2.13,0,0,0,.06-0.53v-1.18a2.19,2.19,0,0,0-.05-0.52,1.82,1.82,0,0,0-1.77-1.45h0m-0.38,6.14h0c-1.65,0-2.9-1.42-2.88-3.49,0-2.25,1.41-3.63,3.06-3.63h0a2.28,2.28,0,0,1,2,1.06h0l0-4.07h1.24l-0.08,8.23c0,0.6,0,1.29,0,1.76h-1.11l0-1.18h0a2.52,2.52,0,0,1-2.3,1.31" transform="translate(-839.61 -550.69)" fill="#0f8f68"/><polygon points="182.76 22.89 182.75 21.5 190.66 17.49 190.66 17.45 182.7 13.56 182.69 12.17 192.07 16.9 192.07 18.03 182.76 22.89" fill="#127859"/><polygon points="199.09 219.87 199.08 218.48 206.99 214.47 206.99 214.43 199.03 210.54 199.02 209.15 208.4 213.88 208.4 215.01 199.09 219.87" fill="#1b352d"/><polygon points="45.15 203.32 45.14 201.93 53.04 197.93 53.04 197.88 45.08 193.99 45.07 192.6 54.45 197.33 54.46 198.46 45.15 203.32" fill="#127859"/><text transform="translate(214.7 99.97) rotate(-0.42)" font-size="20.15" fill="#47FF3F" font-family="Myriad Pro">&amp;</text><path d="M973.92,756.91c-0.38-.38-0.75-0.76-1.28-1.32a5.56,5.56,0,0,1-4,1.58,3.84,3.84,0,0,1-4.2-3.78,4.46,4.46,0,0,1,2.63-4v-0.06a4.66,4.66,0,0,1-1.15-2.83,3.29,3.29,0,0,1,3.42-3.37,2.82,2.82,0,0,1,3,2.86c0,1.43-.81,2.56-3,3.65v0.06c1.16,1.32,2.46,2.8,3.33,3.76a10,10,0,0,0,1.28-4h1.61a10.32,10.32,0,0,1-1.92,5c0.73,0.76,1.44,1.52,2.25,2.38Zm-2.15-2.32c-0.81-.88-2.34-2.52-3.86-4.24a3.34,3.34,0,0,0-1.73,2.77,2.68,2.68,0,0,0,2.8,2.72,3.79,3.79,0,0,0,2.79-1.25m-4.19-8.25a3.81,3.81,0,0,0,1,2.43c1.36-.8,2.24-1.53,2.24-2.68a1.6,1.6,0,0,0-1.58-1.74,1.77,1.77,0,0,0-1.7,2" transform="translate(-839.61 -550.69)" fill="#47FF3F"/><path d="M1081.28,744.33h0a1.77,1.77,0,0,0-1.7,2,3.79,3.79,0,0,0,1,2.43c1.36-.8,2.24-1.53,2.23-2.67a1.6,1.6,0,0,0-1.57-1.74m-1.38,6a3.33,3.33,0,0,0-1.73,2.77,2.67,2.67,0,0,0,2.77,2.72h0a3.79,3.79,0,0,0,2.79-1.25c-0.81-.88-2.33-2.52-3.86-4.24m0.73,6.82a3.83,3.83,0,0,1-4.15-3.78,4.46,4.46,0,0,1,2.63-4v-0.06a4.66,4.66,0,0,1-1.15-2.83,3.29,3.29,0,0,1,3.42-3.37h0a2.82,2.82,0,0,1,3,2.86c0,1.43-.81,2.56-3,3.65v0.06c1.16,1.32,2.46,2.8,3.33,3.76a10,10,0,0,0,1.28-4h1.61a10.3,10.3,0,0,1-1.92,5c0.73,0.76,1.44,1.52,2.26,2.38l-2.1,0c-0.38-.38-0.75-0.76-1.28-1.32a5.57,5.57,0,0,1-4,1.58h0" transform="translate(-839.61 -550.69)" fill="#1b352d"/><path d="M887.57,648c-0.15,2.56-1.58,3.75-3.15,3.66s-2.75-1.39-2.62-3.84,1.56-3.72,3.16-3.62,2.75,1.48,2.61,3.8m-4.46-.15c-0.13,1.55.38,2.76,1.41,2.83s1.64-1.07,1.74-2.67-0.27-2.74-1.41-2.81-1.64,1.12-1.74,2.66m0.89,8.91,7.9-12.14,1,0.06-7.9,12.14Zm11.18-3.25c-0.15,2.56-1.58,3.75-3.13,3.66s-2.75-1.39-2.62-3.82,1.56-3.74,3.17-3.64,2.73,1.48,2.59,3.8m-4.46-.16c-0.11,1.55.42,2.77,1.43,2.83s1.64-1.06,1.74-2.67-0.27-2.74-1.41-2.81-1.66,1.12-1.75,2.65" transform="translate(-839.61 -550.69)" fill="#47FF3F"/><path d="M935.29,749.27c-0.15,2.56-1.58,3.75-3.15,3.66s-2.75-1.39-2.62-3.84,1.56-3.72,3.16-3.62,2.75,1.48,2.61,3.8m-4.46-.15c-0.13,1.55.38,2.76,1.41,2.83s1.64-1.07,1.74-2.67-0.27-2.74-1.41-2.81-1.64,1.12-1.74,2.66m0.89,8.91,7.9-12.14,1,0.06-7.9,12.14Zm11.18-3.25c-0.15,2.56-1.58,3.75-3.13,3.66s-2.75-1.39-2.62-3.82,1.56-3.74,3.17-3.64,2.73,1.48,2.59,3.8m-4.46-.16c-0.11,1.55.42,2.77,1.43,2.83s1.64-1.06,1.74-2.67S941.34,752,940.2,752s-1.66,1.12-1.75,2.65" transform="translate(-839.61 -550.69)" fill="#47FF3F"/><path d="M1096.92,677.89c-1,0-1.57,1.16-1.66,2.66s0.38,2.76,1.41,2.82h0.09c1,0,1.56-1.11,1.65-2.68s-0.27-2.74-1.41-2.81h-0.07m-0.18,6.48h-0.17c-1.52-.09-2.75-1.39-2.62-3.84s1.46-3.63,3-3.63h0.17c1.7,0.1,2.74,1.48,2.61,3.8-0.15,2.47-1.47,3.67-3,3.67m0.46,5.16-1-.06,7.9-12.14,1,0.06-7.9,12.14m7.35-6.13c-1,0-1.59,1.16-1.68,2.66s0.42,2.77,1.43,2.83h0.09c1,0,1.55-1.11,1.65-2.68s-0.27-2.74-1.41-2.81h-0.08m-0.18,6.48h-0.17c-1.51-.09-2.75-1.39-2.62-3.82s1.46-3.64,3-3.64h0.17c1.7,0.1,2.73,1.48,2.59,3.8-0.15,2.47-1.48,3.67-3,3.67" transform="translate(-839.61 -550.69)" fill="#1b352d"/><path d="M1070.83,576.78l-10.39-.23,0-1.21,10.39,0.23Zm-0.09,3.95-10.39-.23,0-1.21,10.39,0.23,0,1.21" transform="translate(-839.61 -550.69)" fill="#1b352d"/><polygon points="235.18 182.27 235.07 177.5 230.52 177.6 230.49 176.4 235.04 176.29 234.93 171.56 236.22 171.53 236.33 176.26 240.88 176.16 240.91 177.37 236.36 177.47 236.47 182.25 235.18 182.27" fill="#0f8f68"/><path d="M874.82,622.28a1.26,1.26,0,0,1,0-2.52h0a1.26,1.26,0,0,1,0,2.52h0M873,631.69a29.1,29.1,0,0,0,1.1-4.84l1.95-.25a25.72,25.72,0,0,1-1.82,4.94l-1.22.15" transform="translate(-839.61 -550.69)" fill="#0f8f68"/><path d="M981,781.66l-0.05-2h0a5.83,5.83,0,0,1-3.05-.81l0.45-1.36a5.39,5.39,0,0,0,2.8.79h0.13a2.12,2.12,0,0,0,2.35-2c0-1.11-.83-1.77-2.34-2.34-2.08-.75-3.37-1.65-3.41-3.4a3.31,3.31,0,0,1,3-3.32l-0.05-2,1.25,0,0,2a5.39,5.39,0,0,1,2.64.64L984.23,769a4.85,4.85,0,0,0-2.41-.62h-0.14c-1.55,0-2.11,1-2.09,1.79,0,1,.79,1.55,2.56,2.23,2.09,0.79,3.17,1.81,3.21,3.6a3.5,3.5,0,0,1-3.09,3.51l0.05,2.09-1.27,0" transform="translate(-839.61 -550.69)" fill="#1b352d"/><path d="M1081.16,613.15h-0.08a3.47,3.47,0,0,0-3.12,3.7,1.33,1.33,0,0,0,1.32,1.5h0c1.17,0,2.2-1.54,2.4-2.79l0.37-2.28a3.39,3.39,0,0,0-.93-0.12m-1.48,9.68a6,6,0,0,1-6.09-6.14c-0.1-4.15,2.7-7.8,7.17-7.9h0.17a5.58,5.58,0,0,1,5.82,5.69c0.07,3-1.58,4.83-3.47,4.88h0a1.49,1.49,0,0,1-1.49-1.74h-0.08a3.17,3.17,0,0,1-2.8,1.84h0a2.29,2.29,0,0,1-2.18-2.49,4.75,4.75,0,0,1,4.66-4.88h0.15a5.21,5.21,0,0,1,2,.37l-0.6,3.66c-0.27,1.54,0,2.24.66,2.24,1,0,2.15-1.4,2.09-3.73-0.07-2.87-1.81-4.91-4.83-4.91h-0.15c-3.28.08-6,2.73-5.89,6.82,0.08,3.31,2.25,5.32,5.15,5.32H1080a6.29,6.29,0,0,0,3-.77l0.34,0.86a7.36,7.36,0,0,1-3.57.89h-0.15" transform="translate(-839.61 -550.69)" fill="#0f8f68"/><path d="M869.32,747.5h-0.09a3.46,3.46,0,0,0-3.12,3.7,1.33,1.33,0,0,0,1.32,1.5h0c1.17,0,2.2-1.54,2.4-2.79l0.37-2.29a3.47,3.47,0,0,0-.92-0.12m-1.5,9.68a6,6,0,0,1-6.09-6.14c-0.09-4.15,2.7-7.8,7.17-7.9h0.17a5.58,5.58,0,0,1,5.82,5.69c0.07,3-1.58,4.83-3.48,4.88h0a1.49,1.49,0,0,1-1.49-1.74h-0.08a3.17,3.17,0,0,1-2.8,1.84h0a2.29,2.29,0,0,1-2.18-2.49,4.76,4.76,0,0,1,4.66-4.88h0.15a5.21,5.21,0,0,1,2,.38l-0.6,3.66c-0.27,1.54,0,2.24.65,2.24,1,0,2.15-1.4,2.09-3.73-0.07-2.87-1.8-4.91-4.83-4.91h-0.16c-3.28.07-6,2.73-5.89,6.82,0.08,3.31,2.25,5.32,5.15,5.32h0.15a6.27,6.27,0,0,0,3-.77l0.34,0.86a7.33,7.33,0,0,1-3.57.89h-0.15" transform="translate(-839.61 -550.69)" fill="#1b352d"/><path d="M1051.73,751.16l0.4-4-1.65,0,0-1.19,1.83-.06,0.3-2.93-1.73.05,0-1.19,1.91-.06,0.41-3.86,1.17,0-0.39,3.86,2.09-.06,0.41-3.86,1.19,0-0.39,3.86,1.65,0,0,1.19-1.83.06-0.28,2.93,1.73-.05,0,1.19-1.91.06-0.41,4-1.21,0,0.41-4-2.09.06-0.41,4Zm3.85-5.25,0.29-2.93-2.09.06-0.3,2.93Z" transform="translate(-839.61 -550.69)" fill="#47FF3F"/><path d="M849.05,627.81l-2.09.06-0.3,2.93,2.09-.06ZM844.9,636l0.41-4-1.65,0,0-1.19,1.83-.05,0.3-2.93L844,628l0-1.19,1.91-.06,0.41-3.86,1.17,0-0.39,3.86,2.09-.06,0.41-3.86,1.19,0-0.39,3.86,1.65,0,0,1.19-1.83.05L850,630.71l1.73-.05,0,1.19-1.91.06-0.41,4-1.21,0,0.41-4-2.09.06-0.41,4-1.21,0" transform="translate(-839.61 -550.69)" fill="#1b352d"/><path d="M960.4,776.84l-2.09.06-0.3,2.93,2.09-.06ZM956.25,785l0.41-4-1.65,0,0-1.19,1.83-.05,0.3-2.93-1.73.05,0-1.19,1.91-.06,0.41-3.86,1.17,0-0.39,3.86,2.09-.06,0.41-3.86,1.19,0-0.39,3.86,1.65,0,0,1.19-1.83.06-0.28,2.93,1.73-.05,0,1.19-1.91.06-0.41,4-1.21,0,0.41-4-2.09.06-0.41,4-1.21,0" transform="translate(-839.61 -550.69)" fill="#1b352d"/><path d="M965.42,559.16l-2.09.06-0.3,2.93,2.1-.06Zm-4.15,8.18,0.41-4-1.65,0,0-1.19,1.83-.05,0.3-2.93-1.73.05,0-1.19,1.91-.06,0.41-3.86,1.17,0L963.45,558l2.09-.06,0.41-3.86,1.19,0-0.39,3.86,1.65,0,0,1.19-1.83.05-0.28,2.93,1.73-.05,0,1.19-1.91.06-0.41,4-1.21,0,0.41-4-2.1.06-0.41,4-1.21,0" transform="translate(-839.61 -550.69)" fill="#1b352d"/><path d="M842.62,692.66h0c-1.07,0-1.81,1.36-1.73,3.82s0.81,3.63,1.9,3.63h0c1.25,0,1.8-1.51,1.73-3.82s-0.66-3.63-1.9-3.63m0,8.4c-1.72,0-2.93-1.61-3-4.55s1.17-4.73,3-4.79h0.09c1.85,0,2.95,1.66,3,4.48,0.09,3.07-1,4.8-3,4.86h-0.08" transform="translate(-839.61 -550.69)" fill="#184b3b"/><polygon points="10.05 150.01 9.81 142.11 9.78 142.12 8.24 143.01 7.97 142.09 9.92 140.97 10.96 140.94 11.23 149.97 10.05 150.01" fill="#184b3b"/><path d="M858.4,640.16a0.87,0.87,0,0,1,0-1.74h0a0.82,0.82,0,0,1,.82.85,0.81,0.81,0,0,1-.81.89h0m0.15,4.9a0.87,0.87,0,0,1,0-1.74h0a0.82,0.82,0,0,1,.82.85,0.81,0.81,0,0,1-.81.89h0" transform="translate(-839.61 -550.69)" fill="#184b3b"/><path d="M861.27,640.07a0.87,0.87,0,0,1,0-1.74h0a0.82,0.82,0,0,1,.82.85,0.81,0.81,0,0,1-.81.89h0m0.15,4.9a0.87,0.87,0,0,1,0-1.74h0a0.82,0.82,0,0,1,.82.85,0.81,0.81,0,0,1-.81.89h0" transform="translate(-839.61 -550.69)" fill="#184b3b"/><path d="M925.55,772.09a0.87,0.87,0,0,1,0-1.74h0a0.82,0.82,0,0,1,.82.85,0.81,0.81,0,0,1-.81.89h0m0.14,4.9a0.81,0.81,0,0,1-.82-0.84,0.82,0.82,0,0,1,.81-0.9h0a0.82,0.82,0,0,1,.82.85,0.81,0.81,0,0,1-.81.89h0" transform="translate(-839.61 -550.69)" fill="#184b3b"/><path d="M928.43,772a0.82,0.82,0,0,1-.82-0.84,0.82,0.82,0,0,1,.81-0.9h0a0.82,0.82,0,0,1,.82.85,0.81,0.81,0,0,1-.81.89h0m0.14,4.9a0.87,0.87,0,0,1,0-1.74h0a0.82,0.82,0,0,1,.82.85,0.81,0.81,0,0,1-.81.89h0" transform="translate(-839.61 -550.69)" fill="#184b3b"/><path d="M902.53,558.32a0.87,0.87,0,0,1,0-1.74h0a0.82,0.82,0,0,1,.82.85,0.81,0.81,0,0,1-.81.89h0m0.14,4.9a0.81,0.81,0,0,1-.82-0.84,0.82,0.82,0,0,1,.81-0.9h0a0.82,0.82,0,0,1,.82.85,0.81,0.81,0,0,1-.81.89h0" transform="translate(-839.61 -550.69)" fill="#184b3b"/><path d="M905.41,558.23a0.87,0.87,0,0,1,0-1.74h0a0.82,0.82,0,0,1,.82.85,0.81,0.81,0,0,1-.81.89h0m0.14,4.9a0.87,0.87,0,0,1,0-1.74h0a0.82,0.82,0,0,1,.82.85,0.81,0.81,0,0,1-.81.89h0" transform="translate(-839.61 -550.69)" fill="#184b3b"/><polygon points="43.4 174.97 43.62 163.17 46.33 163.22 46.31 164.03 44.61 164 44.42 174.18 46.13 174.21 46.11 175.02 43.4 174.97" fill="#47FF3F"/><polygon points="52.74 163.32 52.52 175.14 49.81 175.09 49.83 174.28 51.53 174.31 51.72 164.12 50.01 164.08 50.03 163.27 52.74 163.32" fill="#47FF3F"/><path d="M886.38,687.9c-0.09,3.33-1.38,5.13-3.55,5.07-1.91-.05-3.16-1.88-3.1-5.12s1.56-5.05,3.55-5,3.19,1.93,3.1,5m-5.32,0c-0.07,2.55.67,4,1.88,4s2-1.53,2.12-4-0.51-4-1.88-4c-1.16,0-2,1.36-2.12,4" transform="translate(-839.61 -550.69)" fill="#47FF3F"/><path d="M1062.59,610.06c-0.09,3.33-1.38,5.14-3.55,5.07-1.91-.05-3.16-1.88-3.1-5.12s1.56-5.05,3.55-5,3.19,1.93,3.1,5m-5.32,0c-0.07,2.55.67,4,1.88,4,1.36,0,2-1.53,2.12-4s-0.51-4-1.88-4c-1.16,0-2,1.36-2.12,4" transform="translate(-839.61 -550.69)" fill="#47FF3F"/><path d="M1000.32,747.06l0-.39a3.45,3.45,0,0,1,.92-2.61,3.31,3.31,0,0,0,1-2.07,1.26,1.26,0,0,0-1.44-1.29,2.68,2.68,0,0,0-1.52.48l-0.37-.95a3.94,3.94,0,0,1,2.15-.62,2.23,2.23,0,0,1,2.53,2.2,4.07,4.07,0,0,1-1.28,2.63,3,3,0,0,0-.84,2.22l0,0.39h-1.18Zm-0.32,2.11a0.89,0.89,0,0,1,.9-1,0.94,0.94,0,1,1-.9,1" transform="translate(-839.61 -550.69)" fill="#47FF3F"/><path d="M968.5,582.13l0-.39a3.45,3.45,0,0,1,.92-2.61,3.32,3.32,0,0,0,1-2.07,1.26,1.26,0,0,0-1.44-1.29,2.68,2.68,0,0,0-1.52.48l-0.37-.95a3.94,3.94,0,0,1,2.15-.62,2.23,2.23,0,0,1,2.53,2.2,4.08,4.08,0,0,1-1.28,2.63,3,3,0,0,0-.84,2.22l0,0.39H968.5Zm-0.32,2.11a0.89,0.89,0,0,1,.9-1,0.94,0.94,0,1,1-.9,1" transform="translate(-839.61 -550.69)" fill="#47FF3F"/><path d="M1101.47,631.19l0-.39a3.46,3.46,0,0,1,.92-2.61,3.32,3.32,0,0,0,1-2.07,1.26,1.26,0,0,0-1.44-1.29,2.69,2.69,0,0,0-1.52.48l-0.37-.95a3.94,3.94,0,0,1,2.15-.62h0a2.22,2.22,0,0,1,2.5,2.2,4.08,4.08,0,0,1-1.28,2.63,3,3,0,0,0-.84,2.22l0,0.39h-1.18m0.57,3a0.94,0.94,0,0,1,0-1.88h0a0.94,0.94,0,0,1,0,1.88h0" transform="translate(-839.61 -550.69)" fill="#184b3b"/><path d="M889.49,621.22v-0.39a3.46,3.46,0,0,1,1.07-2.56,3.31,3.31,0,0,0,1.16-2,1.26,1.26,0,0,0-1.36-1.37,2.68,2.68,0,0,0-1.54.39l-0.31-1a3.94,3.94,0,0,1,2.18-.49,2.23,2.23,0,0,1,2.4,2.34,4.08,4.08,0,0,1-1.43,2.55,3,3,0,0,0-1,2.17v0.39ZM889,623.31a0.89,0.89,0,0,1,1-.9,0.94,0.94,0,1,1-1,.9" transform="translate(-839.61 -550.69)" fill="#47FF3F"/><path d="M988.34,580.64a0.89,0.89,0,0,1,.24-1.29,1,1,0,1,1-.24,1.29" transform="translate(-839.61 -550.69)" fill="#47FF3F"/><path d="M1046.81,582.5c0,0.53,0,1.12,0,2l0.1,4.23c0,1.67-.27,2.7-1,3.35a3.87,3.87,0,0,1-2.63.94,4.71,4.71,0,0,1-2.44-.55l0.31-1a4.11,4.11,0,0,0,2.15.52c1.36,0,2.33-.76,2.29-2.6l0-.81h0a2.6,2.6,0,0,1-2.29,1.27,3.26,3.26,0,0,1-3.19-3.48c-0.06-2.47,1.52-3.91,3.2-4a2.43,2.43,0,0,1,2.31,1.21h0l0-1.1Zm-1.3,2.91a1.89,1.89,0,0,0-.09-0.6,1.91,1.91,0,0,0-1.89-1.36c-1.27,0-2.15,1.12-2.11,2.81,0,1.43.78,2.61,2.22,2.57a1.94,1.94,0,0,0,1.81-1.4,2.32,2.32,0,0,0,.09-0.71Z" transform="translate(-839.61 -550.69)" fill="#47FF3F"/><path d="M1000.44,551.72h-0.05c-1.27,0-2.15,1.12-2.11,2.81,0,1.41.76,2.57,2.15,2.57h0.06a1.94,1.94,0,0,0,1.81-1.4,2.28,2.28,0,0,0,.09-0.71l0-1.31a1.84,1.84,0,0,0-.09-0.6,1.91,1.91,0,0,0-1.83-1.36M1000,561.3a4.61,4.61,0,0,1-2.31-.55l0.31-1a4.09,4.09,0,0,0,2,.53h0.1c1.36,0,2.33-.76,2.29-2.6l0-.81h0a2.6,2.6,0,0,1-2.29,1.27h-0.07a3.27,3.27,0,0,1-3.11-3.49c-0.06-2.47,1.52-3.91,3.2-3.95h0.08a2.41,2.41,0,0,1,2.22,1.21h0l0-1.1,1.16,0c0,0.53,0,1.12,0,2l0.1,4.23c0,1.68-.27,2.71-1,3.36a3.86,3.86,0,0,1-2.63.93H1000" transform="translate(-839.61 -550.69)" fill="#1b352d"/><path d="M883.3,588.54a29,29,0,0,0,1.08-4.74l1.83-.24a23.33,23.33,0,0,1-1.78,4.82l-1.12.16m-3,.07a29,29,0,0,0,1.08-4.74l1.81-.24a23.2,23.2,0,0,1-1.76,4.81l-1.12.17" transform="translate(-839.61 -550.69)" fill="#0f8f68"/><path d="M1083.69,590.32l3.35-5.05-3.41-4.7,2,0,1.44,2.06c0.37,0.54.69,1,1,1.57h0.06c0.31-.59.62-1.1,0.93-1.63l1.32-2.11,1.91,0-3.21,4.79,3.54,5-2,0-1.48-2.16c-0.39-.55-0.73-1.09-1.08-1.67h0c-0.31.59-.64,1.12-1,1.71l-1.36,2.23-2,0" transform="translate(-839.61 -550.69)" fill="#1b352d"/><path d="M864.81,676.44l0-1.11h0.34a1.49,1.49,0,0,0,1.57-1.79,12,12,0,0,0-.17-1.45,9,9,0,0,1-.2-1.53,2,2,0,0,1,1.4-2.23v0a2,2,0,0,1-1.5-2.14,9.35,9.35,0,0,1,.13-1.53,11.8,11.8,0,0,0,.11-1.43,1.46,1.46,0,0,0-1.61-1.7h-0.38l0-1.11H865c1.65,0,2.83.76,2.87,2.57a11.81,11.81,0,0,1-.12,1.68,12,12,0,0,0-.12,1.69,1.33,1.33,0,0,0,1.58,1.45h0.09l0,1a1.38,1.38,0,0,0-1.6,1.53,11.49,11.49,0,0,0,.2,1.63,11.19,11.19,0,0,1,.2,1.65c0,2-1.21,2.79-2.86,2.83h-0.42" transform="translate(-839.61 -550.69)" fill="#0f8f68"/><polygon points="198.09 181.33 182.93 166.24 183.64 165.53 197.08 178.91 196.34 67.67 182.92 53.55 183.65 52.86 197.34 67.27 198.09 181.33" fill="#47FF3F"/><polygon points="197.59 180.62 83.51 180.62 70.23 166.22 70.97 165.54 83.95 179.62 197.59 179.62 197.59 180.62" fill="#47FF3F"/><g clip-path="url(#clip-path)"><path d="M982.9,730.3h-4.34a26,26,0,0,0,13.63-12.47h2v-0.76h0.55a27.61,27.61,0,0,1-11.8,13.23m-18.06,4.76h-0.46a31,31,0,0,1-14.7-3.75h4.74a32.12,32.12,0,0,0,10,1.75h0.5a37.36,37.36,0,0,0,10.9-1.76H981l-0.54.26a39.14,39.14,0,0,1-15.64,3.5" transform="translate(-839.61 -550.69)" fill="#1e1e1e"/><path d="M994.7,717.07h-0.56v-0.5h0.77l-0.21.5" transform="translate(-839.61 -550.69)" fill="#47FF3F"/><path d="M952,730.3h-4a27.86,27.86,0,0,1-10.23-13.23h1.39v0.76h1A24.46,24.46,0,0,0,952,730.3" transform="translate(-839.61 -550.69)" fill="#1e1e1e"/><path d="M939.21,717.07h-1.39l-0.19-.5h1.59v0.5" transform="translate(-839.61 -550.69)" fill="#47FF3F"/><path d="M954.42,731.31h-4.74q-0.84-.48-1.62-1h4a25.42,25.42,0,0,0,2.41,1m26.59,0h-5.17c0.89-.28,1.8-0.62,2.72-1h4.34c-0.63.36-1.26,0.7-1.88,1" transform="translate(-839.61 -550.69)" fill="#47FF3F"/><polygon points="154.54 167.15 152.58 167.15 100.57 167.15 99.61 167.15 99.61 166.39 154.54 166.39 154.54 167.15" fill="#1e1e1e"/><rect x="99.61" y="165.88" width="54.93" height="0.5" fill="#47FF3F"/><polygon points="120.13 150.22 107.15 143.55 107.15 142.03 120.12 135.34 120.12 137.27 109.19 142.76 109.19 142.82 120.13 148.29 120.13 150.22" fill="#47FF3F"/><polygon points="123.83 151.34 121.95 151.34 129.74 131.06 131.65 131.06 123.83 151.34" fill="#47FF3F"/><polygon points="133.42 150.22 133.42 148.28 144.44 142.79 144.44 142.74 133.41 137.26 133.41 135.33 146.39 141.98 146.4 143.55 133.42 150.22" fill="#47FF3F"/><path d="M952.55,637a3.88,3.88,0,1,1,0-7.75v0a3.89,3.89,0,1,1,0,7.77" transform="translate(-839.61 -550.69)" fill="#47FF3F"/><path d="M980.65,637a3.88,3.88,0,1,1,0-7.75v0a3.89,3.89,0,1,1,0,7.77" transform="translate(-839.61 -550.69)" fill="#47FF3F"/><path d="M949.68,616.25a12.83,12.83,0,0,0-12.81,12.81v20a12.83,12.83,0,0,0,12.81,12.81H983.5a12.83,12.83,0,0,0,12.81-12.81v-20a12.83,12.83,0,0,0-12.81-12.81H949.68M983.5,663.9H949.68a14.83,14.83,0,0,1-14.81-14.81v-0.21l0.64,0.07,0.18-2-0.82-.1V629.06a14.87,14.87,0,0,1,.09-1.6c0.48-.07.79-0.09,0.86-0.09l-0.07-2-0.42,0a14.84,14.84,0,0,1,14.36-11.16h16.2v1.24h2v-1.24H983.5a14.84,14.84,0,0,1,14.44,11.51l-0.77,0,0,2q0.59,0,1.12.06,0.05,0.63.05,1.27V647.2a8.6,8.6,0,0,1-1.26.11H997l0,2h0a10,10,0,0,0,1.34-.11A14.83,14.83,0,0,1,983.5,663.9" transform="translate(-839.61 -550.69)" fill="#47FF3F"/><path d="M995.11,716.07h-1v-0.24h-1.06a35.81,35.81,0,0,0,2.41-12.27l-0.18-31.41-56.16.34,0.15-2h-0.13l56.08-.34,0.11,2,1.95-.11,0.18,31.56a37.84,37.84,0,0,1-2.39,12.48" transform="translate(-839.61 -550.69)" fill="#47FF3F"/><path d="M994.91,716.57h-0.77v-0.5h1l-0.2.5" transform="translate(-839.61 -550.69)" fill="#47FF3F"/><path d="M939.21,716.07h-1.77a36.52,36.52,0,0,1-2.13-10.46V672.2l3.78,0.3h-1.78v33.09a33.73,33.73,0,0,0,2.05,10.24h-0.15v0.24" transform="translate(-839.61 -550.69)" fill="#47FF3F"/><path d="M939.21,716.57h-1.59l-0.18-.5h1.77v0.5" transform="translate(-839.61 -550.69)" fill="#47FF3F"/><polygon points="154.54 165.38 99.61 165.38 99.61 165.15 99.76 165.15 153.48 165.15 154.54 165.15 154.54 165.38" fill="#47FF3F"/><rect x="99.61" y="165.38" width="54.93" height="0.5" fill="#47FF3F"/><path d="M939.16,672.5H939.1l-3.78-.3-3.14-.25a9,9,0,0,0,0-2l7,0.55h0.13l-0.15,2h0" transform="translate(-839.61 -550.69)" fill="#47FF3F"/><path d="M923.35,677.76a6.89,6.89,0,1,1,6.88-6.89,6.9,6.9,0,0,1-6.88,6.89" transform="translate(-839.61 -550.69)" fill="#1e1e1e"/><path d="M923.35,664a6.89,6.89,0,1,0,6.88,6.89,6.89,6.89,0,0,0-6.88-6.89m-0.89,15.73a8.88,8.88,0,1,1,2,0v-0.93h-2v1" transform="translate(-839.61 -550.69)" fill="#47FF3F"/><path d="M922.46,697.8v-19h2v19h-0.29a15.59,15.59,0,0,0-1.71.09" transform="translate(-839.61 -550.69)" fill="#47FF3F"/><path d="M995.38,672.15l-0.12-2h0l5.26-.31a9,9,0,0,0,0,.95,8.8,8.8,0,0,0,.06,1.06l-3.21.19-1.95.11" transform="translate(-839.61 -550.69)" fill="#47FF3F"/><path d="M1009.36,677.68a6.89,6.89,0,1,1,6.88-6.89,6.9,6.9,0,0,1-6.88,6.89" transform="translate(-839.61 -550.69)" fill="#1e1e1e"/><path d="M1009.36,663.9a6.89,6.89,0,1,0,6.89,6.89,6.89,6.89,0,0,0-6.89-6.89m0.89,15.73v-1h-2v0.93a8.88,8.88,0,1,1,2,0" transform="translate(-839.61 -550.69)" fill="#47FF3F"/><path d="M1008.25,697.93V678.68h2v19.19l-0.43,0q-0.82,0-1.57.07" transform="translate(-839.61 -550.69)" fill="#47FF3F"/><path d="M972.38,603.39h-11a6.89,6.89,0,1,1,11,0m-5.51,2.77a6.86,6.86,0,0,1-4.6-1.77h9.2a6.86,6.86,0,0,1-4.6,1.77" transform="translate(-839.61 -550.69)" fill="#4a31ff"/><path d="M971.46,604.39h-9.2a7,7,0,0,1-.91-1h11a7,7,0,0,1-.91,1" transform="translate(-839.61 -550.69)" fill="#4a31ff"/><path d="M974.73,603.39h-2.36a6.89,6.89,0,1,0-11,0H959a8.89,8.89,0,1,1,15.74,0m-8.86,4.71a8.89,8.89,0,0,1-6.27-3.71h2.66a6.88,6.88,0,0,0,9.2,0h2.66a8.89,8.89,0,0,1-6.25,3.71v-0.94h-2v0.95" transform="translate(-839.61 -550.69)" fill="#47FF3F"/><path d="M962.26,604.39H959.6a8.85,8.85,0,0,1-.61-1h2.36a7,7,0,0,0,.91,1m11.86,0h-2.66a6.91,6.91,0,0,0,.91-1h2.36a8.85,8.85,0,0,1-.61,1" transform="translate(-839.61 -550.69)" fill="#47FF3F"/><path d="M952.72,626.37a6.89,6.89,0,1,0,6.89,6.89,6.89,6.89,0,0,0-6.89-6.89m0,15.77a8.89,8.89,0,1,1,8.88-8.88,8.89,8.89,0,0,1-8.88,8.88" transform="translate(-839.61 -550.69)" fill="#47FF3F"/><path d="M980.64,626.37a6.89,6.89,0,1,0,6.88,6.89,6.89,6.89,0,0,0-6.88-6.89m0,15.77a8.89,8.89,0,1,1,8.88-8.88,8.9,8.9,0,0,1-8.88,8.88" transform="translate(-839.61 -550.69)" fill="#47FF3F"/><polygon points="128.26 64.81 126.27 64.81 126.27 63.56 126.27 57.41 126.27 56.47 128.26 56.47 128.26 57.41 128.26 63.56 128.26 64.81" fill="#47FF3F"/><path d="M935.5,648.94l-0.64-.07c-10.28-1.3-10.78-10.94-10.78-11,0.17-10.61,9.18-12.2,11.24-12.42l0.42,0,0.07,2a8.47,8.47,0,0,0-.86.09c-2.37.35-8.74,2.07-8.87,10.35a9.79,9.79,0,0,0,8.79,9l0.82,0.09-0.18,2" transform="translate(-839.61 -550.69)" fill="#47FF3F"/><path d="M997,649.31h0l0-2h0.06a8.44,8.44,0,0,0,1.26-.11c2.57-.4,8-2.23,8.36-10.36,0-.32,0-8.26-8.41-9q-0.54,0-1.12-.06l0-2,0.77,0a11.15,11.15,0,0,1,7.63,3.2,12.07,12.07,0,0,1,3.1,7.94c-0.46,9.8-7.37,11.86-10.35,12.29a9.9,9.9,0,0,1-1.34.11" transform="translate(-839.61 -550.69)" fill="#47FF3F"/><polygon points="144.69 102.64 109.61 102.64 109.61 96.17 111.61 96.17 111.61 100.64 142.69 100.64 142.69 95.62 144.69 95.62 144.69 102.64" fill="#47FF3F"/><path d="M916.35,708.12h-2c0-6.26,2.77-9.71,8.1-10.3a15.85,15.85,0,0,1,1.71-.09h0.29a8.1,8.1,0,0,1,4.89,2c1.45,1.28,3.17,3.77,3.17,8.35h-2c0-3.08-.84-5.38-2.5-6.85a6.08,6.08,0,0,0-3.85-1.54c-5.36,0-7.77,2.59-7.81,8.4" transform="translate(-839.61 -550.69)" fill="#47FF3F"/><path d="M1002,708.25h-2c0-6.31,2.82-9.77,8.25-10.31q0.75-.07,1.57-0.07l0.43,0a8.11,8.11,0,0,1,4.74,2c1.45,1.28,3.17,3.77,3.17,8.35h-2c0-3.08-.84-5.38-2.5-6.85a6.08,6.08,0,0,0-3.85-1.54c-5.36,0-7.77,2.59-7.81,8.4" transform="translate(-839.61 -550.69)" fill="#47FF3F"/></g></svg>
