<svg xmlns="http://www.w3.org/2000/svg" viewBox="0 0 381.34 461.4"><defs><style>.cls-1{fill:#0a0a0a;}.cls-2{fill:#999;}.cls-3{fill:#1e1e1e;}.cls-4{fill:gray;}.cls-12,.cls-5{fill:#e10b31;}.cls-6{fill:#fff;}.cls-7{fill:#ccc;}.cls-8{fill:#585858;}.cls-9{fill:#d6d6d6;}.cls-10{fill:#b3b3b3;}.cls-11{fill:#161616;}.cls-12{stroke:#000;stroke-miterlimit:10;stroke-width:0.96px;}.cls-13{fill:#903;}</style></defs><title>robot-executive-meetup</title><g id="Layer_2" data-name="Layer 2"><g id="Long_Page_cz.2" data-name="Long Page cz.2"><path class="cls-1" d="M130.3,334.28c-21.59.59-28.55-5.68-70.14,13.34-25,11.44-17.55,43.5,15.27,48.28,55.36,8.06,46.45,38.63,77,54.5C218.85,484.86,272,429.6,252.29,404c-10.78-14,19.82-18,43.19-14.82,74.06,10.1,80.68-19.15,57-33C326.13,340.73,178.88,333,130.3,334.28Z"/><g id="arm_1" data-name="arm 1"><path class="cls-2" d="M322,166.29c-5.4,8.48-11,18.19-18.27,25.12S287.08,203.58,277,203.89c-8.15.26-16.54-2.66-24.29-.16-4.18,1.34-7.94,4.42-9.37,8.56s-.09,9.3,3.6,11.67l4.25,2.28a8.23,8.23,0,0,0,2.35.83c17.3,3.21,33.41,1.91,48.27-7.43,16.64-10.47,28.56-30.65,36-48.84A40,40,0,0,1,322,166.29Z"/><path class="cls-3" d="M300.4,196a43.79,43.79,0,0,1-26.69,12.73c-7,.51-25-.72-25.48-1.38-1-1.41,3.79-3.06,5-3.43,8.28-2.47,17.58.88,25.83.28a27,27,0,0,0,11-3c1.8-1.05,3.7-2.19,5.25-3.16,1.08-.68,2.15-2.65,3.4-2.79C298.53,195.32,301.92,194.42,300.4,196Z"/><path class="cls-4" d="M313.6,185s5.19,5.19,15.1-10.16c1.67-2.58,5.94-.9,6.37-4.33a54.89,54.89,0,0,1-12.57-4.45C325.44,168.81,310,182,313.6,185Z"/><path d="M252,228.22c19.36,3.62,38.84,1.18,54.87-10.93,15.05-11.37,25-28.26,32.14-45.41.71-1.71-2.06-2.45-2.77-.76-6.76,16.27-16.25,32.36-30.35,43.31-15.42,12-34.31,14.54-53.12,11-1.81-.34-2.58,2.43-.77,2.77Z"/><path d="M247.7,222.72c-5.78-4.42-3.54-12.27,1.81-15.86,4.5-3,10.06-2.9,15.24-2.45,8.46.73,16.06,1.58,24.17-1.62,15.82-6.23,25.46-20.88,34.22-34.63,1-1.57-1.49-3-2.48-1.45-6,9.44-12.16,19.15-20.91,26.32-9.73,8-20.1,10.1-32.37,8.78-8.16-.87-17.48-1.1-23.1,6a12.08,12.08,0,0,0,2,17.4c1.47,1.12,2.9-1.37,1.45-2.48Z"/><path d="M260.65,204.14c-4,8.42-4.81,19.52,3,25.93,1.55,1.29,5.18-1.77,3.36-3.28-6.78-5.59-5.69-15.44-2.27-22.66,1.24-2.6-3.2-1.81-4.06,0Z"/><path d="M277,204.1c-4,7.32-4,16.51,2.81,22.07,1,.8,4.55-.1,4.62,0-6.73-5.51-6.56-14.63-2.64-21.83,0,0-4.21-1.25-4.79-.2Z"/><path d="M292.8,198.73c-3.23,7.86-1,16.61,6.63,20.81,1.81,1,5.84-1.44,3.56-2.7-6.46-3.57-8.52-10.79-5.76-17.52,1-2.48-3.62-2.56-4.43-.59Z"/><path d="M305.91,187.23c.67,6.65,3.81,14,10.56,16.22.83.28,2.57.61,3.38.2.61-.3,1.08-.43,0-.77-6-2-8.63-9.61-9.21-15.37-.1-1-4.84-.87-4.78-.28Z"/><path d="M317.35,172.66a21.61,21.61,0,0,0,13.38,12.5c2.81.88,4.15-2.45,1.28-3.35a16.92,16.92,0,0,1-10.15-9.36c-.8-2.08-5.48-2.34-4.51.21Z"/></g><g id="hand_1" data-name="hand 1"><path class="cls-5" d="M322,166.29a27.43,27.43,0,0,1-9.16-8.92,20.59,20.59,0,0,1-1.52-17.2c3-8.36,7.47-15.54,17.92-18.71,4.3-1.3,8.93-.59,13.31.41,8.25,1.89,17.55,8.12,18.28,20.64.43,7.3-2.21,16-7.45,21.07s-9.18,8-15.71,7.26A41.09,41.09,0,0,1,322,166.29Z"/><path class="cls-5" d="M309.94,141.66c-3.74-.64-8.88-1.83-10-3.06a34.27,34.27,0,0,0,5.84-8c2.88,1.08,5.2,1.92,8.08,3A36.53,36.53,0,0,0,309.94,141.66Z"/><path class="cls-5" d="M346.74,124.07l3.19-11.76-.95-.37a15.27,15.27,0,0,0-8.05-1.3s-.75,7.82-2.48,11.59Z"/><path class="cls-5" d="M358.85,155.73c4.38,0,13.76-.09,13.76-.09l3-7.83a91.87,91.87,0,0,1-14.57-1.13C361.28,149.5,360.46,151.55,358.85,155.73Z"/><path class="cls-5" d="M321.15,125.24a50.63,50.63,0,0,0-3.26-7.28c2.4-.54,3.58-1.49,5.65-2.83l.09,0a23.52,23.52,0,0,1,3.45,6.51A20.83,20.83,0,0,0,321.15,125.24Z"/><path class="cls-5" d="M360,135.69c1.79-1.27,6.08-3.54,6.08-3.54-.87-1.65-2.54-5.53-2.54-5.53l-6.78,3.52Z"/><path class="cls-6" d="M327.22,154.49A35.22,35.22,0,0,1,331.34,141L324.13,136c-2.57,4.6-5.95,11.28-3.54,15.39A33.62,33.62,0,0,0,327.22,154.49Z"/><path d="M311.28,140.94c-3.31-1.43-6.63-2.85-10-4.15l.86,2.11a43.4,43.4,0,0,1,4.65-7.3l-1.39.36,8.08,3c1.73.65,2.48-2.13.76-2.77-2.69-1-5.39-2-8.08-3a1.39,1.39,0,0,0-1.4.36,47.47,47.47,0,0,0-5.1,7.89,1.46,1.46,0,0,0,.86,2.11c3.13,1.21,6.23,2.53,9.31,3.86,1.68.72,3.15-1.76,1.45-2.48Z"/><path d="M348.06,123.45c1.32-3.51,2.28-7.13,3.25-10.75a1.47,1.47,0,0,0-1-1.77,20,20,0,0,0-9.38-1.73,1.51,1.51,0,0,0-1.39,1.06,55,55,0,0,0-2.22,10.55c-.24,1.83,2.64,1.81,2.87,0a52,52,0,0,1,2.12-9.79l-1.38,1.06a18.42,18.42,0,0,1,8.62,1.62l-1-1.77c-1,3.62-1.94,7.24-3.26,10.76-.65,1.73,2.13,2.48,2.77.76Z"/><path d="M358.35,156.79c4.75,0,9.51.15,14.26.28a1.46,1.46,0,0,0,1.38-1,40.13,40.13,0,0,0,1.94-7.44,1.47,1.47,0,0,0-1.39-1.82c-4.49-.56-9-1.1-13.48-1.52-1.84-.17-1.83,2.71,0,2.87,4.5.42,9,1,13.48,1.52l-1.38-1.82a40,40,0,0,1-1.94,7.45l1.39-1.06c-4.75-.13-9.51-.26-14.26-.29a1.44,1.44,0,0,0,0,2.88Z"/><path d="M322.06,125.16a61.81,61.81,0,0,1-2.31-7.8l-.66,1.62,5.26-2.59-2-.52a64.27,64.27,0,0,1,3.45,6.51c.78,1.67,3.26.22,2.48-1.45a64.27,64.27,0,0,0-3.45-6.51,1.48,1.48,0,0,0-2-.51l-5.26,2.59a1.46,1.46,0,0,0-.66,1.63,66.37,66.37,0,0,0,2.6,8.48c.73,1.69,3.2.23,2.48-1.45Z"/><path d="M361.39,137.2l5.37-3.82-1.74-.22h0a1.44,1.44,0,0,0,2.25-1.74c-.93-1.8-1.74-3.67-2.54-5.54a1.47,1.47,0,0,0-2-.51l-7.26,3.79c-1.64.86-.19,3.34,1.45,2.48l7.26-3.79-2-.52c.8,1.87,1.61,3.74,2.54,5.54l2.26-1.74h0a1.47,1.47,0,0,0-1.74-.23l-5.37,3.82c-1.49,1.06-.06,3.55,1.45,2.48Z"/><path d="M338.08,172.49c22.33.32,32.43-32.21,16.34-46.29-7.62-6.66-20.1-9.23-29.39-5-8.72,3.93-15.67,13.75-16.23,23.4-.74,12.68,8.57,21.48,19.47,25.75,2.07.81,1.64-2.57,0-3.21-11.89-4.65-19.91-15.56-14.53-28.47,4.87-11.71,15.22-18.19,28-15.34,10.95,2.44,18.36,10.72,17.55,22.31s-9.51,23.76-22,23.58c-2.09,0-1,3.29.77,3.31Z"/></g><path class="cls-7" d="M265.2,197.82s-107.12,19.24-135.57,20.92c0,46.86,3.34,93.73,7.32,150.27a456.78,456.78,0,0,0,102.72-23.33Z"/><path class="cls-2" d="M207.87,338.83c-10.88,8.37-25.81,10.69-31.8,6.69-10-6.69-13.39-12.55-31-3.34-11.72-1.68-11.72-27.62-11.72-27.62l3.35,47.7c40.17-2.51,73-12.53,102.93-23.28l7.54-35.3a118.25,118.25,0,0,1-6.7,13.39C232.14,331.3,221.26,314.56,207.87,338.83Z"/><path class="cls-8" d="M130,358.08c-.83-25.11,2.72-62.26,5.87-17.24.33,4.67,2.5,13.05,9.2,14.73,2.51-9.21,5-12.08,8.37-12.56,8.12-1.15,15.46-3.08,20.92,0,3.88,2.2,5,10.05,11.71,9.21,13.8-1.73,22.6-5,25.11-8.37,1.67-9.2,4.19-18.41,14.23-18.41,5.16,0,14.76,3.74,15.64-1.35,0,0,11.36-57.41,10.3-44.68l-11.72,66.11A446.55,446.55,0,0,1,137.58,369Z"/><path class="cls-6" d="M128.79,218.74c-2.51-2.51-32.64-25.11-32.64-25.11-.84,12.55,7.53,123.86,13.39,145.62l25.94,29.29Z"/><path class="cls-8" d="M132.55,191.54c7.62,4.16,14.35,13.3,25.23,11.63,20-3.08,52.85-10.38,65.41-12,5-.84,14.59.48,33.23,6.31-16.89,3.49-46,7.57-62.91,10.48-1.61.26-17.54,3.14-19.81,3.5-13.57,2.13-40.63,4.8-43.68,5.24-.46-.54-19.69-15.68-28.43-20.93C119.06,194.56,131,190.7,132.55,191.54Z"/><g id="HEAD"><path class="cls-4" d="M165.26,183.6a84.31,84.31,0,0,0-6.77,11.49c32.06-8.55,74-17.84,106.34-25h.28c1.09-4,3.78-7.46,5.89-10.9Z"/><path class="cls-6" d="M140,63.86c-1.34,1.74-8.7,22.37-23.29,35.75l7.45,61.69c13.55,9,31.9,31.5,34.17,32.93Z"/><path class="cls-9" d="M271.12,157.13c-2.79-16.08-7.4-71.61-8-87.86L153.72,78.76l.19,1.2C154.74,97.53,166,182.6,166,182.6l104.54-24.14Z"/><path d="M272.5,156.75c-2.47-14.56-3.53-29.43-4.82-44.13-1.26-14.42-2.56-28.88-3.08-43.35a1.45,1.45,0,0,0-1.44-1.44l-95.74,8.3-13.7,1.19a1.47,1.47,0,0,0-1.39,1.82c2.16,13.91,2.79,28.25,4.48,42.24q3,25.05,6.28,50.06.74,5.58,1.46,11.16a1.47,1.47,0,0,0,1.82,1.39l94.41-21.8c3.39-.79,10-.78,11.58-4.33.74-1.68-1.74-3.14-2.48-1.45s.59.39-.16.76a7.82,7.82,0,0,1-1.81.42l-7.3,1.69L236,165,179,178.14l-13.34,3.08,1.81,1.38C163.7,154.44,160,126.26,157,98c-.71-6.5-.89-13.18-1.89-19.64l-1.38,1.82,95.74-8.3,13.7-1.19-1.44-1.43c.54,14.9,1.9,29.79,3.2,44.63,1.28,14.54,2.37,29.22,4.81,43.61C270,159.33,272.81,158.56,272.5,156.75Z"/><path class="cls-10" d="M157.56,193.35c-11-55.07-19-127.56-16.25-129,2.48,3,8.38,9.64,12.41,14.44l10.54,104.11s-3.77,6.48-5.9,11.36Z"/><polygon class="cls-6" points="242.52 58.25 142.88 64.35 153.67 78.45 261.45 68.9 242.52 58.25"/><path d="M152.47,80c2,34.46,6.54,69,12.13,103,.3,1.82,3.07,1.05,2.77-.76-5.55-33.79-10.06-68-12-102.26-.1-1.84-3-1.85-2.87,0Z"/><path d="M262.43,67.31a203.49,203.49,0,0,1-18.84-10,1.44,1.44,0,0,0-1.45,2.48,203.49,203.49,0,0,0,18.84,10c1.66.78,3.12-1.7,1.45-2.48Z"/><path d="M140.17,65.16c34.07-.2,68.1-3,102.09-5.12,1.84-.12,1.85-3,0-2.87-34,2.1-68,4.92-102.09,5.12a1.44,1.44,0,0,0,0,2.87Z"/><path d="M140.07,65c2.83,5.85,8.56,9.8,12.63,14.73,1.18,1.43,3.2-.61,2-2-3.91-4.73-9.47-8.55-12.18-14.15-.81-1.66-3.29-.21-2.48,1.45Z"/><path d="M138.79,63.14c-2.95,4.14-5.23,8.86-7.89,13.19q-3.37,5.52-7,10.88c-1.32,2-2.68,3.91-4.06,5.84-1.22,1.7-3.79,4-4.44,6-.46,1.44.25,3.59.42,5l1.46,12.1,3.81,31.53,1.31,10.82c.36,3,.45,3.47,3,5.7,7.35,6.28,14.21,13.14,21,20.06,3.57,3.66,7,8.18,11.2,11.17,1.51,1.07,3-1.42,1.45-2.48-3.61-2.57-6.63-6.62-9.69-9.77-5.61-5.77-11.29-11.48-17.24-16.9-2.9-2.64-6.36-3.66-6.81-7.36l-1.16-9.61-3.57-29.53-1.57-13c-.22-1.86-1.27-5-.83-6.87.17-.7.9-1.17,1.43-1.77a73.6,73.6,0,0,0,4.77-6.59c2.85-4.1,5.57-8.29,8.19-12.53,2.94-4.74,5.43-9.91,8.67-14.45,1.08-1.51-1.41-2.94-2.48-1.45Z"/><g id="lips"><path class="cls-2" d="M242.87,150.28s7.86-10.39,6.75-12.93c-1.27-2.9-6.43-2.93-6.43-2.93S239.94,147,242.87,150.28Z"/><path class="cls-11" d="M243.16,134.48c-18,4.1-38.2,9.17-60.84,8.34,0,0-2,2-2,3a46.29,46.29,0,0,0,2.45,13.34l1.45.38a112.1,112.1,0,0,0,56.87-8.31c4-6.34,3.93-12,3.69-16.43Z"/><path d="M242.78,133.1c-20,4.49-39.76,9.44-60.46,8.29-1.85-.11-1.84,2.77,0,2.87,21,1.16,41-3.85,61.22-8.39,1.81-.41,1-3.18-.76-2.77Z"/><path d="M182,142.48c-2.84.17-3.09,2.58-2.95,5.05.17,3.09.44,10.54,2.77,12.66,1.81,1.65,6.28,1.26,8.45,1.4a108,108,0,0,0,16.68-.25A108.74,108.74,0,0,0,236,155c4.28-1.63,6.23-2.28,8.05-6.6,1.91-4.54,2.94-9.09,2.18-14-.28-1.82-3-1.05-2.77.76.64,4.12-.36,11.4-3.46,14.5-2.14,2.15-5.93,3-8.82,4A109.83,109.83,0,0,1,210.94,158a111.52,111.52,0,0,1-19.16.77c-1.57-.08-7.05.22-8.22-.92-1-1-1.73-12.52-1.59-12.53,1.84-.11,1.85-3,0-2.88Z"/></g><path d="M153.72,80.19l95.74-8.3,13.7-1.19-1.44-1.43c.54,14.9,1.9,29.79,3.2,44.63,1.28,14.54,2.37,29.22,4.81,43.61.31,1.82,3.08,1.05,2.77-.76-2.47-14.56-3.53-29.43-4.82-44.13-1.26-14.42-2.56-28.88-3.08-43.35a1.45,1.45,0,0,0-1.44-1.44l-95.74,8.3-13.7,1.19c-1.83.16-1.85,3,0,2.87Z"/><path d="M139.15,64c.68,21.78,2.75,43.55,5.39,65.18s5.58,43.57,11.63,64.55a1.44,1.44,0,0,0,2.77-.76c-6.12-21.2-9.08-43.4-11.7-65.26C144.7,106.57,142.68,85.29,142,64c-.05-1.85-2.93-1.85-2.87,0Z"/><path d="M264.31,167.88c-35.47,8.19-71.14,15.61-106.33,25L159.6,195c1.81-3.54,4.17-6.58,6.29-9.92,1.36-2.15,0-.73,1.05-1.17a34.25,34.25,0,0,1,5.41-1.25l23.84-5.51,60.45-14,14.61-3.38-1.62-2.11c-2.3,3.64-4.69,7.12-6,11.24l1.38-1h-.27c-1.85-.07-1.85,2.8,0,2.87H265a1.47,1.47,0,0,0,1.39-1.06c1.27-3.89,3.59-7.12,5.75-10.55a1.45,1.45,0,0,0-1.62-2.11l-98.66,22.79c-1.8.42-4.25.56-5.93,1.37-4,1.89-6.9,8.68-8.78,12.35a1.46,1.46,0,0,0,1.62,2.11c35.19-9.35,70.87-16.77,106.34-25C266.88,170.23,266.12,167.46,264.31,167.88Z"/><path class="cls-2" d="M168.07,109.64c5.13-7.46,14.54-4.25,22.53-3,5.18.83,11.89-.12,13.2-1.44,4.48-6.51,12.62-3,19.68-2.61,6.23.32,13.72-1.13,15-2.4,4.26-6.32,13.11-6.27,18.75-2.5s4.67,12.44.68,17.09c-5.87,6-31.75,3.14-33.71,5.38-14.73,8.17-25.9,1.49-32.78,6.6-7.78,7.78-25.09,4.31-27-7.64A12.07,12.07,0,0,1,168.07,109.64Z"/><path d="M204.06,110c2.06,5.17,6.74,9.87,12.7,6.81a8.16,8.16,0,0,0,4.16-12.08c-3.6-4-10.82-2.54-14.84.51A5.5,5.5,0,0,0,204.06,110Z"/><path d="M172,119.17c2,5.23,7.3,5.75,12.44,5.75,6.13-.19,7.12-5.73,6.34-9.68-1.58-7.91-9.69-9.78-14.82-7.13C174.37,109.58,170.25,115.42,172,119.17Z"/><path d="M235.36,107c4.56,10.54,14.3,8.61,17.81.83,2-5.45-3.23-9.58-9.13-10.33-3.12-.39-5.37,1.08-7.4,3.49C235.25,102.33,235.18,105,235.36,107Z"/><g id="eyes"><path class="cls-12" d="M239.68,105.62q-2.72,2-5.56,3.89c-3.92,2.57-.9,9.43,3.08,6.82,2.45-1.61,4.87-3.27,7.21-5q1.68,2,3.37,4.06c3.05,3.68,8.67-1.16,5.61-4.84l-3.22-3.89a73.91,73.91,0,0,0,5.46-5.32c3.21-3.49-1.41-9.31-4.65-5.78a76.37,76.37,0,0,1-5.54,5.41l-4.55-5.49c-3-3.67-8.67,1.17-5.61,4.85Z"/><path class="cls-12" d="M204.56,103.59c1.95,2,3.82,4,5.6,6.16a75.44,75.44,0,0,1-7.09,6c-3.83,2.84.84,8.61,4.65,5.78a77.67,77.67,0,0,0,7-5.83c.88,1.27,1.73,2.56,2.54,3.89,1.06,1.73,2.89,2.73,4.85,1.8,1.62-.77,2.82-3.31,1.77-5-1.27-2.06-2.59-4.06-4-6,1.68-1.89,3.29-3.84,4.82-5.88,2.89-3.86-3.05-8.21-5.92-4.37-1.12,1.49-2.27,2.92-3.47,4.3-1.62-1.94-3.32-3.82-5.12-5.64C206.86,95.4,201.21,100.21,204.56,103.59Z"/><path class="cls-12" d="M173.36,129a85.62,85.62,0,0,0,10-6.8,79.1,79.1,0,0,0,5.39,6.06c3.47,3.5,9.37-1.53,5.87-5.07a74.3,74.3,0,0,1-5.42-6.1,80.33,80.33,0,0,0,7.16-7.87c3.14-4-3.07-8.48-6.18-4.57a68.92,68.92,0,0,1-5.52,6.14,75.86,75.86,0,0,1-5.08-9.31c-2.09-4.57-9-1.22-6.91,3.37A82.9,82.9,0,0,0,178.82,116a72.6,72.6,0,0,1-8.67,5.89C165.88,124.38,169.05,131.53,173.36,129Z"/></g><path class="cls-13" d="M176.09.75c-7.93,18.27-12.65,37.2-16,56.79-.31,1.81,2.45,2.59,2.77.77C166.16,39,170.75,20.23,178.57,2.2c.73-1.68-1.75-3.14-2.48-1.45Z"/><path class="cls-5" d="M183,1.77l44.12,22.67L172.52,37.5S173,24.52,183,1.77Z"/><path d="M173,128.43a84.13,84.13,0,0,0,10.05-6.56h0l.38-.28.29.36c1.47,1.83,3,3.59,4.64,5.28l.61.63c.21.21.41.34.61.52a5.57,5.57,0,0,0,.67.39c.24.08.49.14.74.21a3.93,3.93,0,0,0,2.92-.88,3.26,3.26,0,0,0,1.28-2.66c-.07-1-.82-1.77-1.69-2.64-1.64-1.71-3.2-3.51-4.68-5.36h0l-.28-.34.32-.3c1.84-1.79,3.6-3.65,5.26-5.6l1.23-1.48L196,109c.15-.24.32-.47.45-.72a2.88,2.88,0,0,0-.39-3.1,3.74,3.74,0,0,0-3-1.43,4.4,4.4,0,0,0-.81.12,3.45,3.45,0,0,0-.75.36l-.35.23c-.11.09-.2.2-.3.3l-.3.31-.3.38a69.8,69.8,0,0,1-5.22,5.78h0l-.45.45-.36-.54a76.64,76.64,0,0,1-4.5-7.7l-.5-1a6.8,6.8,0,0,0-.49-.91,2.63,2.63,0,0,0-1.27-1.16,2.66,2.66,0,0,0-1.7-.13,3.31,3.31,0,0,0-1.58.8,2.82,2.82,0,0,0-.91,1.43,3.1,3.1,0,0,0-.1.81,3.42,3.42,0,0,0,.18.83l.15.42.24.49.49,1,1,1.94a84.77,84.77,0,0,0,4.54,7.46h0l.6.89-.84.64c-1.52,1.15-3.09,2.25-4.69,3.28q-1.2.78-2.43,1.5l-1.24.72c-.2.11-.44.23-.6.34l-.46.32a3.39,3.39,0,0,0-.75,4.08,2.91,2.91,0,0,0,1.53,1.52A2.58,2.58,0,0,0,173,128.43Zm.71,1.21a4,4,0,0,1-3.31.46,4.44,4.44,0,0,1-2.49-2.22,5.44,5.44,0,0,1-.58-3.23,4.86,4.86,0,0,1,1.58-3l.68-.51.61-.38,1.18-.74c.78-.51,1.54-1,2.3-1.56q2.28-1.59,4.43-3.36l-.25,1.53h0a84.38,84.38,0,0,1-4.38-7.82l-1-2-.46-1-.23-.51-.21-.63a4.52,4.52,0,0,1,1.49-4.89,4.84,4.84,0,0,1,2.36-1.09,4.24,4.24,0,0,1,2.62.31,4.15,4.15,0,0,1,1.89,1.81,10.13,10.13,0,0,1,.52,1l.45,1a75.46,75.46,0,0,0,4.16,7.72l-.8-.09h0a69.37,69.37,0,0,0,5.16-5.68l.3-.37.37-.39a3.5,3.5,0,0,1,.39-.38l.45-.31a4.33,4.33,0,0,1,1-.46,4.41,4.41,0,0,1,1.08-.16,4.75,4.75,0,0,1,3.77,1.82,3.87,3.87,0,0,1,.49,4.15c-.17.32-.38.61-.57.91l-.61.76-1.25,1.49c-1.69,2-3.48,3.85-5.35,5.65l0-.65h0c1.46,1.83,3,3.6,4.62,5.28a15.56,15.56,0,0,1,1.24,1.37,4.31,4.31,0,0,1,.48.87,3.79,3.79,0,0,1-1.4,4.47,4.79,4.79,0,0,1-3.67,1.08,6.53,6.53,0,0,1-1-.27,5.61,5.61,0,0,1-.86-.49,11.06,11.06,0,0,1-1.35-1.26c-1.65-1.71-3.21-3.5-4.69-5.35l.67.07h0A84.26,84.26,0,0,1,173.71,129.64Z"/><path d="M205.12,103l3,2.93c1,1,2,2,3,3h0l.92.86-1,.92q-2.83,2.55-5.88,4.8l-1.53,1.1a2.67,2.67,0,0,0-.85,1,2.55,2.55,0,0,0,.4,2.56,3.07,3.07,0,0,0,2.5,1.3l.36,0c.12,0,.23-.08.35-.11a2.18,2.18,0,0,0,.68-.31,17.35,17.35,0,0,0,1.48-1c2-1.45,3.92-3,5.78-4.65h0l.42-.37.3.45,1.62,2.47.8,1.23a6.52,6.52,0,0,0,.82,1.08,3.18,3.18,0,0,0,2.25,1,3,3,0,0,0,2.22-1,3.84,3.84,0,0,0,1-2.35,2.36,2.36,0,0,0-.27-1.18c-.22-.37-.52-.8-.78-1.2l-3.22-4.87h0l-.2-.31.23-.29,3.84-4.78c.31-.39.66-.8.94-1.19l.34-.57.2-.62a2.83,2.83,0,0,0-.66-2.37,3.54,3.54,0,0,0-2.23-1.24,2.76,2.76,0,0,0-2.27.83c-.15.17-.28.3-.44.5l-.48.61-1,1.22-1.92,2.44v0l-.53.65-.57-.66c-1-1.2-2.1-2.37-3.14-3.56L210,99.54a5.7,5.7,0,0,0-.78-.73c-.13-.1-.29-.15-.43-.24a1.44,1.44,0,0,0-.45-.17,3.35,3.35,0,0,0-3.5,1.31,2.52,2.52,0,0,0-.55,1.73A2.88,2.88,0,0,0,205.12,103ZM204,104.15a4.29,4.29,0,0,1-1.2-2.62,3.91,3.91,0,0,1,.92-2.7,4.79,4.79,0,0,1,5-1.7,2.2,2.2,0,0,1,.66.25,3.7,3.7,0,0,1,.61.35,6.54,6.54,0,0,1,1,.88l1.62,1.79,3.28,3.52h-1.08l1.94-2.36,1-1.18.49-.59c.17-.2.39-.43.59-.64A4.05,4.05,0,0,1,222.09,98a4.73,4.73,0,0,1,3,1.73,4,4,0,0,1,.84,3.38c-.09.28-.19.56-.29.84s-.3.5-.46.74c-.32.44-.66.81-1,1.21l-4,4.76,0-.6v0l3.25,4.91c.27.42.54.79.81,1.26a3.32,3.32,0,0,1,.39,1.65,4.78,4.78,0,0,1-1.21,3,3.74,3.74,0,0,1-1.33,1,3.83,3.83,0,0,1-1.61.36,4.18,4.18,0,0,1-2.94-1.34,7.3,7.3,0,0,1-.94-1.25l-.8-1.22-1.6-2.43.72.07h0c-1.78,1.77-3.64,3.46-5.58,5-.51.4-.93.79-1.53,1.18a3.83,3.83,0,0,1-1,.52,4.88,4.88,0,0,1-.54.18l-.57.08a4.78,4.78,0,0,1-4-1.76,5.3,5.3,0,0,1-1-2,4,4,0,0,1,.17-2.4,4.63,4.63,0,0,1,1.43-1.9l1.44-1.18c1.89-1.56,3.7-3.22,5.43-5l-.1,1.79h0a40.05,40.05,0,0,0-2.44-3.33C205.86,106.18,204.94,105.15,204,104.15Z"/><path d="M240.55,105.72c-1.9,1.52-4,3.06-6,4.43a3.2,3.2,0,0,0-1.49,2.23,4,4,0,0,0,.54,2.74,2.17,2.17,0,0,0,2.21,1.11,1.93,1.93,0,0,0,.64-.21,4.17,4.17,0,0,0,.67-.37l1.39-1,5.6-3.77.38-.25.27.33c1.17,1.39,2.33,2.83,3.5,4.18a2.75,2.75,0,0,0,2,1,3.36,3.36,0,0,0,2.2-.81,3.57,3.57,0,0,0,1.23-2,2.93,2.93,0,0,0-.51-2.23,9.86,9.86,0,0,0-.81-1l-.88-1-1.74-2.11-.29-.35.34-.31c1.65-1.51,3.23-3.07,4.73-4.71l.56-.62.43-.58c.11-.21.19-.43.3-.64s.11-.46.15-.68a3.84,3.84,0,0,0-.76-2.66,2.53,2.53,0,0,0-2.2-1.15,2.73,2.73,0,0,0-.56.15,4.32,4.32,0,0,0-.53.34c-.17.18-.31.27-.51.5l-.57.63c-1.53,1.67-3.14,3.27-4.81,4.8h0l-.73.67-.64-.77-4.07-4.94c-.17-.19-.34-.42-.5-.6l-.44-.43c-.17-.09-.32-.21-.49-.3a3.74,3.74,0,0,0-.54-.17,2.81,2.81,0,0,0-2.22.67,2.92,2.92,0,0,0-1.13,2.09,2.58,2.58,0,0,0,.21,1.13,1.89,1.89,0,0,0,.31.53,5.32,5.32,0,0,0,.47.63C237.8,102,239.22,103.89,240.55,105.72Zm-1.74-.21c-1.4-1.44-2.7-2.81-3.93-4.28a5.14,5.14,0,0,1-.5-.64,3.76,3.76,0,0,1-.49-.85,3.53,3.53,0,0,1-.31-.95,3.82,3.82,0,0,1-.07-1,4.78,4.78,0,0,1,1.77-3.4A4.65,4.65,0,0,1,239,93.3a4.91,4.91,0,0,1,1,.3,7.77,7.77,0,0,1,.87.53c.25.21.47.45.71.68s.35.41.52.62l4.1,4.9-1.37-.1h0c1.69-1.44,3.32-2.94,4.87-4.52.66-.69,1.73-2,3.26-2a4,4,0,0,1,3.48,1.85,5.24,5.24,0,0,1,.91,3.69c-.07.31-.16.63-.25.94s-.28.59-.45.87-.39.51-.59.74l-.59.61c-1.58,1.62-3.25,3.15-5,4.61l.05-.67,1.75,2.11.88,1a10.43,10.43,0,0,1,.86,1.11,3.86,3.86,0,0,1,.66,3,4.5,4.5,0,0,1-1.56,2.57,4.28,4.28,0,0,1-2.83,1,3.71,3.71,0,0,1-2.73-1.33c-1.22-1.41-2.35-2.81-3.52-4.21l.65.08-5.52,4-1.38,1a5,5,0,0,1-.8.48,3.19,3.19,0,0,1-.94.34,4.07,4.07,0,0,1-1.05,0,3.44,3.44,0,0,1-1-.32,3.88,3.88,0,0,1-1.51-1.32,5.45,5.45,0,0,1-.85-3.73,4.72,4.72,0,0,1,2.07-3.3C235.37,107.63,237,106.59,238.81,105.51Z"/></g><g id="foot_2" data-name="foot 2"><path class="cls-9" d="M340.15,310.7c-15.39,22.38-26.44,38.52-32.69,64.95,0,0,16.74,3.35,27.62,7.53,5.86-15.06,21-43.39,36-55.23Z"/><path d="M338.91,310c-14.1,20.51-26.91,40.84-32.83,65.3a1.45,1.45,0,0,0,1,1.77,180.75,180.75,0,0,1,27.62,7.53,1.46,1.46,0,0,0,1.76-1,185.3,185.3,0,0,1,14.43-28.49c5.83-9.53,12.45-19,21.19-26.11a1.45,1.45,0,0,0-.29-2.26l-30.92-17.25a1.44,1.44,0,0,0-1.45,2.48l30.92,17.25-.29-2.26c-8.91,7.24-15.7,17-21.64,26.7a189.81,189.81,0,0,0-14.72,29.17l1.77-1a180.12,180.12,0,0,0-27.62-7.53l1,1.76c5.87-24.23,18.58-44.3,32.54-64.61C342.44,309.89,340,308.46,338.91,310Z"/><path class="cls-3" d="M371.9,328.79c-13.39,12.55-21.76,25.1-33.47,51.88,0,0,6.69-7.53,12.55-11.71a113.07,113.07,0,0,1,28.45-41.85Z"/><path d="M370.47,327.35c-15.76,14.62-26.2,33.47-33.85,53.36-.66,1.73,2.11,2.47,2.77.76,7.47-19.42,17.72-37.81,33.11-52.09,1.36-1.26-.68-3.28-2-2Z"/><path d="M371.92,327c-10.48-6-20.64-12.44-30.68-19.12-1.54-1-3,1.46-1.45,2.48,10,6.68,20.2,13.15,30.68,19.12a1.44,1.44,0,0,0,1.45-2.48Z"/><path d="M335.88,381.38c-8.53-2.25-16.67-5.68-25.49-6.75-1.83-.22-1.81,2.66,0,2.88,8.54,1,16.47,4.46,24.73,6.64a1.44,1.44,0,0,0,.76-2.77Z"/><path d="M339.13,308a181.86,181.86,0,0,0-33.47,68.52c-.44,1.79,2.33,2.56,2.77.76A178.71,178.71,0,0,1,341.16,310c1.13-1.44-.89-3.49-2-2Z"/></g><g id="body"><path d="M264.44,196.1q-66.3,13.56-133.65,21c-1.81.2-1.83,3.07,0,2.87q67.67-7.46,134.41-21.09c1.81-.37,1.05-3.13-.76-2.77Z"/><path d="M264.64,197.34c-5,26-9.26,52.19-14,78.27-4.15,23-9.65,46-11.58,69.31-.15,1.84,2.73,1.83,2.88,0,2-23.63,7.59-47,11.78-70.27,4.58-25.51,8.75-51.1,13.65-76.55.35-1.81-2.42-2.58-2.77-.76Z"/><path d="M93.92,193.64q3.14,41.78,6.42,83.54c1.54,19.59,3.15,39.71,7.33,58.94,1.21,5.54,5.15,9.39,8.82,13.62,6.3,7.25,12.73,14.38,19.1,21.56,1.23,1.39,3.26-.65,2-2l-16-18c-3.85-4.33-9.69-9.3-11-15.08-2.22-9.75-3.31-19.81-4.47-29.73-2.59-22.1-4.08-44.29-5.8-66.47q-1.78-23.15-3.56-46.3c-.13-1.83-3-1.85-2.87,0Z"/><path d="M136.84,365c-1.9-28.15-3.2-56.35-4.47-84.54-.65-14.24-1.26-28.48-1.71-42.72-.16-4.94-.31-9.88-.37-14.83,0-2.68.57-4.89-1.48-6.7-4.73-4.16-10.35-7.62-15.44-11.34-5.73-4.2-11.45-8.42-17.29-12.48-1.52-1.06-3,1.43-1.45,2.48,10.18,7.07,20.1,14.52,30.08,21.87,1,.71,2.55,1.46,3.29,2.42-1.09-1.42-.6,1.79-.58,3.17,0,4.69.18,9.37.32,14,.91,29.16,2.34,58.31,3.86,87.44.72,13.73,1.44,27.46,2.37,41.18.13,1.84,3,1.85,2.87,0Z"/><path d="M265.83,196.33c-12-2.9-23.54-7.34-35.4-10.78a1.44,1.44,0,0,0-.76,2.77c11.85,3.44,23.38,7.88,35.39,10.78,1.8.44,2.57-2.33.77-2.77Z"/><path d="M130.46,187.17c-11.9,1.08-23.7,3.38-35.53,5.08-1.82.26-1.05,3,.76,2.77,11.58-1.67,23.12-3.92,34.77-5,1.83-.17,1.85-3,0-2.88Z"/><path d="M239.29,344.29A462.25,462.25,0,0,1,137,367.57c-1.81.2-1.83,3.08,0,2.87a465.46,465.46,0,0,0,103.1-23.38c1.74-.61,1-3.38-.76-2.77Z"/></g><g id="leg_1" data-name="leg 1"><path class="cls-2" d="M190.59,376.2c-1.45-11.31-14.73-31.23-16.69-33.34-7.18-7.71-22.4-4.45-23.79,5.14-2.07,12.33,4.15,20.7,6.23,30.29Z"/><path d="M192,375.82c-1.4-9.15-6.57-17.91-11.37-25.67-3.58-5.8-6.95-11.51-14.25-12.76-6.9-1.18-15.38,1.91-17.41,9.19-3.13,11.16,3.53,21.62,6,32.09a1.47,1.47,0,0,0,1.39,1.06l34.25-2.09c1.84-.11,1.85-3,0-2.87l-34.25,2.09,1.38,1.05c-2.11-8.9-7.05-17.07-6.55-26.49.28-5.16,2.37-8.95,7.45-10.66a14.44,14.44,0,0,1,11.89,1.17c4.44,2.72,7.25,8.92,9.75,13.24,3.83,6.61,7.77,13.77,8.94,21.42C189.48,378.41,192.25,377.63,192,375.82Z"/></g><g id="foot_1" data-name="foot 1"><path class="cls-6" d="M156.48,365.74s46.37-5.15,65.49-3.25c2.5,3.57,6.72,10.69,9.34,13.16a476.1,476.1,0,0,0-67.37,5.44c-3.35-4.18-6.58-11.65-7.53-15.06"/><path class="cls-2" d="M163.94,381.09c-4.19,15.9-5,36.82-3.35,61.09-6.7-12.55-9.38-60.06-4.11-76.44Z"/><path class="cls-7" d="M230.22,439q-33.43,2.42-66.81,5.67s-1.68-11.32-2.08-17.38c-1.11-16.77.92-40.52,2.62-46.56,4.57-1.08,46.91-5,67.19-4.71-1.16,14-3,41-1.19,61.47"/><path d="M230.22,437.6q-33.43,2.41-66.81,5.66l1.39,1.06a195.46,195.46,0,0,1-2.22-35.19c.21-6.6.62-13.21,1.39-19.77a52.17,52.17,0,0,1,1.08-7.05c.39-1.55-.82.09-.18-.28a5.58,5.58,0,0,1,1.69-.26,419.11,419.11,0,0,1,64.58-4.28l-1.44-1.44c-1.67,20.39-2.85,41-1.18,61.47.15,1.83,3,1.84,2.87,0-1.67-20.43-.49-41.08,1.19-61.47a1.45,1.45,0,0,0-1.44-1.43c-13.38-.17-26.8.81-40.13,1.87-9,.72-18.55.95-27.44,2.88a1.43,1.43,0,0,0-1,1c-2.78,10.65-2.82,22.51-3,33.44A194.79,194.79,0,0,0,162,445.08a1.43,1.43,0,0,0,1.38,1.06q33.38-3.25,66.81-5.67c1.83-.14,1.84-3,0-2.87Z"/><path d="M157.14,368.83a48.48,48.48,0,0,0,4.1,9.88c.89,1.62,3.37.17,2.48-1.45a45,45,0,0,1-3.81-9.19,1.44,1.44,0,0,0-2.77.76Z"/><path d="M231.9,374.22a45,45,0,0,1-8.69-12.45,1.46,1.46,0,0,0-1.24-.72c-21.77-1.92-44.27.38-65.87,3.31a1.42,1.42,0,0,0-1,1c-3.73,12.18-3.14,26-2.54,38.58.59,12.14,1.31,25.28,5.29,36.88.59,1.73,3.37,1,2.77-.77-3.15-9.16-4-19.25-4.73-28.84a191.91,191.91,0,0,1,0-34.32c.23-2.23.53-4.46,1-6.66.2-1,.6-2,.7-3s-1.33.2-.55-.16c2.13-1,5.71-.71,8-1,11.15-1.25,22.35-2.2,33.57-2.6a150.51,150.51,0,0,1,20.37.14c3.16.31,3.69,3.22,5.45,5.72a59.23,59.23,0,0,0,5.5,6.84c1.28,1.34,3.31-.69,2-2Z"/></g><path class="cls-7" d="M109,225.83s8.52,1.69,9.36,27.64c.62,19.25-.84,32.64-5,28.45s-1.33-34.42-9.45-38.13S109,225.83,109,225.83Z"/><g id="arm_1-2" data-name="arm 1"><path class="cls-2" d="M50.12,315c2.23-11.06,4.17-23.49,9-33.69s12.54-19.47,22.94-23.86c8.43-3.56,18.39-3.89,25.51-9.64,3.83-3.1,6.52-7.83,6.34-12.76s-3.65-9.77-8.47-10.76l-5.38-.67a9.4,9.4,0,0,0-2.8.08C77.84,227.31,61.49,235.17,49.7,251c-13.2,17.68-17.53,43.63-18,65.69A44.85,44.85,0,0,1,50.12,315Z"/><path class="cls-3" d="M60.75,275.1c4-9.85,13.27-19.62,22.82-24.12,7.14-3.37,26.49-9.35,27.24-8.85,1.59,1.08-2.74,4.73-3.89,5.63-7.68,5.93-18.77,6.17-27.17,10.13a30.27,30.27,0,0,0-10.3,7.58c-1.47,1.82-3,3.78-4.23,5.43-.86,1.15-1.18,3.64-2.43,4.29C63,275.08,59.82,277.4,60.75,275.1Z"/><path class="cls-4" d="M51.38,292s-7.53-3.34-11.72,16.74c-.7,3.38-5.86,3.35-4.92,7.12a61.36,61.36,0,0,1,15-.42C45.52,313.72,56.4,293.64,51.38,292Z"/><path d="M98.26,222C78.16,225.73,60,235,48,251.93c-13,18.3-17.12,41.86-17.68,63.89,0,1.84,2.83,1.84,2.88,0,.53-21.07,4.35-43.38,16.38-61.15,11.56-17,29.64-26.22,49.5-29.86,1.81-.33,1-3.1-.77-2.77Z"/><path d="M105.05,225.65c6.86,2,9.06,9.71,5.94,15.72-2.8,5.43-8.29,8.25-13.88,10-8.45,2.67-16.76,4.1-24,9.62-16.25,12.44-20.9,33.37-24.73,52.34-.36,1.81,2.41,2.58,2.77.77,2.55-12.63,5.12-25.64,11.71-36.88S78.76,259.35,91.21,256c8.9-2.39,19-5.15,22.88-14.53,3.12-7.52-.21-16.3-8.28-18.6a1.44,1.44,0,0,0-.76,2.77Z"/><path d="M99.34,251.82c.81-10.71-3.2-22.07-14.12-25.59-1.93-.63-4.69.5-1.58,1.51,9.13,2.95,11.64,14.7,11,23.19-.11,1.4,4.61,2.1,4.7.89Z"/><path d="M81.27,259.58c1.46-10.93-4.32-21.46-15-24.87-1-.3.14.83.28,1a6.55,6.55,0,0,0,2.65,1.93c7.55,2.41,9.33,11.88,8.39,18.9-.17,1.26,3.74,2.88,3.72,3Z"/><path d="M67.51,270.27c.24-10-6.06-18.82-16.27-20.14a2.1,2.1,0,1,0-.56,4.16c5.26.68,9.1,3.42,11,8.43a24,24,0,0,1,1.22,6.58c-.06,2.63,4.58,3.77,4.65,1Z"/><path d="M58.2,287.32c-3.72-7.34-10.78-14.66-19.6-14.24-3.13.14-1,3.57,1.28,3.46,6.33-.3,11.51,6.2,13.88,10.86.89,1.77,5.59,2.18,4.44-.08Z"/><path d="M50.47,306.41a23.3,23.3,0,0,0-18.24-7.67c-1.24.07.92,4.1,2.31,4,5.47-.3,11.62,1.72,15.24,5.72,2.19,2.42,2-.56.69-2.07Z"/></g><g id="leg_2" data-name="leg 2"><path class="cls-3" d="M309.74,347.6s-6,14.11-6.62,24c-5-2.32-39.73-16.93-77.65-22.58-6-.71-13.76-5.37-8.13-16.59,6-12,34.16-3.93,34.16-3.93S303.12,340.54,309.74,347.6Z"/><path class="cls-2" d="M216.24,341.34c28-.87,81.61,20.83,88.09,23.21,1.52-4.48,5.42-16.95,5.42-16.95a9,9,0,0,0-1.38-1.13c-6.54-3-13.63-5.79-20.94-8.32-16.54-5.14-35.93-9.66-35.93-9.66s-.85-.25-2.28-.58c-4.33-.81-8.52-1.47-12.5-1.94-7.8-.53-15.46-1.37-19.38,6.46C215.39,336.31,215.41,338,216.24,341.34Z"/><path class="cls-7" d="M215.89,337.1c24.4-.76,69.63,14.34,85.26,19.85a5.11,5.11,0,0,0,6.52-3.19l2.08-6.16a9,9,0,0,0-1.38-1.13c-6.54-3-13.63-5.79-20.94-8.32-16.54-5.14-35.93-9.66-35.93-9.66s-.85-.25-2.28-.58c-4.33-.81-8.52-1.47-12.5-1.94-7.8-.53-16.36.45-19.38,6.46C217.11,332.88,216.07,336.67,215.89,337.1Z"/><path d="M310.77,346a261.26,261.26,0,0,0-48.27-16.7,223.77,223.77,0,0,0-23.25-4.46c-6.13-.83-12.58-2.1-18.2,1.23-8.22,4.86-9.76,18.4-.45,22.85,5.35,2.55,12.06,2.79,17.81,3.85,7.61,1.4,15.36,2.59,22.81,4.72,13,3.73,26.33,8.3,38.47,14.27,1.65.82,3.11-1.66,1.45-2.48-19.83-9.75-41.22-15.47-62.83-19.44-5.22-1-11.37-1.19-16.26-3.4-6-2.73-6.47-11.08-2.22-15.77,5-5.47,12.79-3.85,19.24-3,7.09,1,14.12,2.35,21.08,4a258.4,258.4,0,0,1,49.17,16.79c1.66.77,3.13-1.71,1.45-2.48Z"/></g><g id="hand_1-2" data-name="hand 1"><path class="cls-5" d="M50.12,315a30.8,30.8,0,0,1,13.2,5.64A23.06,23.06,0,0,1,71.85,338c.21,10-1.54,19.3-11.21,26.84-4,3.1-9.11,4.23-14.1,4.95-9.41,1.35-21.66-1.42-27.49-14.24-3.39-7.46-4.13-17.62-.71-25.07s6.39-12.1,13.53-13.95A45.94,45.94,0,0,1,50.12,315Z"/><path class="cls-5" d="M72.72,335.9c4.18-.84,10-1.67,11.71-.84a38.24,38.24,0,0,0-2.87,10.76c-3.46,0-6.22.09-9.68.12A40.58,40.58,0,0,0,72.72,335.9Z"/><path class="cls-5" d="M41.28,369.19l1.41,13.6h1.14a17.12,17.12,0,0,0,9-1.9s-2.38-8.49-2.09-13.13Z"/><path class="cls-5" d="M15.81,340.92c-4.59,1.75-14.37,5.65-14.37,5.65V356a103.51,103.51,0,0,1,15.72-4.7C15.78,348.42,15.81,345.94,15.81,340.92Z"/><path class="cls-5" d="M67.61,357.63A58.73,58.73,0,0,0,74,363.94c-2.3,1.53-3.15,3-4.77,5.24l-.11,0a26.5,26.5,0,0,1-6.24-5.42A23.71,23.71,0,0,0,67.61,357.63Z"/><path class="cls-5" d="M22.73,362.36c-1.36,2.06-4.94,6.16-4.94,6.16,1.58,1.38,4.9,4.77,4.9,4.77,2-2.3,3.65-4.12,5.67-6.43Z"/><path class="cls-6" d="M49.44,329.44a39.67,39.67,0,0,1,1.12,15.75l9.6,2.43c.84-5.86,1.68-14.23-2.51-17.55A37.69,37.69,0,0,0,49.44,329.44Z"/><path d="M71.87,337.05c3.9.14,7.82.28,11.73.29l-1.44-1.44a47,47,0,0,1-2,9.54l1.39-1.05c-3.23,0-6.45.09-9.68.12a1.44,1.44,0,0,0,0,2.87c3.23,0,6.45-.09,9.68-.12a1.48,1.48,0,0,0,1.38-1.05A51.66,51.66,0,0,0,85,335.9c.11-.77-.74-1.43-1.43-1.44-3.91,0-7.83-.14-11.73-.29-1.85-.07-1.85,2.81,0,2.88Z"/><path d="M40.32,370.21c0,4.22.5,8.39.93,12.58a1.49,1.49,0,0,0,1.44,1.44,23.08,23.08,0,0,0,10.83-2.09,1.4,1.4,0,0,0,.71-1.24A60.93,60.93,0,0,0,52.34,369c-.43-1.79-3.2-1-2.77.77a56.86,56.86,0,0,1,1.79,11.14l.71-1.24c-3.06,1.49-6,1.71-9.38,1.69l1.44,1.44c-.44-4.19-.91-8.36-.94-12.58a1.44,1.44,0,0,0-2.87,0Z"/><path d="M16.1,339.73c-5,1.89-10,3.68-15,5.46A1.45,1.45,0,0,0,0,346.57a46.52,46.52,0,0,0,1,9,1.46,1.46,0,0,0,1.77,1c4.93-1.23,9.85-2.47,14.74-3.85a1.44,1.44,0,0,0-.77-2.77C11.89,351.29,7,352.53,2,353.76l1.76,1a42.66,42.66,0,0,1-.93-8.2l-1,1.39c5-1.79,10.06-3.57,15.05-5.46,1.71-.65,1-3.43-.77-2.77Z"/><path d="M66.68,357.84a68.1,68.1,0,0,1,5.63,7.24l.23-1.74-4.46,4.84,1.74-.22a70.21,70.21,0,0,1-6-5.2c-1.33-1.28-3.36.75-2,2a78.14,78.14,0,0,0,6.54,5.65,1.43,1.43,0,0,0,1.74-.23l4.46-4.84a1.45,1.45,0,0,0,.22-1.74,70.85,70.85,0,0,0-6.08-7.82c-1.29-1.33-3.32.7-2,2Z"/><path d="M20.65,361.64l-4.08,6.16,1.62-.66h0a1.45,1.45,0,0,0-1.4,2.4c1.71,1.51,3.31,3.14,4.91,4.76a1.45,1.45,0,0,0,2,0l6.08-6.9c1.21-1.38-.81-3.42-2-2l-6.07,6.9h2c-1.6-1.62-3.2-3.25-4.91-4.76l-1.39,2.4h0a1.44,1.44,0,0,0,1.62-.66l4.08-6.16c1-1.55-1.46-3-2.48-1.45Z"/><path d="M31.05,315c-22.74,8.24-21.33,45.58,0,54.69,9.68,4.14,23.24,2.66,31.45-4,9.29-7.51,13.62-21.77,10.08-33.28-4.1-13.36-17-19.11-29.95-19.16-2.21,0-2.06,3.49,0,3.5,5.67,0,11.07.6,16.1,3.43a22.08,22.08,0,0,1,11.56,19.1c.21,15-8.25,26.48-23.34,28.7-12.59,1.85-24.09-4.2-27.79-16.83-3.61-12.35.58-28.27,13.58-33,1.94-.71.32-3.91-1.63-3.2Z"/></g><path d="M377.16,327.35c-7.15,7.32-13.11,16.22-18.56,24.81-1.67,2.63-3.28,5.3-4.79,8-1.39,2.51-2.41,5.94-4.22,8.19-1.56,1.93-3.93,3.54-5.64,5.39-2.4,2.59-4.69,5.27-7,8-1.18,1.41.84,3.45,2,2,2.27-2.7,4.56-5.39,7-8,1.78-1.92,4.44-3.65,6-5.65,1.31-1.67,2-4.18,3-6.09,1.52-2.93,3.19-5.79,4.92-8.59,5.61-9.07,11.8-18.43,19.28-26.09,1.3-1.32-.73-3.35-2-2Z"/><path d="M379.52,324.61c-2.93.6-5.88,1.17-8.75,2-1.77.52-1,3.3.76,2.77,2.87-.86,5.82-1.43,8.75-2,1.81-.38,1-3.15-.76-2.77Z"/><path d="M380.91,325a99,99,0,0,0-21.51-15.56c-6.27-3.49-11.58-4.61-18.74-2.69a1.44,1.44,0,0,0,.77,2.77,25.17,25.17,0,0,1,9.59-.69c3.11.49,6.21,2.64,8.92,4.23a95,95,0,0,1,18.94,14c1.32,1.3,3.35-.73,2-2Z"/><path class="cls-7" d="M134.12,157.92c1.44-.78,1.15-6.37.23-8.19-.61-1.21-4.72-3.26-5.32.42S132.37,158.87,134.12,157.92Z"/><path class="cls-6" d="M127.94,146.61c-2.38-1.93-9.15-5.55-9.15-5.55l-3.1-21.54s7.36-6.07,11.75-9.91l3.33.53,2.87,35.69Z"/><path class="cls-7" d="M127.94,146.61l-3.83-3.09c2.26-3.58,1.89-18.84-1.9-23.63,4-3.72,5.76-5.93,7.65-10.52,1.64,9.77,2.83,24.57,3.78,36.46Z"/><path d="M129.4,110.14l2.87,35.69c.14,1.76,2.89,1.77,2.75,0l-2.87-35.69c-.14-1.75-2.89-1.76-2.75,0Z"/><path d="M120.05,121.53a41.44,41.44,0,0,1,2.17,16.54c-.07,1.32,2,1.32,2.06,0A42.72,42.72,0,0,0,122,121c-.44-1.24-2.43-.71-2,.55Z"/><path d="M128.28,107.73A71.23,71.23,0,0,1,115,118.33a1.41,1.41,0,0,0-.63,1.56,69.23,69.23,0,0,1,3,21.17,1.39,1.39,0,0,0,.68,1.18,69.83,69.83,0,0,1,9.16,5.56c1.41,1.06,2.79-1.32,1.39-2.38a58,58,0,0,0-6.44-4c-3.07-1.74-2-1.16-2.19-4.69a71.85,71.85,0,0,0-3-17.53l-.63,1.56c4.88-3.22,9.86-6.73,13.84-11,1.21-1.3-.74-3.25-1.94-2Z"/><path d="M162.54,241.29a52,52,0,0,1-14.41,1.9,1,1,0,0,0,0,2.06,54.36,54.36,0,0,0,15-2,1,1,0,0,0-.55-2Z"/><path d="M145.27,228.87a131,131,0,0,0,18-2.92l-1.27-.72c1.19,5.06,1.95,10.8.92,16-.27,1.3,1.72,1.85,2,.55,1.12-5.54.38-11.59-.91-17a1.05,1.05,0,0,0-1.27-.72,127.86,127.86,0,0,1-17.48,2.85c-1.31.09-1.32,2.15,0,2.06Z"/><path d="M143.62,229.13a32.09,32.09,0,0,1,1,15.86c-.24,1.3,1.75,1.86,2,.55a34.25,34.25,0,0,0-1-17c-.4-1.26-2.39-.72-2,.55Z"/><path class="cls-5" d="M154.13,230.67c5.47-1.27,7.06,3.45,6.14,5.28a5,5,0,0,1-4.13,3.14,5.3,5.3,0,0,1-5.26-2.5C149.88,234.78,151.1,231.37,154.13,230.67Z"/><path d="M154.31,231.33c1.95-.39,4.14-.12,5.12,1.84a3.36,3.36,0,0,1-.94,4.15c-1.91,1.79-5.82,1.43-7-1.08-1-2.11.91-4.35,2.84-4.91A.69.69,0,0,0,154,230c-2.64.76-4.91,3.64-3.88,6.47,1.13,3.1,5.39,4.11,8.12,2.72a5,5,0,0,0,2.63-6.27c-1.16-2.84-4.12-3.47-6.87-2.92C153.08,230.18,153.45,231.5,154.31,231.33Z"/><path d="M156.56,233.82a24.61,24.61,0,0,1-1.22-4.72c-.26-1.3-2.25-.75-2,.55a26.27,26.27,0,0,0,1.42,5.21c.52,1.22,2.3.17,1.78-1Z"/></g></g></svg>