<svg xmlns="http://www.w3.org/2000/svg" xmlns:xlink="http://www.w3.org/1999/xlink" viewBox="0 0 435.75 510.91"><defs><style>.cls-1{fill:url(#radial-gradient);}.cls-2{fill:#999;}.cls-3{fill:#1e1e1e;}.cls-4{fill:gray;}.cls-5{fill:#fff;}.cls-13,.cls-6{fill:#e10b31;}.cls-7{fill:#ccc;}.cls-8{fill:#585858;}.cls-9{fill:#d6d6d6;}.cls-10{fill:#d8d8d8;}.cls-11{fill:#fafafa;}.cls-12{fill:#161616;}.cls-13,.cls-19{stroke:#000;stroke-miterlimit:10;}.cls-13{stroke-width:0.9px;}.cls-14{fill:#903;}.cls-15{fill:#b3b3b3;}.cls-16{clip-path:url(#clip-path);}.cls-17{fill:blue;}.cls-18{fill:#009;}.cls-19{fill:#666;stroke-width:1.8px;}</style><radialGradient id="radial-gradient" cx="212.07" cy="315.64" fx="234.6833181410029" fy="338.1624695330964" r="48.12" gradientUnits="userSpaceOnUse"><stop offset="0" stop-color="#009"/><stop offset="0.01" stop-color="#0008a9"/><stop offset="0.03" stop-color="#0015c4"/><stop offset="0.05" stop-color="#0020da"/><stop offset="0.08" stop-color="#0029eb"/><stop offset="0.11" stop-color="#002ff6"/><stop offset="0.15" stop-color="#0032fd"/><stop offset="0.27" stop-color="#03f"/><stop offset="0.34" stop-color="#0031f5"/><stop offset="0.44" stop-color="#002bd9"/><stop offset="0.58" stop-color="#0023ad"/><stop offset="0.74" stop-color="#00166f"/><stop offset="0.93" stop-color="#000721"/><stop offset="1"/></radialGradient><clipPath id="clip-path"><path class="cls-1" d="M164.19,267.28s10.54,65.11,12.45,73.73c9.58,6.7,83.31,23,83.31,23v-76.6S191,274,164.19,267.28Z"/></clipPath></defs><title>robot-hero</title><g id="Layer_2" data-name="Layer 2"><g id="Long_Page_cz.1" data-name="Long Page cz.1"><g id="arm_1" data-name="arm 1"><path class="cls-2" d="M67.58,191c6.17,9.7,12.57,20.81,20.9,28.74s19.07,13.92,30.57,14.28c9.32.3,18.92-3,27.79-.19,4.78,1.54,9.08,5.06,10.72,9.81s.1,10.63-4.12,13.34l-4.87,2.61a9.12,9.12,0,0,1-2.68.95c-19.8,3.67-38.24,2.19-55.23-8.5-19-12-32.68-35.07-41.21-55.88A45.67,45.67,0,0,0,67.58,191Z"/><path class="cls-3" d="M92.31,225c7.41,7.9,19.82,13.78,30.55,14.57,8,.58,28.62-.83,29.15-1.58,1.12-1.61-4.34-3.5-5.76-3.92-9.48-2.83-20.12,1-29.56.32A31,31,0,0,1,104.11,231c-2.06-1.2-4.23-2.5-6-3.62-1.23-.78-2.46-3-3.89-3.19C94.46,224.21,90.58,223.17,92.31,225Z"/><path class="cls-4" d="M77.21,212.41s-5.93,6-17.28-11.62c-1.91-2.95-6.8-1-7.28-5A62.81,62.81,0,0,0,67,190.74C63.66,193.87,81.37,209,77.21,212.41Z"/><path d="M146.94,259c-16.69,3.24-34,2.45-49.44-5.3-14.44-7.28-25.59-19.51-34.13-33a155.17,155.17,0,0,1-12.31-24c-.65-1.58-3.26-.89-2.6.72,6.27,15.25,14.53,30,25.87,42.06,11.66,12.43,26.78,21.13,43.78,23.45a90.53,90.53,0,0,0,29.55-1.25c1.7-.33,1-2.93-.72-2.6Z"/><path d="M154.12,258.14c6.24-4.18,6.94-13.06,2.64-18.88-5.21-7.07-14-8.42-22.27-7.77-4.69.36-9.35,1.17-14.07,1.19a37.23,37.23,0,0,1-12.58-2.21c-8-2.84-15-8.07-20.9-14.19-7.07-7.4-12.59-16.07-18.06-24.67-.93-1.46-3.27-.11-2.33,1.36,9,14.16,18.64,29,33.88,37.15a43,43,0,0,0,23.45,5.12c8.44-.6,18-3.16,25.82,1.31,3.45,2,6.36,5.24,7,9.26a10.17,10.17,0,0,1-4,10c-1.44,1-.09,3.3,1.36,2.33Z"/><path d="M133.74,235l.21.47c.08.17.15.35.23.53l.13.33s-.13-.37,0,.05A42.66,42.66,0,0,1,135.8,241c1,4.16,1.4,8.66,0,12.83a13.74,13.74,0,0,1-4.79,6.52c-1.91,1.48,1,4.9,2.93,3.42,8.42-6.49,7.8-18.13,4.49-27.19-.37-1-.76-2-1.23-3-1.16-2.41-4.74-1.24-3.47,1.4Z"/><path class="cls-5" d="M115.63,255.77c-18.39-4-33.85-17.18-44.61-32.17a94.07,94.07,0,0,1-7.36-12c-.87-1.71-5-1.94-3.78.5A99.55,99.55,0,0,0,75.5,234.27,88.74,88.74,0,0,0,99.39,253a64,64,0,0,0,16,5.9c.85.18,2.1.14,2.22-1s-1.17-2-2-2.15Z"/><path d="M114.68,232.93a27.09,27.09,0,0,1,2.94,9c.9,6.2-1,12.11-6.07,16-.11.08,2.8,3.45,3.28,3.08,5-3.89,6.92-9.74,6.08-15.94a27,27,0,0,0-3-9.28,8.43,8.43,0,0,0-1.89-2,4,4,0,0,0-1.06-.84s-.44-.25-.3,0Z"/><path d="M96.3,228.5c2,4.84,2.14,11.35-.71,15.91a15.43,15.43,0,0,1-6.11,5.44c-.87.46.29,1,.73,1.12a4.68,4.68,0,0,0,3.09-.07,15.75,15.75,0,0,0,8.54-10.6,20.63,20.63,0,0,0-.49-9.81,19.26,19.26,0,0,0-.69-2.11c-.45-1.07-4.81-.94-4.36.12Z"/><path d="M81.35,216.12a28,28,0,0,1-.91,4.64,29.87,29.87,0,0,1-1.61,4.51,18.53,18.53,0,0,1-1.1,2.13c-.22.34-.44.69-.68,1a6.55,6.55,0,0,1-.39.53l-.29.37a13.55,13.55,0,0,1-1,1c.29-.27-.22.19-.32.26l-.22.18c-.21.18.31-.2,0,0s-.42.29-.64.42c.38-.23-.11.05-.25.12s-.41.2-.19.1-.17.07-.2.08-.67.25-.59.23a4.82,4.82,0,0,0-2.64,1.77c-.44.66-.2,1.3.69,1,8.25-2.5,12.4-10.43,13.9-18.39.13-.69.25-1.4.32-2.1.08-.9-1.62-.18-1.91,0-.73.38-1.86,1.13-2,2.05Z"/><path d="M68.15,198.11a18.46,18.46,0,0,1-1.7,3.27c-.15.23-.3.46-.46.69l-.1.15c.12-.18,0,0,0,0l-.3.43c-.41.54-.84,1.07-1.29,1.57a21.17,21.17,0,0,1-1.55,1.59A15.24,15.24,0,0,1,61,207.26a19.62,19.62,0,0,1-2.41,1.47l-.06,0-.34.15-.78.34-.72.27-.28.1c.4-.14-.21.06-.23.07-.54.16-2,.69-1.42,1.5s2.12.65,2.84.43a23.62,23.62,0,0,0,14.35-12.13,13.92,13.92,0,0,0,.59-1.3c.56-1.49-3.86-1.46-4.38-.08Z"/></g><g id="hand_1" data-name="hand 1"><path class="cls-6" d="M67.58,191a31.59,31.59,0,0,0,10.48-10.21,23.51,23.51,0,0,0,1.73-19.68c-3.46-9.56-8.54-17.79-20.5-21.41-4.91-1.49-10.22-.68-15.22.47-9.45,2.16-20.09,9.29-20.93,23.61-.49,8.35,2.53,18.28,8.52,24.11s10.52,9.17,18,8.31C56,195.47,61.52,194.24,67.58,191Z"/><path class="cls-6" d="M81.39,162.8c4.29-.74,10.17-2.09,11.45-3.5a39,39,0,0,1-6.68-9.18c-3.3,1.24-6,2.2-9.24,3.44A41.23,41.23,0,0,1,81.39,162.8Z"/><path class="cls-6" d="M39.29,142.67l-3.65-13.45,1.09-.42a17.27,17.27,0,0,1,9.21-1.49s.86,8.95,2.83,13.26Z"/><path class="cls-6" d="M25.43,178.9c-5,0-15.74-.1-15.74-.1l-3.45-9a105.78,105.78,0,0,0,16.67-1.3C22.65,171.77,23.59,174.12,25.43,178.9Z"/><path class="cls-6" d="M68.57,144a58.93,58.93,0,0,1,3.74-8.33c-2.76-.62-4.11-1.7-6.47-3.24l-.1,0a27.09,27.09,0,0,0-4,7.45A24,24,0,0,1,68.57,144Z"/><path class="cls-6" d="M24.15,156c-2-1.45-7-4.05-7-4.05,1-1.89,2.92-6.33,2.92-6.33l7.75,4Z"/><path class="cls-5" d="M61.62,177.49a40.08,40.08,0,0,0-4.71-15.39l8.25-5.84c2.94,5.27,6.81,12.92,4,17.62A38.24,38.24,0,0,1,61.62,177.49Z"/><path d="M81.37,164.56c3.56-1.53,7.12-3.05,10.73-4.45a1.37,1.37,0,0,0,.81-2,49.35,49.35,0,0,0-5.79-9,1.34,1.34,0,0,0-1.32-.35c-3.08,1.16-6.17,2.28-9.24,3.44a1.39,1.39,0,0,0-1,1.66,1.36,1.36,0,0,0,1.66.94c3.08-1.16,6.17-2.28,9.25-3.44l-1.31-.34a47.06,47.06,0,0,1,5.37,8.41l.8-2c-3.83,1.48-7.6,3.09-11.37,4.72a1.36,1.36,0,0,0-.49,1.84,1.38,1.38,0,0,0,1.85.49Z"/><path d="M40.66,141.17a128.26,128.26,0,0,1-3.72-12.31L36,130.52a37.61,37.61,0,0,1,3.84-1.42,16.51,16.51,0,0,1,6.1-.44l-1.3-1A55.6,55.6,0,0,1,47.07,139a1.4,1.4,0,0,0,1.35,1.35c.66,0,1.45-.63,1.35-1.35a59.17,59.17,0,0,0-2.52-12,1.43,1.43,0,0,0-1.31-1,18.89,18.89,0,0,0-6.57.47,32.72,32.72,0,0,0-4.09,1.49,1.38,1.38,0,0,0-.94,1.66,125.47,125.47,0,0,0,3.72,12.31,1.39,1.39,0,0,0,1.66.94,1.35,1.35,0,0,0,.94-1.66Z"/><path d="M26,177.12c-5.43,0-10.87.18-16.31.33l1.3,1a42,42,0,0,1-2.16-8.16l-1.35,1.35c5.13-.64,10.27-1.28,15.43-1.74,1.71-.15,1.73-2.85,0-2.7-5.16.46-10.3,1.1-15.43,1.74-.65.08-1.45.56-1.35,1.35a44.58,44.58,0,0,0,2.26,8.87,1.4,1.4,0,0,0,1.3,1c5.44-.16,10.88-.31,16.31-.33a1.35,1.35,0,0,0,0-2.7Z"/><path d="M70.11,145.43a71.53,71.53,0,0,0,3-9.64,1.37,1.37,0,0,0-.62-1.52l-6-3a1.38,1.38,0,0,0-1.85.48,72.66,72.66,0,0,0-3.95,7.45,1.39,1.39,0,0,0,.48,1.85,1.36,1.36,0,0,0,1.85-.49,73.71,73.71,0,0,1,4-7.45l-1.85.49,6,3-.62-1.52a66.77,66.77,0,0,1-2.67,9,1.39,1.39,0,0,0,.48,1.84,1.36,1.36,0,0,0,1.85-.48Z"/><path d="M24,155.11l-6.14-4.37a1.37,1.37,0,0,0-1.64.22h0l2.12,1.64c1.08-2.06,2-4.21,2.91-6.34l-1.85.49,8.32,4.33a1.35,1.35,0,0,0,1.36-2.33l-8.31-4.33a1.36,1.36,0,0,0-1.85.48C18,147,17.11,149.19,16,151.24a1.36,1.36,0,0,0,2.12,1.64v0l-1.63.22,6.14,4.36a1.36,1.36,0,0,0,1.85-.48,1.39,1.39,0,0,0-.49-1.85Z"/><path d="M49.15,194.62a19.67,19.67,0,0,1-13.85-4.87,28.34,28.34,0,0,1-9.44-13.34c-3.26-10-1.77-21.32,6.35-28.48A28.5,28.5,0,0,1,43.49,142c6.11-1.68,12.44-2.29,18.45,0a25.72,25.72,0,0,1,11.56,8.67A34,34,0,0,1,77,156.66a30,30,0,0,1,2.62,7.45c1.16,6.78-1.49,14.07-5.93,19.18a24.31,24.31,0,0,1-7.59,6.08c-2.11,1-4.21,2-6.4,2.86-1.16.45.25,3.51,1.49,3,2.18-.84,4.29-1.83,6.4-2.86a25.06,25.06,0,0,0,7.18-5.52,27.13,27.13,0,0,0,7.35-17.7c.12-6-2.36-11.88-5.33-17A30.17,30.17,0,0,0,65.63,141a29,29,0,0,0-8.58-3.28,29.28,29.28,0,0,0-10.8.34,33.46,33.46,0,0,0-13.84,5.53,24.89,24.89,0,0,0-8.93,11.89A32.07,32.07,0,0,0,22.92,173a33.53,33.53,0,0,0,10.21,17.69,30.73,30.73,0,0,0,7.76,5.43,20.47,20.47,0,0,0,9.24,1.61c1.4-.06.24-3.19-1-3.14Z"/></g><path class="cls-7" d="M132.59,227.06s122.58,22,155.13,23.94c0,53.62-3.83,107.25-8.38,172a523,523,0,0,1-117.54-26.7Z"/><path class="cls-2" d="M198.19,388.41c12.45,9.58,29.53,12.23,36.39,7.66,11.49-7.66,15.32-14.36,35.43-3.83,13.4-1.91,13.4-31.6,13.4-31.6l-3.83,54.59c-46-2.88-83.58-14.34-117.78-26.65l-8.62-40.39a134,134,0,0,0,7.66,15.32C170.42,379.79,182.87,360.64,198.19,388.41Z"/><path class="cls-8" d="M287.25,410.44c.95-28.73-3.11-71.24-6.72-19.72-.38,5.34-2.86,14.93-10.52,16.84-2.87-10.53-5.69-13.81-9.58-14.36-9.3-1.32-17.7-3.52-23.94,0-4.44,2.51-5.74,11.49-13.4,10.53-15.79-2-25.86-5.74-28.73-9.57-1.92-10.54-4.79-21.07-16.28-21.07-5.91,0-16.89,4.28-17.9-1.55,0,0-13-65.69-11.79-51.12l13.41,75.65a511.2,511.2,0,0,0,116.83,26.82Z"/><path class="cls-5" d="M288.68,251c2.87-2.88,37.35-28.73,37.35-28.73,1,14.36-8.62,141.72-15.32,166.62L281,422.41Z"/><path class="cls-8" d="M284.37,219.88c-2.28,3.32-10.53,12.44-23,10.53-22.87-3.52-71.82-6.7-86.18-8.62-5.75-1-11.24-1.84-32.57,4.82,19.33,4,52.65,8.67,72,12,1.84.3,20.07,3.59,22.66,4,15.53,2.44,46.49,5.5,50,6,.52-.62,22.53-18,32.52-24C299.81,223.33,285.5,218.23,284.37,219.88Z"/><g id="HEAD"><path class="cls-4" d="M259.57,205.45s6.35,6.71,9.58,11.87c-37.73-4.31-86.78-7.81-124.55-10.46l-.31.06c-1.91-4.32-5.53-7.8-8.5-11.34Z"/><path class="cls-5" d="M268.08,65.69c1.8,1.74,13.59,23.86,32.35,36.56l1.89,71.08c-13.82,12.49-30.84,41-33.17,43Z"/><path class="cls-9" d="M135.31,193.2c.46-18.66-3.61-82.29-5.7-100.78l125.47-7.58v1.39c4.81,31.31,4.51,106.58,3.5,118.21L136.2,194.61Z"/><path d="M136.66,193.2c.29-12.33-.5-24.74-1.15-37q-1.19-23-3-46c-.46-5.92-.93-11.84-1.59-17.73l-1.35,1.35,12.5-.76,30-1.81L208.27,89l31.37-1.9,10.3-.62a33.65,33.65,0,0,0,4.93-.3h.21l-1.35-1.35c0,3.2.7,6.45,1,9.64.44,4.09.78,8.19,1.08,12.29.66,9.35,1.07,18.72,1.37,28.08q.86,26.75.52,53.51c-.07,5.35-.06,10.75-.52,16.08l1.35-1.35-12.19-1-29.26-2.35-35.27-2.83-30.6-2.46-10-.8a43.29,43.29,0,0,0-4.82-.39l-.21,0,1.16.67-.88-1.41c-.93-1.46-3.26-.11-2.34,1.37.56.88,1,1.9,2.07,2.07.11,0,.23,0,.34,0,.63.06,1.27.1,1.91.15l8.25.67,28.82,2.31,36.06,2.9L243,204.54l10.44.84c1.63.13,3.28.36,4.92.39l.21,0a1.38,1.38,0,0,0,1.35-1.35c.39-4.56.41-9.16.48-13.73.14-7.89.15-15.78.11-23.68-.11-19.06-.52-38.15-1.76-57.18-.3-4.63-.65-9.25-1.12-13.86-.21-2-.43-4-.69-6a38.59,38.59,0,0,1-.51-5.1,1.36,1.36,0,0,0-1.35-1.35l-12.5.75-30,1.82-36.16,2.18-31.37,1.9c-5.07.3-10.16.5-15.23.92h-.21c-.66,0-1.43.59-1.35,1.35,1.38,12.26,2.15,24.61,3,36.92,1,15.34,1.91,30.69,2.46,46,.21,5.94.42,11.89.28,17.82A1.35,1.35,0,0,0,136.66,193.2Z"/><path class="cls-10" d="M269.91,215.19c3.28-64.18.13-147.56-3.2-148.77-2.3,3.83-7.88,12.32-11.63,18.42l5.5,119.61s5.35,6.7,8.57,11.87Z"/><polygon class="cls-11" points="151.13 76.5 264.93 66.72 255.08 84.49 131.48 91.71 151.13 76.5"/><path d="M253.72,86.23c1.31,15.67,2.35,31.35,3,47.05q.94,22.49.87,45,0,13.08-.38,26.16a1.35,1.35,0,0,0,2.7,0c.37-15.22.49-30.45.25-45.68s-.85-30.26-1.77-45.38q-.84-13.57-2-27.15c-.14-1.71-2.84-1.73-2.7,0Z"/><path d="M131.82,92.53A225.49,225.49,0,0,0,151.74,77.8c1.33-1.12-.59-3-1.91-1.91A219.84,219.84,0,0,1,130.46,90.2c-1.45,1-.1,3.29,1.36,2.33Z"/><path d="M267.54,64.25c-14.36,2.06-28.81,3.59-43.25,5-15.7,1.51-31.42,2.82-47.14,4.12q-12.84,1.07-25.67,2.15c-1.72.14-1.73,2.84,0,2.7,15.5-1.33,31-2.56,46.51-3.89s31.15-2.75,46.69-4.48c7.87-.88,15.74-1.85,23.58-3,1.72-.25,1-2.85-.72-2.61Z"/><path d="M265.41,66.06a27.07,27.07,0,0,1-4.65,8.34,114,114,0,0,0-6.85,9.76,1.35,1.35,0,0,0,2.34,1.36,116.81,116.81,0,0,1,7-10A28.3,28.3,0,0,0,268,66.78a1.35,1.35,0,0,0-2.61-.72Z"/><path d="M267.12,66.65a28.54,28.54,0,0,1,2.35,2.8c1.56,1.94,3.11,3.88,4.68,5.81,4.78,5.88,9.69,11.65,14.82,17.22,3.4,3.68,6.89,7.26,10.51,10.72l-.4-1,.64,24.11,1,38.15.23,8.82.4-1c-11,12.13-20.26,25.61-29.87,38.8a24.86,24.86,0,0,1-3.3,4.2c-1.31,1.15.61,3,1.91,1.9a24.76,24.76,0,0,0,3.27-4.13c2-2.7,3.92-5.43,5.87-8.14,5.49-7.63,11.05-15.2,17-22.48,1.53-1.87,3.08-3.73,4.66-5.55.75-.86,1.52-1.69,2.26-2.55a1.83,1.83,0,0,0,.52-1.13,16.31,16.31,0,0,0-.05-2l-.3-11.17-.94-35.2-.4-15.2c-.07-2.44,0-4.89-.2-7.33-.06-1-.85-1.55-1.54-2.22-2-1.93-4-3.91-5.88-5.92-3.63-3.79-7.14-7.69-10.57-11.66-4.67-5.42-9.08-11-13.62-16.57-.37-.44-.73-.9-1.14-1.3-1.24-1.22-3.15.69-1.91,1.91Z"/><g id="lips"><path class="cls-2" d="M166.13,180.73s-10.63-10.46-9.79-13.52c.95-3.48,6.78-4.39,6.78-4.39S168.91,176.55,166.13,180.73Z"/><path class="cls-12" d="M163.16,162.89c22.25-3.94,47.61-2,68.74,5.57,0,0,2.59,1.95,2.72,3.08a52.74,52.74,0,0,1-.53,15.51l-1.58.66a431.8,431.8,0,0,0-64.24-6.19c-5.61-6.51-6.46-13-6.93-18Z"/><path d="M163.16,164.24a226.52,226.52,0,0,1,53.05,2.41q7.72,1.26,15.34,3.11c1.68.41,2.4-2.19.71-2.61A225.34,225.34,0,0,0,177.5,161q-7.19,0-14.34.56c-1.72.13-1.73,2.83,0,2.7Z"/><path d="M233.16,170.81c-.34.2-.14-.1-.11.26,0,.2.21.52.25.75a17.19,17.19,0,0,1,.17,1.9c.11,1.45.15,2.91.13,4.37a52.71,52.71,0,0,1-.81,8.6l.94-.94-1.11.46c-.13.06-.58.17-.32.15.45,0-.46-.13-.55-.15l-.89-.15c-2.17-.37-4.35-.73-6.53-1.06q-6.74-1-13.51-1.83-13.65-1.63-27.4-2.4-7.57-.44-15.15-.6l1.16.67c-3.52-5-7.06-10.93-6.74-17.3.09-1.74-2.61-1.73-2.7,0a22.24,22.24,0,0,0,2,9.86,41.16,41.16,0,0,0,2.72,5.23c.49.81,1,1.6,1.54,2.39s.89,1.65,1.8,1.82a15.83,15.83,0,0,0,2.67.09l3,.09q2.88.1,5.76.24,5.94.28,11.89.73,11.85.88,23.64,2.4,5.78.75,11.54,1.67a54.49,54.49,0,0,0,5.78,1,5,5,0,0,0,2.12-.69c1-.48,1-1.36,1.18-2.38s.31-2.17.42-3.26a53.29,53.29,0,0,0,.23-6.8c-.05-1.9.1-4.35-.82-6.07-.74-1.36-2.21-2.21-3.66-1.36a1.35,1.35,0,0,0,1.36,2.33Z"/></g><path d="M255.08,83.49l-12.5.75-30,1.82-36.16,2.18-31.37,1.9c-5.07.3-10.16.5-15.23.92h-.21c-.66,0-1.43.59-1.35,1.35,1.38,12.26,2.15,24.61,3,36.92,1,15.34,1.91,30.69,2.46,46,.21,5.94.42,11.89.28,17.82a1.35,1.35,0,0,0,2.7,0c.29-12.33-.5-24.74-1.15-37q-1.19-23-3-46c-.46-5.92-.93-11.84-1.59-17.73l-1.35,1.35,12.5-.76,30-1.81L208.27,89l31.37-1.9c5.07-.3,10.16-.5,15.23-.92h.21c1.73-.11,1.74-2.81,0-2.7Z"/><path d="M266.12,65.94c2.17,18.44,3.33,37,4.15,55.57.93,21.26,1.35,42.59.59,63.86a287.59,287.59,0,0,1-2.25,29.47c-.23,1.69,2.37,2.43,2.6.71,2.61-18.86,2.82-38.07,2.71-57.07q-.19-31.93-2.49-63.81c-.68-9.59-1.49-19.18-2.61-28.73-.2-1.71-2.9-1.73-2.7,0Z"/><path d="M144.61,207.21c16.12,1.3,32.25,2.47,48.37,3.69,16.67,1.26,33.33,2.56,50,4.09,8.74.81,17.47,1.68,26.19,2.68a1.36,1.36,0,0,0,1.17-2A72.7,72.7,0,0,0,261,204.85c-.81-.78-1.51-1.67-2.67-1.78-1.87-.18-3.75-.3-5.63-.45l-27.57-2.22-37.72-3-34.24-2.75-11.57-.93c-1.84-.15-3.7-.41-5.54-.45l-.24,0c-1.27-.1-1.64,1.5-1,2.31,3,3.53,6.34,6.81,8.28,11.07a1.37,1.37,0,0,0,1.52.62l.32-.06c1.7-.32,1-2.92-.72-2.6l-.31.06,1.52.62c-2-4.46-5.59-7.92-8.7-11.62l-1,2.3,12.22,1,29.33,2.35,35.48,2.85,30.67,2.47,10.07.81a40.5,40.5,0,0,0,4.79.38l.21,0-.95-.39A67.24,67.24,0,0,1,268,217l1.16-2c-15.88-1.81-31.8-3.23-47.73-4.54-16.71-1.38-33.43-2.6-50.15-3.86-8.89-.67-17.78-1.34-26.66-2.06C142.88,204.37,142.89,207.07,144.61,207.21Z"/><path class="cls-2" d="M244,122.2c-7.06-7.58-17.17-2.38-26,.39-5.72,1.8-13.48,1.85-15.18.58-6.17-6.63-14.78-1.26-22.71.33-7,1.41-15.73,1-17.33-.21-5.89-6.44-15.88-4.91-21.64.31s-3.21,14.86,2.09,19.45c7.65,5.79,36.46-1.75,39.06.46,18,6.78,29.57-2.65,38.2,2,10.12,7.5,29.13.68,29.24-13.16A13.86,13.86,0,0,0,244,122.2Z"/><path d="M200.49,129.09c-1.46,6.2-6,12.3-13.24,9.83a9.34,9.34,0,0,1-6.73-13c3.41-5.1,11.82-4.69,16.89-1.91A6.29,6.29,0,0,1,200.49,129.09Z"/><path d="M237.33,134.21c-1.35,6.25-7.31,7.73-13.12,8.59-7,.81-9-5.29-8.79-9.9.45-9.21,9.32-12.69,15.57-10.55C233.07,123.75,238.71,129.66,237.33,134.21Z"/><path d="M163.6,131c-3.4,12.69-14.74,12.13-20,3.91-3.12-5.84,2-11.39,8.61-13.22,3.46-1,6.25.32,9,2.72C163,125.73,163.48,128.76,163.6,131Z"/><g id="eyes"><path class="cls-13" d="M151.35,131.25q-2.73,2.75-5.64,5.33c-4,3.56.56,10.83,4.62,7.21,2.52-2.23,5-4.51,7.33-6.89l4.49,4c4.07,3.65,9.62-2.78,5.55-6.43l-4.31-3.86a82.33,82.33,0,0,0,5.3-6.93c3.05-4.5-3.15-10.31-6.23-5.77a86.56,86.56,0,0,1-5.36,7L151,119.55c-4.07-3.65-9.62,2.77-5.55,6.43Z"/><path class="cls-13" d="M181.33,124.47q3.81,2.85,7.37,6a87.9,87.9,0,0,1-7,8c-3.87,3.86,2.39,9.6,6.23,5.77a90.87,90.87,0,0,0,6.91-7.77q1.81,1.93,3.53,4c1.49,1.78,3.72,2.61,5.78,1.23,1.71-1.13,2.64-4.22,1.17-6q-2.67-3.18-5.51-6.14c1.59-2.42,3.08-4.9,4.47-7.47,2.63-4.85-4.82-8.78-7.44-3.95-1,1.87-2.07,3.68-3.2,5.45q-3.24-2.89-6.74-5.53C182.56,114.81,177,121.21,181.33,124.47Z"/><path class="cls-13" d="M220.18,148.16a96.44,96.44,0,0,0,10.17-9.37,90.2,90.2,0,0,0,7.12,6c4.52,3.38,10.35-3.3,5.8-6.72a88.09,88.09,0,0,1-7.16-6,91.45,91.45,0,0,0,6.79-10.11c2.89-5-4.9-9.08-7.76-4.13a79.35,79.35,0,0,1-5.22,7.86A85.88,85.88,0,0,1,222.6,116c-3.13-4.82-10.4.12-7.25,5a96.16,96.16,0,0,0,8.83,11.56,83.08,83.08,0,0,1-8.83,8.12C210.94,144.13,215.73,151.7,220.18,148.16Z"/></g><path class="cls-14" d="M214.26,2a239.88,239.88,0,0,1,21.52,44.24c2,5.52,3.94,11.08,5.77,16.67.53,1.64,3.14.94,2.6-.72-5.6-17.12-11.94-34-20.65-49.83-2.19-4-4.51-7.88-6.91-11.73-.92-1.47-3.26-.11-2.33,1.37Z"/><path class="cls-6" d="M209,2.6l-46.15,33,64,5.65S224.22,26.67,209,2.6Z"/><path d="M219.77,147.64A95.68,95.68,0,0,0,230,138.49h0l.31-.32.32.3q3,2.74,6.14,5.21l.8.61c.27.21.53.33.79.5a6.1,6.1,0,0,0,.84.33,6.91,6.91,0,0,0,.9.11,4.57,4.57,0,0,0,3.23-1.5,3.85,3.85,0,0,0,1-3.32,4.1,4.1,0,0,0-.32-.82,4.16,4.16,0,0,0-.54-.71,18.82,18.82,0,0,0-1.52-1.24c-2.14-1.66-4.21-3.42-6.19-5.27h0l-.31-.28.26-.32q2.69-3.49,5-7.23l1.14-1.88.56-1c.14-.3.29-.6.4-.91a3.38,3.38,0,0,0-1-3.55,4.39,4.39,0,0,0-3.67-1.15,4.54,4.54,0,0,0-.93.29,3.37,3.37,0,0,0-.81.54l-.36.33a3.79,3.79,0,0,0-.3.4l-.29.41-.28.48a80,80,0,0,1-4.94,7.4h0l-.36.48-.41-.45a87,87,0,0,1-6.35-8l-.73-1a8.45,8.45,0,0,0-.71-1,3.2,3.2,0,0,0-1.71-1.16,3.26,3.26,0,0,0-2,.13,3.84,3.84,0,0,0-1.72,1.22,3.27,3.27,0,0,0-.84,1.85,3.35,3.35,0,0,0,0,1,3.82,3.82,0,0,0,.35,1l.25.46.35.52.71,1,1.47,2a96.07,96.07,0,0,0,6.38,7.72h0l.67.74-.69.72q-2.28,2.34-4.73,4.5c-.82.72-1.65,1.42-2.49,2.11l-1.28,1c-.2.17-.44.34-.62.5l-.49.45a4.07,4.07,0,0,0-.15,5,3.41,3.41,0,0,0,2.09,1.51A3.11,3.11,0,0,0,219.77,147.64Zm.82,1a4.51,4.51,0,0,1-3.55,1,4.92,4.92,0,0,1-3.08-2,6.11,6.11,0,0,1-1.16-3.46,5.45,5.45,0,0,1,1.25-3.53l.68-.67c.22-.21.41-.35.62-.53l1.21-1c.8-.7,1.59-1.41,2.37-2.14,1.54-1.46,3-3,4.47-4.54l0,1.45h0a93.8,93.8,0,0,1-6.28-8.07L215.65,123l-.69-1.08-.34-.54-.34-.66a5,5,0,0,1,.83-5.59,5.4,5.4,0,0,1,2.41-1.59,4.62,4.62,0,0,1,2.92-.08,4.52,4.52,0,0,1,2.37,1.67,9.94,9.94,0,0,1,.76,1.09l.68,1.05a84.34,84.34,0,0,0,6,8l-.76,0h0a79.47,79.47,0,0,0,4.9-7.3l.28-.48.34-.49c.13-.16.23-.33.37-.48l.45-.41a4.49,4.49,0,0,1,1-.68,6.08,6.08,0,0,1,1.17-.36,5.33,5.33,0,0,1,4.48,1.4,4.34,4.34,0,0,1,1.23,4.52,11.91,11.91,0,0,1-.49,1.1l-.56,1L241.57,125c-1.58,2.51-3.29,4.94-5.1,7.29l-.05-.61h0c2,1.82,4,3.57,6.13,5.21a16.68,16.68,0,0,1,1.62,1.33,5.1,5.1,0,0,1,.68.89,5.58,5.58,0,0,1,.41,1.05,4.73,4.73,0,0,1-1.24,4.13,5.41,5.41,0,0,1-3.9,1.8A6.88,6.88,0,0,1,239,146a6.11,6.11,0,0,1-1-.4,12.24,12.24,0,0,1-1.73-1.2c-2.15-1.66-4.21-3.42-6.2-5.26l.63,0h0A95.07,95.07,0,0,1,220.59,148.67Z"/><path d="M181.78,123.88l3.88,2.83,3.87,2.88h0l.95.7-.81,1c-1.83,2.23-3.76,4.38-5.8,6.42l-1.53,1.51a2.91,2.91,0,0,0,.11,4.39,3.7,3.7,0,0,0,3.21,1.07l.42-.09c.14,0,.26-.13.4-.19a3.17,3.17,0,0,0,.74-.49c.49-.39,1-.95,1.51-1.43q3-3,5.73-6.28h0l.34-.41.34.38,2.24,2.52,1.12,1.26a6.57,6.57,0,0,0,1.13,1.11,3.79,3.79,0,0,0,2.79.83,3.52,3.52,0,0,0,2.42-1.58,4.46,4.46,0,0,0,.71-2.89,2.93,2.93,0,0,0-.52-1.33c-.32-.4-.73-.82-1.09-1.23l-4.46-5h0l-.24-.27.18-.29c1.27-2,2.48-4,3.61-6,.28-.51.58-1,.82-1.54l.29-.73.14-.75a3.36,3.36,0,0,0-1.19-2.68,4.18,4.18,0,0,0-2.81-1.06,3.3,3.3,0,0,0-2.54,1.37c-.14.22-.28.41-.43.66l-.44.77-.89,1.54-1.77,3.07h0l-.41.71-.61-.56c-1.33-1.24-2.71-2.41-4.11-3.56-.7-.57-1.42-1.13-2.14-1.67a9,9,0,0,0-1-.69,5,5,0,0,0-.54-.21,1.56,1.56,0,0,0-.56-.12,4,4,0,0,0-3.88,2.12,2.93,2.93,0,0,0-.36,2.16A3.29,3.29,0,0,0,181.78,123.88Zm-.89,1.19a4.78,4.78,0,0,1-1.75-2.67,4.35,4.35,0,0,1,.57-3.11,5.36,5.36,0,0,1,5.22-2.7,2.87,2.87,0,0,1,.77.17,6.52,6.52,0,0,1,.73.29,10.24,10.24,0,0,1,1.24.81c.73.55,1.45,1.12,2.16,1.69,1.45,1.14,2.85,2.33,4.24,3.52l-1,.14h0l1.79-3,.9-1.5.45-.75c.15-.25.36-.55.55-.81a4.5,4.5,0,0,1,3.49-1.8,5.3,5.3,0,0,1,3.6,1.41,4.4,4.4,0,0,1,1.49,3.58c-.05.33-.12.66-.18,1s-.25.6-.38.9c-.28.55-.57,1-.87,1.56-1.17,2-2.42,4.06-3.73,6l0-.56v0l4.5,5c.38.43.75.81,1.13,1.28a3.72,3.72,0,0,1,.69,1.76,5.28,5.28,0,0,1-.85,3.49,4.39,4.39,0,0,1-3,2,4.63,4.63,0,0,1-3.47-1,7.79,7.79,0,0,1-1.26-1.24l-1.11-1.24-2.22-2.5.68,0h0q-2.59,3.44-5.5,6.61c-.51.54-.93,1.05-1.53,1.58a4,4,0,0,1-1,.72,4.92,4.92,0,0,1-.56.29l-.61.17a5.35,5.35,0,0,1-1.26.14,6.44,6.44,0,0,1-1.24-.22,5.77,5.77,0,0,1-2.16-1.21,5.56,5.56,0,0,1-1.44-2.08,4.25,4.25,0,0,1-.19-2.62,5,5,0,0,1,1.24-2.29l1.45-1.57c1.89-2.08,3.68-4.26,5.36-6.51l.15,1.68h0c-1.06-1.17-2.2-2.26-3.37-3.32S182.13,126,180.89,125.07Z"/><path d="M152.17,131.22c-1.89,2-3.92,4-6,5.9a3.77,3.77,0,0,0-1.35,2.88,4.75,4.75,0,0,0,1.11,3.12,2.64,2.64,0,0,0,2.83.91c1-.32,1.88-1.38,2.85-2.22l5.69-5.22.31-.29.31.27c1.55,1.38,3.1,2.82,4.65,4.15a3.3,3.3,0,0,0,2.56.82,3.88,3.88,0,0,0,2.41-1.32,4.15,4.15,0,0,0,1.08-2.54,3.43,3.43,0,0,0-1-2.52,12.28,12.28,0,0,0-1.1-1l-1.17-1.05L163.09,131l-.32-.29.28-.34c1.62-2,3.16-4,4.59-6.11l.53-.79.4-.75c.11-.26.16-.54.25-.8a7.72,7.72,0,0,0,.06-.83,4.49,4.49,0,0,0-1.33-3,3.1,3.1,0,0,0-2.82-1,3.23,3.23,0,0,0-.66.29c-.19.18-.42.27-.58.5s-.33.37-.51.66l-.54.81c-1.45,2.14-3,4.21-4.65,6.21h0l-.59.72-.7-.63-5.44-4.91c-.22-.19-.45-.42-.67-.59l-.6-.44c-.22-.08-.43-.2-.65-.28a4,4,0,0,0-.68-.1,3.44,3.44,0,0,0-2.55,1.18,3.57,3.57,0,0,0-1,2.7,2,2,0,0,0,0,.35l.11.34a2,2,0,0,0,.31.64,2.31,2.31,0,0,0,.46.58,5.49,5.49,0,0,0,.64.63C148.46,127.54,150.37,129.41,152.17,131.22Zm-1.64.05c-1.82-1.44-3.54-2.83-5.22-4.31a6.54,6.54,0,0,1-.67-.65,4.27,4.27,0,0,1-.67-.84,3.81,3.81,0,0,1-.49-1l-.16-.54a3.45,3.45,0,0,1-.07-.55,5.26,5.26,0,0,1,1.38-4,5.14,5.14,0,0,1,3.88-1.78,5.32,5.32,0,0,1,1.12.17,10.19,10.19,0,0,1,1,.43c.3.2.59.42.88.63s.47.41.7.61l5.46,4.87-1.29.09h0c1.66-1.92,3.25-3.9,4.74-6l.55-.77c.17-.25.46-.57.69-.84a5.41,5.41,0,0,1,.9-.73,4.82,4.82,0,0,1,1.11-.43,4.47,4.47,0,0,1,4.11,1.46,5.83,5.83,0,0,1,1.61,3.92,9.63,9.63,0,0,1-.11,1.08c-.12.35-.21.7-.35,1s-.35.64-.53.93l-.57.79c-1.51,2.09-3.13,4.1-4.82,6l-.05-.63L166,132.4l1.17,1a10.86,10.86,0,0,1,1.16,1.11,4.33,4.33,0,0,1,1.21,3.16,5,5,0,0,1-1.31,3.1,4.78,4.78,0,0,1-3,1.62,4.21,4.21,0,0,1-3.24-1c-1.61-1.39-3.12-2.79-4.69-4.18l.62,0-5.59,5.39L151,144a5.52,5.52,0,0,1-.81.66,3.49,3.49,0,0,1-1,.53,4.19,4.19,0,0,1-1.13.22,3.94,3.94,0,0,1-1.14-.18l-.55-.2-.48-.3A5.31,5.31,0,0,1,145,144a6,6,0,0,1-1.53-4,5.22,5.22,0,0,1,1.74-4C147,134.34,148.67,132.83,150.53,131.27Z"/><path class="cls-7" d="M286.85,173.82c-1.7-.76-1.88-7.08-1-9.22.58-1.42,5-4.1,6,0S288.91,174.73,286.85,173.82Z"/><path class="cls-5" d="M292.78,160.5c2.52-2.39,9.82-7.08,9.82-7.08l1.55-24.56s-8.85-6.18-14.16-10.11l-3.7.9v40.5Z"/><path class="cls-7" d="M292.78,160.5l4-3.83c-2.87-3.83-3.83-21.06,0-26.81-4.79-3.83-7-6.15-9.57-11.16-1,11.16-1,28-1,41.45Z"/><path d="M284.94,119.65v40.5a1.35,1.35,0,0,0,2.7,0v-40.5a1.35,1.35,0,0,0-2.7,0Z"/><path d="M297.28,131a47.38,47.38,0,0,0-1,19.69c.18,1.28,2.14.74,2-.54a44.76,44.76,0,0,1,1-18.61,1,1,0,0,0-2-.54Z"/><path d="M286.92,118.85c4.76,4.55,10.79,8,16.55,11.17l-.62-1.52a62.07,62.07,0,0,0-1.59,11.76,86.29,86.29,0,0,0,0,13.16l.67-1.17a69.29,69.29,0,0,0-10.09,7.3c-1.28,1.19.64,3.09,1.9,1.91a66.67,66.67,0,0,1,9.55-6.88,1.34,1.34,0,0,0,.67-1.16,86.54,86.54,0,0,1,0-12.78,60,60,0,0,1,1.52-11.42,1.39,1.39,0,0,0-.62-1.53c-5.56-3-11.4-6.36-16-10.75-1.26-1.2-3.17.7-1.91,1.91Z"/></g><g id="body"><path d="M132.67,228q29.82,6.1,59.85,11.14,29.83,5,59.85,8.89,17,2.22,34,4.08c1.72.19,1.71-2.51,0-2.7q-30.09-3.3-60-7.68t-59.59-9.84q-16.72-3.07-33.39-6.5c-1.69-.34-2.42,2.26-.71,2.61Z"/><path d="M130.34,227.31c4.49,23.22,8.45,46.53,12.5,69.84,3.77,21.73,8.11,43.36,11.93,65.08,1.93,11,3.82,22,4.69,33.15.13,1.72,2.84,1.74,2.7,0-.77-9.81-2.35-19.56-4-29.26-1.67-9.86-3.57-19.67-5.44-29.49-4.41-23.08-8.3-46.25-12.34-69.39q-3.55-20.36-7.44-40.65c-.33-1.71-2.94-1-2.61.72Z"/><path d="M325.58,222.28q-1.75,23.43-3.59,46.84t-3.61,47c-.79,10.47-1.87,20.91-3.05,31.33-1.34,11.82-2.69,23.71-5,35.38-.2,1-.42,2.05-.66,3.07a11,11,0,0,1-.68,2.56,29.28,29.28,0,0,1-3.4,4.47c-1.35,1.67-2.74,3.31-4.14,4.94-5.82,6.75-11.81,13.36-17.72,20l-4.92,5.56c-1.15,1.29.75,3.21,1.91,1.91q9.4-10.64,18.83-21.24c2.79-3.15,5.57-6.32,8.2-9.61,1.17-1.47,2.33-3,3.42-4.5a8.49,8.49,0,0,0,1-2.93c2.63-11,3.85-22.44,5.19-33.66s2.55-22.66,3.49-34c1.2-14.47,2.21-29,3.34-43.43q1.88-24.27,3.73-48.53c.14-1.72.26-3.45.39-5.17s-2.57-1.72-2.7,0Z"/><path d="M282.46,418.37c.64-9.49,1.18-19,1.71-28.5q1.05-19,2-38.1,1-20.32,1.89-40.66c.51-11.88,1-23.76,1.39-35.65.27-7.85.55-15.72.53-23.58,0-.56,0-1.13,0-1.7l-.67,1.17q15-11.07,30.06-22c2.74-2,5.49-4,8.27-5.89,1.41-1,.07-3.33-1.37-2.33-11.74,8.13-23.17,16.74-34.67,25.21-1.2.88-2.48,1.71-3.62,2.67s-.68,3.81-.69,5.28c0,5.23-.19,10.46-.35,15.69-.48,15.81-1.15,31.61-1.85,47.41q-1.2,27.06-2.61,54.12c-.76,14.42-1.53,28.83-2.46,43.23l-.24,3.64c-.12,1.74,2.58,1.73,2.7,0Z"/><path d="M132.67,228.25c13.76-3.26,26.92-8.45,40.5-12.34a1.35,1.35,0,0,0-.72-2.6c-13.57,3.89-26.74,9.08-40.5,12.33-1.69.4-1,3,.72,2.61Z"/><path d="M286.77,217.87c11,.94,22,3,32.87,4.65,2.33.36,4.65.72,7,1,1.7.24,2.43-2.36.71-2.6-11-1.57-22.07-3.44-33.14-4.92-2.47-.34-4.95-.66-7.43-.88-1.73-.14-1.72,2.56,0,2.7Z"/><path d="M161.44,397.55a524,524,0,0,0,91.62,23.24q13.1,2.07,26.28,3.51c1.72.18,1.71-2.52,0-2.7a522.63,522.63,0,0,1-91.85-18.44q-12.77-3.78-25.33-8.22c-1.64-.57-2.35,2-.72,2.61Z"/></g><g id="leg_1" data-name="leg 1"><path class="cls-2" d="M218,431.18c1.65-12.94,16.85-35.74,19.09-38.15,8.22-8.83,25.64-5.09,27.22,5.88,2.38,14.1-4.75,23.69-7.12,34.66Z"/><path class="cls-7" d="M222.46,431c2.82-15,14.09-33.83,17.85-39.47,4.81-7.21,20.68-2.82,23.49,7.52-4.69,12.21-9.39,24.43-13.15,33.83Z"/><path d="M219.32,431.18a39.76,39.76,0,0,1,2.87-9.64,104.47,104.47,0,0,1,5-10.45,137.42,137.42,0,0,1,9.84-15.9,10.21,10.21,0,0,1,1.16-1.42,13.6,13.6,0,0,1,4.11-2.89,16.74,16.74,0,0,1,9.65-1.19,14.8,14.8,0,0,1,8.32,4.09c2.71,2.81,3.07,6.73,3.11,10.47.1,10.3-5.38,19.15-7.55,29l1.3-1-34.32-2.09-4.87-.3c-1.74-.11-1.73,2.59,0,2.7l34.32,2.09,4.87.3a1.36,1.36,0,0,0,1.3-1c2.07-9.34,7.05-17.75,7.6-27.45.23-4.11.08-9-2.23-12.56a15.65,15.65,0,0,0-8.2-6.09c-6.55-2.26-15-1-19.68,4.43a49.1,49.1,0,0,0-3.72,5.2c-2,3-3.91,6.16-5.71,9.33a122.13,122.13,0,0,0-6.26,12.41,45.83,45.83,0,0,0-3.64,12C216.39,432.89,219.09,432.88,219.32,431.18Z"/></g><path class="cls-5" d="M248.34,417.67a22.57,22.57,0,0,1,.83-6,39.58,39.58,0,0,1,2-5.54c.76-1.79,1.6-3.53,2.48-5.22s1.79-3.32,2.82-4.92l0-.06a2.38,2.38,0,0,1,4.38,1.46,28.88,28.88,0,0,1-1.19,6c-.56,1.9-1.23,3.73-1.95,5.51a52.38,52.38,0,0,1-2.4,5.22A26.64,26.64,0,0,1,252,419h0a2.09,2.09,0,0,1-3.66-1.35Z"/><g id="foot_1" data-name="foot 1"><path class="cls-11" d="M257,419.21s-53.07-5.9-74.94-3.72c-2.86,4.08-7.69,12.23-10.68,15.06a545.15,545.15,0,0,1,77.08,6.22c3.83-4.79,7.53-13.33,8.62-17.24"/><path class="cls-5" d="M248.46,436.77c4.79,18.2,5.75,42.14,3.83,69.91C260,492.31,263,438,257,419.21Z"/><path class="cls-7" d="M172.62,503.07q38.26,2.76,76.45,6.48s1.92-12.95,2.38-19.88c1.26-19.2-1.06-46.37-3-53.28-5.23-1.23-53.68-5.76-76.89-5.39,1.34,16.05,3.39,46.93,1.36,70.33"/><path d="M172.62,504.42q29.82,2.15,59.58,4.89,8.43.76,16.87,1.59a1.34,1.34,0,0,0,1.3-1,223.44,223.44,0,0,0,2.7-26.06,269.62,269.62,0,0,0-1.4-35.37A76.92,76.92,0,0,0,249.75,436a1.33,1.33,0,0,0-.94-.94,68.17,68.17,0,0,0-7.66-1.07c-4.78-.54-9.57-1-14.37-1.43-12.27-1.1-24.57-2-36.88-2.56-6.11-.27-12.22-.47-18.34-.38a1.36,1.36,0,0,0-1.34,1.35,538,538,0,0,1,2.15,54c-.1,5.45-.33,10.89-.8,16.32-.15,1.74,2.55,1.73,2.7,0,1.64-19.18.84-38.6-.42-57.79q-.42-6.27-.94-12.54l-1.35,1.35c11.5-.17,23,.53,34.49,1.31,11.09.75,22.18,1.65,33.24,2.86a72.88,72.88,0,0,1,8.8,1.17l-.94-.94A66.23,66.23,0,0,1,248.8,447c.61,5.43,1,10.89,1.28,16.35a202.88,202.88,0,0,1-.75,34.15q-.69,5.88-1.57,11.74l1.31-1q-29.76-2.91-59.56-5.23-8.44-.64-16.89-1.26c-1.73-.13-1.72,2.57,0,2.7Z"/><path d="M253.35,422A49.48,49.48,0,0,1,249,432.54c-.85,1.51,1.48,2.88,2.33,1.36A52.18,52.18,0,0,0,256,422.67a1.35,1.35,0,0,0-2.6-.72Z"/><path d="M172.81,431a57.34,57.34,0,0,0,5.79-7.12,39.39,39.39,0,0,0,4.76-8l-1.3,1c12.42-1.16,25-.68,37.45.09,10.42.65,20.82,1.62,31.19,2.84l4.55.56,1.26.16a2.11,2.11,0,0,0,.35.05c.12,0-.44-.06-.22,0l-.94-.95a65.66,65.66,0,0,1,2.47,14c.55,6.06.69,12.15.64,18.24a256.65,256.65,0,0,1-2.88,37.66,83.72,83.72,0,0,1-3.37,14.86c-.58,1.65,2,2.35,2.6.72a76.66,76.66,0,0,0,3.06-13c1-5.94,1.7-11.94,2.22-17.95A238.26,238.26,0,0,0,261,435.4a73,73,0,0,0-2.72-16.55,1.35,1.35,0,0,0-.94-1c-5.86-.79-11.75-1.43-17.63-2-12.33-1.22-24.71-2.13-37.1-2.35a185.75,185.75,0,0,0-20.57.61,1.45,1.45,0,0,0-1.31,1,36.38,36.38,0,0,1-4.48,7.41,53.63,53.63,0,0,1-5.37,6.57c-1.22,1.24.69,3.15,1.91,1.91Z"/></g><path class="cls-7" d="M311.36,259.11s-9.75,1.94-10.71,31.63c-.71,22,1,37.34,5.75,32.56s1.51-39.39,10.81-43.64S311.36,259.11,311.36,259.11Z"/><g id="arm_1-2" data-name="arm 1"><path class="cls-2" d="M378.7,361.12c-2.55-12.65-4.77-26.88-10.29-38.55s-14.35-22.28-26.25-27.3c-9.64-4.07-21-4.45-29.19-11-4.38-3.54-7.46-9-7.26-14.59s4.18-11.19,9.7-12.32l6.16-.77a10.66,10.66,0,0,1,3.19.09c22.21,4.15,40.93,13.15,54.41,31.21,15.11,20.24,20.07,49.93,20.59,75.18A51.05,51.05,0,0,0,378.7,361.12Z"/><path class="cls-3" d="M366.53,315.48C362,304.22,351.35,293,340.42,287.89c-8.17-3.86-30.31-10.7-31.17-10.12-1.82,1.23,3.13,5.41,4.45,6.43,8.79,6.8,21.48,7.07,31.09,11.6,4.36,2.05,9,5.17,11.79,8.67,1.68,2.08,3.43,4.33,4.84,6.22,1,1.31,1.35,4.16,2.78,4.91C364,315.47,367.6,318.12,366.53,315.48Z"/><path class="cls-5" d="M319.06,263.2a96.66,96.66,0,0,1,35.77,13.5c10.22,6.36,18.27,16.27,24.28,26.57a84.78,84.78,0,0,1,8.4,19.43,1.35,1.35,0,0,0,2.61-.72,91.77,91.77,0,0,0-18.55-34,70.66,70.66,0,0,0-13.3-12.26,90.61,90.61,0,0,0-16-8.51,93.37,93.37,0,0,0-22.48-6.62c-1.7-.27-2.43,2.34-.72,2.6Z"/><path class="cls-4" d="M377.26,334.79s8.62-3.83,13.41,19.15c.8,3.86,6.7,3.83,5.62,8.14a70.32,70.32,0,0,0-17.12-.48C384,359.68,371.51,336.7,377.26,334.79Z"/><path d="M322.81,257.67c17.41,3.09,34.12,9.89,46.89,22.41,13.65,13.38,21.24,31.35,25.15,49.8a172.46,172.46,0,0,1,3.56,32.2c0,1.73,2.74,1.74,2.7,0-.42-19.62-3.51-39.61-11.53-57.64-7.58-17-20.23-31.3-36.86-39.89a102.74,102.74,0,0,0-29.19-9.49c-1.7-.3-2.43,2.3-.72,2.61Z"/><path d="M315.05,256a13.74,13.74,0,0,0-9.12,7.5,16,16,0,0,0-.41,12.78c3.51,9.06,12.33,13.22,21.13,15.7,4.51,1.26,9.1,2.26,13.49,3.91A41.17,41.17,0,0,1,352,302.86c7.07,5.9,12.3,13.7,16,22.07,5,11.14,7.37,23.23,9.77,35.13.34,1.7,2.94,1,2.6-.72-3.84-19-8.13-39.14-21.75-53.87a48.14,48.14,0,0,0-22.14-13.6c-8.38-2.47-18.08-3.74-24.45-10.31-3.37-3.48-5.73-8.56-4.81-13.48.83-4.46,4-8.44,8.54-9.45,1.7-.38,1-3-.72-2.61Z"/><path d="M327.32,288.36a38.85,38.85,0,0,1,.3-8c.66-5.13,2.24-10.4,5.61-14.43a17.06,17.06,0,0,1,8.37-5.42c.28-.08-1.43-.35-1.57-.35a8.52,8.52,0,0,0-2.76.17c-10.78,3.17-14.34,14.88-14.51,25a29.9,29.9,0,0,0,.06,3c0,.52,4.52.33,4.5,0Z"/><path d="M347.38,295.64c-.08-.64-.12-1.28-.15-1.92s0-1.4,0-2.09c0-.11,0-.23,0-.34s0,.35,0,.11l0-.63c0-.51.07-1,.12-1.52.43-4.37,1.64-8.51,4.46-11.79a14.6,14.6,0,0,1,7-4.47,2.35,2.35,0,0,0,2-2.39,2,2,0,0,0-2.43-1.66,20.2,20.2,0,0,0-13.26,11.44,31.58,31.58,0,0,0-2.31,13.21,23.46,23.46,0,0,0,.19,2.78c.37,2.69,4.76,1.83,4.4-.73Z"/><path d="M363.62,308.92c0-.57,0-1.15.06-1.72s0,.29,0,0,0-.31.05-.47c0-.35.08-.7.14-1,.12-.79.27-1.58.46-2.35s.48-1.71.78-2.55c0,0,.18-.49.08-.23s.05-.11.07-.16c.09-.21.17-.42.27-.62.22-.5.47-1,.73-1.47s.49-.82.74-1.22l.21-.3c-.21.3,0,0,0,0,.18-.25.37-.49.57-.73.34-.41.7-.8,1.08-1.18l.28-.27c.24-.23-.25.21,0,0s.5-.43.76-.63.55-.4.83-.58c.09-.06.84-.52.45-.3a16,16,0,0,1,2-.94l.43-.16c.69-.26-.42.11.31-.11.38-.12.77-.23,1.16-.32a19.6,19.6,0,0,1,2.25-.42,2.74,2.74,0,0,0,2.55-1.82,1.51,1.51,0,0,0-1.69-1.76c-6.09.68-11.48,3.4-14.95,8.55a24.21,24.21,0,0,0-3.76,11,20.37,20.37,0,0,0-.16,2.81c.07,2.37,4.38,1.17,4.32-1Z"/><path d="M373.11,331.39c2.54-5.07,6.69-10.14,11.81-12.71a13.3,13.3,0,0,1,6.95-1.47c1.14.09-.22-4-1.45-4.11-8.15-.61-14.52,6.22-18.44,12.61-.39.63-.77,1.27-1.1,1.94s.25,2.07.65,2.75c.17.27,1.2,1.75,1.58,1Z"/><path d="M380.62,353.27a16.23,16.23,0,0,1,1.26-1.23l.72-.62.23-.19-.05,0,.47-.35a25.42,25.42,0,0,1,2.11-1.45,20.49,20.49,0,0,1,12.46-3.18c.83.06,2.26-.39,2.28-1.41s-1.42-1.42-2.23-1.48a26.15,26.15,0,0,0-15.3,3.75,25,25,0,0,0-5.8,4.59c-.71.78,0,1.66.77,2a3,3,0,0,0,3.08-.46Z"/></g><g id="leg_2" data-name="leg 2"><path class="cls-3" d="M74.11,401.26s6.88,16.16,7.57,27.46c5.72-2.66,53-22.2,96.38-28.66,6.88-.81,15.74-6.14,9.3-19-6.89-13.72-39.09-4.5-39.09-4.5S81.68,393.19,74.11,401.26Z"/><path class="cls-2" d="M188.61,391.29c-32.1-1-101.84,27.59-109.25,30.31-1.73-5.12-6.2-19.39-6.2-19.39a9.7,9.7,0,0,1,1.58-1.3c7.48-3.41,24.05-10.38,32.42-13.27,18.92-5.88,41.11-11.06,41.11-11.06s1-.28,2.61-.66c5-.93,9.75-1.69,14.3-2.23,8.92-.6,17.69-1.56,22.18,7.4C189.59,385.53,189.57,387.45,188.61,391.29Z"/><path class="cls-7" d="M189,386.43c-27.92-.87-88.13,20.17-106,26.47a5.83,5.83,0,0,1-7.46-3.64l-2.38-7.05a9.7,9.7,0,0,1,1.58-1.3c7.48-3.41,24.05-10.38,32.42-13.27,18.92-5.88,41.11-11.06,41.11-11.06s1-.28,2.61-.66c5-.93,9.75-1.69,14.3-2.23,8.92-.6,18.72.52,22.18,7.4C187.62,381.6,188.81,385.94,189,386.43Z"/><path d="M76.08,401.65a328,328,0,0,1,51.75-18.6c8.79-2.44,17.67-4.58,26.63-6.25,4-.75,8.06-1.41,12.11-1.89,3.34-.41,7-1.09,10.27-.35,3.66.8,7.38,2.87,9.24,6.23a15.18,15.18,0,0,1,1.55,10.58c-1.13,4.13-5,6.26-8.9,7.08-10.14,2.15-20.42,3.71-30.58,5.77a164.36,164.36,0,0,0-18.07,4.61A386.31,386.31,0,0,0,91,423.22c-1.06.47-2.11,1-3.14,1.47-1.56.78-.19,3.11,1.36,2.34a179.28,179.28,0,0,1,17.4-7.18q10.66-4,21.48-7.54a155.27,155.27,0,0,1,16.79-4.67c11.07-2.33,22.22-4.22,33.33-6.35,4.3-.82,8.65-2.59,10.93-6.6a14.07,14.07,0,0,0,1.11-9.82,15.32,15.32,0,0,0-6.4-10.23,17.76,17.76,0,0,0-10.61-3.08c-3.88.23-7.76.74-11.6,1.31a265,265,0,0,0-26.45,5.43,355.79,355.79,0,0,0-54.77,18.43q-2.88,1.26-5.73,2.59c-1.57.74-.2,3.07,1.37,2.33Z"/><path class="cls-5" d="M91,408.19a87.4,87.4,0,0,1,12.21-5.07c6.08-2.19,12.25-4.15,18.43-6,13.51-4.07,27.18-7.74,41-10.57a113.86,113.86,0,0,1,16.62-2.47c.84-.05,2-.68,1.68-1.66s-1.83-1.23-2.69-1.19a107.06,107.06,0,0,0-14.79,2.11c-6.73,1.31-13.42,2.86-20.07,4.54-13.64,3.45-27.2,7.33-40.47,12A106.87,106.87,0,0,0,88,406a1.14,1.14,0,0,0-.14,2,3.15,3.15,0,0,0,3.18.22Z"/></g><g id="hand_1-2" data-name="hand 1"><path class="cls-6" d="M378.7,361.12a35.34,35.34,0,0,0-15.11,6.46,26.41,26.41,0,0,0-9.76,19.91c-.24,11.42,1.76,22.08,12.83,30.71,4.54,3.55,10.42,4.84,16.13,5.66,10.77,1.55,24.79-1.62,31.46-16.29,3.88-8.54,4.73-20.16.81-28.69s-7.31-13.85-15.48-16C392.69,361.13,386.36,360.16,378.7,361.12Z"/><path class="cls-6" d="M352.84,385.06c-4.79-1-11.49-1.91-13.41-1a43.39,43.39,0,0,1,3.3,12.32c3.95,0,7.11.1,11.07.13A46.5,46.5,0,0,1,352.84,385.06Z"/><path class="cls-6" d="M388.81,423.15l-1.61,15.56h-1.31a19.64,19.64,0,0,1-10.26-2.16s2.72-9.72,2.4-15Z"/><path class="cls-6" d="M418,390.81c5.24,2,16.44,6.46,16.44,6.46v10.78a117.92,117.92,0,0,0-18-5.38C418,399.39,418,396.55,418,390.81Z"/><path class="cls-6" d="M358.68,409.92c-2,2.72-7.28,7.22-7.28,7.22,2.64,1.76,3.61,3.44,5.47,6l.12,0a30,30,0,0,0,7.14-6.2A26.89,26.89,0,0,1,358.68,409.92Z"/><path class="cls-6" d="M410,415.34c1.56,2.35,5.65,7.05,5.65,7.05-1.81,1.57-5.61,5.45-5.61,5.45-2.32-2.63-4.17-4.71-6.49-7.35Z"/><path class="cls-5" d="M379.48,377.67a45.48,45.48,0,0,0-1.29,18l-11,2.78c-.95-6.71-1.91-16.28,2.88-20.08A42.66,42.66,0,0,1,379.48,377.67Z"/><path d="M353.82,383.38c-4.48.17-8.95.33-13.43.33a1.38,1.38,0,0,0-1.3,1.71,53.34,53.34,0,0,0,2.33,11.35,1.42,1.42,0,0,0,1.31,1c3.69,0,7.38.1,11.07.13a1.35,1.35,0,0,0,0-2.7c-3.69,0-7.38-.1-11.07-.13l1.3,1a53.58,53.58,0,0,1-2.34-11.36l-1.3,1.71c4.48,0,8.95-.16,13.43-.33,1.73-.07,1.74-2.77,0-2.7Z"/><path d="M386.92,424.32a141.27,141.27,0,0,1-1.07,14.39l1.35-1.35a41,41,0,0,1-4.57-.05,18.2,18.2,0,0,1-6.31-1.92l.66,1.17A63.43,63.43,0,0,1,379,423.72c.42-1.68-2.18-2.4-2.6-.71a66.8,66.8,0,0,0-2.16,13.55,1.35,1.35,0,0,0,.67,1.16,21.66,21.66,0,0,0,7.14,2.22,37.88,37.88,0,0,0,5.11.12,1.38,1.38,0,0,0,1.35-1.35,141.27,141.27,0,0,0,1.07-14.39,1.35,1.35,0,0,0-2.7,0Z"/><path d="M416.82,392.33c5.71,2.18,11.47,4.21,17.22,6.24l-1-1.3a47,47,0,0,1-1.07,9.46l1.66-1c-5.64-1.4-11.28-2.81-16.86-4.41a1.35,1.35,0,0,0-.72,2.6c5.58,1.6,11.23,3,16.86,4.42a1.37,1.37,0,0,0,1.66-.95,50.34,50.34,0,0,0,1.17-10.17,1.37,1.37,0,0,0-1-1.3c-5.75-2-11.51-4.07-17.22-6.24-1.62-.62-2.33,2-.72,2.6Z"/><path d="M357.63,408.05c-2.66,2.68-4.66,5.87-6.91,8.89a1.33,1.33,0,0,0,.21,1.63l5.1,5.55a1.38,1.38,0,0,0,1.64.21,83.89,83.89,0,0,0,7.42-6.42c1.25-1.21-.66-3.11-1.91-1.91a78.26,78.26,0,0,1-6.87,6l1.63.21-5.1-5.55.21,1.64c2.12-2.83,4-5.82,6.49-8.34a1.35,1.35,0,0,0-1.91-1.91Z"/><path d="M409.83,416l4.67,7.06a1.39,1.39,0,0,0,1.53.62h0l-1.31-2.26c-2,1.72-3.79,3.6-5.61,5.46H411l-7-7.9a1.36,1.36,0,0,0-1.91,0,1.38,1.38,0,0,0,0,1.91l7,7.9a1.37,1.37,0,0,0,1.91,0c1.82-1.86,3.65-3.74,5.61-5.46a1.36,1.36,0,0,0-1.32-2.25h0l1.52.62-4.67-7a1.35,1.35,0,1,0-2.33,1.36Z"/><path d="M399.69,364.15a20.41,20.41,0,0,1,6.71,3.62,22.37,22.37,0,0,1,4.61,5.77,39,39,0,0,1,3.93,8.59,32,32,0,0,1,1.19,10c-.3,12.19-6.44,24.43-18.3,28.91a31.31,31.31,0,0,1-14.17,1.69,48.07,48.07,0,0,1-9.67-1.95,23.81,23.81,0,0,1-8.81-5.15,29.06,29.06,0,0,1-8.88-15.33,45.83,45.83,0,0,1-1-8.75,28.78,28.78,0,0,1,1-9.33,27.89,27.89,0,0,1,11.4-14.76,31.66,31.66,0,0,1,9.14-4,42.87,42.87,0,0,1,8.3-.91c1-.05,2-.06,3-.06.82,0,.68-1,.41-1.49a2.37,2.37,0,0,0-2-1.15c-2.57,0-5.12.19-7.68.41A28.14,28.14,0,0,0,369,363a30.43,30.43,0,0,0-14.25,14.05c-2.91,6-2.84,13-1.89,19.51a33.69,33.69,0,0,0,7.75,17.34,31.52,31.52,0,0,0,8.67,7.22A36.37,36.37,0,0,0,380,424.64a38.49,38.49,0,0,0,16.31,0A28,28,0,0,0,410.86,416c4.58-5.22,7.11-12.09,7.92-18.92a38.45,38.45,0,0,0-.18-10.82,35.68,35.68,0,0,0-3.47-10c-2.63-5.26-6.12-10-11.43-12.82a31.23,31.23,0,0,0-4.22-1.79c-.63-.21-1.37,0-1.36.74s.9,1.5,1.57,1.73Z"/></g><path d="M231.9,402.8c7.39-3.61,17.94-5.26,24.89,0,3.36,2.56,5.36,6.38,6.55,10.35a9.74,9.74,0,0,1,0-2.35,9.16,9.16,0,0,0,0-2.34c-2-6.68-6.44-12.06-13.53-13.34-4.92-.88-10.08.06-14.75,1.69a27.79,27.79,0,0,0-3.16,1.27,10.75,10.75,0,0,0,0,2.35,10.92,10.92,0,0,1,0,2.35Z"/><path d="M225.33,414.91a42.67,42.67,0,0,1,9.52-2.3c6-.82,12.57-.51,17.91,2.65a19.34,19.34,0,0,1,7.76,9.09,7.73,7.73,0,0,1,0-2.25,6.79,6.79,0,0,0,0-2.25A19.73,19.73,0,0,0,245,408.07a39.72,39.72,0,0,0-16.22,1.28,35.28,35.28,0,0,0-3.4,1.06,11.11,11.11,0,0,0,0,2.25,14.3,14.3,0,0,1,0,2.25Z"/><path d="M151.33,405.41c1.14-7.59-.71-16.45-6.08-22.11a20.34,20.34,0,0,0-9.17-5.5c-1-.3-1.31.85-1.16,1.61a3.17,3.17,0,0,0,2,2.42,16,16,0,0,1,6.71,3.74,15.2,15.2,0,0,1,1.88,2.32,13.89,13.89,0,0,1,1.35,2.66,24.76,24.76,0,0,1,1.55,10.23c0,.56-.06,1.12-.11,1.67,0,.13-.07.71,0,.31s0-.12,0,0a3.27,3.27,0,0,0,1.14,2.9c.53.45,1.81.87,2-.22Z"/><path d="M130.35,409.34c-.07-6.8-2.11-14.34-6.31-19.75a18.36,18.36,0,0,0-6.83-5.46,2.77,2.77,0,0,0-3.09.55c-.62.61-1,1.94.06,2.41,7.86,3.58,10.91,12.78,11.66,20.7.07.76.13,1.52.14,2.28,0,2.37,4.39,1.4,4.37-.73Z"/><path d="M105.52,415.23h0l1.89.88a12,12,0,0,0,.67,1.53c0-.21,0,.62,0,.34s0-.26,0-.39c0-.58,0-1.16-.1-1.74a29.49,29.49,0,0,0-.69-4.29,30.32,30.32,0,0,0-6.21-12.73,30.66,30.66,0,0,0-7.83-6.61,1,1,0,0,0-1.67.86A3.29,3.29,0,0,0,93,395.91a23.84,23.84,0,0,1,9.78,10.65,9.52,9.52,0,0,1,.43,1c.18.46.34.93.5,1.41s.27.9.39,1.35a7.36,7.36,0,0,1,.23.93,28.32,28.32,0,0,1,.56,3.91c0,.23,0,.94,0,.28,0,.16,0,.32,0,.48a3.89,3.89,0,0,0,.72,2.41c.41.53,1.17,1.21,1.9.88h0c1.63-.75-.38-4.78-2.06-4Z"/><path d="M155.91,376.34a8.23,8.23,0,0,1,4.44,1.64,15.63,15.63,0,0,1,4.58,5.22c3.27,5.88,2.86,12.87.83,19.09-.54,1.64,3,1.64,3.45.15,2.22-6.79,2.48-14.52-1.28-20.84-2.37-4-6.58-7.65-11.43-7.71-.74,0-1.83.3-2,1.15s.75,1.3,1.43,1.3Z"/><g id="foot_2" data-name="foot 2"><path class="cls-7" d="M46.83,356.22c17.61,25.61,30.26,44.08,37.4,74.33,0,0-19.15,3.83-31.6,8.62-6.7-17.24-24-49.66-41.17-63.21Z"/><path class="cls-3" d="M10.5,376.92c15.32,14.37,24.9,28.73,38.3,59.37,0,0-7.66-8.62-14.36-13.4A129.27,129.27,0,0,0,1.88,375Z"/><path d="M10,377.4c14,12.84,24.44,29,32.33,46.25,2,4.43,3.89,8.93,5.63,13.48.61,1.61,3.22.91,2.6-.72C44,419.06,35.45,402.29,23.63,387.86a118.89,118.89,0,0,0-11.7-12.37c-1.28-1.17-3.19.73-1.91,1.91Z"/><path d="M12,377.46c12-6.8,23.63-14.23,35.1-21.88,1.44-1,.09-3.29-1.36-2.33-11.48,7.65-23.1,15.08-35.1,21.88A1.35,1.35,0,0,0,12,377.46Z"/><path d="M52.51,440c9.48-2.4,18.57-6.58,28.37-7.61,1.71-.18,1.73-2.89,0-2.7-10.07,1.05-19.35,5.24-29.08,7.7a1.35,1.35,0,0,0,.71,2.61Z"/><path d="M45.88,355.26A206.06,206.06,0,0,1,77.66,412.9a185.16,185.16,0,0,1,5.75,19.44c.4,1.69,3,1,2.6-.72a202.57,202.57,0,0,0-27.78-63.71q-4.9-7.5-10.44-14.56c-1.07-1.37-3,.56-1.91,1.91Z"/></g><path d="M2.36,377.4a88.25,88.25,0,0,1,6.76,7.94c3.2,4.07,6.25,8.26,9.18,12.53,3.25,4.72,6.36,9.55,9.21,14.53,1.38,2.4,2.69,4.84,3.91,7.32.51,1.06,1,2.13,1.48,3.2a3,3,0,0,0,1,1.45c.42.3.82.61,1.22.95,4.9,4.21,9.07,9.38,13.19,14.32,1.11,1.34,3-.58,1.91-1.91a143.45,143.45,0,0,0-12.13-13.36,26.63,26.63,0,0,0-2.3-1.95,3,3,0,0,1-.53-.38c.34.51,0-.46-.05-.48-.29-.68-.6-1.35-.92-2-1.11-2.36-2.32-4.67-3.59-7a226,226,0,0,0-18.6-27.77,98.57,98.57,0,0,0-7.85-9.33,1.35,1.35,0,0,0-1.91,1.91Z"/><path d="M1,375c3.35.7,6.73,1.33,10,2.33a1.35,1.35,0,0,0,.72-2.61c-3.28-1-6.66-1.63-10-2.32a1.38,1.38,0,0,0-1.66.94A1.35,1.35,0,0,0,1,375Z"/><path d="M2.3,374.68a97.39,97.39,0,0,1,16.11-12.54A119.64,119.64,0,0,1,28.83,356c.76-.4,1.52-.78,2.3-1.15l1.29-.61c.25-.11,1.4-.52.59-.38a15.25,15.25,0,0,1,2-.1c3.43-.12,7.1-.21,10.41.82,1.66.52,2.37-2.08.71-2.6a31.32,31.32,0,0,0-9.84-1c-1,0-2.07,0-3.09.12a11.69,11.69,0,0,0-3.79,1.52A124.49,124.49,0,0,0,8.66,365.73a79.24,79.24,0,0,0-8.27,7c-1.22,1.23.69,3.14,1.91,1.91Z"/><path class="cls-15" d="M249.71,261.88c-.15-2.09-4,9-.94,14.1,2.82,4.7,16.91,4.7,20.67.94a127.91,127.91,0,0,1-13.15-.94C249.71,275,250.65,275,249.71,261.88Z"/><path d="M251.28,275.83a54.18,54.18,0,0,0,15.61,2.05,1,1,0,0,0,0-2,52.23,52.23,0,0,1-15.07-2,1,1,0,0,0-.54,1.95Z"/><path d="M269.87,258.75c-6.12-.36-12.27-1.71-18.27-3a1,1,0,0,0-1.24.7,54.1,54.1,0,0,0-1.31,8.49,30.8,30.8,0,0,0,.35,9.29c.29,1.27,2.24.73,1.95-.54a29.49,29.49,0,0,1-.28-8.75,50.76,50.76,0,0,1,1.24-7.95l-1.24.71a127.63,127.63,0,0,0,18.8,3c1.31.08,1.3-1.94,0-2Z"/><path d="M269.58,260.55a34.37,34.37,0,0,0-1.09,17.68c.25,1.28,2.21.74,1.95-.53a32.43,32.43,0,0,1,1.09-16.61c.42-1.24-1.53-1.77-1.95-.54Z"/><path class="cls-6" d="M260.62,262.71c-5.71-1.32-7.37,3.61-6.41,5.52a5.2,5.2,0,0,0,4.31,3.28,5.55,5.55,0,0,0,5.5-2.61C265.07,267,263.78,263.45,260.62,262.71Z"/><path d="M260.8,262.06c-2.18-.49-4.65-.26-6.2,1.52a5,5,0,0,0-1.17,4.51,6.32,6.32,0,0,0,2,2.88,6.06,6.06,0,0,0,3.64,1.26c2.52.07,5.58-1.58,5.92-4.29a5.56,5.56,0,0,0-4.21-5.88c-.84-.21-1.2,1.1-.35,1.3a4.26,4.26,0,0,1,3.25,3.9c.07,2.09-2.18,3.47-4.05,3.61a4.94,4.94,0,0,1-3.09-.75,5.36,5.36,0,0,1-1.79-2.28c0,.13-.06-.17-.07-.22a1.16,1.16,0,0,1,0-.18c0-.21,0,.13,0-.08a4.22,4.22,0,0,1,0-.8,4.11,4.11,0,0,1,.7-1.76c1.15-1.65,3.26-1.85,5.1-1.44C261.29,263.55,261.65,262.25,260.8,262.06Z"/><path d="M259.89,267.06a15.93,15.93,0,0,0,1-2.82c.2-.87.33-1.74.51-2.61a1,1,0,0,0-1.95-.54c-.18.85-.31,1.7-.5,2.54a11.48,11.48,0,0,1-.31,1.15l-.21.62-.15.38,0,.1-.07.16a1,1,0,0,0,1.75,1Z"/><path class="cls-1" d="M164.19,267.28s10.54,65.11,12.45,73.73c9.58,6.7,83.31,23,83.31,23v-76.6S191,274,164.19,267.28Z"/><g class="cls-16"><circle class="cls-17" cx="229.75" cy="341.24" r="33.13" transform="translate(-174 262.4) rotate(-45)"/><path d="M261.46,339.1a31.77,31.77,0,1,1-.73-5,32.18,32.18,0,0,1,.73,5c.12,1.73,2.82,1.74,2.7,0a34.52,34.52,0,1,0-.09,5.39,33.44,33.44,0,0,0,.09-5.39C264.06,337.38,261.36,337.37,261.46,339.1Z"/><path class="cls-18" d="M227.61,308.18c.57,0,1.14-.06,1.71-.07l-.89-4.64A1.81,1.81,0,0,0,227,302a19.11,19.11,0,0,0-16.14,4.5,1.79,1.79,0,0,0-.52,1.9l1.57,4.9A32.88,32.88,0,0,1,227.61,308.18Z"/><path d="M227.61,309.19c.57,0,1.14-.06,1.71-.07a1,1,0,0,0,1-1.28c-.29-1.52-.5-3.08-.87-4.58a3.05,3.05,0,0,0-2.84-2.31A20.12,20.12,0,0,0,213,303.66c-1.77,1.09-4.32,2.6-3.68,5,.44,1.66,1,3.28,1.57,4.9a1,1,0,0,0,1.49.61,32.54,32.54,0,0,1,15.21-5c1.29-.09,1.3-2.11,0-2a34.66,34.66,0,0,0-16.24,5.29l1.49.6-1.33-4.17c-.21-.64-.48-1.17.11-1.72a13,13,0,0,1,1.77-1.36,18.42,18.42,0,0,1,6.44-2.71,18,18,0,0,1,4.51-.35c1,.05,2.79-.13,3.11,1.07.39,1.49.58,3.05.87,4.56l1-1.28c-.57,0-1.14,0-1.71.07C226.31,307.24,226.3,309.27,227.61,309.19Z"/><path d="M228.43,303.47A1.81,1.81,0,0,0,227,302a19.71,19.71,0,0,0-4-.3l2.32,6.67h0c.75-.1,1.5-.17,2.27-.22.57,0,1.14-.06,1.71-.07Z"/><path class="cls-5" d="M214.88,318.61a16.12,16.12,0,0,0-1.58,1.52c-.5.53-1,1.09-1.4,1.66a26.38,26.38,0,0,0-2.34,3.63,24.74,24.74,0,0,0-1.69,3.89,28.93,28.93,0,0,0-1.11,4.05,24.28,24.28,0,0,0-.35,4.17l0,1c0,.35,0,.69,0,1s0,.69-.09,1,0,.69-.08,1c-.16,1.39-.3,2.81-.5,4.27-.09.73-.18,1.47-.33,2.23a21.21,21.21,0,0,1-.47,2.32l-.48.09a14.7,14.7,0,0,1-1.25-2.08,22,22,0,0,1-.89-2.2,20.34,20.34,0,0,1-1-4.65,15.5,15.5,0,0,1,.32-4.75c.39-1.56.86-3.09,1.39-4.59a31.18,31.18,0,0,1,1.91-4.35,27.31,27.31,0,0,1,2.62-3.92,25,25,0,0,1,3.26-3.32,17.93,17.93,0,0,1,3.84-2.55Z"/><path class="cls-18" d="M217.68,311.16c5.81-1.4,42,16.65,21.27,61.91a33.14,33.14,0,0,0,23.86-34C261.63,320.84,241.36,301.66,217.68,311.16Z"/><path d="M261.46,339.1a31.77,31.77,0,1,1-.73-5,32.18,32.18,0,0,1,.73,5c.12,1.73,2.82,1.74,2.7,0a34.52,34.52,0,1,0-.09,5.39,33.44,33.44,0,0,0,.09-5.39C264.06,337.38,261.36,337.37,261.46,339.1Z"/></g><path class="cls-15" d="M162.28,326c-8.42-24.18-17.53-82.5-17.72-87-.08-2-7-7.82-7-6.12.33,13.35,18.85,115.73,24.32,119,.88.53,1.65-10.44,1.91-11.92C164.69,335.13,163.88,330.61,162.28,326Z"/><path d="M162.89,267.64q2.07,12.81,4.19,25.62c2.21,13.46,4.41,26.94,6.8,40.37.35,2,.7,3.95,1.09,5.91a11.2,11.2,0,0,0,.37,1.83c.3.82,1.31,1.27,2,1.65a80.9,80.9,0,0,0,13.09,4.84c13.57,4.21,27.41,7.62,41.22,11,9.13,2.2,18.27,4.44,27.46,6.38l.43.1A1.37,1.37,0,0,0,261.3,364v-76.6a1.37,1.37,0,0,0-1-1.31q-12.5-2.43-25-4.94c-16.05-3.22-32.1-6.5-48.1-10-7.58-1.65-15.15-3.32-22.68-5.2-1.68-.42-2.4,2.19-.72,2.61,14.62,3.65,29.39,6.68,44.14,9.73q21.36,4.44,42.77,8.64l8.85,1.74-1-1.3V364l1.71-1.3q-12.75-2.82-25.45-5.89c-14.63-3.51-29.29-7.08-43.67-11.54-2.93-.91-5.86-1.86-8.73-3a23.17,23.17,0,0,1-5.14-2.44l.62.8c-2.1-9.5-3.45-19.2-5.06-28.79q-3.07-18.39-6.06-36.8c-.44-2.72-.89-5.43-1.32-8.14C165.22,265.21,162.62,265.93,162.89,267.64Z"/><path class="cls-19" d="M217.66,301c-2.2-9.33-6.09-18.35-14.94-23.09-7.94-4.26-17.39-3.72-24.16,2.48-8.51,7.78-6.87,20.44-15.07,28.17-8,7.5-20.1,8.2-30.32,6.33-1.68-.3.89,3.44,2.14,3.67,7.94,1.45,16.43,1.45,24-1.74,8.53-3.6,12.45-10.27,14.67-18.87,2.29-8.88,8.27-17.52,17.93-19a19.2,19.2,0,0,1,13.85,3.36c5.18,3.75,7,10.37,8.42,16.29.28,1.21,3.88,4,3.51,2.39Z"/></g></g></svg>