<svg xmlns="http://www.w3.org/2000/svg" viewBox="0 0 505.32 446.14"><defs><style>.cls-1{fill:#999;}.cls-2{fill:#1e1e1e;}.cls-3{fill:gray;}.cls-14,.cls-4{fill:#fff;}.cls-11,.cls-15,.cls-18,.cls-5{fill:#e10b31;}.cls-6{fill:#ccc;}.cls-7{fill:#585858;}.cls-8{fill:#d6d6d6;}.cls-9{fill:#b3b3b3;}.cls-10{fill:#161616;}.cls-11,.cls-14,.cls-15,.cls-19,.cls-20{stroke:#000;stroke-miterlimit:10;}.cls-11{stroke-width:0.96px;}.cls-12{fill:#903;}.cls-13,.cls-16,.cls-19{fill:blue;}.cls-13,.cls-18{stroke:#0a0a0a;stroke-linecap:round;stroke-linejoin:round;}.cls-13,.cls-14,.cls-18{stroke-width:1.91px;}.cls-15{stroke-width:4.31px;}.cls-17{fill:#fafafa;}.cls-19,.cls-20{stroke-width:3.48px;}.cls-20{fill:none;}.cls-21{fill:#009;}</style></defs><title>robot-party</title><g id="Layer_2" data-name="Layer 2"><g id="Long_Page_cz.2" data-name="Long Page cz.2"><g id="arm_1" data-name="arm 1"><path class="cls-1" d="M104.71,166.28c5.4,8.47,11,18.18,18.26,25.11s16.66,12.16,26.71,12.47c8.14.26,16.52-2.66,24.28-.16,4.17,1.34,7.93,4.42,9.36,8.56s.09,9.29-3.6,11.66l-4.25,2.28a8.23,8.23,0,0,1-2.35.83c-17.29,3.21-33.4,1.91-48.24-7.43-16.64-10.46-28.55-30.63-36-48.81A39.86,39.86,0,0,0,104.71,166.28Z"/><path class="cls-2" d="M111.73,208c12.13,14.22,31.08,19.76,40.47,20.07,7,.24,25-1.7,25.39-2.37.93-1.45-3.87-3.38-5.16-3.23-12.23,1.45-22.32,3.26-36.05-1.27S110.16,206.45,111.73,208Z"/><path class="cls-3" d="M99.35,188.41s7.18-1.52-.28-18.2c-1.25-2.8,2.49-5.47-.16-7.69a54.5,54.5,0,0,1-10.58,8.1C89.88,174.32,94.85,189.82,99.35,188.41Z"/><path d="M174.05,225.66c-14.52,2.81-29.63,2.15-43-4.55-12.67-6.35-22.45-17-29.94-28.89a137,137,0,0,1-10.79-21.05c-.56-1.39-2.85-.78-2.27.62,5.5,13.38,12.75,26.3,22.72,36.87C120.9,219.46,134.06,227,148.86,229a79.35,79.35,0,0,0,25.81-1.1c1.49-.29.86-2.56-.62-2.27Z"/><path d="M180.32,224.94c5.43-3.66,6.06-11.37,2.33-16.46-4.45-6.08-12-7.36-19.1-6.85-4.1.3-8.17,1-12.29,1.07a32.58,32.58,0,0,1-11-1.79,47.22,47.22,0,0,1-18.36-12.23c-6.32-6.52-11.21-14.23-16.07-21.86-.81-1.27-2.85-.09-2,1.19,7.85,12.32,16.21,25.25,29.43,32.37a37.42,37.42,0,0,0,20.3,4.58c7.34-.47,15.63-2.78,22.52.9a12.16,12.16,0,0,1,6.44,7.88,8.91,8.91,0,0,1-3.37,9.17c-1.25.84-.07,2.88,1.19,2Z"/><path d="M162.51,204.72c.11.23.22.47.32.7l.12.3c.21.5-.08-.21.05.14l.39,1a31.13,31.13,0,0,1,1.49,5.94c.75,5.3-.33,10.65-4.75,14.06-1.67,1.29.88,4.29,2.56,3,8.06-6.22,6.82-18.14,2.85-26.4-1-2.1-4.14-1.08-3,1.23Z"/><path class="cls-4" d="M160,205a39.6,39.6,0,0,1-25.53-2.83c-7.29-3.47-13.43-8.95-18.6-15.07a95.66,95.66,0,0,1-7.76-10.71,2.33,2.33,0,0,0-2.48-1.18,1.36,1.36,0,0,0-.67,2.07c9.18,14.61,22.53,28.72,40.36,31.54a45,45,0,0,0,16.48-.57c1-.2,1.05-1.34.67-2.07A2.34,2.34,0,0,0,160,205Z"/><path d="M145.86,202.92a23.62,23.62,0,0,1,2.57,7.88c.79,5.41-.9,10.57-5.3,14-.1.08,2.44,3,2.86,2.7,4.41-3.4,6-8.51,5.31-13.92a23.43,23.43,0,0,0-2.6-8.11,7.31,7.31,0,0,0-1.65-1.77,3.23,3.23,0,0,0-.93-.73s-.38-.22-.26,0Z"/><path d="M129.8,199.05c1.77,4.23,1.88,9.92-.61,13.9a13.52,13.52,0,0,1-5.34,4.75c-.77.4.25.87.64,1a4.1,4.1,0,0,0,2.7-.06,13.77,13.77,0,0,0,7.45-9.26,18,18,0,0,0-.42-8.57,15.4,15.4,0,0,0-.61-1.85c-.39-.93-4.2-.82-3.81.11Z"/><path d="M116.74,188.23a24.3,24.3,0,0,1-.79,4.06,26.42,26.42,0,0,1-1.41,3.94,14.65,14.65,0,0,1-1,1.85c-.19.31-.38.61-.59.9l-.34.47-.26.32a12.05,12.05,0,0,1-.85.9c.26-.24-.19.16-.27.22l-.19.16c-.19.15.27-.18,0,0s-.37.25-.56.36c.34-.2-.09,0-.21.11l-.17.08-.18.08-.52.19a4.26,4.26,0,0,0-2.3,1.55c-.39.57-.17,1.14.6.9,7.21-2.18,10.83-9.11,12.14-16.06.12-.61.22-1.23.28-1.84.08-.78-1.41-.15-1.66,0-.64.33-1.63,1-1.71,1.79Z"/><path d="M105.21,172.5a15.46,15.46,0,0,1-1.49,2.85l-.39.61-.09.13c.11-.15,0,0,0,0l-.27.37c-.36.47-.73.93-1.12,1.38s-.89.95-1.36,1.39A15.72,15.72,0,0,1,99,180.49a16.76,16.76,0,0,1-2.11,1.29c.23-.12,0,0,0,0l-.3.14-.68.29-.63.24-.24.08c.35-.12-.19.06-.21.06-.47.14-1.71.61-1.23,1.31s1.84.58,2.48.39a20.68,20.68,0,0,0,12.53-10.6,11.72,11.72,0,0,0,.52-1.14c.49-1.31-3.37-1.28-3.83-.07Z"/></g><g id="hand_1" data-name="hand 1"><path class="cls-5" d="M104.71,166.28a27.62,27.62,0,0,0,9.16-8.92,20.53,20.53,0,0,0,1.51-17.19c-3-8.36-7.46-15.54-17.91-18.71-4.29-1.3-8.92-.59-13.3.41-8.25,1.89-17.55,8.12-18.28,20.63-.43,7.3,2.21,16,7.45,21.07s9.18,8,15.7,7.25A41,41,0,0,0,104.71,166.28Z"/><path class="cls-5" d="M116.78,141.66c3.75-.65,8.88-1.83,10-3.06a33.71,33.71,0,0,1-5.84-8c-2.88,1.08-5.2,1.92-8.08,3A36.06,36.06,0,0,1,116.78,141.66Z"/><path class="cls-5" d="M80,124.07l-3.19-11.75,1-.37a15.18,15.18,0,0,1,8-1.3s.75,7.82,2.47,11.58Z"/><path class="cls-5" d="M67.89,155.72c-4.37,0-13.75-.09-13.75-.09l-3-7.83a91.87,91.87,0,0,0,14.57-1.13C65.47,149.49,66.28,151.54,67.89,155.72Z"/><path class="cls-5" d="M105.58,125.24a50.63,50.63,0,0,1,3.26-7.28c-2.4-.54-3.58-1.48-5.65-2.83l-.09,0a23.52,23.52,0,0,0-3.45,6.51A20.69,20.69,0,0,1,105.58,125.24Z"/><path class="cls-5" d="M66.77,135.69c-1.79-1.27-6.08-3.54-6.08-3.54.88-1.65,2.55-5.53,2.55-5.53L70,130.14Z"/><path class="cls-4" d="M99.51,154.48A35.34,35.34,0,0,0,95.4,141l7.2-5.1c2.57,4.6,6,11.29,3.54,15.39A33.62,33.62,0,0,1,99.51,154.48Z"/><path d="M116.76,143.19c3.11-1.34,6.22-2.67,9.38-3.88a1.21,1.21,0,0,0,.7-1.74,42.76,42.76,0,0,0-5.06-7.83,1.14,1.14,0,0,0-1.15-.3l-8.07,3a1.22,1.22,0,0,0-.83,1.45,1.19,1.19,0,0,0,1.45.83c2.69-1,5.39-2,8.08-3l-1.15-.31a40.36,40.36,0,0,1,4.69,7.35l.71-1.73c-3.35,1.29-6.65,2.71-9.94,4.12a1.19,1.19,0,0,0-.42,1.61,1.21,1.21,0,0,0,1.61.43Z"/><path d="M81.2,122.75A111.57,111.57,0,0,1,78,112l-.82,1.45a31.41,31.41,0,0,1,3.35-1.25,14.52,14.52,0,0,1,5.33-.38L84.68,111a49.57,49.57,0,0,1,2.12,9.85A1.22,1.22,0,0,0,88,122a1.19,1.19,0,0,0,1.18-1.18A52.28,52.28,0,0,0,87,110.33a1.23,1.23,0,0,0-1.14-.86,16.33,16.33,0,0,0-5.74.41,28.74,28.74,0,0,0-3.57,1.3,1.21,1.21,0,0,0-.83,1.45,108.23,108.23,0,0,0,3.26,10.75,1.18,1.18,0,1,0,2.27-.63Z"/><path d="M68.39,154.16c-4.75,0-9.5.16-14.25.29l1.14.86a35.78,35.78,0,0,1-1.89-7.12l-1.18,1.17c4.49-.55,9-1.11,13.48-1.51,1.5-.13,1.51-2.49,0-2.36-4.5.4-9,1-13.48,1.52-.57.07-1.27.48-1.18,1.18a39.87,39.87,0,0,0,2,7.75,1.23,1.23,0,0,0,1.14.87c4.75-.14,9.5-.27,14.25-.29a1.18,1.18,0,0,0,0-2.36Z"/><path d="M106.93,126.48a63.39,63.39,0,0,0,2.57-8.42,1.2,1.2,0,0,0-.54-1.33l-5.26-2.6a1.2,1.2,0,0,0-1.61.43,63.15,63.15,0,0,0-3.46,6.5,1.22,1.22,0,0,0,.43,1.62,1.19,1.19,0,0,0,1.61-.43,61.18,61.18,0,0,1,3.45-6.5l-1.61.42,5.26,2.59-.55-1.33a58.11,58.11,0,0,1-2.33,7.86,1.18,1.18,0,0,0,2,1.19Z"/><path d="M66.67,134.94l-5.37-3.82a1.17,1.17,0,0,0-1.42.19h0l1.85,1.43c.95-1.8,1.75-3.67,2.55-5.54l-1.62.43,7.27,3.79a1.21,1.21,0,0,0,1.61-.43,1.19,1.19,0,0,0-.42-1.61l-7.26-3.79a1.2,1.2,0,0,0-1.62.42c-.8,1.86-1.6,3.74-2.54,5.54A1.18,1.18,0,0,0,61.53,133v0l-1.43.19L65.48,137a1.18,1.18,0,0,0,1.61-.42,1.2,1.2,0,0,0-.42-1.61Z"/><path d="M88.61,169.45a17.26,17.26,0,0,1-12.2-4.33,25,25,0,0,1-8.28-12c-2.72-8.75-1.22-18.68,6-24.77a25.38,25.38,0,0,1,9.87-5,35.79,35.79,0,0,1,8.41-1.26,19.9,19.9,0,0,1,8.15,1.71,22.38,22.38,0,0,1,9.73,7.85,28.21,28.21,0,0,1,5,11.89c.74,5.88-1.74,12-5.64,16.37-3.26,3.61-7.41,5.69-11.88,7.42-1,.39.23,3.06,1.3,2.64,4.35-1.68,8.43-3.72,11.69-7.13a23.84,23.84,0,0,0,6.58-15.1c.26-5.18-1.77-10.29-4.28-14.74A26.81,26.81,0,0,0,103.66,123a25.8,25.8,0,0,0-7.27-3,23.49,23.49,0,0,0-9.45-.05,30.35,30.35,0,0,0-12.57,4.71,21.89,21.89,0,0,0-8.05,10.31,27.7,27.7,0,0,0-.68,15.47A29.33,29.33,0,0,0,74.57,166a26.29,26.29,0,0,0,6.91,4.83,17.79,17.79,0,0,0,8,1.37c1.22,0,.21-2.78-.86-2.74Z"/></g><path class="cls-6" d="M162.47,197.81s107.12,19.25,135.58,20.93c0,46.86-3.35,93.73-7.33,150.27A456.38,456.38,0,0,1,188,345.67Z"/><path class="cls-1" d="M219.8,338.83c10.88,8.37,25.81,10.69,31.8,6.69,10-6.69,13.39-12.55,31-3.34,11.71-1.68,11.71-27.62,11.71-27.62l-3.35,47.7c-40.17-2.51-73-12.53-102.93-23.28l-7.53-35.3a118.07,118.07,0,0,0,6.69,13.39C195.53,331.3,206.41,314.56,219.8,338.83Z"/><path class="cls-7" d="M297.63,358.08c.84-25.11-2.72-62.26-5.87-17.24-.33,4.67-2.5,13.05-9.19,14.73-2.51-9.21-5-12.08-8.37-12.56-8.13-1.15-15.47-3.08-20.92,0-3.89,2.19-5,10.05-11.72,9.21-13.8-1.73-22.6-5-25.11-8.37-1.67-9.21-4.18-18.41-14.22-18.41-5.17,0-14.77,3.74-15.64-1.36,0,0-11.37-57.41-10.31-44.67L188,345.52A446.76,446.76,0,0,0,290.1,369Z"/><path class="cls-4" d="M298.89,218.74c2.51-2.51,32.63-25.11,32.63-25.11.84,12.55-7.53,123.86-13.39,145.62l-25.94,29.29Z"/><path class="cls-7" d="M295.12,191.54c-7.61,4.16-14.35,13.3-25.23,11.63-20-3.08-52.85-10.38-65.4-12-5-.84-14.59.48-33.23,6.31,16.89,3.49,46,7.57,62.91,10.48,1.61.26,17.54,3.14,19.8,3.5,13.58,2.12,40.63,4.8,43.69,5.24.45-.55,19.69-15.69,28.42-20.93C308.61,194.56,296.65,190.7,295.12,191.54Z"/><g id="HEAD"><path class="cls-3" d="M262.42,183.6a84.68,84.68,0,0,1,6.76,11.49c-32.06-8.55-74-17.85-106.34-25h-.28c-1.09-4-3.78-7.46-5.89-10.9Z"/><path class="cls-4" d="M287.64,63.86c1.34,1.74,8.7,22.37,23.3,35.74l-7.45,61.7c-13.55,9-31.91,31.5-34.17,32.92Z"/><path class="cls-8" d="M156.56,157.13c2.78-16.08,7.39-71.61,7.95-87.86L274,78.75,273.77,80c-.84,17.57-12.09,102.64-12.09,102.64L157.14,158.46Z"/><path d="M157.94,157.51c1.84-10.67,2.75-21.55,3.78-32.32q1.91-20.1,3.33-40.25c.36-5.22.72-10.44.9-15.67l-1.44,1.43,10.91,1,26.19,2.27,31.54,2.73L260.43,79l9,.78a32.69,32.69,0,0,0,4.3.37l.19,0-1.39-1.82c-.37,2.37-.43,4.77-.64,7.15-.28,3.23-.6,6.45-.94,9.66-.9,8.55-1.9,17.09-2.93,25.62q-1.67,13.89-3.42,27.77-1.45,11.51-2.95,23l-1,7.38a25.86,25.86,0,0,0-.46,3.49.88.88,0,0,1,0,.16l1.82-1.38-10.44-2.41-24.94-5.76-30.16-7-26.17-6-8.55-2a26.83,26.83,0,0,0-4.11-.94l-.18,0,.86.66-.58-1.34c-.75-1.68-3.22-.22-2.48,1.45.41.94.7,1.78,1.74,2.06.54.15,1.09.26,1.64.38l7,1.62,24.7,5.71,30.7,7.08L248,180.9c4.38,1,8.75,2.16,13.15,3l.19.05a1.46,1.46,0,0,0,1.82-1.39c.39-2.94.77-5.88,1.16-8.82q1.39-10.82,2.77-21.61,1.76-13.77,3.42-27.53c1.06-8.74,2.1-17.49,3-26.24.64-5.93,1.39-11.89,1.65-17.85,0-.11,0-.22,0-.33,0-.36,0,.17,0,0,0-.36.11-.72.17-1.08A1.47,1.47,0,0,0,274,77.32l-10.91-.95L236.86,74.1l-31.54-2.73L178,69l-9-.78c-1.42-.12-2.87-.35-4.3-.37l-.19,0a1.45,1.45,0,0,0-1.43,1.44c-.38,10.75-1.29,21.5-2.15,32.22-1.08,13.32-2.27,26.64-3.75,39.92-.57,5.12-1.13,10.26-2,15.34C154.86,158.56,157.63,159.33,157.94,157.51Z"/><path class="cls-9" d="M270.11,193.35c11-55.07,19-127.56,16.26-129C283.89,67.34,278,74,274,78.75L263.42,182.87s3.77,6.48,5.9,11.35Z"/><polygon class="cls-4" points="185.16 58.25 284.79 64.35 274 78.45 166.22 68.9 185.16 58.25"/><path d="M272.33,80c-.67,12-1.84,23.9-3.13,35.81q-2.32,21.67-5.37,43.27-1.63,11.61-3.53,23.18c-.3,1.81,2.47,2.59,2.77.76,2.32-14.08,4.3-28.23,6.1-42.39,1.76-13.94,3.34-27.9,4.61-41.88.56-6.24,1.07-12.49,1.42-18.75.11-1.85-2.76-1.84-2.87,0Z"/><path d="M166.69,69.79a193,193,0,0,0,18.84-10c1.58-1,.14-3.45-1.45-2.48a193,193,0,0,1-18.84,10c-1.67.78-.21,3.25,1.45,2.48Z"/><path d="M287.51,62.29c-26.48-.13-52.93-2-79.34-3.68q-11.38-.73-22.76-1.45c-1.84-.11-1.84,2.76,0,2.88,27.05,1.66,54.09,3.68,81.18,4.66,7,.25,13.94.43,20.92.46a1.44,1.44,0,0,0,0-2.87Z"/><path d="M285.13,63.59a23.34,23.34,0,0,1-5,6.58,98.56,98.56,0,0,0-7.17,7.57,1.47,1.47,0,0,0,0,2,1.44,1.44,0,0,0,2,0,102.71,102.71,0,0,1,7.32-7.72,25.11,25.11,0,0,0,5.32-7,1.47,1.47,0,0,0-.52-2,1.43,1.43,0,0,0-2,.51Z"/><path d="M286.4,64.59a27.4,27.4,0,0,1,1.71,2.79l3.38,5.76c3.39,5.69,6.91,11.31,10.64,16.79q3.74,5.46,7.79,10.69l-.42-1-2.53,21-4,33.1-.92,7.64.42-1c-11,9-20.65,19.41-30.57,29.52-.74.75-1.48,1.5-2.24,2.23l-.74.69-.32.27s.23-.16,0,0c-1.54,1-.11,3.5,1.45,2.48a22.36,22.36,0,0,0,3.36-3.09c2.05-2.08,4.07-4.19,6.11-6.28,5.67-5.85,11.41-11.65,17.41-17.16,1.59-1.46,3.2-2.9,4.83-4.3,1.05-.91,2.94-1.92,3.17-3.35.09-.53.13-1.07.2-1.6l1.14-9.5,3.7-30.56,1.59-13.21c.26-2.18.72-4.42.8-6.62a2.34,2.34,0,0,0-.68-1.56c-1.54-2-3.05-4-4.51-6.1q-4-5.68-7.75-11.58c-3.36-5.29-6.46-10.72-9.69-16.09a14.79,14.79,0,0,0-.84-1.32c-1.1-1.46-3.59,0-2.48,1.45Z"/><g id="lips"><path class="cls-1" d="M184.8,150.28s-7.85-10.39-6.74-12.93c1.27-2.9,6.43-2.94,6.43-2.94S187.74,147,184.8,150.28Z"/><path class="cls-10" d="M184.51,134.48c18,4.1,38.2,9.17,60.85,8.34,0,0,2,2,1.95,3a46.28,46.28,0,0,1-2.44,13.34l-1.46.37a112.1,112.1,0,0,1-56.87-8.3c-4-6.34-3.92-12-3.69-16.43Z"/><path d="M184.13,135.87c15.36,3.42,30.62,7.42,46.4,8.38a120.29,120.29,0,0,0,14.83,0c1.83-.12,1.85-3,0-2.88-16.34,1-32.35-1.82-48.2-5.46-4.09-.94-8.17-1.91-12.27-2.82-1.8-.4-2.57,2.36-.76,2.77Z"/><path d="M246.08,145.3c-.39-.25-.48-.23-.29,0a.91.91,0,0,1,.08.48,9.13,9.13,0,0,1-.1,1.88q-.14,1.9-.45,3.81a48.08,48.08,0,0,1-1.84,7.27l1-1a52.5,52.5,0,0,1-12.07,1.13,115.9,115.9,0,0,1-15.24-.82c-9.45-1.13-19.08-3.25-27.81-7.12a9.5,9.5,0,0,1-1.52-.7,3.43,3.43,0,0,1-.91-1.5,40.43,40.43,0,0,1-1.83-4.65,18,18,0,0,1-.87-8.94c.36-1.8-2.41-2.58-2.77-.76a20.89,20.89,0,0,0,.8,10.25,45.7,45.7,0,0,0,2.19,5.55,5.29,5.29,0,0,0,1.36,2.25,12.26,12.26,0,0,0,1.94.91,90.07,90.07,0,0,0,17.84,5.66A122.41,122.41,0,0,0,226,161.69q5,.23,10,0a44.4,44.4,0,0,0,8.54-.94,2.77,2.77,0,0,0,1.36-.55c.65-.65.83-2,1.07-2.88a46.64,46.64,0,0,0,1.35-6.42c.26-1.88.8-4.28.3-6.15-.38-1.43-1.7-2.82-3.28-2.21s-1,3.44.76,2.77Z"/></g><path d="M274,77.32l-10.91-.95L236.86,74.1l-31.54-2.73L178,69l-9-.78c-1.42-.12-2.87-.35-4.3-.37l-.19,0a1.45,1.45,0,0,0-1.43,1.44c-.38,10.75-1.29,21.5-2.15,32.22-1.08,13.32-2.27,26.64-3.75,39.92-.57,5.12-1.13,10.26-2,15.34-.31,1.81,2.46,2.58,2.77.76,1.84-10.67,2.75-21.55,3.78-32.32q1.91-20.1,3.33-40.25c.36-5.22.72-10.44.9-15.67l-1.44,1.43,10.91,1,26.19,2.27,31.54,2.73L260.43,79l9,.78c1.42.13,2.87.35,4.3.37l.19,0c1.84.16,1.83-2.71,0-2.87Z"/><path d="M285.65,64c-.49,16.21-1.86,32.4-3.52,48.53-1.9,18.46-4.26,36.91-7.64,55.16A257.45,257.45,0,0,1,268.73,193c-.52,1.77,2.25,2.53,2.77.76,4.67-16,7.28-32.66,9.61-49.15q3.9-27.62,6-55.45c.63-8.37,1.16-16.75,1.41-25.13.06-1.85-2.82-1.85-2.87,0Z"/><path d="M162.6,170.64c28,6.48,56.06,12.5,84,19.29q11.2,2.73,22.36,5.68a1.46,1.46,0,0,0,1.63-2.11,63.53,63.53,0,0,0-6.87-10.66c-.56-.73-1-1.44-1.89-1.68-1.62-.45-3.29-.76-4.93-1.14l-23.56-5.45-32.17-7.43L172,160.4c-4.84-1.12-9.68-2.37-14.56-3.36l-.21,0a1.45,1.45,0,0,0-1.62,2.11c2.1,3.4,4.61,6.66,5.74,10.55a1.48,1.48,0,0,0,1.39,1.06H163c1.84-.07,1.85-2.95,0-2.88h-.28l1.38,1.06c-1.2-4.16-3.79-7.61-6-11.24l-1.63,2.11,11.83,2.73,27.7,6.4,32.23,7.44,25.44,5.88,6.53,1.51a3.5,3.5,0,0,0,1.13.26c.19,0-.64-.62-.55-.29s.55.69.73.92c1.09,1.4,2.12,2.85,3.11,4.32a54,54,0,0,1,3.51,6l1.62-2.11c-27.64-7.37-55.6-13.47-83.5-19.76q-11.43-2.58-22.84-5.2C161.56,167.46,160.79,170.23,162.6,170.64Z"/><path class="cls-1" d="M259.61,109.64c-5.14-7.46-14.54-4.26-22.54-3-5.17.82-11.89-.12-13.2-1.44-4.48-6.52-12.61-3-19.67-2.61-6.24.32-13.73-1.14-15-2.4-4.26-6.33-13.1-6.27-18.75-2.5s-4.67,12.43-.67,17.09c5.87,6,31.74,3.14,33.7,5.38,14.73,8.17,25.91,1.49,32.78,6.6,7.79,7.78,25.1,4.31,27-7.64A12.14,12.14,0,0,0,259.61,109.64Z"/><path d="M223.61,110c-2.05,5.17-6.74,9.87-12.7,6.81a8.17,8.17,0,0,1-4.16-12.08c3.6-4,10.82-2.54,14.85.51A5.46,5.46,0,0,1,223.61,110Z"/><path d="M255.65,119.17c-2,5.23-7.31,5.74-12.45,5.75-6.13-.19-7.12-5.73-6.33-9.68,1.57-7.91,9.68-9.78,14.81-7.13C253.3,109.58,257.42,115.41,255.65,119.17Z"/><path d="M192.31,107c-4.56,10.54-14.29,8.61-17.81.83-1.95-5.45,3.23-9.59,9.14-10.33,3.11-.39,5.36,1.07,7.4,3.49C192.42,102.33,192.49,105,192.31,107Z"/><g id="eyes"><path class="cls-11" d="M188,105.62c1.81,1.35,3.67,2.64,5.56,3.89,3.92,2.56.91,9.43-3.07,6.82-2.46-1.61-4.87-3.27-7.21-5l-3.37,4.06c-3.05,3.68-8.68-1.16-5.62-4.85l3.23-3.88a72.13,72.13,0,0,1-5.47-5.32c-3.21-3.49,1.41-9.31,4.65-5.78a76.37,76.37,0,0,0,5.54,5.41l4.55-5.49c3.05-3.67,8.67,1.17,5.62,4.85Z"/><path class="cls-11" d="M223.11,103.59c-2,2-3.82,4-5.6,6.16a76.74,76.74,0,0,0,7.09,6c3.84,2.84-.84,8.61-4.65,5.78a77.81,77.81,0,0,1-7-5.83c-.89,1.27-1.74,2.56-2.55,3.89-1.06,1.73-2.88,2.72-4.84,1.8-1.62-.77-2.82-3.31-1.77-5,1.26-2.06,2.59-4.06,4-6-1.68-1.89-3.29-3.84-4.81-5.88-2.9-3.86,3-8.21,5.92-4.37,1.11,1.48,2.26,2.92,3.46,4.3,1.63-1.94,3.33-3.83,5.12-5.64C220.82,95.39,226.47,100.21,223.11,103.59Z"/><path class="cls-11" d="M254.32,129a83.51,83.51,0,0,1-10-6.79c-1.7,2.1-3.49,4.13-5.4,6.06-3.47,3.5-9.37-1.53-5.87-5.07a74.3,74.3,0,0,0,5.42-6.1,80.57,80.57,0,0,1-7.16-7.88c-3.13-3.94,3.08-8.47,6.19-4.56a68.82,68.82,0,0,0,5.51,6.14,75.92,75.92,0,0,0,5.09-9.31c2.09-4.57,9-1.23,6.91,3.36A84.66,84.66,0,0,1,248.86,116a73,73,0,0,0,8.67,5.89C261.79,124.38,258.62,131.53,254.32,129Z"/></g><path class="cls-12" d="M249.11,2.2A209.93,209.93,0,0,1,262,43c1.06,5.08,2,10.17,2.87,15.28.32,1.82,3.08,1.05,2.77-.76-2.66-15.54-6-31-11.53-45.77-1.39-3.72-2.91-7.38-4.49-11-.74-1.69-3.22-.23-2.48,1.45Z"/><path class="cls-5" d="M244.66,1.77,200.53,24.43,255.15,37.5S254.72,24.52,244.66,1.77Z"/><path d="M254,129.64a84.37,84.37,0,0,1-9.94-7h0l.67-.07c-1.49,1.84-3,3.63-4.69,5.34a11.18,11.18,0,0,1-1.36,1.27,5.18,5.18,0,0,1-.86.49,6.53,6.53,0,0,1-1,.27,4.84,4.84,0,0,1-3.67-1.08,4.22,4.22,0,0,1-1.63-3.48,3.63,3.63,0,0,1,.72-1.87,12.85,12.85,0,0,1,1.23-1.36c1.62-1.69,3.16-3.46,4.63-5.29h0l0,.64c-1.87-1.79-3.66-3.68-5.35-5.64l-1.25-1.5-.61-.75c-.19-.3-.4-.59-.57-.91a3.87,3.87,0,0,1,.5-4.15,4.7,4.7,0,0,1,3.76-1.82,4.56,4.56,0,0,1,1.09.16,4.46,4.46,0,0,1,1,.46l.46.31a4.54,4.54,0,0,1,.38.38l.37.38.3.38a69.37,69.37,0,0,0,5.16,5.68h0l-.81.09a73.56,73.56,0,0,0,4.16-7.72l.46-1a8.28,8.28,0,0,1,.51-1A4.15,4.15,0,0,1,249.6,99a4.26,4.26,0,0,1,2.62-.32,5,5,0,0,1,2.36,1.1,4.49,4.49,0,0,1,1.49,4.89l-.21.63-.23.51-.46,1-1,2a86.85,86.85,0,0,1-4.39,7.82h0l-.24-1.53c1.43,1.17,2.9,2.3,4.42,3.36.76.53,1.53,1,2.31,1.55l1.17.75c.21.13.39.23.61.38l.69.51a4.85,4.85,0,0,1,1.57,3,5.44,5.44,0,0,1-.58,3.23,4.41,4.41,0,0,1-2.49,2.22A4,4,0,0,1,254,129.64Zm.7-1.21a2.66,2.66,0,0,0,2.11.24,2.91,2.91,0,0,0,1.53-1.52,3.38,3.38,0,0,0-.75-4.08l-.45-.32c-.17-.11-.41-.23-.61-.34l-1.23-.72q-1.23-.72-2.43-1.5c-1.61-1-3.17-2.13-4.69-3.28l-.85-.65.6-.88h0a84.77,84.77,0,0,0,4.54-7.46l1-1.94.48-1,.24-.49.15-.42a3,3,0,0,0,.18-.83,2.84,2.84,0,0,0-.1-.82,2.71,2.71,0,0,0-.91-1.42,3.22,3.22,0,0,0-1.58-.8,2.63,2.63,0,0,0-1.69.13A2.57,2.57,0,0,0,249,101.5a6.8,6.8,0,0,0-.49.91l-.5,1a73,73,0,0,1-4.5,7.7l-.36.54-.45-.45h0a69.92,69.92,0,0,1-5.23-5.78l-.3-.38-.3-.31c-.1-.1-.19-.21-.3-.3l-.35-.23a3.38,3.38,0,0,0-.74-.36,3.57,3.57,0,0,0-3.78,1.31,2.88,2.88,0,0,0-.39,3.1c.14.24.31.48.46.72l.6.75,1.23,1.48c1.66,2,3.42,3.81,5.27,5.6l.31.3-.27.34h0q-2.22,2.77-4.68,5.36c-.87.87-1.62,1.6-1.68,2.64a3.26,3.26,0,0,0,1.28,2.66,3.87,3.87,0,0,0,2.92.87,6.68,6.68,0,0,0,.73-.21,4.44,4.44,0,0,0,.67-.38,7.31,7.31,0,0,0,.61-.52l.62-.63q2.43-2.53,4.63-5.28l.3-.37.37.29h0A83.79,83.79,0,0,0,254.67,128.43Z"/><path d="M223.67,104.15c-.94,1-1.86,2-2.72,3.11a37.8,37.8,0,0,0-2.43,3.33h0l-.11-1.79c1.73,1.74,3.54,3.4,5.43,5l1.45,1.17a4.71,4.71,0,0,1,1.42,1.91,4,4,0,0,1,.17,2.39,5.08,5.08,0,0,1-1,2,4.77,4.77,0,0,1-4,1.76l-.57-.08-.54-.18a3.83,3.83,0,0,1-1-.52c-.59-.39-1-.78-1.52-1.18-1.95-1.59-3.81-3.28-5.59-5h0l.72-.08-1.6,2.44-.8,1.22a7.3,7.3,0,0,1-.94,1.25,4.15,4.15,0,0,1-2.93,1.34,3.87,3.87,0,0,1-1.62-.36,3.74,3.74,0,0,1-1.33-1,4.72,4.72,0,0,1-1.2-3,3.29,3.29,0,0,1,.38-1.64c.27-.47.54-.84.81-1.26l3.25-4.91v0l0,.6-4-4.76c-.33-.4-.67-.77-1-1.21-.15-.24-.31-.49-.45-.74s-.21-.56-.3-.85a4,4,0,0,1,.85-3.37,4.74,4.74,0,0,1,3-1.73,4.1,4.1,0,0,1,3.35,1.13c.19.22.42.45.58.65l.49.59,1,1.18,1.94,2.36h-1.09l3.29-3.52,1.61-1.79a7.12,7.12,0,0,1,1-.89,4.53,4.53,0,0,1,.61-.34,2.3,2.3,0,0,1,.66-.25,4.78,4.78,0,0,1,5,1.7,3.89,3.89,0,0,1,.92,2.7A4.29,4.29,0,0,1,223.67,104.15ZM222.55,103a2.81,2.81,0,0,0,.82-1.6,2.43,2.43,0,0,0-.55-1.73,3.33,3.33,0,0,0-3.49-1.31,1.5,1.5,0,0,0-.46.17c-.14.09-.29.14-.42.24a5.21,5.21,0,0,0-.79.73l-1.59,1.75c-1,1.19-2.11,2.36-3.14,3.56l-.58.66-.52-.66h0l-1.93-2.44-1-1.22-.48-.61c-.16-.2-.3-.33-.44-.5a2.76,2.76,0,0,0-2.27-.83,3.52,3.52,0,0,0-2.23,1.23,2.83,2.83,0,0,0-.67,2.38l.21.61.33.58c.28.39.63.79.94,1.19l3.84,4.78.23.29-.2.31h0L205,115.49c-.25.4-.56.83-.78,1.2a2.35,2.35,0,0,0-.26,1.18,3.77,3.77,0,0,0,1,2.35,3,3,0,0,0,1,.75,3.09,3.09,0,0,0,1.22.27,3.2,3.2,0,0,0,2.25-1,6.52,6.52,0,0,0,.82-1.08l.81-1.24,1.61-2.46.3-.45.43.37h0a73.44,73.44,0,0,0,5.77,4.66c.49.35,1,.77,1.48,1a2.36,2.36,0,0,0,.69.31,3.57,3.57,0,0,0,.35.1l.35,0a3.07,3.07,0,0,0,2.5-1.3,2.55,2.55,0,0,0,.4-2.56,2.67,2.67,0,0,0-.85-1l-1.52-1.1a75,75,0,0,1-5.88-4.8l-1-.92.92-.87h0c1-1,2-2,3-2.94Z"/><path d="M188.86,105.51c1.8,1.08,3.45,2.12,5.11,3.34a4.71,4.71,0,0,1,2.06,3.3,5.35,5.35,0,0,1-.85,3.73,4,4,0,0,1-1.51,1.32,3.77,3.77,0,0,1-1,.32,3.58,3.58,0,0,1-1-.06,3.06,3.06,0,0,1-.95-.33,4.46,4.46,0,0,1-.79-.48l-1.39-1-5.52-4,.66-.08c-1.18,1.4-2.3,2.8-3.53,4.21a3.66,3.66,0,0,1-2.72,1.32,4.23,4.23,0,0,1-2.83-1,4.45,4.45,0,0,1-1.56-2.57,3.9,3.9,0,0,1,.65-3,10.46,10.46,0,0,1,.87-1.11l.87-1.06,1.75-2.1.05.66c-1.72-1.46-3.38-3-5-4.6l-.59-.61c-.19-.23-.39-.49-.59-.75a8.69,8.69,0,0,1-.44-.86,7.81,7.81,0,0,1-.25-1,5.21,5.21,0,0,1,.9-3.68,4.06,4.06,0,0,1,3.49-1.86c1.52.06,2.59,1.34,3.26,2,1.55,1.58,3.18,3.09,4.86,4.53h0l-1.37.1,4.1-4.9c.18-.21.33-.4.53-.62s.46-.47.7-.69.57-.37.87-.52a4.5,4.5,0,0,1,1-.3,4.69,4.69,0,0,1,3.72,1.08,4.8,4.8,0,0,1,1.76,3.4,3.13,3.13,0,0,1-.07,1,3.51,3.51,0,0,1-.3.95,3.8,3.8,0,0,1-.5.85,5,5,0,0,1-.5.64C191.56,102.7,190.26,104.06,188.86,105.51Zm-1.73.21c1.32-1.83,2.74-3.75,4.23-5.56a4.6,4.6,0,0,0,.47-.62,1.68,1.68,0,0,0,.31-.53,1.84,1.84,0,0,0,.18-.56,1.37,1.37,0,0,0,0-.57,3,3,0,0,0-1.12-2.1,2.86,2.86,0,0,0-2.23-.66,3.27,3.27,0,0,0-.53.17c-.17.08-.33.21-.5.3l-.43.43-.51.6L183,101.56l-.64.77-.74-.67h0c-1.67-1.53-3.28-3.13-4.81-4.8l-.57-.63c-.2-.23-.34-.32-.51-.5s-.35-.21-.52-.34a3,3,0,0,0-.57-.15,2.53,2.53,0,0,0-2.19,1.14,3.83,3.83,0,0,0-.77,2.66c0,.23.1.46.16.69s.18.43.3.63l.43.59.55.62c1.5,1.64,3.09,3.2,4.73,4.71l.35.31-.29.35-1.75,2.11-.87,1a11.59,11.59,0,0,0-.82,1,2.89,2.89,0,0,0-.5,2.23,3.52,3.52,0,0,0,1.23,2,3.39,3.39,0,0,0,2.19.81,2.8,2.8,0,0,0,2-1c1.16-1.35,2.33-2.79,3.49-4.18l.28-.34.38.26,5.59,3.77,1.4,1a4.11,4.11,0,0,0,.66.37,2,2,0,0,0,.65.21,2.15,2.15,0,0,0,2.2-1.11,3.94,3.94,0,0,0,.54-2.74,3.19,3.19,0,0,0-1.48-2.23C191.08,108.78,189,107.24,187.13,105.72Z"/></g><g id="foot_2" data-name="foot 2"><path class="cls-8" d="M87.52,310.69c15.39,22.39,26.45,38.53,32.69,65,0,0-16.74,3.35-27.62,7.53-5.85-15.06-21-43.39-36-55.23Z"/><path d="M86.28,311.42c10.57,15.37,21.26,30.85,27.73,48.48A141.63,141.63,0,0,1,118.83,376l1-1.76a171.16,171.16,0,0,0-27.62,7.53l1.77,1a180.4,180.4,0,0,0-10.63-22.17A158.18,158.18,0,0,0,67.56,337a67.88,67.88,0,0,0-9.94-10l-.29,2.26L84.4,314.08l3.85-2.15c1.61-.9.17-3.38-1.45-2.48L59.74,324.56l-3.86,2.15a1.45,1.45,0,0,0-.29,2.25c6.72,5.35,12.09,12.33,16.87,19.4a195.48,195.48,0,0,1,13.7,23.83c1.82,3.73,3.54,7.51,5,11.37a1.46,1.46,0,0,0,1.77,1A171,171,0,0,1,120.59,377a1.47,1.47,0,0,0,1-1.77,139.73,139.73,0,0,0-9.5-27.3,194.12,194.12,0,0,0-13.7-23.78c-3.15-4.79-6.39-9.5-9.64-14.22C87.72,308.46,85.23,309.89,86.28,311.42Z"/><path class="cls-2" d="M55.77,328.79c13.39,12.55,21.76,25.1,33.48,51.88,0,0-6.7-7.53-12.56-11.71a113,113,0,0,0-28.45-41.85Z"/><path d="M55.18,329.38c12.25,11.23,21.33,25.37,28.22,40.41,1.76,3.83,3.37,7.74,4.88,11.68.65,1.71,3.43,1,2.77-.76-5.81-15.23-13.27-29.91-23.64-42.57a105.06,105.06,0,0,0-10.2-10.79c-1.37-1.24-3.4.78-2,2Z"/><path d="M57.21,329.48C67.7,323.54,77.85,317,87.88,310.36c1.53-1,.09-3.51-1.45-2.48-10,6.68-20.18,13.18-30.67,19.12a1.44,1.44,0,0,0,1.45,2.48Z"/><path d="M92.56,384.15c8.26-2.1,16.18-5.74,24.72-6.64,1.82-.2,1.84-3.07,0-2.88-8.83.94-17,4.58-25.49,6.75-1.79.45-1,3.22.77,2.77Z"/><path d="M86.51,310a179.52,179.52,0,0,1,27.78,50.47,163,163,0,0,1,5,16.78c.42,1.8,3.19,1,2.76-.77a177.32,177.32,0,0,0-24.42-55.91c-2.83-4.33-5.86-8.53-9-12.6-1.14-1.46-3.16.59-2,2Z"/></g><g id="body"><path d="M162.47,198.87q26,5.34,52.21,9.72t52.42,7.8Q282,218.33,296.88,220c1.84.2,1.82-2.68,0-2.88q-26.2-2.87-52.29-6.68t-52.15-8.62q-14.64-2.68-29.21-5.68c-1.8-.37-2.57,2.4-.76,2.77Z"/><path d="M160.26,198.1c3.9,20.2,7.35,40.49,10.87,60.76,3.31,19.07,7.12,38.05,10.47,57.12,1.68,9.58,3.33,19.23,4.1,28.94.14,1.83,3,1.85,2.87,0-1.37-17.4-5-34.63-8.32-51.74-3.81-20-7.18-40.09-10.68-60.15q-3.13-17.86-6.54-35.69c-.35-1.82-3.12-1.05-2.77.76Z"/><path d="M330.88,193.64q-1.54,20.55-3.16,41.09t-3.16,41.17c-.68,9.06-1.62,18.09-2.64,27.11-1.17,10.32-2.35,20.71-4.39,30.91-.31,1.51-.46,3.56-1.21,4.9a30.17,30.17,0,0,1-3,3.9q-1.68,2.07-3.42,4.09c-5.12,5.94-10.39,11.76-15.6,17.63l-4.28,4.83c-1.22,1.38.8,3.42,2,2l16.51-18.62c2.4-2.7,4.78-5.42,7-8.24,1-1.27,2-2.56,3-3.89a7.08,7.08,0,0,0,1-2.65c2.33-9.62,3.39-19.6,4.56-29.4s2.24-19.85,3.06-29.8c1.05-12.63,1.94-25.29,2.92-37.93q1.65-21.24,3.27-42.47c.12-1.55.24-3.11.35-4.66.14-1.84-2.73-1.83-2.87,0Z"/><path d="M293.7,365c.57-8.29,1-16.59,1.5-24.89q.92-16.69,1.74-33.4.87-17.69,1.64-35.36.69-15.63,1.23-31.26c.23-6.86.48-13.72.46-20.59,0-.49,0-1,0-1.48l-.71,1.24q13.08-9.66,26.23-19.22c2.41-1.74,4.82-3.48,7.26-5.17,1.51-1,.08-3.54-1.45-2.48-10.26,7.11-20.25,14.63-30.3,22-1.05.77-2.15,1.51-3.16,2.33-1.17,1-.73,3.35-.74,4.77,0,4.55-.16,9.11-.3,13.66-.41,13.79-1,27.58-1.61,41.37q-1.05,23.65-2.28,47.3c-.66,12.62-1.34,25.24-2.15,37.85-.07,1.1-.15,2.2-.22,3.3-.13,1.85,2.75,1.84,2.87,0Z"/><path d="M162.61,199.1c12-2.85,23.53-7.38,35.39-10.78a1.44,1.44,0,0,0-.76-2.77c-11.86,3.4-23.37,7.93-35.39,10.78-1.8.43-1,3.2.76,2.77Z"/><path d="M297.21,190c9.58.82,19.12,2.6,28.62,4.05q3.07.48,6.15.92c1.81.26,2.59-2.51.76-2.76-9.66-1.38-19.29-3-29-4.31-2.18-.29-4.37-.58-6.56-.77-1.84-.15-1.83,2.72,0,2.87Z"/><path d="M187.62,347.06a457.62,457.62,0,0,0,80.1,20.31q11.46,1.83,23,3.07c1.84.2,1.82-2.67,0-2.87a454.24,454.24,0,0,1-80.17-16.1q-11.18-3.3-22.17-7.18c-1.74-.62-2.49,2.16-.76,2.77Z"/></g><g id="leg_1" data-name="leg 1"><path class="cls-1" d="M237.08,376.2c1.45-11.31,14.73-31.23,16.69-33.34,7.18-7.72,22.41-4.45,23.79,5.14,2.08,12.33-4.15,20.7-6.22,30.29Z"/><path d="M238.47,376.58c.83-6.18,3.85-12.09,6.76-17.52a123.64,123.64,0,0,1,8.65-14,8.53,8.53,0,0,1,.91-1.16,11.54,11.54,0,0,1,3.48-2.56,14.26,14.26,0,0,1,8.37-1.15,12.78,12.78,0,0,1,7.26,3.53c2.33,2.42,2.62,5.8,2.64,9,.08,9-4.69,16.66-6.59,25.2l1.39-1.06L241.27,375l-4.19-.25c-1.84-.12-1.83,2.76,0,2.87l30.07,1.83,4.19.26a1.45,1.45,0,0,0,1.38-1.06c1.81-8.14,6.13-15.48,6.64-23.94.22-3.66.09-8-1.95-11.18a13.9,13.9,0,0,0-7.2-5.43c-5.82-2.06-13.33-1-17.54,3.83a39.76,39.76,0,0,0-3.24,4.5q-2.62,4-5,8.08a109,109,0,0,0-5.5,10.83,40.49,40.49,0,0,0-3.27,10.46C235.46,377.63,238.22,378.41,238.47,376.58Z"/></g><g id="foot_1" data-name="foot 1"><path class="cls-4" d="M271.19,365.74s-46.37-5.15-65.49-3.25c-2.5,3.57-6.71,10.69-9.33,13.16a476.36,476.36,0,0,1,67.37,5.44c3.34-4.18,6.58-11.65,7.53-15.06"/><path class="cls-1" d="M263.74,381.09c4.18,15.9,5,36.82,3.34,61.09,6.7-12.55,9.39-60.06,4.11-76.44Z"/><path class="cls-6" d="M197.46,439q33.43,2.42,66.8,5.67s1.69-11.32,2.08-17.38c1.11-16.78-.92-40.52-2.61-46.56-4.58-1.08-46.92-5-67.2-4.71,1.17,14,3,41,1.19,61.46"/><path d="M197.46,440.47q26,1.88,52,4.26,7.43.67,14.83,1.4a1.43,1.43,0,0,0,1.39-1.05A196.48,196.48,0,0,0,268,422.25a233.89,233.89,0,0,0-1.24-31.09,67.64,67.64,0,0,0-1.67-10.79,1.44,1.44,0,0,0-1-1,58.72,58.72,0,0,0-6.74-.93c-4.14-.48-8.29-.87-12.43-1.25-10.78-1-21.59-1.76-32.4-2.24-5.33-.24-10.67-.42-16-.33a1.44,1.44,0,0,0-1.43,1.43A470.12,470.12,0,0,1,197,423.22c-.08,4.77-.29,9.54-.7,14.29-.15,1.85,2.72,1.84,2.88,0,1.43-16.76.73-33.72-.37-50.48-.24-3.66-.52-7.32-.82-11l-1.44,1.44c10.1-.16,20.23.46,30.3,1.15,9.64.65,19.28,1.44,28.88,2.48a63,63,0,0,1,7.63,1l-1-1a57,57,0,0,1,1.43,8.81c.54,4.77.89,9.57,1.13,14.36a177.45,177.45,0,0,1-.65,29.7q-.6,5.16-1.37,10.31l1.38-1.06q-25.95-2.52-51.95-4.55-7.42-.58-14.85-1.12c-1.85-.13-1.84,2.74,0,2.88Z"/><path d="M267.76,368.07a41.47,41.47,0,0,1-3.81,9.19,1.46,1.46,0,0,0,.52,2,1.44,1.44,0,0,0,2-.51,45.4,45.4,0,0,0,4.1-9.88,1.44,1.44,0,1,0-2.77-.76Z"/><path d="M197.8,376.25a53.07,53.07,0,0,0,5.11-6.28,35.68,35.68,0,0,0,4.18-7.1l-1.39,1.06c10.92-1,22-.6,32.91.09,9.07.57,18.14,1.42,27.17,2.48l3.93.48,1.05.14c.4.05.3,0,.05,0l-1-1A57,57,0,0,1,272,378.28c.47,5.27.6,10.58.56,15.88A224.3,224.3,0,0,1,270,427.11a72.18,72.18,0,0,1-2.93,12.94c-.62,1.75,2.15,2.5,2.77.76a67.26,67.26,0,0,0,2.67-11.32c.89-5.25,1.5-10.55,2-15.85a209.61,209.61,0,0,0,.5-33.8,64,64,0,0,0-2.39-14.48,1.4,1.4,0,0,0-1-1,408.26,408.26,0,0,0-47.75-3.83,163.72,163.72,0,0,0-18.13.52,1.54,1.54,0,0,0-1.38,1.06,32.54,32.54,0,0,1-3.89,6.41,48.07,48.07,0,0,1-4.66,5.7c-1.3,1.31.73,3.35,2,2Z"/></g><path class="cls-6" d="M318.71,225.83s-8.53,1.69-9.36,27.64c-.62,19.25.83,32.63,5,28.45s1.32-34.42,9.45-38.13S318.71,225.83,318.71,225.83Z"/><g id="arm_1-2" data-name="arm 1"><path class="cls-1" d="M376.51,314.91c-2.23-11.06-4.16-23.48-9-33.68S355,261.77,344.6,257.38c-8.43-3.56-18.39-3.89-25.51-9.64-3.82-3.09-6.52-7.83-6.34-12.75s3.65-9.76,8.47-10.76l5.38-.66a9,9,0,0,1,2.79.07c19.41,3.63,35.76,11.49,47.54,27.27,13.2,17.68,17.53,43.62,18,65.67A44.81,44.81,0,0,0,376.51,314.91Z"/><path class="cls-2" d="M365.89,275c-4-9.84-13.27-19.6-22.82-24.11-7.13-3.37-26.48-9.34-27.23-8.84-1.59,1.08,2.74,4.73,3.89,5.62,7.68,5.94,18.76,6.18,27.16,10.13a30.27,30.27,0,0,1,10.3,7.58c1.47,1.82,3,3.78,4.23,5.43.85,1.15,1.18,3.63,2.43,4.29C363.63,275,366.82,277.34,365.89,275Z"/><path class="cls-4" d="M324.41,229.37a84.77,84.77,0,0,1,31.11,11.69c8.92,5.51,16,14.13,21.21,23.08a74,74,0,0,1,7.48,17.2,1.18,1.18,0,0,0,2.28-.63A80,80,0,0,0,370.22,251a61.64,61.64,0,0,0-11.58-10.66,80.08,80.08,0,0,0-14-7.41A82.1,82.1,0,0,0,325,227.09c-1.48-.23-2.12,2-.63,2.28Z"/><path class="cls-3" d="M375.25,291.9s7.53-3.34,11.72,16.73c.7,3.38,5.85,3.35,4.91,7.12a61.29,61.29,0,0,0-14.95-.42C381.11,313.65,370.23,293.58,375.25,291.9Z"/><path d="M327.69,224.53c15.21,2.7,29.8,8.64,41,19.58,11.88,11.64,18.5,27.26,21.93,43.3a150,150,0,0,1,3.15,28.34,1.18,1.18,0,0,0,2.36,0c-.37-17.16-3.07-34.65-10.1-50.41-6.61-14.83-17.64-27.29-32.14-34.77a89.71,89.71,0,0,0-25.53-8.32c-1.49-.26-2.12,2-.63,2.28Z"/><path d="M320.91,223.09c-7.66,1.74-11,10.58-8.41,17.51,2.94,7.9,10.54,11.64,18.16,13.81,3.93,1.12,7.95,2,11.79,3.39a35.83,35.83,0,0,1,10.41,6,52.59,52.59,0,0,1,14.22,19.31c4.4,9.8,6.52,20.44,8.63,30.91.3,1.49,2.57.86,2.27-.63-3.34-16.58-7.07-34.06-18.87-46.91a41.8,41.8,0,0,0-19-11.9c-7.3-2.2-15.77-3.22-21.46-8.8-3.09-3-5.25-7.43-4.59-11.83a10.19,10.19,0,0,1,7.51-8.54c1.48-.34.85-2.61-.63-2.28Z"/><path d="M331.63,251.34c-.54-6.58.84-14.41,5.15-19.57A14.9,14.9,0,0,1,344.1,227c.25-.07-1.25-.3-1.37-.31a7.8,7.8,0,0,0-2.41.15c-9.42,2.78-12.53,13-12.68,21.84,0,.87,0,1.75.06,2.61,0,.47,3.95.29,3.93,0Z"/><path d="M349.15,257.7c-.07-.55-.11-1.12-.13-1.68s0-1.21,0-1.82v-.29s0,.3,0,.09,0-.37,0-.55c0-.44.06-.89.1-1.33a18.15,18.15,0,0,1,3.9-10.3,12.68,12.68,0,0,1,6.13-3.9,2.08,2.08,0,0,0,1.73-2.1,1.77,1.77,0,0,0-2.13-1.44,17.61,17.61,0,0,0-11.58,10,27.78,27.78,0,0,0-2,11.54,21.87,21.87,0,0,0,.16,2.43c.33,2.35,4.17,1.6,3.85-.64Z"/><path d="M363.34,269.3a14.74,14.74,0,0,1,.05-1.49c0-.4,0,.24,0,0s0-.28,0-.42c0-.3.08-.61.13-.91.1-.69.24-1.38.4-2.06a21.84,21.84,0,0,1,.68-2.22s.16-.43.07-.21,0-.09.06-.14l.23-.54c.2-.44.42-.86.65-1.28s.42-.72.64-1.07l.18-.26c-.18.26,0,0,0,0l.5-.63a11.59,11.59,0,0,1,.95-1l.24-.24c.21-.2-.22.19,0,0s.44-.37.67-.54.47-.35.71-.52c.08-.05.74-.45.4-.26a15.77,15.77,0,0,1,1.71-.82l.37-.14c.61-.23-.36.1.28-.1l1-.28a19.18,19.18,0,0,1,2-.36,2.38,2.38,0,0,0,2.22-1.59,1.31,1.31,0,0,0-1.47-1.54c-5.32.59-10,3-13.06,7.47a21.1,21.1,0,0,0-3.29,9.64,20.13,20.13,0,0,0-.14,2.45c.06,2.07,3.83,1,3.78-.86Z"/><path d="M371.63,288.94c2.22-4.43,5.84-8.86,10.32-11.1a11.54,11.54,0,0,1,6.07-1.29c1,.07-.19-3.51-1.27-3.59-7.12-.53-12.68,5.43-16.11,11-.34.55-.67,1.11-1,1.7s.22,1.81.57,2.4c.14.24,1,1.53,1.38.87Z"/><path d="M378.19,308.05c.34-.38.72-.73,1.1-1.08l.63-.53.2-.17,0,0,.4-.31c.6-.45,1.22-.87,1.85-1.26A17.87,17.87,0,0,1,393.22,302c.72.05,2-.34,2-1.23s-1.24-1.24-1.95-1.3a22.88,22.88,0,0,0-13.37,3.29,21.57,21.57,0,0,0-5.07,4c-.61.69,0,1.45.68,1.74a2.6,2.6,0,0,0,2.69-.4Z"/></g><polygon class="cls-13" points="453.03 226.69 467.26 271.75 416.18 242.44 382.58 269.74 387.66 220.63 348.73 197.16 399.24 186.59 393.98 130 437.01 176.91 469.82 163.55 459.71 192.88 504.36 202.91 453.03 226.69"/><polygon class="cls-14" points="392.75 201.78 371.36 172.08 405.69 182.21 422.03 145.1 432.18 188.42 454.23 181.06 449.55 200.66 476.81 204.04 445.86 222.23 451.29 249.82 423.47 226.48 355.49 236.51 392.75 201.78"/><path class="cls-15" d="M352.24,395.9c21.62,5.14,34.21,2.82,34.21,2.82l1.48-7s-17.09-7.94-21-9.89-5.84-6.69-4-14.54c2.94-12.37,12.64-56.06,15.23-58.69,2.3,0,6.39-2.07,8.67-5.63,52.92-9.48,43.33-102,43.33-102A366.71,366.71,0,0,0,370,186.6s-50.2,78.33-7.21,110.61a13.84,13.84,0,0,0,5.21,8.93c1.13,3.51-9.87,46.89-12.81,59.27-1.86,7.84-5.74,11.2-10.09,11.19s-23.19-.61-23.19-.61l-1.48,7S330.62,390.76,352.24,395.9Z"/><path class="cls-12" d="M351.72,271.13l3.11-20.19s7.39-19.43,19.42-3.82c13.28,17.26,41.32,18.12,43,18.65-1.41,5.92-3.81,24.11-30.79,32.37-9-1.15-12.59-1.87-20.49-4.87C365.94,293.27,352.93,282.24,351.72,271.13Z"/><path d="M372.06,305l2.79.66s3.84-3.72,2.52-4.35c-.85-.41-5.25-1.53-5.82-1.13C370.51,300.94,372.06,305,372.06,305Z"/><path d="M417.22,265.77c-1.41,5.92-3.81,24.11-30.79,32.37-9-1.16-12.59-1.87-20.49-4.87,0,0-13-11-14.22-22.14l.41-2.67c1.76,10.81,14.1,21.27,14.1,21.27,7.9,3,11.5,3.72,20.49,4.87,22.91-7,28.09-21.18,30-28.92A3.05,3.05,0,0,1,417.22,265.77Z"/><polygon class="cls-12" points="410.08 236.27 408.07 237.18 408.97 234.21 404.88 233.45 409.78 230.95 408.52 227.42 413.28 230.64 416.66 227.29 416.37 231.69 419.83 233.61 414.95 234.82 413.97 241.12 410.08 236.27"/><polygon class="cls-12" points="401.9 218.47 400.27 219.21 401 216.81 397.7 216.19 401.66 214.18 400.64 211.32 404.49 213.93 407.21 211.22 406.98 214.78 409.77 216.32 405.83 217.3 405.04 222.39 401.9 218.47"/><path d="M323.12,376.19a98,98,0,0,0,15.25,6.86,119.89,119.89,0,0,0,16.14,4.5A146.82,146.82,0,0,0,371.09,390a167.24,167.24,0,0,0,16.75.5l.05,3.89a169.34,169.34,0,0,1-17.14-.9,149.33,149.33,0,0,1-16.92-2.84,125.11,125.11,0,0,1-16.41-5,100.55,100.55,0,0,1-15.5-7.4Z"/><polygon class="cls-16" points="364.92 147.46 362.9 148.37 363.81 145.4 359.72 144.64 364.62 142.14 363.36 138.61 368.12 141.83 371.5 138.48 371.21 142.88 374.67 144.8 369.79 146.01 368.81 152.31 364.92 147.46"/><polygon class="cls-16" points="437.49 150.4 434.37 151.81 435.77 147.22 429.44 146.04 437.03 142.18 435.07 136.71 442.44 141.7 447.67 136.51 447.22 143.32 452.57 146.29 445.03 148.16 443.5 157.9 437.49 150.4"/><path d="M360.23,378.36s-.9,6.91.58,8.22,10.35,2.77,12.72,2.55C370.22,387.38,362.8,384.84,360.23,378.36Z"/><g id="leg_2" data-name="leg 2"><path class="cls-2" d="M117.93,347.6s6,14.11,6.62,24c5-2.32,39.73-16.94,77.66-22.58,6-.71,13.75-5.37,8.12-16.59-6-12-34.16-3.93-34.16-3.93S124.55,340.54,117.93,347.6Z"/><path class="cls-1" d="M211.43,341.34c-28.05-.87-81.61,20.83-88.09,23.21-1.51-4.48-5.41-16.95-5.41-16.95a7.67,7.67,0,0,1,1.38-1.13c6.53-3,13.62-5.79,20.94-8.32,16.53-5.14,35.92-9.67,35.92-9.67s.85-.24,2.29-.57c4.33-.81,8.52-1.48,12.49-1.94,7.8-.53,15.46-1.37,19.39,6.46C212.28,336.31,212.27,338,211.43,341.34Z"/><path class="cls-6" d="M211.78,337.1c-24.4-.76-69.63,14.34-85.25,19.84a5.1,5.1,0,0,1-6.53-3.18c-1.1-3.26-2.07-6.16-2.07-6.16a7.67,7.67,0,0,1,1.38-1.13c6.53-3,13.62-5.79,20.94-8.32,16.53-5.14,35.92-9.67,35.92-9.67s.85-.24,2.29-.57c4.33-.81,8.52-1.48,12.49-1.94,7.8-.53,16.36.45,19.39,6.46C210.56,332.88,211.61,336.67,211.78,337.1Z"/><path d="M118.35,348.48A253.63,253.63,0,0,1,163,332.82c7.33-1.88,14.75-3.47,22.23-4.63,3.36-.53,6.74-1,10.12-1.26,3-.27,5.75-.32,8.56,1a10.47,10.47,0,0,1,6,6.68c.74,2.48,1.16,5.3.1,7.75-1.27,3-4.34,4.41-7.27,5-13.63,2.88-27.64,4.35-41,8.57A301.67,301.67,0,0,0,129.3,368c-.93.42-1.85.85-2.76,1.3-1.66.83-.2,3.31,1.45,2.48a160.64,160.64,0,0,1,15-6.24q8.76-3.3,17.67-6.22c13.84-4.5,28.35-6.25,42.58-9.13a13.26,13.26,0,0,0,8.59-5.2,11.27,11.27,0,0,0,1.62-7.39,15.11,15.11,0,0,0-3.82-9.22,15.79,15.79,0,0,0-8.44-4.31c-3.1-.53-6.35,0-9.45.37a211.31,211.31,0,0,0-22.48,3.92,267.09,267.09,0,0,0-47,15.24q-2.7,1.17-5.36,2.41c-1.68.79-.22,3.26,1.44,2.48Z"/></g><g id="hand_1-2" data-name="hand 1"><path class="cls-5" d="M377.55,315a30.85,30.85,0,0,0-13.2,5.64,23.09,23.09,0,0,0-8.53,17.4c-.2,10,1.54,19.3,11.21,26.84,4,3.1,9.11,4.23,14.1,4.95,9.41,1.35,21.67-1.42,27.49-14.24,3.4-7.47,4.14-17.62.71-25.08s-6.39-12.09-13.52-13.94C389.78,315,384.25,314.14,377.55,315Z"/><path class="cls-5" d="M355,335.9c-4.19-.84-10-1.67-11.72-.84a38.24,38.24,0,0,1,2.88,10.76c3.45,0,6.22.09,9.67.12A41.05,41.05,0,0,1,355,335.9Z"/><path class="cls-5" d="M386.39,369.19,385,382.79h-1.14a17.08,17.08,0,0,1-9-1.89s2.37-8.49,2.09-13.13Z"/><path class="cls-5" d="M411.86,340.92c4.59,1.75,14.38,5.65,14.38,5.65V356a103.93,103.93,0,0,0-15.72-4.7C411.89,348.42,411.86,345.94,411.86,340.92Z"/><path class="cls-5" d="M360.06,357.63a58.32,58.32,0,0,1-6.36,6.3c2.3,1.54,3.16,3,4.78,5.25l.1,0a26.36,26.36,0,0,0,6.25-5.43A23.34,23.34,0,0,1,360.06,357.63Z"/><path class="cls-5" d="M405,362.36c1.36,2.06,4.93,6.16,4.93,6.16-1.58,1.38-4.9,4.77-4.9,4.77l-5.67-6.43Z"/><path class="cls-4" d="M378.24,329.44a39.67,39.67,0,0,0-1.13,15.75l-9.6,2.43c-.84-5.86-1.67-14.23,2.51-17.55A37,37,0,0,1,378.24,329.44Z"/><path d="M355.81,334.17c-3.91.15-7.82.29-11.73.29a1.47,1.47,0,0,0-1.39,1.82,46.5,46.5,0,0,0,2,9.92,1.5,1.5,0,0,0,1.39,1.06l9.67.12a1.44,1.44,0,0,0,0-2.87c-3.22,0-6.45-.1-9.67-.12l1.38,1.05a46.5,46.5,0,0,1-2-9.92l-1.38,1.82c3.91,0,7.82-.15,11.73-.3a1.44,1.44,0,0,0,0-2.87Z"/><path d="M384.48,370.21a123.34,123.34,0,0,1-.93,12.58l1.43-1.44a35.41,35.41,0,0,1-4-.05,15.47,15.47,0,0,1-5.39-1.64l.71,1.24a54.57,54.57,0,0,1,1.79-11.14c.44-1.8-2.32-2.56-2.77-.77a58.65,58.65,0,0,0-1.89,11.91,1.41,1.41,0,0,0,.71,1.24,19.29,19.29,0,0,0,6.37,2,33.22,33.22,0,0,0,4.46.1,1.46,1.46,0,0,0,1.44-1.43c.43-4.19.93-8.37.94-12.58a1.44,1.44,0,0,0-2.88,0Z"/><path d="M410.81,342.5c5,1.9,10,3.67,15,5.45l-1.05-1.38a40.33,40.33,0,0,1-.93,8.2l1.77-1c-4.93-1.23-9.86-2.46-14.74-3.86a1.44,1.44,0,0,0-.76,2.77c4.88,1.4,9.81,2.63,14.73,3.86a1.45,1.45,0,0,0,1.77-1,44.19,44.19,0,0,0,1-9,1.46,1.46,0,0,0-1.05-1.38c-5-1.79-10.07-3.56-15.05-5.46a1.44,1.44,0,0,0-1.77,1,1.48,1.48,0,0,0,1,1.77Z"/><path d="M359,355.81a70.85,70.85,0,0,0-6.08,7.82,1.45,1.45,0,0,0,.22,1.74l4.46,4.84a1.44,1.44,0,0,0,1.74.23,74.83,74.83,0,0,0,6.54-5.65c1.33-1.28-.7-3.31-2-2a67,67,0,0,1-6,5.2l1.75.22-4.47-4.84.23,1.74a63.64,63.64,0,0,1,5.63-7.24,1.44,1.44,0,0,0-2-2Z"/><path d="M404.54,363.08l4.08,6.17a1.47,1.47,0,0,0,1.63.66h0l-1.4-2.4c-1.72,1.5-3.31,3.15-4.9,4.77h2l-6.08-6.9a1.44,1.44,0,1,0-2,2l6.08,6.9a1.45,1.45,0,0,0,2,0c1.59-1.62,3.19-3.27,4.9-4.77a1.45,1.45,0,0,0-1.4-2.4h0l1.62.66L407,361.63a1.47,1.47,0,0,0-2-.51,1.45,1.45,0,0,0-.52,2Z"/><path d="M396.86,317.28c4.36,1.48,7.14,5.25,9.23,9.17a31.47,31.47,0,0,1,3.19,8,30.94,30.94,0,0,1,.58,8.8c-.73,10.44-6.2,20.7-16.43,24.42a28.39,28.39,0,0,1-12.57,1.46,40.89,40.89,0,0,1-8.41-1.71,18.19,18.19,0,0,1-7.51-5.22,27.22,27.22,0,0,1-6.9-14c-.89-5.05-1.19-10.78.57-15.66A25.48,25.48,0,0,1,370.67,319a24.27,24.27,0,0,1,9.07-2.84c2.29-.19,4.57-.36,6.87-.36.34,0-.92-.82-1-.85a4.92,4.92,0,0,0-2.07-.8c-5.23,0-10.29.49-15.07,2.76a25.86,25.86,0,0,0-12.61,12.81c-2.3,5.3-2.05,11.65-1,17.24a27.67,27.67,0,0,0,7.58,14.58,31.77,31.77,0,0,0,17.18,8.61,33.43,33.43,0,0,0,14.29,0,24,24,0,0,0,12.44-7.58A30.49,30.49,0,0,0,413,345.64a30.87,30.87,0,0,0-.78-10.75,34.65,34.65,0,0,0-4-8.84c-3.13-5.18-7.84-8.3-13.51-10.23-.62-.22-.59,0-.17.35a7.43,7.43,0,0,0,2.28,1.11Z"/></g><path d="M48.48,329.38c5.29,5.33,9.7,11.74,13.93,17.9,2.83,4.13,5.55,8.35,8,12.69,1.2,2.11,2.35,4.24,3.41,6.42q.67,1.37,1.29,2.76a5.09,5.09,0,0,0,1.8,2c4.37,3.68,8.06,8.29,11.7,12.66,1.19,1.42,3.21-.62,2-2A124.42,124.42,0,0,0,80,370c-.67-.63-1.39-1.19-2.11-1.77a2.41,2.41,0,0,1-.35-.25c.39.58,0-.41,0-.45q-.34-.8-.72-1.59c-1-2.11-2.08-4.17-3.21-6.2a197,197,0,0,0-16.29-24.3,88.1,88.1,0,0,0-6.83-8.12,1.44,1.44,0,0,0-2,2Z"/><path d="M47.39,327.37c2.93.61,5.89,1.16,8.75,2a1.45,1.45,0,0,0,1.77-1,1.49,1.49,0,0,0-1-1.77c-2.86-.87-5.82-1.42-8.74-2a1.43,1.43,0,1,0-.77,2.76Z"/><path d="M48.79,327A85.53,85.53,0,0,1,63,316c2.87-1.87,5.81-3.64,8.85-5.22.7-.37,1.41-.73,2.12-1.07l1-.45c.29-.14,1.4-.48.55-.37.61-.08,1.24-.07,1.85-.09a27.47,27.47,0,0,1,9,.71c1.77.55,2.52-2.22.76-2.77a28,28,0,0,0-8.56-.84c-.93,0-1.88,0-2.81.11a10,10,0,0,0-3.31,1.3A107.69,107.69,0,0,0,54.1,318.74,68.24,68.24,0,0,0,46.76,325c-1.3,1.32.73,3.35,2,2Z"/><path class="cls-6" d="M293.56,157.92c-1.45-.78-1.16-6.37-.24-8.2.61-1.21,4.72-3.25,5.32.43S295.31,158.87,293.56,157.92Z"/><path class="cls-4" d="M299.73,146.61a89.25,89.25,0,0,1,9.16-5.56l3.1-21.53s-7.36-6.07-11.76-9.91l-3.33.53L294,145.83Z"/><path class="cls-6" d="M299.73,146.61l3.83-3.09c-2.26-3.58-1.88-18.84,1.9-23.63-3.95-3.72-5.76-5.93-7.65-10.52-1.63,9.77-2.82,24.57-3.78,36.46Z"/><path d="M295.52,110.14l-2.86,35.69c-.15,1.77,2.61,1.76,2.75,0l2.86-35.69c.15-1.76-2.61-1.75-2.75,0Z"/><path d="M305.63,121a41.47,41.47,0,0,0-2.24,17.08c.08,1.32,2.14,1.33,2.07,0a39.83,39.83,0,0,1,2.16-16.53c.46-1.25-1.53-1.79-2-.55Z"/><path d="M297.45,109.67c3.89,4.36,9,7.85,13.84,11l-.63-1.56a54.78,54.78,0,0,0-2.21,10.3,77.77,77.77,0,0,0-.94,11.6l.68-1.18a62.88,62.88,0,0,0-9.43,5.76c-1.39,1.1.57,3,1.94,2a59.57,59.57,0,0,1,8.88-5.34,1.37,1.37,0,0,0,.68-1.19,74.27,74.27,0,0,1,.89-11.24,54.28,54.28,0,0,1,2.16-9.93,1.38,1.38,0,0,0-.63-1.55c-4.67-3.06-9.54-6.41-13.28-10.6-1.19-1.32-3.13.63-1.95,1.94Z"/><path d="M264.59,243.28a51.71,51.71,0,0,0,15,2,1,1,0,0,0,0-2.06,49.81,49.81,0,0,1-14.41-1.9,1,1,0,0,0-.54,2Z"/><path d="M282.4,226.81A119.25,119.25,0,0,1,264.92,224a1,1,0,0,0-1.26.72,52,52,0,0,0-1.26,8.14,29.59,29.59,0,0,0,.34,8.91c.29,1.29,2.28.74,2-.55a27.9,27.9,0,0,1-.27-8.36,47.68,47.68,0,0,1,1.19-7.6l-1.27.73a123.47,123.47,0,0,0,18,2.92c1.33.08,1.32-2,0-2.06Z"/><path d="M282.06,228.58a33,33,0,0,0-1.05,17c.26,1.3,2.25.75,2-.55a30.86,30.86,0,0,1,1.05-15.86c.42-1.26-1.57-1.8-2-.55Z"/><path class="cls-5" d="M273.54,230.67c-5.46-1.27-7.06,3.45-6.14,5.28a5,5,0,0,0,4.13,3.14,5.32,5.32,0,0,0,5.27-2.5C277.8,234.78,276.57,231.37,273.54,230.67Z"/><path d="M273.73,230c-2.11-.47-4.49-.25-6,1.47a4.79,4.79,0,0,0-1.13,4.36,5.85,5.85,0,0,0,5.45,4c2.44.06,5.38-1.53,5.72-4.14a5.38,5.38,0,0,0-4.06-5.68c-.86-.21-1.23,1.12-.37,1.33a4,4,0,0,1,3.09,3.69c.06,2-2.05,3.28-3.84,3.41a4.68,4.68,0,0,1-2.94-.71,5.23,5.23,0,0,1-1.7-2.16c.07.15,0-.15-.06-.21s0-.11,0-.17,0,.14,0-.07a2.47,2.47,0,0,1,0-.39v-.2s0-.28,0-.16a3.65,3.65,0,0,1,.66-1.67c1.07-1.54,3.09-1.75,4.83-1.36C274.22,231.52,274.59,230.2,273.73,230Z"/><path d="M272.89,234.86a14.84,14.84,0,0,0,.94-2.72c.19-.83.31-1.66.49-2.49a1.06,1.06,0,0,0-.72-1.27,1,1,0,0,0-1.27.72c-.17.81-.3,1.62-.48,2.43-.08.37-.18.74-.29,1.1l-.21.59c-.05.12-.09.25-.14.37s-.08.19,0,.08-.06.15-.06.15a1.14,1.14,0,0,0-.1.79,1,1,0,0,0,1.88.25Z"/><g id="leg_1-2" data-name="leg 1"><path class="cls-1" d="M236.09,376.11c1.45-11.3,14.73-31.22,16.69-33.33,7.17-7.71,22.39-4.44,23.78,5.14,2.07,12.32-4.15,20.69-6.23,30.28Z"/><path class="cls-6" d="M240,376c2.46-13.13,12.31-29.55,15.6-34.48,4.19-6.3,18.06-2.46,20.52,6.57-4.11,10.67-8.21,21.34-11.49,29.55Z"/><path d="M237.23,376.42c.84-6.2,3.86-12.13,6.79-17.57a122.15,122.15,0,0,1,8.64-14,12.4,12.4,0,0,1,4.49-3.81,14.48,14.48,0,0,1,8.56-1.17,13,13,0,0,1,7.37,3.59c2.37,2.47,2.69,5.9,2.71,9.18.08,9-4.69,16.71-6.59,25.26l1.13-.86-30-1.83-4.19-.26c-1.51-.09-1.51,2.27,0,2.36l30,1.83,4.19.26a1.2,1.2,0,0,0,1.14-.87c1.8-8.11,6.12-15.43,6.63-23.87.22-3.61.1-7.89-1.91-11a13.59,13.59,0,0,0-7.06-5.31c-5.73-2-13.12-1-17.28,3.76a40,40,0,0,0-3.19,4.45q-2.62,4-5,8.08a110.9,110.9,0,0,0-5.49,10.82A40,40,0,0,0,235,375.8C234.76,377.28,237,377.92,237.23,376.42Z"/></g><path class="cls-4" d="M262.63,364.31a20.35,20.35,0,0,1,.72-5.21,33.37,33.37,0,0,1,1.72-4.83c.66-1.57,1.39-3.09,2.16-4.56s1.56-2.9,2.47-4.31l0,0a2.08,2.08,0,0,1,3.82,1.28,25.32,25.32,0,0,1-1,5.21c-.49,1.66-1.08,3.25-1.71,4.81a45.69,45.69,0,0,1-2.09,4.56,23.14,23.14,0,0,1-2.87,4.27h0a1.83,1.83,0,0,1-3.2-1.18Z"/><g id="foot_1-2" data-name="foot 1"><path class="cls-17" d="M270.19,365.65s-46.35-5.15-65.47-3.25c-2.5,3.57-6.71,10.69-9.33,13.16A475.91,475.91,0,0,1,262.74,381c3.34-4.19,6.57-11.65,7.52-15.06"/><path class="cls-4" d="M262.74,381c4.18,15.89,5,36.81,3.34,61.07,6.69-12.55,9.38-60,4.11-76.42Z"/><path class="cls-6" d="M196.48,438.92q33.42,2.4,66.78,5.66s1.68-11.31,2.08-17.37c1.11-16.77-.92-40.51-2.62-46.55-4.57-1.07-46.89-5-67.16-4.7,1.16,14,3,41,1.18,61.44"/><path d="M196.48,440.09q26,1.89,52,4.27,7.42.67,14.83,1.4a1.17,1.17,0,0,0,1.14-.86,193.85,193.85,0,0,0,2.36-22.79,233.54,233.54,0,0,0-1.23-30.95,68.06,68.06,0,0,0-1.67-10.81,1.17,1.17,0,0,0-.82-.82,57.83,57.83,0,0,0-6.67-.93c-4.14-.47-8.28-.87-12.43-1.24-10.77-1-21.57-1.76-32.38-2.25-5.33-.24-10.67-.41-16-.33a1.18,1.18,0,0,0-1.18,1.18,469.72,469.72,0,0,1,1.88,47.15c-.08,4.77-.29,9.54-.7,14.29-.13,1.51,2.23,1.5,2.36,0,1.43-16.76.74-33.71-.37-50.47-.24-3.66-.51-7.31-.81-11l-1.18,1.18c10.09-.16,20.21.46,30.28,1.15,9.64.65,19.27,1.44,28.88,2.48a67.38,67.38,0,0,1,7.69,1l-.82-.82a58.71,58.71,0,0,1,1.45,9c.53,4.75.88,9.53,1.12,14.3a179,179,0,0,1-.67,29.83c-.41,3.4-.86,6.81-1.36,10.2l1.13-.87q-25.93-2.52-51.93-4.55-7.43-.59-14.85-1.11c-1.51-.11-1.51,2.25,0,2.35Z"/><path d="M267,368.05a42.72,42.72,0,0,1-3.84,9.25c-.73,1.32,1.3,2.51,2,1.19a45.33,45.33,0,0,0,4.07-9.82,1.18,1.18,0,0,0-2.27-.62Z"/><path d="M196.64,376a51.45,51.45,0,0,0,5.07-6.23,34.57,34.57,0,0,0,4.15-7l-1.14.86c10.92-1,22-.59,32.89.1,9.08.56,18.14,1.41,27.17,2.48l3.93.48,1,.13.13,0-.83-.82a56.75,56.75,0,0,1,2.17,12.21c.47,5.28.6,10.59.56,15.88a223.74,223.74,0,0,1-2.53,33A72.29,72.29,0,0,1,266.31,440c-.5,1.44,1.77,2.05,2.28.63a67.38,67.38,0,0,0,2.67-11.31c.88-5.23,1.49-10.51,1.95-15.79a209.37,209.37,0,0,0,.5-33.78,63.82,63.82,0,0,0-2.38-14.41,1.13,1.13,0,0,0-.83-.82,406.38,406.38,0,0,0-47.65-3.82,163.65,163.65,0,0,0-18.13.52,1.27,1.27,0,0,0-1.14.87,31.85,31.85,0,0,1-3.91,6.47,48,48,0,0,1-4.69,5.75c-1.07,1.08.6,2.75,1.66,1.67Z"/></g><g id="leg_2-2" data-name="leg 2"><path class="cls-2" d="M110.42,350s6,14.11,6.62,24c5-2.32,46.28-19.39,84.19-25,6-.71,13.75-5.37,8.12-16.58-6-12-34.15-3.94-34.15-3.94S117,342.92,110.42,350Z"/><path class="cls-1" d="M210.45,341.26c-28-.87-89,24.11-95.45,26.48-1.51-4.47-5.41-16.94-5.41-16.94a8.11,8.11,0,0,1,1.38-1.13c6.54-3,21-9.07,28.32-11.6,16.53-5.13,35.92-9.66,35.92-9.66s.84-.24,2.28-.58c4.32-.81,8.52-1.47,12.49-1.94,7.8-.52,15.45-1.36,19.37,6.46C211.3,336.23,211.29,337.91,210.45,341.26Z"/><path class="cls-6" d="M210.8,337c-24.39-.76-77,17.62-92.61,23.12a5.09,5.09,0,0,1-6.52-3.18l-2.08-6.16a8.11,8.11,0,0,1,1.38-1.13c6.54-3,21-9.07,28.32-11.6,16.53-5.13,35.92-9.66,35.92-9.66s.84-.24,2.28-.58c4.32-.81,8.52-1.47,12.49-1.94,7.8-.52,16.35.45,19.37,6.46C209.58,332.8,210.63,336.59,210.8,337Z"/><path d="M112.14,350.32a287.83,287.83,0,0,1,45.14-16.24c7.66-2.12,15.4-4,23.21-5.45,3.48-.65,7-1.22,10.47-1.65,2.95-.36,6.18-1,9.12-.35,3.16.67,6.4,2.43,8.07,5.29a13.27,13.27,0,0,1,1.43,9.45c-1,3.57-4.37,5.43-7.77,6.15-14.21,3-28.71,4.64-42.57,9.09a341,341,0,0,0-34,12.53c-.94.42-1.87.85-2.79,1.31-1.36.67-.17,2.71,1.19,2A158.94,158.94,0,0,1,139,366.16q9.36-3.5,18.85-6.61a139.07,139.07,0,0,1,15-4.12c9.6-2,19.27-3.64,28.9-5.49,3.7-.71,7.46-2.41,9.32-5.89a12.58,12.58,0,0,0,.82-8.65,13.3,13.3,0,0,0-5.64-8.74A15.49,15.49,0,0,0,197,324c-3.33.19-6.67.63-10,1.11a237.59,237.59,0,0,0-23.3,4.78A310.07,310.07,0,0,0,116,346c-1.7.74-3.4,1.5-5.08,2.29-1.38.64-.18,2.68,1.19,2Z"/><path class="cls-4" d="M125.18,356a81.06,81.06,0,0,1,10.71-4.45c5.32-1.91,10.71-3.63,16.12-5.26,11.76-3.54,23.66-6.73,35.69-9.2a99.8,99.8,0,0,1,14.58-2.18c.74,0,1.73-.58,1.48-1.44s-1.6-1.08-2.36-1a94.21,94.21,0,0,0-12.94,1.85c-5.89,1.15-11.74,2.5-17.55,4-11.93,3-23.8,6.42-35.41,10.5a94.29,94.29,0,0,0-13,5.29,1,1,0,0,0-.12,1.77,2.75,2.75,0,0,0,2.77.19Z"/></g><path d="M248.27,351.32c6.44-3.14,15.62-4.59,21.7,0a17.19,17.19,0,0,1,5.76,9.07,8.29,8.29,0,0,1,0-2.05,7.81,7.81,0,0,0,0-2.05c-1.75-5.85-5.64-10.55-11.85-11.65a29.84,29.84,0,0,0-15.61,2.58,9.27,9.27,0,0,0,0,2.05,10.2,10.2,0,0,1,0,2.06Z"/><path d="M242.52,361.9a38.06,38.06,0,0,1,8.28-2c5.26-.72,11-.46,15.69,2.31a17,17,0,0,1,6.78,7.95,6.52,6.52,0,0,1,0-2,6.13,6.13,0,0,0,0-2,17.21,17.21,0,0,0-13.54-10.28A34.58,34.58,0,0,0,245.5,357a31.14,31.14,0,0,0-3,.93,10.65,10.65,0,0,0,0,2,11.78,11.78,0,0,1,0,2Z"/><path d="M177.88,353.6c1-6.63-.62-14.37-5.31-19.32a17.87,17.87,0,0,0-8-4.8c-.89-.26-1.15.74-1,1.4a2.78,2.78,0,0,0,1.71,2.12,14,14,0,0,1,5.86,3.27,13.73,13.73,0,0,1,1.64,2,11.55,11.55,0,0,1,1.18,2.32,21.55,21.55,0,0,1,1.35,8.95c0,.49,0,1-.09,1.46,0,.11-.07.61,0,.26s0-.1,0,0a2.84,2.84,0,0,0,1,2.54c.47.39,1.59.76,1.73-.19Z"/><path d="M159.55,357c-.06-6-1.84-12.54-5.51-17.26a16.13,16.13,0,0,0-6-4.77,2.42,2.42,0,0,0-2.7.48c-.54.53-.84,1.69.06,2.1,6.86,3.13,9.52,11.17,10.18,18.09.06.66.12,1.33.12,2,0,2.07,3.84,1.22,3.82-.63Z"/><path d="M137.86,362.18h0l1.65.77a12.73,12.73,0,0,0,.58,1.34c0-.19,0,.54,0,.29s0-.23,0-.34c0-.51,0-1-.09-1.52a26.1,26.1,0,0,0-12.87-20.64.9.9,0,0,0-1.46.75A2.89,2.89,0,0,0,127,345.3a20.9,20.9,0,0,1,8.54,9.3,8.8,8.8,0,0,1,.38.89c.15.41.3.82.43,1.24s.24.78.35,1.18.09.31.2.81a24.34,24.34,0,0,1,.48,3.41c0,.21,0,.83,0,.25,0,.14,0,.28,0,.42a3.38,3.38,0,0,0,.63,2.1c.35.47,1,1.06,1.66.77h0c1.42-.66-.34-4.17-1.8-3.49Z"/><path d="M181.88,328.21c3.31,0,6.32,3.17,7.89,6,2.85,5.13,2.48,11.23.71,16.66-.46,1.43,2.6,1.43,3,.13,1.94-5.95,2.16-12.7-1.13-18.23-2.07-3.46-5.74-6.66-10-6.72-.64,0-1.62.27-1.77,1s.64,1.13,1.25,1.14Z"/><g id="foot_2-2" data-name="foot 2"><path class="cls-6" d="M86.59,310.63C102,333,113,349.13,119.26,375.56c0,0-16.73,3.35-27.6,7.53-5.86-15.06-21-43.38-36-55.21Z"/><path class="cls-2" d="M54.85,328.71c13.38,12.55,21.75,25.1,33.46,51.87,0,0-6.69-7.53-12.55-11.71A113,113,0,0,0,47.32,327Z"/><path d="M54.43,329.13c12.25,11.21,21.33,25.34,28.22,40.36,1.79,3.88,3.42,7.83,4.94,11.82.54,1.4,2.82.8,2.28-.63-5.79-15.14-13.21-29.77-23.51-42.36A104.27,104.27,0,0,0,56.1,327.46c-1.12-1-2.79.64-1.67,1.67Z"/><path d="M56.15,329.18c10.49-5.94,20.64-12.43,30.66-19.11,1.26-.84.08-2.88-1.19-2-10,6.68-20.17,13.18-30.66,19.12a1.18,1.18,0,0,0,1.19,2Z"/><path d="M91.55,383.81c8.28-2.1,16.22-5.75,24.79-6.65,1.49-.16,1.51-2.52,0-2.36-8.8.93-16.91,4.58-25.41,6.73a1.18,1.18,0,0,0,.62,2.28Z"/><path d="M85.75,309.79a179.89,179.89,0,0,1,27.85,50.57,165.34,165.34,0,0,1,5,16.77c.35,1.47,2.62.85,2.27-.63a177.18,177.18,0,0,0-24.39-55.83q-4.23-6.46-9-12.55c-.93-1.19-2.59.49-1.67,1.67Z"/></g><path d="M47.74,329.13A76,76,0,0,1,53.57,336q4.26,5.41,8.13,11.1c2.84,4.13,5.55,8.34,8,12.69,1.2,2.1,2.35,4.23,3.41,6.41q.67,1.36,1.29,2.76a4.86,4.86,0,0,0,1.76,1.92c4.37,3.67,8,8.29,11.7,12.65,1,1.17,2.63-.5,1.66-1.66a121.64,121.64,0,0,0-10.63-11.71c-.66-.62-1.37-1.16-2.06-1.74-.4-.34-.2-.19-.46-.79s-.48-1.06-.73-1.59c-1-2.1-2.07-4.17-3.2-6.2a195.87,195.87,0,0,0-16.25-24.23,84,84,0,0,0-6.82-8.12,1.18,1.18,0,0,0-1.67,1.67Z"/><path d="M46.54,327.05c2.93.61,5.88,1.16,8.75,2a1.18,1.18,0,1,0,.62-2.27c-2.86-.87-5.82-1.42-8.74-2a1.2,1.2,0,0,0-1.45.82,1.18,1.18,0,0,0,.82,1.45Z"/><path d="M47.69,326.75a85.12,85.12,0,0,1,14.06-10.94c2.87-1.88,5.81-3.65,8.84-5.25l2.13-1.07,1-.46.48-.22c.08,0,.91-.39.49-.26s.17,0,.29,0l1.27-.06a28,28,0,0,1,9.17.72c1.45.45,2.07-1.83.63-2.28a28,28,0,0,0-8.66-.83c-.88,0-1.79,0-2.68.11a11.08,11.08,0,0,0-3.3,1.34A109.29,109.29,0,0,0,53.3,318.89,69.38,69.38,0,0,0,46,325.08a1.18,1.18,0,0,0,1.67,1.67Z"/><path class="cls-9" d="M191.51,290.89c-7.36-21.13-15.32-72.08-15.48-76-.08-1.76-6.12-6.83-6.09-5.34.29,11.66,16.47,101.1,21.25,104,.77.46,1.44-9.12,1.67-10.41A23.73,23.73,0,0,0,191.51,290.89Z"/><polygon class="cls-18" points="116.76 98.2 151.17 118.32 100.59 131.1 101.29 182.05 67.03 144.29 22.14 158.03 48.83 111.91 13.52 65.25 69.5 70.42 79.78 41.75 95.36 69.74 133.86 42.33 116.76 98.2"/><polygon class="cls-14" points="50.34 135.53 24.37 137.98 52.02 112.14 37.88 81.24 72.95 87.85 82.5 65.81 94.34 82.92 115.74 64.29 108.39 100.63 133.29 109.09 96.21 120.78 57.06 179.97 50.34 135.53"/><polygon class="cls-4" points="11.92 103.65 9.62 98.68 17 100.84 18.79 90.7 25.08 102.79 33.81 99.58 25.93 111.46 34.31 119.75 23.4 119.13 18.73 127.73 15.62 115.69 0 113.39 11.92 103.65"/><polygon class="cls-4" points="38.55 52.84 36.38 54.78 36.33 50.7 30.91 51.38 36.06 46.3 33.07 42.38 40.32 44.52 43.21 38.98 44.6 44.61 49.69 45.63 44.07 49.09 45.34 57.36 38.55 52.84"/><path class="cls-19" d="M22.56,115.78S75.78,164,86.32,178c7.84,14.1,17.69,64.32,17.69,64.32L77.47,263.19,79,270s37.46,1.81,73.06-16.86l-1.56-6.76-33.9-6.91s-12.32-50.62-10.47-66c5-20.34,30.94-84.1,30.94-84.1Z"/><path class="cls-20" d="M77.47,263.19s36.4-.8,73.07-16.86"/><path d="M94.51,187.05c-3.39-8.71,1.67-13.68,4.37-2,1,4.51,11.21,51.56,12.25,56.07l-3.27.76S100.83,203.32,94.51,187.05Z"/><path class="cls-21" d="M95.09,171.72c2.52-.64,6.94-1.6,8.7-5.81,2.43-5.78,22.77-66,22.44-65,0,0-10.75-30.89-29.38-18-8.29,5.75-8,34.94-22,32.39-15.48-2.81-35.51,4.67-36.62,7.78,5.8,5.31,24.84,24.67,28.48,28.58s15.88,17.24,18,18.64S89.85,173.05,95.09,171.72Z"/><polygon class="cls-16" points="98.59 124.53 96.61 125.67 97.23 122.52 92.95 122.16 97.74 119.09 96.08 115.59 101.31 118.42 104.43 114.63 104.58 119.18 108.33 120.8 103.45 122.54 103.08 129.11 98.59 124.53"/><path d="M107.94,154.4c-2,5.83-3.58,10.16-4.14,11.51-1.77,4.21-6.18,5.17-8.71,5.81-5.25,1.33-8.22,0-10.37-1.41s-14.39-14.73-18-18.64l-.81-.85c4.82,4.42,16.63,14.8,18.78,16.2S91.25,169,95,168.43c3.12-.45,6.43-1.56,10.39-9.31C106,158.05,106.79,156.35,107.94,154.4Z"/><path d="M93,257.33s11.78-9.76,14.94-13.9c.51-.67,3.27-.75,3.27-.75l-2.8,11.95S98.07,257.24,93,257.33Z"/><path class="cls-5" d="M182.91,250.67c0-1.1.06-2.2.13-3.29,1.3.36,3.27.84,4.43,1.06a14.36,14.36,0,0,0,1.58.24,1.17,1.17,0,0,0,.75-.07c.24-.09.19-.14.26-.32a1.54,1.54,0,0,0,.07-.62,1.26,1.26,0,0,0-.08-.71c-.13-.22-.13-.25-.46-.41a9.72,9.72,0,0,0-1.21-.43c-.58-.19-2-.6-2.67-.82a3.57,3.57,0,0,1-2.37-1.82,7.48,7.48,0,0,1-.51-3.43,4.16,4.16,0,0,1,.87-2.81,2.81,2.81,0,0,1,2.16-1,12.2,12.2,0,0,1,3.29.25,34,34,0,0,1,5.29,1.43c0,1.08-.05,2.16-.11,3.24-1.29-.4-3.26-.83-4.42-1.07a5.19,5.19,0,0,0-1.89-.16c-.46.08-.22.11-.39.27s-.08.34-.11.54a1.63,1.63,0,0,0,0,.69c.08.2.08.22.34.36a7.37,7.37,0,0,0,.91.35c.72.23,2.06.58,2.78.83a5.43,5.43,0,0,1,1.74.78,2.84,2.84,0,0,1,1.11,1.34,7.1,7.1,0,0,1,.43,3.08,5.91,5.91,0,0,1-.85,3.12,2.62,2.62,0,0,1-2,1.12,10.63,10.63,0,0,1-3.13-.23A47.78,47.78,0,0,1,182.91,250.67Z"/><path d="M183.44,250.67c0-1.1.06-2.19.12-3.29l-.66.51a31.28,31.28,0,0,0,6.26,1.32,1.23,1.23,0,0,0,1.48-1.11,1.72,1.72,0,0,0-.95-2.07,23,23,0,0,0-2.81-.91,5,5,0,0,1-2.85-1.5,5.93,5.93,0,0,1-.68-3.57c0-1.25.38-2.68,1.7-3.15s3.22-.08,4.64.21a35.45,35.45,0,0,1,4.61,1.29l-.38-.5c0,1.08-.06,2.16-.12,3.24l.66-.5c-1.14-.35-2.3-.62-3.47-.88a7.67,7.67,0,0,0-3.11-.36c-.74.16-.91.85-.9,1.54,0,.95.54,1.28,1.37,1.57,1.89.66,4.86.82,5.69,3a7.36,7.36,0,0,1,.21,3.7,2.92,2.92,0,0,1-1.74,2.59c-1.49.45-3.28,0-4.75-.35a48,48,0,0,1-4.71-1.25c-.64-.2-.92.81-.28,1a32.64,32.64,0,0,0,8.14,1.77,4.27,4.27,0,0,0,2.9-.71,4.18,4.18,0,0,0,1.43-2.67c.33-1.87.41-4.5-1.14-5.91a6.91,6.91,0,0,0-2.73-1.34l-1.6-.47a4.51,4.51,0,0,1-1.6-.53,1,1,0,0,1-.12-.8s0-.07.07-.11c.11-.35.08,0,0,0a7.51,7.51,0,0,1,2,.25c1.35.28,2.7.59,4,1a.53.53,0,0,0,.66-.51c.06-1.08.08-2.16.12-3.24a.53.53,0,0,0-.39-.51,24.12,24.12,0,0,0-8.15-1.73,4.27,4.27,0,0,0-2.63.75,4,4,0,0,0-1.43,2.78c-.26,2-.12,4.71,1.75,5.95a10.44,10.44,0,0,0,2.81,1.09c.65.19,2.59.47,2.69,1.21,0,.14,0,.63-.08.71s-.58,0-.74,0c-.57-.07-1.13-.18-1.69-.3-1.32-.27-2.63-.6-3.93-1a.53.53,0,0,0-.67.5c-.06,1.1-.08,2.19-.12,3.29A.53.53,0,0,0,183.44,250.67Z"/><path class="cls-5" d="M200.78,254.12c.12-3.89.19-7.78.3-11.67-1.38-.25-2.77-.49-4.15-.75l.12-3.62,13.07,2.36c0,1.21-.07,2.41-.11,3.62l-4.16-.75q-.16,5.83-.34,11.67Z"/><path d="M201.31,254.12c.11-3.89.18-7.78.29-11.67a.53.53,0,0,0-.38-.51l-4.15-.74.39.5.12-3.62-.66.51L210,240.94l-.38-.5c0,1.21-.08,2.41-.11,3.62l.66-.5L206,242.8a.54.54,0,0,0-.67.51L205,255l.66-.51-4.73-.86c-.66-.12-.94.89-.28,1l4.73.86a.53.53,0,0,0,.67-.5l.33-11.67-.66.51,4.16.75a.54.54,0,0,0,.67-.51c0-1.21.07-2.41.11-3.62a.53.53,0,0,0-.39-.51l-13.07-2.36a.53.53,0,0,0-.66.51l-.12,3.62a.53.53,0,0,0,.38.51l4.15.75-.39-.51c-.11,3.89-.18,7.78-.29,11.67C200.24,254.79,201.29,254.79,201.31,254.12Z"/><path class="cls-5" d="M220.79,257.75c-.22-.91-.44-1.81-.65-2.72l-5.15-.92c-.26.81-.53,1.63-.8,2.44l-4.65-.84q2.61-7.22,5.21-14.44l6.55,1.19c1.42,5.39,2.86,10.77,4.27,16.15Zm-2.88-12-.18,0-1.7,5.24,3.29.59Z"/><path d="M221.29,257.61c-.21-.91-.43-1.81-.65-2.71a.5.5,0,0,0-.36-.37l-5.15-.93a.54.54,0,0,0-.64.37l-.81,2.45.65-.37-4.65-.85.36.65q2.61-7.22,5.21-14.44l-.64.37,6.55,1.19-.37-.37c1.42,5.39,2.87,10.77,4.27,16.15l.65-.64-4.78-.87c-.66-.12-1,.89-.28,1l4.78.87a.54.54,0,0,0,.65-.65c-1.41-5.38-2.85-10.76-4.27-16.15a.54.54,0,0,0-.37-.36l-6.55-1.19a.54.54,0,0,0-.65.37L209,255.57a.53.53,0,0,0,.37.65l4.65.84a.55.55,0,0,0,.65-.37c.26-.81.53-1.63.8-2.44l-.65.36,5.15.93-.37-.37c.22.91.44,1.81.65,2.72A.52.52,0,0,0,221.29,257.61Z"/><path d="M218.05,245.21l-.19,0a.53.53,0,0,0-.64.36c-.56,1.75-1.13,3.49-1.69,5.24a.51.51,0,0,0,.36.64l3.29.6a.53.53,0,0,0,.64-.65c-.46-1.93-.94-3.86-1.4-5.79a.53.53,0,0,0-1,.27c.47,1.94.95,3.87,1.41,5.8l.65-.64-3.29-.6.37.65c.56-1.75,1.13-3.49,1.69-5.24l-.64.37.18,0a.54.54,0,0,0,.65-.37A.53.53,0,0,0,218.05,245.21Z"/><path class="cls-5" d="M236.05,260.52q-.81-2.77-1.63-5.55l-1.91-.35c-.06,1.74-.13,3.48-.19,5.22L227.6,259c.19-5.09.3-10.2.57-15.29,2.38.45,5.7,1,7.86,1.44a7.77,7.77,0,0,1,3.25,1.16,3,3,0,0,1,1.42,1.91,8.09,8.09,0,0,1,.26,2.9,7.68,7.68,0,0,1-.5,2.72,2.45,2.45,0,0,1-1.61,1.4l2.07,6.2Zm-.56-8.76c.38,0,.41-.07.57-.36a2.58,2.58,0,0,0,.17-1.09,3.15,3.15,0,0,0-.07-1.15.8.8,0,0,0-.53-.56,6.1,6.1,0,0,0-1.4-.38l-1.47-.27c-.06,1.14-.1,2.27-.13,3.4l1.46.27A5.75,5.75,0,0,0,235.49,251.76Z"/><path d="M236.55,260.38l-1.62-5.55a.51.51,0,0,0-.37-.37l-1.91-.35a.53.53,0,0,0-.66.51c-.07,1.74-.13,3.48-.19,5.22l.66-.5-4.72-.86.39.5c.18-5.09.3-10.19.57-15.29l-.67.51,5.16.94a23.56,23.56,0,0,1,4.78,1,4.2,4.2,0,0,1,1.77,1.2,4.53,4.53,0,0,1,.71,2.56,11.17,11.17,0,0,1-.22,2.88,2.49,2.49,0,0,1-1.64,2,.52.52,0,0,0-.25.59c.7,2.07,1.39,4.13,2.07,6.2l.65-.65-4.87-.89c-.66-.12-.95.89-.28,1l4.87.89a.53.53,0,0,0,.65-.64l-2.07-6.2-.24.6a3.15,3.15,0,0,0,1.8-1.6,8,8,0,0,0,.57-3c0-1.79-.06-3.85-1.61-5s-3.28-1.37-5-1.7l-6.52-1.18a.53.53,0,0,0-.66.5c-.27,5.1-.39,10.2-.57,15.29a.52.52,0,0,0,.38.51l4.72.86a.54.54,0,0,0,.67-.51c.06-1.74.12-3.48.19-5.22l-.67.51,1.91.34-.36-.36,1.62,5.55A.52.52,0,0,0,236.55,260.38Z"/><path d="M235.49,252.29a1.36,1.36,0,0,0,.78-.27,1.54,1.54,0,0,0,.38-.67,3.48,3.48,0,0,0,.1-.91c0-.27,0-.54,0-.81a1.66,1.66,0,0,0-.68-1.38,4.86,4.86,0,0,0-1.72-.53l-1.47-.27a.54.54,0,0,0-.67.5c-.06,1.14-.1,2.27-.12,3.4a.52.52,0,0,0,.38.51l1.31.24a6.45,6.45,0,0,0,1.69.19.55.55,0,0,0,.53-.53.53.53,0,0,0-.53-.52,5.59,5.59,0,0,1-1.46-.16l-1.26-.23.39.5c0-1.13.06-2.26.12-3.4l-.66.51,1.44.26c.32.06.64.12.95.21l.23.07.1,0h0l.18.1.06,0q-.08-.06,0,0c.08.08,0-.08,0,0a.67.67,0,0,0,.06.12c-.05-.11,0,.08,0,.11l0,.11s0,0,0,0a6.32,6.32,0,0,1,0,.87,3.62,3.62,0,0,1,0,.47c0-.08,0,.07,0,.09s-.06.21,0,.12a.83.83,0,0,1-.09.16c0,.09.08-.06,0,0,.06-.05.2-.09.07-.06l-.08,0c.06,0,.05,0,0,0a.53.53,0,0,0,0,1Z"/><path class="cls-5" d="M246.65,262.46l.42-11.66L243,250c.05-1.2.09-2.41.13-3.62l12.9,2.37c0,1.21-.09,2.42-.13,3.63l-4.11-.76-.42,11.67Z"/><path d="M247.18,262.46c.14-3.89.27-7.78.42-11.66a.53.53,0,0,0-.39-.51l-4.09-.75.39.5.12-3.62-.66.51,12.9,2.37-.39-.51c0,1.21-.09,2.42-.13,3.63l.66-.51-4.1-.76a.53.53,0,0,0-.66.51c-.15,3.89-.28,7.78-.42,11.67l.66-.51-4.7-.86c-.66-.13-.94.89-.27,1l4.69.86a.54.54,0,0,0,.67-.5c.14-3.89.27-7.78.42-11.67l-.67.51,4.11.75a.52.52,0,0,0,.66-.5c0-1.21.09-2.42.13-3.63a.52.52,0,0,0-.38-.5l-12.9-2.38a.55.55,0,0,0-.67.51l-.12,3.62a.52.52,0,0,0,.38.51l4.09.75-.38-.5c-.15,3.88-.28,7.77-.42,11.66A.53.53,0,0,0,247.18,262.46Z"/><path class="cls-5" d="M192.15,283.16q6,1,12.06,2c0,1.92,0,3.84,0,5.75q-9.6-1.59-19.19-3.18c0-.92-.09-2.85-.12-3.59a33,33,0,0,1,0-4.8,4.26,4.26,0,0,1,1-2.68,4.69,4.69,0,0,1,2.75-1.46c1.14-.32,2.55-.56,3.8-.84.4-.09,1.33-.28,1.68-.37a7.07,7.07,0,0,0,1.46-.44c.39-.21.45-.27.59-.63a3.37,3.37,0,0,0,.15-1.28,1.89,1.89,0,0,0-.29-1.32,1.65,1.65,0,0,0-1.08-.71,15.07,15.07,0,0,0-2.38-.53c-2.05-.33-5.13-.6-7.41-.71,0-1.81.08-3.61.12-5.42,1.53,0,3.11,0,4.62.18s3.45.33,4.81.58a21.66,21.66,0,0,1,5.06,1.39,6.86,6.86,0,0,1,3.28,2.7,8.4,8.4,0,0,1,1.12,4.79,9.16,9.16,0,0,1-1.13,4.87,4.63,4.63,0,0,1-3.15,2c-.88.25-2.31.44-3.26.68-.5.13-.94.2-1.39.31s-1.08.2-1.47.28a7.51,7.51,0,0,0-.92.27.75.75,0,0,0-.48.35,1.17,1.17,0,0,0-.23.63,5.57,5.57,0,0,0,0,1Z"/><path d="M191.91,284q6,1,12.06,2l-.66-.87c0,1.92,0,3.84,0,5.75l1.14-.86-19.19-3.19.66.87c0-1.51-.1-3-.15-4.52-.06-1.66-.35-3.85.46-5.38s3.12-1.9,4.8-2.24a29.46,29.46,0,0,0,4.66-1.08c1.31-.52,1.61-1.54,1.6-2.87a2.74,2.74,0,0,0-2-2.9c-3.12-1-6.76-1.1-10-1.27l.9.9c0-1.8.08-3.61.12-5.42l-.9.9a46.68,46.68,0,0,1,11.84,1.29,8.85,8.85,0,0,1,4.66,2.46,7.41,7.41,0,0,1,1.49,5.18c0,1.73-.26,4-1.81,5.06-1.25.89-3.11,1-4.56,1.28a20.85,20.85,0,0,0-4.51,1.06c-1.18.57-1.21,1.85-1.18,3a.9.9,0,0,0,1.8,0,3.36,3.36,0,0,1,0-1c.17-.59.4-.55,1-.69.83-.19,1.67-.31,2.49-.5a27.88,27.88,0,0,0,5.11-1.27c3.4-1.47,3.78-6.05,3.33-9.25-.52-3.76-3.24-5.93-6.72-7A45.82,45.82,0,0,0,185.32,262a.93.93,0,0,0-.9.9c0,1.81-.1,3.62-.12,5.42a.92.92,0,0,0,.9.9,39.24,39.24,0,0,1,9.29,1.13c.83.25,1,.72,1,1.57s-.69.95-1.54,1.15c-1.49.35-3,.62-4.47,1-2.67.61-4.91,1.71-5.37,4.64s0,6,0,9a.91.91,0,0,0,.66.87q9.6,1.57,19.19,3.18a.91.91,0,0,0,1.14-.87c0-1.91,0-3.83,0-5.75a.92.92,0,0,0-.66-.87q-6-1-12.06-2C191.26,282.1,190.77,283.83,191.91,284Z"/><path class="cls-5" d="M211.63,292.46q.24-9,.47-18.06l-4.67,1c0-1.92.09-3.85.14-5.77l7.19-2.27,5.36.91-.66,25.52Z"/><path d="M212.53,292.46q.24-9,.47-18.06a.91.91,0,0,0-1.14-.87l-4.67,1,1.14.87c0-1.92.09-3.85.14-5.77l-.67.87,5.85-1.85a5.39,5.39,0,0,1,2.82-.09l3.41.58-.66-.87-.66,25.52,1.14-.87-7.83-1.34c-1.13-.19-1.62,1.55-.48,1.74l7.83,1.34a.92.92,0,0,0,1.14-.87l.66-25.52a.89.89,0,0,0-.66-.86l-3.41-.58a6.06,6.06,0,0,0-3.1-.12l-6.52,2a.92.92,0,0,0-.66.87c0,1.92-.09,3.85-.14,5.77a.92.92,0,0,0,1.14.87l4.67-1-1.14-.87q-.22,9-.47,18.06A.9.9,0,0,0,212.53,292.46Z"/><path class="cls-5" d="M223.87,295.55l.21-6L231.5,291c-.07,2-.15,4-.22,6Zm.46-12.93.21-6L232,278c-.07,2-.15,4-.22,6Z"/><path d="M224.77,295.55l.21-6-1.14.87,7.42,1.37-.66-.87c-.07,2-.15,4-.22,6l1.14-.86-7.41-1.37a.93.93,0,0,0-1.11.63.9.9,0,0,0,.63,1.1l7.41,1.37a.91.91,0,0,0,1.14-.87c.07-2,.15-4,.22-6a.91.91,0,0,0-.66-.87l-7.42-1.37a.92.92,0,0,0-1.14.87l-.21,6C222.93,296.7,224.73,296.7,224.77,295.55Z"/><path d="M225.23,282.62l.21-6-1.14.87,7.42,1.37-.66-.87c-.07,2-.15,4-.22,6l1.14-.86-7.41-1.37a.93.93,0,0,0-1.11.63.91.91,0,0,0,.63,1.11l7.41,1.36a.91.91,0,0,0,1.14-.87c.07-2,.15-4,.22-6a.92.92,0,0,0-.67-.87l-7.41-1.36a.91.91,0,0,0-1.14.86l-.21,6C223.39,283.78,225.19,283.77,225.23,282.62Z"/><path class="cls-5" d="M240,297.88c-1.81-1.24-2.19-1.85-2.74-4.11s-.43-6.06-.34-8.63.21-6.3.94-8.4,1-2.47,3-3.07,5,0,7.18.41,5.3,1,7.1,2.22,2.19,1.85,2.74,4.12.43,6.06.34,8.63-.21,6.29-.94,8.39-1,2.48-3,3.07-5,0-7.19-.4S241.82,299.12,240,297.88Zm9.38-3.47c.6-.42.56-.58.73-1.68s.26-3.67.31-5.12.14-4,0-5.17-.08-1.33-.59-1.91a3.28,3.28,0,0,0-2-.75c-.66-.11-1.46-.42-2.07,0s-.57.59-.75,1.68-.27,3.67-.33,5.11-.13,4,0,5.16.09,1.34.62,1.93a3.3,3.3,0,0,0,2,.74C248,294.52,248.79,294.83,249.39,294.41Z"/><path d="M240.46,297.11a4.64,4.64,0,0,1-2-2.29,13.48,13.48,0,0,1-.67-3.72,74.57,74.57,0,0,1,.08-7.77c.11-2.46.1-5.42,1.36-7.63,1.17-2,4.83-1.39,6.69-1.09,2.6.43,5.49.78,7.88,2a5.94,5.94,0,0,1,2.53,2.06,9,9,0,0,1,.92,3.38,52.48,52.48,0,0,1,0,7.73c-.09,2.64-.1,5.45-1.05,7.95a2.66,2.66,0,0,1-2,1.91,11.06,11.06,0,0,1-4.79,0c-3-.48-6.4-.85-9-2.5-1-.64-1.88.92-.91,1.55,2.67,1.72,6.13,2.15,9.21,2.65,2.48.41,6.06.9,8.08-1.06,1.83-1.79,2-5.26,2.14-7.62a70.1,70.1,0,0,0,.17-9.72c-.16-2.47-.6-5.12-2.64-6.74-2.54-2-5.82-2.53-8.93-3.09-2.76-.5-6.09-1.16-8.65.41-2.06,1.26-2.39,4.54-2.61,6.69a67.5,67.5,0,0,0-.3,10.92,14.35,14.35,0,0,0,.93,4.71,6.75,6.75,0,0,0,2.6,2.85C240.51,299.32,241.41,297.76,240.46,297.11Z"/><path d="M249.84,295.19c1.09-.79,1.15-1.94,1.26-3.2.14-1.45.18-2.92.23-4.38s.11-2.94.09-4.4c0-1.27,0-2.55-1-3.46a3.85,3.85,0,0,0-2.09-.8,5.64,5.64,0,0,0-2.34-.21c-1.46.36-1.68,1.72-1.84,3a67.82,67.82,0,0,0-.37,8.67c0,1.41,0,3,1.08,4a4.3,4.3,0,0,0,2.28.83,3.78,3.78,0,0,0,2.75-.08.9.9,0,0,0-.91-1.56c-.45.26-1.16-.06-1.65-.14s-1.16-.13-1.48-.62a5.69,5.69,0,0,1-.27-2.67c0-2.31.09-4.64.24-6.94,0-.48.06-1,.12-1.43a4,4,0,0,1,.21-1.15c.29-.4.94-.14,1.32-.07a4.27,4.27,0,0,1,1.7.43c.67.49.49,1.71.5,2.44,0,1.2,0,2.41-.07,3.61s-.09,2.5-.16,3.74c0,.56-.07,1.11-.14,1.67-.05.38,0,.93-.32,1.13C248,294.3,248.9,295.87,249.84,295.19Z"/><path class="cls-5" d="M265.93,302.66c-1.81-1.24-2.19-1.85-2.74-4.11s-.43-6.06-.34-8.63.21-6.3.94-8.4,1-2.47,3-3.07,5,0,7.19.41,5.3,1,7.1,2.22,2.19,1.85,2.74,4.12.43,6.06.34,8.62-.21,6.3-.94,8.4-1,2.47-3,3.07-5,0-7.19-.41S267.74,303.9,265.93,302.66Zm9.38-3.47c.6-.42.56-.58.73-1.68s.26-3.68.31-5.12.14-4,0-5.17-.08-1.33-.59-1.91a3.28,3.28,0,0,0-2-.75c-.67-.12-1.46-.42-2.07,0s-.57.59-.75,1.68-.27,3.66-.33,5.1-.13,4,0,5.16.09,1.35.61,1.93a3.3,3.3,0,0,0,2,.75C273.91,299.3,274.7,299.6,275.31,299.19Z"/><path d="M266.38,301.88a4.66,4.66,0,0,1-2-2.28,13.48,13.48,0,0,1-.67-3.73,74.41,74.41,0,0,1,.08-7.76c.11-2.46.09-5.42,1.36-7.63,1.17-2,4.83-1.39,6.69-1.09,2.6.43,5.49.78,7.88,1.95a6,6,0,0,1,2.53,2.07,9,9,0,0,1,.92,3.38,52.47,52.47,0,0,1,0,7.73c-.09,2.64-.1,5.45-1.05,8a2.66,2.66,0,0,1-2.06,1.91,11,11,0,0,1-4.78,0c-3-.47-6.4-.84-9-2.5-1-.63-1.88.93-.91,1.56,2.67,1.72,6.13,2.14,9.21,2.65,2.48.4,6.06.9,8.08-1.07,1.83-1.78,2-5.25,2.14-7.62a70.07,70.07,0,0,0,.17-9.72c-.17-2.46-.6-5.11-2.64-6.73-2.54-2-5.82-2.53-8.93-3.09-2.76-.5-6.1-1.17-8.65.41-2.06,1.26-2.39,4.54-2.61,6.68a67.53,67.53,0,0,0-.3,10.92,14.3,14.3,0,0,0,.93,4.71,6.71,6.71,0,0,0,2.6,2.86C266.43,304.1,267.33,302.54,266.38,301.88Z"/><path d="M275.76,300c1.09-.78,1.15-1.93,1.26-3.19.14-1.46.18-2.92.23-4.38s.11-2.94.09-4.41c0-1.26,0-2.55-1-3.46a3.86,3.86,0,0,0-2.09-.79,5.48,5.48,0,0,0-2.34-.21c-1.46.36-1.68,1.72-1.84,3a67.82,67.82,0,0,0-.37,8.67c0,1.41,0,3,1.08,4a4.3,4.3,0,0,0,2.28.83,3.73,3.73,0,0,0,2.75-.09c1-.56.11-2.12-.91-1.55-.45.25-1.16-.06-1.65-.14s-1.16-.13-1.48-.63a5.65,5.65,0,0,1-.27-2.66c0-2.31.09-4.64.24-7,0-.47.06-.95.12-1.42a3.68,3.68,0,0,1,.21-1.15c.29-.41.94-.15,1.31-.07a4.28,4.28,0,0,1,1.71.43c.67.49.49,1.71.5,2.44,0,1.2,0,2.41-.07,3.61s-.09,2.5-.16,3.74c0,.56-.07,1.11-.14,1.66-.05.39,0,.94-.32,1.14C273.92,299.08,274.82,300.64,275.76,300Z"/></g></g></svg>