<svg viewBox="0 0 29.19 32.7" xmlns="http://www.w3.org/2000/svg"><g fill="#fff"><path d="M27.3 9.6a1.89 1.89 0 0 0 1.89-1.89V1.89A1.89 1.89 0 0 0 27.3 0H1.89A1.89 1.89 0 0 0 0 1.89v5.82A1.89 1.89 0 0 0 1.89 9.6h11.9v2H1.89A1.89 1.89 0 0 0 0 13.44v5.82a1.89 1.89 0 0 0 1.89 1.89h11.9v2H1.89A1.89 1.89 0 0 0 0 25v5.83a1.89 1.89 0 0 0 1.89 1.87H27.3a1.89 1.89 0 0 0 1.89-1.88V25a1.89 1.89 0 0 0-1.89-1.9H15.4v-2h11.9a1.89 1.89 0 0 0 1.89-1.89v-5.77a1.89 1.89 0 0 0-1.89-1.89H15.4v-2zm0 15.11a.29.29 0 0 1 .28.28v5.83a.28.28 0 0 1-.28.27H1.89a.28.28 0 0 1-.28-.27V25a.29.29 0 0 1 .28-.28zm0-11.55a.29.29 0 0 1 .28.28v5.82a.28.28 0 0 1-.28.28H1.89a.28.28 0 0 1-.28-.28v-5.82a.29.29 0 0 1 .28-.28zM1.89 8a.28.28 0 0 1-.28-.28V1.89a.29.29 0 0 1 .28-.28H27.3a.29.29 0 0 1 .28.28v5.82a.28.28 0 0 1-.28.29z"/><path d="M24.11 2.54a2.26 2.26 0 1 0 2.25 2.26 2.26 2.26 0 0 0-2.25-2.26zm0 2.91a.65.65 0 1 1 .64-.65.65.65 0 0 1-.64.65zM19.86 4h-1.13a.81.81 0 0 0 0 1.62h1.13a.81.81 0 0 0 0-1.62zm-3.74 0H15a.81.81 0 0 0 0 1.62h1.13a.81.81 0 0 0 0-1.62zm-3.73 0H3.63a.81.81 0 0 0 0 1.62h8.76a.81.81 0 0 0 0-1.62zm11.72 14.61a2.26 2.26 0 1 0-2.26-2.26 2.26 2.26 0 0 0 2.26 2.26zm0-2.9a.65.65 0 1 1-.65.64.64.64 0 0 1 .65-.64zm-5.38 1.45h1.13a.81.81 0 0 0 0-1.61h-1.13a.81.81 0 1 0 0 1.61zm-3.73 0h1.13a.81.81 0 1 0 0-1.61H15a.81.81 0 0 0 0 1.61zm-11.37 0h8.76a.81.81 0 0 0 0-1.61H3.63a.81.81 0 0 0 0 1.61zm20.48 13a2.26 2.26 0 1 0-2.26-2.26 2.26 2.26 0 0 0 2.26 2.26zm0-2.9a.65.65 0 1 1-.65.64.64.64 0 0 1 .65-.64zm-5.38 1.45h1.13a.81.81 0 0 0 0-1.61h-1.13a.81.81 0 1 0 0 1.61zm-3.73 0h1.13a.81.81 0 1 0 0-1.61H15a.81.81 0 0 0 0 1.61zm-11.37 0h8.76a.81.81 0 0 0 0-1.61H3.63a.81.81 0 0 0 0 1.61z"/></g></svg>