<svg xmlns="http://www.w3.org/2000/svg" viewBox="0 0 657.25 232.46"><defs><style>.cls-1{fill:gray;}.cls-2{fill:#fff;}.cls-3{fill:#d6d6d6;}.cls-4{fill:#b3b3b3;}.cls-5{fill:#999;}.cls-6,.cls-8{fill:#e10b31;}.cls-6{stroke:#000;stroke-miterlimit:10;stroke-width:1.3px;}.cls-7{fill:#903;}.cls-9{fill:#161616;}</style></defs><title>soon</title><g id="Layer_2" data-name="Layer 2"><g id="Long_Page_cz.2" data-name="Long Page cz.2"><g id="HEAD"><path class="cls-1" d="M79.89,216.34s-3.67,8.87-4.88,15.08c35-18.21,81.28-39.84,116.92-56.45l.33-.06c.24-4.9,2.46-9.62,4-14.16Z"/><path class="cls-2" d="M19.69,83.94c-1.11,2.36-4.32,28.2-17.79,47.49l24.58,69.65c18.05,7,45.16,28.3,48.15,29.37Z"/><path class="cls-3" d="M195.86,158.27c-7.38-17.93-27.08-81.16-31.93-99.87L39.41,97.68,39.94,99c5.51,20.17,40.54,116,40.54,116l115.05-55Z"/><path d="M197.75,157.75c-4.88-11.87-8.72-24.21-12.68-36.41q-7.38-22.73-14.2-45.62c-1.75-5.93-3.51-11.86-5.06-17.84a2,2,0,0,0-2.4-1.37L151,60.42l-29.72,9.37-36,11.35L54.24,91c-5,1.59-10.14,3.05-15.13,4.77l-.22.07a2,2,0,0,0-1.36,2.4c1,2.58,1.67,5.31,2.51,8,1.16,3.69,2.38,7.36,3.61,11,3.26,9.69,6.63,19.33,10,29Q59.19,161.8,64.8,177.4q4.64,12.91,9.32,25.8c1.47,4.05,2.88,8.12,4.42,12.14l.06.17a2,2,0,0,0,2.87,1.17L93.33,211l28.33-13.55,33.79-16.16L184,167.64l8.93-4.27c1.16-.56,2.46-1,3.57-1.71s1-1.83,1.25-2.87c.49-2.45-3.28-3.51-3.77-1l-.34,1.7.9-1.17L183,163.78l-27.39,13.11L122.3,192.83,93.67,206.52l-9.5,4.55c-1.47.7-3.07,1.3-4.47,2.14l-.2.09,2.87,1.17q-1.82-5-3.61-9.91Q74.31,192.29,69.88,180q-5.56-15.5-11.06-31-5.25-14.82-10.33-29.7c-2.27-6.69-4.59-13.38-6.5-20.18-.19-.67-.44-1.31-.69-2l-1.37,2.41,12.38-3.91L82,86.28l36-11.34,31.11-9.82,10.3-3.25a50.12,50.12,0,0,0,4.83-1.52l.22-.07L162,58.91c3.23,12.43,7.08,24.71,10.87,37,4.71,15.21,9.54,30.4,14.7,45.47,2,5.85,4,11.72,6.37,17.44a2,2,0,0,0,2.4,1.37A2,2,0,0,0,197.75,157.75Z"/><path class="cls-4" d="M73.48,229.64c-27-61-55-143.08-52.2-145.5,3.66,2.87,12.22,9,18.13,13.54L78.54,215.75s-2.7,8.49-3.91,14.7Z"/><polygon class="cls-2" points="137.13 50.95 23.12 83.77 39.28 97.35 161.85 58.41 137.13 50.95"/><path d="M38.06,99.55C41.94,113.3,46.4,126.88,51,140.4q8.37,24.67,17.53,49.08,4.91,13.07,10.1,26a2,2,0,0,0,2.4,1.36,2,2,0,0,0,1.37-2.4C76,198.76,70.1,182.89,64.37,167c-5.62-15.65-11-31.38-16.1-47.22-2.25-7-4.44-14.1-6.45-21.21-.68-2.42-4.45-1.39-3.76,1Z"/><path d="M162.57,56.05a227.57,227.57,0,0,1-24.45-6.78c-2.38-.81-3.41,3-1,3.77a227.57,227.57,0,0,0,24.45,6.78c2.46.54,3.5-3.23,1-3.77Z"/><path d="M20.32,85.63c14.77-3.36,29.41-7.25,44-11.29,15.81-4.37,31.56-9,47.3-13.53Q124.54,57,137.45,53.3c2.41-.69,1.38-4.46-1-3.76-15.54,4.48-31.06,9.05-46.6,13.52S58.82,71.91,43.23,76C35.28,78.05,27.3,80,19.29,81.86c-2.46.56-1.42,4.33,1,3.77Z"/><path d="M19.59,85.13a30.52,30.52,0,0,0,8.11,7A121.41,121.41,0,0,1,38,99.07a2,2,0,0,0,2.76,0,2,2,0,0,0,0-2.77,115.13,115.13,0,0,0-10.43-7.08c-2.69-1.7-5.44-3.51-7.39-6.07a2,2,0,0,0-2.68-.7,2,2,0,0,0-.7,2.68Z"/><path d="M18,83a48.76,48.76,0,0,0-1.95,5.68c-1.16,3.61-2.32,7.21-3.54,10.8Q7.17,115.16.31,130.23c-.57,1.24-.26,1.84.14,3L1.81,137l4.76,13.49,12.31,34.86,4.41,12.51,1.1,3.11c.07.19.13.38.2.56a2.66,2.66,0,0,0,1.57,1.53c1.13.58,2.25,1.17,3.37,1.77,8.8,4.73,17.28,10,25.66,15.46,5.65,3.66,11.17,7.61,17,11a12.12,12.12,0,0,0,1.94,1c2.37.88,3.38-2.9,1-3.77-.11,0,.52.29.14.06a3.84,3.84,0,0,0-.35-.18l-.92-.53c-.89-.53-1.76-1.09-2.64-1.65-2.63-1.69-5.23-3.42-7.85-5.14-7.33-4.82-14.7-9.59-22.25-14.07-4.52-2.69-9.11-5.28-13.81-7.66l.9,1.17L20,177,6.82,139.51l-3-8.6-.2,1.51C10.21,118.41,15.3,103.77,20,89c.31-1,.61-1.91.93-2.86.11-.33.22-.66.34-1s.37-.87.08-.25a2,2,0,0,0-.7-2.67A2,2,0,0,0,18,83Z"/><path d="M39.93,99.57l12.38-3.91L82,86.28l36-11.34,31.11-9.82,10.3-3.25a50.12,50.12,0,0,0,4.83-1.52l.22-.07L162,58.91c3.23,12.43,7.08,24.71,10.87,37,4.71,15.21,9.54,30.4,14.7,45.47,2,5.85,4,11.72,6.37,17.44a2,2,0,0,0,2.4,1.37,2,2,0,0,0,1.37-2.41c-4.88-11.87-8.72-24.21-12.68-36.41q-7.38-22.73-14.2-45.62c-1.75-5.93-3.51-11.86-5.06-17.84a2,2,0,0,0-2.4-1.37L151,60.42l-29.72,9.37-36,11.35L54.24,91c-5,1.59-10.14,3.05-15.13,4.77l-.22.07c-2.39.75-1.37,4.53,1,3.77Z"/><path d="M18.48,84.48c4.77,18.74,10.56,37.23,16.68,55.57,7.07,21.17,14.68,42.19,23.41,62.74a307.75,307.75,0,0,0,13.22,27.83c1.22,2.21,4.59.24,3.38-2-9.47-17.21-16.74-35.68-23.65-54Q39.91,143.7,30.33,112c-2.88-9.48-5.64-19-8.08-28.6-.62-2.44-4.39-1.41-3.77,1Z"/><path d="M190.56,172.32c-15.18,7.26-30.41,14.41-45.63,21.6-15.66,7.4-31.3,14.83-46.84,22.49q-12.27,6.06-24.44,12.35L76.52,231a69.18,69.18,0,0,1,5.65-15l-.7.7L93,211.18,120.54,198l33.37-16,28.82-13.79,9.44-4.51c1.48-.71,3.1-1.32,4.51-2.17l.2-.09L194,159.26c-1.68,4.83-3.77,9.51-4.09,14.68l1.44-1.88-.33.06c-2.47.45-1.42,4.22,1,3.77l.33-.06a2,2,0,0,0,1.43-1.89c.29-4.76,2.4-9.19,3.95-13.64.61-1.75-1.46-2.88-2.87-2.2l-13.09,6.26-30.76,14.71-35.68,17.07L87.55,209.45l-7,3.35c-.34.17-.72.3-1,.5A5.15,5.15,0,0,0,78,215.66c-.95,2-1.83,4.07-2.64,6.15a63.93,63.93,0,0,0-2.6,8.12,2,2,0,0,0,2.87,2.2c14.76-7.67,29.7-15,44.69-22.19,15.67-7.52,31.39-14.91,47.1-22.33q12.59-5.93,25.13-11.92C194.8,174.61,192.82,171.24,190.56,172.32Z"/><path class="cls-5" d="M64,129.81c4-10,15.77-8.7,25.37-9.29,6.22-.39,13.76-3.22,14.94-5.09,3.52-8.71,13.87-6.7,22.15-8.11,7.32-1.24,15.63-4.86,16.74-6.65,3.3-8.44,13.57-10.66,21.1-7.75s8.63,13.23,5.2,19.65c-5.27,8.46-36,11.86-37.71,15-15,13.29-29.67,8.43-36.32,16.13-7,11-28,11.48-33.26-1.9A14.42,14.42,0,0,1,64,129.81Z"/><path d="M105.9,121c3.72,5.47,10.37,9.71,16.49,4.62a9.71,9.71,0,0,0,1.71-15.1c-5.21-3.68-13.21-.15-17.1,4.43A6.54,6.54,0,0,0,105.9,121Z"/><path d="M71.1,139.84c3.63,5.56,10,4.78,15.92,3.46,7.06-1.81,6.78-8.49,4.85-12.88-3.87-8.77-13.77-8.84-19-4.44C71.34,128.11,68.07,135.94,71.1,139.84Z"/><path d="M141.42,109.33c8,11,18.81,6.29,20.88-3.64.86-6.83-6.22-10.28-13.27-9.62-3.71.35-5.94,2.63-7.68,6C140.09,104,140.71,107.1,141.42,109.33Z"/><g id="eyes"><path class="cls-6" d="M146.08,106.63q-2.62,3.06-5.44,6c-3.89,4,1.38,11.18,5.33,7.13,2.43-2.51,4.8-5.06,7.06-7.69l5,3.84c4.49,3.48,9.77-3.59,5.27-7.08l-4.75-3.67a84.44,84.44,0,0,0,5-7.58c2.83-4.88-4-10.44-6.88-5.51a90.93,90.93,0,0,1-5,7.7l-6.69-5.18c-4.49-3.48-9.77,3.59-5.27,7.08Z"/><path class="cls-6" d="M104.82,113.36q4.16,2.67,8.09,5.7a90.93,90.93,0,0,1-6.69,8.76c-3.71,4.29,3.2,9.78,6.89,5.51a93.41,93.41,0,0,0,6.57-8.56q2,1.86,4,3.85c1.68,1.73,4,2.42,6.09.84,1.68-1.31,2.42-4.57.75-6.29q-3-3.11-6.16-6,2.19-3.93,4.07-8.07c2.35-5.23-5.66-8.74-8-3.53-.91,2-1.88,4-2.91,5.88-2.39-1.83-4.85-3.58-7.4-5.22C105.36,103.26,100.05,110.31,104.82,113.36Z"/><path class="cls-6" d="M75.19,150.94A98.94,98.94,0,0,0,85,140.47a90.87,90.87,0,0,0,7.83,5.64c4.93,3.17,10.47-4.2,5.5-7.39A91,91,0,0,1,90.48,133a95.15,95.15,0,0,0,6.28-11c2.61-5.38-5.77-9-8.36-3.69a82.63,82.63,0,0,1-4.81,8.54,89,89,0,0,1-8.31-9.49c-3.61-4.76-10.77.91-7.15,5.69a99.42,99.42,0,0,0,10,11.32,88.11,88.11,0,0,1-8.54,9.08C65.31,147.47,70.84,155,75.19,150.94Z"/></g><path class="cls-7" d="M45,1.41A252.4,252.4,0,0,0,40.43,53c.07,6.19.3,12.38.61,18.57.12,2.5,4,2.52,3.9,0C44,53.1,43.83,34.57,46.38,16.26,47,11.63,47.82,7,48.71,2.45c.48-2.46-3.28-3.51-3.76-1Z"/><path class="cls-8" d="M53.5.8l57.05,14.89L50.57,45S47.72,29.79,53.5.8Z"/><path d="M74.54,150.24a98.81,98.81,0,0,0,10-10.17h0l.41-.49.5.4c2.18,1.73,4.42,3.38,6.74,4.92l.87.57c.29.19.55.29.83.44a5.05,5.05,0,0,0,.86.27,8.69,8.69,0,0,0,.89.05,4.57,4.57,0,0,0,3.1-1.73,3.79,3.79,0,0,0,.78-3.35,4.63,4.63,0,0,0-.37-.78,4,4,0,0,0-.59-.66,17.68,17.68,0,0,0-1.64-1.15q-3.53-2.34-6.82-5h0l-.46-.37.33-.5q2.5-3.81,4.66-7.85l1-2,.5-1c.11-.32.25-.63.34-.94a3.31,3.31,0,0,0-1.23-3.41,4.37,4.37,0,0,0-3.72-.88,4.67,4.67,0,0,0-.9.35,3.31,3.31,0,0,0-.75.59l-.34.35c-.1.13-.17.28-.26.42l-.27.43-.25.52a83.05,83.05,0,0,1-4.57,8.06h0l-.46.73-.64-.61a90,90,0,0,1-7.24-7.75l-.84-1a8.18,8.18,0,0,0-.8-.93,3,3,0,0,0-1.72-1,3.09,3.09,0,0,0-1.92.28A3.72,3.72,0,0,0,69,118.3a3.08,3.08,0,0,0-.65,1.81,3.23,3.23,0,0,0,.09.93,3.51,3.51,0,0,0,.41.88l.27.42.4.51.82,1,1.68,2a99.27,99.27,0,0,0,7.2,7.45h0l1.06,1-.94,1.1c-1.47,1.73-3,3.41-4.61,5-.8.8-1.62,1.59-2.45,2.37l-1.25,1.15c-.2.18-.45.38-.61.55s-.29.31-.44.46a3.49,3.49,0,0,0-.73,2.31,4.47,4.47,0,0,0,.91,2.44A3.28,3.28,0,0,0,72.25,151,3,3,0,0,0,74.54,150.24Zm1.29,1.4A5,5,0,0,1,72,153.07a5.44,5.44,0,0,1-3.56-2,6.64,6.64,0,0,1-1.54-3.67,6,6,0,0,1,1.07-4l.68-.79c.22-.24.4-.4.61-.6l1.16-1.17c.77-.79,1.53-1.59,2.27-2.4q2.22-2.44,4.24-5l.12,2.1h0a99.13,99.13,0,0,1-7.1-8c-.56-.69-1.1-1.39-1.64-2.1l-.8-1.07-.39-.54-.42-.69a5.51,5.51,0,0,1,.49-6.23A5.85,5.85,0,0,1,69.71,115a5.08,5.08,0,0,1,3.2-.31,5,5,0,0,1,2.73,1.65,9.22,9.22,0,0,1,.87,1.1l.78,1a87.82,87.82,0,0,0,6.8,7.89l-1.1.12h0a80.3,80.3,0,0,0,4.52-7.91l.25-.51.34-.55a3.94,3.94,0,0,1,.35-.55l.46-.48a4.67,4.67,0,0,1,1-.81,5.54,5.54,0,0,1,6.15.68,4.7,4.7,0,0,1,1.68,4.77c-.12.42-.29.83-.44,1.22l-.51,1c-.35.69-.7,1.38-1.07,2.06Q93.6,129.54,91,133.4l-.13-.87h0c2.17,1.75,4.42,3.4,6.73,4.94a15.8,15.8,0,0,1,1.79,1.27,5.36,5.36,0,0,1,.81.9,6.29,6.29,0,0,1,.53,1.11,5.13,5.13,0,0,1-1,4.54,5.88,5.88,0,0,1-4,2.23,8.19,8.19,0,0,1-1.21-.07,6.27,6.27,0,0,1-1.14-.35c-.34-.18-.73-.35-1-.54l-.88-.58c-2.36-1.56-4.63-3.24-6.83-5l.91-.09h0A101.77,101.77,0,0,1,75.83,151.64Z"/><path d="M105.4,112.46c2.85,1.71,5.67,3.5,8.6,5.19h0l1.5.86-1.11,1.55q-2.64,3.68-5.63,7.08l-1.49,1.66a3,3,0,0,0-.7,1.29,2.86,2.86,0,0,0,1.06,2.72,3.49,3.49,0,0,0,3.1.85l.39-.11c.13-.05.24-.14.36-.2a2.63,2.63,0,0,0,.69-.51,7.52,7.52,0,0,0,.73-.75l.73-.82c2-2.19,3.78-4.49,5.52-6.87h0l.45-.62.53.51,2.51,2.45L123.9,128a7.53,7.53,0,0,0,1.21,1,3.72,3.72,0,0,0,2.82.63,3.55,3.55,0,0,0,1.32-.62,3.29,3.29,0,0,0,.94-1.11,4.42,4.42,0,0,0,.5-2.92,2.64,2.64,0,0,0-.59-1.25c-.35-.38-.82-.8-1.22-1.19l-5-4.82h0l-.37-.35.24-.45q1.74-3.2,3.26-6.51c.24-.54.51-1.11.72-1.65L128,108l.07-.74a3.28,3.28,0,0,0-1.35-2.5,4.06,4.06,0,0,0-2.83-.83,3.18,3.18,0,0,0-2.34,1.51c-.12.23-.24.41-.37.68l-.4.83-.8,1.67-1.6,3.34h0l-.53,1.07-.93-.76c-1.45-1.19-3-2.3-4.5-3.39-.77-.54-1.55-1.06-2.34-1.57a8.39,8.39,0,0,0-1.09-.61,4.81,4.81,0,0,0-.54-.16,1.46,1.46,0,0,0-.55-.07,3.85,3.85,0,0,0-3.6,2.35,2.82,2.82,0,0,0-.18,2.06A3.25,3.25,0,0,0,105.4,112.46Zm-1.16,1.8a5.25,5.25,0,0,1-2.13-2.8,4.77,4.77,0,0,1,.39-3.46,6.16,6.16,0,0,1,2.22-2.47,5.34,5.34,0,0,1,3.25-.86,3.07,3.07,0,0,1,.85.13,5.44,5.44,0,0,1,.81.25,10.31,10.31,0,0,1,1.39.77c.8.52,1.59,1.06,2.38,1.6,1.59,1.06,3.13,2.19,4.68,3.31l-1.46.31h0l1.64-3.24.83-1.61.41-.81c.14-.27.34-.62.52-.92a5,5,0,0,1,3.67-2.23,5.82,5.82,0,0,1,4,1.25,4.87,4.87,0,0,1,1.89,3.79c0,.36-.08.71-.13,1.07s-.22.67-.34,1c-.25.6-.52,1.12-.79,1.69q-1.61,3.32-3.44,6.52l-.13-.8h0l5,4.86c.42.42.83.78,1.27,1.25a4,4,0,0,1,.89,1.85,5.65,5.65,0,0,1-.64,3.81A4.43,4.43,0,0,1,130,130a4.65,4.65,0,0,1-1.81.85,5.07,5.07,0,0,1-3.81-.8,8.65,8.65,0,0,1-1.43-1.22l-1.25-1.21-2.48-2.41,1-.11h0c-1.6,2.51-3.31,5-5.15,7.32l-.69.89a9.52,9.52,0,0,1-.77.89,4.84,4.84,0,0,1-1,.88,5.8,5.8,0,0,1-.59.36l-.66.24A5.35,5.35,0,0,1,110,136a5.77,5.77,0,0,1-1.38-.14,6.25,6.25,0,0,1-2.47-1.13,6.32,6.32,0,0,1-1.76-2.16,4.92,4.92,0,0,1-.44-2.92,5.66,5.66,0,0,1,1.18-2.66l1.37-1.74c1.78-2.31,3.43-4.7,5-7.16l.39,2.4h0A51.23,51.23,0,0,0,104.24,114.26Z"/><path d="M147.26,106.51c-1.81,2.29-3.82,4.67-5.86,6.8a3.65,3.65,0,0,0-1.11,2.87,4.65,4.65,0,0,0,1.29,3,2.47,2.47,0,0,0,2.72.7,2.21,2.21,0,0,0,.67-.4,4.79,4.79,0,0,0,.67-.59l1.38-1.45,5.52-5.81.43-.45.46.35c1.71,1.32,3.44,2.7,5.13,4a3.24,3.24,0,0,0,2.58.63,3.88,3.88,0,0,0,2.28-1.48,4.12,4.12,0,0,0,.89-2.6,3.38,3.38,0,0,0-1.14-2.4,11.52,11.52,0,0,0-1.2-1l-1.29-1-2.57-2-.49-.38.36-.52c1.52-2.17,3-4.4,4.25-6.69l.49-.86.33-.77c.08-.26.11-.53.18-.8s0-.54,0-.81a4.46,4.46,0,0,0-1.55-2.8,2.87,2.87,0,0,0-2.71-.73,3.23,3.23,0,0,0-.58.31c-.16.18-.36.28-.5.51s-.27.37-.44.68l-.5.89c-1.34,2.34-2.79,4.62-4.33,6.84h0l-.78,1.11-1.08-.84-6-4.68c-.24-.19-.51-.41-.73-.57l-.6-.37c-.21-.06-.41-.16-.61-.21a3.35,3.35,0,0,0-.63-.05,3.2,3.2,0,0,0-2.29,1.28,3.36,3.36,0,0,0-.73,2.59c0,.11,0,.22,0,.33l.13.3a2.3,2.3,0,0,0,.32.57,2.56,2.56,0,0,0,.48.51,5.69,5.69,0,0,0,.71.6C143.09,102.8,145.25,104.7,147.26,106.51Zm-2.36.24c-2-1.28-3.84-2.49-5.62-3.85a6.16,6.16,0,0,1-.75-.62,4.47,4.47,0,0,1-.81-.87,4.33,4.33,0,0,1-.62-1.06l-.23-.58c-.06-.2-.08-.41-.12-.61a5.88,5.88,0,0,1,1.19-4.53,5.74,5.74,0,0,1,4.15-2.27,6,6,0,0,1,1.27.1,10.18,10.18,0,0,1,1.18.39c.35.2.68.41,1,.63s.51.39.77.58l6,4.63-1.85.27h0c1.58-2.1,3.09-4.26,4.48-6.48l.52-.84a11.17,11.17,0,0,1,.69-1,6,6,0,0,1,.93-.87,5,5,0,0,1,1.21-.57A4.91,4.91,0,0,1,163,90.52a6.29,6.29,0,0,1,2,4.13,11.63,11.63,0,0,1,0,1.18,10,10,0,0,1-.31,1.14c-.16.35-.33.72-.5,1l-.53.86c-1.43,2.28-3,4.48-4.59,6.62l-.13-.9,2.57,2,1.28,1a13.14,13.14,0,0,1,1.31,1.07,4.7,4.7,0,0,1,1.54,3.31,5.44,5.44,0,0,1-1.16,3.44,5.15,5.15,0,0,1-3.07,2,4.51,4.51,0,0,1-3.57-.84c-1.78-1.33-3.44-2.66-5.17-4l.89-.09-5.37,6L146.81,120a6.78,6.78,0,0,1-.81.77,4.11,4.11,0,0,1-1,.65,5,5,0,0,1-1.23.34,4.22,4.22,0,0,1-1.28-.11c-.21-.06-.41-.11-.61-.18l-.55-.28a5.4,5.4,0,0,1-1-.71,6.53,6.53,0,0,1-2-4.18,5.72,5.72,0,0,1,1.57-4.46A60.07,60.07,0,0,1,144.9,106.75Z"/><g id="lips"><path class="cls-5" d="M160.8,157.23s6.73-13.86,4.86-16.55c-2.13-3.07-8.12-1.94-8.12-1.94S156.65,154.12,160.8,157.23Z"/><path class="cls-9" d="M157.52,138.83c-19.74,8.07-43.91,20-68,27.18,0,0-1.84,2.8-1.58,3.94a55.12,55.12,0,0,0,5.88,14.92l1.78.1c23.58-8.76,45.24-14.15,63.36-26.24,3.22-8.27,1.81-14.87.53-19.9Z"/><path d="M156.54,137.15c-17,7.45-34.27,14.32-51.6,21q-7.95,3-15.9,6c-2.33.87-1.32,4.63,1,3.75,18.25-6.83,36.44-13.86,54.42-21.38q7-2.94,14-6a2,2,0,0,0,.7-2.66,2,2,0,0,0-2.66-.7Z"/><path d="M89.92,165.49a3.16,3.16,0,0,0-3.81,2.58c-.45,1.87.32,3.86.85,5.63a56.66,56.66,0,0,0,2.32,6.35,31.07,31.07,0,0,0,2.89,5.8c.76,1.05,2.24,1.11,3.46,1.06a10.7,10.7,0,0,0,2.58-.74l2.66-.87q5.52-1.8,11-3.71c14.87-5.18,29.91-10.75,43.65-18.51.79-.45,1.58-.91,2.36-1.38a11.4,11.4,0,0,0,2.48-1.59c.81-.87,1-2.54,1.22-3.66q.47-1.95.78-3.93c.73-4.72.89-9.71-1-14.21A2,2,0,0,0,159,137a2,2,0,0,0-1.35,2.39c2.49,6,1.14,12.81-.53,18.87l.89-1.16a156.81,156.81,0,0,1-23.89,12c-9.14,3.81-18.46,7.2-27.84,10.38-2.44.82-4.89,1.64-7.33,2.44A32.89,32.89,0,0,1,95.52,183a15.77,15.77,0,0,1-1.67-.08l1.68,1a53.77,53.77,0,0,1-3.85-8.25c-.5-1.4-1-2.82-1.34-4.26a9.14,9.14,0,0,1-.49-1.95c0,.13,0-.27,0-.32l.07-.27c.35-.18,0-.05-1,.39,2.44.52,3.48-3.23,1-3.74Z"/></g></g><path class="cls-2" d="M254.46,202.83c-6-3.42-13.66-9.77-15.51-16.22-7.81-27.32-77.89-39.93-66.5-42.46,83.17-18.46,54.22-76.3,70.3-89.26,26.52-21.38,387.73-12.35,394.12-6.76,18.76,16.37,17.41,93.22,15.46,114.26-1.27,13.77-7.77,29.3-18,38.66s-333,8.71-345.28,6.94C278.72,206.5,264.32,208.49,254.46,202.83Z"/><path class="cls-3" d="M230.64,95.61c-3,10.59-3.79,26.9-3.87,31-.2,9.91-38.79,20.65-51.41,18.85C196.73,139.27,223.3,124.58,230.64,95.61Z"/><path class="cls-3" d="M232.87,175.64c-11.64-11.85-36.32-21.45-49.15-25.82C216.16,155.12,233.88,159.78,232.87,175.64Z"/><path class="cls-3" d="M641.53,153.63c-.33,11.26-.19,19.79-5.15,30.87-4,9.05-35.07,12.74-49.74,13.89C604.56,195.36,629.13,187.17,641.53,153.63Z"/><path d="M635.9,202.67c6.42-6,10.68-14,13.92-22.14a100.21,100.21,0,0,0,6.42-23.1c1.42-10,1-20.37.7-30.41a327.63,327.63,0,0,0-3.73-41.5c-1.72-10.74-3.73-22.89-9.66-32.24C642,50.89,640,48,637.18,47.06a17.47,17.47,0,0,0-3.22-.63c-3.92-.56-7.87-.87-11.82-1.17-15.06-1.14-30.16-1.79-45.25-2.4q-32.73-1.32-65.47-2-37.67-.85-75.33-1.06c-25-.12-50.06,0-75.09.47-21.33.42-42.68,1.09-64,2.55-14.42,1-29.18,1.95-43.31,5.23-3.84.89-8,1.92-11.3,4.23-5.49,3.87-8.11,11.86-9.46,18.1-1.83,8.42-1.94,17.12-3.47,25.6-1.68,9.34-5.33,18.14-12.06,25-10.65,10.87-26,16.23-40.42,19.83-1.86.47-11.26,1.73-7.51,6.07,1.61,1.86,4.9,2.66,7.08,3.49,10,3.78,20.15,7.12,29.9,11.54,10.19,4.63,21.71,10.35,28.33,19.75a27.88,27.88,0,0,1,3.26,6.78c1.57,4.32,4.87,8,8.35,10.9,2.78,2.33,5.88,4.81,9.44,5.82a70,70,0,0,0,11.71,1.79c15,1.53,30.16,2,45.24,2.53,22,.73,44,1.1,66,1.32q37.86.39,75.71.17,37.11-.18,74.21-.93c20.51-.43,41-1,61.5-2,12.69-.62,25.59-1,38.16-3,2.35-.37,5.63-.66,7.49-2.32,2.41-2.15-.75-5.29-3-3.25-.47.42.47-.25.2-.1a2.57,2.57,0,0,1-.53.25c-.75.15.5-.13-.06,0l-.86.25c-1.53.39-3.1.64-4.66.88-5.42.8-9.73,1.14-15.1,1.54-17,1.29-34,1.9-51.06,2.44-22.86.72-45.73,1.14-68.61,1.43q-37.56.45-75.14.37-35.61-.08-71.22-.72c-18.93-.36-37.88-.85-56.79-1.86-6.51-.35-13-.75-19.52-1.37-2.33-.22-4.65-.48-7-.8l-.23,0-.66-.1-1.34-.23c-.71-.13-1.42-.27-2.13-.45-.53-.13-1-.3-1.56-.47s.56.32,0,0a48.29,48.29,0,0,1-5-3.21c-3.78-2.83-7.39-6.49-9-11a30.29,30.29,0,0,0-3.15-6.63c-6.36-9.52-17.26-15.56-27.35-20.36S191.48,150.79,181,147a60.4,60.4,0,0,1-7.69-3.25c-.13-.06.05.29.06.05s.23.45.26.66a2.14,2.14,0,0,1-.74,1.75c-.2.2-.25.27-.52.26,1.59.07,3.72-.86,5.27-1.25,2.53-.63,5-1.31,7.53-2.06,13.47-4,27-10,36.76-20.47,6.66-7.18,10.41-16.19,12.23-25.72,1.6-8.34,1.75-16.89,3.38-25.22a36.85,36.85,0,0,1,3.69-10.85,28.29,28.29,0,0,1,3.26-4.59c.51-.6-.46.24.34-.31l.7-.52c-.55.4-.12,0,.32-.17s.68-.36,1-.52a24.51,24.51,0,0,1,2.38-.94c-.79.27.55-.18.82-.26.53-.16,1.07-.32,1.6-.46q1.7-.47,3.42-.84a180.75,180.75,0,0,1,18.22-2.89c17.94-2.09,36.05-3,54.1-3.66,23.28-.9,46.59-1.26,69.89-1.4q37.59-.23,75.16.35,35.4.49,70.78,1.56c18.9.57,37.81,1.25,56.7,2.23,10.8.55,21.69,1,32.42,2.36.25,0,1.37.21.44.06l.89.14c.43.09.85.2,1.27.27.89.16-.34-.45.53.27A17.67,17.67,0,0,1,638.78,55a45.61,45.61,0,0,1,5.46,12.61,145.82,145.82,0,0,1,4,18.13,325.64,325.64,0,0,1,3.82,41c.35,9.95.7,20.18-.6,30.07a93.08,93.08,0,0,1-5.63,21.06c-3,7.73-6.83,15.77-13,21.51A2.23,2.23,0,1,0,635.9,202.67Z"/><path d="M282.58,94.74l1.57,1.54a9.14,9.14,0,0,1,2.22,3.24,10.77,10.77,0,0,1,.66,3.94,12.78,12.78,0,0,1-1,5.11,8.71,8.71,0,0,1-3.23,3.86,10,10,0,0,1-5.62,1.47q-5.41,0-9.41-4.78l2.18-4.67,0,0,0,0c2.17,2.78,4.7,4.16,7.59,4.16a4.25,4.25,0,0,0,3.23-1.2,5.09,5.09,0,0,0,1.15-3.63,4.88,4.88,0,0,0-.49-2.18,6.54,6.54,0,0,0-1.68-2,21.48,21.48,0,0,0-3.28-2.14,15.21,15.21,0,0,1-5.62-4.65,10.34,10.34,0,0,1-1.75-6,9.41,9.41,0,0,1,1.13-4.55,8.54,8.54,0,0,1,3.09-3.3,8.3,8.3,0,0,1,4.44-1.22,9.51,9.51,0,0,1,4.77,1.13,13.18,13.18,0,0,1,3.83,3.48l-2.5,4.3,0,0a0,0,0,0,1,0,0,6.56,6.56,0,0,0-6.1-3.86,4,4,0,0,0-2.1.52,3.42,3.42,0,0,0-1.33,1.39,3.94,3.94,0,0,0-.45,1.87,4.27,4.27,0,0,0,.52,2.14,6.54,6.54,0,0,0,1.75,1.9,34.45,34.45,0,0,0,3.62,2.41Zm-12.81,9.45v-.08s0,0,0,0l.24.13-.09.19Zm.8.24s0,0,0,0a.48.48,0,0,1-.23-.11l-.27-.16.08-.18.44.32Zm12.69-17.77s0,0,0,0,.09,0,.18.13l.26.22-.07.13-.41-.35Zm.76.46s0,0,0,0-.13-.06-.26-.18l.13-.22A1.22,1.22,0,0,1,284,87.12Z"/><path d="M309.12,110.6a13,13,0,0,1-3.39,2.3,9.23,9.23,0,0,1-3.8.79,5.79,5.79,0,0,1-5-2.36c-1.14-1.58-1.72-4.29-1.72-8.14,0-1,.05-2.06.13-3.24l.37-7.71h-4.51l.09-5H296l.29-6,5.49-1.13.08.62s-.1.18-.21.39a3.38,3.38,0,0,0-.29.72,5.3,5.3,0,0,0-.13,1l-.32,4.43h6.4l-.08,5H300.8l-.48,7.3c-.07,1.26-.11,2.26-.11,3a11.7,11.7,0,0,0,.68,4.76,2.21,2.21,0,0,0,2.11,1.36,5.08,5.08,0,0,0,2.51-.65,11,11,0,0,0,2.55-2.14Z"/><path d="M329.83,95l0,0A6.55,6.55,0,0,0,328,92.63a3.7,3.7,0,0,0-2.25-.71,4.76,4.76,0,0,0-2.87.93,6.08,6.08,0,0,0-2,2.64,10.13,10.13,0,0,0-.73,4v13.42h-5.06V87.25h5.15v3.68a6.91,6.91,0,0,1,2.43-3.11,6,6,0,0,1,3.58-1.13,7.4,7.4,0,0,1,3.09.71,8,8,0,0,1,2.73,2.11Zm-.64,0a0,0,0,0,1,0,0,.53.53,0,0,1,.22.13l.26.17,0,.08-.45-.27Zm.64,0a1.27,1.27,0,0,1,.13.38s0,0,0,0a.52.52,0,0,1-.21-.11Z"/><path d="M339.61,112.05a11.61,11.61,0,0,1-3.57-4.86,18.13,18.13,0,0,1-1.31-7.08,16.92,16.92,0,0,1,1.33-6.81,12,12,0,0,1,3.61-4.84,7.88,7.88,0,0,1,9.95,0,12.1,12.1,0,0,1,3.61,4.84,16.92,16.92,0,0,1,1.33,6.81,18.13,18.13,0,0,1-1.31,7.08,11.61,11.61,0,0,1-3.57,4.86,8.15,8.15,0,0,1-10.07,0Zm7.62-4.31a7.1,7.1,0,0,0,1.69-3.06,16.11,16.11,0,0,0,.58-4.57,15.56,15.56,0,0,0-.58-4.54,6.6,6.6,0,0,0-1.69-2.92,3.7,3.7,0,0,0-2.59-1,3.52,3.52,0,0,0-2.49,1,6.73,6.73,0,0,0-1.68,2.93,15.25,15.25,0,0,0-.6,4.53,16.28,16.28,0,0,0,.58,4.6,7.08,7.08,0,0,0,1.64,3.05,3.52,3.52,0,0,0,2.55,1.07A3.56,3.56,0,0,0,347.23,107.74Z"/><path d="M358.44,87.25h5v2.63a8.3,8.3,0,0,1,2.64-2.35,6.76,6.76,0,0,1,3.31-.84,5.47,5.47,0,0,1,4.74,2.59q1.79,2.58,1.78,8.06v15.57h-5V97.4a8.25,8.25,0,0,0-.86-4.27,2.85,2.85,0,0,0-2.57-1.37,4,4,0,0,0-2,.52A3.81,3.81,0,0,0,364,93.85a5.47,5.47,0,0,0-.56,2.58v16.48h-5Z"/><path d="M395.32,88.94c1.65,1.68,2.48,4.47,2.48,8.35v15.62H393V110.6a8.62,8.62,0,0,1-2.88,2.19,8.44,8.44,0,0,1-3.63.79,6.18,6.18,0,0,1-4.95-2,8,8,0,0,1-1.7-5.36,7.72,7.72,0,0,1,1.41-4.67,8.62,8.62,0,0,1,4.05-2.94,17.86,17.86,0,0,1,6.33-1h1.53a9,9,0,0,0-1.33-4.79,4,4,0,0,0-3.38-1.44,5.81,5.81,0,0,0-3,.93,10.42,10.42,0,0,0-2.85,2.59l-2.55-4.06a14.2,14.2,0,0,1,4.22-3.32,9.87,9.87,0,0,1,4.43-1.13A8.81,8.81,0,0,1,395.32,88.94Zm-3.69,18.23a10.44,10.44,0,0,0,1.55-5.43h-1a11.68,11.68,0,0,0-5.6,1,3.47,3.47,0,0,0-1.76,3.22,2.64,2.64,0,0,0,.88,2.21,3.86,3.86,0,0,0,2.43.69A4.16,4.16,0,0,0,391.63,107.17Z"/><path d="M428.42,112.25a9.84,9.84,0,0,1-3.21-4.48,20.06,20.06,0,0,1-1.18-7.29,20.42,20.42,0,0,1,1.21-7.32,11.34,11.34,0,0,1,3.24-4.81,6.79,6.79,0,0,1,4.4-1.66,5.45,5.45,0,0,1,2.57.72,7.3,7.3,0,0,1,2.25,1.85V75.82h5.45v.62a1.56,1.56,0,0,0-.31.71,7.66,7.66,0,0,0,0,1.3l-.09,31.37a13.21,13.21,0,0,0,.09,1.65,5.51,5.51,0,0,0,.39,1.44h-4.86a4.43,4.43,0,0,1-.36-1.32c0-.41-.05-1-.05-1.77a5.69,5.69,0,0,1-2.07,2.93,5.06,5.06,0,0,1-2.92,1A7.44,7.44,0,0,1,428.42,112.25Zm9.32-12.46a16.46,16.46,0,0,0-.87-5.91,3.11,3.11,0,0,0-3.09-2.2,3.75,3.75,0,0,0-3.52,2.42,14.45,14.45,0,0,0-1.17,6.28,13.72,13.72,0,0,0,.69,4.72,6,6,0,0,0,1.72,2.68,3.34,3.34,0,0,0,2.14.83Q437.75,108.61,437.74,99.79Z"/><path d="M451.19,112.05a11.71,11.71,0,0,1-3.58-4.86,18.13,18.13,0,0,1-1.3-7.08,16.92,16.92,0,0,1,1.33-6.81,12,12,0,0,1,3.6-4.84,7.89,7.89,0,0,1,10,0,12.1,12.1,0,0,1,3.61,4.84,17.09,17.09,0,0,1,1.33,6.81,18.13,18.13,0,0,1-1.31,7.08,11.61,11.61,0,0,1-3.57,4.86,8.15,8.15,0,0,1-10.07,0Zm7.61-4.31a6.9,6.9,0,0,0,1.69-3.06,15.74,15.74,0,0,0,.59-4.57,15.2,15.2,0,0,0-.59-4.54,6.42,6.42,0,0,0-1.69-2.92,3.66,3.66,0,0,0-2.58-1,3.52,3.52,0,0,0-2.49,1,6.73,6.73,0,0,0-1.68,2.93,15.25,15.25,0,0,0-.6,4.53,16.28,16.28,0,0,0,.58,4.6,7.08,7.08,0,0,0,1.64,3.05,3.48,3.48,0,0,0,2.55,1.07A3.52,3.52,0,0,0,458.8,107.74Z"/><path d="M483.11,98.55l1.46,1a6,6,0,0,1,2.14,2.35,7.74,7.74,0,0,1,.67,3.43,8.56,8.56,0,0,1-4,7.3,7.65,7.65,0,0,1-4.18,1.18,13.38,13.38,0,0,1-5.47-1,12,12,0,0,1-4.27-3.31l2.09-4.51,0-.06,0,.06a9.75,9.75,0,0,0,3.3,3,9.19,9.19,0,0,0,4.32.93q3.59,0,3.58-2.9a2.67,2.67,0,0,0-.44-1.53,4,4,0,0,0-1.39-1.18,17.84,17.84,0,0,0-2.64-1.13,15.63,15.63,0,0,1-5.59-2.91,6.12,6.12,0,0,1-2-4.84,7.91,7.91,0,0,1,1-4,6.69,6.69,0,0,1,2.79-2.71,8.75,8.75,0,0,1,4.25-1,10,10,0,0,1,4.46,1,11.45,11.45,0,0,1,3.72,3L484.4,95l0,0s0,0,0,0a6.72,6.72,0,0,0-2.37-2.5,5.9,5.9,0,0,0-3.15-.88,4,4,0,0,0-2.22.56,1.73,1.73,0,0,0-.89,1.53,2.39,2.39,0,0,0,.49,1.52,4.31,4.31,0,0,0,1.48,1.14,27.94,27.94,0,0,0,2.84,1.2Zm-11.74,6.12v-.08s0,0,0,0l.24.14-.09.18Zm.8.24s0,0,0,0a.54.54,0,0,1-.23-.1,2.3,2.3,0,0,0-.27-.16l.09-.19.43.32ZM483.77,95s0,0,0,0a.49.49,0,0,1,.23.13l.23.19-.09.13-.41-.35Zm.76.43s0,0-.1,0l-.16-.12.11-.22A1.32,1.32,0,0,1,484.53,95.41Z"/><path d="M510,110.6a13,13,0,0,1-3.39,2.3,9.23,9.23,0,0,1-3.8.79,5.79,5.79,0,0,1-5-2.36q-1.73-2.37-1.72-8.14c0-1,0-2.06.13-3.24l.37-7.71h-4.51l.09-5h4.66l.28-6,5.5-1.13.08.62-.21.39a2.93,2.93,0,0,0-.29.72,5.3,5.3,0,0,0-.13,1l-.33,4.43h6.41l-.09,5h-6.4l-.48,7.3c-.08,1.26-.11,2.26-.11,3a11.74,11.74,0,0,0,.67,4.76,2.23,2.23,0,0,0,2.12,1.36,5,5,0,0,0,2.5-.65,11,11,0,0,0,2.55-2.14Z"/><path d="M532.28,101.05l0,.75H518.57a9.67,9.67,0,0,0,1.79,5.3,4.36,4.36,0,0,0,3.48,1.78,5.84,5.84,0,0,0,2.9-.82,6.73,6.73,0,0,0,2.4-2.29l2.77,3.41a10.94,10.94,0,0,1-4.06,3.73h3.84l-1.27,1.45c-.94,1.09-1.55,1.82-1.81,2.2a1.85,1.85,0,0,0-.41,1.07,1.07,1.07,0,0,0,.18.65.57.57,0,0,0,.5.24,1.78,1.78,0,0,0,1.07-.42,16.56,16.56,0,0,0,1.74-1.73v4.78a7.33,7.33,0,0,1-1.84,1.33,4.55,4.55,0,0,1-2,.44,4.05,4.05,0,0,1-3.07-1.09,4.11,4.11,0,0,1-1-2.94,5.83,5.83,0,0,1,.56-2.48,13.33,13.33,0,0,1,2.06-2.94,8.59,8.59,0,0,1-2.4.32,9.21,9.21,0,0,1-5.36-1.61,10.68,10.68,0,0,1-3.7-4.63,17.46,17.46,0,0,1-1.34-7.12,19.08,19.08,0,0,1,1.27-7.27,10.81,10.81,0,0,1,3.51-4.79,8.22,8.22,0,0,1,5.07-1.68A7.69,7.69,0,0,1,528,88.12a9.65,9.65,0,0,1,3.19,4.27,17.9,17.9,0,0,1,1.17,6.83C532.36,99.65,532.33,100.26,532.28,101.05Zm-4.91-3.76a8.48,8.48,0,0,0-.51-3,5.31,5.31,0,0,0-1.46-2.19,3.27,3.27,0,0,0-2.19-.82,3.64,3.64,0,0,0-3,1.63,8.44,8.44,0,0,0-1.44,4.36Z"/><path d="M536.7,87.25h4.82v3.17a6.91,6.91,0,0,1,2.3-2.85,5.41,5.41,0,0,1,3.06-.88,6.65,6.65,0,0,1,4.24,1.55,10.62,10.62,0,0,1,3.08,4.62,23.89,23.89,0,0,1,0,14.77,10.55,10.55,0,0,1-3.1,4.58,6.51,6.51,0,0,1-4.16,1.53,5.37,5.37,0,0,1-3-.87,6.13,6.13,0,0,1-2.19-2.75v12h-5Zm11.4,20.48a6.47,6.47,0,0,0,1.63-2.91,16.86,16.86,0,0,0,.61-4.93,14.32,14.32,0,0,0-1-5.9,3.36,3.36,0,0,0-3.21-2.23,3.48,3.48,0,0,0-3.34,2.35,15.73,15.73,0,0,0-1,6.32,13.59,13.59,0,0,0,1.09,6.2,3.22,3.22,0,0,0,5.27,1.1Z"/><path d="M559.28,87.25h5v2.63A8.3,8.3,0,0,1,567,87.53a6.76,6.76,0,0,1,3.31-.84A5.47,5.47,0,0,1,575,89.28q1.79,2.58,1.78,8.06v15.57h-5V97.4a8.14,8.14,0,0,0-.87-4.27,2.82,2.82,0,0,0-2.56-1.37,4,4,0,0,0-2,.52,3.81,3.81,0,0,0-1.48,1.57,5.47,5.47,0,0,0-.56,2.58v16.48h-5Z"/><path d="M596.16,88.94c1.65,1.68,2.48,4.47,2.48,8.35v15.62h-4.78V110.6a8.62,8.62,0,0,1-2.88,2.19,8.44,8.44,0,0,1-3.63.79,6.18,6.18,0,0,1-5-2,8,8,0,0,1-1.7-5.36,7.72,7.72,0,0,1,1.41-4.67,8.62,8.62,0,0,1,4-2.94,17.82,17.82,0,0,1,6.33-1H594a9,9,0,0,0-1.33-4.79,4,4,0,0,0-3.38-1.44,5.81,5.81,0,0,0-3,.93,10.42,10.42,0,0,0-2.85,2.59l-2.55-4.06a14.3,14.3,0,0,1,4.21-3.32,9.94,9.94,0,0,1,4.44-1.13A8.81,8.81,0,0,1,596.16,88.94Zm-3.69,18.23a10.44,10.44,0,0,0,1.55-5.43h-1a11.68,11.68,0,0,0-5.6,1,3.47,3.47,0,0,0-1.76,3.22,2.64,2.64,0,0,0,.88,2.21,3.86,3.86,0,0,0,2.43.69A4.16,4.16,0,0,0,592.47,107.17Z"/><path d="M327.82,142.25v23.83a17,17,0,0,1-1.09,6.58,8.08,8.08,0,0,1-2.94,3.77,8.07,8.07,0,0,1-8.18.15,11.54,11.54,0,0,1-3.33-3.12l2.75-4.4,0-.05,0,.08q1.83,3.33,4.47,3.33a2.67,2.67,0,0,0,2.41-1.33,8.43,8.43,0,0,0,.82-4.23V147.24h-7.24v-5Zm-12.88,26.57v-.11a0,0,0,0,1,0,0s0,0,.08.05l.12.11-.11.16Zm.72.27s0,.08,0,.08-.21-.11-.46-.32l.11-.19.39.38Zm7.65-31.79a3.34,3.34,0,0,1-1.13-1.33,4.23,4.23,0,0,1,.45-4.41,2.81,2.81,0,0,1,2.25-1,2.71,2.71,0,0,1,1.54.5,3.61,3.61,0,0,1,1.16,1.34,3.93,3.93,0,0,1,.44,1.81,3.8,3.8,0,0,1-.44,1.8,3.58,3.58,0,0,1-1.16,1.33,2.67,2.67,0,0,1-3.11,0Z"/><path d="M337.49,166.45q-1.78-2.56-1.78-8.15V142.25h4.92V158.3a8.88,8.88,0,0,0,.8,4.27,2.43,2.43,0,0,0,2.19,1.39,3.64,3.64,0,0,0,2.27-.8,5.36,5.36,0,0,0,1.61-2.26,8.63,8.63,0,0,0,.59-3.27V142.25h5v21.47c0,1.09,0,1.93.08,2.5a6.76,6.76,0,0,0,.38,1.69H348.7a4.8,4.8,0,0,1-.36-1.33,14.88,14.88,0,0,1-.08-1.65,7.43,7.43,0,0,1-2.48,3,5.56,5.56,0,0,1-3.14,1.11A5.89,5.89,0,0,1,337.49,166.45Z"/><path d="M357.68,164.07l10.81-16.61h-10v-5.21h16.65v3.84L364.5,162.73H374a4,4,0,0,0,1.06-.1,1.3,1.3,0,0,0,.6-.38h.5v5.66H357.68Zm7.84-26.77a3.34,3.34,0,0,1-1.13-1.33,4.21,4.21,0,0,1,.46-4.41,2.8,2.8,0,0,1,2.24-1,2.71,2.71,0,0,1,1.54.5,3.61,3.61,0,0,1,1.16,1.34,3.93,3.93,0,0,1,.44,1.81,3.8,3.8,0,0,1-.44,1.8,3.58,3.58,0,0,1-1.16,1.33,2.67,2.67,0,0,1-3.11,0Z"/><path d="M400.74,142.25h4.92l2.1,18.12,2.59-15.17h3.07l2.94,15.11q.61-4.91.84-9.17c.16-2.85.23-5.25.23-7.2v-1.69h4.73q-.59,6.36-1.44,13.26T419,167.91h-4.43l-2.72-14.28-2.57,14.28h-4.56Z"/><path d="M432.12,156.31l-1.7,2v9.61h-5V130.82h5.38v.62a1.68,1.68,0,0,0-.31.71,8.92,8.92,0,0,0,0,1.3V151.7l8-9.74a9.91,9.91,0,0,0,2.55.45h3.24l-8.52,10.12,9.42,15.32-6.1.27Z"/><path d="M463.72,150l0,0a6.68,6.68,0,0,0-1.79-2.38,3.69,3.69,0,0,0-2.24-.71,4.79,4.79,0,0,0-2.88.93,6.08,6.08,0,0,0-2,2.64,10.31,10.31,0,0,0-.73,4v13.42H449V142.25h5.14v3.68a6.91,6.91,0,0,1,2.43-3.11,6,6,0,0,1,3.58-1.13,7.36,7.36,0,0,1,3.09.71,8,8,0,0,1,2.73,2.11Zm-.63,0s0,0,0,0a.62.62,0,0,1,.23.13l.25.17,0,.08-.46-.27Zm.63,0a1,1,0,0,1,.13.38s0,0,0,0a.48.48,0,0,1-.22-.11Z"/><path d="M473.5,167.05a11.61,11.61,0,0,1-3.57-4.86,18.13,18.13,0,0,1-1.31-7.08A16.92,16.92,0,0,1,470,148.3a12.1,12.1,0,0,1,3.61-4.84,7.89,7.89,0,0,1,10,0,12,12,0,0,1,3.6,4.84,16.92,16.92,0,0,1,1.33,6.81,18.13,18.13,0,0,1-1.3,7.08,11.71,11.71,0,0,1-3.58,4.86,8.15,8.15,0,0,1-10.07,0Zm7.62-4.31a7,7,0,0,0,1.69-3.06,16.09,16.09,0,0,0,.59-4.57,15.54,15.54,0,0,0-.59-4.54,6.51,6.51,0,0,0-1.69-2.92,3.66,3.66,0,0,0-2.58-1,3.53,3.53,0,0,0-2.5,1,6.73,6.73,0,0,0-1.68,2.93,15.25,15.25,0,0,0-.6,4.53,16.65,16.65,0,0,0,.58,4.6,7.19,7.19,0,0,0,1.65,3,3.48,3.48,0,0,0,2.55,1.07A3.52,3.52,0,0,0,481.12,162.74Zm-3.69-23.25-1.92-1.37,3.57-9.07,3,2.68Z"/><path d="M510,165.6a13,13,0,0,1-3.39,2.3,9.23,9.23,0,0,1-3.8.79,5.79,5.79,0,0,1-5-2.36q-1.73-2.37-1.72-8.14c0-1,0-2.06.13-3.24l.37-7.71h-4.51l.09-5h4.66l.28-6,5.5-1.13.08.62-.21.39a2.93,2.93,0,0,0-.29.72,5.3,5.3,0,0,0-.13,1l-.33,4.43h6.41l-.09,5h-6.4l-.48,7.3c-.08,1.26-.11,2.26-.11,3a11.74,11.74,0,0,0,.67,4.76,2.23,2.23,0,0,0,2.12,1.36,5,5,0,0,0,2.5-.65,11,11,0,0,0,2.55-2.14Z"/><path d="M525.61,163.51l1.36-.81a7.9,7.9,0,0,0,2.54-2.6l2.9,4.13a11.11,11.11,0,0,1-3.78,3.45,9.4,9.4,0,0,1-4.44,1.11,9.06,9.06,0,0,1-5.45-1.74,11.47,11.47,0,0,1-3.73-4.82,17,17,0,0,1-1.34-6.91A17.19,17.19,0,0,1,515,148.4a11.76,11.76,0,0,1,3.74-4.91,9,9,0,0,1,5.49-1.8,9.48,9.48,0,0,1,4.81,1.29,9.06,9.06,0,0,1,3.53,3.65l-2.79,4,0,.06s0,0,0,0a7.29,7.29,0,0,0-2.22-2.91,5.41,5.41,0,0,0-3.29-1,4.14,4.14,0,0,0-2.78,1.08,7.13,7.13,0,0,0-2,3,13,13,0,0,0-.73,4.51,12.06,12.06,0,0,0,.69,4.27,6.38,6.38,0,0,0,1.93,2.81,4.37,4.37,0,0,0,2.83,1Zm3.55-12.91c0-.06,0-.08.05-.08s.23.12.43.37l-.09.14-.39-.4Zm.74.48s0,0,0,0-.12-.07-.24-.22l.13-.18A1.74,1.74,0,0,1,529.9,151.08Z"/><path d="M541,167.18a10.59,10.59,0,0,1-3.69-4.63,17.3,17.3,0,0,1-1.34-7.12,19.28,19.28,0,0,1,1.26-7.27,10.81,10.81,0,0,1,3.51-4.79,8.27,8.27,0,0,1,5.08-1.68,7.64,7.64,0,0,1,4.52,1.43,9.58,9.58,0,0,1,3.19,4.27,17.7,17.7,0,0,1,1.18,6.83q0,.65-.09,1.83l0,.75H540.89a9.67,9.67,0,0,0,1.78,5.3,4.39,4.39,0,0,0,3.49,1.78,5.87,5.87,0,0,0,2.9-.82,6.73,6.73,0,0,0,2.4-2.29l2.76,3.41q-3.15,4.62-7.89,4.61A9.23,9.23,0,0,1,541,167.18Zm8.72-14.89a8.48,8.48,0,0,0-.51-3,5.31,5.31,0,0,0-1.46-2.19,3.29,3.29,0,0,0-2.19-.82,3.64,3.64,0,0,0-3,1.63,8.44,8.44,0,0,0-1.44,4.36Z"/></g></g></svg>