<svg id="Warstwa_1" data-name="Warstwa 1" xmlns="http://www.w3.org/2000/svg" viewBox="0 0 329.85 321.16"><title>speaker</title><path d="M1375.62,2478.6l-30.19-17.43,36.89-63.9-10.93-6.84L1239,2366l29.36-49.51-12.35-21.3,10.77-19,15.54-3.33,11,0.33,26.92-44.2,21.27-1.93,81.29,104.82,74.88,42.85-32.63,57.93-21,.29-17.33-9.24-31.44,55.45Zm68.94-47.48,19.43-.27,31.21-55.41-73.45-42-0.16-.09L1340.7,2229l-19.34,1.76-27,44.32-11.89-.36-14.51,3.11-9.84,17.38,12.36,21.32-28.57,48.16,130,24,12.91,8L1348,2460.49l28.18,16.27,18.14,0.53,31.78-56Z" transform="translate(-1167.86 -2158.34)" fill="#47FF3F"/><path d="M1277.27,2241.52a0.9,0.9,0,0,1,1.73-.51,0.9,0.9,0,0,1-1.73.51m4.89-1.39a0.84,0.84,0,0,1,.62-1.08,0.86,0.86,0,1,1-.62,1.08" transform="translate(-1167.86 -2158.34)" fill="#47FF3F"/><path d="M1275.23,2233.78l1-.29,1.15,4h0l0.46-.91c1.29-2.42,2.29-4,4-4.48a2.64,2.64,0,0,1,3.4,2,4.11,4.11,0,0,1-.19,2.81l-1-.14a3.2,3.2,0,0,0,.22-2.13,1.67,1.67,0,0,0-2.27-1.29c-1.36.4-2.22,1.77-3.76,4.69l-0.66,1.22-0.75.21Z" transform="translate(-1167.86 -2158.34)" fill="#47FF3F"/><path d="M1280.11,2225.42l-1,.34v0a2.32,2.32,0,0,1,1.76,1.76c0.44,1.54-.43,3.38-2.7,4a3.12,3.12,0,0,1-4.08-1.92,2.49,2.49,0,0,1,.52-2.45v0l-0.75.21c-1.69.48-2.08,1.58-1.73,2.83a3.94,3.94,0,0,0,1.08,1.82l-0.84.57a4.5,4.5,0,0,1-1.19-2.07,3.7,3.7,0,0,1,.11-2.67c0.4-.82,1.25-1.39,2.79-1.83l3.89-1.11c0.82-.23,1.35-0.41,1.83-0.58Zm-3.8,1.29a2.18,2.18,0,0,0-.62.28,1.85,1.85,0,0,0-.77,2c0.37,1.32,1.66,1.67,3,1.3,1.55-.44,2.3-1.55,2-2.72a1.86,1.86,0,0,0-2.35-1.25Z" transform="translate(-1167.86 -2158.34)" fill="#47FF3F"/><polygon points="108.02 65.1 102.88 59.62 103.84 59.34 108.09 63.99 108.12 63.98 109.3 57.79 110.25 57.52 108.77 64.89 108.02 65.1" fill="#47FF3F"/><polygon points="101.81 57.95 110.75 51.22 111.02 52.16 102.08 58.88 101.81 57.95" fill="#47FF3F"/><polygon points="103.26 45.45 108.39 50.94 107.43 51.21 103.16 46.52 103.14 46.53 101.97 52.76 101.02 53.03 102.49 45.67 103.26 45.45" fill="#47FF3F"/><path d="M1274.91,2197.79c0.52,1.83-.77,3.6-3.79,4.46s-5,.1-5.47-1.66c-0.57-2,.8-3.61,3.86-4.48,2.87-.81,4.87-0.21,5.41,1.68m-0.92.34c-0.36-1.26-2-1.41-4.19-.78s-3.58,1.66-3.23,2.91,1.85,1.45,4.19.79,3.53-1.84,3.23-2.91" transform="translate(-1167.86 -2158.34)" fill="#47FF3F"/><polygon points="96.1 37.84 105.04 31.11 105.31 32.05 96.37 38.77 96.1 37.84" fill="#47FF3F"/><polygon points="94.75 33.08 103.69 26.34 103.96 27.29 95.01 34.01 94.75 33.08" fill="#47FF3F"/><polygon points="93.91 28.02 92.44 22.83 93.45 22.54 94.58 26.53 102.91 24.16 103.25 25.37 93.91 28.02" fill="#47FF3F"/><path d="M1259.92,2179.85l-0.34-1.19,4-1.15a1.71,1.71,0,0,0,.57-0.27,1.73,1.73,0,0,0,.79-1.86c-0.26-.93-1.17-1.18-2.24-0.88l-4,1.14-0.34-1.19,4.14-1.18a2.09,2.09,0,0,0,.58-0.27,1.64,1.64,0,0,0,.7-1.76c-0.28-1-1.19-1.23-2.48-.87l-3.8,1.08-0.34-1.19,3.95-1.12c2.33-.66,3.28.49,3.54,1.38a2.39,2.39,0,0,1,0,1.62,2.89,2.89,0,0,1-.66,1v0a2.06,2.06,0,0,1,1.88,1.52,2.4,2.4,0,0,1-.63,2.46v0l1.1-.25,0.3,1.07c-0.57.12-1.14,0.26-1.83,0.46Z" transform="translate(-1167.86 -2158.34)" fill="#47FF3F"/><path d="M1257.1,2168.7a4,4,0,0,1-1-1.75c-0.45-1.59.12-2.74,1.3-3.08,1-.28,1.75.15,2.52,1.18,0.58,0.78.95,1.11,1.5,1a1,1,0,0,0,.6-1.38,2.71,2.71,0,0,0-.78-1.26l0.8-.56a3.46,3.46,0,0,1,.89,1.53,2.15,2.15,0,0,1-1.31,2.87c-0.8.23-1.63-.15-2.4-1.23-0.59-.81-1-1.06-1.59-0.9a1.13,1.13,0,0,0-.63,1.59,3.34,3.34,0,0,0,.94,1.47Z" transform="translate(-1167.86 -2158.34)" fill="#47FF3F"/><polygon points="96.95 2.54 96.19 2.75 95.73 1.16 86.2 3.87 86.65 5.46 85.89 5.68 85.17 3.14 96.23 0 96.95 2.54" fill="#47FF3F"/><path d="M1257.79,2263.47a18.3,18.3,0,0,1,.47-3.73l1.16,0.8a20.77,20.77,0,0,0-.9,3.43Zm2.66-6.08a0.9,0.9,0,0,1,.87-1.58,0.9,0.9,0,0,1-.87,1.58" transform="translate(-1167.86 -2158.34)" fill="#47FF3F"/><path d="M1256.05,2260.59l-1.11-.61,2-3.67a1.86,1.86,0,0,0-.66-2.51c-1-.57-1.86,0-2.4,1l-1.93,3.52-1.11-.61,2-3.65c1.15-2.09,2.74-1.88,3.58-1.41a2.56,2.56,0,0,1,1.39,2.26h0l0.62-1,1,0.54c-0.31.48-.61,1-1,1.63Z" transform="translate(-1167.86 -2158.34)" fill="#47FF3F"/><path d="M1241.63,2252.67l-1.07-.59,5.2-8.21,1.4,0.77-0.74,4.95c-0.21,1.28-.42,2.38-0.68,3.36l0,0c0.7-.77,1.5-1.54,2.43-2.39l3.71-3.32,1.4,0.77-4.08,8.83-1-.58,1.78-3.77c0.62-1.32,1.34-2.78,1.9-3.85h0c-0.79.88-1.74,1.79-2.8,2.77l-3.6,3.29-0.83-.46,0.76-4.95c0.22-1.41.44-2.66,0.7-3.82l0,0c-0.57,1.07-1.43,2.45-2.14,3.6Z" transform="translate(-1167.86 -2158.34)" fill="#47FF3F"/><path d="M1241.27,2248.17a1,1,0,0,0-1.54.37,8.11,8.11,0,0,0-.46,1.08,8.28,8.28,0,0,1-.47,1.09,1.82,1.82,0,0,1-2.78.73l-0.27-.15,0.38-.69,0.23,0.13a1.05,1.05,0,0,0,1.6-.55,6.5,6.5,0,0,0,.41-1,6.53,6.53,0,0,1,.44-1,1.38,1.38,0,0,1,1.66-.88v0a1.38,1.38,0,0,1-.16-1.86,6.85,6.85,0,0,1,.62-0.91,6.28,6.28,0,0,0,.58-0.85,1,1,0,0,0-.4-1.63l-0.23-.12,0.38-.69,0.26,0.15a1.8,1.8,0,0,1,.92,2.66,8.2,8.2,0,0,1-.68,1,8.79,8.79,0,0,0-.68,1,1,1,0,0,0,.51,1.5Z" transform="translate(-1167.86 -2158.34)" fill="#47FF3F"/><path d="M1235.32,2249.2l-1.09-.6,2-3.68a1.89,1.89,0,0,0-.56-2.46c-0.85-.46-1.66,0-2.2,1l-2,3.66-1.08-.59,2.07-3.77a2.13,2.13,0,0,0,.22-0.6,1.64,1.64,0,0,0-.76-1.73c-0.9-.49-1.71,0-2.36,1.15l-1.9,3.46-1.09-.6,2-3.6c1.16-2.12,2.65-2,3.46-1.55a2.38,2.38,0,0,1,1.11,1.17,2.86,2.86,0,0,1,.24,1.17h0a2.06,2.06,0,0,1,2.4-.28,2.4,2.4,0,0,1,1.3,2.18l0,0,0.59-1,1,0.53c-0.32.48-.61,1-1,1.63Z" transform="translate(-1167.86 -2158.34)" fill="#47FF3F"/><path d="M1228.87,2237.71l-3.71,1.85,0.46,4.31-1.22-.67-0.13-1.86c0-.49-0.06-0.94-0.06-1.41h0c-0.42.25-.81,0.48-1.24,0.7l-1.65.88-1.26-.69,3.88-2-0.46-4.1,1.2,0.66,0.15,1.77c0,0.44,0,.86.05,1.34l0,0c0.39-.23.75-0.44,1.17-0.66l1.59-.83Z" transform="translate(-1167.86 -2158.34)" fill="#47FF3F"/><path d="M1219.56,2240a4.75,4.75,0,0,1-2.44-.62c-2-1.08-2.36-2.79-1.64-4.1a2.44,2.44,0,0,1,3-1.1v0a2.32,2.32,0,0,1-.45-2.76c0.55-1,1.8-1.55,3.42-.67a4.45,4.45,0,0,1,1.8,1.81l-0.73.65a3.43,3.43,0,0,0-1.34-1.44,1.41,1.41,0,0,0-2.12.45c-0.53,1,.26,1.95,1.07,2.39l0.62,0.34-0.46.83-0.62-.34c-1.07-.59-2.38-0.67-3,0.48a1.83,1.83,0,0,0,1,2.61,4.24,4.24,0,0,0,2.1.48Z" transform="translate(-1167.86 -2158.34)" fill="#47FF3F"/><path d="M1211.45,2236.09l1-2.65-1.31-.72-1,2.65-0.76-.42,1-2.65-1.2-.66,0.41-.74,1.08,0.59,0.78-2-1.15-.63,0.41-.74,1,0.57,1-2.58,0.74,0.41-1,2.59,1.31,0.72,1-2.58,0.73,0.4-1,2.59,1.2,0.66-0.41.74-1.08-.6-0.76,2,1.15,0.63-0.41.74-1-.57-1,2.65Zm1.32-3.46,0.77-2-1.31-.72-0.76,2Z" transform="translate(-1167.86 -2158.34)" fill="#47FF3F"/><polygon points="33.8 69.27 39.6 64.89 40.39 65.32 39.81 72.57 38.92 72.09 39.5 66.03 39.48 66.02 34.68 69.76 33.8 69.27" fill="#47FF3F"/><path d="M1198.89,2218.36a6,6,0,0,1,.77.51,5.09,5.09,0,0,1,2,2.65,5.89,5.89,0,0,1-.64,4.46c-1.17,2.13-3.07,2.86-4.82,1.9a3.13,3.13,0,0,1-1.14-4.39,2.85,2.85,0,0,1,5.39.74l0,0a3.8,3.8,0,0,0-1.25-4.48,4.52,4.52,0,0,0-.8-0.51Zm-2.26,8.66c1.16,0.64,2.33,0,3.09-1.36a1.08,1.08,0,0,0,.14-0.56,2.08,2.08,0,0,0-1-1.88,1.9,1.9,0,0,0-2.72,1c-0.64,1.17-.44,2.32.52,2.85" transform="translate(-1167.86 -2158.34)" fill="#47FF3F"/><path d="M1190.78,2224.92a0.9,0.9,0,0,1,.85-1.58,0.85,0.85,0,0,1,.32,1.21,0.84,0.84,0,0,1-1.17.37m0.88-2.83,0.19-.32a2.84,2.84,0,0,0,.3-2.25,3.9,3.9,0,0,1,.12-2.79,2.13,2.13,0,0,1,3.13-.7,3.77,3.77,0,0,1,1.53,1.5l-0.74.63a2.56,2.56,0,0,0-1.06-1.09,1.2,1.2,0,0,0-1.8.43,3.17,3.17,0,0,0-.07,2.21,3.3,3.3,0,0,1-.42,2.61l-0.21.31Z" transform="translate(-1167.86 -2158.34)" fill="#47FF3F"/><path d="M1187.06,2222.7l-1.09-.6,2-3.68a1.89,1.89,0,0,0-.56-2.46c-0.85-.46-1.66,0-2.2,1l-2,3.66-1.08-.59,2.07-3.77a2.13,2.13,0,0,0,.22-0.6,1.64,1.64,0,0,0-.76-1.73c-0.9-.49-1.71,0-2.36,1.15l-1.9,3.46-1.09-.6,2-3.6c1.16-2.12,2.65-2,3.46-1.55a2.38,2.38,0,0,1,1.11,1.17,2.86,2.86,0,0,1,.24,1.17h0a2.06,2.06,0,0,1,2.4-.28,2.4,2.4,0,0,1,1.3,2.18l0,0,0.59-1,1,0.53c-0.32.48-.61,1-1,1.63Z" transform="translate(-1167.86 -2158.34)" fill="#47FF3F"/><path d="M1176.52,2216.91l-1.11-.61,2-3.67a1.86,1.86,0,0,0-.66-2.51c-1-.57-1.86,0-2.4,1l-1.93,3.52-1.11-.61,2-3.65c1.15-2.09,2.74-1.88,3.58-1.41a2.56,2.56,0,0,1,1.39,2.26h0l0.62-1,1,0.54c-0.31.48-.61,1-1,1.63Z" transform="translate(-1167.86 -2158.34)" fill="#47FF3F"/><path d="M1246.58,2294.5a0.91,0.91,0,1,1,.54-1.12,0.84,0.84,0,0,1-.54,1.12" transform="translate(-1167.86 -2158.34)" fill="#47FF3F"/><path d="M1240,2285.68l1.2-.37,3,9.76-1.2.37-0.78-2.5-0.83-.49-1.3,3.91-1.47.46,1.71-4.83-3.43-1.94,1.46-.45,2.67,1.69c0.27,0.17.59,0.39,0.83,0.57h0Z" transform="translate(-1167.86 -2158.34)" fill="#47FF3F"/><path d="M1238.13,2296.62a4,4,0,0,1-1.73,1c-1.58.49-2.75,0-3.11-1.22-0.31-1,.1-1.75,1.12-2.55,0.76-.6,1.09-1,0.91-1.52a1,1,0,0,0-1.4-.56,2.7,2.7,0,0,0-1.24.81l-0.58-.79a3.48,3.48,0,0,1,1.51-.92,2.15,2.15,0,0,1,2.91,1.24c0.25,0.8-.11,1.63-1.17,2.43-0.79.61-1,1-.86,1.61a1.12,1.12,0,0,0,1.6.59,3.32,3.32,0,0,0,1.44-1Z" transform="translate(-1167.86 -2158.34)" fill="#47FF3F"/><path d="M1228.66,2289.74a0.78,0.78,0,0,1,1,.51,0.76,0.76,0,0,1-.51,1,0.78,0.78,0,0,1-.5-1.49m6.06,11.44a3.22,3.22,0,0,1-2.3-.11,3.83,3.83,0,0,1-1.65-2.49l-1.88-6,1.21-.38,1.74,5.57c0.5,1.59.78,2.08,1.23,2.36a2,2,0,0,0,1.48.1Z" transform="translate(-1167.86 -2158.34)" fill="#47FF3F"/><path d="M1226.16,2297.83l-0.1-.36a2.84,2.84,0,0,0-1.41-1.78,3.89,3.89,0,0,1-1.93-2,2.13,2.13,0,0,1,1.66-2.74,3.79,3.79,0,0,1,2.14-.06l-0.06,1a2.56,2.56,0,0,0-1.52,0,1.2,1.2,0,0,0-.94,1.59,3.16,3.16,0,0,0,1.55,1.58,3.31,3.31,0,0,1,1.59,2.11l0.08,0.37Zm1.43,2.6a0.9,0.9,0,0,1-.55-1.71,0.85,0.85,0,0,1,1.1.61,0.84,0.84,0,0,1-.55,1.1" transform="translate(-1167.86 -2158.34)" fill="#47FF3F"/><polygon points="55.8 143.75 48.84 134.99 49.78 134.69 56.72 143.47 55.8 143.75" fill="#47FF3F"/><path d="M1210.59,2305.57l-1.17.36-2.31-9.45,1.53-.48,3,4c0.78,1,1.43,2,1.95,2.82h0c-0.07-1-.07-2.15,0-3.41l0.18-5,1.53-.48,3.54,9.06-1.14.36-1.49-3.9c-0.52-1.36-1.07-2.9-1.46-4h0c0.08,1.18.08,2.49,0,3.94l-0.12,4.88-0.91.28-3-4c-0.87-1.13-1.61-2.17-2.27-3.15h0c0.38,1.15.78,2.73,1.11,4Z" transform="translate(-1167.86 -2158.34)" fill="#47FF3F"/><path d="M1198.56,2303.41c1.18-.37,2.47.33,3,2.13s-0.14,3-1.25,3.33-2.42-.27-3-2.15c-0.53-1.71,0-2.92,1.23-3.31m6.94,3.92-8.13-7.6,0.77-.24,8.13,7.6Zm-6.67-3.2c-0.84.26-.87,1.27-0.53,2.35s1,1.92,1.79,1.68,0.91-1.24.54-2.37-1-1.89-1.8-1.66m4.41-6.23c1.18-.37,2.47.33,3,2.12s-0.14,3-1.25,3.35-2.44-.27-3-2.15c-0.53-1.71,0-2.93,1.24-3.32m0.27,0.72c-0.84.26-.87,1.27-0.53,2.35s1,1.92,1.79,1.67,0.91-1.23.53-2.37-1-1.9-1.78-1.66" transform="translate(-1167.86 -2158.34)" fill="#47FF3F"/><polygon points="21.7 150.94 22.57 143.71 23.42 143.45 28.24 148.9 27.28 149.2 23.32 144.58 23.29 144.59 22.66 150.64 21.7 150.94" fill="#47FF3F"/><path d="M1183.22,2314.11l-0.31-1,4-1.25v0l-0.92-.44c-2.45-1.23-4.06-2.19-4.58-3.84a2.63,2.63,0,0,1,1.93-3.45,4.11,4.11,0,0,1,2.81.12l-0.12,1a3.18,3.18,0,0,0-2.13-.16,1.67,1.67,0,0,0-1.23,2.3c0.44,1.34,1.83,2.18,4.79,3.64l1.24,0.63,0.23,0.74Z" transform="translate(-1167.86 -2158.34)" fill="#47FF3F"/><path d="M1177.24,2305.26l1.19-.37,3,9.76-1.2.37-0.78-2.5-0.83-.49-1.3,3.91-1.47.46,1.71-4.83-3.42-1.94,1.46-.45,2.67,1.69c0.27,0.17.59,0.39,0.83,0.57h0Z" transform="translate(-1167.86 -2158.34)" fill="#47FF3F"/><polygon points="0 157.71 0.87 150.49 1.72 150.22 6.54 155.67 5.58 155.97 1.62 151.35 1.59 151.36 0.96 157.41 0 157.71" fill="#47FF3F"/><polygon points="253.01 177.03 224.27 227.21 92.26 203.82 173.09 69.2 254.14 173.61 253.01 177.03" fill="#4a31ff"/><path d="M1259.29,2364.18L1341,2226.41,1424.78,2332l0.39,0.49-32.58,56.22Zm81.94-134.52-79,133.19,129.41,23.85,31.3-54Z" transform="translate(-1167.86 -2158.34)" fill="#47FF3F"/><path d="M1390.52,2388.48l32.74-56.7,74.45,43-32.74,56.7Zm33.41-54.18L1393,2387.8l71.25,41.14,30.89-53.51Z" transform="translate(-1167.86 -2158.34)" fill="#47FF3F"/><path d="M1364.36,2461.72l38.83-67.25,30.78,17.77-38.83,67.25Zm39.51-64.73-37,64.06,27.59,15.93,37-64.05Z" transform="translate(-1167.86 -2158.34)" fill="#47FF3F"/><path d="M1445.3,2419.61l11.34-19.65,19.65,11.34L1464.95,2431Zm12-17.12-9.5,16.45,16.45,9.5,9.5-16.45Z" transform="translate(-1167.86 -2158.34)" fill="#47FF3F"/><path d="M1456.07,2401.46l11.34-19.65,19.65,11.34-11.34,19.65Zm12-17.12-9.5,16.45,16.45,9.5,9.5-16.45Z" transform="translate(-1167.86 -2158.34)" fill="#47FF3F"/><path d="M1466.45,2383.22l11.34-19.65,19.65,11.34-11.34,19.65Zm12-17.12-9.5,16.45,16.45,9.5,9.5-16.45Z" transform="translate(-1167.86 -2158.34)" fill="#47FF3F"/><path d="M1448.17,2373.43l11.34-19.65,19.65,11.34-11.34,19.65Zm12-17.12-9.5,16.45,16.45,9.5,9.5-16.45Z" transform="translate(-1167.86 -2158.34)" fill="#47FF3F"/><path d="M1437.69,2391.46l11.34-19.64,19.65,11.34-11.34,19.65Zm12-17.12-9.5,16.45,16.45,9.5,9.5-16.45Z" transform="translate(-1167.86 -2158.34)" fill="#47FF3F"/><path d="M1427.22,2409.23l11.34-19.65,19.65,11.34-11.34,19.65Zm12-17.12-9.5,16.45,16.45,9.5,9.5-16.45Z" transform="translate(-1167.86 -2158.34)" fill="#47FF3F"/><path d="M1429.71,2363l11.34-19.64,19.65,11.34-11.34,19.65Zm12-17.12-9.5,16.45,16.45,9.5,9.5-16.45Z" transform="translate(-1167.86 -2158.34)" fill="#47FF3F"/><path d="M1419.24,2381.07l11.34-19.64,19.65,11.34-11.34,19.65Zm12-17.12-9.5,16.45,16.45,9.5,9.5-16.45Z" transform="translate(-1167.86 -2158.34)" fill="#47FF3F"/><path d="M1390.86,2388.71l11.34-19.65,19.65,11.34-11.34,19.65Zm12-17.12-9.5,16.45,16.45,9.5,9.5-16.45Z" transform="translate(-1167.86 -2158.34)" fill="#47FF3F"/><path d="M1401,2370.81l11.34-19.64,19.65,11.34-11.34,19.65Zm12-17.12-9.5,16.45,16.45,9.5,9.5-16.45Z" transform="translate(-1167.86 -2158.34)" fill="#47FF3F"/><path d="M1411.72,2352.14l11.34-19.65,19.65,11.34-11.34,19.65Zm12-17.12-9.5,16.45,16.45,9.5,9.5-16.45Z" transform="translate(-1167.86 -2158.34)" fill="#47FF3F"/><polygon points="328.07 217.17 300.5 224.36 318.01 234.28 328.07 217.17" fill="#47FF3F"/><polygon points="309.78 207.64 282.21 214.83 299.72 224.75 309.78 207.64" fill="#47FF3F"/><polygon points="290.98 196.82 263.41 204.01 280.92 213.93 290.98 196.82" fill="#47FF3F"/><polygon points="272.95 186.26 245.38 193.45 262.89 203.37 272.95 186.26" fill="#47FF3F"/><polygon points="262.39 204.68 234.82 211.87 252.33 221.79 262.39 204.68" fill="#47FF3F"/><polygon points="280.68 215.63 253.11 222.82 270.62 232.73 280.68 215.63" fill="#47FF3F"/><polygon points="299.35 225.67 271.78 232.86 289.29 242.78 299.35 225.67" fill="#47FF3F"/><polygon points="317.51 235.46 289.94 242.65 307.45 252.56 317.51 235.46" fill="#47FF3F"/><polygon points="306.43 253.62 278.86 260.81 296.38 270.72 306.43 253.62" fill="#47FF3F"/><polygon points="288.27 243.31 260.7 250.5 278.22 260.42 288.27 243.31" fill="#47FF3F"/><polygon points="270.24 233.01 242.68 240.2 260.19 250.12 270.24 233.01" fill="#47FF3F"/><polygon points="251.83 222.58 224.26 229.77 241.77 239.69 251.83 222.58" fill="#47FF3F"/><polygon points="119.39 157.6 105.51 133.66 116.1 114.95 144.56 115.64 144.53 116.64 116.67 115.96 106.66 133.65 120.25 157.1 119.39 157.6" fill="#47FF3F"/><path d="M1257.45,2364.18l81.72-137.77L1422.93,2332l0.39,0.49-32.58,56.22Zm81.94-134.52-79,133.19,129.41,23.85,31.3-54Z" transform="translate(-1167.86 -2158.34)" fill="#47FF3F"/><polygon points="117.17 157.81 118.77 156.89 105.3 133.65 115.07 116.39 142.68 117.07 142.72 115.22 114.01 114.52 103.17 133.66 117.17 157.81" fill="#47FF3F"/></svg>
