<svg xmlns="http://www.w3.org/2000/svg" xmlns:xlink="http://www.w3.org/1999/xlink" width="100" height="2500" viewBox="0 0 100 2500"><svg viewBox="0 0 100 100" width="100" height="100" id="uEA01-arrow-right" y="0"><path d="M98.3 51.2H1.5c-.9 0-1.4-.6-1.4-1.4s.6-1.4 1.4-1.4h96.8c.9 0 1.4.6 1.4 1.4s-.5 1.4-1.4 1.4"></path><path d="M59.9 86.7c-.3 0-.9 0-1.1-.3-.6-.6-.6-1.4 0-2L96 50 58.8 15.6c-.6-.6-.6-1.4 0-2 .6-.6 1.4-.6 2.3 0l38.4 35.5c.3.3.6.6.6.9s-.3.9-.6.9L61.1 86.4c-.3.3-.6.6-1.2.3"></path></svg><svg viewBox="0 0 100 100" width="100" height="100" id="uEA02-calendar" y="100"><title>calendar</title><path d="M91.5 9.7H78V3.5c.2-1.7-1-3.3-2.7-3.5-1.7-.2-3.3 1-3.5 2.7v7H53.1V3.5c.2-1.7-1-3.3-2.7-3.5-1.7-.2-3.3 1-3.5 2.7v7H28.2V3.5c0-1.7-1.4-3.1-3.1-3.1C23.4.4 22 1.8 22 3.5v6.2H8.5C3.9 9.7.2 13.4.2 18v73.6c0 4.6 3.7 8.3 8.3 8.3h83c4.6 0 8.3-3.7 8.3-8.3V18c0-4.6-3.7-8.3-8.3-8.3m2.1 81.9c0 1.2-.9 2.1-2.1 2.1h-83c-1.1 0-2-1-2-2.1V18c0-1.1.9-2.1 2-2.1H22v6.2c0 1.7 1.4 3.1 3.1 3.1 1.7 0 3.1-1.4 3.1-3.1v-6.2h18.7v6.2c.2 1.7 1.8 2.9 3.5 2.7 1.4-.2 2.5-1.3 2.7-2.7v-6.2h18.7v6.2c.2 1.7 1.8 2.9 3.5 2.7 1.4-.2 2.5-1.3 2.7-2.7v-6.2h13.5c1.1 0 2.1.9 2.1 2V91.6z"></path><path d="M22 37.7h12.4V47H22zM22 53.3h12.4v9.3H22zM22 68.8h12.4v9.3H22zM43.8 68.8h12.4v9.3H43.8zM43.8 53.3h12.4v9.3H43.8zM43.8 37.7h12.4V47H43.8zM65.5 68.8h12.4v9.3H65.5zM65.5 53.3h12.4v9.3H65.5zM65.5 37.7h12.4V47H65.5z"></path></svg><svg viewBox="0 0 100 100" width="100" height="100" id="uEA03-car" y="200"><title>car</title><path d="M93.8 38.2l-.2-.2-3.6-3.5c2.9-.7 6-3.1 6-5.6 0-2.9-4-3.9-7.5-3.9s-4 2.5-4.1 4.2l-9-8.7c-2.2-2-5-3.1-7.9-3.2H32.4c-2.9.1-5.7 1.3-7.9 3.2l-9 8.7c0-1.8-.5-4.2-4.1-4.2s-7.5 1-7.5 3.9c0 2.5 3.1 4.9 6 5.6l-3.6 3.4-.2.2c-3.7 3.5-6 8.3-6.2 13.5v12.8c0 3 1.2 5.9 3.2 8v5c0 3 2.4 5.3 5.3 5.3H15c3 0 5.3-2.4 5.3-5.3v-1.3h58.8v1.3c0 3 2.4 5.3 5.3 5.3h6.9c3 0 5.3-2.4 5.3-5.3v-5c2.1-2.2 3.2-5 3.2-8V51.6c0-5.1-2.3-9.9-6-13.4m-66-13.8c1.3-1 2.9-1.6 4.6-1.8h35.2c1.7.2 3.3.8 4.6 1.8l11.9 11.5H16l11.8-11.5zM4 49.7c0-3.1 2.4-5.7 5.5-5.8 3 0 13 5.8 13 9s-10 2.4-13 2.4S4 52.8 4 49.7m16.6 20.8h-8.3c-1.4-.4-2.6-1-3.8-1.8-.4-.3-.7-.7-1-1.1-.3-.2-.5-.6-.7-1-.4-1.5-.1-3 .8-4.2h10.7l7.1 8.1h-4.8zm44.7 0H34.7c-3.2 0-5.8-2.6-5.8-5.8H71c.1 3.2-2.5 5.8-5.7 5.8m1.3-9.7H33.4c-3.5 0-6.3-4.3-6.3-9.5h45.8c0 5.3-2.8 9.5-6.3 9.5m26.5 5.8c-.1.4-.3.7-.6 1.1-.3.4-.6.8-1 1.1-1.2.8-2.4 1.4-3.8 1.8H74.6l7.1-8.1h10.7c.9 1 1.2 2.6.7 4.1m-2.6-11.3c-3 0-13 .7-13-2.4s10-9 13-9c3.2.2 5.6 2.9 5.4 6-.2 2.9-2.5 5.2-5.4 5.4"></path></svg><svg viewBox="0 0 100 100" width="100" height="100" id="uEA04-close" y="300"><title>close</title><path d="M97.3 94.5L4.5 1.1 0 5.5l92.8 93.4"></path><path d="M7.2 98.9L100 5.5l-4.5-4.4L2.7 94.5"></path></svg><svg id="uEA05-cv" viewBox="0 0 100 100" width="100" height="100" y="400"><style>.st0{fill:#1e1e1e}</style><title>cv</title><path class="st0" d="M88.8 100H11.2V.2l63-.2 14.6 14.6V100zm-74.2-3.5h70.7V15.9H72.8V3.2l-58.2.2V96.5z"></path><path class="st0" d="M43.3 55.8c-.1.3-.3.7-.6.9-.2.3-.5.5-.8.6-.4.2-.8.2-1.2.2-.6 0-1.1-.1-1.6-.4-.4-.3-.8-.7-1-1.1-.3-.5-.5-1-.6-1.6-.1-.6-.2-1.2-.2-1.8 0-.6.1-1.2.2-1.8.1-.6.3-1.1.6-1.6.3-.4.6-.8 1-1.1.5-.3 1.1-.4 1.6-.4s1 .1 1.4.3c.3.2.6.5.9.8l.4.9.2.7H49c-.1-2-.9-3.8-2.4-5.2-1.6-1.3-3.7-2-5.7-1.9-1.3 0-2.6.2-3.8.7-2.2.9-3.9 2.6-4.7 4.8-.4 1.2-.7 2.5-.7 3.8 0 1.3.2 2.5.6 3.7.8 2.2 2.4 4 4.6 4.9 1.2.5 2.5.7 3.9.7 1.2 0 2.4-.2 3.5-.7 1-.4 1.8-1 2.6-1.7.7-.7 1.2-1.5 1.6-2.4.4-.9.6-1.8.6-2.7h-5.4l-.3 1.2M58 54.6l-2.9-10.8h-5.6l5.3 17.9H61l5.6-17.9h-5.7z"></path></svg><svg id="uEA06-document" viewBox="0 0 100 100" width="100" height="100" y="500"><style>.st0{fill:#1e1e1e}</style><title>document</title><path class="st0" d="M25.8 26.2h8.5v8.5h-8.5zM25.8 40.3h8.5v8.5h-8.5zM25.8 54.3h8.5v8.5h-8.5zM25.8 68.4h8.5v8.5h-8.5zM40.2 27.9h32.4v4.6H40.2zM40.2 42.2h32.4v4.6H40.2zM40.2 56.5h32.4v4.6H40.2zM40.2 70.8h32.4v4.6H40.2z"></path><path class="st0" d="M88.8 100H11.2V.2l63-.2 14.6 14.6V100zm-74.2-3.5h70.7V15.9H72.7V3.2l-58.2.2v92.9l.1.2z"></path></svg><svg viewBox="0 0 100 100" width="100" height="100" id="uEA07-download" y="600"><title>download</title><path d="M65.7 90c0 1.1-.9 2-2 2s-2-.9-2-2 .9-2 2-2 2 .9 2 2M63.7 7.8h4c1.1-.3 2.2.4 2.5 1.5.3 1.1-.4 2.2-1.5 2.5-.2.1-.5.1-.7.1H60.2c-1.1.1-2.1-.7-2.2-1.8 0-.3 0-.6.1-.9.2-.8 1-1.3 1.8-1.3h4l-.2-.1z"></path><path d="M93.9 38.4V10.5c.2-3.3-1.3-6.5-4-8.4-1.4-.8-2.9-1.5-4.5-2H42.2c-5.2 1.1-8.8 5.8-8.5 11v22h4v-13h51.8v59.8H37.7V63.6h-4v26.1c-.2 3.4 1.5 6.6 4.3 8.5 1.4.8 2.8 1.4 4.3 1.9h43.5c4.9-1.1 8.4-5.5 8.2-10.6v-51M38 15.9c-.1-2.3-.1-4.7 0-7 .3-2.8 2.8-4.9 5.6-4.9H83c3.4-.3 6.4 2.3 6.7 5.8V15.9H38m51.7 75.8c-.5 2.6-2.8 4.4-5.4 4.4H44.5c-3.4.3-6.4-2.3-6.7-5.8v-.9-5.3H90c0 2.5-.1 5-.4 7.5"></path><path d="M8 50.5h61c1.1 0 2-.9 2-2s-.9-2-2-2H8c-1.1 0-2 .9-2 2s.9 2 2 2"></path><path d="M51.2 32.2l15.9 15.9-15.9 16c-.8.8-.8 2 0 2.8.8.8 2 .8 2.8 0l17.4-17.4c.8-.8.8-2 0-2.8L54.1 29.2c-.8-.8-2.1-.8-2.9.1-.8.8-.8 2.1 0 2.9z"></path></svg><svg id="uEA08-env" viewBox="0 0 100 100" width="100" height="100" y="700"><style>.st0{fill:#1e1e1e}</style><title>env</title><path class="st0" d="M0 83.2h100V16.8H0v66.4zm50-25.5L9.1 21.8h82L50 57.7zm-16.3-7.8L5 75.2V24.7l28.7 25.2zm3.7 3.2l12.7 11.1 12.7-11.1 28.4 25H9.1l28.3-25zm28.9-3.2L95 24.6v50.5L66.3 49.9z"></path></svg><svg viewBox="0 0 100 100" width="100" height="100" id="uEA09-food" y="800"><title>e</title><path d="M65.9 89.6c-1.3-.3-2.5-1.1-3.2-2.3-.4-.9-.6-1.8-.7-2.8V62.7c0-.5-.1-.9-.5-1.2-.9-.8-1.7-1.7-2.6-2.6-1.4-1.5-2.2-3.4-2.2-5.5V32.8c0-9 4.5-17.3 11.9-22.4l.7-.5h2v75.7c0 .4-.3.8-.5 1.2-.7 1.4-1.9 2.3-3.4 2.7h-1.5v.1zm2.3-74.9l-.5.5c-5 4.5-7.8 11-7.8 17.7v20.3c0 1.4.6 2.8 1.6 3.7.9.9 1.8 1.9 2.7 2.7.6.6 1 1.4.9 2.2v23.4c.2.8 1.1 1.2 1.9 1 .5-.1.8-.5 1-1V14.7h.2zM35.1 26.1c-.1.9.3 1.8 1.1 2.2h.9c.8-.4 1.2-1.3 1.1-2.2V15v-2.9c.1-.9-.3-1.7-1.1-2.2h-.9c-.8.4-1.2 1.3-1.1 2.2v14M42.2 28.4h.9c.8-.4 1.2-1.3 1.1-2.2v-5.8-8.3c.1-.9-.3-1.7-1.1-2.2h-.9c-.8.4-1.2 1.3-1.1 2.2v14c-.1 1 .3 1.8 1.1 2.3"></path><path d="M48 10c-.8.4-1.2 1.3-1.1 2.2v16.1c0 5.3-2 7.3-4.1 8.2-1.1.1-1.9 1.1-1.7 2.2V84.5c.2.9-.4 1.8-1.3 1.9h-.2c-.9-.1-1.6-.8-1.5-1.7V38.9c.3-1.1-.4-2.1-1.4-2.4h-.2c-2.1-.9-4.1-2.9-4.1-8.2v-.8-15.3c.1-.9-.3-1.8-1.1-2.2h-2v18.8c-.4 2.7.3 5.5 2.1 7.7.9.9 1.8 1.7 2.9 2.4.5.2.8.7.8 1.2v43.6c-.5 2.7 1.2 5.3 3.9 5.9h1.6c2.7-.6 4.4-3.2 3.9-5.9V40.1c0-.5.3-1 .8-1.2 1-.7 2-1.6 2.8-2.5 1.8-2.1 2.5-4.9 2.1-7.7V9.9L48 10z"></path><path d="M98.3 98.3v-1.7H3.4V3.4h93.2v94.9h1.7v-1.7 1.7h1.7V0H0v100h100v-1.7z"></path></svg><svg viewBox="0 0 100 100" width="100" height="100" id="uEA0A-invoice" y="900"><title>invoice</title><path d="M96 32.5l-.7-.7L47.5 8.1c-4-1.9-8.9-.3-10.9 3.6l-20.7 41-8.6-4.3c-.9-.4-2-.1-2.4.8l-3.6 7.3c-2.7 5.4-.6 12 4.8 14.7 0 0 .1 0 .1.1h.4l39.8 19.8.7.4c5.5 2.7 12.2.5 15-5.1L74 62.3l10.9 5.4c.9.4 2 .1 2.4-.8L99.2 43c1.9-3.8.7-8.5-2.8-10.9M4.6 58l2.9-5.8L45 70.8l-2.8 5.6c-1.2 2.5-1.5 5.4-.7 8.1L7.7 67.8h-.2c-3.5-2-4.7-6.3-2.9-9.8m78.9-22.6L58.7 85.1c-.9 1.7-2.5 3-4.4 3.6-1.8.6-3.8.6-5.6-.3h-.3l-.5-.3c-3.3-2.1-4.5-6.3-2.8-9.9l3.6-7.3c.4-.9.1-2-.8-2.4L19 54.3l20.7-41c1.2-2.3 4-3.2 6.3-2.1l41.2 20.4c-1.7.8-3.1 2.2-3.9 3.9m1.3 28.4l-9.2-4.6 10.9-22.2c1.3-2.5 4.3-3.6 6.9-2.3 2.5 1.3 3.6 4.3 2.3 6.9L84.6 63.9z"></path><path d="M41.5 26.8l15.2 7.5c.9.4 2 .1 2.4-.8.4-.9.1-2-.8-2.4l-15.2-7.5c-.9-.4-2-.1-2.4.8-.4.9 0 2 .8 2.4M65.8 49.2L37.4 35.1c-.9-.4-2-.1-2.4.8-.4.9-.1 2 .8 2.4l28.3 14.1c.9.4 2 .1 2.4-.8.5-.9.1-2-.7-2.4M60.1 60.6l-28.4-14c-.9-.4-2-.1-2.4.8-.4.9-.1 2 .8 2.4l28.3 14.1c.9.4 2 .1 2.4-.8.5-1 .2-2-.7-2.5"></path></svg><svg viewBox="0 0 100 100" width="100" height="100" id="uEA0B-logo-facebook" y="1000"><path class="st0" d="M41.9 33.3v6.2h-6.4v10.3h6.2V81H52V49.9h10.3l1.6-10.3H52v-5.1c0-2.7.8-5.3 4.7-5.3h7.8V18.9H53.6c-9.2 0-11.7 6.1-11.7 14.4"></path><path class="st0" d="M98.1 98.1v-2H3.9V3.9h92.2v94.2h2v-2 2h1.9V0H0v100h100v-1.9z"></path></svg><svg width="100" height="100" viewBox="0 0 100 100" id="uEA0C-logo-instagram" y="1100"><path class="st0" d="M66.7 29.6c-2.2 0-3.9 1.7-3.9 3.9s1.7 3.9 3.9 3.9 3.9-1.7 3.9-3.9-1.8-3.9-3.9-3.9M50 33.8c-8.9 0-16.1 7.2-16.1 16.1S41.1 66.1 50 66.1 66.1 58.9 66.1 50c0-8.9-7.2-16.1-16.1-16.2m0 25.5c-5.1 0-9.3-4.2-9.3-9.3s4.2-9.3 9.3-9.3c5.1 0 9.3 4.2 9.3 9.3 0 5.1-4.2 9.3-9.3 9.3"></path><path class="st0" d="M65.5 18.7h-31c-8.7 0-15.8 7.1-15.8 15.8v31c0 8.7 7.1 15.8 15.8 15.8h31c8.7 0 15.8-7.1 15.8-15.8v-31c0-8.8-7-15.9-15.8-15.8m9 46.7c0 5-4 9-9 9h-31c-5 0-9-4-9-9v-31c0-5 4-9 9-9h31c5 0 9 4 9 9v31z"></path><path class="st0" d="M98.1 98.1v-2H3.9V3.9h92.2v94.2h2v-2 2h1.9V0H0v100h100v-1.9z"></path></svg><svg viewBox="0 0 100 100" width="100" height="100" id="uEA0D-logo-meetup" y="1200"><path d="M54 55.8c-1.2.2-1.8 1.9-4.1 1-1.9-.8-3.1-1-2.3-4.7 0 0 4.1.6 5.1 0s2.1-9.6.8-11.1c-1.2-1-2.7-1.4-4.1-1-1.8 1-3.1 2.5-4.1 4.5-.8 1.8-1.9 8.4-1.2 9.7 1 1.8 2.3 3.1 4.1 3.9 2.7.8 5.8.2 8.2-1.2-.5-1-1.2-1.5-2.4-1.1.2 0 0 0 0 0m-4.1-11v5.1l-1.6-.2c-.2 0-.2-3.5 1.6-4.9"></path><path d="M63 47.4v1.4h-1c-.6-4.7-.6-9.2 0-13.8 0 0-.6-2.3-4.1-1.6 0 0-1.4 4.9.4 15.6h-2.7c-1.3 0-1 1.9-.2 2.1l3.5.4.4 7.8 2.5-.4v-7.8h2.7c.2-.8.8-1.2 1.6-1.2.2 0-1.6-2.7-3.1-2.5M23.4 39.2c-2.5 2.7-3.1 11.1-3.1 11.1s-3.1-6.6-4.3-7.6-4.3.2-4.3.2c-.4 12.1 1 15.2 1 15.2 2.1.2 3.9-.2 3.9-1.2s-.2-4.7-.2-4.7c1 2.1 2.1 3.9 3.7 5.5 1.2-.4 2.5-.6 3.9-.4 1.2-1.6 1.2-10.1 1.2-10.1 2.1 10.1 3.7 11.7 3.7 11.7 3.1.4 3.5-1 3.5-1-.8-3.1-3.4-17.9-4.9-18.7-1.4-.6-2.7-.6-4.1 0M38.4 57.1c-1.4-.4-2.5-2.3-1.8-6 0 0 4.7.8 5.5.2.8-.6 1-8.2-.4-9.7-1.2-1-2.7-1.4-4.1-1-1.8.8-3.3 2.1-4.3 3.9-.8 1.8-1.6 8.8-1 10.1 1 1.8 2.3 3.1 4.1 3.9 2.7.8 5.8.2 8.2-1.2-.8-.8-1.8-1.2-2.7-1.2-1.4.2-2.1 1.2-3.5 1M38.2 45c.4-.2.2 3.7.2 3.7h-1.6c-.2-1.3.4-2.7 1.4-3.7M77.6 47l-.2-.4s-1.9-1.6-2.5-.8.4 8.2-2.7 10.3c0 0-1.4-1.8-1-9-1-1-2.5-1.6-3.9-1.4-.4 0-2.1 13.3 3.9 12.7 6-.6 7.4-8.6 7.4-10.9 0-.1-.4-.5-1-.5M89.7 41.9c-1 .2-1.2-1.6-3.1-1.2-8.4 1.6-6.8 14-6.8 14s-1.8.3-1.6 1.2c.2.8.8 1.2 1.4 1.6-.6 2.3 1.2 9.2 1.2 9.2h3.7c-1.9-3.3-1-9.2-1-9.2 10.1-2.3 10.7-16.4 6.2-15.6M83.4 54c.8-8.4 4.3-9.9 4.3-9.9 1.2 2.5-.6 8.3-4.3 9.9"></path><path d="M98.1 98.1v-2H3.9V3.9h92.2v94.2h2v-2 2h1.9V0H0v100h100v-1.9z"></path></svg><svg viewBox="0 0 100 100" width="100" height="100" id="uEA0E-pad" y="1300"><title>pad</title><path d="M91.1 28.6C77.8 6.8 58 21.9 58 21.9c-1.6 1.1-3.4 1.7-5.3 1.8h-5.3c-2 0-3.8-.7-5.4-1.7 0 0-19.9-15.1-33.1 6.6S1.1 73.9 1.1 73.9c.9 5.8 4 9.7 9.7 9.2 5.7-.6 18.4-15.6 18.4-15.6 1.3-1.3 3-2.2 4.8-2.3h32c1.8.1 3.6.9 4.8 2.3 0 0 12.6 15.1 18.4 15.6s8.9-3.4 9.7-9.2c.1 0 5.4-23.6-7.8-45.3M38 46.2h-6.9v6.6c-1.1.7-2.4 1.1-3.7 1.1-1.2.1-2.4-.4-3.3-1.2v-6.5h-6.5c-.6-.9-1-1.9-1-3-.1-1.4.2-2.7.9-3.9h6.8v-6.9c1.1-.5 2.3-.7 3.4-.7 1.2 0 2.4.3 3.5.8v6.7h6.5c.7.9 1.1 2.1 1.2 3.2.1 1.5-.2 2.8-.9 3.8m31.5 7.6c-3 0-5.4-2.4-5.4-5.4 0-3 2.4-5.4 5.4-5.4 3 0 5.4 2.4 5.4 5.4 0 3-2.4 5.4-5.4 5.4m0-14.9c-3 0-5.4-2.4-5.4-5.4 0-3 2.4-5.4 5.4-5.4 3 0 5.4 2.4 5.4 5.4 0 3-2.4 5.4-5.4 5.4m13.5 8c-3 0-5.4-2.4-5.4-5.4 0-3 2.4-5.4 5.4-5.4 3 0 5.4 2.4 5.4 5.4 0 3-2.4 5.4-5.4 5.4"></path></svg><svg id="uEA0F-parking" viewBox="0 0 100 100" width="100" height="100" y="1400"><style>.st0{enable-background:new}</style><title>t</title><path d="M98.3 98.3v-1.7H3.4V3.4h93.2v94.9h1.7v-1.7 1.7h1.7V0H0v100h100v-1.7z"></path><path d="M36.9 73.5V21.7h19.5c3.4 0 6.1.2 7.9.5 2.5.4 4.7 1.2 6.4 2.4 1.7 1.2 3.1 2.9 4.1 5 1 2.1 1.6 4.5 1.6 7.1 0 4.4-1.4 8.1-4.2 11.2-2.8 3-7.9 4.6-15.2 4.6H43.8v21h-6.9zm6.9-27.2h13.4c4.4 0 7.6-.8 9.4-2.5 1.9-1.6 2.8-4 2.8-7 0-2.2-.5-4-1.6-5.6-1.1-1.5-2.5-2.6-4.3-3.1-1.2-.3-3.3-.5-6.4-.5H43.8v18.7z" class="st0"></path></svg><svg id="uEA10-pen" viewBox="0 0 100 100" width="100" height="100" y="1500"><style>.st0{fill:#1e1e1e}</style><title>pen</title><path class="st0" d="M96.5 92.1h-93c-1.9 0-3.5 1.6-3.5 3.5.1 1.9 1.6 3.4 3.5 3.5h93.1c1.9 0 3.4-1.6 3.5-3.5-.1-1.9-1.7-3.5-3.6-3.5M0 61.3v16.6c0 1 .4 1.9 1 2.6.6.7 1.5 1 2.4 1H18c2.1 0 4.2-.9 5.7-2.4l55.6-55.6c1.4-1.4 1.4-3.7 0-5L63 1.9c-1.4-1.4-3.7-1.4-5 0L46.7 13.3 1.3 58.6c-.6.7-1 1.5-1 2.4m63.8-48.6l5 5c2 1.6 2.2 4.5.6 6.5s-4.5 2.2-6.5.6l-.6-.6-5-5c-1.6-2-1.3-4.9.6-6.5 1.7-1.4 4.1-1.4 5.9 0M7.3 62.6l38.8-38.8c1.8-1.8 4.7-1.8 6.5 0l5 5c1.8 1.8 1.8 4.7 0 6.5L20.1 72.6c-.8.8-2 1.3-3.2 1.4h-5c-2.5 0-4.6-2.1-4.6-4.6v-6.8z"></path></svg><svg viewBox="0 0 100 100" width="100" height="100" id="uEA11-person" y="1600"><title>w</title><path d="M98.3 98.3v-1.7H3.4V3.4h93.2v94.9h1.7v-1.7 1.7h1.7V0H0v100h100v-1.7z"></path><path d="M27 54.6l11.3-11.3v1.4l-4 17.1c-.3 1.2.5 2.5 1.7 2.8.2 0 .4.1.5.1h23.6c1.3 0 2.3-1 2.3-2.3 0-.2 0-.4-.1-.5l-4-17.1v-1.1l11 11c2 2 5.2 2 7.2 0s2-5.2 0-7.2l-18.7-19c-.6-.7-1.5-1.2-2.4-1.5 2.9-4 2.1-9.5-1.9-12.5-4-2.9-9.5-2.1-12.5 1.9-2.3 3.1-2.3 7.4 0 10.6-.8.2-1.6.7-2.2 1.3l-19 19.1c-2 2-2 5.2 0 7.2s5.2 2 7.2 0m21.2-38c2.8 0 5.1 2.3 5.1 5.1s-2.3 5.1-5.1 5.1-5.1-2.3-5.1-5.1 2.3-5.1 5.1-5.1M22.5 50.1L41.6 31c.2-.2.6-.4.9-.4h11.6c.4 0 .8.2 1 .5L73.9 50c.5.5.5 1.3 0 1.9-.5.5-1.3.5-1.8 0L57.8 37.5c-.7-.8-1.9-1-2.7-.3-.5.4-.8 1-.7 1.7v6.3L58 60.9H38.1l3.7-15.7v-6.6c0-1.1-.9-1.9-2-1.9-.5 0-.9.2-1.3.5L23.9 51.8c-.5.5-1.3.5-1.8 0s-.5-1.3 0-1.9M60.4 85.8c1.1 0 1.9-.9 1.9-1.9V70.2h2.4c1.1-.1 1.8-1.1 1.6-2.2-.1-.9-.8-1.5-1.6-1.6h-8.6c-1.1.1-1.8 1.1-1.6 2.2.1.9.8 1.5 1.6 1.6h2.4v13.7c0 1 .9 1.9 1.9 1.9M51 74c1.1 0 1.9-.9 1.9-1.9v-.5c.2-2.9-2-5.5-4.9-5.8-2.9-.2-5.5 2-5.8 4.9v1.9c0 3 2.4 5.3 5.3 5.3.8 0 1.5.7 1.5 1.5v1c0 .8-.7 1.5-1.5 1.5s-1.5-.7-1.5-1.5c-.1-1.1-1.1-1.8-2.2-1.6-.9.1-1.5.8-1.6 1.6-.2 2.9 2 5.5 4.9 5.8 2.9.2 5.5-2 5.8-4.9v-1.9c0-3-2.4-5.3-5.3-5.3-.8 0-1.5-.7-1.5-1.5v-1c0-.8.7-1.5 1.5-1.5s1.5.7 1.5 1.5v.5c0 1.1.9 1.9 1.9 1.9M31.8 82c-1.1.1-1.8 1.1-1.6 2.2.1.9.8 1.5 1.6 1.6h5.3c1.1.1 2-.6 2.2-1.6.1-1.1-.6-2-1.6-2.2h-1.2V68.3c0-1.1-.9-1.9-1.9-1.9-.4 0-.8.1-1.1.4l-2.2 1.7c-.8.6-1 1.8-.4 2.7.4.6 1.1.9 1.9.7v10.3H32V82z"></path></svg><svg viewBox="0 0 100 100" width="100" height="100" id="uEA12-powerbank" y="1700"><title>powerbank</title><path d="M49.9 94.7H23.1c-4.2.1-8.3-.4-12.3-1.5C4.9 91.5.6 86.3.1 80.2c-.3-4.8.1-9.6 1.3-14.3 2.7-13.8 5.3-27.6 8-41.4.6-3 1.1-6.1 1.9-9.1.4-1.5 1-2.9 1.8-4.1 1.9-2.9 5.1-4.7 8.6-4.7C32 5.5 42.3 5.1 52.6 5.3c8.1-.1 16.3.3 24.4 1.1 1.4.2 2.9.4 4.3.7 3.2.6 5.8 2.9 6.7 6 .9 2.6 1.6 5.2 2.1 7.9 3.1 15.9 6.2 31.7 9.2 47.6.9 4 1.2 8.2.7 12.3-.9 6.6-6 11.8-12.6 12.8-5.2.9-10.4 1.2-15.7 1.1H60.9l-11-.1zm0-28.3H13.7c-4.3-.1-7.9 3.3-8 7.6v6.3c0 2.6 1.2 5 3.3 6.4 1.5 1 3.2 1.6 5 1.5h72.4c3.9-.1 7.1-3 7.5-6.9.2-2.1 0-4.2.1-6.3.3-4.5-3.2-8.5-7.7-8.7h-1c-11.8.2-23.6.1-35.4.1M38.2 31l14.9 25.2h.2c-.4-6.3-.8-12.6-1.2-19.1l9.4-.7-14.5-22h-.2l1.6 16.4H38.3l-.1.2z"></path><path d="M19 73.4h19.1v7.4H19zM61.9 73.4H81v7.4H61.9zM54.8 75.6v1.5c0 1.2-1 2.2-2.2 2.2h-5c-1.2-.1-2.2-1.1-2.3-2.3v-1.4h9.5z"></path></svg><svg viewBox="0 0 100 100" width="100" height="100" id="uEA13-seat" y="1800"><title>q</title><path d="M98.3 98.3v-1.7H3.4V3.4h93.2v94.9h1.7v-1.7 1.7h1.7V0H0v100h100v-1.7z"></path><path d="M74 55.3v-7.5h-3.7V20.7h-1.8v2H35v-1.9h-1.8v27.1h-3.7v7.5h7.1l13.7 10.8-14 11 1.2 1.5 14.3-11.2 14.4 11.2 1.2-1.5-14-11L67 55.4h7.1l-.1-.1zm-5.5-13.1H35V24.4h33.5v17.8zM35 44h33.5v3.7H35V44zm-3.8 5.6h41.1v3.8H31.2V49.6zm20.6 15.2l-12.2-9.6H64l-12.2 9.6z"></path></svg><svg viewBox="0 0 100 100" width="100" height="100" id="uEA14-star" y="1900"><title>r</title><path d="M87.6 39.1c-.2-.7-.7-1.2-1.4-1.4l-21.4-6.9-13-18.3c-.7-.9-2.1-1.1-3-.4-.2.1-.3.2-.4.4l-13 18.3L14 37.7c-1.2.4-1.8 1.6-1.4 2.7.1.2.2.5.4.7l13.4 18-.4 22.4c0 1.2 1 2.2 2.2 2.2.2 0 .5 0 .7-.1l21.3-7.1 21.3 7.1h.7c1.2 0 2.2-1 2.2-2.2L74.1 59l13.3-18c.4-.6.5-1.3.3-2M70.2 57c-.3.4-.4.8-.4 1.3l.2 20.2-19.1-6.4h-1.4l-19 6.4.2-20.1c0-.5-.1-.9-.4-1.3l-12-16.2 19.2-6c.5-.1.9-.4 1.1-.8l11.7-16.4L61.9 34c.3.4.7.7 1.1.8l19.2 6-12 16.2z"></path><path d="M98.3 98.3v-1.7H3.4V3.4h93.2v94.9h1.7v-1.7 1.7h1.7V0H0v100h100v-1.7z"></path></svg><svg viewBox="0 0 100 100" width="100" height="100" id="uEA15-thrash" y="2000"><title>thrash</title><path d="M59.653 80.851l1.692-46.367 7.795.284-1.692 46.368zM46.1 34.3h7.8v46.4h-7.8zM40.5 80.5l-1.7-46.4-7.9.4 1.7 46.3z"></path><path d="M3.4 15v7.9h8.2L18 96.4c.2 2 1.9 3.6 3.9 3.6h56c2 0 3.7-1.6 3.9-3.6l6.5-73.6h8.3V15H3.4zm70.9 77.2H25.5l-6.1-69.3h61l-6.1 69.3z"></path><path d="M62.8 0H37.2c-3.6 0-6.5 2.9-6.5 6.5v12.4h7.8v-11h23V19h7.9V6.5c-.1-3.6-3-6.5-6.6-6.5"></path></svg><svg viewBox="0 0 100 100" width="100" height="100" id="uEA16-tick" y="2100"><title>tick</title><path d="M0 57.2l28.6 28.9L100 16.4l-2.5-2.5-68.8 67.2L2.5 54.7z"></path></svg><svg viewBox="0 0 100 100" width="100" height="100" id="uEA17-tickets" y="2200"><title>tickets</title><path d="M99.9 43.7L88.4 8.2c-.3-1-1.4-1.6-2.4-1.3L1.3 34.5C.3 34.8-.3 35.9.1 37l5.4 16.8v37.4c0 1.1.9 2 2 2h88.9c1.1 0 1.9-.9 2-1.9V53.9c0-1.1-.9-2-2-2H81.1l17.5-5.7c1.1-.3 1.6-1.4 1.3-2.5 0 .1 0 0 0 0m-5.4 12.1v33.4h-85V55.8h10.8v21.8c.1 1.1 1.1 1.8 2.2 1.7.9-.1 1.6-.8 1.7-1.7V55.8h70.3zm-26-3.9H9L4.4 37.6l10.3-3.3 3.9 12c.3.8 1 1.4 1.9 1.3h.6c1-.3 1.6-1.4 1.2-2.5l-3.9-12 66.8-21.8 10.3 31.8-27 8.8z"></path><path d="M82.3 19.9c-.3-1-1.4-1.6-2.5-1.2L28.9 35.2c-1 .4-1.5 1.5-1.1 2.5.3.7 1 1.2 1.7 1.3h.6L81 22.4c1-.3 1.6-1.4 1.3-2.5M73.7 32.6l9.6-3.3c1-.5 1.4-1.7.9-2.6-.4-.8-1.3-1.2-2.1-1.1l-9.6 3.3c-1 .4-1.5 1.5-1.1 2.5.3.7 1 1.2 1.7 1.3l.6-.1zM81.9 41.5c.3.8 1 1.4 1.9 1.3h.6l3-1c1-.5 1.4-1.7.9-2.6-.4-.8-1.3-1.2-2.1-1.1l-3 1c-1.1.4-1.7 1.5-1.3 2.4M76.2 41.3l-3 1c-1 .4-1.5 1.5-1.1 2.5.3.7 1 1.2 1.7 1.3h.6l3-1c1.1-.2 1.8-1.2 1.6-2.3-.2-1.1-1.2-1.8-2.3-1.6-.2 0-.4.1-.5.1M49 36.5l-17.8 5.8c-1 .4-1.5 1.5-1.1 2.5.3.7 1 1.2 1.7 1.3h.6l17.8-5.8c1.1-.2 1.8-1.2 1.6-2.3-.2-1.1-1.2-1.8-2.3-1.6-.2.1-.3.1-.5.1M22.2 82.1c-1.1 0-2 .9-2 2v.8c.1 1.1 1.1 1.8 2.2 1.7.9-.1 1.6-.8 1.7-1.7v-.8c.1-1.1-.8-2-1.9-2M31.6 63c0 1.1.9 2 2 2h53.6c1.1-.1 1.8-1.1 1.7-2.2-.1-.9-.8-1.6-1.7-1.7H33.6c-1.1 0-2 .9-2 1.9M87.1 68.5H76.9c-1.1-.1-2.1.6-2.2 1.7-.1 1.1.6 2.1 1.7 2.2H87c1.1.1 2.1-.6 2.2-1.7.1-1.1-.6-2.1-1.7-2.2h-.4M87.1 81.5h-3.3c-1.1.1-1.8 1.1-1.7 2.2.1.9.8 1.6 1.7 1.7h3.3c1.1.1 2.1-.6 2.2-1.7.1-1.1-.6-2.1-1.7-2.2h-.5M76.7 81.5h-3.3c-1.1.1-1.8 1.1-1.7 2.2.1.9.8 1.6 1.7 1.7h3.3c1.1-.1 1.8-1.1 1.7-2.2-.2-.9-.9-1.6-1.7-1.7M52.2 68.5H33.6c-1.1.1-1.8 1.1-1.7 2.2.1.9.8 1.6 1.7 1.7h18.7c1.1-.1 1.8-1.1 1.7-2.2-.1-.9-.8-1.6-1.8-1.7"></path></svg><svg viewBox="0 0 100 100" width="100" height="100" id="uEA18-vr" y="2300"><title>vr</title><path d="M100 46.3c-.1 5.5-1.5 10.9-4.2 15.7-.8 1.4-1.8 2.6-3 3.6-.7.6-1.6 1.1-2.5 1.4-10.9 3.8-21.8 7.8-32.9 11-5.2 1.5-10.5 2.9-15.7 4.2-3.8 1.1-7.8-.6-9.6-4.1-1.4-2.4-2.2-5-2.5-7.8-.7-5.2-.1-10.5 1.8-15.3.6-1.5 1.4-2.8 2.3-4.1 1.2-1.7 3-2.9 5.1-3.3L89.1 37l4-.8c2-.5 4.1.4 5.1 2.1 1 1.7 1.6 3.6 1.7 5.5 0 .8.1 1.7.1 2.5M34 63.8l.1-.4c.6-2.5 1.8-4.7 3.4-6.7 1.2-1.4 2.8-2.4 4.7-2.8 4.3-.9 8.7-1.9 13.1-2.9l38.3-8.6c1-.2 2.1-.1 3 .4l.7.3c-.6-2.4-3-3.8-5.4-3.3h-.1c-4.3 1-8.6 1.9-12.9 2.8-12.2 2.7-24.4 5.4-36.7 8.1-2.2.5-4.2 1.9-5.3 3.8-1.7 2.9-2.7 6.1-2.9 9.3"></path><path d="M91.1 33.8l-6 1.2-38.8 8.2c-3.4.7-6.8 1.5-10.3 2.3-2.1.5-3.9 1.7-5.1 3.5-1.9 2.5-3.2 5.4-3.8 8.4-1.2 4.9-1.2 10 0 14.9.3 1.1.8 2.3 1.2 3.4l-.3-.2c-3.7-3.5-7.3-7-11-10.4-2.9-2.7-4.8-6.4-5.4-10.4-.7-3.4-.3-7 .9-10.2 1.6-4.3 5.8-7.1 10.4-6.8 4.3.2 8.7.4 13 .4 8 .2 15.9-.6 23.7-2.5 5.7-1.3 11-3.8 15.7-7.2.8-.5 1.9-.5 2.7 0l5.7 2.4 7 2.9.4.1zM30 46.8l-.6-.3c-3.4-1.9-6.9-3.8-10.3-5.7-.5-.4-1.1-.3-1.6.1s-.9.8-1.3 1.2c-1.4 1.7-2.3 3.8-2.7 6-.1.4.1.8.5 1 2.6 1.9 5.3 3.8 7.9 5.7l3.2 2.3c.6-3.9 2.3-7.5 4.9-10.3"></path><path d="M74.1 26.8c-1.6 1-2.9 1.9-4.4 2.8-1.8 1-3.6 1.8-5.5 2.6-.3.1-.6 0-.9-.1-2.3-1.3-4.5-2.7-6.8-4-5.7-3.1-12.2-4-18.5-2.6-8.7 1.8-17.5 3.5-26.2 5.2-2.6.4-5 1.7-6.9 3.5-1-1-1.6-2.4-1.6-3.8.1-1.1.2-2.3.4-3.4.1-.3.3-.5.5-.7 2.2-1.9 4.9-3.1 7.8-3.6 9.3-1.6 18.6-3.2 28-4.9 6.1-1 12.4-.4 18.2 1.8 4.7 1.8 9.2 3.8 13.7 6.1l2.2 1.1"></path><path d="M9.8 55.2c-2.6-2.9-5.2-5.7-7.7-8.8a8.79 8.79 0 0 1-2-6.4c.1-2.6.3-5.3.6-7.9.1-1.2.6-2.3 1.4-3.2-.1.8-.1 1.6-.1 2.4.1 1.9 1 3.6 2.4 4.9 1.4 1.3 3.1 2.5 4.8 3.4l3.1 1.7c-2.5 4.1-3.3 9-2.3 13.8l-.2.1z"></path></svg><svg viewBox="0 0 100 100" width="100" height="100" id="uEA19-warning" y="2400"><title>warning</title><path d="M50 0C22.4 0 0 22.4 0 50s22.4 50 50 50 50-22.4 50-50S77.6 0 50 0m0 95.2C25 95.2 4.8 75 4.8 50.1 4.8 25.2 25 4.9 49.9 4.9c25 0 45.2 20.2 45.2 45.1v.1c0 24.9-20.2 45-45.1 45.1m2.5-24.7c0 1.4-1.2 2.6-2.6 2.6-1.4 0-2.6-1.2-2.6-2.6s1.2-2.6 2.6-2.6c1.4-.1 2.6 1.1 2.6 2.6m-5.1-12.9V28.2c0-1.3 1.1-2.4 2.4-2.4 1.3 0 2.4 1.1 2.4 2.4v29.4c0 1.3-1 2.3-2.3 2.4h-.1c-1.2 0-2.3-.9-2.4-2.2v-.2"></path></svg></svg>