<svg xmlns="http://www.w3.org/2000/svg" viewBox="0 0 30.63 24"><defs><style>.cls-1{fill:#e10b31;}.cls-2{fill:blue;}</style></defs><title>teaming</title><g id="Warstwa_2" data-name="Warstwa 2"><g id="Long_Page_cz.1" data-name="Long Page cz.1"><g id="Group_3208" data-name="Group 3208"><g id="Group_3200" data-name="Group 3200"><g id="Group_3199" data-name="Group 3199"><g id="Group_3195" data-name="Group 3195"><path id="Path_1881" data-name="Path 1881" class="cls-1" d="M.24,12.2a12.49,12.49,0,0,0,.9,2.05,2.36,2.36,0,0,1,.2.78l.83,8.12a1,1,0,0,0,.94.85H4.55a1,1,0,0,0,.94-.85L6.32,15a2.72,2.72,0,0,1,.21-.79.44.44,0,0,0-.23-.59.45.45,0,0,0-.58.23,3.31,3.31,0,0,0-.27,1.06l-.83,8.12a.06.06,0,0,1-.06.05H3.12a0,0,0,0,1-.05-.05l-.84-8.12A3.6,3.6,0,0,0,2,13.87l0,0A11.2,11.2,0,0,1,1.1,12,7.48,7.48,0,0,1,1,9a2.17,2.17,0,0,1,.36-.32A7,7,0,0,1,2.49,8l1,1.36a.44.44,0,0,0,.35.18.44.44,0,0,0,.36-.18l1.2-1.65a.45.45,0,0,0-.72-.53L3.83,8.35,3,7.2A.44.44,0,0,0,2.47,7,8.39,8.39,0,0,0,.84,8a3.72,3.72,0,0,0-.48.41C-.27,9,.08,11.59.24,12.19"/></g><g id="Group_3196" data-name="Group 3196"><path id="Path_1882" data-name="Path 1882" class="cls-1" d="M2.67,3.57v0c.05-1.06.72-1.21,1.12-1.21h.08c.39,0,1.06.15,1.11,1.21v0a2.52,2.52,0,0,1-.39,1.71.93.93,0,0,1-.76.3h0a1,1,0,0,1-.76-.3,2.62,2.62,0,0,1-.38-1.7m1.11,2.9h.09a1.89,1.89,0,0,0,1.39-.61,3.44,3.44,0,0,0,.61-2.37A2,2,0,0,0,4,1.44H3.79a2,2,0,0,0-2,1.93v.12A3.44,3.44,0,0,0,2.4,5.86a1.87,1.87,0,0,0,1.39.61"/></g><g id="Group_3197" data-name="Group 3197"><path id="Path_1883" data-name="Path 1883" class="cls-1" d="M7.15,8a2.57,2.57,0,0,1,.39-.35,8.35,8.35,0,0,1,1.23-.71L9.83,8.41a.44.44,0,0,0,.36.18.43.43,0,0,0,.36-.18l1.07-1.47a7.77,7.77,0,0,1,1.22.71,2.23,2.23,0,0,1,.4.35,7.88,7.88,0,0,1-.11,3.2,10.88,10.88,0,0,1-.89,2s0,0,0,0a3.71,3.71,0,0,0-.3,1.13L11,23a.08.08,0,0,1-.09.08H9.42A.08.08,0,0,1,9.33,23l-.88-8.65a3.71,3.71,0,0,0-.3-1.13l0,0a12.32,12.32,0,0,1-.89-2A8,8,0,0,1,7.15,8m-.64-.62c-.66.66-.29,3.42-.11,4.06a13.57,13.57,0,0,0,.95,2.18,2.43,2.43,0,0,1,.22.84l.89,8.65a1,1,0,0,0,1,.88H11a1,1,0,0,0,1-.88l.88-8.65a2.69,2.69,0,0,1,.23-.84A13.57,13.57,0,0,0,14,11.44c.17-.64.55-3.4-.11-4.06a4.14,4.14,0,0,0-.5-.44,8.94,8.94,0,0,0-1.74-1,.42.42,0,0,0-.52.15L10.19,7.4,9.27,6.13A.42.42,0,0,0,8.75,6,9.24,9.24,0,0,0,7,6.94a4.14,4.14,0,0,0-.5.44"/></g><g id="Group_3198" data-name="Group 3198"><path id="Path_1884" data-name="Path 1884" class="cls-1" d="M8.93,2.24v0C9,1,9.8.89,10.15.89h.08c.35,0,1.17.13,1.22,1.32v0A2.74,2.74,0,0,1,11,4.07a1,1,0,0,1-.83.34h0a1.08,1.08,0,0,1-.83-.34,2.74,2.74,0,0,1-.42-1.83m1.22,3.07h.09a1.9,1.9,0,0,0,1.46-.65,3.66,3.66,0,0,0,.65-2.5,2.07,2.07,0,0,0-2-2.16h-.23A2.07,2.07,0,0,0,8,2v.14a3.65,3.65,0,0,0,.64,2.5,2,2,0,0,0,1.47.65"/></g></g><g id="Group_3206" data-name="Group 3206"><g id="Group_3202" data-name="Group 3202"><path id="Path_1886" data-name="Path 1886" class="cls-1" d="M.24,12.2a12.49,12.49,0,0,0,.9,2.05,2.36,2.36,0,0,1,.2.78l.83,8.12a1,1,0,0,0,.94.85H4.55a1,1,0,0,0,.94-.85L6.32,15a2.72,2.72,0,0,1,.21-.79.44.44,0,0,0-.23-.59.45.45,0,0,0-.58.23,3.31,3.31,0,0,0-.27,1.06l-.83,8.12a.06.06,0,0,1-.06.05H3.12a0,0,0,0,1-.05-.05l-.84-8.12A3.6,3.6,0,0,0,2,13.87l0,0A11.2,11.2,0,0,1,1.1,12,7.48,7.48,0,0,1,1,9a2.17,2.17,0,0,1,.36-.32A7,7,0,0,1,2.49,8l1,1.36a.44.44,0,0,0,.35.18.44.44,0,0,0,.36-.18l1.2-1.65a.45.45,0,0,0-.72-.53L3.83,8.35,3,7.2A.44.44,0,0,0,2.47,7,8.39,8.39,0,0,0,.84,8a3.72,3.72,0,0,0-.48.41C-.27,9,.08,11.59.24,12.19"/></g><g id="Group_3203" data-name="Group 3203"><path id="Path_1887" data-name="Path 1887" class="cls-1" d="M2.67,3.57v0c.05-1.06.72-1.21,1.12-1.21h.08c.39,0,1.06.15,1.11,1.21v0a2.52,2.52,0,0,1-.39,1.71.93.93,0,0,1-.76.3h0a1,1,0,0,1-.76-.3,2.62,2.62,0,0,1-.38-1.7m1.11,2.9h.09a1.89,1.89,0,0,0,1.39-.61,3.44,3.44,0,0,0,.61-2.37A2,2,0,0,0,4,1.44H3.79a2,2,0,0,0-2,1.93v.12A3.44,3.44,0,0,0,2.4,5.86a1.87,1.87,0,0,0,1.39.61"/></g><g id="Group_3204" data-name="Group 3204"><path id="Path_1888" data-name="Path 1888" class="cls-1" d="M7.15,8a2.57,2.57,0,0,1,.39-.35,8.35,8.35,0,0,1,1.23-.71L9.83,8.41a.44.44,0,0,0,.36.18.43.43,0,0,0,.36-.18l1.07-1.47a7.77,7.77,0,0,1,1.22.71,2.23,2.23,0,0,1,.4.35,7.88,7.88,0,0,1-.11,3.2,10.88,10.88,0,0,1-.89,2s0,0,0,0a3.71,3.71,0,0,0-.3,1.13L11,23a.08.08,0,0,1-.09.08H9.42A.08.08,0,0,1,9.33,23l-.88-8.65a3.71,3.71,0,0,0-.3-1.13l0,0a12.32,12.32,0,0,1-.89-2A8,8,0,0,1,7.15,8m-.64-.62c-.66.66-.29,3.42-.11,4.06a13.57,13.57,0,0,0,.95,2.18,2.43,2.43,0,0,1,.22.84l.89,8.65a1,1,0,0,0,1,.88H11a1,1,0,0,0,1-.88l.88-8.65a2.69,2.69,0,0,1,.23-.84A13.57,13.57,0,0,0,14,11.44c.17-.64.55-3.4-.11-4.06a4.14,4.14,0,0,0-.5-.44,8.94,8.94,0,0,0-1.74-1,.42.42,0,0,0-.52.15L10.19,7.4,9.27,6.13A.42.42,0,0,0,8.75,6,9.24,9.24,0,0,0,7,6.94a4.14,4.14,0,0,0-.5.44"/></g><g id="Group_3205" data-name="Group 3205"><path id="Path_1889" data-name="Path 1889" class="cls-1" d="M8.93,2.24v0C9,1,9.8.89,10.15.89h.08c.35,0,1.17.13,1.22,1.32v0A2.74,2.74,0,0,1,11,4.07a1,1,0,0,1-.83.34h0a1.08,1.08,0,0,1-.83-.34,2.74,2.74,0,0,1-.42-1.83m1.22,3.07h.09a1.9,1.9,0,0,0,1.46-.65,3.66,3.66,0,0,0,.65-2.5,2.07,2.07,0,0,0-2-2.16h-.23A2.07,2.07,0,0,0,8,2v.14a3.65,3.65,0,0,0,.64,2.5,2,2,0,0,0,1.47.65"/></g></g></g><g id="Group_3207" data-name="Group 3207"><g id="Group_3199-2" data-name="Group 3199-2"><g id="Group_3195-2" data-name="Group 3195-2"><path id="Path_1881-2" data-name="Path 1881-2" class="cls-2" d="M30.38,12.2a11.87,11.87,0,0,1-.94,2.05,2.16,2.16,0,0,0-.21.78l-.88,8.12a1,1,0,0,1-1,.85h-1.5a1,1,0,0,1-1-.85L24,15a2.38,2.38,0,0,0-.22-.79.44.44,0,0,1,.22-.58h0a.47.47,0,0,1,.61.23,3,3,0,0,1,.29,1.06l.87,8.12a.08.08,0,0,0,.07.05h1.5a.06.06,0,0,0,.06-.05l.88-8.12a3.35,3.35,0,0,1,.3-1.07l0,0A10.6,10.6,0,0,0,29.48,12a7.3,7.3,0,0,0,.11-3,2.37,2.37,0,0,0-.39-.32A8.38,8.38,0,0,0,28,8L27,9.37a.48.48,0,0,1-.75,0L25,7.71a.44.44,0,0,1,.09-.61h0a.48.48,0,0,1,.65.1l.88,1.16.88-1.15A.48.48,0,0,1,28,7,9,9,0,0,1,29.75,8a3.31,3.31,0,0,1,.5.41c.66.63.3,3.24.13,3.83"/></g><g id="Group_3196-2" data-name="Group 3196-2"><path id="Path_1882-2" data-name="Path 1882-2" class="cls-2" d="M27.82,3.57v0a1.1,1.1,0,0,0-1-1.21.54.54,0,0,0-.18,0h-.08a1.1,1.1,0,0,0-1.17,1,1.08,1.08,0,0,0,0,.18v0a2.52,2.52,0,0,0,.41,1.71,1,1,0,0,0,.8.3h0a1,1,0,0,0,.8-.3,2.49,2.49,0,0,0,.41-1.7m-1.17,2.9h-.09a2,2,0,0,1-1.46-.61,3.3,3.3,0,0,1-.64-2.37,2,2,0,0,1,2-2.05h.21a2,2,0,0,1,2.1,1.94v.11a3.3,3.3,0,0,1-.64,2.37,2,2,0,0,1-1.47.61"/></g><g id="Group_3197-2" data-name="Group 3197-2"><path id="Path_1883-2" data-name="Path 1883-2" class="cls-2" d="M23.12,8a2.71,2.71,0,0,0-.41-.35,9,9,0,0,0-1.29-.71L20.3,8.41a.46.46,0,0,1-.38.18.46.46,0,0,1-.37-.18L18.42,6.94a8.37,8.37,0,0,0-1.28.71,2.79,2.79,0,0,0-.42.35,7.54,7.54,0,0,0,.11,3.2,11.07,11.07,0,0,0,.94,2,.08.08,0,0,0,0,0,3.72,3.72,0,0,1,.31,1.13L19,23a.09.09,0,0,0,.1.08h1.6a.09.09,0,0,0,.1-.08l.93-8.65a3.72,3.72,0,0,1,.31-1.13s0,0,0,0a11,11,0,0,0,.93-2,7.51,7.51,0,0,0,.1-3.2m.67-.62c.7.66.31,3.42.12,4.06a12.29,12.29,0,0,1-1,2.18,2.7,2.7,0,0,0-.24.84l-.92,8.65a1,1,0,0,1-1,.88H19.11a1,1,0,0,1-1-.88l-.92-8.65a2.69,2.69,0,0,0-.23-.84,11.66,11.66,0,0,1-1-2.18c-.18-.64-.58-3.4.12-4.06a3.75,3.75,0,0,1,.53-.44,9.59,9.59,0,0,1,1.82-1,.47.47,0,0,1,.55.15l1,1.27,1-1.27A.47.47,0,0,1,21.44,6a9,9,0,0,1,1.82,1,3.75,3.75,0,0,1,.53.44"/></g><g id="Group_3198-2" data-name="Group 3198-2"><path id="Path_1884-2" data-name="Path 1884-2" class="cls-2" d="M21.25,2.24v0A1.22,1.22,0,0,0,20.14.89h-.26A1.21,1.21,0,0,0,18.6,2a.48.48,0,0,0,0,.17v0A2.65,2.65,0,0,0,19,4.07a1.15,1.15,0,0,0,.88.34h0a1.19,1.19,0,0,0,.88-.34,2.62,2.62,0,0,0,.44-1.83M20,5.31h-.09a2,2,0,0,1-1.54-.65,3.49,3.49,0,0,1-.68-2.5A2.12,2.12,0,0,1,19.74,0H20a2.12,2.12,0,0,1,2.21,2v.13a3.5,3.5,0,0,1-.67,2.5A2.12,2.12,0,0,1,20,5.31"/></g></g><g id="Group_3206-2" data-name="Group 3206-2"><g id="Group_3202-2" data-name="Group 3202-2"><path id="Path_1886-2" data-name="Path 1886-2" class="cls-2" d="M30.38,12.2a11.87,11.87,0,0,1-.94,2.05,2.16,2.16,0,0,0-.21.78l-.88,8.12a1,1,0,0,1-1,.85h-1.5a1,1,0,0,1-1-.85L24,15a2.38,2.38,0,0,0-.22-.79.44.44,0,0,1,.22-.58h0a.47.47,0,0,1,.61.23,3,3,0,0,1,.29,1.06l.87,8.12a.08.08,0,0,0,.07.05h1.5a.06.06,0,0,0,.06-.05l.88-8.12a3.35,3.35,0,0,1,.3-1.07l0,0A10.6,10.6,0,0,0,29.48,12a7.3,7.3,0,0,0,.11-3,2.37,2.37,0,0,0-.39-.32A8.38,8.38,0,0,0,28,8L27,9.37a.48.48,0,0,1-.75,0L25,7.71a.44.44,0,0,1,.09-.61h0a.48.48,0,0,1,.65.1l.88,1.16.88-1.15A.48.48,0,0,1,28,7,9,9,0,0,1,29.75,8a3.31,3.31,0,0,1,.5.41c.66.63.3,3.24.13,3.83"/></g><g id="Group_3203-2" data-name="Group 3203-2"><path id="Path_1887-2" data-name="Path 1887-2" class="cls-2" d="M27.82,3.57v0a1.1,1.1,0,0,0-1-1.21.54.54,0,0,0-.18,0h-.08a1.1,1.1,0,0,0-1.17,1,1.08,1.08,0,0,0,0,.18v0a2.52,2.52,0,0,0,.41,1.71,1,1,0,0,0,.8.3h0a1,1,0,0,0,.8-.3,2.49,2.49,0,0,0,.41-1.7m-1.17,2.9h-.09a2,2,0,0,1-1.46-.61,3.3,3.3,0,0,1-.64-2.37,2,2,0,0,1,2-2.05h.21a2,2,0,0,1,2.1,1.94v.11a3.3,3.3,0,0,1-.64,2.37,2,2,0,0,1-1.47.61"/></g><g id="Group_3204-2" data-name="Group 3204-2"><path id="Path_1888-2" data-name="Path 1888-2" class="cls-2" d="M23.12,8a2.71,2.71,0,0,0-.41-.35,9,9,0,0,0-1.29-.71L20.3,8.41a.46.46,0,0,1-.38.18.46.46,0,0,1-.37-.18L18.42,6.94a8.37,8.37,0,0,0-1.28.71,2.79,2.79,0,0,0-.42.35,7.54,7.54,0,0,0,.11,3.2,11.07,11.07,0,0,0,.94,2,.08.08,0,0,0,0,0,3.72,3.72,0,0,1,.31,1.13L19,23a.09.09,0,0,0,.1.08h1.6a.09.09,0,0,0,.1-.08l.93-8.65a3.72,3.72,0,0,1,.31-1.13s0,0,0,0a11,11,0,0,0,.93-2,7.51,7.51,0,0,0,.1-3.2m.67-.62c.7.66.31,3.42.12,4.06a12.29,12.29,0,0,1-1,2.18,2.7,2.7,0,0,0-.24.84l-.92,8.65a1,1,0,0,1-1,.88H19.11a1,1,0,0,1-1-.88l-.92-8.65a2.69,2.69,0,0,0-.23-.84,11.66,11.66,0,0,1-1-2.18c-.18-.64-.58-3.4.12-4.06a3.75,3.75,0,0,1,.53-.44,9.59,9.59,0,0,1,1.82-1,.47.47,0,0,1,.55.15l1,1.27,1-1.27A.47.47,0,0,1,21.44,6a9,9,0,0,1,1.82,1,3.75,3.75,0,0,1,.53.44"/></g><g id="Group_3205-2" data-name="Group 3205-2"><path id="Path_1889-2" data-name="Path 1889-2" class="cls-2" d="M21.25,2.24v0A1.22,1.22,0,0,0,20.14.89h-.26A1.21,1.21,0,0,0,18.6,2a.48.48,0,0,0,0,.17v0A2.65,2.65,0,0,0,19,4.07a1.15,1.15,0,0,0,.88.34h0a1.19,1.19,0,0,0,.88-.34,2.62,2.62,0,0,0,.44-1.83M20,5.31h-.09a2,2,0,0,1-1.54-.65,3.49,3.49,0,0,1-.68-2.5A2.12,2.12,0,0,1,19.74,0H20a2.12,2.12,0,0,1,2.21,2v.13a3.5,3.5,0,0,1-.67,2.5A2.12,2.12,0,0,1,20,5.31"/></g></g></g></g></g></g></svg>