<svg id="Warstwa_1" data-name="Warstwa 1" xmlns="http://www.w3.org/2000/svg" xmlns:xlink="http://www.w3.org/1999/xlink" viewBox="0 0 306.84 352.31"><defs><clipPath id="clip-path" transform="translate(-1231.36 -4724.48)"><rect x="1367.07" y="4727.53" width="6.16" height="13.83" transform="translate(-33.53 9.83) rotate(-0.41)" fill="none"/></clipPath></defs><title>thrash</title><path d="M1429.5,5039.86h-20.37a0.3,0.3,0,1,1,0-.6h20.37a0.3,0.3,0,1,1,0,.6" transform="translate(-1231.36 -4724.48)" fill="#fff"/><path d="M1421.43,5047.33l-0.23-.09a0.28,0.28,0,0,1,0-.42l7.2-6.66a0.8,0.8,0,0,0,0-1.18l-7.2-6.66a0.28,0.28,0,0,1,0-.42,0.34,0.34,0,0,1,.46,0l8.07,7.46,0.09,0.21-0.09.21-8.07,7.46-0.23.09" transform="translate(-1231.36 -4724.48)" fill="#fff"/><rect x="170.86" y="298.27" width="1" height="34.93" fill="#fff"/><path d="M1439.68,4846.4H1299.25v-20.53h43.85v-17.77h52.72v17.77h43.85v20.53Zm-138.43-2h136.43v-16.53h-43.85v-17.77h-48.72v17.77h-43.85v16.53Zm87.2-16.53h-37.88v-14h37.88v14Zm-35.88-2h33.88v-10h-33.88v10Z" transform="translate(-1231.36 -4724.48)" fill="#00ffb1"/><path d="M1341.7,4932.29h-30.49v-30.49h30.49v30.49Zm-28.49-2h26.49v-26.49h-26.49v26.49Z" transform="translate(-1231.36 -4724.48)" fill="#00ffb1"/><polygon points="109.34 206.81 80.85 178.32 80.85 206.81 109.34 206.81" fill="#00ffb1"/><path d="M1370.07,4932.29h-30.49v-30.49h30.49v30.49Zm-28.49-2h26.49v-26.49h-26.49v26.49Z" transform="translate(-1231.36 -4724.48)" fill="#00ffb1"/><polygon points="137.72 206.81 109.23 178.32 109.23 206.81 137.72 206.81" fill="#00ffb1"/><path d="M1398.2,4932.29h-30.49v-30.49h30.49v30.49Zm-28.49-2h26.49v-26.49h-26.49v26.49Z" transform="translate(-1231.36 -4724.48)" fill="#00ffb1"/><polygon points="165.84 206.81 137.35 178.32 137.35 206.81 165.84 206.81" fill="#00ffb1"/><path d="M1427.68,4932.64h-30.84V4901.8h30.84v30.84Zm-28.84-2h26.84V4903.8h-26.84v26.84Z" transform="translate(-1231.36 -4724.48)" fill="#00ffb1"/><polygon points="195.32 207.16 166.49 178.32 166.49 207.16 195.32 207.16" fill="#00ffb1"/><path d="M1342,4903.51h-30.49V4873H1342v30.49Zm-28.49-2H1340V4875h-26.49v26.49Z" transform="translate(-1231.36 -4724.48)" fill="#00ffb1"/><polygon points="109.62 178.03 81.13 149.54 81.13 178.03 109.62 178.03" fill="#00ffb1"/><path d="M1370.35,4903.51h-30.49V4873h30.49v30.49Zm-28.49-2h26.49V4875h-26.49v26.49Z" transform="translate(-1231.36 -4724.48)" fill="#00ffb1"/><polygon points="137.99 178.03 109.5 149.54 109.5 178.03 137.99 178.03" fill="#00ffb1"/><path d="M1398.47,4903.51H1368V4873h30.49v30.49Zm-28.49-2h26.49V4875H1370v26.49Z" transform="translate(-1231.36 -4724.48)" fill="#00ffb1"/><polygon points="166.12 178.03 137.63 149.54 137.63 178.03 166.12 178.03" fill="#00ffb1"/><path d="M1428,4903.86h-30.84V4873H1428v30.84Zm-28.84-2H1426V4875h-26.84v26.84Z" transform="translate(-1231.36 -4724.48)" fill="#00ffb1"/><polygon points="195.6 178.38 166.76 149.54 166.76 178.38 195.6 178.38" fill="#00ffb1"/><path d="M1342.15,4875.63h-30.49v-30.49h30.49v30.49Zm-28.49-2h26.49v-26.49h-26.49v26.49Z" transform="translate(-1231.36 -4724.48)" fill="#00ffb1"/><polygon points="109.79 150.15 81.3 121.66 81.3 150.15 109.79 150.15" fill="#00ffb1"/><path d="M1370.52,4875.63H1340v-30.49h30.49v30.49Zm-28.49-2h26.49v-26.49H1342v26.49Z" transform="translate(-1231.36 -4724.48)" fill="#00ffb1"/><polygon points="138.17 150.15 109.68 121.66 109.68 150.15 138.17 150.15" fill="#00ffb1"/><path d="M1398.65,4875.63h-30.49v-30.49h30.49v30.49Zm-28.49-2h26.49v-26.49h-26.49v26.49Z" transform="translate(-1231.36 -4724.48)" fill="#00ffb1"/><polygon points="166.29 150.15 137.8 121.66 137.8 150.15 166.29 150.15" fill="#00ffb1"/><path d="M1428.13,4876h-30.84v-30.84h30.84V4876Zm-28.84-2h26.84v-26.84h-26.84V4874Z" transform="translate(-1231.36 -4724.48)" fill="#00ffb1"/><polygon points="195.77 150.49 166.94 121.66 166.94 150.49 195.77 150.49" fill="#00ffb1"/><path d="M1341.6,4961.85h-30.49v-30.49h30.49v30.49Zm-28.49-2h26.49v-26.49h-26.49v26.49Z" transform="translate(-1231.36 -4724.48)" fill="#00ffb1"/><polygon points="109.24 236.37 80.75 207.88 80.75 236.37 109.24 236.37" fill="#00ffb1"/><path d="M1370,4961.85h-30.49v-30.49H1370v30.49Zm-28.49-2H1368v-26.49h-26.49v26.49Z" transform="translate(-1231.36 -4724.48)" fill="#00ffb1"/><polygon points="137.62 236.37 109.13 207.88 109.13 236.37 137.62 236.37" fill="#00ffb1"/><path d="M1398.1,4961.85h-30.49v-30.49h30.49v30.49Zm-28.49-2h26.49v-26.49h-26.49v26.49Z" transform="translate(-1231.36 -4724.48)" fill="#00ffb1"/><polygon points="165.74 236.37 137.25 207.88 137.25 236.37 165.74 236.37" fill="#00ffb1"/><path d="M1427.58,4962.2h-30.84v-30.84h30.84v30.84Zm-28.84-2h26.84v-26.84h-26.84v26.84Z" transform="translate(-1231.36 -4724.48)" fill="#00ffb1"/><polygon points="195.22 236.72 166.39 207.88 166.39 236.72 195.22 236.72" fill="#00ffb1"/><path d="M1341.6,4990.86h-30.49v-30.49h30.49v30.49Zm-28.49-2h26.49v-26.49h-26.49v26.49Z" transform="translate(-1231.36 -4724.48)" fill="#00ffb1"/><polygon points="109.24 265.38 80.75 236.89 80.75 265.38 109.24 265.38" fill="#00ffb1"/><path d="M1370,4990.86h-30.49v-30.49H1370v30.49Zm-28.49-2H1368v-26.49h-26.49v26.49Z" transform="translate(-1231.36 -4724.48)" fill="#00ffb1"/><polygon points="137.62 265.38 109.13 236.89 109.13 265.38 137.62 265.38" fill="#00ffb1"/><path d="M1398.1,4990.86h-30.49v-30.49h30.49v30.49Zm-28.49-2h26.49v-26.49h-26.49v26.49Z" transform="translate(-1231.36 -4724.48)" fill="#00ffb1"/><polygon points="165.74 265.38 137.25 236.89 137.25 265.38 165.74 265.38" fill="#00ffb1"/><path d="M1427.58,4991.21h-30.84v-30.84h30.84v30.84Zm-28.84-2h26.84v-26.84h-26.84v26.84Z" transform="translate(-1231.36 -4724.48)" fill="#00ffb1"/><polygon points="195.22 265.73 166.39 236.89 166.39 265.73 195.22 265.73" fill="#00ffb1"/><polygon points="174.74 101.58 172.74 101.58 172.74 92.21 162.91 85.44 164.04 83.79 174.74 91.16 174.74 101.58" fill="#00ffb1"/><path d="M1443.87,5005.46H1327.71l-17.17-13.1,1.11-145.28-12.4-.74v-20.47h43.85v-17.77h52.72v17.77h43.26L1456,4842v20h-12.11v143.47Zm-115.48-2h113.48V4860H1454v-17.1l-15.69-15h-44.45v-17.77h-48.72v17.77h-43.85v16.59l12.41,0.74v0.95l-1.11,145.23Z" transform="translate(-1231.36 -4724.48)" fill="#00ffb1"/><rect x="128.06" y="90.78" width="2" height="11.69" fill="#00ffb1"/><polygon points="105.64 292.06 105.58 292.06 102.4 293.96 101.82 292.06 105.82 289.68 107.98 289.59 108.81 308.32 106.36 308.43 105.64 292.06" fill="#00ffb1"/><polygon points="222.33 76.75 221.13 76.71 226.58 63.83 227.8 63.87 222.33 76.75" fill="#2598d8"/><polygon points="228.5 76.96 227.3 76.92 232.75 64.03 233.97 64.07 228.5 76.96" fill="#2598d8"/><polygon points="119.53 339.69 118.33 339.64 123.78 326.76 125 326.8 119.53 339.69" fill="#2598d8"/><polygon points="125.7 339.89 124.5 339.85 129.95 326.96 131.17 327.01 125.7 339.89" fill="#2598d8"/><polygon points="230.48 313.31 229.27 313.27 234.72 300.39 235.95 300.43 230.48 313.31" fill="#2598d8"/><polygon points="236.65 313.51 235.44 313.47 240.9 300.6 242.12 300.63 236.65 313.51" fill="#2598d8"/><polygon points="263.33 213.87 262.12 213.83 267.57 200.94 268.8 200.99 263.33 213.87" fill="#2598d8"/><polygon points="269.5 214.07 268.29 214.03 273.74 201.15 274.97 201.19 269.5 214.07" fill="#2598d8"/><path d="M1464.5,4939v-1.56l2-1.95c4.76-4.59,6.91-7,6.92-9.86,0-1.91-.95-3.66-3.75-3.64a6.39,6.39,0,0,0-4,1.61l-0.82-1.78a8.23,8.23,0,0,1,5.3-1.94c4,0,5.76,2.73,5.78,5.41,0,3.46-2.47,6.28-6.4,10.11l-1.49,1.4v0.06l8.43-.06v2.11Z" transform="translate(-1231.36 -4724.48)" fill="#00ffb1"/><path d="M1473.31,4884.78c0-2.37,1.39-4,3.69-5l0-.09a4.65,4.65,0,0,1-3-4.19c0-3,2.48-5,5.77-5,3.64,0,5.47,2.24,5.48,4.58a4.76,4.76,0,0,1-3.06,4.41v0.09c2.34,0.91,3.8,2.54,3.81,4.82,0,3.26-2.76,5.47-6.34,5.5-3.92,0-6.31-2.29-6.32-5m10.1-.18c0-2.28-1.61-3.36-4.15-4.07-2.19.65-3.36,2.1-3.35,3.89a3.47,3.47,0,0,0,3.78,3.55c2.28,0,3.74-1.44,3.73-3.37m-7-9.33c0,1.87,1.43,2.88,3.6,3.44a3.7,3.7,0,0,0,2.83-3.42,2.91,2.91,0,0,0-3.2-3,3,3,0,0,0-3.24,3" transform="translate(-1231.36 -4724.48)" fill="#00ffb1"/><path d="M1482.33,4977.77h0a2.61,2.61,0,0,0-2.83,2.65c0,1.64,1.25,2.51,3.15,3a3.24,3.24,0,0,0,2.48-3,2.55,2.55,0,0,0-2.77-2.66M1482,4985c-1.91.57-2.94,1.84-2.93,3.4a3,3,0,0,0,3.27,3.11h0a3,3,0,0,0,3.26-2.95c0-2-1.41-2.95-3.64-3.56m0.28,8.13c-3.4,0-5.47-2-5.48-4.41,0-2.07,1.21-3.54,3.23-4.42l0-.07a4.07,4.07,0,0,1-2.63-3.67c0-2.6,2.17-4.38,5-4.4h0.05c3.15,0,4.73,2,4.75,4a4.17,4.17,0,0,1-2.67,3.86v0.08c2.05,0.8,3.32,2.23,3.34,4.22,0,2.85-2.42,4.79-5.55,4.81h-0.05" transform="translate(-1231.36 -4724.48)" fill="#2598d8"/><path d="M1400.41,4790.91a1.71,1.71,0,0,1,1.72-1.83,1.82,1.82,0,0,1,0,3.64,1.7,1.7,0,0,1-1.71-1.81" transform="translate(-1231.36 -4724.48)" fill="#00ffb1"/><path d="M1286.63,4836.5l0-2.18a6.28,6.28,0,0,1-3.31-.93l0.51-1.45a5.74,5.74,0,0,0,3.11.91c1.53,0,2.56-.9,2.55-2.13s-0.85-1.91-2.46-2.55c-2.2-.85-3.57-1.83-3.58-3.7a3.54,3.54,0,0,1,3.23-3.49l0-2.18H1288v2.09a5.76,5.76,0,0,1,2.81.74l-0.53,1.43a5.2,5.2,0,0,0-2.72-.72c-1.66,0-2.28,1-2.27,1.87,0,1.12.81,1.68,2.69,2.44,2.23,0.89,3.36,2,3.37,3.92a3.75,3.75,0,0,1-3.38,3.69l0,2.24h-1.36Z" transform="translate(-1231.36 -4724.48)" fill="#00ffb1"/><polygon points="87.22 82.87 93.13 67.2 94.6 67.19 88.67 82.86 87.22 82.87" fill="#00ffb1"/><polygon points="94.62 82.82 100.53 67.14 102 67.14 96.07 82.81 94.62 82.82" fill="#00ffb1"/><path d="M1314.06,4781.66c-1.94,0-4,.41-4,2.29a1.63,1.63,0,0,0,1.74,1.75,2.52,2.52,0,0,0,2.44-1.7,1.91,1.91,0,0,0,.1-0.59v-1.76h-0.26m-2.76,5.4a2.88,2.88,0,0,1-3.1-2.9c0-2.43,2.15-3.77,6-3.77h0v-0.21a2.08,2.08,0,0,0-2.29-2.33h0a5,5,0,0,0-2.63.76l-0.42-1.21a6.28,6.28,0,0,1,3.32-.9c3.09,0,3.85,2.1,3.85,4.13v3.78a14.43,14.43,0,0,0,.17,2.42h-1.67l-0.15-1.27h-0.06a3.77,3.77,0,0,1-3.09,1.51" transform="translate(-1231.36 -4724.48)" fill="#2f7de2"/><polygon points="58.48 134.86 46.32 141.49 46.27 139.66 56.61 134.19 56.6 134.13 46.01 129.19 45.96 127.36 58.45 133.37 58.48 134.86" fill="#00ffb1"/><path d="M1358,5017.85a13.14,13.14,0,0,0-2.3,8.21,13.42,13.42,0,0,0,2.72,8l-1.37,0a12.88,12.88,0,0,1-2.82-8,13.15,13.15,0,0,1,2.4-8.22Z" transform="translate(-1231.36 -4724.48)" fill="#00ffb1"/><path d="M1359.17,5034.06a13.49,13.49,0,0,0,2.3-8.21,13.21,13.21,0,0,0-2.72-8l1.36,0a12.7,12.7,0,0,1,2.82,8,12.94,12.94,0,0,1-2.4,8.2Z" transform="translate(-1231.36 -4724.48)" fill="#00ffb1"/><path d="M1248.07,5029.16a12.89,12.89,0,0,1-2.66-8.08,13.15,13.15,0,0,1,2.56-8.17h1.38a13.14,13.14,0,0,0-2.46,8.17,13.41,13.41,0,0,0,2.56,8.08h-1.37" transform="translate(-1231.36 -4724.48)" fill="#4246f7"/><path d="M1250.24,5029.15a13.5,13.5,0,0,0,2.46-8.17,13.21,13.21,0,0,0-2.56-8.08h1.36a12.7,12.7,0,0,1,2.66,8.1,12.92,12.92,0,0,1-2.56,8.15h-1.35" transform="translate(-1231.36 -4724.48)" fill="#4246f7"/><path d="M1260.66,4916.88a12.9,12.9,0,0,1-3.14-7.9,13.15,13.15,0,0,1,2.06-8.31l1.37-.09a13.13,13.13,0,0,0-2,8.3,13.42,13.42,0,0,0,3,7.91l-1.37.09" transform="translate(-1231.36 -4724.48)" fill="#2598d8"/><path d="M1262.83,4916.74a13.51,13.51,0,0,0,2-8.3,13.21,13.21,0,0,0-3-7.91l1.35-.09a12.68,12.68,0,0,1,3.14,7.92,12.92,12.92,0,0,1-2.07,8.29l-1.35.09" transform="translate(-1231.36 -4724.48)" fill="#2598d8"/><path d="M1262.1,4871.2c-1.67,0-2.68,1.47-2.7,3.44,0,1.82.86,3.33,2.62,3.35h0a2.46,2.46,0,0,0,2.39-1.93,2.83,2.83,0,0,0,.08-0.7l0-1.56a2.83,2.83,0,0,0-.07-0.69,2.4,2.4,0,0,0-2.34-1.91h0m-0.51,8.1h0c-2.17,0-3.82-1.88-3.8-4.6,0-3,1.86-4.78,4-4.78h0a3,3,0,0,1,2.69,1.4h0l0.05-5.36,1.63,0-0.11,10.85c0,0.8,0,1.71.05,2.32l-1.47,0-0.06-1.56h0a3.32,3.32,0,0,1-3,1.73" transform="translate(-1231.36 -4724.48)" fill="#2598d8"/><polygon points="186.04 57.23 186.02 55.4 196.45 50.12 196.45 50.07 185.95 44.93 185.94 43.1 198.31 49.34 198.32 50.83 186.04 57.23" fill="#2c83e0"/><polygon points="50.24 330.31 50.23 328.48 60.66 323.2 60.66 323.15 50.16 318.01 50.15 316.18 62.52 322.41 62.53 323.9 50.24 330.31" fill="#4246f7"/><polygon points="252.13 323.94 252.12 322.11 262.55 316.83 262.55 316.78 252.04 311.64 252.03 309.81 264.4 316.05 264.41 317.54 252.13 323.94" fill="#4246f7"/><polygon points="49.59 80.36 49.58 78.53 60.01 73.25 60.01 73.2 49.5 68.06 49.49 66.23 61.86 72.47 61.87 73.96 49.59 80.36" fill="#2c83e0"/><path d="M1400.56,5036c-0.51-.5-1-1-1.68-1.74a7.34,7.34,0,0,1-5.22,2.08c-3.48,0-5.52-2.3-5.54-5,0-2.44,1.43-4.13,3.47-5.26v-0.08a6.15,6.15,0,0,1-1.52-3.73,4.34,4.34,0,0,1,4.51-4.44,3.73,3.73,0,0,1,4,3.77c0,1.89-1.06,3.38-3.9,4.81v0.08c1.53,1.74,3.24,3.7,4.39,5a13.11,13.11,0,0,0,1.69-5.24h2.13a13.61,13.61,0,0,1-2.53,6.63c1,1,1.9,2,3,3.14Zm-2.84-3.06c-1.07-1.16-3.08-3.32-5.09-5.59a4.4,4.4,0,0,0-2.28,3.66,3.53,3.53,0,0,0,3.69,3.59,5,5,0,0,0,3.68-1.65m-5.52-10.88a5,5,0,0,0,1.38,3.21c1.8-1.05,3-2,2.95-3.53a2.11,2.11,0,0,0-2.09-2.3,2.33,2.33,0,0,0-2.24,2.62" transform="translate(-1231.36 -4724.48)" fill="#00ffb1"/><path d="M1237.69,4905.63h0a2.33,2.33,0,0,0-2.24,2.62,5,5,0,0,0,1.38,3.21c1.8-1.05,3-2,3-3.53a2.11,2.11,0,0,0-2.07-2.3m-1.82,7.9a4.39,4.39,0,0,0-2.29,3.66,3.53,3.53,0,0,0,3.66,3.59h0a5,5,0,0,0,3.68-1.65c-1.07-1.16-3.08-3.32-5.09-5.59m1,9c-3.45,0-5.46-2.31-5.48-5,0-2.44,1.43-4.13,3.47-5.26v-0.08a6.16,6.16,0,0,1-1.51-3.73,4.34,4.34,0,0,1,4.51-4.44h0a3.72,3.72,0,0,1,3.95,3.77c0,1.89-1.06,3.38-3.9,4.81v0.08c1.53,1.74,3.24,3.7,4.39,5a13.09,13.09,0,0,0,1.69-5.25h2.13a13.67,13.67,0,0,1-2.53,6.64c1,1,1.9,2,3,3.14l-2.76,0c-0.51-.5-1-1-1.69-1.74a7.36,7.36,0,0,1-5.22,2.08h-0.05" transform="translate(-1231.36 -4724.48)" fill="#4246f7"/><path d="M1441.42,5017.43c-0.2,3.38-2.08,4.95-4.15,4.83s-3.63-1.83-3.46-5.06,2.05-4.9,4.17-4.77,3.62,2,3.44,5m-5.88-.2c-0.17,2,.5,3.64,1.85,3.72s2.16-1.4,2.29-3.53c0.12-1.95-.35-3.61-1.86-3.7s-2.17,1.48-2.29,3.5m1.18,11.75,10.41-16,1.38,0.08-10.41,16Zm14.73-4.29c-0.2,3.38-2.08,4.95-4.13,4.82s-3.63-1.83-3.46-5,2.05-4.93,4.17-4.8,3.6,1.95,3.41,5m-5.88-.2c-0.15,2,.55,3.65,1.88,3.73s2.16-1.41,2.29-3.53c0.12-1.95-.35-3.61-1.86-3.7s-2.19,1.48-2.31,3.5" transform="translate(-1231.36 -4724.48)" fill="#00ffb1"/><path d="M1363.14,4786.58c-0.2,3.38-2.08,4.95-4.15,4.82s-3.63-1.83-3.46-5.06,2.05-4.9,4.17-4.77,3.62,2,3.44,5m-5.88-.2c-0.17,2,.5,3.64,1.85,3.72s2.16-1.4,2.29-3.53c0.12-1.95-.35-3.61-1.86-3.7s-2.17,1.48-2.29,3.5m1.18,11.75,10.41-16,1.38,0.08-10.42,16Zm14.73-4.29c-0.2,3.38-2.08,4.95-4.12,4.82s-3.63-1.83-3.46-5,2.05-4.93,4.17-4.8,3.59,1.95,3.41,5m-5.88-.2c-0.15,2,.55,3.65,1.88,3.73s2.16-1.41,2.29-3.53c0.12-1.95-.35-3.61-1.86-3.7s-2.19,1.48-2.31,3.5" transform="translate(-1231.36 -4724.48)" fill="#00ffb1"/><path d="M1413.81,4735.27c-1.3,0-2.07,1.53-2.19,3.5s0.5,3.64,1.86,3.73h0.11c1.36,0,2.05-1.47,2.18-3.53s-0.35-3.61-1.86-3.7h-0.1m-0.24,8.54h-0.22c-2-.12-3.63-1.83-3.46-5.06s1.92-4.78,3.95-4.78h0.22c2.24,0.13,3.62,1.95,3.44,5-0.2,3.26-1.94,4.83-3.93,4.83m0.6,6.8-1.38-.08,10.42-16,1.38,0.08-10.42,16m9.69-8.08c-1.3,0-2.09,1.53-2.21,3.5s0.55,3.64,1.88,3.73h0.12c1.35,0,2.05-1.47,2.18-3.53s-0.35-3.61-1.86-3.7h-0.1m-0.24,8.54h-0.22c-2-.12-3.63-1.83-3.46-5s1.92-4.8,3.95-4.8h0.22c2.24,0.13,3.59,1.95,3.41,5-0.2,3.26-1.94,4.83-3.9,4.83" transform="translate(-1231.36 -4724.48)" fill="#4246f7"/><path d="M1256.65,4815.65l-13.71-.31,0-1.59,13.7,0.3Zm-0.11,5.2-13.71-.3,0-1.59,13.7,0.31,0,1.59" transform="translate(-1231.36 -4724.48)" fill="#4246f7"/><polygon points="35.37 116.45 35.22 110.15 29.22 110.29 29.18 108.7 35.19 108.56 35.04 102.32 36.74 102.28 36.88 108.52 42.89 108.38 42.92 109.98 36.92 110.11 37.07 116.41 35.37 116.45" fill="#2598d8"/><path d="M1368.46,4760.89a1.67,1.67,0,0,1,0-3.32h0a1.67,1.67,0,0,1,0,3.32h0m-2.39,12.41a38.25,38.25,0,0,0,1.45-6.38l2.57-.32a33.75,33.75,0,0,1-2.4,6.51l-1.62.2" transform="translate(-1231.36 -4724.48)" fill="#2598d8"/><path d="M1241,4976l-0.07-2.68h-0.07a7.7,7.7,0,0,1-4-1.07l0.59-1.8a7.06,7.06,0,0,0,3.68,1h0.17c1.89-.05,3.13-1.17,3.09-2.68s-1.1-2.34-3.08-3.08c-2.74-1-4.44-2.17-4.5-4.48a4.36,4.36,0,0,1,3.9-4.38l-0.07-2.68,1.65,0,0.06,2.58a7.07,7.07,0,0,1,3.48.84l-0.62,1.77a6.38,6.38,0,0,0-3.18-.82h-0.19c-2,.05-2.78,1.29-2.76,2.36,0,1.38,1,2,3.37,2.94,2.76,1,4.18,2.39,4.24,4.76a4.62,4.62,0,0,1-4.08,4.62l0.07,2.76-1.67,0" transform="translate(-1231.36 -4724.48)" fill="#4246f7"/><path d="M1530.85,4892.72h-0.14c-2.34.06-4.17,2.31-4.1,4.89a1.76,1.76,0,0,0,1.74,2h0.06c1.54,0,2.9-2,3.15-3.69l0.48-3a4.58,4.58,0,0,0-1.19-.15m-2,12.77a7.9,7.9,0,0,1-8-8.08c-0.14-5.47,3.54-10.29,9.43-10.44h0.25a7.36,7.36,0,0,1,7.68,7.48c0.1,4-2.07,6.38-4.57,6.44h-0.06a2,2,0,0,1-2-2.29h-0.11a4.18,4.18,0,0,1-3.69,2.43h-0.07c-1.51,0-2.83-1.21-2.88-3.27a6.27,6.27,0,0,1,6.13-6.46h0.2a6.93,6.93,0,0,1,2.66.49l-0.78,4.83c-0.35,2,0,3,.87,3,1.35,0,2.82-1.85,2.74-4.93-0.1-3.78-2.39-6.45-6.36-6.45h-0.23c-4.33.11-7.88,3.63-7.74,9,0.11,4.35,3,7,6.8,7h0.21a8.31,8.31,0,0,0,4-1l0.45,1.13a9.64,9.64,0,0,1-4.7,1.18h-0.23" transform="translate(-1231.36 -4724.48)" fill="#4246f7"/><path d="M1514.3,4946.74l0-1.59,13.7-.35,0,1.59Zm0.13,5.2,0-1.59,13.7-.35,0,1.59-13.7.35" transform="translate(-1231.36 -4724.48)" fill="#4246f7"/><path d="M1323.33,4734.85l0-1.59,13.71-.35,0,1.59Zm0.13,5.2,0-1.59,13.7-.35,0,1.59-13.7.35" transform="translate(-1231.36 -4724.48)" fill="#4246f7"/><path d="M1501.48,5000.5l0-1.46h0.45c1.48-.06,2.1-0.87,2.06-2.36a16.55,16.55,0,0,0-.23-1.91,11.71,11.71,0,0,1-.26-2c0-1.7.68-2.62,1.84-2.94v-0.05c-1.18-.29-1.94-1.12-2-2.82a12.78,12.78,0,0,1,.16-2,15.4,15.4,0,0,0,.14-1.89c0-1.42-.61-2.23-2.13-2.23H1501l0-1.46h0.71c2.16,0,3.72,1,3.79,3.38a15.39,15.39,0,0,1-.16,2.21,16.4,16.4,0,0,0-.16,2.24c0,0.91.3,1.91,2.07,1.91h0.13l0,1.36c-1.88,0-2.12,1.2-2.1,2a14.25,14.25,0,0,0,.27,2.14,15.05,15.05,0,0,1,.27,2.17c0.07,2.68-1.58,3.68-3.76,3.74h-0.56" transform="translate(-1231.36 -4724.48)" fill="#4246f7"/><path d="M1266.89,4789.92c-2.16,0-3.72-1-3.78-3.38a15.36,15.36,0,0,1,.16-2.21,15.88,15.88,0,0,0,.16-2.24c0-.91-0.3-1.91-2.08-1.91h-0.12l0-1.35c1.89,0,2.12-1.2,2.1-2a14.69,14.69,0,0,0-.27-2.15,14.59,14.59,0,0,1-.27-2.17c-0.07-2.68,1.58-3.68,3.76-3.74h0.56l0,1.46h-0.45c-1.49.07-2.11,0.88-2.07,2.36a16.34,16.34,0,0,0,.24,1.91,12.19,12.19,0,0,1,.27,2c0,1.7-.68,2.62-1.84,2.94v0.05c1.18,0.29,1.94,1.12,2,2.82a12.21,12.21,0,0,1-.16,2,16,16,0,0,0-.14,1.89c0,1.43.61,2.23,2.13,2.23h0.51l0,1.46h-0.71" transform="translate(-1231.36 -4724.48)" fill="#4246f7"/><path d="M1389.59,5066.76a37.64,37.64,0,0,0,1.41-6.26l2.41-.33a30.75,30.75,0,0,1-2.33,6.36l-1.48.22m-3.93.1a37.72,37.72,0,0,0,1.41-6.25l2.38-.33a30.74,30.74,0,0,1-2.31,6.36l-1.48.22" transform="translate(-1231.36 -4724.48)" fill="#4246f7"/><polygon points="189.69 337.47 184.83 337.43 185.01 316.24 189.87 316.27 189.86 317.73 186.8 317.71 186.65 335.99 189.71 336.01 189.69 337.47" fill="#2598d8"/><path d="M1265.74,4952.12h-0.11c-2.34.05-4.17,2.3-4.11,4.88a1.76,1.76,0,0,0,1.74,2h0.06c1.54,0,2.9-2,3.16-3.68l0.49-3a4.69,4.69,0,0,0-1.22-.16m-2,12.77a7.9,7.9,0,0,1-8-8.1c-0.12-5.47,3.56-10.28,9.46-10.42h0.22a7.36,7.36,0,0,1,7.68,7.5c0.09,4-2.09,6.37-4.58,6.43h-0.06a2,2,0,0,1-2-2.29h-0.11a4.17,4.17,0,0,1-3.69,2.42h-0.07c-1.51,0-2.83-1.21-2.88-3.28a6.27,6.27,0,0,1,6.15-6.44h0.19a6.94,6.94,0,0,1,2.66.49L1268,4956c-0.35,2,0,3,.86,3,1.35,0,2.83-1.85,2.76-4.93-0.09-3.79-2.38-6.47-6.37-6.47H1265c-4.33.1-7.89,3.61-7.77,9,0.1,4.36,3,7,6.8,7h0.19a8.31,8.31,0,0,0,4-1l0.45,1.13a9.68,9.68,0,0,1-4.7,1.17h-0.2" transform="translate(-1231.36 -4724.48)" fill="#2598d8"/><path d="M1501.26,4794.76h-0.12c-2.34.06-4.17,2.3-4.11,4.88a1.76,1.76,0,0,0,1.75,2h0c1.54,0,2.91-2,3.16-3.69l0.49-3a4.55,4.55,0,0,0-1.22-.16m-2,12.77a7.9,7.9,0,0,1-8-8.1c-0.12-5.47,3.57-10.29,9.46-10.42h0.23a7.36,7.36,0,0,1,7.68,7.5c0.09,4-2.09,6.37-4.58,6.43H1504a2,2,0,0,1-2-2.29h-0.11a4.17,4.17,0,0,1-3.69,2.43h-0.06c-1.51,0-2.83-1.21-2.88-3.28a6.28,6.28,0,0,1,6.15-6.44h0.18a6.91,6.91,0,0,1,2.68.5l-0.79,4.83c-0.35,2,0,3,.86,3,1.36,0,2.83-1.85,2.76-4.92-0.09-3.79-2.38-6.47-6.37-6.47h-0.2c-4.33.1-7.89,3.61-7.77,9,0.1,4.36,3,7,6.79,7h0.19a8.28,8.28,0,0,0,4-1l0.45,1.13a9.67,9.67,0,0,1-4.7,1.17h-0.21" transform="translate(-1231.36 -4724.48)" fill="#4246f7"/><path d="M1457.63,4982.84l0.53-5.23-2.18.07,0-1.57,2.42-.07,0.39-3.86-2.28.07,0-1.57,2.52-.08,0.54-5.09,1.54,0-0.51,5.09,2.76-.08,0.54-5.09,1.57,0-0.51,5.09,2.18-.06,0,1.57-2.42.07-0.36,3.86,2.28-.07,0,1.57-2.52.07-0.53,5.23-1.59,0,0.54-5.23-2.76.08-0.54,5.23Zm5.08-6.93,0.39-3.86-2.76.08-0.39,3.86Z" transform="translate(-1231.36 -4724.48)" fill="#00ffb1"/><path d="M1508.81,4870.35l-2.76.08-0.39,3.86,2.76-.08Zm-5.47,10.8,0.53-5.23-2.18.07,0-1.57,2.42-.07,0.39-3.87-2.28.07,0-1.57,2.52-.08,0.54-5.09,1.54,0-0.51,5.09,2.76-.08,0.54-5.09,1.57,0-0.51,5.09,2.18-.07,0,1.57-2.42.07-0.36,3.87,2.28-.07,0,1.57-2.52.07-0.53,5.22-1.59,0,0.54-5.22-2.76.08-0.53,5.22-1.59,0" transform="translate(-1231.36 -4724.48)" fill="#2598d8"/><path d="M1312.36,5037.23h-0.06c-1.41,0-2.39,1.8-2.29,5,0.09,3.06,1.07,4.79,2.51,4.79h0.05c1.65,0,2.38-2,2.29-5s-0.88-4.79-2.5-4.79m0.05,11.08c-2.27,0-3.87-2.13-4-6s1.54-6.25,4-6.32h0.12c2.44,0,3.89,2.19,4,5.92,0.12,4-1.31,6.33-4,6.41h-0.11" transform="translate(-1231.36 -4724.48)" fill="#2598d8"/><polygon points="90.29 323.35 89.97 312.94 89.94 312.94 87.9 314.12 87.55 312.9 90.11 311.43 91.49 311.38 91.84 323.3 90.29 323.35" fill="#2598d8"/><path d="M1334.7,5070.31a1.15,1.15,0,0,1,0-2.29h0a1.08,1.08,0,0,1,1.08,1.12,1.07,1.07,0,0,1-1.07,1.17h0m0.19,6.47a1.15,1.15,0,0,1,0-2.29h0a1.08,1.08,0,0,1,1.08,1.12,1.07,1.07,0,0,1-1.07,1.17h0" transform="translate(-1231.36 -4724.48)" fill="#3b5aef"/><path d="M1338.5,5070.2a1.15,1.15,0,0,1,0-2.29h0a1.08,1.08,0,0,1,1.07,1.12,1.07,1.07,0,0,1-1.07,1.17h0m0.19,6.47a1.15,1.15,0,0,1,0-2.29h0a1.08,1.08,0,0,1,1.08,1.12,1.07,1.07,0,0,1-1.07,1.17h0" transform="translate(-1231.36 -4724.48)" fill="#3b5aef"/><path d="M1492.94,4822.35a1.07,1.07,0,0,1-1.08-1.1,1.09,1.09,0,0,1,1.07-1.19h0a1.08,1.08,0,0,1,1.08,1.12,1.07,1.07,0,0,1-1.07,1.17h0m0.19,6.47a1.15,1.15,0,0,1,0-2.29h0a1.08,1.08,0,0,1,1.08,1.12,1.07,1.07,0,0,1-1.06,1.17h0" transform="translate(-1231.36 -4724.48)" fill="#2598d8"/><path d="M1496.73,4822.24a1.15,1.15,0,0,1,0-2.29h0a1.08,1.08,0,0,1,1.08,1.12,1.07,1.07,0,0,1-1.07,1.17h0m0.19,6.47a1.15,1.15,0,0,1,0-2.29h0a1.08,1.08,0,0,1,1.08,1.12,1.07,1.07,0,0,1-1.07,1.17h0" transform="translate(-1231.36 -4724.48)" fill="#2598d8"/><polygon points="52.73 223.96 53.02 208.39 56.6 208.46 56.58 209.53 54.33 209.49 54.08 222.91 56.33 222.95 56.31 224.02 52.73 223.96" fill="#00ffb1"/><polygon points="65.05 208.6 64.76 224.18 61.19 224.11 61.21 223.04 63.45 223.08 63.7 209.65 61.46 209.6 61.48 208.53 65.05 208.6" fill="#00ffb1"/><path d="M1295.84,4992.2c-0.12,4.39-1.82,6.77-4.68,6.69-2.52-.07-4.16-2.48-4.08-6.75s2.06-6.66,4.68-6.59,4.2,2.54,4.09,6.65m-7,0c-0.09,3.36.89,5.29,2.47,5.34,1.79,0,2.7-2,2.79-5.31s-0.67-5.29-2.47-5.34c-1.53,0-2.69,1.79-2.79,5.31" transform="translate(-1231.36 -4724.48)" fill="#00ffb1"/><path d="M1279.76,4903.17l0-.52a4.56,4.56,0,0,1,1.21-3.44,4.37,4.37,0,0,0,1.37-2.73,1.66,1.66,0,0,0-1.9-1.7,3.53,3.53,0,0,0-2,.63l-0.49-1.25a5.21,5.21,0,0,1,2.83-.81c2.29,0,3.33,1.39,3.34,2.9,0,1.35-.74,2.33-1.68,3.47a3.92,3.92,0,0,0-1.11,2.93l0,0.52h-1.55Zm-0.42,2.78a1.17,1.17,0,0,1,1.18-1.26,1.24,1.24,0,1,1-1.18,1.26" transform="translate(-1231.36 -4724.48)" fill="#00ffb1"/><g clip-path="url(#clip-path)"><rect x="135.67" y="3.03" width="6.26" height="13.87" fill="#4a31ff"/><text transform="translate(134.75 16.69) rotate(-0.41)" font-size="19.87" fill="#3b5aef" font-family="Myriad Pro">?</text></g><path d="M1445.27,5071.1l0-.51a4.55,4.55,0,0,1,1.21-3.44,4.37,4.37,0,0,0,1.37-2.73,1.66,1.66,0,0,0-1.9-1.7,3.53,3.53,0,0,0-2,.63l-0.48-1.25a5.23,5.23,0,0,1,2.83-.81h0c2.26,0,3.29,1.39,3.3,2.89,0,1.35-.74,2.33-1.68,3.47a3.93,3.93,0,0,0-1.11,2.93l0,0.52h-1.55m0.75,4a1.24,1.24,0,0,1,0-2.48h0a1.24,1.24,0,0,1,0,2.48h0" transform="translate(-1231.36 -4724.48)" fill="#3b5aef"/><path d="M1307.1,5020.67v-0.52a4.56,4.56,0,0,1,1.41-3.37,4.36,4.36,0,0,0,1.53-2.65,1.66,1.66,0,0,0-1.79-1.8,3.53,3.53,0,0,0-2,.51l-0.41-1.27a5.19,5.19,0,0,1,2.88-.65c2.28,0.12,3.24,1.58,3.16,3.09-0.07,1.35-.87,2.28-1.89,3.36a3.93,3.93,0,0,0-1.28,2.86v0.52Zm-0.58,2.75a1.17,1.17,0,0,1,1.25-1.19,1.24,1.24,0,1,1-1.25,1.19" transform="translate(-1231.36 -4724.48)" fill="#00ffb1"/><path d="M1295,5024.62a1.24,1.24,0,0,1-1-.61,1.2,1.2,0,0,1,1-1.9,1.23,1.23,0,0,1,1,.61,1.2,1.2,0,0,1-1,1.89" transform="translate(-1231.36 -4724.48)" fill="#2598d8"/><path d="M1241.12,4863.55h-0.07c-1.67,0-2.83,1.48-2.78,3.7,0,1.86,1,3.39,2.85,3.39h0.07a2.56,2.56,0,0,0,2.38-1.84,3.09,3.09,0,0,0,.12-0.94l0-1.73a2.45,2.45,0,0,0-.12-0.79,2.52,2.52,0,0,0-2.42-1.79m-0.53,12.63a6.14,6.14,0,0,1-3.06-.72l0.41-1.34a5.39,5.39,0,0,0,2.7.69h0.14c1.79,0,3.08-1,3-3.43l0-1.07h0a3.43,3.43,0,0,1-3,1.68h-0.1c-2.34,0-4-2-4.1-4.59-0.08-3.26,2-5.16,4.21-5.21h0.11a3.18,3.18,0,0,1,2.93,1.6h0l0-1.45,1.53,0c0,0.69,0,1.47,0,2.64l0.13,5.58c0,2.2-.36,3.56-1.27,4.42a5.08,5.08,0,0,1-3.47,1.23h-0.16" transform="translate(-1231.36 -4724.48)" fill="#4246f7"/><path d="M1456.64,4749.88h-0.06c-1.67,0-2.83,1.48-2.78,3.7,0,1.86,1,3.39,2.84,3.39h0.08a2.55,2.55,0,0,0,2.38-1.85,3.06,3.06,0,0,0,.12-0.93l0-1.73a2.43,2.43,0,0,0-.12-0.79,2.52,2.52,0,0,0-2.42-1.79m-0.54,12.63a6.06,6.06,0,0,1-3-.72l0.41-1.34a5.37,5.37,0,0,0,2.69.69h0.15c1.79,0,3.08-1,3-3.43l0-1.07h0a3.43,3.43,0,0,1-3,1.68h-0.1c-2.33,0-4-2-4.1-4.59-0.08-3.26,2-5.15,4.21-5.21h0.11a3.18,3.18,0,0,1,2.93,1.6h0l0-1.45,1.53,0c0,0.7,0,1.47,0,2.64l0.13,5.58c0.05,2.21-.35,3.56-1.27,4.42a5.08,5.08,0,0,1-3.47,1.23h-0.17" transform="translate(-1231.36 -4724.48)" fill="#4246f7"/><path d="M1399.65,4768.54a38.1,38.1,0,0,0,1.43-6.25l2.41-.32a30.62,30.62,0,0,1-2.35,6.35l-1.48.22m-3.93.09a37.7,37.7,0,0,0,1.42-6.25l2.39-.32a30.87,30.87,0,0,1-2.33,6.35l-1.48.22" transform="translate(-1231.36 -4724.48)" fill="#2598d8"/><path d="M1289.07,4766.21l4.42-6.66-4.5-6.2,2.6-.06,1.9,2.72c0.49,0.71.91,1.36,1.35,2.07h0.08c0.41-.78.82-1.45,1.23-2.15l1.74-2.78,2.52-.06-4.24,6.32,4.67,6.54-2.66.06-2-2.85c-0.52-.73-1-1.44-1.43-2.2h-0.05c-0.41.78-.84,1.48-1.3,2.26l-1.79,2.94-2.58.06" transform="translate(-1231.36 -4724.48)" fill="#4246f7"/><path d="M1515.51,4846.24l4.42-6.66-4.5-6.19,2.6-.06,1.9,2.72c0.49,0.71.91,1.36,1.35,2.07h0.08c0.4-.78.81-1.45,1.23-2.15l1.74-2.78,2.52-.06-4.24,6.31,4.67,6.54-2.66.06-2-2.85c-0.52-.73-1-1.44-1.43-2.2h-0.05c-0.41.78-.84,1.48-1.3,2.26l-1.79,2.94-2.57.06" transform="translate(-1231.36 -4724.48)" fill="#3b5aef"/><path d="M1264.2,5009.79l4.42-6.66-4.5-6.19,2.6-.06,1.9,2.72c0.49,0.71.91,1.36,1.35,2.07h0.08c0.41-.78.82-1.45,1.23-2.15l1.74-2.78,2.52-.06-4.24,6.31,4.67,6.54-2.66.06-2-2.85c-0.52-.73-1-1.44-1.43-2.2h-0.05c-0.41.78-.84,1.48-1.3,2.26l-1.79,2.94-2.58.06" transform="translate(-1231.36 -4724.48)" fill="#2598d8"/><path d="M1336.47,4774.71l0-1.46h0.45c1.49-.06,2.1-0.87,2.07-2.36a15.59,15.59,0,0,0-.23-1.91,12.25,12.25,0,0,1-.26-2c0-1.7.69-2.62,1.85-2.94V4764c-1.18-.29-1.94-1.13-2-2.83a12.19,12.19,0,0,1,.17-2,15.66,15.66,0,0,0,.14-1.89c0-1.43-.6-2.24-2.13-2.24H1336l0-1.46h0.7c2.17,0,3.74,1,3.79,3.39a15.9,15.9,0,0,1-.16,2.21,15.91,15.91,0,0,0-.16,2.24c0,0.91.3,1.92,2.08,1.92h0.11l0,1.36c-1.89,0-2.12,1.19-2.1,2a15,15,0,0,0,.26,2.15,15,15,0,0,1,.26,2.17c0.06,2.68-1.59,3.68-3.77,3.73h-0.56" transform="translate(-1231.36 -4724.48)" fill="#2598d8"/><path d="M1475.11,4848.08l-0.06-.75a6.62,6.62,0,0,1,1.75-5c1.29-1.54,2-2.67,2-4,0-1.47-.94-2.45-2.76-2.46a5.14,5.14,0,0,0-2.91.91l-0.7-1.81a7.56,7.56,0,0,1,4.12-1.18c3.32,0,4.83,2,4.85,4.21,0,2-1.07,3.38-2.45,5a5.71,5.71,0,0,0-1.61,4.25l0,0.75Zm-0.61,4a1.71,1.71,0,0,1,1.72-1.83,1.81,1.81,0,1,1-1.72,1.83" transform="translate(-1231.36 -4724.48)" fill="#00ffb1"/><rect x="1450.04" y="4817.51" width="14.43" height="1.44" transform="translate(-1264.36 -4714.38) rotate(-0.39)" fill="#00ffb1"/><polygon points="192.76 68.1 192.81 74.88 199.33 74.84 199.34 76.57 192.82 76.61 192.87 83.45 191.02 83.47 190.97 76.63 184.45 76.67 184.44 74.94 190.96 74.9 190.91 68.12 192.76 68.1" fill="#00ffb1"/></svg>