<svg id="Warstwa_1" data-name="Warstwa 1" xmlns="http://www.w3.org/2000/svg" viewBox="0 0 474.14 117.08"><title>wdi-logo-footer</title><path d="M901.21,2118H885.78a3.32,3.32,0,0,0-3.31,3.31v21.39c-5.6-14.86-19.83-24.92-36.81-24.92H816.57a5.27,5.27,0,0,0-4.41,3.31l-13.34,37.81-9.92-37.7a4.57,4.57,0,0,0-4.19-3.31H769.06a4.57,4.57,0,0,0-4.19,3.31l-9.92,38-13.55-38.14a5.28,5.28,0,0,0-4.41-3.31H721.56a2.29,2.29,0,0,0-2.21,3.31l24.91,70.55a5.21,5.21,0,0,0,3.19,3.09,2.62,2.62,0,0,0,1.33.33h15.43a4.84,4.84,0,0,0,4.19-3.31l8.49-32.3,8.49,32.3a4.84,4.84,0,0,0,4.18,3.31H805a2.32,2.32,0,0,0,1.76-.66,4.77,4.77,0,0,0,2.54-2.75l8.08-22.89v23.09a3.26,3.26,0,0,0,3.32,3.32h24.7a39.28,39.28,0,0,0,37.07-25.09v21.78a3.25,3.25,0,0,0,3.31,3.31h15.43a3.31,3.31,0,0,0,3.31-3.31v-70.55a3.39,3.39,0,0,0-3.31-3.31m-36.4,46.15h-15v15h-15v-15h15v-15h-15v-15h15v15h15v15Z" transform="translate(-719.15 -2078.07)" fill="#fff"/><rect x="179.88" y="10.37" width="10.37" height="10.37" fill="#fff"/><rect x="159.14" y="10.37" width="10.37" height="10.37" fill="#fff"/><rect x="169.5" y="20.75" width="10.37" height="10.37" fill="#fff"/><rect x="169.5" width="10.37" height="10.37" fill="#fff"/><polygon points="211.43 51.52 215.52 51.52 217.61 63.73 220.77 51.52 224.08 51.52 227.19 63.98 229.34 51.52 233.22 51.52 229.34 71.17 225.28 71.17 222.32 58.34 219.22 71.17 215.52 71.17 211.43 51.52" fill="#fff"/><path d="M960.64,2129.59h3.71l7.47,19.65h-4.36L965.7,2145h-7l-1.36,4.27h-4.29ZM960,2141.22l4.52,0-2.32-6.61Z" transform="translate(-719.15 -2078.07)" fill="#fff"/><path d="M974.33,2129.59h9.33a6.27,6.27,0,0,1,4.93,1.92,7,7,0,0,1,1.54,5.21q-0.18,3.29-3.66,5l3.72,7.56h-4.58l-3.5-7-3.89,0v7h-3.88v-19.65Zm3.88,3.9v5.06h5.06a3,3,0,0,0,2.09-.73,2.4,2.4,0,0,0,.82-1.89,2.16,2.16,0,0,0-.82-1.8,3.09,3.09,0,0,0-2-.64h-5.17Z" transform="translate(-719.15 -2078.07)" fill="#fff"/><path d="M996.47,2143.49a7.7,7.7,0,0,0,4.59,2.27q2.44,0.23,3.34-.82a1.87,1.87,0,0,0,.41-2.12q-0.49-1.07-4.65-1.92t-5.26-3.38a5.71,5.71,0,0,1,.46-5.32q1.57-2.8,5.76-2.91a10.26,10.26,0,0,1,7.5,3l-2.79,2.79a7.59,7.59,0,0,0-4.65-1.89c-1.56,0-2.42.5-2.59,1.54s0.66,1.77,2.5,2.15a23.24,23.24,0,0,1,5.2,1.74,4.68,4.68,0,0,1,2.71,4.13,5.75,5.75,0,0,1-1.6,4.83,7.26,7.26,0,0,1-5.12,2,11.72,11.72,0,0,1-5.46-.93,6.84,6.84,0,0,1-3.07-2.47Z" transform="translate(-719.15 -2078.07)" fill="#fff"/><polygon points="294 51.52 308.8 51.52 308.8 55.21 298.29 67.67 308.99 67.67 308.99 71.17 293.42 71.17 293.42 67.67 303.93 55.21 294 55.21 294 51.52" fill="#fff"/><path d="M1037.86,2129.59h3.71l7.47,19.65h-4.37l-1.76-4.27h-7l-1.36,4.27h-4.3Zm-0.62,11.63,4.52,0-2.31-6.61Z" transform="translate(-719.15 -2078.07)" fill="#fff"/><polygon points="330.46 51.52 334.55 51.52 336.64 63.73 339.8 51.52 343.11 51.52 346.22 63.98 348.36 51.52 352.25 51.52 348.36 71.17 344.32 71.17 341.34 58.34 338.24 71.17 334.55 71.17 330.46 51.52" fill="#fff"/><path d="M1077,2143.49a7.7,7.7,0,0,0,4.59,2.27c1.63,0.15,2.74-.12,3.34-0.82a1.86,1.86,0,0,0,.41-2.12q-0.49-1.07-4.66-1.92t-5.25-3.38a5.71,5.71,0,0,1,.46-5.32q1.57-2.8,5.75-2.91a10.28,10.28,0,0,1,7.51,3l-2.79,2.79a7.6,7.6,0,0,0-4.65-1.89c-1.55,0-2.41.5-2.59,1.54s0.66,1.77,2.49,2.15a23.26,23.26,0,0,1,5.21,1.74,4.68,4.68,0,0,1,2.7,4.13,5.75,5.75,0,0,1-1.6,4.83,7.27,7.27,0,0,1-5.11,2,11.72,11.72,0,0,1-5.47-.93,6.85,6.85,0,0,1-3.07-2.47Z" transform="translate(-719.15 -2078.07)" fill="#fff"/><polygon points="373.91 51.52 377.81 51.52 377.83 60.01 384.73 51.52 389.55 51.52 383.79 58.33 390.95 71.17 386.25 71.17 380.89 61.75 377.83 65.31 377.83 71.17 373.91 71.17 373.91 51.52" fill="#fff"/><rect x="393.69" y="51.52" width="3.88" height="19.65" fill="#fff"/><polygon points="401.83 51.52 415.25 51.52 415.25 55.42 405.71 55.42 405.71 58.92 411.37 58.92 411.37 62.61 405.71 62.61 405.71 67.48 415.82 67.48 415.82 71.17 401.82 71.17 401.83 51.52" fill="#fff"/><path d="M1149.8,2129.61h5.92a11.41,11.41,0,0,1,6.77,1.95q2.94,2,3,7.61t-3.11,7.85a10.61,10.61,0,0,1-6.07,2.24h-6.5v-19.65Zm3.88,3.89v11.92h3.14a4.69,4.69,0,0,0,3.08-1.42q1.57-1.43,1.63-4.62t-1.55-4.54a4.63,4.63,0,0,0-2.8-1.34h-3.5Z" transform="translate(-719.15 -2078.07)" fill="#fff"/><polygon points="449.78 51.54 453.67 51.54 462.1 63.4 462.1 51.54 466 51.54 466 71.19 462.1 71.19 453.67 58.28 453.67 71.19 449.78 71.19 449.78 51.54" fill="#fff"/><rect x="470.25" y="51.54" width="3.88" height="19.65" fill="#fff"/><rect x="211.72" y="87.82" width="3.88" height="19.65" fill="#fff"/><polygon points="219.85 87.82 223.74 87.82 232.17 99.68 232.17 87.82 236.07 87.82 236.07 107.47 232.17 107.47 223.74 94.56 223.74 107.47 219.85 107.47 219.85 87.82" fill="#fff"/><polygon points="240.13 87.82 254.14 87.82 254.14 91.71 244.02 91.71 244.02 95.41 249.87 95.41 249.87 99.3 244.02 99.3 244.02 107.47 240.13 107.47 240.13 87.82" fill="#fff"/><path d="M983.89,2165.54a8.37,8.37,0,0,1,5.93,2.53q2.5,2.47,2.56,7.59t-2.65,7.76a8.42,8.42,0,0,1-6.6,2.44,7.65,7.65,0,0,1-6-3,11.68,11.68,0,0,1-2-7.47,10,10,0,0,1,2.71-7.27,8.39,8.39,0,0,1,6.1-2.59m-4.77,10.18a7.55,7.55,0,0,0,1.25,4.42,4,4,0,0,0,3.43,1.83,3.77,3.77,0,0,0,3.37-1.71,7.73,7.73,0,0,0,1.19-4.45,7.62,7.62,0,0,0-1.25-4.48,4,4,0,0,0-3.43-1.77,3.83,3.83,0,0,0-3.37,1.77,7.73,7.73,0,0,0-1.19,4.39" transform="translate(-719.15 -2078.07)" fill="#fff"/><path d="M995.48,2165.89h9.33a6.27,6.27,0,0,1,4.93,1.91,6.94,6.94,0,0,1,1.54,5.21q-0.18,3.28-3.66,5l3.72,7.56h-4.58l-3.51-7-3.9,0v7h-3.87v-19.65Zm3.87,3.89v5.06h5.06a3,3,0,0,0,2.1-.72,2.42,2.42,0,0,0,.81-1.89,2.17,2.17,0,0,0-.81-1.81,3.16,3.16,0,0,0-2-.64h-5.18Z" transform="translate(-719.15 -2078.07)" fill="#fff"/><polygon points="295.75 87.82 299.44 87.82 304.8 99.85 310.21 87.82 314.04 87.82 314.04 107.47 310.14 107.47 310.14 96.38 304.75 107.76 299.45 96.6 299.45 107.47 295.75 107.47 295.75 87.82" fill="#fff"/><path d="M1042.89,2165.89h3.71l7.47,19.65h-4.36l-1.76-4.27h-7l-1.36,4.27h-4.29Zm-0.62,11.62,4.52,0-2.31-6.61Z" transform="translate(-719.15 -2078.07)" fill="#fff"/><polygon points="336.26 87.82 351.43 87.82 351.43 91.71 345.79 91.71 345.79 107.47 341.71 107.47 341.71 91.71 336.26 91.71 336.26 87.82" fill="#fff"/><polygon points="352.48 87.82 357.07 87.82 362.07 96.13 367 87.82 371.44 87.82 364.08 99.88 364.08 107.47 359.99 107.47 359.99 99.69 352.48 87.82" fill="#fff"/><polygon points="373.41 87.82 377.31 87.82 377.34 96.31 384.23 87.82 389.06 87.82 383.3 94.62 390.45 107.47 385.75 107.47 380.39 98.05 377.34 101.6 377.34 107.47 373.41 107.47 373.41 87.82" fill="#fff"/><rect x="393.19" y="87.82" width="3.88" height="19.65" fill="#fff"/><rect x="211.43" y="77.88" width="11.7" height="3.08" fill="#fff"/><rect x="211.43" y="114" width="11.7" height="3.08" fill="#fff"/><rect x="211.43" y="41.75" width="11.7" height="3.08" fill="#fff"/><path d="M1119.49,2183.25a2.58,2.58,0,0,1,2.64-2.73,2.72,2.72,0,0,1,0,5.43,2.57,2.57,0,0,1-2.61-2.7" transform="translate(-719.15 -2078.07)" fill="#fff"/><path d="M1127.59,2166.11a36.47,36.47,0,0,1,6-.41c2.76,0,4.73.53,6,1.59a5.78,5.78,0,0,1,2.11,4.58,6.35,6.35,0,0,1-1.82,4.7,9.18,9.18,0,0,1-6.43,2.08,11.56,11.56,0,0,1-1.53-.09v7.07h-4.43v-19.52Zm4.43,9a6.83,6.83,0,0,0,1.49.12c2.38,0,3.85-1.2,3.85-3.23,0-1.82-1.26-2.91-3.49-2.91a7.62,7.62,0,0,0-1.85.17v5.84Z" transform="translate(-719.15 -2078.07)" fill="#fff"/><polygon points="425.5 87.77 429.99 87.77 429.99 103.8 437.86 103.8 437.86 107.55 425.5 107.55 425.5 87.77" fill="#fff"/></svg>