<?xml version="1.0" encoding="utf-8"?>
<!-- Generator: Adobe Illustrator 16.0.0, SVG Export Plug-In . SVG Version: 6.00 Build 0)  -->
<!DOCTYPE svg PUBLIC "-//W3C//DTD SVG 1.1//EN" "http://www.w3.org/Graphics/SVG/1.1/DTD/svg11.dtd" [
	<!ENTITY ns_extend "http://ns.adobe.com/Extensibility/1.0/">
	<!ENTITY ns_ai "http://ns.adobe.com/AdobeIllustrator/10.0/">
	<!ENTITY ns_graphs "http://ns.adobe.com/Graphs/1.0/">
	<!ENTITY ns_vars "http://ns.adobe.com/Variables/1.0/">
	<!ENTITY ns_imrep "http://ns.adobe.com/ImageReplacement/1.0/">
	<!ENTITY ns_sfw "http://ns.adobe.com/SaveForWeb/1.0/">
	<!ENTITY ns_custom "http://ns.adobe.com/GenericCustomNamespace/1.0/">
	<!ENTITY ns_adobe_xpath "http://ns.adobe.com/XPath/1.0/">
]>
<svg version="1.1" id="Layer_1" xmlns:x="&ns_extend;" xmlns:i="&ns_ai;" xmlns:graph="&ns_graphs;"
	 xmlns="http://www.w3.org/2000/svg" xmlns:xlink="http://www.w3.org/1999/xlink" x="0px" y="0px" width="143px" height="80px"
	 viewBox="-13.66 -14.971 143 80" enable-background="new -13.66 -14.971 143 80" xml:space="preserve">
<metadata>
	<sfw  xmlns="&ns_sfw;">
		<slices></slices>
		<sliceSourceBounds  width="114.672" height="50.078" x="527.177" y="375.465" bottomLeftOrigin="true"></sliceSourceBounds>
	</sfw>
</metadata>
<g id="Group_2440" transform="translate(-1425.317 -5435.815)">
	
		<linearGradient id="Path_1740_1_" gradientUnits="userSpaceOnUse" x1="897.7184" y1="5621.2949" x2="897.8283" y2="5622.1343" gradientTransform="matrix(13.583 0 0 -25.522 -10746.4746 148943.5625)">
		<stop  offset="0" style="stop-color:#FFFFFF"/>
		<stop  offset="0.47" style="stop-color:#FFFFFF"/>
		<stop  offset="1" style="stop-color:#FFFFFF"/>
	</linearGradient>
	<path id="Path_1740" fill="url(#Path_1740_1_)" stroke="#FFFFFF" stroke-width="0.056" stroke-miterlimit="2.613" d="
		M1454.783,5453.578l-10.748,7.463l-2.835,18.059l10.748-7.463L1454.783,5453.578z"/>
	
		<linearGradient id="Path_1741_1_" gradientUnits="userSpaceOnUse" x1="897.2794" y1="5645.8018" x2="897.7994" y2="5646.5337" gradientTransform="matrix(10.733 0 0 -28.4292 -8175.334 165983.9219)">
		<stop  offset="0" style="stop-color:#FFFFFF"/>
		<stop  offset="0.47" style="stop-color:#FFFFFF"/>
		<stop  offset="1" style="stop-color:#FFFFFF"/>
	</linearGradient>
	<path id="Path_1741" fill="url(#Path_1741_1_)" stroke="#FFFFFF" stroke-width="0.056" stroke-miterlimit="2.613" d="
		M1455.345,5453.679l8.006,10.35l-2.728,18.079l-8.006-10.351L1455.345,5453.679z"/>
	
		<linearGradient id="Path_1742_1_" gradientUnits="userSpaceOnUse" x1="897.8043" y1="5733.9229" x2="898.4563" y2="5735.3906" gradientTransform="matrix(27.0468 0 0 -48.3638 -22854.8789 282809.4375)">
		<stop  offset="0" style="stop-color:#FFFFFF"/>
		<stop  offset="0.49" style="stop-color:#FFFFFF"/>
		<stop  offset="1" style="stop-color:#FFFFFF"/>
	</linearGradient>
	<path id="Path_1742" fill="url(#Path_1742_1_)" stroke="#FFFFFF" stroke-width="0.056" stroke-miterlimit="2.613" d="
		M1438.144,5475.784l0.056,0.058l0.056,0.056l0.057,0.112l0.056,0.057l0.057,0.057l0.056,0.057l0.056,0.057l0.056,0.057l0.056,0.111
		l0.056,0.058l0.056,0.056l0.056,0.058l0.057,0.056l0.056,0.113l0.056,0.057l0.056,0.056l0.056,0.058l0.056,0.056l0.056,0.112
		l0.056,0.057l0.056,0.057l0.056,0.057l0.057,0.113l0.056,0.056l0.056,0.056l0.056,0.058l0.056,0.056l0.056,0.113l0.056,0.057
		l0.056,0.057l0.056,0.057l0.056,0.056l0.056,0.112l0.056,0.058l0.056,0.056l0.056,0.057l0.057,0.057l0.056,0.057l0.057,0.113
		l0.056,0.056l0.056,0.058l0.056,0.111h0.113v0.113l0.056,0.057l0.056,0.057l0.057,0.112l0.056,0.056l0.056,0.057l0.056,0.057
		l0.056,0.057l0.056,0.113l0.056,0.056l0.056,0.058l0.056,0.056l0.056,0.056l0.057,0.113l0.056,0.057l0.056,0.057l0.056,0.057
		l0.056,0.057l0.056,0.057l0.056,0.112l0.056,0.056l0.056,0.057l0.056,0.113h0.113v0.112l0.056,0.056l0.056,0.058l0.057,0.112
		l0.056,0.057l0.056,0.057l0.057,0.057l0.056,0.057l0.056,0.112l0.056,0.056l0.056,0.057l0.056,0.057l0.056,0.057l0.056,0.057
		l0.056,0.112l0.056,0.058l0.056,0.056l0.056,0.056l0.056,0.058l0.056,0.112l0.056,0.057l0.057,0.057l0.056,0.112l0.057,0.056
		l0.056,0.058l0.057,0.056l0.056,0.057l0.056,0.113l0.056,0.056l0.056,0.058l0.056,0.056l0.056,0.058l0.056,0.056l0.056,0.112
		l0.056,0.057l0.056,0.057l0.056,0.057l0.056,0.057l0.056,0.112l0.056,0.056l0.056,0.058l0.057,0.056l0.056,0.058l0.057,0.112
		l0.056,0.057l0.056,0.057l0.056,0.056l0.056,0.112l0.056,0.058l0.057,0.056l0.056,0.057l0.056,0.057l0.056,0.112l0.056,0.058
		l0.056,0.056l0.056,0.056l0.056,0.058h0.113l0.057-0.112l0.056-0.17l0.056-0.168l0.056-0.17l0.056-0.112l0.056-0.169l0.056-0.169
		l0.056-0.169l0.057-0.169l0.056-0.169l0.056-0.169l0.056-0.112l0.056-0.226l0.056-0.112l0.057-0.226l0.056-0.169l0.057-0.113
		l0.056-0.168l0.057-0.17l0.056-0.168l0.056-0.17l0.056-0.168l0.056-0.17l0.056-0.111l0.057-0.169l0.056-0.169l0.056-0.169
		l0.056-0.226l0.056-0.168l0.056-0.113l0.056-0.169l0.056-0.169l0.057-0.169l0.056-0.169l0.056-0.169l0.056-0.112l0.056-0.17
		l0.056-0.168l0.056-0.17l0.056-0.225l0.056-0.113l0.056-0.168l0.057-0.113l0.056-0.225l0.056-0.17l0.056-0.168l0.056-0.17
		l0.056-0.112l0.057-0.169l0.056-0.169l0.057-0.169l0.056-0.169v-0.056l0.056-0.113l0.056-0.169l0.056-0.112l0.056-0.17l0.056-0.226
		l0.056-0.169l0.056-0.169l0.056-0.112l0.056-0.17l0.056-0.168l0.056-0.17l0.056-0.168l0.056-0.17l0.056-0.168l0.057-0.113
		l0.056-0.169l0.056-0.169l0.056-0.169l0.057-0.226l0.056-0.17l0.056-0.112l0.056-0.169l0.056-0.169l0.056-0.169l0.056-0.169
		l0.056-0.169l0.056-0.113l0.056-0.168l0.056-0.17l0.056-0.168l0.056-0.17l0.056-0.225l0.056-0.057l0.056-0.226l0.056-0.112
		l0.056-0.226l0.056-0.169l0.056-0.169v-0.058l0.057-0.056l0.056-0.169l0.056-0.169l0.056-0.169l0.056-0.169l0.056-0.169
		l0.057-0.169l0.056-0.112l0.056-0.17l0.056-0.168l0.056-0.226l0.057-0.169l0.056-0.113l0.056-0.168l0.056-0.17l0.056-0.168
		l0.056-0.17l0.056-0.168l0.056-0.17l0.056-0.112l0.056-0.169l0.056-0.169l0.056-0.226l0.056-0.168l0.056-0.17l0.056-0.111
		l0.056-0.113l0.056-0.226l0.057-0.169l0.056-0.169l0.056-0.169l0.056-0.113l0.056-0.168v-0.17h0.056l0.056-0.168l0.056-0.17
		l0.056-0.168l0.056-0.113v-0.113l-0.056-0.056l-0.056-0.112l-0.056-0.113l-0.056-0.111l-0.056-0.058l-0.056-0.112l-0.056-0.057
		l-0.056-0.113l-0.056-0.056l-0.057-0.112l-0.056-0.057l-0.056-0.113l-0.056-0.056l-0.056-0.112l-0.056-0.057l-0.056-0.113
		l-0.056-0.112l-0.056-0.056l-0.056-0.058l-0.056-0.112l-0.056-0.112l-0.056-0.057l-0.056-0.112l-0.056-0.113l-0.056-0.056
		l-0.056-0.057l-0.057-0.112l-0.056-0.113l-0.056-0.113l-0.056-0.056l-0.056-0.113l-0.057-0.056l-0.056-0.113l-0.056-0.057
		l-0.056-0.112l-0.056-0.113l-0.056-0.056l-0.057-0.057l-0.056-0.112l-0.056-0.113l-0.056-0.057l-0.056-0.112l-0.056-0.113
		l-0.056-0.056l-0.056-0.057l-0.056-0.113l-0.056-0.112l-0.056-0.057l-0.056-0.112l-0.056-0.057l-0.056-0.112l-0.056-0.057
		l-0.056-0.113l-0.056-0.112l-0.056-0.057l-0.056-0.056l-0.056-0.113l-0.057-0.113l-0.056-0.056l-0.056-0.113l-0.056-0.112h-0.113
		v-0.113l-0.056-0.113l-0.056-0.113l-0.056-0.056l-0.056-0.113l-0.056-0.056l-0.056-0.057l-0.056-0.112l-0.056-0.057v-0.056
		l-0.056-0.113l-0.056-0.056l-0.056-0.113l-0.056-0.056l-0.056-0.057l-0.056-0.112l-0.057-0.113l-0.056-0.057l-0.057-0.112
		l-0.056-0.057l-0.056-0.112l-0.056-0.057l-0.056-0.113l-0.056-0.056l-0.057-0.113l-0.056-0.056l-0.056-0.113l-0.056-0.056
		l-0.056-0.113l-0.056-0.113l-0.056-0.056l-0.056-0.056l-0.056-0.113l-0.056-0.113l-0.057-0.056l-0.056-0.113l-0.056-0.056
		l-0.056-0.113l-0.056-0.057l-0.056-0.112l-0.056-0.057l-0.056-0.112l-0.057-0.057l-0.056-0.056l-0.056-0.113l-0.056-0.112
		l-0.056-0.057l-0.056-0.113l-0.057-0.056l-0.056-0.113l-0.057-0.056l-0.056-0.113l-0.057-0.056l-0.056-0.113l-0.056-0.056
		l-0.056-0.113l-0.056-0.057l-0.056-0.112l-0.057-0.057l-0.056-0.112l-0.056-0.057l-0.056-0.113l-0.056-0.056l-0.056-0.056
		l-0.056-0.113l-0.056-0.056v-0.057l-0.057-0.056l-0.056-0.113l-0.056-0.056l-0.056-0.057l-0.056-0.112l-0.056-0.057l-0.056-0.113
		l-0.056-0.056l-0.056-0.113l-0.056-0.056l-0.057-0.113l-0.056-0.056l-0.056-0.113l-0.056-0.056l-0.056-0.056l-0.056-0.113
		l-0.057-0.057l-0.056-0.113l-0.057-0.056l-0.056-0.113l-0.056-0.056l-0.056-0.056l-0.056-0.113l-0.056-0.057l-0.056-0.112
		l-0.056-0.113l-0.056-0.056l-0.056-0.057l-0.056-0.112l-0.056-0.057l-0.056-0.113l-0.056-0.056l-0.056-0.056l-0.056-0.113
		l-0.057-0.056l-0.056-0.057l-0.057-0.113l-0.056-0.112l-0.057-0.057l-0.056-0.056l-0.056-0.056l-0.056-0.113l-0.056-0.113
		l-0.056-0.056l-0.056-0.057l-0.056-0.056l-0.056-0.113l-0.056-0.056l-0.056-0.113l-0.056-0.056l-0.056-0.113l-0.056-0.056
		l-0.056-0.057l-0.057-0.056l-0.056-0.113l-0.056-0.113l-0.057-0.056l-0.056-0.056l-0.056-0.057l-0.056-0.113l-0.056-0.056
		l-0.056-0.113l-0.056-0.056l-0.056-0.056l-0.056-0.113l-0.056-0.056l-0.056-0.057l-0.056-0.113l-0.056-0.056l-0.056-0.056
		l-0.057-0.057l-0.056-0.112l-0.056-0.057l-0.056-0.113l-0.056-0.056l-0.056-0.056l-0.056-0.057l-0.056-0.112l-0.056-0.057
		l-0.056-0.113l-0.057-0.056l-0.056-0.056l-0.056-0.057l-0.056-0.112l-0.056-0.057l-0.056-0.056l-0.056-0.113l-0.056-0.056
		l-0.057-0.057l-0.056-0.112l-0.057-0.057l-0.056-0.112l-0.056-0.057l-0.056-0.056l-0.056-0.057l-0.056-0.056l-0.056-0.113
		l-0.056-0.056l-0.056-0.057l-0.056-0.056v-0.056l-0.056-0.057l-0.056-0.056l-0.056-0.056l-0.056-0.113l-0.057-0.056l-0.056-0.057
		l-0.056-0.056l-0.056-0.113l-0.056-0.056l-0.056-0.057l-0.056-0.113l-0.056-0.056l-0.056-0.056l-0.056-0.057l-0.057-0.056
		l-0.056-0.113l-0.056-0.056l-0.056-0.056l-0.056-0.057l-0.056-0.056l-0.056-0.057l-0.056-0.112l-0.057-0.057l-0.056-0.056
		l-0.057-0.057l-0.056-0.056l-0.056-0.056l-0.056-0.113l-0.056-0.056l-0.056-0.057l-0.056-0.056l-0.056-0.056l-0.056-0.057
		l-0.056-0.056l-0.056-0.113l-0.056-0.056l-0.056-0.057l-0.056-0.056l-0.057-0.056l-0.056-0.057l-0.056-0.056l-0.056-0.113
		l-0.056-0.056l-0.056-0.057l-0.056-0.056l-0.056-0.056l-0.056-0.057l-0.056-0.056l-0.057-0.056l-0.056-0.057l-0.056-0.056
		l-0.056-0.056l-0.056-0.113l-0.056-0.057l-0.056-0.056l-0.056-0.056l-0.057-0.057l-0.056-0.056l-0.056-0.057l-0.056-0.056
		l-0.056-0.056l-0.056-0.057l-0.056-0.056l-0.056-0.057l-0.056-0.056l-0.056-0.056l-0.056-0.057l-0.056-0.056l-0.056-0.056
		l-0.056-0.057l-0.056-0.056l-0.056-0.056l-0.057-0.057l-0.056-0.056l-0.057-0.057l-0.056-0.056l-0.056-0.056l-0.056-0.057
		l-0.057-0.056l-0.056-0.056l-0.056-0.057l-0.056-0.056l-0.056-0.057l-0.056-0.056l-0.056-0.056l-0.056-0.057l-0.056-0.056
		l-0.113-0.056l-0.056-0.113l-0.056-0.057l-0.056-0.056l-0.113-0.056l-0.057-0.057l-0.056-0.056l-0.056-0.056l-0.056-0.057
		l-0.056-0.056l-0.113-0.056l-0.056-0.057l-0.057-0.056l-0.056-0.057l-0.056-0.056l-0.113-0.056l-0.056-0.057l-0.057-0.056
		l-0.056-0.056l-0.113-0.057l-0.057-0.056l-0.056-0.057l-0.056-0.056l-0.113-0.056h-0.113v-0.113l-0.113-0.057l-0.056-0.056
		l-0.113-0.056l-0.056-0.057l-0.113-0.056l-0.056-0.056l-0.057-0.057l-0.113-0.056l-0.056-0.056l-0.113-0.057l-0.113-0.056
		l-0.057-0.057l-0.113-0.056l-0.056-0.056l-0.113-0.057l-0.113-0.056l-0.113-0.056l-0.113-0.057l-0.113-0.056l-0.113-0.057
		l-0.113-0.056l-0.169-0.056l-0.113-0.057l-0.113-0.056l-0.169-0.056l-0.169-0.057l-0.169-0.056l-0.282-0.057l-0.282-0.056h-1.3
		l-0.282,0.056l-0.225,0.057l-0.169,0.056l-0.113,0.057l-0.113,0.056l-0.113,0.056l-0.056,0.057l-0.113,0.056l-0.113,0.056
		l-0.056,0.057l-0.113,0.056l-0.056,0.057l-0.056,0.056l-0.113,0.056l-0.056,0.057l-0.056,0.056l-0.056,0.056l-0.056,0.057
		l-0.056,0.056l-0.056,0.057l-0.056,0.056l-0.057,0.056l-0.056,0.113l-0.056,0.056l-0.056,0.057l-0.056,0.056l-0.056,0.056
		l-0.056,0.113l-0.056,0.057l-0.056,0.056l-0.056,0.113l-0.057,0.056l-0.056,0.113l-0.056,0.056l-0.056,0.113v0.451l0.056,0.225
		l0.056,0.282l0.056,0.226l0.057,0.225l0.056,0.226l0.056,0.169l0.056,0.282l0.056,0.225l0.056,0.282l0.056,0.226l0.056,0.225
		l0.056,0.169l0.056,0.282l0.057,0.226l0.056,0.282l0.056,0.225l0.056,0.225l0.056,0.169l0.056,0.282l0.056,0.226l0.056,0.282
		l0.056,0.225l0.056,0.282l0.056,0.113l0.056,0.282l0.056,0.056v0.169l0.056,0.282l0.056,0.226l0.056,0.281l0.056,0.113l0.056,0.282
		l0.056,0.226l0.056,0.281l0.056,0.282l0.056,0.226l0.056,0.169l0.056,0.225l0.057,0.282l0.056,0.282l0.056,0.226l0.056,0.282
		l0.057,0.112l0.056,0.282l0.056,0.282l0.056,0.225l0.056,0.282l0.056,0.226l0.056,0.282l0.056,0.169l0.056,0.225l0.056,0.282
		l0.056,0.226l0.056,0.282l0.056,0.225l0.056,0.169l0.056,0.282l0.056,0.282l0.056,0.113v0.112l0.056,0.282l0.056,0.282l0.056,0.113
		l0.056,0.282l0.056,0.281l0.056,0.282l0.056,0.225l0.056,0.282l0.056,0.169l0.056,0.225l0.056,0.282l0.056,0.282l0.056,0.282
		l0.056,0.225l0.056,0.169l0.056,0.281l0.056,0.226l0.056,0.282l0.056,0.225v0.057l0.056,0.282l0.056,0.112l0.056,0.282l0.056,0.282
		l0.056,0.282l0.056,0.282l0.057,0.225l0.056,0.226l0.056,0.225l0.056,0.226l0.056,0.282l0.056,0.281l0.056,0.282l0.056,0.226
		l0.056,0.169l0.056,0.282l0.056,0.281l0.056,0.283l0.056,0.281l0.056,0.227l0.056,0.169l0.056,0.282l0.056,0.282l0.056,0.28
		l0.057,0.283l0.056,0.281l0.056,0.113l0.056,0.169v0.112l0.056,0.283l0.056,0.281l0.057,0.281l0.056,0.282l0.056,0.169l0.056,0.282
		l0.057,0.282l0.056,0.282l0.056,0.226l0.056,0.281l0.056,0.17l0.056,0.281l0.057,0.283l0.056,0.281l0.056,0.283l0.056,0.225
		l0.056,0.169l0.056,0.282l0.056,0.282l0.056,0.058l0.057,0.056l0.056,0.056l0.056,0.058l0.056,0.056l0.056,0.057l0.056,0.113h0.056
		v0.057l0.056,0.057l0.056,0.056l0.056,0.058l0.057,0.056l0.056,0.112l0.056,0.057l0.056,0.057l0.056,0.057l0.056,0.057l0.057,0.057
		l0.056,0.057l0.056,0.112l0.056,0.056l0.057,0.058l0.056,0.056l0.056,0.057l0.056,0.113l0.056,0.056l0.056,0.058l0.057,0.056
		l0.056,0.058l0.056,0.056l0.056,0.112l0.056,0.057l0.056,0.057l0.056,0.057l0.056,0.057l0.057,0.056l0.056,0.112l0.056,0.058
		l0.056,0.056l0.056,0.057l0.056,0.057l0.056,0.057l0.056,0.113l0.056,0.056l0.056,0.058l0.056,0.111l0.113,0.057l0.056,0.112
		l0.056,0.058l0.056,0.056l0.057,0.112l0.056,0.057h0.113v0.113l0.057,0.057l0.056,0.057l0.057,0.112l0.056,0.056h0.113v0.113
		l0.056,0.057l0.056,0.056l0.056,0.112l0.056,0.058l0.056,0.056l0.056,0.057l0.056,0.057l0.056,0.057l0.056,0.113l0.056,0.056
		l0.056,0.058l0.056,0.056l0.057,0.056l0.056,0.113l0.056,0.057l0.056,0.057l0.056,0.057l0.056,0.057l0.056,0.057l0.056,0.112
		l0.057,0.056l0.056,0.057l0.056,0.057l0.056,0.057l0.056,0.057l0.056,0.112l0.056,0.058l0.056,0.056l0.056,0.056l0.056,0.058
		l0.057,0.112l0.056,0.057l0.056,0.057l0.056,0.057l0.056,0.111l0.056,0.058l0.056,0.056l0.056,0.058l0.056,0.056l0.056,0.113h0.056
		v0.057L1438.144,5475.784z"/>
	
		<linearGradient id="Path_1743_1_" gradientUnits="userSpaceOnUse" x1="898.1129" y1="5707.1934" x2="898.4109" y2="5709.0361" gradientTransform="matrix(34.7598 0 0 -39.9927 -29753.5488 233753.5938)">
		<stop  offset="0" style="stop-color:#FFFFFF"/>
		<stop  offset="0.49" style="stop-color:#FFFFFF"/>
		<stop  offset="1" style="stop-color:#FFFFFF"/>
	</linearGradient>
	<path id="Path_1743" fill="url(#Path_1743_1_)" stroke="#FFFFFF" stroke-width="0.056" stroke-miterlimit="2.613" d="
		M1463.8,5480.413l-0.072,0.033l-0.073,0.033l-0.092,0.086l-0.073,0.033l-0.073,0.033l-0.073,0.033l-0.073,0.033l-0.072,0.033
		l-0.092,0.086l-0.073,0.033l-0.072,0.033l-0.073,0.034l-0.073,0.033l-0.092,0.086l-0.073,0.033l-0.073,0.033l-0.073,0.033
		l-0.073,0.033l-0.092,0.086l-0.073,0.033l-0.072,0.033l-0.073,0.033l-0.092,0.086l-0.073,0.033l-0.073,0.033l-0.073,0.033
		l-0.073,0.033l-0.092,0.086l-0.073,0.033l-0.072,0.033l-0.073,0.033l-0.072,0.033l-0.092,0.086l-0.072,0.033l-0.073,0.033
		l-0.073,0.033l-0.073,0.033l-0.072,0.033l-0.092,0.086l-0.072,0.033l-0.073,0.033l-0.092,0.086l-0.106-0.039l-0.039,0.105
		l-0.073,0.033l-0.073,0.033l-0.092,0.086l-0.072,0.033l-0.072,0.033l-0.073,0.033l-0.073,0.033l-0.092,0.086l-0.072,0.033
		l-0.073,0.033l-0.073,0.033l-0.073,0.033l-0.092,0.086l-0.073,0.033l-0.072,0.033l-0.073,0.033l-0.073,0.033l-0.073,0.033
		l-0.092,0.086l-0.073,0.033l-0.073,0.033l-0.092,0.086l-0.105-0.041l-0.039,0.106l-0.072,0.033l-0.073,0.033l-0.092,0.086
		l-0.073,0.033l-0.072,0.033l-0.073,0.033l-0.073,0.033l-0.092,0.086l-0.073,0.033l-0.072,0.033l-0.073,0.033l-0.073,0.033
		l-0.073,0.033l-0.092,0.086l-0.073,0.033l-0.073,0.033l-0.073,0.033l-0.073,0.033l-0.092,0.086l-0.073,0.033l-0.073,0.033
		l-0.092,0.086l-0.073,0.033l-0.073,0.033l-0.073,0.033l-0.073,0.033l-0.092,0.086l-0.072,0.033l-0.073,0.033l-0.072,0.033
		l-0.073,0.033l-0.072,0.033l-0.092,0.086l-0.073,0.033l-0.072,0.033l-0.073,0.033l-0.073,0.033l-0.092,0.086l-0.072,0.033
		l-0.072,0.033l-0.073,0.033l-0.073,0.033l-0.092,0.086l-0.072,0.033l-0.073,0.033l-0.073,0.033l-0.092,0.086l-0.073,0.033
		l-0.072,0.033l-0.073,0.033l-0.072,0.033l-0.092,0.086l-0.073,0.033l-0.072,0.033l-0.073,0.033l-0.073,0.033l-0.106-0.039
		l-0.014-0.125l0.006-0.179l0.006-0.178l0.006-0.178l-0.014-0.125l0.006-0.179l0.006-0.179l0.006-0.178l0.006-0.178l0.006-0.179
		l0.006-0.179l-0.014-0.125l0.026-0.23l-0.014-0.125l0.026-0.23l0.006-0.179l-0.014-0.125l0.006-0.179l0.006-0.178l0.006-0.178
		l0.006-0.179l0.006-0.179l0.006-0.178l-0.014-0.125l0.006-0.178l0.006-0.179l0.006-0.179l0.026-0.23l0.006-0.178l-0.014-0.125
		l0.006-0.179l0.006-0.179l0.006-0.178l0.006-0.178l0.006-0.179l-0.014-0.125l0.006-0.179l0.006-0.178l0.006-0.178l0.026-0.23
		l-0.014-0.125l0.006-0.178l-0.014-0.125l0.026-0.231l0.006-0.179l0.006-0.178l0.006-0.178l-0.014-0.125l0.006-0.179l0.006-0.179
		l0.006-0.178l0.006-0.178l0.02-0.054l-0.014-0.125l0.006-0.179l-0.014-0.125l0.006-0.178l0.026-0.23l0.006-0.178l0.006-0.178
		l-0.014-0.125l0.006-0.179l0.006-0.179l0.006-0.178l0.006-0.178l0.006-0.179l0.006-0.179l-0.014-0.125l0.006-0.178l0.006-0.178
		l0.006-0.179l0.026-0.231l0.006-0.178l-0.014-0.125l0.006-0.178l0.006-0.179l0.006-0.179l0.006-0.178l0.006-0.178l-0.014-0.125
		l0.006-0.179l0.006-0.179l0.006-0.178l0.006-0.178l0.026-0.231l-0.033-0.071l0.026-0.231l-0.014-0.125l0.026-0.231l0.006-0.178
		l0.006-0.178l0.02-0.054l-0.033-0.071l0.006-0.179l0.006-0.179l0.006-0.178l0.006-0.178l0.006-0.179l0.006-0.179l-0.014-0.125
		l0.006-0.178l0.006-0.178l0.026-0.231l0.006-0.179l-0.014-0.125l0.006-0.178l0.006-0.178l0.006-0.179l0.006-0.179l0.006-0.178
		l0.006-0.178l-0.014-0.125l0.006-0.179l0.006-0.179l0.026-0.23l0.006-0.178l0.006-0.179l-0.014-0.125l-0.014-0.125l0.026-0.231
		l0.006-0.178l0.006-0.178l0.006-0.179l-0.014-0.125l0.006-0.179l0.059-0.158l-0.053-0.021l0.006-0.179l0.006-0.178l0.006-0.178
		l-0.014-0.125l0.039-0.105l0.072-0.033l0.092-0.086l0.092-0.086l0.092-0.086l0.073-0.033l0.092-0.086l0.073-0.033l0.092-0.086
		l0.072-0.033l0.092-0.086l0.073-0.033l0.092-0.086l0.073-0.033l0.092-0.086l0.073-0.033l0.092-0.086l0.092-0.086l0.073-0.033
		l0.073-0.033l0.092-0.086l0.092-0.086l0.073-0.033l0.092-0.086l0.092-0.086l0.072-0.033l0.073-0.033l0.092-0.085l0.092-0.086
		l0.092-0.086l0.072-0.033l0.092-0.086l0.073-0.033l0.092-0.086l0.073-0.033l0.092-0.086l0.092-0.086l0.073-0.033l0.073-0.033
		l0.092-0.086l0.092-0.086l0.073-0.033l0.092-0.086l0.092-0.086l0.073-0.033l0.072-0.033l0.092-0.086l0.092-0.086l0.073-0.033
		l0.092-0.086l0.073-0.033l0.092-0.086l0.073-0.033l0.092-0.086l0.092-0.086l0.072-0.033l0.073-0.033l0.092-0.086l0.092-0.086
		l0.073-0.033l0.092-0.086l0.092-0.086l0.106,0.039l0.039-0.105l0.092-0.086l0.092-0.086l0.073-0.033l0.092-0.086l0.073-0.033
		l0.072-0.033l0.092-0.086l0.073-0.033l0.02-0.053l0.092-0.086l0.072-0.033l0.092-0.086l0.073-0.033l0.072-0.033l0.092-0.086
		l0.092-0.086l0.073-0.033l0.092-0.086l0.072-0.033l0.092-0.086l0.073-0.033l0.092-0.086l0.073-0.033l0.092-0.086l0.073-0.033
		l0.092-0.086l0.073-0.033l0.092-0.086l0.092-0.086l0.073-0.033l0.072-0.033l0.092-0.086l0.092-0.086l0.073-0.033l0.092-0.086
		l0.073-0.033l0.092-0.086l0.073-0.033l0.092-0.086l0.073-0.033l0.092-0.086l0.072-0.033l0.073-0.033l0.092-0.086l0.092-0.086
		l0.073-0.033l0.092-0.086l0.072-0.033l0.092-0.086l0.073-0.033l0.092-0.086l0.073-0.033l0.092-0.086l0.073-0.033l0.092-0.086
		l0.072-0.033l0.092-0.086l0.073-0.033l0.092-0.086l0.073-0.033l0.092-0.086l0.072-0.033l0.073-0.034l0.092-0.086l0.073-0.033
		l0.02-0.053l0.073-0.033l0.092-0.086l0.073-0.033l0.073-0.033l0.092-0.086l0.073-0.033l0.092-0.086l0.073-0.033l0.092-0.086
		l0.073-0.033l0.092-0.086l0.073-0.033l0.092-0.086l0.073-0.033l0.072-0.033l0.092-0.086l0.072-0.033l0.092-0.086l0.073-0.033
		l0.092-0.086l0.072-0.033l0.073-0.033l0.092-0.086l0.073-0.033l0.092-0.086l0.092-0.086l0.073-0.033l0.073-0.033l0.092-0.086
		l0.073-0.033l0.092-0.086l0.072-0.033l0.073-0.033l0.092-0.086l0.073-0.033l0.072-0.033l0.092-0.086l0.092-0.086l0.073-0.033
		l0.072-0.033l0.073-0.033l0.092-0.086l0.092-0.086l0.073-0.033l0.073-0.033l0.072-0.033l0.092-0.086l0.073-0.033l0.092-0.086
		l0.073-0.033l0.092-0.086l0.073-0.033l0.072-0.033l0.073-0.033l0.092-0.085l0.092-0.086l0.073-0.033l0.073-0.033l0.072-0.033
		l0.092-0.086l0.073-0.033l0.092-0.086l0.073-0.033l0.073-0.033l0.092-0.086l0.073-0.033l0.073-0.033l0.092-0.086l0.072-0.033
		l0.073-0.033l0.073-0.033l0.092-0.086l0.073-0.033l0.092-0.086l0.073-0.033l0.073-0.033l0.071-0.033l0.093-0.086l0.072-0.033
		l0.093-0.086l0.072-0.033l0.073-0.033l0.073-0.033l0.092-0.086l0.073-0.033l0.073-0.033l0.092-0.086l0.073-0.033l0.072-0.033
		l0.093-0.086l0.071-0.033l0.093-0.086l0.072-0.033l0.073-0.033l0.073-0.033l0.072-0.033l0.092-0.086l0.072-0.033l0.072-0.033
		l0.073-0.033l0.021-0.053l0.072-0.033l0.073-0.033l0.072-0.033l0.092-0.086l0.072-0.033l0.073-0.033l0.071-0.033l0.093-0.086
		l0.072-0.033l0.073-0.033l0.092-0.086l0.072-0.033l0.073-0.033l0.073-0.033l0.071-0.033l0.093-0.086l0.072-0.033l0.072-0.033
		l0.073-0.033l0.073-0.033l0.072-0.033l0.093-0.086l0.072-0.033l0.072-0.033l0.073-0.033l0.073-0.033l0.071-0.033l0.093-0.086
		l0.072-0.033l0.073-0.033l0.072-0.033l0.073-0.033l0.072-0.033l0.073-0.033l0.092-0.086l0.072-0.033l0.073-0.033l0.072-0.033
		l0.072-0.033l0.073-0.033l0.073-0.033l0.092-0.086l0.073-0.033l0.073-0.033l0.071-0.033l0.073-0.033l0.073-0.033l0.073-0.033
		l0.071-0.033l0.073-0.033l0.073-0.033l0.072-0.033l0.092-0.086l0.073-0.033l0.071-0.033l0.073-0.033l0.073-0.033l0.073-0.033
		l0.072-0.033l0.073-0.033l0.073-0.033l0.072-0.033l0.072-0.033l0.073-0.033l0.073-0.033l0.072-0.033l0.072-0.033l0.073-0.033
		l0.073-0.033l0.073-0.033l0.071-0.033l0.072-0.033l0.073-0.033l0.072-0.033l0.072-0.033l0.072-0.033l0.073-0.033l0.073-0.033
		l0.071-0.033l0.073-0.033l0.073-0.033l0.073-0.033l0.071-0.033l0.073-0.033l0.073-0.033l0.073-0.033l0.071-0.033l0.125-0.014
		l0.093-0.086l0.072-0.033l0.073-0.033l0.125-0.014l0.073-0.033l0.073-0.033l0.072-0.033l0.072-0.033l0.073-0.033l0.125-0.013
		l0.072-0.033l0.072-0.033l0.073-0.033l0.073-0.033l0.125-0.013l0.073-0.033l0.072-0.033l0.073-0.033l0.125-0.014l0.072-0.033
		l0.073-0.033l0.072-0.033l0.125-0.014l0.106,0.04l0.039-0.106l0.125-0.013l0.072-0.033l0.125-0.014l0.073-0.033l0.125-0.013
		l0.073-0.033l0.073-0.033l0.125-0.014l0.073-0.033l0.125-0.013l0.125-0.014l0.073-0.033l0.125-0.013l0.072-0.033l0.125-0.014
		l0.125-0.014l0.125-0.013l0.125-0.014l0.125-0.014l0.125-0.013l0.125-0.014l0.178,0.006l0.125-0.014l0.125-0.013l0.18,0.006
		l0.178,0.006l0.178,0.006l0.283,0.046l0.285,0.045l1.215,0.452l0.244,0.151l0.191,0.131l0.141,0.112l0.086,0.092l0.086,0.092
		l0.086,0.092l0.033,0.072l0.086,0.092l0.086,0.092l0.033,0.073l0.086,0.092l0.033,0.073l0.033,0.072l0.086,0.092l0.031,0.072
		l0.033,0.073l0.033,0.072l0.033,0.072l0.033,0.073l0.033,0.072l0.033,0.072l0.033,0.073l0.014,0.125l0.033,0.073l0.033,0.072
		l0.031,0.073l0.033,0.072l0.014,0.125l0.033,0.073l0.033,0.072l0.014,0.125l0.033,0.072l0.014,0.125l0.033,0.072l0.016,0.125
		l-0.158,0.423l-0.131,0.191l-0.15,0.244l-0.131,0.192l-0.131,0.191l-0.131,0.191l-0.113,0.139l-0.15,0.245l-0.131,0.191
		l-0.15,0.245l-0.133,0.191l-0.131,0.191l-0.111,0.139l-0.15,0.245l-0.131,0.191l-0.152,0.245l-0.131,0.191l-0.131,0.191
		l-0.111,0.139l-0.15,0.245l-0.133,0.191l-0.15,0.245l-0.131,0.191l-0.15,0.244l-0.092,0.086l-0.152,0.245l-0.072,0.033
		l-0.059,0.158l-0.152,0.244l-0.131,0.192l-0.15,0.244l-0.092,0.086l-0.15,0.245l-0.131,0.191l-0.152,0.244l-0.15,0.245
		l-0.131,0.191l-0.111,0.139l-0.133,0.192l-0.15,0.244l-0.15,0.244l-0.131,0.192l-0.152,0.244l-0.091,0.086l-0.151,0.245
		l-0.15,0.244l-0.131,0.191l-0.151,0.245l-0.131,0.191l-0.151,0.244l-0.111,0.139l-0.131,0.191l-0.151,0.244l-0.131,0.192
		l-0.151,0.244l-0.131,0.191l-0.112,0.139l-0.15,0.245l-0.151,0.245l-0.092,0.086l-0.039,0.105l-0.151,0.244l-0.15,0.244
		l-0.093,0.086l-0.15,0.244l-0.151,0.244l-0.151,0.245l-0.131,0.19l-0.15,0.246l-0.112,0.139l-0.131,0.191l-0.151,0.244l-0.15,0.244
		l-0.151,0.244l-0.131,0.192l-0.112,0.14l-0.15,0.244l-0.132,0.191l-0.15,0.244l-0.131,0.191l-0.021,0.053l-0.15,0.245l-0.093,0.086
		l-0.15,0.244l-0.151,0.245l-0.151,0.244l-0.15,0.245l-0.131,0.19l-0.132,0.191l-0.131,0.191l-0.131,0.191l-0.15,0.244l-0.151,0.245
		l-0.151,0.244l-0.131,0.19l-0.111,0.14l-0.151,0.244l-0.151,0.245l-0.15,0.244l-0.151,0.244l-0.131,0.191l-0.112,0.14l-0.15,0.244
		l-0.151,0.245l-0.151,0.244l-0.15,0.245l-0.151,0.244l-0.092,0.086l-0.112,0.14l-0.039,0.104l-0.15,0.245l-0.151,0.244
		l-0.151,0.245l-0.15,0.244l-0.112,0.14l-0.151,0.244l-0.15,0.244l-0.151,0.246l-0.131,0.19l-0.151,0.245l-0.111,0.139l-0.151,0.244
		l-0.151,0.244l-0.15,0.246l-0.151,0.244l-0.131,0.191l-0.112,0.139l-0.15,0.244l-0.151,0.246l-0.073,0.033l-0.073,0.033
		l-0.071,0.033l-0.073,0.033l-0.073,0.033l-0.073,0.033l-0.092,0.086l-0.053-0.021l-0.02,0.054l-0.072,0.033l-0.073,0.033
		l-0.073,0.033l-0.072,0.033l-0.092,0.086l-0.073,0.033l-0.073,0.033l-0.073,0.033l-0.072,0.033l-0.073,0.033l-0.073,0.033
		l-0.092,0.086l-0.072,0.033l-0.073,0.033l-0.073,0.033l-0.073,0.033l-0.092,0.086l-0.072,0.033l-0.073,0.033l-0.073,0.033
		l-0.072,0.033l-0.073,0.033l-0.092,0.086l-0.073,0.033l-0.073,0.033l-0.073,0.033l-0.073,0.033l-0.072,0.033l-0.092,0.086
		l-0.073,0.033l-0.073,0.033l-0.073,0.033l-0.073,0.033l-0.073,0.033l-0.092,0.086l-0.073,0.033l-0.072,0.033l-0.092,0.086
		l-0.125,0.013l-0.092,0.086l-0.072,0.033l-0.073,0.033l-0.092,0.086l-0.073,0.033l-0.106-0.04l-0.039,0.105l-0.073,0.033
		l-0.073,0.033l-0.092,0.086l-0.073,0.033l-0.106-0.039l-0.039,0.105l-0.072,0.033l-0.073,0.033l-0.092,0.086l-0.072,0.033
		l-0.073,0.033l-0.073,0.033l-0.073,0.033l-0.072,0.033l-0.092,0.086l-0.073,0.033l-0.073,0.033l-0.072,0.033l-0.073,0.033
		l-0.092,0.086l-0.073,0.033l-0.073,0.033l-0.072,0.033l-0.073,0.033l-0.073,0.033l-0.092,0.086l-0.072,0.033l-0.073,0.033
		l-0.073,0.033l-0.072,0.033l-0.073,0.033l-0.092,0.086l-0.073,0.033l-0.072,0.033l-0.073,0.033l-0.073,0.033l-0.092,0.086
		l-0.072,0.033l-0.073,0.033l-0.072,0.033l-0.092,0.086l-0.073,0.033l-0.072,0.033l-0.073,0.033l-0.073,0.033l-0.092,0.086
		l-0.053-0.02l-0.02,0.053L1463.8,5480.413z"/>
	
		<linearGradient id="Path_1744_1_" gradientUnits="userSpaceOnUse" x1="897.8019" y1="5501.5654" x2="897.8939" y2="5505.9756" gradientTransform="matrix(14.265 0 0 -17.0161 -11320.9297 99099.0703)">
		<stop  offset="0" style="stop-color:#FFFFFF"/>
		<stop  offset="0.21" style="stop-color:#FFFFFF"/>
		<stop  offset="0.5" style="stop-color:#FFFFFF"/>
		<stop  offset="0.63" style="stop-color:#FFFFFF"/>
		<stop  offset="1" style="stop-color:#FFFFFF"/>
	</linearGradient>
	<path id="Path_1744" fill="url(#Path_1744_1_)" d="M1482.7,5473.771c-0.047,0.394-0.071,0.789-0.073,1.185
		c-0.085,1.268,0.312,2.521,1.113,3.508c0.818,0.854,1.971,1.304,3.152,1.231c1.664-0.031,3.295-0.482,4.74-1.31l0.393,0.622
		c-0.867,0.901-1.914,1.609-3.074,2.077c-1.17,0.51-2.432,0.776-3.709,0.785c-1.627,0.061-3.198-0.595-4.299-1.793
		c-1.122-1.28-1.709-2.943-1.637-4.644c-0.003-0.926,0.113-1.847,0.344-2.742c0.439-1.729,1.289-3.326,2.476-4.656
		c0.58-0.644,1.242-1.207,1.97-1.678c0.725-0.475,1.514-0.844,2.342-1.101c0.854-0.262,1.74-0.392,2.633-0.388
		c1.188-0.079,2.365,0.249,3.34,0.931c0.75,0.581,1.18,1.485,1.154,2.435c-0.014,1.793-1.113,3.139-3.301,4.039
		c-2.41,0.95-4.971,1.458-7.56,1.5L1482.7,5473.771z M1482.893,5472.48c1.959-0.03,3.889-0.484,5.659-1.33
		c1.111-0.485,1.85-1.563,1.898-2.776c0.031-0.548-0.176-1.083-0.566-1.468c-0.424-0.373-0.979-0.563-1.541-0.531
		c-1.287,0.037-2.492,0.635-3.301,1.637C1483.952,5469.291,1483.212,5470.83,1482.893,5472.48L1482.893,5472.48z"/>
	
		<linearGradient id="Path_1745_1_" gradientUnits="userSpaceOnUse" x1="897.8497" y1="5633.5605" x2="897.9708" y2="5637.5713" gradientTransform="matrix(15.6661 0 0 -27.0488 -12563.0381 157894.25)">
		<stop  offset="0" style="stop-color:#FFFFFF"/>
		<stop  offset="0.21" style="stop-color:#FFFFFF"/>
		<stop  offset="0.5" style="stop-color:#FFFFFF"/>
		<stop  offset="0.63" style="stop-color:#FFFFFF"/>
		<stop  offset="1" style="stop-color:#FFFFFF"/>
	</linearGradient>
	<path id="Path_1745" fill="url(#Path_1745_1_)" d="M1495.616,5480.88c0.15-0.601,0.289-1.187,0.416-1.757
		c0.121-0.574,0.479-2.313,1.068-5.23l3.4-16.685l-2.639-0.459v-0.616c1.969-0.38,3.99-0.811,6.068-1.292l0.156,0.211
		c-0.211,0.888-0.461,2.023-0.748,3.406c-0.291,1.389-0.609,2.893-0.967,4.523l-0.814,3.98c2.477-1.371,4.098-2.057,4.867-2.055
		c1.346-0.012,2.619,0.603,3.447,1.661c0.982,1.253,1.48,2.818,1.4,4.408c0.078,2.853-0.936,5.626-2.838,7.754
		c-1.775,2.054-4.373,3.211-7.088,3.158c-1.957,0.03-3.902-0.313-5.732-1.008H1495.616z M1498.87,5480.102
		c0.877,0.238,1.779,0.364,2.688,0.373c1.881-0.047,3.602-1.07,4.541-2.699c1.219-1.756,1.865-3.847,1.848-5.984
		c0.033-1.124-0.213-2.238-0.719-3.243c-0.348-0.798-1.133-1.316-2.004-1.323c-1.389,0.077-2.742,0.463-3.961,1.13L1498.87,5480.102
		z"/>
	
		<linearGradient id="Path_1746_1_" gradientUnits="userSpaceOnUse" x1="896.6505" y1="5612.8496" x2="897.173" y2="5621.4897" gradientTransform="matrix(7.2667 0 0 -25.1792 -4999.9297 146937.5)">
		<stop  offset="0" style="stop-color:#FFFFFF"/>
		<stop  offset="0.21" style="stop-color:#FFFFFF"/>
		<stop  offset="0.5" style="stop-color:#FFFFFF"/>
		<stop  offset="0.63" style="stop-color:#FFFFFF"/>
		<stop  offset="1" style="stop-color:#FFFFFF"/>
	</linearGradient>
	<path id="Path_1746" fill="url(#Path_1746_1_)" d="M1518.068,5478.585c-0.057,0.206-0.086,0.419-0.09,0.634
		c-0.041,0.408,0.199,0.791,0.586,0.93c0.645,0.178,1.313,0.252,1.98,0.219l-0.055,0.693c-1.15,0.42-2.354,0.67-3.576,0.743
		c-0.561,0.03-1.113-0.153-1.545-0.515c-0.4-0.416-0.602-0.982-0.555-1.558c0.01-0.415,0.057-0.829,0.139-1.237l2.125-10.314
		c0.037-0.2,0.066-0.374,0.1-0.525c0.027-0.129,0.041-0.26,0.043-0.393c0.02-0.287-0.141-0.556-0.4-0.676
		c-0.682-0.176-1.389-0.24-2.09-0.193l0.055-0.67c1.207-0.463,2.477-0.738,3.768-0.815c0.504-0.03,1.002,0.118,1.406,0.417
		c0.357,0.334,0.543,0.813,0.5,1.3c0,0.243-0.021,0.485-0.064,0.726l-2.32,11.237L1518.068,5478.585z M1521.993,5458.518
		c0.023,0.557-0.182,1.099-0.568,1.5c-0.369,0.38-0.883,0.588-1.412,0.574c-1.018,0.038-1.871-0.755-1.91-1.771
		c-0.002-0.052,0-0.104,0.002-0.156c-0.07-1.053,0.725-1.963,1.777-2.033c0.074-0.005,0.148-0.005,0.223-0.002
		c0.5-0.019,0.988,0.161,1.359,0.5C1521.829,5457.497,1522.021,5458.001,1521.993,5458.518z"/>
	
		<linearGradient id="Path_1747_1_" gradientUnits="userSpaceOnUse" x1="897.8448" y1="5497.9482" x2="897.9179" y2="5501.8789" gradientTransform="matrix(16.0032 0 0 -16.9771 -12837.3906 98870.1406)">
		<stop  offset="0" style="stop-color:#FFFFFF"/>
		<stop  offset="0.21" style="stop-color:#FFFFFF"/>
		<stop  offset="0.5" style="stop-color:#FFFFFF"/>
		<stop  offset="0.63" style="stop-color:#FFFFFF"/>
		<stop  offset="1" style="stop-color:#FFFFFF"/>
	</linearGradient>
	<path id="Path_1747" fill="url(#Path_1747_1_)" d="M1532.819,5464.889c1.934-0.094,3.816,0.617,5.207,1.963
		c1.338,1.427,2.041,3.336,1.943,5.291c0.09,2.542-0.789,5.023-2.457,6.943c-1.602,1.819-3.932,2.829-6.354,2.754
		c-3.689,0.268-6.898-2.508-7.166-6.198c-0.023-0.317-0.023-0.635-0.002-0.952c-0.094-2.561,0.771-5.065,2.428-7.022
		C1528.021,5465.818,1530.374,5464.797,1532.819,5464.889L1532.819,5464.889z M1532.609,5466.375
		c-1.639,0.043-3.115,1.008-3.811,2.494c-1.012,1.825-1.512,3.892-1.443,5.979c-0.07,1.426,0.301,2.838,1.063,4.045
		c0.67,0.959,1.785,1.509,2.953,1.455c1.672-0.023,3.174-1.021,3.842-2.554c0.961-1.822,1.441-3.858,1.4-5.918
		c0.086-1.429-0.287-2.849-1.064-4.052C1534.878,5466.875,1533.771,5466.329,1532.609,5466.375L1532.609,5466.375z"/>
	<path id="Path_1748" fill="none" stroke="#FFFFFF" stroke-width="0.056" stroke-miterlimit="2.613" d="M1482.7,5473.771
		c-0.047,0.394-0.071,0.789-0.073,1.185c-0.085,1.268,0.312,2.521,1.113,3.508c0.818,0.854,1.971,1.304,3.152,1.231
		c1.664-0.031,3.295-0.482,4.74-1.31l0.393,0.622c-0.867,0.901-1.914,1.609-3.074,2.077c-1.17,0.51-2.432,0.776-3.709,0.785
		c-1.627,0.061-3.198-0.595-4.299-1.793c-1.122-1.28-1.709-2.943-1.637-4.644c-0.003-0.926,0.113-1.847,0.344-2.742
		c0.439-1.729,1.289-3.326,2.476-4.656c0.58-0.644,1.242-1.207,1.97-1.678c0.725-0.475,1.514-0.844,2.342-1.101
		c0.854-0.262,1.74-0.392,2.633-0.388c1.188-0.079,2.365,0.249,3.34,0.931c0.75,0.581,1.18,1.485,1.154,2.435
		c-0.014,1.793-1.113,3.139-3.301,4.039c-2.41,0.95-4.971,1.458-7.56,1.5L1482.7,5473.771z M1482.893,5472.48
		c1.959-0.03,3.889-0.484,5.659-1.33c1.111-0.485,1.85-1.563,1.898-2.776c0.031-0.548-0.176-1.083-0.566-1.468
		c-0.424-0.373-0.979-0.563-1.541-0.531c-1.287,0.037-2.492,0.635-3.301,1.637C1483.952,5469.291,1483.212,5470.83,1482.893,5472.48
		L1482.893,5472.48z"/>
	<path id="Path_1749" fill="none" stroke="#FFFFFF" stroke-width="0.056" stroke-miterlimit="2.613" d="M1495.616,5480.88
		c0.15-0.601,0.289-1.187,0.416-1.757c0.121-0.574,0.479-2.313,1.068-5.23l3.4-16.685l-2.639-0.459v-0.616
		c1.969-0.38,3.99-0.811,6.068-1.292l0.156,0.211c-0.211,0.888-0.461,2.023-0.748,3.406c-0.291,1.389-0.609,2.893-0.967,4.523
		l-0.814,3.98c2.477-1.371,4.098-2.057,4.867-2.055c1.346-0.012,2.619,0.603,3.447,1.661c0.982,1.253,1.48,2.818,1.4,4.408
		c0.078,2.853-0.936,5.626-2.838,7.754c-1.775,2.054-4.373,3.211-7.088,3.158c-1.957,0.03-3.902-0.313-5.732-1.008H1495.616z
		 M1498.87,5480.102c0.877,0.238,1.779,0.364,2.688,0.373c1.881-0.047,3.602-1.07,4.541-2.699c1.219-1.756,1.865-3.847,1.848-5.984
		c0.033-1.124-0.213-2.238-0.719-3.243c-0.348-0.798-1.133-1.316-2.004-1.323c-1.389,0.077-2.742,0.463-3.961,1.13L1498.87,5480.102
		z"/>
	<path id="Path_1750" fill="none" stroke="#FFFFFF" stroke-width="0.056" stroke-miterlimit="2.613" d="M1518.068,5478.585
		c-0.057,0.206-0.086,0.419-0.09,0.634c-0.041,0.408,0.199,0.791,0.586,0.93c0.645,0.178,1.313,0.252,1.98,0.219l-0.055,0.693
		c-1.15,0.42-2.354,0.67-3.576,0.743c-0.561,0.03-1.113-0.153-1.545-0.515c-0.4-0.416-0.602-0.982-0.555-1.558
		c0.01-0.415,0.057-0.829,0.139-1.237l2.125-10.314c0.037-0.2,0.066-0.374,0.1-0.525c0.027-0.129,0.041-0.26,0.043-0.393
		c0.02-0.287-0.141-0.556-0.4-0.676c-0.682-0.176-1.389-0.24-2.09-0.193l0.055-0.67c1.207-0.463,2.477-0.738,3.768-0.815
		c0.504-0.03,1.002,0.118,1.406,0.417c0.357,0.334,0.543,0.813,0.5,1.3c0,0.243-0.021,0.485-0.064,0.726l-2.32,11.237
		L1518.068,5478.585z M1521.993,5458.518c0.023,0.557-0.182,1.099-0.568,1.5c-0.369,0.38-0.883,0.588-1.412,0.574
		c-1.018,0.038-1.871-0.755-1.91-1.771c-0.002-0.052,0-0.104,0.002-0.156c-0.07-1.053,0.725-1.963,1.777-2.033
		c0.074-0.005,0.148-0.005,0.223-0.002c0.5-0.019,0.988,0.161,1.359,0.5C1521.829,5457.497,1522.021,5458.001,1521.993,5458.518z"/>
	<path id="Path_1751" fill="none" stroke="#FFFFFF" stroke-width="0.056" stroke-miterlimit="2.613" d="M1532.819,5464.889
		c1.934-0.094,3.816,0.617,5.207,1.963c1.338,1.427,2.041,3.336,1.943,5.291c0.09,2.542-0.789,5.023-2.457,6.943
		c-1.602,1.819-3.932,2.829-6.354,2.754c-3.689,0.268-6.898-2.508-7.166-6.198c-0.023-0.317-0.023-0.635-0.002-0.952
		c-0.094-2.561,0.771-5.065,2.428-7.022C1528.021,5465.818,1530.374,5464.797,1532.819,5464.889L1532.819,5464.889z
		 M1532.609,5466.375c-1.639,0.043-3.115,1.008-3.811,2.494c-1.012,1.825-1.512,3.892-1.443,5.979
		c-0.07,1.426,0.301,2.838,1.063,4.045c0.67,0.959,1.785,1.509,2.953,1.455c1.672-0.023,3.174-1.021,3.842-2.554
		c0.961-1.822,1.441-3.858,1.4-5.918c0.086-1.429-0.287-2.849-1.064-4.052C1534.878,5466.875,1533.771,5466.329,1532.609,5466.375
		L1532.609,5466.375z"/>
</g>
</svg>
