<?xml version="1.0" encoding="utf-8"?>
<!-- Generator: Adobe Illustrator 22.0.1, SVG Export Plug-In . SVG Version: 6.00 Build 0)  -->
<svg version="1.1" id="Warstwa_1" xmlns="http://www.w3.org/2000/svg" xmlns:xlink="http://www.w3.org/1999/xlink" x="0px" y="0px"
	 viewBox="0 0 45.9 20.1" style="enable-background:new 0 0 45.9 20.1;" xml:space="preserve">
<style type="text/css">
	.st0{fill:url(#Path_1740_1_);stroke:#FFFFFF;stroke-width:5.600000e-02;stroke-miterlimit:2.613;}
	.st1{fill:url(#Path_1741_1_);stroke:#FFFFFF;stroke-width:5.600000e-02;stroke-miterlimit:2.613;}
	.st2{fill:url(#Path_1742_1_);stroke:#FFFFFF;stroke-width:5.600000e-02;stroke-miterlimit:2.613;}
	.st3{fill:url(#Path_1743_1_);stroke:#FFFFFF;stroke-width:5.600000e-02;stroke-miterlimit:2.613;}
	.st4{fill:url(#Path_1744_1_);}
	.st5{fill:url(#Path_1745_1_);}
	.st6{fill:url(#Path_1746_1_);}
	.st7{fill:url(#Path_1747_1_);}
	.st8{fill:none;stroke:#FFFFFF;stroke-width:5.600000e-02;stroke-miterlimit:2.613;}
</style>
<g id="Group_2440" transform="translate(-1425.317 -5435.815)">
	
		<linearGradient id="Path_1740_1_" gradientUnits="userSpaceOnUse" x1="1454.2377" y1="385.436" x2="1454.2816" y2="385.1002" gradientTransform="matrix(13.583 0 0 25.522 -18318.8047 -4384.8428)">
		<stop  offset="0" style="stop-color:#FFFFFF"/>
		<stop  offset="0.47" style="stop-color:#FFFFFF"/>
		<stop  offset="1" style="stop-color:#FFFFFF"/>
	</linearGradient>
	<path id="Path_1740" class="st0" d="M1437.1,5442.9l-4.3,3l-1.1,7.2l4.3-3L1437.1,5442.9z"/>
	
		<linearGradient id="Path_1741_1_" gradientUnits="userSpaceOnUse" x1="1471.4122" y1="358.8793" x2="1471.6204" y2="358.5864" gradientTransform="matrix(10.733 0 0 28.4292 -14355.3896 -4749.8154)">
		<stop  offset="0" style="stop-color:#FFFFFF"/>
		<stop  offset="0.47" style="stop-color:#FFFFFF"/>
		<stop  offset="1" style="stop-color:#FFFFFF"/>
	</linearGradient>
	<path id="Path_1741" class="st1" d="M1437.3,5443l3.2,4.1l-1.1,7.2l-3.2-4.1L1437.3,5443z"/>
	
		<linearGradient id="Path_1742_1_" gradientUnits="userSpaceOnUse" x1="1420.902" y1="263.2509" x2="1421.1628" y2="262.6635" gradientTransform="matrix(27.0468 0 0 48.3638 -37004.5078 -7272.2515)">
		<stop  offset="0" style="stop-color:#FFFFFF"/>
		<stop  offset="0.49" style="stop-color:#FFFFFF"/>
		<stop  offset="1" style="stop-color:#FFFFFF"/>
	</linearGradient>
	<path id="Path_1742" class="st2" d="M1430.5,5451.8L1430.5,5451.8L1430.5,5451.8L1430.5,5451.8l0.1,0.1l0,0l0,0l0,0l0,0l0,0l0,0
		l0,0l0,0l0,0l0,0l0,0l0,0l0,0l0,0l0,0l0,0l0,0l0,0l0,0l0,0l0,0l0,0l0,0l0,0l0,0l0,0l0,0l0,0l0,0l0,0l0,0l0,0l0,0l0,0l0,0l0,0l0,0
		l0,0h0v0l0,0l0,0l0,0l0,0l0,0l0,0l0,0l0,0l0,0l0,0l0,0l0,0l0,0l0,0l0,0l0,0l0,0l0,0l0,0l0,0l0,0l0,0h0v0l0,0l0,0l0,0l0,0l0,0l0,0
		l0,0l0,0l0,0l0,0l0,0l0,0l0,0l0,0l0,0l0,0l0,0l0,0l0,0l0,0l0,0l0,0l0,0l0,0l0,0l0,0l0,0l0,0l0,0l0,0l0,0l0,0l0,0l0,0l0,0l0,0l0,0
		l0,0l0,0l0,0l0,0l0,0l0,0l0,0l0,0l0,0l0,0l0,0l0,0l0,0l0,0l0,0l0,0l0,0l0,0l0,0h0l0,0l0-0.1l0-0.1l0-0.1l0,0l0-0.1l0-0.1l0-0.1
		l0-0.1l0-0.1l0-0.1l0,0l0-0.1l0,0l0-0.1l0-0.1l0,0l0-0.1l0-0.1l0-0.1l0-0.1l0-0.1l0-0.1l0,0l0-0.1l0-0.1l0-0.1l0-0.1l0-0.1l0,0
		l0-0.1l0-0.1l0-0.1l0-0.1l0-0.1l0,0l0-0.1l0-0.1l0-0.1l0-0.1l0,0l0-0.1l0,0l0-0.1l0-0.1l0-0.1l0-0.1l0,0l0-0.1l0-0.1l0-0.1l0-0.1v0
		l0,0l0-0.1l0,0l0-0.1l0-0.1l0-0.1l0-0.1l0,0l0-0.1l0-0.1l0-0.1l0-0.1l0-0.1l0-0.1l0,0l0-0.1l0-0.1l0-0.1l0-0.1l0-0.1l0,0l0-0.1
		l0-0.1l0-0.1l0-0.1l0-0.1l0,0l0-0.1l0-0.1l0-0.1l0-0.1l0-0.1l0,0l0-0.1l0,0l0-0.1l0-0.1l0-0.1v0l0,0l0-0.1l0-0.1l0-0.1l0-0.1l0-0.1
		l0-0.1l0,0l0-0.1l0-0.1l0-0.1l0-0.1l0,0l0-0.1l0-0.1l0-0.1l0-0.1l0-0.1l0-0.1l0,0l0-0.1l0-0.1l0-0.1l0-0.1l0-0.1l0,0l0,0l0-0.1
		l0-0.1l0-0.1l0-0.1l0,0l0-0.1v-0.1h0l0-0.1l0-0.1l0-0.1l0,0v0l0,0l0,0l0,0l0,0l0,0l0,0l0,0l0,0l0,0l0,0l0,0l0,0l0,0l0,0l0,0l0,0
		l0,0l0,0l0,0l0,0l0,0l0,0l0,0l0,0l0,0l0,0l0,0l0,0l0,0l0,0l0,0l0,0l0,0l0,0l0,0l0,0l0,0l0,0l0,0l0,0l0,0l0,0l0,0l0,0l0,0l0,0l0,0
		l0,0l0,0l0,0l0,0l0,0l0,0l0,0l0,0l0,0l0,0l0,0l0,0l0,0l0,0h0v0l0,0l0,0l0,0l0,0l0,0l0,0l0,0l0,0v0l0,0l0,0l0,0l0,0l0,0l0,0l0,0l0,0
		l0,0l0,0l0,0l0,0l0,0l0,0l0,0l0,0l0,0l0,0l0,0l0,0l0,0l0,0l0,0l0,0l0,0l0,0l0,0l0,0l0,0l0,0l0,0l0,0l0,0l0,0l0,0l0,0l0,0l0,0l0,0
		l0,0l0,0l0,0l0,0l0,0l0,0l0,0l0,0l0,0l0,0l0,0l0,0l0,0l0,0l0,0l0,0l0,0v0l0,0l0,0l0,0l0,0l0,0l0,0l0,0l0,0l0,0l0,0l0,0l0,0l0,0l0,0
		l0,0l0,0l0,0l0,0l0,0l0,0l0,0l0,0l0,0l0,0l0,0l0,0l0,0l0,0l0,0l0,0l0,0l0,0l0,0l0,0l0,0l0,0l0,0l0,0l0,0l0,0l0,0l0,0l0,0l0,0l0,0
		l0,0l0,0l0,0l0,0l0,0l0,0l0,0l0,0l0,0l0,0l0,0l0,0l0,0l0,0l0,0l0,0l0,0l0,0l0,0l0,0l0,0l0,0l0,0l0,0l0,0l0,0l0,0l0,0l0,0l0,0l0,0
		l0,0l0,0l0,0l0,0l0,0l0,0l0,0l0,0l0,0l0,0l0,0l0,0l0,0l0,0l0,0l0,0l0,0l0,0l0,0l0,0l0,0l0,0l0,0l0,0v0l0,0l0,0l0,0l0,0l0,0l0,0l0,0
		l0,0l0,0l0,0l0,0l0,0l0,0l0,0l0,0l0,0l0,0l0,0l0,0l0,0l0,0l0,0l0,0l0,0l0,0l0,0l0,0l0,0l0,0l0,0l0,0l0,0l0,0l0,0l0,0l0,0l0,0l0,0
		l0,0l0,0l0,0l0,0l0,0l0,0l0,0l0,0l0,0l0,0l0,0l0,0l0,0l0,0l0,0l0,0l0,0l0,0l0,0l0,0l0,0l0,0l0,0l0,0l0,0l0,0l0,0l0,0l0,0l0,0l0,0
		l0,0l0,0l0,0l0,0l0,0l0,0l0,0l0,0l0,0l0,0l0,0l0,0l0,0l0,0l0,0l0,0l0,0l0,0l0,0l0,0l0,0l0,0l0,0l0,0l0,0l0,0l0,0l0,0l0,0l0,0l0,0
		l0,0l0,0l0,0l0,0l0,0l0,0l0,0l0,0l0,0l0,0l0,0h0v0l0,0l0,0l0,0l0,0l0,0l0,0l0,0l0,0l0,0l0,0l0,0l0,0l0,0l0,0l0,0l0,0l0,0l0,0l0,0
		l0,0l0,0l-0.1,0l0,0l0,0l-0.1,0l-0.1,0l-0.1,0l-0.1,0l-0.1,0h-0.5l-0.1,0l-0.1,0l-0.1,0l0,0l0,0l0,0l0,0l0,0l0,0l0,0l0,0l0,0l0,0
		l0,0l0,0l0,0l0,0l0,0l0,0l0,0l0,0l0,0l0,0l0,0l0,0l0,0l0,0l0,0l0,0l0,0l0,0l0,0l0,0l0,0l0,0v0.2l0,0.1l0,0.1l0,0.1l0,0.1l0,0.1
		l0,0.1l0,0.1l0,0.1l0,0.1l0,0.1l0,0.1l0,0.1l0,0.1l0,0.1l0,0.1l0,0.1l0,0.1l0,0.1l0,0.1l0,0.1l0,0.1l0,0.1l0,0.1l0,0l0,0.1l0,0v0.1
		l0,0.1l0,0.1l0,0.1l0,0l0,0.1l0,0.1l0,0.1l0,0.1l0,0.1l0,0.1l0,0.1l0,0.1l0,0.1l0,0.1l0,0.1l0,0l0,0.1l0,0.1l0,0.1l0,0.1l0,0.1
		l0,0.1l0,0.1l0,0.1l0,0.1l0,0.1l0,0.1l0,0.1l0,0.1l0,0.1l0,0.1l0,0v0l0,0.1l0,0.1l0,0l0,0.1l0,0.1l0,0.1l0,0.1l0,0.1l0,0.1l0,0.1
		l0,0.1l0,0.1l0,0.1l0,0.1l0,0.1l0,0.1l0,0.1l0,0.1l0,0.1v0l0,0.1l0,0l0,0.1l0,0.1l0,0.1l0,0.1l0,0.1l0,0.1l0,0.1l0,0.1l0,0.1l0,0.1
		l0,0.1l0,0.1l0,0.1l0,0.1l0,0.1l0,0.1l0,0.1l0,0.1l0,0.1l0,0.1l0,0.1l0,0.1l0,0.1l0,0.1l0,0l0,0.1v0l0,0.1l0,0.1l0,0.1l0,0.1l0,0.1
		l0,0.1l0,0.1l0,0.1l0,0.1l0,0.1l0,0.1l0,0.1l0,0.1l0,0.1l0,0.1l0,0.1l0,0.1l0,0.1l0,0.1l0,0l0,0l0,0l0,0l0,0l0,0l0,0h0v0l0,0l0,0
		l0,0l0,0l0,0l0,0l0,0l0,0l0,0l0,0l0,0l0,0l0,0l0,0l0,0l0,0l0,0l0,0l0,0l0,0l0,0l0,0l0,0l0,0l0,0l0,0l0,0l0,0l0,0l0,0l0,0l0,0l0,0
		l0,0l0,0l0,0l0,0l0,0l0,0l0,0l0,0l0,0l0,0l0,0h0v0l0,0l0,0l0,0l0,0h0v0l0,0l0,0l0,0l0,0l0,0l0,0l0,0l0,0l0,0l0,0l0,0l0,0l0,0l0,0
		l0,0l0,0l0,0l0,0l0,0l0,0l0,0l0,0l0,0l0,0l0,0l0,0l0,0l0,0l0,0l0,0l0,0l0,0l0,0l0,0l0,0l0,0l0,0l0,0L1430.5,5451.8L1430.5,5451.8
		L1430.5,5451.8L1430.5,5451.8L1430.5,5451.8z"/>
	
		<linearGradient id="Path_1743_1_" gradientUnits="userSpaceOnUse" x1="1412.9015" y1="291.9293" x2="1413.0208" y2="291.1919" gradientTransform="matrix(34.7598 0 0 39.9927 -47671.1094 -6210.5225)">
		<stop  offset="0" style="stop-color:#FFFFFF"/>
		<stop  offset="0.49" style="stop-color:#FFFFFF"/>
		<stop  offset="1" style="stop-color:#FFFFFF"/>
	</linearGradient>
	<path id="Path_1743" class="st3" d="M1440.7,5453.7L1440.7,5453.7L1440.7,5453.7L1440.7,5453.7l-0.1,0.1l0,0l0,0l0,0l0,0l0,0l0,0
		l0,0l0,0l0,0l0,0l0,0l0,0l0,0l0,0l0,0l0,0l0,0l0,0l0,0l0,0l0,0l0,0l0,0l0,0l0,0l0,0l0,0l0,0l0,0l0,0l0,0l0,0l0,0l0,0l0,0l0,0l0,0
		l0,0l0,0l0,0l0,0l0,0l0,0l0,0l0,0l0,0l0,0l0,0l0,0l0,0l0,0l0,0l0,0l0,0l0,0l0,0l0,0l0,0l0,0l0,0l0,0l0,0l0,0l0,0l0,0l0,0l0,0l0,0
		l0,0l0,0l0,0l0,0l0,0l0,0l0,0l0,0l0,0l0,0l0,0l0,0l0,0l0,0l0,0l0,0l0,0l0,0l0,0l0,0l0,0l0,0l0,0l0,0l0,0l0,0l0,0l0,0l0,0l0,0l0,0
		l0,0l0,0l0,0l0,0l0,0l0,0l0,0l0,0l0,0l0,0l0,0l0,0l0,0l0,0l0,0l0,0l0,0l0,0l0,0l0,0l0,0l0,0l0,0l0-0.1l0-0.1l0-0.1l0-0.1l0-0.1
		l0-0.1l0-0.1l0-0.1l0-0.1l0-0.1l0-0.1l0-0.1l0,0l0-0.1l0-0.1l0,0l0-0.1l0-0.1l0-0.1l0-0.1l0-0.1l0-0.1l0,0l0-0.1l0-0.1l0-0.1l0-0.1
		l0-0.1l0,0l0-0.1l0-0.1l0-0.1l0-0.1l0-0.1l0,0l0-0.1l0-0.1l0-0.1l0-0.1l0,0l0-0.1l0-0.1l0-0.1l0-0.1l0-0.1l0-0.1l0,0l0-0.1l0-0.1
		l0-0.1l0-0.1l0,0l0,0l0-0.1l0,0l0-0.1l0-0.1l0-0.1l0-0.1l0,0l0-0.1l0-0.1l0-0.1l0-0.1l0-0.1l0-0.1l0,0l0-0.1l0-0.1l0-0.1l0-0.1
		l0-0.1l0,0l0-0.1l0-0.1l0-0.1l0-0.1l0-0.1l0-0.1l0-0.1l0-0.1l0-0.1l0-0.1l0-0.1l0,0l0-0.1l0,0l0-0.1l0-0.1l0-0.1l0,0l0,0l0-0.1
		l0-0.1l0-0.1l0-0.1l0-0.1l0-0.1l0,0l0-0.1l0-0.1l0-0.1l0-0.1l0-0.1l0-0.1l0-0.1l0-0.1l0-0.1l0-0.1l0-0.1l0,0l0-0.1l0-0.1l0-0.1
		l0-0.1l0-0.1l0-0.1l0,0l0-0.1l0-0.1l0-0.1l0-0.1l0,0l0-0.1l0-0.1l0,0l0-0.1l0-0.1l0-0.1l0,0l0,0l0,0l0,0l0,0l0,0l0,0l0,0l0,0l0,0
		l0,0l0,0l0,0l0,0l0,0l0,0l0,0l0,0l0,0l0,0l0,0l0,0l0,0l0,0l0,0l0,0l0,0l0,0l0,0l0,0l0,0l0,0l0,0l0,0l0,0l0,0l0,0l0,0l0,0l0,0l0,0
		l0,0l0,0l0,0l0,0l0,0l0,0l0,0l0,0l0,0l0,0l0,0l0,0l0,0l0,0l0,0l0,0l0,0l0,0l0,0l0,0l0,0l0,0l0,0l0,0l0,0l0,0l0,0l0,0l0,0l0,0l0,0
		l0,0l0,0l0,0l0,0l0,0l0,0l0,0l0,0l0,0l0,0l0,0l0,0l0,0l0,0l0,0l0,0l0,0l0,0l0,0l0,0l0,0l0,0l0,0l0,0l0,0l0,0l0,0l0,0l0,0l0,0l0,0
		l0,0l0,0l0,0l0,0l0,0l0,0l0,0l0,0l0,0l0,0l0,0l0,0l0,0l0,0l0,0l0,0l0,0l0,0l0,0l0,0l0,0l0,0l0,0l0,0l0,0l0,0l0,0l0,0l0,0l0,0l0,0
		l0,0l0,0l0,0l0,0l0,0l0,0l0,0l0,0l0,0l0,0l0,0l0,0l0,0l0,0l0,0l0,0l0,0l0,0l0,0l0,0l0,0l0,0l0,0l0,0l0,0l0,0l0,0l0,0l0,0l0,0l0,0
		l0,0l0,0l0,0l0,0l0,0l0,0l0,0l0,0l0,0l0,0l0,0l0,0l0,0l0,0l0,0l0,0l0,0l0,0l0,0l0,0l0,0l0,0l0,0l0,0l0,0l0,0l0,0l0,0l0,0l0,0l0,0
		l0,0l0,0l0,0l0,0l0,0l0,0l0,0l0,0l0,0l0,0l0,0l0,0l0,0l0,0l0,0l0,0l0,0l0,0l0,0l0,0l0,0l0,0l0,0l0,0l0,0l0,0l0,0l0,0l0,0l0,0l0,0
		l0,0l0,0l0,0l0,0l0,0l0,0l0,0l0,0l0,0l0,0l0,0l0,0l0,0l0,0l0,0l0,0l0,0l0,0l0,0l0,0l0,0l0,0l0,0l0,0l0,0l0,0l0,0l0,0l0,0l0,0l0,0
		l0,0l0,0l0,0l0,0l0,0l0,0l0,0l0,0l0,0l0,0l0,0l0,0l0,0l0,0l0,0l0,0l0,0l0,0l0,0l0,0l0,0l0,0l0,0l0,0l0,0l0,0l0,0l0,0l0,0l0,0l0,0
		l0,0l0,0l0,0l0,0l0,0l0,0l0,0l0,0l0,0l0,0l0,0l0,0l0,0l0,0l0,0l0,0l0,0l0,0l0,0l0,0l0,0l0,0l0,0l0,0l0,0l0,0l0,0l0,0l0,0l0,0l0.1,0
		l0,0l0,0l0,0l0.1,0l0,0l0,0l0,0l0,0l0,0l0.1,0l0,0l0,0l0,0l0,0l0,0l0,0l0,0l0,0l0.1,0l0,0l0,0l0,0l0.1,0l0,0l0,0l0.1,0l0,0l0.1,0
		l0,0l0.1,0l0,0l0,0l0.1,0l0,0l0.1,0l0.1,0l0,0l0.1,0l0,0l0.1,0l0.1,0l0,0l0.1,0l0.1,0l0.1,0l0,0l0.1,0l0.1,0l0,0l0.1,0l0.1,0l0.1,0
		l0.1,0l0.1,0l0.5,0.2l0.1,0.1l0.1,0.1l0.1,0l0,0l0,0l0,0l0,0l0,0l0,0l0,0l0,0l0,0l0,0l0,0l0,0l0,0l0,0l0,0l0,0l0,0l0,0l0,0l0,0l0,0
		l0,0l0,0l0,0l0,0.1l0,0l0,0l0,0.1l0,0l0,0l0,0l0,0l-0.1,0.2l-0.1,0.1l-0.1,0.1l-0.1,0.1l-0.1,0.1l-0.1,0.1l0,0.1l-0.1,0.1l-0.1,0.1
		l-0.1,0.1l-0.1,0.1l-0.1,0.1l0,0.1l-0.1,0.1l-0.1,0.1l-0.1,0.1l-0.1,0.1l-0.1,0.1l0,0.1l-0.1,0.1l-0.1,0.1l-0.1,0.1l-0.1,0.1
		l-0.1,0.1l0,0l-0.1,0.1l0,0l0,0.1l-0.1,0.1l-0.1,0.1l-0.1,0.1l0,0l-0.1,0.1l-0.1,0.1l-0.1,0.1l-0.1,0.1l-0.1,0.1l0,0.1l-0.1,0.1
		l-0.1,0.1l-0.1,0.1l-0.1,0.1l-0.1,0.1l0,0l-0.1,0.1l-0.1,0.1l-0.1,0.1l-0.1,0.1l-0.1,0.1l-0.1,0.1l0,0.1l-0.1,0.1l-0.1,0.1
		l-0.1,0.1l-0.1,0.1l-0.1,0.1l0,0.1l-0.1,0.1l-0.1,0.1l0,0l0,0l-0.1,0.1l-0.1,0.1l0,0l-0.1,0.1l-0.1,0.1l-0.1,0.1l-0.1,0.1l-0.1,0.1
		l0,0.1l-0.1,0.1l-0.1,0.1l-0.1,0.1l-0.1,0.1l-0.1,0.1l0,0.1l-0.1,0.1l-0.1,0.1l-0.1,0.1l-0.1,0.1l0,0l-0.1,0.1l0,0l-0.1,0.1
		l-0.1,0.1l-0.1,0.1l-0.1,0.1l-0.1,0.1l-0.1,0.1l-0.1,0.1l-0.1,0.1l-0.1,0.1l-0.1,0.1l-0.1,0.1l-0.1,0.1l0,0.1l-0.1,0.1l-0.1,0.1
		l-0.1,0.1l-0.1,0.1l-0.1,0.1l0,0.1l-0.1,0.1l-0.1,0.1l-0.1,0.1l-0.1,0.1l-0.1,0.1l0,0l0,0.1l0,0l-0.1,0.1l-0.1,0.1l-0.1,0.1
		l-0.1,0.1l0,0.1l-0.1,0.1l-0.1,0.1l-0.1,0.1l-0.1,0.1l-0.1,0.1l0,0.1l-0.1,0.1l-0.1,0.1l-0.1,0.1l-0.1,0.1l-0.1,0.1l0,0.1l-0.1,0.1
		l-0.1,0.1l0,0l0,0l0,0l0,0l0,0l0,0l0,0l0,0l0,0l0,0l0,0l0,0l0,0l0,0l0,0l0,0l0,0l0,0l0,0l0,0l0,0l0,0l0,0l0,0l0,0l0,0l0,0l0,0l0,0
		l0,0l0,0l0,0l0,0l0,0l0,0l0,0l0,0l0,0l0,0l0,0l0,0l0,0l0,0l0,0l0,0l0,0l0,0l-0.1,0l0,0l0,0l0,0l0,0l0,0l0,0l0,0l0,0l0,0l0,0l0,0
		l0,0l0,0l0,0l0,0l0,0l0,0l0,0l0,0l0,0l0,0l0,0l0,0l0,0l0,0l0,0l0,0l0,0l0,0l0,0l0,0l0,0l0,0l0,0l0,0l0,0l0,0l0,0l0,0l0,0l0,0l0,0
		l0,0l0,0l0,0l0,0l0,0l0,0l0,0l0,0l0,0L1440.7,5453.7L1440.7,5453.7L1440.7,5453.7L1440.7,5453.7L1440.7,5453.7z"/>
	
		<linearGradient id="Path_1744_1_" gradientUnits="userSpaceOnUse" x1="1449.4305" y1="514.7941" x2="1449.4674" y2="513.0293" gradientTransform="matrix(14.265 0 0 17.0161 -19226.4277 -3304.73)">
		<stop  offset="0" style="stop-color:#FFFFFF"/>
		<stop  offset="0.21" style="stop-color:#FFFFFF"/>
		<stop  offset="0.5" style="stop-color:#FFFFFF"/>
		<stop  offset="0.63" style="stop-color:#FFFFFF"/>
		<stop  offset="1" style="stop-color:#FFFFFF"/>
	</linearGradient>
	<path id="Path_1744" class="st4" d="M1448.3,5451c0,0.2,0,0.3,0,0.5c0,0.5,0.1,1,0.4,1.4c0.3,0.3,0.8,0.5,1.3,0.5
		c0.7,0,1.3-0.2,1.9-0.5l0.2,0.2c-0.3,0.4-0.8,0.6-1.2,0.8c-0.5,0.2-1,0.3-1.5,0.3c-0.7,0-1.3-0.2-1.7-0.7c-0.4-0.5-0.7-1.2-0.7-1.9
		c0-0.4,0-0.7,0.1-1.1c0.2-0.7,0.5-1.3,1-1.9c0.2-0.3,0.5-0.5,0.8-0.7c0.3-0.2,0.6-0.3,0.9-0.4c0.3-0.1,0.7-0.2,1.1-0.2
		c0.5,0,0.9,0.1,1.3,0.4c0.3,0.2,0.5,0.6,0.5,1c0,0.7-0.4,1.3-1.3,1.6C1450.4,5450.8,1449.3,5451,1448.3,5451L1448.3,5451z
		 M1448.4,5450.5c0.8,0,1.6-0.2,2.3-0.5c0.4-0.2,0.7-0.6,0.8-1.1c0-0.2-0.1-0.4-0.2-0.6c-0.2-0.1-0.4-0.2-0.6-0.2
		c-0.5,0-1,0.3-1.3,0.7C1448.8,5449.2,1448.5,5449.8,1448.4,5450.5L1448.4,5450.5z"/>
	
		<linearGradient id="Path_1745_1_" gradientUnits="userSpaceOnUse" x1="1443.2008" y1="371.2497" x2="1443.2493" y2="369.6447" gradientTransform="matrix(15.6661 0 0 27.0488 -21152.998 -4575.0693)">
		<stop  offset="0" style="stop-color:#FFFFFF"/>
		<stop  offset="0.21" style="stop-color:#FFFFFF"/>
		<stop  offset="0.5" style="stop-color:#FFFFFF"/>
		<stop  offset="0.63" style="stop-color:#FFFFFF"/>
		<stop  offset="1" style="stop-color:#FFFFFF"/>
	</linearGradient>
	<path id="Path_1745" class="st5" d="M1453.5,5453.9c0.1-0.2,0.1-0.5,0.2-0.7c0-0.2,0.2-0.9,0.4-2.1l1.4-6.7l-1.1-0.2v-0.2
		c0.8-0.2,1.6-0.3,2.4-0.5l0.1,0.1c-0.1,0.4-0.2,0.8-0.3,1.4c-0.1,0.6-0.2,1.2-0.4,1.8l-0.3,1.6c1-0.5,1.6-0.8,1.9-0.8
		c0.5,0,1,0.2,1.4,0.7c0.4,0.5,0.6,1.1,0.6,1.8c0,1.1-0.4,2.3-1.1,3.1c-0.7,0.8-1.7,1.3-2.8,1.3
		C1455,5454.3,1454.2,5454.1,1453.5,5453.9L1453.5,5453.9L1453.5,5453.9z M1454.8,5453.5c0.4,0.1,0.7,0.1,1.1,0.1
		c0.8,0,1.4-0.4,1.8-1.1c0.5-0.7,0.7-1.5,0.7-2.4c0-0.4-0.1-0.9-0.3-1.3c-0.1-0.3-0.5-0.5-0.8-0.5c-0.6,0-1.1,0.2-1.6,0.5
		L1454.8,5453.5z"/>
	
		<linearGradient id="Path_1746_1_" gradientUnits="userSpaceOnUse" x1="1506.6212" y1="390.9684" x2="1506.8303" y2="387.511" gradientTransform="matrix(7.2667 0 0 25.1792 -9486.6377 -4338.5693)">
		<stop  offset="0" style="stop-color:#FFFFFF"/>
		<stop  offset="0.21" style="stop-color:#FFFFFF"/>
		<stop  offset="0.5" style="stop-color:#FFFFFF"/>
		<stop  offset="0.63" style="stop-color:#FFFFFF"/>
		<stop  offset="1" style="stop-color:#FFFFFF"/>
	</linearGradient>
	<path id="Path_1746" class="st6" d="M1462.4,5452.9c0,0.1,0,0.2,0,0.3c0,0.2,0.1,0.3,0.2,0.4c0.3,0.1,0.5,0.1,0.8,0.1l0,0.3
		c-0.5,0.2-0.9,0.3-1.4,0.3c-0.2,0-0.4-0.1-0.6-0.2c-0.2-0.2-0.2-0.4-0.2-0.6c0-0.2,0-0.3,0.1-0.5l0.9-4.1c0-0.1,0-0.1,0-0.2
		c0-0.1,0-0.1,0-0.2c0-0.1-0.1-0.2-0.2-0.3c-0.3-0.1-0.6-0.1-0.8-0.1l0-0.3c0.5-0.2,1-0.3,1.5-0.3c0.2,0,0.4,0,0.6,0.2
		c0.1,0.1,0.2,0.3,0.2,0.5c0,0.1,0,0.2,0,0.3L1462.4,5452.9L1462.4,5452.9z M1464,5444.9c0,0.2-0.1,0.4-0.2,0.6
		c-0.1,0.2-0.4,0.2-0.6,0.2c-0.4,0-0.7-0.3-0.8-0.7c0,0,0,0,0-0.1c0-0.4,0.3-0.8,0.7-0.8c0,0,0.1,0,0.1,0c0.2,0,0.4,0.1,0.5,0.2
		C1463.9,5444.5,1464,5444.7,1464,5444.9z"/>
	
		<linearGradient id="Path_1747_1_" gradientUnits="userSpaceOnUse" x1="1440.939" y1="516.8168" x2="1440.9683" y2="515.2438" gradientTransform="matrix(16.0032 0 0 16.9771 -21592.0293 -3300.1704)">
		<stop  offset="0" style="stop-color:#FFFFFF"/>
		<stop  offset="0.21" style="stop-color:#FFFFFF"/>
		<stop  offset="0.5" style="stop-color:#FFFFFF"/>
		<stop  offset="0.63" style="stop-color:#FFFFFF"/>
		<stop  offset="1" style="stop-color:#FFFFFF"/>
	</linearGradient>
	<path id="Path_1747" class="st7" d="M1468.3,5447.5c0.8,0,1.5,0.2,2.1,0.8c0.5,0.6,0.8,1.3,0.8,2.1c0,1-0.3,2-1,2.8
		c-0.6,0.7-1.6,1.1-2.5,1.1c-1.5,0.1-2.8-1-2.9-2.5c0-0.1,0-0.3,0-0.4c0-1,0.3-2,1-2.8C1466.4,5447.8,1467.4,5447.4,1468.3,5447.5
		L1468.3,5447.5z M1468.3,5448.1c-0.7,0-1.2,0.4-1.5,1c-0.4,0.7-0.6,1.6-0.6,2.4c0,0.6,0.1,1.1,0.4,1.6c0.3,0.4,0.7,0.6,1.2,0.6
		c0.7,0,1.3-0.4,1.5-1c0.4-0.7,0.6-1.5,0.6-2.4c0-0.6-0.1-1.1-0.4-1.6C1469.2,5448.3,1468.7,5448,1468.3,5448.1L1468.3,5448.1z"/>
	<path id="Path_1748" class="st8" d="M1448.3,5451c0,0.2,0,0.3,0,0.5c0,0.5,0.1,1,0.4,1.4c0.3,0.3,0.8,0.5,1.3,0.5
		c0.7,0,1.3-0.2,1.9-0.5l0.2,0.2c-0.3,0.4-0.8,0.6-1.2,0.8c-0.5,0.2-1,0.3-1.5,0.3c-0.7,0-1.3-0.2-1.7-0.7c-0.4-0.5-0.7-1.2-0.7-1.9
		c0-0.4,0-0.7,0.1-1.1c0.2-0.7,0.5-1.3,1-1.9c0.2-0.3,0.5-0.5,0.8-0.7c0.3-0.2,0.6-0.3,0.9-0.4c0.3-0.1,0.7-0.2,1.1-0.2
		c0.5,0,0.9,0.1,1.3,0.4c0.3,0.2,0.5,0.6,0.5,1c0,0.7-0.4,1.3-1.3,1.6C1450.4,5450.8,1449.3,5451,1448.3,5451L1448.3,5451z
		 M1448.4,5450.5c0.8,0,1.6-0.2,2.3-0.5c0.4-0.2,0.7-0.6,0.8-1.1c0-0.2-0.1-0.4-0.2-0.6c-0.2-0.1-0.4-0.2-0.6-0.2
		c-0.5,0-1,0.3-1.3,0.7C1448.8,5449.2,1448.5,5449.8,1448.4,5450.5L1448.4,5450.5z"/>
	<path id="Path_1749" class="st8" d="M1453.5,5453.9c0.1-0.2,0.1-0.5,0.2-0.7c0-0.2,0.2-0.9,0.4-2.1l1.4-6.7l-1.1-0.2v-0.2
		c0.8-0.2,1.6-0.3,2.4-0.5l0.1,0.1c-0.1,0.4-0.2,0.8-0.3,1.4c-0.1,0.6-0.2,1.2-0.4,1.8l-0.3,1.6c1-0.5,1.6-0.8,1.9-0.8
		c0.5,0,1,0.2,1.4,0.7c0.4,0.5,0.6,1.1,0.6,1.8c0,1.1-0.4,2.3-1.1,3.1c-0.7,0.8-1.7,1.3-2.8,1.3
		C1455,5454.3,1454.2,5454.1,1453.5,5453.9L1453.5,5453.9L1453.5,5453.9z M1454.8,5453.5c0.4,0.1,0.7,0.1,1.1,0.1
		c0.8,0,1.4-0.4,1.8-1.1c0.5-0.7,0.7-1.5,0.7-2.4c0-0.4-0.1-0.9-0.3-1.3c-0.1-0.3-0.5-0.5-0.8-0.5c-0.6,0-1.1,0.2-1.6,0.5
		L1454.8,5453.5z"/>
	<path id="Path_1750" class="st8" d="M1462.4,5452.9c0,0.1,0,0.2,0,0.3c0,0.2,0.1,0.3,0.2,0.4c0.3,0.1,0.5,0.1,0.8,0.1l0,0.3
		c-0.5,0.2-0.9,0.3-1.4,0.3c-0.2,0-0.4-0.1-0.6-0.2c-0.2-0.2-0.2-0.4-0.2-0.6c0-0.2,0-0.3,0.1-0.5l0.9-4.1c0-0.1,0-0.1,0-0.2
		c0-0.1,0-0.1,0-0.2c0-0.1-0.1-0.2-0.2-0.3c-0.3-0.1-0.6-0.1-0.8-0.1l0-0.3c0.5-0.2,1-0.3,1.5-0.3c0.2,0,0.4,0,0.6,0.2
		c0.1,0.1,0.2,0.3,0.2,0.5c0,0.1,0,0.2,0,0.3L1462.4,5452.9L1462.4,5452.9z M1464,5444.9c0,0.2-0.1,0.4-0.2,0.6
		c-0.1,0.2-0.4,0.2-0.6,0.2c-0.4,0-0.7-0.3-0.8-0.7c0,0,0,0,0-0.1c0-0.4,0.3-0.8,0.7-0.8c0,0,0.1,0,0.1,0c0.2,0,0.4,0.1,0.5,0.2
		C1463.9,5444.5,1464,5444.7,1464,5444.9z"/>
	<path id="Path_1751" class="st8" d="M1468.3,5447.5c0.8,0,1.5,0.2,2.1,0.8c0.5,0.6,0.8,1.3,0.8,2.1c0,1-0.3,2-1,2.8
		c-0.6,0.7-1.6,1.1-2.5,1.1c-1.5,0.1-2.8-1-2.9-2.5c0-0.1,0-0.3,0-0.4c0-1,0.3-2,1-2.8C1466.4,5447.8,1467.4,5447.4,1468.3,5447.5
		L1468.3,5447.5z M1468.3,5448.1c-0.7,0-1.2,0.4-1.5,1c-0.4,0.7-0.6,1.6-0.6,2.4c0,0.6,0.1,1.1,0.4,1.6c0.3,0.4,0.7,0.6,1.2,0.6
		c0.7,0,1.3-0.4,1.5-1c0.4-0.7,0.6-1.5,0.6-2.4c0-0.6-0.1-1.1-0.4-1.6C1469.2,5448.3,1468.7,5448,1468.3,5448.1L1468.3,5448.1z"/>
</g>
</svg>
