<svg xmlns="http://www.w3.org/2000/svg" viewBox="0 0 236.37 85.9"><defs><style>.cls-1{fill:#fff;}.cls-2{fill:#e10b31;}</style></defs><title>wth-logo</title><g id="Layer_2" data-name="Layer 2"><g id="Long_Page_cz.2" data-name="Long Page cz.2"><g id="Group_46" data-name="Group 46"><path id="Path_84" data-name="Path 84" class="cls-1" d="M104.8,35.32h5.07V55.49h2.48a2.57,2.57,0,0,0,1.82-.76,2.45,2.45,0,0,0,.77-1.82V35.32H120V55.49h2.59a2.74,2.74,0,0,0,1.81-.76,2.45,2.45,0,0,0,.77-1.82V35.32h5.06v14a8.58,8.58,0,0,1-2.48,6.12,8.34,8.34,0,0,1-6.12,2.59h-6.5v-.77a8.18,8.18,0,0,1-3.54.77h-6.5V35.32Z"/><path id="Path_85" data-name="Path 85" class="cls-1" d="M133.2,58V35.32h5.07v10h5.07v-10h5.06V58h-5.06v-10h-5.07V58Z"/><path id="Path_86" data-name="Path 86" class="cls-1" d="M151.56,58V40.39a4.47,4.47,0,0,1,1.53-3.54,5,5,0,0,1,3.54-1.53h5.06a4.62,4.62,0,0,1,3.54,1.53,5,5,0,0,1,1.53,3.54V58.08h-5.07V47.94h-5.06V58Zm5.07-12.62h5.06V40.29a2.61,2.61,0,0,0-.76-1.82,2.48,2.48,0,0,0-1.82-.76,2.82,2.82,0,0,0-1.81.76,2.46,2.46,0,0,0-.77,1.82v5.07Z"/><path id="Path_87" data-name="Path 87" class="cls-1" d="M172.5,58V37.8h-5.07V35.32h15.21V37.8h-5.07V58Z"/><path id="Path_88" data-name="Path 88" class="cls-1" d="M105.28,83.51V63.34h-5.07V60.85h15.11v2.49h-5.07V83.51Z"/><path id="Path_89" data-name="Path 89" class="cls-1" d="M116,83.51V60.85h5.07v10h5.06v-10h5.07V83.51h-5.07v-10h-5.06v10Z"/><path id="Path_90" data-name="Path 90" class="cls-1" d="M134.44,83.51V60.85h12.62v2.49h-7.55v7.55h5.07v2.58h-5.07V81h7.55v2.48Z"/><path id="Path_91" data-name="Path 91" class="cls-1" d="M156,83.51V60.85H161v10h5.06v-10h5.07V83.51h-5.07v-10H161v10Z"/><path id="Path_92" data-name="Path 92" class="cls-1" d="M192,83.51h-8.8a8.81,8.81,0,0,1-8.8-8.8V69.65a8.81,8.81,0,0,1,8.8-8.8h5.07a8.81,8.81,0,0,1,8.79,8.8V76a2.77,2.77,0,0,1-.76,1.82,2.48,2.48,0,0,1-1.82.76h-5.07c-1.43,0-2.29-.86-2.48-2.49a3,3,0,0,1-.86,1.92,3.3,3.3,0,0,1-2.11.57,4.38,4.38,0,0,1-3.06-1.43,5,5,0,0,1-1.53-3.54V71a4.65,4.65,0,0,1,1.53-3.53,5,5,0,0,1,3.54-1.53h5.07v8.79c0,.86.38,1.25,1.24,1.25h2.49c.86,0,1.24-.39,1.24-1.25V69.65a5.92,5.92,0,0,0-1.81-4.4,6,6,0,0,0-4.5-1.91h-5.07a5.93,5.93,0,0,0-4.4,1.81,6.12,6.12,0,0,0-1.91,4.5v5.06a6,6,0,0,0,1.82,4.4,6.09,6.09,0,0,0,4.5,1.92h8.79v2.48ZM186.94,68.4h-2.49a2.83,2.83,0,0,0-1.82.77,2.47,2.47,0,0,0-.76,1.81v2.59a2.84,2.84,0,0,0,.76,1.81,2.48,2.48,0,0,0,1.82.77,2.81,2.81,0,0,0,1.82-.77,2.43,2.43,0,0,0,.76-1.81V68.4Z"/><path id="Path_93" data-name="Path 93" class="cls-1" d="M215.43,78.44c-.19,3.35-1.91,5.07-5.06,5.07H205.3A4.62,4.62,0,0,1,201.76,82a5,5,0,0,1-1.53-3.54V65.82a4.94,4.94,0,0,1,1.43-3.54,5.09,5.09,0,0,1,3.64-1.53h5.07c3.15,0,4.87,1.72,5.06,5.07H213c-.2-1.72-1.06-2.58-2.49-2.58h-2.58a2.85,2.85,0,0,0-1.82.76,2.45,2.45,0,0,0-.76,1.82V78.44a2.75,2.75,0,0,0,.76,1.82,2.4,2.4,0,0,0,1.82.76h2.58c1.53,0,2.29-.86,2.49-2.58Z"/><path id="Path_94" data-name="Path 94" class="cls-1" d="M218.68,83.51V60.85h5.07v9.27l8.13-9.27h4.49L226.24,72.23l10.13,11.38h-5.06l-7.56-8.8v8.8h-5.07Z"/><path class="cls-2" d="M91,51.48,81.66,44.3a11.34,11.34,0,0,0-9.3-11.18l.41-2.77a26.57,26.57,0,1,0-52.59-7.56L19.6,27.1a11.67,11.67,0,0,1,3.73,0,20.57,20.57,0,0,1,2.87.76l.57-4.11a19.86,19.86,0,0,1,39.31,5.64h0l-.51,3.54H20.66a11.34,11.34,0,0,0-11.09,8.8h0s0,.06,0,.09a11.36,11.36,0,0,0-.27,2.42v.19L0,52.05V66.49l9.28,7v1A11.34,11.34,0,0,0,20.58,85.9h49.7a11.33,11.33,0,0,0,11.08-8.8h0s0-.07,0-.1c.08-.37.14-.74.19-1.12a.13.13,0,0,1,0-.06c0-.41.07-.81.07-1.23v-.06h0v-1L91,65.92ZM70.28,83H20.66a8.53,8.53,0,0,1-8.52-8.51V44.31a9,9,0,0,1,.2-1.63h0a8.51,8.51,0,0,1,8.34-6.87H70.28l.51,0,.36,0,.47.08L72,36l.37.1.44.11.43.16.35.13.47.23.27.13.37.22c.11.07.23.13.34.21s.21.16.32.24l.33.25c.14.11.26.23.39.35l.21.19c.12.12.23.25.35.38s.14.15.2.23l.25.33c.08.11.17.21.24.32s.2.32.3.48.09.15.13.22l.26.54.1.21c.06.15.11.3.17.46s.08.21.11.32a4.75,4.75,0,0,1,.14.54,2.76,2.76,0,0,1,.08.27,8.88,8.88,0,0,1,.17,1.72V74.52a8.15,8.15,0,0,1-.19,1.63h0A8.53,8.53,0,0,1,70.28,83Z"/><path class="cls-2" d="M17.59,65.06V77.58S33.66,76,44.94,76c12.15,0,28.59,1.62,28.59,1.62V65.06s-17.78-1.63-28.59-1.63C33.56,63.43,17.59,65.06,17.59,65.06ZM71,75s-13.77-1.62-26-1.62A193.39,193.39,0,0,0,20.18,75V67.54s14-1.62,24.76-1.62c10.23,0,26,1.62,26,1.62Z"/><path class="cls-2" d="M18.55,51.19l2.9,1.53-2.71,1.43a.77.77,0,0,0-.29,1.05h0l.57,1a.77.77,0,0,0,1,.29h0l3.16-1.67v3.29a.82.82,0,0,0,.76.77h1.17a.75.75,0,0,0,.74-.77V55.08l3,1.56h0a.77.77,0,0,0,1.05-.29l.57-1.05h0a.77.77,0,0,0-.28-1l-2.9-1.53,3.09-1.62A.91.91,0,0,0,30.69,50l-.57-1a.77.77,0,0,0-1.05-.29h0l-3.16,1.67V46.51a.82.82,0,0,0-.76-.77H24a.82.82,0,0,0-.76.77v4.06L19.89,48.8h0a.77.77,0,0,0-1.05.29l-.58,1h0A.77.77,0,0,0,18.55,51.19Z"/><path class="cls-2" d="M40,51.19l2.82,1.49-2.63,1.38a.77.77,0,0,0-.29,1h0l.58,1a.77.77,0,0,0,1,.29h0l3.15-1.66v3.38a.84.84,0,0,0,.77.77h1.15a.83.83,0,0,0,.76-.77V55.08l3,1.56h0a.77.77,0,0,0,1.05-.29l.57-1.05h0a.78.78,0,0,0-.28-1l-3-1.57L51.83,51A.73.73,0,0,0,52,50l-.58-1a.76.76,0,0,0-1-.29h0l-3.06,1.61v-3.8a.83.83,0,0,0-.76-.77H45.42a.84.84,0,0,0-.77.77v4.06L41.31,48.8h0a.77.77,0,0,0-1.05.29l-.58,1h0A.77.77,0,0,0,40,51.19Z"/><path class="cls-2" d="M61.29,51.19l2.91,1.53-2.72,1.43a.77.77,0,0,0-.28,1.05h0l.57,1a.77.77,0,0,0,1,.29h0L66,54.88v3.29a.83.83,0,0,0,.76.77h1.15a.84.84,0,0,0,.77-.77V55.08l3,1.56h0a.77.77,0,0,0,1-.29l.58-1.05h0a.77.77,0,0,0-.29-1l-2.9-1.53,3.09-1.62A.92.92,0,0,0,73.44,50l-.58-1a.77.77,0,0,0-1-.29h0l-3.15,1.67V46.51a.84.84,0,0,0-.77-.77H66.74a.83.83,0,0,0-.76.77v4.06L62.63,48.8h0a.77.77,0,0,0-1.05.29l-.57,1h0A.77.77,0,0,0,61.29,51.19Z"/></g></g></g></svg>