<svg viewBox="0 0 56.26 30.1" xmlns="http://www.w3.org/2000/svg"><g fill="#fff"><path d="M15.28 5.42a.67.67 0 0 0-.89.34l-2 4.43-.65-1.29 1.18-2.58a.67.67 0 1 0-1.22-.56L11 7.32l-.74-1.57A.68.68 0 1 0 9 6.33l1.23 2.58-.59 1.28-2.09-4.44a.68.68 0 1 0-1.22.58l2.74 5.74a.67.67 0 0 0 .61.39.7.7 0 0 0 .61-.4l.71-1.57.75 1.58a.67.67 0 0 0 .61.39.7.7 0 0 0 .61-.4l2.63-5.74a.68.68 0 0 0-.32-.9zm11.44 0a.69.69 0 0 0-.9.34l-2 4.43-.65-1.29 1.19-2.58a.69.69 0 0 0-.34-.9.68.68 0 0 0-.89.34l-.71 1.56-.75-1.57a.66.66 0 0 0-.89-.32.67.67 0 0 0-.32.9l1.23 2.58-.59 1.28L19 5.75a.66.66 0 0 0-.89-.32.67.67 0 0 0-.32.9l2.74 5.74a.66.66 0 0 0 .6.39.67.67 0 0 0 .6-.4l.72-1.57.76 1.58a.66.66 0 0 0 .6.39.67.67 0 0 0 .6-.4l2.64-5.74a.69.69 0 0 0-.33-.9zm11.43 0a.67.67 0 0 0-.89.34l-2 4.43-.65-1.29 1.18-2.58a.67.67 0 1 0-1.22-.56l-.71 1.56-.75-1.57a.67.67 0 0 0-.9-.32.68.68 0 0 0-.32.9l1.24 2.58-.59 1.28-2.12-4.44a.67.67 0 0 0-.9-.32.68.68 0 0 0-.32.9l2.74 5.74a.67.67 0 0 0 .61.39.7.7 0 0 0 .61-.4l.72-1.57.75 1.58a.67.67 0 0 0 .61.39.69.69 0 0 0 .61-.4l2.63-5.74a.68.68 0 0 0-.33-.9z"/><path d="M56.13 18.22a.88.88 0 0 0-.58-.69L53.92 17a7 7 0 0 0-.32-.8l.74-1.55a.88.88 0 0 0-.09-.9A10.34 10.34 0 0 0 52 11.48a.9.9 0 0 0-.91-.08l-1.55.74c-.26-.12-.52-.23-.79-.33l-.58-1.63a.89.89 0 0 0-.7-.57 8.93 8.93 0 0 0-2.57-.07V2.32A2.33 2.33 0 0 0 42.62 0H2.32A2.32 2.32 0 0 0 0 2.32V15.5a2.32 2.32 0 0 0 2.32 2.32h33.62a.86.86 0 0 0-.18.4 10.15 10.15 0 0 0-.13 1.57 10 10 0 0 0 .13 1.56.86.86 0 0 0 .58.7l1.62.58c.1.27.21.54.33.8L37.55 25a.86.86 0 0 0 .09.9 10.12 10.12 0 0 0 2.21 2.22.88.88 0 0 0 .9.08l1.56-.74c.25.12.52.23.79.33l.58 1.62a.89.89 0 0 0 .7.58 9.49 9.49 0 0 0 3.13 0 .89.89 0 0 0 .7-.58l.58-1.62c.27-.1.53-.21.79-.33l1.55.74a.9.9 0 0 0 .87-.1 10.57 10.57 0 0 0 2.21-2.22.89.89 0 0 0 .09-.9l-.74-1.55a7.85 7.85 0 0 0 .32-.8l1.63-.58a.88.88 0 0 0 .58-.7 11.42 11.42 0 0 0 .13-1.56 11.56 11.56 0 0 0-.09-1.57zM2.32 16.27a.77.77 0 0 1-.77-.77V2.32a.77.77 0 0 1 .77-.77h40.3a.78.78 0 0 1 .77.77V11l-.29.8c-.27.1-.54.21-.79.33l-1.56-.74a.88.88 0 0 0-.9.08 10.12 10.12 0 0 0-2.21 2.22.86.86 0 0 0-.09.9l.74 1.55v.12zm52.13 4.3l-1.53.54a.88.88 0 0 0-.55.58 7.53 7.53 0 0 1-.53 1.3.87.87 0 0 0 0 .8l.7 1.46a8.87 8.87 0 0 1-1.11 1.1L50 25.66a.92.92 0 0 0-.81 0 6.74 6.74 0 0 1-1.29.54.86.86 0 0 0-.58.55l-.55 1.52a6.78 6.78 0 0 1-1.56 0l-.54-1.52a.86.86 0 0 0-.58-.55 6.83 6.83 0 0 1-1.3-.54.9.9 0 0 0-.8 0l-1.45.69a8.24 8.24 0 0 1-1.11-1.1l.69-1.46a.87.87 0 0 0 0-.8 6 6 0 0 1-.53-1.3.91.91 0 0 0-.55-.58l-1.53-.54a7.62 7.62 0 0 1 0-1.56l1.49-.54a.91.91 0 0 0 .55-.58.14.14 0 0 1 0-.07 6.12 6.12 0 0 1 .51-1.23 1.19 1.19 0 0 0 .1-.32.89.89 0 0 0-.08-.48l-.69-1.46a8.87 8.87 0 0 1 1.11-1.1l1.45.69a.9.9 0 0 0 .8 0 4.85 4.85 0 0 1 .65-.31c.21-.08.42-.16.65-.23a.86.86 0 0 0 .58-.55l.32-.88.22-.64a6.78 6.78 0 0 1 1.56 0l.55 1.52a.86.86 0 0 0 .58.55 6.74 6.74 0 0 1 1.29.54.92.92 0 0 0 .81 0l1.45-.69a8.87 8.87 0 0 1 1.11 1.1l-.7 1.46a.87.87 0 0 0 0 .8 7.76 7.76 0 0 1 .53 1.29.88.88 0 0 0 .55.59l1.53.54v.78s.04.5.02.78z"/><path d="M45.94 15.49a4.17 4.17 0 0 0-1 .13 4.07 4.07 0 0 0-2.67 2.2 4 4 0 0 0-.41 1.76 4.1 4.1 0 1 0 4.09-4.09zm0 6.42a2.33 2.33 0 1 1 2.33-2.33 2.33 2.33 0 0 1-2.33 2.33z"/></g></svg>