<svg xmlns="http://www.w3.org/2000/svg" viewBox="0 0 46.519 46.519">
  <defs>
    <style>
      .cls-1 {
        fill: #E5102D;
      }
    </style>
  </defs>
  <g id="files" transform="translate(35 0)">
    <g id="Group_39" data-name="Group 39" transform="translate(-35 0)">
      <g id="Group_38" data-name="Group 38" transform="translate(0 0)">
        <path id="Path_27" data-name="Path 27" class="cls-1" d="M295.269,256h-5.815A1.454,1.454,0,0,0,288,257.454v11.63a1.454,1.454,0,0,0,1.454,1.454h5.815a2.907,2.907,0,0,0,2.907-2.907v-8.722A2.907,2.907,0,0,0,295.269,256Zm0,11.63h-4.361v-8.722h4.361Z" transform="translate(-261.833 -232.741)"/>
        <path id="Path_28" data-name="Path 28" class="cls-1" d="M424.722,258.907V256h-7.269A1.454,1.454,0,0,0,416,257.454v13.083h2.907v-5.815h5.815v-2.907h-5.815v-2.907Z" transform="translate(-378.204 -232.741)"/>
        <path id="Path_29" data-name="Path 29" class="cls-1" d="M2.907,42.157V4.361A1.454,1.454,0,0,1,4.361,2.907H26.167V8.722a2.907,2.907,0,0,0,2.907,2.907h5.815v4.361H37.8V10.176a1.453,1.453,0,0,0-.422-1.032L28.653.421A1.454,1.454,0,0,0,27.621,0H4.361A4.361,4.361,0,0,0,0,4.361v37.8a4.361,4.361,0,0,0,4.361,4.361H14.537V43.611H4.361A1.454,1.454,0,0,1,2.907,42.157Z" transform="translate(0 0)"/>
        <path id="Path_30" data-name="Path 30" class="cls-1" d="M167.269,256h-5.815A1.454,1.454,0,0,0,160,257.454v13.083h2.907v-4.361h4.361a2.907,2.907,0,0,0,2.907-2.907v-4.361A2.907,2.907,0,0,0,167.269,256Zm0,7.269h-4.361v-4.361h4.361Z" transform="translate(-145.463 -232.741)"/>
      </g>
    </g>
  </g>
</svg>
