<svg xmlns="http://www.w3.org/2000/svg" xmlns:xlink="http://www.w3.org/1999/xlink" viewBox="0 0 57.444 42.151">
  <defs>
    <style>
      .cls-1, .cls-3 {
        fill: #fff;
      }

      .cls-2 {
        clip-path: url(#clip-path);
      }

      .cls-3 {
        fill-rule: evenodd;
      }
    </style>
    <clipPath id="clip-path">
      <path id="Path_1932" data-name="Path 1932" class="cls-1" d="M0-300.58H57.444v42.151H0Z" transform="translate(0 300.58)"/>
    </clipPath>
  </defs>
  <g id="Group_3255" data-name="Group 3255" transform="translate(0 300.58)">
    <g id="Group_3251" data-name="Group 3251" class="cls-2" transform="translate(0 -300.58)">
      <g id="Group_3249" data-name="Group 3249" transform="translate(0 0)">
        <path id="Path_1930" data-name="Path 1930" class="cls-3" d="M-139.335-124.005l-11.39,11.39c3.2,0,6.539.006,9.882-.015a1.021,1.021,0,0,0,.594-.334c1.621-1.6,3.229-3.217,4.843-4.827.393-.393.794-.778,1.154-1.13l-5.083-5.084m3.742,11.354h20.418c.012-.125.028-.215.028-.306,0-3.271.008-6.542-.012-9.813a1.074,1.074,0,0,0-.318-.658c-1.467-1.493-2.952-2.969-4.433-4.448-.087-.087-.187-.161-.247-.211l-15.436,15.436m27.485,7.094v-28.1h-3.586v.539q0,8.721,0,17.442c0,1.552.008,3.1,0,4.655a1.7,1.7,0,0,1-1.277,1.76,4.709,4.709,0,0,1-1,.076q-18.367.005-36.735,0h-.771v3.623Zm-23.691-15.87c.19-.179.341-.314.484-.456q4.859-4.857,9.718-9.715a1.76,1.76,0,0,1,2.828,0q1.077,1.065,2.144,2.139c.454.458.9.927,1.446,1.5v-12.777h-43.412v28.121a4.46,4.46,0,0,1,.686,0,3.624,3.624,0,0,0,3.4-1.361c4.5-4.62,9.095-9.148,13.658-13.706a1.765,1.765,0,0,1,2.827-.005q1.944,1.943,3.884,3.889c.776.779,1.547,1.562,2.343,2.366m27.181-14.406v32.425a2.093,2.093,0,0,1-2.213,1.329c-5.418-.024-10.836-.009-16.254-.009q-14.937,0-29.874,0a1.79,1.79,0,0,1-2.025-2.039c0-1.476,0-2.952,0-4.428v-.621c-1.677,0-3.265-.034-4.851.012a2.07,2.07,0,0,1-2.225-1.309V-142.9a2.09,2.09,0,0,1,2.214-1.329c5.455.024,10.911.009,16.366.009q14.881,0,29.762,0a1.788,1.788,0,0,1,2.025,2.038c0,1.476,0,2.952,0,4.428v.62c1.659,0,3.228.034,4.8-.012a2.1,2.1,0,0,1,2.281,1.309" transform="translate(162.061 144.231)"/>
      </g>
      <g id="Group_3250" data-name="Group 3250" transform="translate(6.741 7.624)">
        <path id="Path_1931" data-name="Path 1931" class="cls-3" d="M-21.185-31.113a1.629,1.629,0,0,0,1.62,1.642,1.65,1.65,0,0,0,1.642-1.63,1.632,1.632,0,0,0-1.63-1.633,1.609,1.609,0,0,0-1.631,1.622m1.62-5.075a5.146,5.146,0,0,1,5.079,5.075,5.136,5.136,0,0,1-5.07,5.078A5.146,5.146,0,0,1-24.64-31.1a5.159,5.159,0,0,1,5.075-5.083" transform="translate(24.64 36.188)"/>
      </g>
    </g>
  </g>
</svg>
