<svg xmlns="http://www.w3.org/2000/svg" viewBox="0 0 131.52 60"><defs><style>.cls-1,.cls-2{fill:#fff;}.cls-1{fill-rule:evenodd;}</style></defs><title>isaca</title><g id="Warstwa_2" data-name="Warstwa 2"><g id="Long_Page_cz.1" data-name="Long Page cz.1"><g id="Warstwa_2-2" data-name="Warstwa 2"><g id="Chapter"><path class="cls-1" d="M131.45,41.71c.1-.45.25-1.21-.86-1.21a1.43,1.43,0,0,0-1.48,1c-.2.79.24.92.67,1.08s.86.26.73.78a.79.79,0,0,1-.78.64c-.57,0-.6-.42-.48-.88h-.58c-.09.39-.32,1.35,1,1.35a1.53,1.53,0,0,0,1.54-1.19c.19-.76-.24-.92-.67-1.08s-.88-.24-.76-.69a.74.74,0,0,1,.76-.57c.44,0,.5.26.38.75Zm-8.06,2.71H124l.67-2.63a.94.94,0,0,1,.9-.77c.49,0,.4.48.32.77l-.66,2.63h.57l.66-2.63a1,1,0,0,1,.91-.77c.49,0,.39.48.32.77L127,44.42h.57l.76-2.71c.11-.44.31-1.2-.7-1.2a1.43,1.43,0,0,0-1.06.63c0-.43-.22-.6-.66-.6a1.35,1.35,0,0,0-1.07.57l.1-.45h-.57Zm-.32-1.84.06-.24c.21-.81.36-1.83-.81-1.83s-1.63,1.1-1.87,2.06c-.34,1.3-.11,2,.82,2a1.77,1.77,0,0,0,1.6-1.35h-.57c-.07.28-.3.88-.87.88-.73,0-.51-.88-.36-1.47Zm-1.86-.47,0-.14c.06-.23.32-1,1-1s.53.5.43.93l-.06.2Zm-1.88-1.5h-.57l-.12.46h.57l-.66,2.64c-.13.5,0,.75.57.75a2.81,2.81,0,0,0,.5,0l.12-.49h-.27c-.32,0-.36-.12-.28-.43l.62-2.45h.66l.11-.47h-.66l.29-1.11h-.6Zm-1.19,1.14c.11-.45.25-1.22-.85-1.22a1.45,1.45,0,0,0-1.48,1c-.2.79.24.93.66,1.08s.87.27.74.78a.81.81,0,0,1-.8.63c-.57,0-.6-.42-.48-.88h-.6c-.1.39-.33,1.35,1,1.35a1.52,1.52,0,0,0,1.53-1.19c.19-.76-.24-.92-.66-1.08s-.88-.24-.77-.69a.74.74,0,0,1,.77-.57c.43,0,.49.26.37.75Zm-5.09,2.77-.2.34a.62.62,0,0,1-.57.36h-.34l-.12.47h.43c.72,0,1-.47,1.26-1l2.14-4.07H115l-1.44,3.06V40.61h-.66Zm-.83-2.81c.1-.45.25-1.21-.85-1.21a1.44,1.44,0,0,0-1.49,1c-.2.79.25.92.67,1.08s.86.26.74.78a.82.82,0,0,1-.8.63c-.57,0-.6-.42-.49-.89h-.57c-.1.4-.33,1.36,1,1.36a1.51,1.51,0,0,0,1.54-1.2c.19-.75-.24-.92-.66-1.07s-.88-.25-.77-.69a.73.73,0,0,1,.77-.57c.43,0,.5.26.37.75Zm-7.87,2.7h.58l.66-2.63a1,1,0,0,1,1-.77c.54,0,.44.48.37.77l-.67,2.63h.63l.68-2.7c.11-.44.31-1.2-.7-1.2a1.33,1.33,0,0,0-1.06.57l.1-.45h-.58Zm-2-.37c-.61,0-.57-.71-.34-1.54s.52-1.53,1.14-1.53.58.7.38,1.53-.54,1.55-1.18,1.55Zm-1-1.54c-.27,1.08-.23,2,.87,2s1.61-.93,1.88-2,.24-2-.87-2-1.6.94-1.88,2Zm-.67-2.5h.58l.17-.68h-.57Zm-1.11,4.39h.57l1-3.81h-.59Zm-.81-3.81h-.57l-.12.47h.57l-.66,2.64c-.12.49,0,.75.57.75a2.07,2.07,0,0,0,.5,0l.13-.49H99c-.31,0-.36-.12-.28-.42L99.31,41H100l.12-.47h-.64l.28-1.11h-.6ZM96.42,43.3a1.06,1.06,0,0,1-1,.75c-.41,0-.47-.27-.38-.66a.85.85,0,0,1,.44-.6,6,6,0,0,0,1.15-.45Zm-.85-1.56a.92.92,0,0,1,.85-.79c.4,0,.57.21.47.58s-.11.44-.57.57l-.86.24a1.37,1.37,0,0,0-1,1.09c-.17.68.05,1.11.76,1.11A1.47,1.47,0,0,0,96.28,44c-.08.49.21.49.43.49l.36,0,.09-.42A.21.21,0,0,1,97,44c-.19,0-.15-.14-.11-.3l.53-2.13c.11-.39.28-1.09-.88-1.09A1.44,1.44,0,0,0,95,41.76Zm-6.32,2.65h.57l.66-2.62a1,1,0,0,1,.9-.78c.49,0,.4.48.32.78L91,44.39h.57l.67-2.62a1,1,0,0,1,.9-.78c.49,0,.4.48.32.78l-.67,2.62h.58l.76-2.68c.11-.44.3-1.2-.7-1.2a1.4,1.4,0,0,0-1,.63c0-.43-.24-.6-.68-.6a1.34,1.34,0,0,0-1.06.57l.1-.45h-.57Zm-2.24,0h.57L88.19,42a1.14,1.14,0,0,1,1-.9h.31l.15-.57a.53.53,0,0,0-.25,0,1.25,1.25,0,0,0-1,.67l.12-.57H88Zm-2-.36c-.61,0-.57-.72-.34-1.54S85.22,41,85.85,41s.57.71.37,1.54-.53,1.56-1.17,1.56Zm-1-1.54c-.27,1.08-.23,2,.87,2s1.6-.93,1.88-2,.23-2-.87-2-1.61.95-1.88,2Zm-2,1.9h.57l.85-3.34h.66l.11-.47h-.65l.11-.44a.44.44,0,0,1,.48-.37h.27l.13-.51h-.43a1,1,0,0,0-1.05.88l-.11.44h-.57l-.12.47h.57Zm-3.54,0h.57l.66-2.62a1,1,0,0,1,1-.78c.54,0,.44.48.37.78l-.67,2.62H81l.76-2.68c.12-.44.3-1.2-.7-1.2a1.34,1.34,0,0,0-1.06.57l.1-.45H79.5ZM78.13,40h.6l.17-.68h-.6ZM77,44.39h.6l1-3.81H78Zm-2.7,0h.31l0,.18a.68.68,0,0,1-.45.57l-.08.33c.65-.16.81-.65,1-1.18l.16-.63h-.66Zm-5.29,0h.58l.66-2.62a1,1,0,0,1,.91-.78c.49,0,.39.48.31.78l-.62,2.65h.58l.66-2.63A.94.94,0,0,1,73,41c.49,0,.4.48.32.77l-.66,2.63h.57L74,41.71c.11-.44.3-1.2-.7-1.2a1.4,1.4,0,0,0-1.05.63c0-.43-.24-.6-.68-.6a1.33,1.33,0,0,0-1.06.57l.1-.45H70ZM67,44c-.61,0-.57-.72-.35-1.54S67.19,41,67.82,41s.57.71.37,1.54-.54,1.56-1.17,1.56Zm-1-1.54c-.27,1.08-.24,2,.86,2s1.61-.93,1.88-2,.24-2-.86-2-1.63.95-1.88,2Zm-2.47,1.9h.57L64.76,42a1.14,1.14,0,0,1,1-.9h.31l.15-.57a.55.55,0,0,0-.25,0,1.27,1.27,0,0,0-1,.67l.13-.57h-.57Zm-1.72,0h.57l.84-3.34h.66l.12-.47h-.66l.12-.44a.43.43,0,0,1,.47-.37h.28l.13-.51H64a1,1,0,0,0-1,.88l-.11.44h-.57l-.12.47h.57ZM60,42.58l.06-.24c.21-.81.35-1.83-.81-1.83s-1.64,1.1-1.88,2.06c-.33,1.3-.1,2,.83,2a1.76,1.76,0,0,0,1.62-1.35h-.57c-.08.28-.3.88-.88.88-.73,0-.5-.88-.36-1.47Zm-1.87-.47,0-.14c.06-.23.32-1,1-1s.53.5.42.93l-.05.2Zm-1-1.5h-.57l-.66,2.63A1,1,0,0,1,55,44c-.54,0-.44-.47-.37-.77l.67-2.63h-.6L54,43.3c-.12.45-.31,1.21.69,1.21a1.35,1.35,0,0,0,1.07-.57l-.1.45h.57Zm-5,3.81h.6l1.28-5.08h-.57ZM51,43.33a1.09,1.09,0,0,1-1,.72c-.4,0-.47-.27-.38-.66a.87.87,0,0,1,.45-.6,5.64,5.64,0,0,0,1.14-.45Zm-.86-1.57A.9.9,0,0,1,51,41c.4,0,.57.2.46.57s-.1.44-.57.57l-.87.24a1.36,1.36,0,0,0-1,1.07c-.18.68,0,1.11.76,1.11a1.46,1.46,0,0,0,1-.57c-.08.49.2.49.43.49l.36,0,.1-.43a.23.23,0,0,1-.14,0c-.19,0-.15-.15-.11-.3L52,41.6c.1-.39.28-1.09-.88-1.09a1.45,1.45,0,0,0-1.6,1.25Zm-3.42,2.66h.68l2-3.81h-.65l-1.48,3,0-3h-.65Zm-2.07-5.08H44l-.43,1.72a.72.72,0,0,0-.72-.55c-1.07,0-1.5,1.2-1.71,2-.3,1.2-.17,2,.74,2a1.2,1.2,0,0,0,1-.57l-.11.47h.57ZM41.8,42.51C42,41.6,42.32,41,42.87,41s.58.75.4,1.49S42.78,44,42.13,44,41.57,43.43,41.8,42.51Zm-4.33,1.91h.58l.66-2.63a1,1,0,0,1,.95-.77c.57,0,.44.48.37.77l-.66,2.63h.57l.73-2.71c.11-.44.3-1.2-.7-1.2a1.4,1.4,0,0,0-1.07.57l.11-.45h-.58Zm-1.2-1.09a1.07,1.07,0,0,1-1,.72c-.41,0-.47-.27-.38-.66a.84.84,0,0,1,.45-.6,6.14,6.14,0,0,0,1.14-.45Zm-.82-1.57A.88.88,0,0,1,36.3,41c.4,0,.57.2.47.57s-.11.44-.58.57l-.86.24a1.39,1.39,0,0,0-1,1.07c-.17.68.05,1.11.76,1.11A1.47,1.47,0,0,0,36.12,44c-.09.49.2.49.43.49l.35,0L37,44a.26.26,0,0,1-.15,0c-.19,0-.15-.15-.11-.3l.54-2.14c.1-.39.28-1.09-.88-1.09a1.45,1.45,0,0,0-1.6,1.25ZM31.6,44.42h.31l0,.17a.68.68,0,0,1-.45.57l-.09.34c.66-.17.82-.65,1-1.19l.16-.62h-.68Zm-3.5,0h.57l.67-2.63a1,1,0,0,1,1-.77c.57,0,.45.48.37.77L30,44.42h.57l.69-2.71c.11-.44.31-1.2-.69-1.2a1.35,1.35,0,0,0-1.07.57l.1-.45H29ZM27.7,40h.57l.18-.68h-.58Zm-1.11,4.39h.58l1-3.81h-.58ZM24.5,40.58h-.57l-.12.47h.57l-.67,2.64c-.13.49,0,.75.57.75a2.12,2.12,0,0,0,.5,0l.12-.49h-.27c-.31,0-.36-.12-.28-.42L25,41h.66l.12-.47H25.1l.28-1.11h-.6Zm-1.19,1.15c.1-.46.26-1.22-.85-1.22A1.46,1.46,0,0,0,21,41.56c-.2.79.25.93.67,1.08s.86.26.73.78a.8.8,0,0,1-.79.63c-.57,0-.6-.42-.49-.88h-.57c-.1.39-.33,1.35,1,1.35A1.52,1.52,0,0,0,23,43.33c.19-.76-.24-.92-.66-1.08s-.88-.24-.77-.69a.74.74,0,0,1,.77-.57c.43,0,.49.26.37.75ZM20.5,40.58h-.6l-.66,2.64a1,1,0,0,1-.94.78c-.53,0-.44-.47-.36-.77l.66-2.63H18l-.69,2.7c-.11.45-.3,1.21.7,1.21a1.33,1.33,0,0,0,1.06-.57l-.09.45h.57Zm-5.63,3.84h.58l.6-2.41a1.15,1.15,0,0,1,1-.91h.32l.15-.57a.75.75,0,0,0-.26,0,1.28,1.28,0,0,0-1,.67l.13-.57h-.58Zm-.13-4.52H16l.14-.57H13l-.15.57H14.1L13,44.42h.63Z"/><path class="cls-1" d="M29.73,19.09a5.71,5.71,0,0,0-4.66,3.42L20.59,36.2c0-.11,1.8-13.81,1.8-13.81a2.56,2.56,0,0,0,0-.62,2.73,2.73,0,0,0-2.71-2.59L11,18.61C6.81,18.34.1,17.87,0,17.83c.09,0,6.94-.5,11.22-.77l9-.49a4.58,4.58,0,0,0,.74-.13,5.9,5.9,0,0,0,3.08-1.92,5.55,5.55,0,0,0,.51-.81,3.91,3.91,0,0,0,.31-.57L29.65,0,27.47,13.4a3.11,3.11,0,0,0,0,.61,2.5,2.5,0,0,0,.35,1.22,2.72,2.72,0,0,0,1.71,1.27,4.53,4.53,0,0,0,.64.13l3.87.43-.39,1.58Z"/><path class="cls-1" d="M73.05,23.84l1-12.57L68.69,23.84Zm31.05-10L103.79,15H96.18l.2-.68c.42-1.71,1-3.77-1.48-3.77S92,12.85,91.54,14.57l-2.86,11.5c-.4,1.6-1,3.71,1.5,3.71s2.95-2.4,3.34-4l.41-1.65h7.61l-.27,1.09c-1.55,6.28-4.64,9.6-12.34,9.6s-9.28-3-7.73-9.31L84,14.1c1.32-5.38,5.49-8.66,12.16-8.66S105.43,8.43,104.1,13.81Zm-63.51,11h7l-.49,2c-.4,1.6-.15,3,2.24,3a3.44,3.44,0,0,0,3.22-2.81c.57-2.35-1.41-3.25-3.11-4.3a15,15,0,0,1-4.78-3.67c-1.06-1.42-1.4-3.14-.78-5.61,1.31-5.27,5.62-8,11.43-8,6.54,0,8.9,4.08,7.24,9.36H55.59c.33-1.65,1-4.16-1.44-4.31a2.86,2.86,0,0,0-3.07,1.87c-.63,1.68.14,2.54,1.41,3.43,2.43,1.57,4.62,2.54,6,4s2,3.29,1.14,6.7c-1.35,5.37-5.54,8.36-11.78,8.36-6.85,0-8.95-3.36-8-7.06Zm-3.34,9.39H29.73l3.89-15.62,6.61-.76c-.09,0-3.23-.49-5.51-.75L34,17l2.7-10.86h7.51Zm68.5,0H98.18l14-28h9.06V34.24h-7.63l.29-5.46H108Zm8.66-10.4,1-12.57-5.4,12.57Zm-50,10.4H56.82l14-28h9.06V34.24H72.25l.29-5.46h-5.9ZM125,10.75a2.4,2.4,0,0,1-2.29-2.51h0a2.29,2.29,0,0,1,4.52-.72,2.89,2.89,0,0,1,0,.72A2.41,2.41,0,0,1,125,10.75Zm0-.48a1.92,1.92,0,0,0,1.82-2h0a1.84,1.84,0,0,0-3.66-.35,2,2,0,0,0,0,.35A2,2,0,0,0,125,10.29h0Zm.52-1.81.57,1.14h-.57L125,8.46h-.42V9.6h-.48V6.89h1.18A1.16,1.16,0,0,1,126,7a.81.81,0,0,1,.29.7.63.63,0,0,1-.54.72Zm-1-.41h.71c.27,0,.46-.06.46-.4s-.34-.36-.57-.36h-.57Z"/><path class="cls-2" d="M42,54.35c.14.78.22,1.76.32,2.75h0a2.24,2.24,0,0,1,0-.57c.05-.66.11-1.32.21-2l.57-4.21h1.5l-1.43,7.72H41.46l-.57-3c-.15-.81-.2-1.64-.31-2.47h0c-.1.83-.15,1.66-.31,2.47l-.51,3H38.05l-1.5-7.7H38l.65,4.21c.1.66.16,1.32.21,2,0,.18,0,.36,0,.57h0c.12-1,.19-2,.33-2.75l.7-4h1.2Z"/><path class="cls-2" d="M48,58.08a1.13,1.13,0,0,1-.09-.57h0a1.4,1.4,0,0,1-1.14.75c-1.09,0-1.55-.57-1.55-1.71,0-1.33.93-1.65,2-2.08.57-.24.77-.5.66-1-.06-.26-.27-.3-.63-.3-.61,0-.71.32-.7.85H45.16c0-1.11.35-1.88,2-1.88s1.93,1,1.91,1.72v3.42a3.24,3.24,0,0,0,.11.82ZM47.76,55a12.5,12.5,0,0,0-1.08.75.88.88,0,0,0-.22.69c0,.44.13.75.63.75.78,0,.64-1,.67-1.56Z"/><path class="cls-2" d="M51.73,53.3h0a1.85,1.85,0,0,1,.53-.82,1.15,1.15,0,0,1,.83-.31v1.59c-.74-.07-1.31.11-1.33,1v3.35H50.45V52.27h1.28Z"/><path class="cls-2" d="M54.87,56.17c-.1,1.06.31,1,.62,1a.54.54,0,0,0,.59-.45.5.5,0,0,0,0-.21c0-.32-.4-.51-.65-.68l-.74-.51a2.17,2.17,0,0,1-1.1-1.83c0-.9.72-1.41,2-1.41a1.66,1.66,0,0,1,1.86,1.93H56.09c0-.65-.15-.9-.62-.9-.31,0-.57.15-.57.47s.25.5.51.67L56.5,55a2.14,2.14,0,0,1,.92,1.15c.11,1-.14,2-2,2a1.71,1.71,0,0,1-1.91-1.49,1.81,1.81,0,0,1,0-.57Z"/><path class="cls-2" d="M61.09,58.08a1,1,0,0,1-.09-.57h0a1.42,1.42,0,0,1-1.17.75c-1.08,0-1.56-.57-1.56-1.71,0-1.33.94-1.65,2-2.08.57-.24.77-.5.66-1-.06-.26-.27-.3-.63-.3-.6,0-.71.32-.7.85H58.3c0-1.11.35-1.88,2-1.88s1.93,1,1.91,1.72v3.42a3.18,3.18,0,0,0,.11.82ZM60.9,55a12.5,12.5,0,0,0-1.08.75.84.84,0,0,0-.23.69c0,.44.14.75.63.75.79,0,.65-1,.68-1.56Z"/><path class="cls-2" d="M67.53,55.83a10.62,10.62,0,0,1,.14,1.25h0c0-.26.08-1.11.11-1.29l.44-3.52h1.35l-1.14,5.81H67l-.44-2.35a11.88,11.88,0,0,1-.18-1.46h0a12.41,12.41,0,0,1-.13,1.38l-.42,2.43H64.26l-1.19-5.81h1.41L65,55.82c0,.17.12,1,.12,1.28h0a8.72,8.72,0,0,1,.14-1.24l.57-3.59h1.09Z"/><path class="cls-2" d="M77.66,55.33v.44c-.07,1.41-.57,2.49-2.15,2.49-2.37,0-2.52-1.5-2.52-3.56V53.6c.06-2,.22-3.43,2.52-3.43a1.94,1.94,0,0,1,2.11,1.74,2.25,2.25,0,0,1,0,.26,2.73,2.73,0,0,1,0,.57H76.23c-.06-.5,0-1.43-.72-1.43-1.14,0-1,1.35-1,1.95v2.17c0,.64.06,1.68,1,1.68.79,0,.7-1.28.73-1.77Z"/><path class="cls-2" d="M78.74,58.08V50.36h1.34v2.51h0a1.31,1.31,0,0,1,1.2-.75,1.27,1.27,0,0,1,1.35,1.18,1.51,1.51,0,0,1,0,.3v4.48H81.28v-4c0-.57-.06-.94-.57-1s-.68.45-.66,1.07v3.86Z"/><path class="cls-2" d="M86.52,58.08a1.13,1.13,0,0,1-.09-.57h0a1.4,1.4,0,0,1-1.14.75c-1.08,0-1.55-.57-1.55-1.71,0-1.33.93-1.65,2-2.08.57-.24.77-.5.66-1-.06-.26-.27-.3-.63-.3-.61,0-.71.32-.7.85H83.73c0-1.11.35-1.88,2-1.88s1.93,1,1.91,1.72v3.42a3.76,3.76,0,0,0,.11.82ZM86.33,55c-.32.23-.72.45-1.08.75a.88.88,0,0,0-.22.69c0,.44.13.75.63.75.79,0,.64-1,.67-1.56Z"/><path class="cls-2" d="M90.34,52.88h0a1.1,1.1,0,0,1,1.14-.76c.86,0,1.35.49,1.39,2.08v2.1c0,.92-.26,1.93-1.39,1.93a1.31,1.31,0,0,1-1.23-.75h0V60H89V52.27h1.34Zm0,3.3c0,.67.21,1,.64,1s.57-.45.57-1V54.29c0-.58,0-1.15-.61-1.15s-.64.83-.62,1.29Z"/><path class="cls-2" d="M96.14,58.1c-.8.09-1.91.16-1.91-.92V53.25h-.57v-1h.54V50.68h1.35v1.59h.57v1h-.57v3.61c0,.24.4.21.57.19Z"/><path class="cls-2" d="M97,54.29a1.82,1.82,0,0,1,2-2.16c1.87,0,2.06,1,2.06,2.56v.78H98.3v.84c0,.76.3.91.7.91s.64-.36.62-1.09H101c.05,1.29-.49,2.12-1.86,2.12-1.54,0-2.16-.74-2.13-2.44Zm2.67.15v-.51c0-.57-.16-.77-.69-.77s-.64.51-.64,1v.24Z"/><path class="cls-2" d="M103.45,53.3h0a2,2,0,0,1,.52-.82,1.19,1.19,0,0,1,.84-.31v1.59c-.75-.07-1.31.11-1.33,1v3.35h-1.34V52.27h1.31Z"/></g></g></g></g></svg>