<svg xmlns="http://www.w3.org/2000/svg" viewBox="0 0 153.93 50"><defs><style>.cls-1{fill:#fff;}</style></defs><title>issa</title><g id="Warstwa_2" data-name="Warstwa 2"><g id="Long_Page_cz.1" data-name="Long Page cz.1"><g id="Warstwa_2-2" data-name="Warstwa 2"><g id="Warstwa_1-2" data-name="Warstwa 1-2"><path class="cls-1" d="M0,19.82c.24,0,.08-.32.24-.43.68,2,2.12,2.8,4.68,2.68a29.38,29.38,0,0,0,10.72-3A61,61,0,0,0,30.36,9.73c.61-.52,1-.66,1.56,0a25.85,25.85,0,0,0,2.37,2.31c.44.39.4.6,0,1A71.91,71.91,0,0,1,22,21.48,49.83,49.83,0,0,1,9,26.66a18,18,0,0,1-3.8.47C3,27.13.92,26.73,0,24.29V22.9a2.76,2.76,0,0,0,0-2Z"/><path class="cls-1" d="M27.1,49.71A31.61,31.61,0,0,0,37,46.32a50.74,50.74,0,0,0,13.35-9.57c.77-.77,1.47-1.62,2.23-2.46.2.33,0,.57-.1.8a13.94,13.94,0,0,1-4.19,5.59,39.57,39.57,0,0,1-14.8,8.62,11.32,11.32,0,0,1-3.16.54c-.12,0-.26,0-.31.15h-.92c-.22-.25-.51-.11-.77-.15C27.91,49.78,27.48,50,27.1,49.71Z"/><path class="cls-1" d="M27.1,49.71c.38.27.81.07,1.22.14.26,0,.55-.1.77.15H26.47C26.58,49.68,26.82,49.64,27.1,49.71Z"/><path class="cls-1" d="M0,20.9a2.76,2.76,0,0,1,0,2Z"/><path class="cls-1" d="M1.25,30.32c.38-.07.45.21.61.35A6.07,6.07,0,0,0,6,32a25.93,25.93,0,0,0,9.56-2,69.86,69.86,0,0,0,27-18.1,19.07,19.07,0,0,0,4.22-6.73,4.43,4.43,0,0,0-.06-3.6c.42-.15.6.19.81.41.64.66,1.22,1.38,1.88,2a4.08,4.08,0,0,1,1,4.11A15.62,15.62,0,0,1,47.29,14,56.58,56.58,0,0,1,34.51,25.72a68.27,68.27,0,0,1-19.67,9.86,21,21,0,0,1-7.95,1c-2.08-.2-3.67-1-4.41-3.12C2.1,32.44,1.68,31.41,1.25,30.32Z"/><path class="cls-1" d="M6.5,39.86a11,11,0,0,0,2.63.91,20.54,20.54,0,0,0,9.13-1.21A72.12,72.12,0,0,0,40.89,27.17a48.6,48.6,0,0,0,9.48-9.47,21.84,21.84,0,0,0,2.11-3.5,21.93,21.93,0,0,1,1.77,4.25c.09.29-.1.49-.2.71a25.31,25.31,0,0,1-4.78,6.46A71.49,71.49,0,0,1,22.7,42.7a35,35,0,0,1-7.24,1.72c-3.45.48-6-.93-8.09-3.51C7.14,40.61,6.89,40.32,6.5,39.86Z"/><path class="cls-1" d="M3.22,9.23c0,2.28.77,3,2.89,3A17.42,17.42,0,0,0,13,10.44,38.16,38.16,0,0,0,26.7.6c.2-.24.35-.37.7-.26a38.1,38.1,0,0,1,4.1,1.52,15.13,15.13,0,0,1-2.25,2.61A49.41,49.41,0,0,1,9.75,16.33a13.83,13.83,0,0,1-5.6.75C1.79,16.84.8,15.39,1.49,13.13A28,28,0,0,1,2.94,9.59,3.17,3.17,0,0,1,3.22,9.23Z"/><path class="cls-1" d="M11.32,0A11,11,0,0,0,9.79,1.85c-.23.41-.48.83-.21,1.29s.78.42,1.24.37A8.6,8.6,0,0,0,14.18,2.3c.35-.2.51-.21.66.21.25.7.56,1.37.87,2,.11.25.13.39-.15.55A18.12,18.12,0,0,1,8.27,7.72l-.15,0c-2,.07-2.76-1-1.87-2.84A13.79,13.79,0,0,1,10.5.24.86.86,0,0,1,11.32,0Z"/><path class="cls-1" d="M15.49,47c1.19,0,2.38.12,3.58,0a32.28,32.28,0,0,0,8.63-2.34,1,1,0,0,1,1.22.18c.7.6,1.45,1.12,2.23,1.71a28.17,28.17,0,0,1-9.36,2.36,10.87,10.87,0,0,1-4.65-1.13C16.58,47.54,16,47.27,15.49,47Z"/><path class="cls-1" d="M153.92,33.27c-4.43,0-8.87,0-13.3,0-.59,0-.79-.18-.87-.74-.2-1.32-.46-2.62-.72-3.93-.1-.46,0-.63.5-.61,2.16,0,4.31,0,6.47,0,.7,0,.79-.2.67-.82q-1.62-8.64-3.21-17.29c-.08-.44-.26-.59-.71-.58-1.51,0-3,0-4.54,0-.49,0-.66.15-.74.63q-1.77,9.66-3.57,19.33c-.21,1.11-.44,2.21-.62,3.32-.08.48-.23.69-.77.67q-2.38-.06-4.77,0c-.57,0-.69-.13-.58-.67.68-3.57,1.34-7.15,2-10.72,1.06-5.64,2.13-11.28,3.17-16.91.08-.47.23-.59.68-.59H148c.48,0,.57.2.65.62q1.56,8.49,3.17,17,1,5.47,2,10.94a.55.55,0,0,0,.13.18Z"/><path class="cls-1" d="M153.92,46.2h-.53c-1.21,0-1.25,0-1.58-1.12-.22-.81-.82-.4-1.25-.48a.62.62,0,0,0-.84.52c-.1.38,0,1-.61,1.08-1.37.18-1.42.11-1.05-1.22.43-1.55.86-3.1,1.27-4.66a.67.67,0,0,1,.77-.6c1.94,0,1.91,0,2.47,1.88A37.31,37.31,0,0,0,153.92,46Zm-3.14-5.3c-.2.72-.37,1.36-.53,2,0,.15-.18.41.06.46a2.27,2.27,0,0,0,1,0c.26-.06.06-.31,0-.45C151.15,42.27,151,41.64,150.78,40.9Z"/><path class="cls-1" d="M87.29,33.74a37.65,37.65,0,0,1-11.63-1.83c-.64-.21-.84-.48-.6-1.16.39-1.13.7-2.3,1-3.45.11-.42.29-.48.69-.33a32,32,0,0,0,12.68,1.84,8.81,8.81,0,0,0,1.45-.16,2.34,2.34,0,0,0,2.1-2.2,7.19,7.19,0,0,0,.1-.92c0-2-.49-2.69-2.41-3.15-2.68-.65-5.38-1.25-8.07-1.88A15.19,15.19,0,0,1,80,19.6a6.63,6.63,0,0,1-4.24-5.91,12.21,12.21,0,0,1,0-3.52,7,7,0,0,1,4.22-5,14.26,14.26,0,0,1,6.35-1.25A37.45,37.45,0,0,1,96.85,5.24c.73.23,1,.49.64,1.26a31.86,31.86,0,0,0-1,3.14c-.14.47-.29.62-.85.46A28.69,28.69,0,0,0,85.25,8.79a.82.82,0,0,0-.22,0c-3.53.46-3.75,1.83-3.43,4.72.08.71.66,1.05,1.3,1.28a57.58,57.58,0,0,0,6.85,1.7,17.16,17.16,0,0,1,5.64,2.13,7.1,7.1,0,0,1,3.45,6.23,11.57,11.57,0,0,1-.24,3.05c-.75,3.08-3.09,5-6.64,5.51A27,27,0,0,1,87.29,33.74Z"/><path class="cls-1" d="M114.25,33.75A39,39,0,0,1,102.32,32c-1.07-.33-1.07-.37-.76-1.47s.64-2.1.92-3.17c.12-.44.27-.55.73-.38a32.45,32.45,0,0,0,13.14,1.83,3.39,3.39,0,0,0,2.8-5.23,2.35,2.35,0,0,0-1.62-1.07l-7.93-1.84a16.13,16.13,0,0,1-3.75-1.34,6.32,6.32,0,0,1-3.52-4.75,11.58,11.58,0,0,1,0-4.58c.67-2.87,2.71-4.41,5.34-5.33a14.47,14.47,0,0,1,4.75-.78,38.06,38.06,0,0,1,10.57,1.26c1.28.37,1.27.4.87,1.64-.31,1-.65,1.94-.93,2.92-.12.43-.25.57-.74.42a31.07,31.07,0,0,0-8.61-1.4,11.36,11.36,0,0,0-3.57.4,2.59,2.59,0,0,0-2,2.71v.08c0,2.23.21,2.56,2.35,3.21,2.35.72,4.78,1.09,7.16,1.69a16.62,16.62,0,0,1,2.83,1c4.08,1.85,5.41,4.64,5,8.82-.41,4-2.77,6.25-6.88,6.82A28.61,28.61,0,0,1,114.25,33.75Z"/><path class="cls-1" d="M70.9,18.8c0,4.59,0,9.18,0,13.76,0,.57-.13.75-.72.73-1.54,0-3.08,0-4.62,0-.47,0-.65-.09-.65-.62q0-13.8,0-27.6c0-.48.09-.68.63-.67,1.56,0,3.12,0,4.69,0,.58,0,.66.22.66.72C70.89,9.68,70.9,14.24,70.9,18.8Z"/><path class="cls-1" d="M87.11,43v.53A2.86,2.86,0,0,1,82.65,46c-1.66-1-1.64-5.06,0-6a2.86,2.86,0,0,1,4.43,2.38Zm-1.64-.22a7.16,7.16,0,0,0-.09-1,1,1,0,0,0-1.09-.88,1,1,0,0,0-1.09.89,5.9,5.9,0,0,0,0,2.44,1,1,0,0,0,1.07.8,1,1,0,0,0,1.07-.81,7,7,0,0,0,.1-1.41Z"/><path class="cls-1" d="M136.72,46.14l-.18,0a2.26,2.26,0,0,1-2.77-1.36,4.22,4.22,0,0,0-1.06-1.3c0,.72,0,1.44,0,2.17,0,.4-.12.51-.52.51-1.14,0-1.14,0-1.14-1.12,0-1.59,0-3.19,0-4.78,0-.84.53-.54.93-.57s.82-.11.76.57,0,1.37,0,2.18A5.45,5.45,0,0,0,134,40.85c.6-1.14,1.5-1.3,2.72-1-.66.88-1.26,1.75-1.93,2.57a.72.72,0,0,0,0,1.1C135.45,44.31,136.05,45.21,136.72,46.14Z"/><path class="cls-1" d="M64.94,42.91c0-.89,0-1.79,0-2.68,0-.35.06-.5.46-.51a20,20,0,0,1,2.68,0c1.3.15,2,.8,2,2a1.91,1.91,0,0,1-1.84,2.2,4.85,4.85,0,0,1-.53.08c-1.15.1-1.15.09-1.15,1.28a.93.93,0,0,1-1.41.9c-.28-.11-.17-.33-.17-.51C64.93,44.75,64.94,43.83,64.94,42.91Zm1.59-1.12c.07.39-.29,1,.6,1s1.3-.25,1.31-.91-.3-.86-1.2-.92C66.51,40.86,66.44,41.23,66.53,41.79Z"/><path class="cls-1" d="M115.91,45.13h1a.64.64,0,0,0,.67-.52.63.63,0,0,0-.42-.73c-.51-.24-1-.44-1.54-.69a1.82,1.82,0,0,1-1.17-2.1c.12-.82.6-1.23,1.66-1.42a8.05,8.05,0,0,1,2.45.07c.59.08.38.51.4.83s-.29.31-.54.29c-.56,0-1.13,0-1.69,0-.3,0-.58.1-.65.43s.15.52.43.64c.46.21.95.39,1.41.6a1.94,1.94,0,0,1,1.33,2.24c-.15.95-.79,1.48-2,1.6a11.06,11.06,0,0,1-2.3-.11c-.54-.07-.36-.45-.39-.75s.17-.41.47-.39a8,8,0,0,0,.85,0Z"/><path class="cls-1" d="M98.89,43c0-.89,0-1.79,0-2.69,0-.42.11-.57.56-.57,1.11,0,1.11,0,1.11,1.08s0,2.41,0,3.61c0,.42.09.61.55.57s.82.05,1.23,0c.82-.14.78.36.75.9,0,.27-.12.35-.37.35-1.13,0-2.26,0-3.39,0-.44,0-.43-.24-.42-.54Z"/></g></g></g></g></svg>