<svg xmlns="http://www.w3.org/2000/svg" viewBox="0 0 180.94 55"><defs><style>.cls-1{fill:#fff;}</style></defs><title>pti</title><g id="Warstwa_2" data-name="Warstwa 2"><g id="Long_Page_cz.1" data-name="Long Page cz.1"><polygon class="cls-1" points="38.03 0 41.84 0 41.84 3.8 38.03 3.8 38.03 0"/><polygon class="cls-1" points="38.03 4.54 41.84 4.54 41.84 8.34 38.03 8.34 38.03 4.54"/><polygon class="cls-1" points="38.03 9.07 41.84 9.07 41.84 12.87 38.03 12.87 38.03 9.07"/><polygon class="cls-1" points="38.03 13.6 41.84 13.6 41.84 17.41 38.03 17.41 38.03 13.6"/><polygon class="cls-1" points="38.03 18.29 41.84 18.29 41.84 22.09 38.03 22.09 38.03 18.29"/><polygon class="cls-1" points="38.03 22.82 41.84 22.82 41.84 26.62 38.03 26.62 38.03 22.82"/><polygon class="cls-1" points="38.03 27.5 41.84 27.5 41.84 31.3 38.03 31.3 38.03 27.5"/><polygon class="cls-1" points="38.03 32.03 41.84 32.03 41.84 35.84 38.03 35.84 38.03 32.03"/><polygon class="cls-1" points="42.71 0 46.52 0 46.52 3.8 42.71 3.8 42.71 0"/><polygon class="cls-1" points="42.71 4.54 46.52 4.54 46.52 8.34 42.71 8.34 42.71 4.54"/><polygon class="cls-1" points="42.71 9.07 46.52 9.07 46.52 12.87 42.71 12.87 42.71 9.07"/><polygon class="cls-1" points="42.71 13.6 46.52 13.6 46.52 17.41 42.71 17.41 42.71 13.6"/><polygon class="cls-1" points="42.71 18.29 46.52 18.29 46.52 22.09 42.71 22.09 42.71 18.29"/><polygon class="cls-1" points="42.71 22.82 46.52 22.82 46.52 26.62 42.71 26.62 42.71 22.82"/><polygon class="cls-1" points="42.71 27.5 46.52 27.5 46.52 31.3 42.71 31.3 42.71 27.5"/><polygon class="cls-1" points="42.71 32.03 46.52 32.03 46.52 35.84 42.71 35.84 42.71 32.03"/><polygon class="cls-1" points="47.25 0 51.05 0 51.05 3.8 47.25 3.8 47.25 0"/><polygon class="cls-1" points="47.25 4.54 51.05 4.54 51.05 8.34 47.25 8.34 47.25 4.54"/><polygon class="cls-1" points="47.25 9.07 51.05 9.07 51.05 12.87 47.25 12.87 47.25 9.07"/><polygon class="cls-1" points="47.25 13.6 51.05 13.6 51.05 17.41 47.25 17.41 47.25 13.6"/><polygon class="cls-1" points="47.25 18.29 51.05 18.29 51.05 22.09 47.25 22.09 47.25 18.29"/><polygon class="cls-1" points="47.25 22.82 51.05 22.82 51.05 26.62 47.25 26.62 47.25 22.82"/><polygon class="cls-1" points="47.25 27.5 51.05 27.5 51.05 31.3 47.25 31.3 47.25 27.5"/><polygon class="cls-1" points="47.25 32.03 51.05 32.03 51.05 35.84 47.25 35.84 47.25 32.03"/><polygon class="cls-1" points="51.93 0 55.59 0 55.59 3.8 51.93 3.8 51.93 0"/><polygon class="cls-1" points="51.93 4.54 55.59 4.54 55.59 8.34 51.93 8.34 51.93 4.54"/><polygon class="cls-1" points="51.93 9.07 55.59 9.07 55.59 12.87 51.93 12.87 51.93 9.07"/><polygon class="cls-1" points="51.93 13.6 55.59 13.6 55.59 17.41 51.93 17.41 51.93 13.6"/><polygon class="cls-1" points="51.93 18.29 55.59 18.29 55.59 22.09 51.93 22.09 51.93 18.29"/><polygon class="cls-1" points="51.93 22.82 55.59 22.82 55.59 26.62 51.93 26.62 51.93 22.82"/><polygon class="cls-1" points="51.93 27.5 55.59 27.5 55.59 31.3 51.93 31.3 51.93 27.5"/><polygon class="cls-1" points="51.93 32.03 55.59 32.03 55.59 35.84 51.93 35.84 51.93 32.03"/><polygon class="cls-1" points="56.46 0 60.27 0 60.27 3.8 56.46 3.8 56.46 0"/><polygon class="cls-1" points="56.46 18.29 60.27 18.29 60.27 22.09 56.46 22.09 56.46 18.29"/><polygon class="cls-1" points="61 0 64.8 0 64.8 3.8 61 3.8 61 0"/><polygon class="cls-1" points="61 4.54 64.8 4.54 64.8 8.34 61 8.34 61 4.54"/><polygon class="cls-1" points="61 9.07 64.8 9.07 64.8 12.87 61 12.87 61 9.07"/><polygon class="cls-1" points="61 13.6 64.8 13.6 64.8 17.41 61 17.41 61 13.6"/><polygon class="cls-1" points="61 18.29 64.8 18.29 64.8 22.09 61 22.09 61 18.29"/><polygon class="cls-1" points="65.53 0 69.48 0 69.48 3.8 65.53 3.8 65.53 0"/><polygon class="cls-1" points="65.53 4.54 69.48 4.54 69.48 8.34 65.53 8.34 65.53 4.54"/><polygon class="cls-1" points="65.53 9.07 69.48 9.07 69.48 12.87 65.53 12.87 65.53 9.07"/><polygon class="cls-1" points="65.53 13.6 69.48 13.6 69.48 17.41 65.53 17.41 65.53 13.6"/><polygon class="cls-1" points="65.53 18.29 69.48 18.29 69.48 22.09 65.53 22.09 65.53 18.29"/><polygon class="cls-1" points="70.36 0 74.02 0 74.02 3.8 70.36 3.8 70.36 0"/><polygon class="cls-1" points="70.36 4.54 74.02 4.54 74.02 8.34 70.36 8.34 70.36 4.54"/><polygon class="cls-1" points="70.36 9.07 74.02 9.07 74.02 12.87 70.36 12.87 70.36 9.07"/><polygon class="cls-1" points="70.36 13.6 74.02 13.6 74.02 17.41 70.36 17.41 70.36 13.6"/><polygon class="cls-1" points="70.36 18.29 74.02 18.29 74.02 22.09 70.36 22.09 70.36 18.29"/><polygon class="cls-1" points="74.89 4.54 78.7 4.54 78.7 8.34 74.89 8.34 74.89 4.54"/><polygon class="cls-1" points="74.89 9.07 78.7 9.07 78.7 12.87 74.89 12.87 74.89 9.07"/><polygon class="cls-1" points="74.89 13.6 78.7 13.6 78.7 17.41 74.89 17.41 74.89 13.6"/><polygon class="cls-1" points="84.11 0 87.91 0 87.91 3.8 84.11 3.8 84.11 0"/><polygon class="cls-1" points="84.11 4.54 87.91 4.54 87.91 8.34 84.11 8.34 84.11 4.54"/><polygon class="cls-1" points="84.11 9.07 87.91 9.07 87.91 12.87 84.11 12.87 84.11 9.07"/><polygon class="cls-1" points="88.64 0 92.45 0 92.45 3.8 88.64 3.8 88.64 0"/><polygon class="cls-1" points="88.64 4.54 92.45 4.54 92.45 8.34 88.64 8.34 88.64 4.54"/><polygon class="cls-1" points="88.64 9.07 92.45 9.07 92.45 12.87 88.64 12.87 88.64 9.07"/><polygon class="cls-1" points="93.33 0 96.98 0 96.98 3.8 93.33 3.8 93.33 0"/><polygon class="cls-1" points="93.33 4.54 96.98 4.54 96.98 8.34 93.33 8.34 93.33 4.54"/><polygon class="cls-1" points="93.33 9.07 96.98 9.07 96.98 12.87 93.33 12.87 93.33 9.07"/><polygon class="cls-1" points="93.33 13.6 96.98 13.6 96.98 17.41 93.33 17.41 93.33 13.6"/><polygon class="cls-1" points="93.33 18.29 96.98 18.29 96.98 22.09 93.33 22.09 93.33 18.29"/><polygon class="cls-1" points="93.33 22.82 96.98 22.82 96.98 26.62 93.33 26.62 93.33 22.82"/><polygon class="cls-1" points="93.33 27.5 96.98 27.5 96.98 31.3 93.33 31.3 93.33 27.5"/><polygon class="cls-1" points="93.33 32.03 96.98 32.03 96.98 35.84 93.33 35.84 93.33 32.03"/><polygon class="cls-1" points="97.71 0 101.66 0 101.66 3.8 97.71 3.8 97.71 0"/><polygon class="cls-1" points="97.71 4.54 101.66 4.54 101.66 8.34 97.71 8.34 97.71 4.54"/><polygon class="cls-1" points="97.71 9.07 101.66 9.07 101.66 12.87 97.71 12.87 97.71 9.07"/><polygon class="cls-1" points="97.71 13.6 101.66 13.6 101.66 17.41 97.71 17.41 97.71 13.6"/><polygon class="cls-1" points="97.71 18.29 101.66 18.29 101.66 22.09 97.71 22.09 97.71 18.29"/><polygon class="cls-1" points="97.71 22.82 101.66 22.82 101.66 26.62 97.71 26.62 97.71 22.82"/><polygon class="cls-1" points="97.71 27.5 101.66 27.5 101.66 31.3 97.71 31.3 97.71 27.5"/><polygon class="cls-1" points="97.71 32.03 101.66 32.03 101.66 35.84 97.71 35.84 97.71 32.03"/><polygon class="cls-1" points="102.39 0 106.2 0 106.2 3.8 102.39 3.8 102.39 0"/><polygon class="cls-1" points="102.39 4.54 106.2 4.54 106.2 8.34 102.39 8.34 102.39 4.54"/><polygon class="cls-1" points="102.39 9.07 106.2 9.07 106.2 12.87 102.39 12.87 102.39 9.07"/><polygon class="cls-1" points="102.39 13.6 106.2 13.6 106.2 17.41 102.39 17.41 102.39 13.6"/><polygon class="cls-1" points="102.39 18.29 106.2 18.29 106.2 22.09 102.39 22.09 102.39 18.29"/><polygon class="cls-1" points="102.39 22.82 106.2 22.82 106.2 26.62 102.39 26.62 102.39 22.82"/><polygon class="cls-1" points="102.39 27.5 106.2 27.5 106.2 31.3 102.39 31.3 102.39 27.5"/><polygon class="cls-1" points="102.39 32.03 106.2 32.03 106.2 35.84 102.39 35.84 102.39 32.03"/><polygon class="cls-1" points="106.93 0 110.88 0 110.88 3.8 106.93 3.8 106.93 0"/><polygon class="cls-1" points="106.93 4.54 110.88 4.54 110.88 8.34 106.93 8.34 106.93 4.54"/><polygon class="cls-1" points="106.93 9.07 110.88 9.07 110.88 12.87 106.93 12.87 106.93 9.07"/><polygon class="cls-1" points="106.93 13.6 110.88 13.6 110.88 17.41 106.93 17.41 106.93 13.6"/><polygon class="cls-1" points="106.93 18.29 110.88 18.29 110.88 22.09 106.93 22.09 106.93 18.29"/><polygon class="cls-1" points="106.93 22.82 110.88 22.82 110.88 26.62 106.93 26.62 106.93 22.82"/><polygon class="cls-1" points="106.93 27.5 110.88 27.5 110.88 31.3 106.93 31.3 106.93 27.5"/><polygon class="cls-1" points="106.93 32.03 110.88 32.03 110.88 35.84 106.93 35.84 106.93 32.03"/><polygon class="cls-1" points="111.61 0 115.41 0 115.41 3.8 111.61 3.8 111.61 0"/><polygon class="cls-1" points="111.61 4.54 115.41 4.54 115.41 8.34 111.61 8.34 111.61 4.54"/><polygon class="cls-1" points="111.61 9.07 115.41 9.07 115.41 12.87 111.61 12.87 111.61 9.07"/><polygon class="cls-1" points="116.14 0 119.95 0 119.95 3.8 116.14 3.8 116.14 0"/><polygon class="cls-1" points="116.14 4.54 119.95 4.54 119.95 8.34 116.14 8.34 116.14 4.54"/><polygon class="cls-1" points="116.14 9.07 119.95 9.07 119.95 12.87 116.14 12.87 116.14 9.07"/><polygon class="cls-1" points="125.21 0 129.16 0 129.16 3.8 125.21 3.8 125.21 0"/><polygon class="cls-1" points="125.21 4.54 129.16 4.54 129.16 8.34 125.21 8.34 125.21 4.54"/><polygon class="cls-1" points="125.21 9.07 129.16 9.07 129.16 12.87 125.21 12.87 125.21 9.07"/><polygon class="cls-1" points="125.21 13.6 129.16 13.6 129.16 17.41 125.21 17.41 125.21 13.6"/><polygon class="cls-1" points="125.21 18.29 129.16 18.29 129.16 22.09 125.21 22.09 125.21 18.29"/><polygon class="cls-1" points="125.21 22.82 129.16 22.82 129.16 26.62 125.21 26.62 125.21 22.82"/><polygon class="cls-1" points="125.21 27.5 129.16 27.5 129.16 31.3 125.21 31.3 125.21 27.5"/><polygon class="cls-1" points="125.21 32.03 129.16 32.03 129.16 35.84 125.21 35.84 125.21 32.03"/><polygon class="cls-1" points="129.89 0 133.7 0 133.7 3.8 129.89 3.8 129.89 0"/><polygon class="cls-1" points="129.89 4.54 133.7 4.54 133.7 8.34 129.89 8.34 129.89 4.54"/><polygon class="cls-1" points="129.89 9.07 133.7 9.07 133.7 12.87 129.89 12.87 129.89 9.07"/><polygon class="cls-1" points="129.89 13.6 133.7 13.6 133.7 17.41 129.89 17.41 129.89 13.6"/><polygon class="cls-1" points="129.89 18.29 133.7 18.29 133.7 22.09 129.89 22.09 129.89 18.29"/><polygon class="cls-1" points="129.89 22.82 133.7 22.82 133.7 26.62 129.89 26.62 129.89 22.82"/><polygon class="cls-1" points="129.89 27.5 133.7 27.5 133.7 31.3 129.89 31.3 129.89 27.5"/><polygon class="cls-1" points="129.89 32.03 133.7 32.03 133.7 35.84 129.89 35.84 129.89 32.03"/><polygon class="cls-1" points="134.43 0 138.38 0 138.38 3.8 134.43 3.8 134.43 0"/><polygon class="cls-1" points="134.43 4.54 138.38 4.54 138.38 8.34 134.43 8.34 134.43 4.54"/><polygon class="cls-1" points="134.43 9.07 138.38 9.07 138.38 12.87 134.43 12.87 134.43 9.07"/><polygon class="cls-1" points="134.43 13.6 138.38 13.6 138.38 17.41 134.43 17.41 134.43 13.6"/><polygon class="cls-1" points="134.43 18.29 138.38 18.29 138.38 22.09 134.43 22.09 134.43 18.29"/><polygon class="cls-1" points="134.43 22.82 138.38 22.82 138.38 26.62 134.43 26.62 134.43 22.82"/><polygon class="cls-1" points="134.43 27.5 138.38 27.5 138.38 31.3 134.43 31.3 134.43 27.5"/><polygon class="cls-1" points="134.43 32.03 138.38 32.03 138.38 35.84 134.43 35.84 134.43 32.03"/><polygon class="cls-1" points="139.11 0 142.91 0 142.91 3.8 139.11 3.8 139.11 0"/><polygon class="cls-1" points="139.11 4.54 142.91 4.54 142.91 8.34 139.11 8.34 139.11 4.54"/><polygon class="cls-1" points="139.11 9.07 142.91 9.07 142.91 12.87 139.11 12.87 139.11 9.07"/><polygon class="cls-1" points="139.11 13.6 142.91 13.6 142.91 17.41 139.11 17.41 139.11 13.6"/><polygon class="cls-1" points="139.11 18.29 142.91 18.29 142.91 22.09 139.11 22.09 139.11 18.29"/><polygon class="cls-1" points="139.11 22.82 142.91 22.82 142.91 26.62 139.11 26.62 139.11 22.82"/><polygon class="cls-1" points="139.11 27.5 142.91 27.5 142.91 31.3 139.11 31.3 139.11 27.5"/><polygon class="cls-1" points="139.11 32.03 142.91 32.03 142.91 35.84 139.11 35.84 139.11 32.03"/><path class="cls-1" d="M126.68,54.71h1.17v-5h-1.17v5Zm-4.39,0h1V53.1l.44-.59,1.32,2.05h1.31l-1.75-2.78,1.61-2.05h-1.32l-1,1.76c-.15.15-.15.29-.3.58h-.14V49.88h-1v4.83Zm-4.24-.15a3.57,3.57,0,0,0,1.46.29c1.31,0,2-.73,2-1.61a1.66,1.66,0,0,0-1.32-1.46c-.59-.14-.88-.29-.88-.58s.15-.59.73-.59a3.13,3.13,0,0,1,.88.15l.29-.88a3.14,3.14,0,0,0-1.31-.15c-1.17,0-1.9.59-1.9,1.47a1.86,1.86,0,0,0,1.31,1.46c.59.15.88.29.88.58s-.29.59-.88.59a2.84,2.84,0,0,1-1.17-.29l-.14,1Zm-3.52.15h3.08v-.88h-2V49.88h-1v4.83Zm-3.21-4.1c.87,0,1.31.73,1.31,1.76,0,.87-.44,1.75-1.31,1.75s-1.17-.73-1.17-1.75.44-1.76,1.17-1.76Zm.14-.88A2.38,2.38,0,0,0,109,52.22a2.42,2.42,0,1,0,4.82-.15,2.22,2.22,0,0,0-2.34-2.34Zm-5.41.88h.59c.58,0,.87.29.87.73s-.44.73-.87.73h-.44l-.15-1.46Zm-1,4.1h1V53c.15.15.15.15.44.15a2.21,2.21,0,0,0,1.61-.59,1.67,1.67,0,0,0,.44-1.17,1.2,1.2,0,0,0-.59-1.17,1.94,1.94,0,0,0-1.46-.44,3.94,3.94,0,0,0-1.46.15v4.83ZM102,50.61c.88,0,1.32.73,1.32,1.76,0,.87-.58,1.75-1.32,1.75s-1.17-.73-1.17-1.75.44-1.76,1.17-1.76Zm0-.88a2.38,2.38,0,0,0-2.48,2.49,2.35,2.35,0,0,0,2.34,2.49,2.42,2.42,0,0,0,2.49-2.64A2.23,2.23,0,0,0,102,49.73Zm-2.63,5v-.88h-1.9V52.37l.88-.59v-.73l-.88.59V49.88H96.25v2.49l-.59.44v.73l.59-.3V55h3.07Zm-6.43-2.05.14-1c.15-.15.15-.59.15-.88h.14c0,.29.15.73.15.88l.29,1Zm1.17.73.43,1.32h1.17l-1.46-5H92.74l-1.46,5h1.17l.29-1.32Zm-4.54,1.32h1l-.15-5H88.94l-.59,1.76a8.55,8.55,0,0,1-.58,1.75h0a6.41,6.41,0,0,0-.44-1.75l-.44-1.76H85.43l-.3,5h1l.14-1.9c0-.59.15-1.32.15-2.05h0c.15.58.29,1.31.44,1.9l.58,1.9h.88l.59-1.9c.14-.59.44-1.32.58-1.9h.15v2.05l-.15,1.9Zm-6.14,0v-.88h-2V52.37l.88-.59v-.73l-.88.59V49.88H80.16v2.49l-.59.44v.73l.59-.3V55h3.22Zm-6.73-2.05.29-1c0-.15.15-.59.15-.88h0a2.26,2.26,0,0,1,.14.88l.3,1Zm1.32.73.29,1.32h1.31l-1.6-5H76.5l-1.46,5h1.17l.29-1.32Zm-4.69,1.32h1v-5h-1v5Zm-4.53,0h3.8v-.88H70.21l2.34-3.36v-.59H69v.88h2l-2.34,3.36v.59Zm-3.66-4c.15-.15.15-.15.59-.15a1.43,1.43,0,0,1,1.46,1.61c0,1.17-.58,1.76-1.61,1.76h-.44V50.76Zm-1.17,4c.3,0,.73.14,1.32.14a4,4,0,0,0,2.34-.58,2.7,2.7,0,0,0,.88-2.05,2.18,2.18,0,0,0-.88-1.9,4.27,4.27,0,0,0-2-.59,5.38,5.38,0,0,0-1.61.15v4.83Zm-3.8-4c0-.15.15-.15.44-.15a1.54,1.54,0,0,1,1.61,1.61A1.56,1.56,0,0,1,60.41,54h-.29V50.76Zm-1.17,4a11.59,11.59,0,0,0,1.32.14,4,4,0,0,0,2.34-.58,2.66,2.66,0,0,0,.73-2.05,2.16,2.16,0,0,0-.88-1.9,3.42,3.42,0,0,0-2.05-.59,4.4,4.4,0,0,0-1.46.15v4.83Zm-3.22-4.1c.88,0,1.32.73,1.32,1.76,0,.87-.44,1.75-1.17,1.75-.88,0-1.32-.73-1.32-1.75s.44-1.76,1.17-1.76Zm.15-.88a2.38,2.38,0,0,0-2.49,2.49,2.42,2.42,0,1,0,4.83-.15,2.23,2.23,0,0,0-2.34-2.34Z"/><path class="cls-1" d="M180.65,44.18h-2.49V42.71h2.64V41.4h-4.24v6.87h4.38V47.1h-2.78V45.49h2.49V44.18Zm-9.21,4.09V43.15h0a12.68,12.68,0,0,0,1.17,2.49l1.46,2.63h1.61V41.4h-1.46v2a20.47,20.47,0,0,0,.14,2.93h0A17,17,0,0,0,173.19,44l-1.46-2.49H170v6.88h1.47Zm-7.32,0h5.41V47h-3.21l3.21-4.68V41.4h-5.12v1.31h2.93l-3.22,4.68ZM163.83,47a3.42,3.42,0,0,1-1.32.3,2.08,2.08,0,0,1-2.19-2.2,2.19,2.19,0,0,1,2.19-2.34,2.85,2.85,0,0,1,1.32.3l.29-1.17a4.1,4.1,0,0,0-1.75-.3,3.58,3.58,0,0,0-3.81,3.66,3.34,3.34,0,0,0,3.66,3.51,4.37,4.37,0,0,0,1.76-.29ZM157,48.27V45.35l2.35-4h-1.76L156.81,43c-.15.43-.44.87-.59,1.31h0a4.87,4.87,0,0,0-.58-1.31l-.73-1.61h-1.76l2.2,4.09v2.78Zm-7,0h1.61V42.71h1.9V41.4h-5.26v1.31h1.9v5.56Zm-4.82-2.92.44-1.47c.14-.44.14-.87.29-1.31h0a4.41,4.41,0,0,1,.29,1.31l.44,1.47Zm1.75,1.17.59,1.75h1.61l-2.2-6.87h-2.05l-2,6.87h1.61l.43-1.75Zm-5.7,1.75h1.46l-.44-6.87h-2.05l-.73,2.34a12.17,12.17,0,0,0-.58,2.48h0c-.15-.87-.44-1.61-.59-2.48l-.73-2.34h-2.05L135,48.27h1.47l.14-2.63c0-.88.15-1.9.15-2.93h0c.14.88.44,1.9.58,2.64l.74,2.63h1.17l.87-2.63a16.24,16.24,0,0,0,.73-2.64h0v2.78Zm-9.95-5.7h.73c.73,0,1.17.29,1.17,1a1,1,0,0,1-1.17,1h-.58v-2Zm-1.46,5.7h1.61V45.64h.44c.58,0,.87.29,1.17,1.17a15.5,15.5,0,0,0,.43,1.61H135c-.14-.29-.29-1.17-.58-1.9a2.13,2.13,0,0,0-.88-1.32h0a1.82,1.82,0,0,0,1.17-1.76,2.24,2.24,0,0,0-.58-1.46,3,3,0,0,0-2.2-.58,8.13,8.13,0,0,0-2.05.14v6.73Zm-4-5.7c1,0,1.61,1,1.61,2.34s-.59,2.34-1.61,2.34-1.61-1-1.61-2.34.58-2.34,1.61-2.34m.14-1.32a3.39,3.39,0,0,0-3.36,3.66,3.23,3.23,0,0,0,3.22,3.51c2,0,3.36-1.32,3.36-3.66a3.23,3.23,0,0,0-3.22-3.51m-7.89,7h1.6V45.49h2.49V44.18h-2.49V42.71h2.64V41.4h-4.24v6.87Zm-5.12,0V43.15h0a12.68,12.68,0,0,0,1.17,2.49l1.46,2.63h1.61V41.4H115.7v2a19.12,19.12,0,0,0,.15,2.93h0A17,17,0,0,0,114.68,44l-1.46-2.49h-1.76v6.88h1.47Zm-4,0h1.61V41.4H109Zm-6.73-5.7c1,0,1.61,1,1.61,2.34s-.59,2.34-1.61,2.34-1.61-1-1.61-2.34.58-2.34,1.61-2.34m0-1.32a3.39,3.39,0,0,0-3.37,3.66,3.23,3.23,0,0,0,3.22,3.51c2.05,0,3.37-1.32,3.37-3.66a3.08,3.08,0,0,0-3.22-3.51m-8.63,7,.58-2.92c.15-.74.29-1.32.44-2.2h0c.15.73.15,1.46.29,2.2l.59,2.92h1.61l1.75-6.87H97.27l-.58,2.78c-.15.87-.29,1.6-.44,2.34h0a16.62,16.62,0,0,0-.44-2.34l-.58-2.93H93.62L93,44c-.14.88-.29,1.61-.44,2.49h0c-.14-.74-.29-1.61-.44-2.34l-.58-2.78H90l1.61,6.87Zm-6.88,0h1.61V42.71h1.9V41.4H85v1.31h1.9ZM80.16,48a6,6,0,0,0,1.9.44c1.9,0,2.78-1,2.78-2.2,0-1-.58-1.61-1.75-2-.88-.3-1.32-.59-1.32-1,0-.29.29-.73,1-.73a3.3,3.3,0,0,1,1.47.29l.29-1.31a5.38,5.38,0,0,0-1.76-.3c-1.61,0-2.63.88-2.63,2s.73,1.61,1.9,2.05c.88.29,1.17.58,1.17,1s-.44.73-1,.73a3.16,3.16,0,0,1-1.76-.43Zm-2,.29V45.35l2.34-4H78.7L78,43c-.15.43-.44.87-.59,1.31h0A5.2,5.2,0,0,0,76.8,43l-.74-1.61H74.31l2.19,4.09v2.78Zm-8.92,0H74.6V47H71.38l3.22-4.68V41.4h-5v1.31h2.92l-3.21,4.68-.15.88Zm-3.66-5.7h.73c.73,0,1.17.29,1.17,1a1,1,0,0,1-1.17,1h-.58l-.15-2Zm-1.46,5.7h1.61V45.64h.44c.58,0,.87.29,1.17,1.17a14.4,14.4,0,0,0,.44,1.61h1.61c-.15-.29-.3-1.17-.59-1.9a2.13,2.13,0,0,0-.88-1.32h0A1.82,1.82,0,0,0,69,43.44,2.24,2.24,0,0,0,68.46,42a3,3,0,0,0-2.2-.58,8,8,0,0,0-2,.14v6.73Zm-4.39-2.92.44-1.47c.15-.44.15-.87.29-1.31h0a4.12,4.12,0,0,1,.29,1.31l.44,1.47Zm1.76,1.17L62,48.27h1.61L61.44,41.4h-2l-2,6.87H59l.44-1.75Zm-8.78,1.75.58-2.92c.15-.74.3-1.32.44-2.2h0c.15.73.15,1.46.3,2.2l.58,2.92h1.76l1.75-6.87H56.46l-.58,2.78c-.15.87-.29,1.6-.44,2.34h0A16.62,16.62,0,0,0,55,44.18l-.59-2.93h-1.6L52.22,44c-.15.88-.29,1.61-.44,2.49h0c-.14-.74-.29-1.61-.44-2.34l-.58-2.78H49.15l1.61,6.87Zm-6.58-5.7c1,0,1.61,1,1.61,2.34s-.59,2.34-1.61,2.34-1.61-1-1.61-2.34.58-2.34,1.61-2.34m0-1.32a3.39,3.39,0,0,0-3.37,3.66,3.23,3.23,0,0,0,3.22,3.51c2,0,3.37-1.32,3.37-3.66a3.08,3.08,0,0,0-3.22-3.51m-6.44,7h1.61V42.71H43V41.4H37.74v1.31h1.9Zm-5.41-4.09H31.74V42.71h2.64V41.4H30.13v6.87h4.39V47.1H31.74V45.49h2.49Zm-6.58,4.09h1.61V41.4H27.65Zm-5.71,0h1.61V46.08l.59-.73,1.75,2.92h1.76l-2.34-4,2.34-2.92h-2.2l-1.61,2.34c-.14.29-.29.44-.44.73h0V41.4H21.8l.14,6.87ZM16.68,48a5.91,5.91,0,0,0,1.9.44c1.9,0,2.78-1,2.78-2.2,0-1-.59-1.61-1.76-2-.88-.3-1.32-.59-1.32-1,0-.29.3-.73,1-.73a3.22,3.22,0,0,1,1.46.29l.29-1.31a5.26,5.26,0,0,0-1.75-.3c-1.61,0-2.63.88-2.63,2s.73,1.61,1.9,2.05c.87.29,1.17.58,1.17,1s-.44.73-1,.73A3.13,3.13,0,0,1,17,46.52Zm-4.54.29h4.24V47H13.75V41.4H12.14v6.87Zm-3.8-5.7c1,0,1.61,1,1.61,2.34s-.59,2.34-1.61,2.34-1.61-1-1.61-2.34.58-2.34,1.61-2.34m0-1.32A3.39,3.39,0,0,0,5,44.91a3.23,3.23,0,0,0,3.22,3.51c2.05,0,3.37-1.32,3.37-3.66a3.08,3.08,0,0,0-3.22-3.51M1.46,42.57h.59a1,1,0,0,1,1.17,1c0,.73-.44,1.17-1.32,1.17H1.32V42.57ZM0,48.27H1.61V45.78h.58a3.3,3.3,0,0,0,2.2-.73A2.19,2.19,0,0,0,5,43.44a1.86,1.86,0,0,0-.73-1.6,2.86,2.86,0,0,0-2.05-.59,7.55,7.55,0,0,0-2,.15v6.87Z"/></g></g></svg>