<svg xmlns="http://www.w3.org/2000/svg" viewBox="0 0 94.46 87.17"><defs><style>.cls-1{fill:#fff;}.cls-2{fill:#2b2b2b;}.cls-3{fill:#777;}.cls-4{fill:#c7c7c7;}.cls-5{fill:#ababab;}.cls-6{fill:#969696;}.cls-7{fill:silver;}.cls-8{fill:#ededed;}.cls-9{fill:#a0a0a0;}.cls-10{fill:#a8a8a8;}.cls-11{fill:#cdcdcd;}.cls-12{fill:#e8e8e8;}.cls-13{fill:#aeaeae;}.cls-14{fill:#bebebe;}.cls-15{fill:#909090;}.cls-16{fill:#d4d4d4;}.cls-17{fill:#b0b0b0;}.cls-18{fill:#9c9c9c;}.cls-19{fill:#7a7a7a;}.cls-20{fill:#acacac;}.cls-21{fill:#e5e5e5;}.cls-22{fill:#dedede;}.cls-23{fill:#c1c1c1;}.cls-24{fill:#494949;}</style></defs><title>sekurak</title><g id="Warstwa_2" data-name="Warstwa 2"><g id="Long_Page_cz.1" data-name="Long Page cz.1"><g id="Warstwa_2-2" data-name="Warstwa 2"><path class="cls-1" d="M2,80.87H3.46v.22A1.31,1.31,0,0,0,4,82.3a4.72,4.72,0,0,0,2.2.33,4.47,4.47,0,0,0,2.28-.35A1.6,1.6,0,0,0,8.91,81a1.77,1.77,0,0,0-.35-1.26,3.1,3.1,0,0,0-1.75-.38l-1.4,0A6.79,6.79,0,0,1,3.11,79a1.7,1.7,0,0,1-.78-.81,3.66,3.66,0,0,1-.23-1.5,2.47,2.47,0,0,1,.8-2.15A7.09,7.09,0,0,1,6.47,74a5.53,5.53,0,0,1,2.9.53,2.16,2.16,0,0,1,.77,1.88H8.71v-.09a.9.9,0,0,0-.56-.88A6.84,6.84,0,0,0,6,75.2a4.13,4.13,0,0,0-2,.3c-.3.19-.44.6-.44,1.22a2.67,2.67,0,0,0,.09.79.61.61,0,0,0,.29.34,5.19,5.19,0,0,0,1.9.26,4.38,4.38,0,0,1,.57,0q1.2,0,1.89.12a3.24,3.24,0,0,1,1,.21,1.81,1.81,0,0,1,.91.84,3.57,3.57,0,0,1,.27,1.58,3.82,3.82,0,0,1-.26,1.6,2.37,2.37,0,0,1-.94,1,2.56,2.56,0,0,1-1,.29,15.91,15.91,0,0,1-1.95.09,6.48,6.48,0,0,1-3.37-.58A2.43,2.43,0,0,1,2,81.12Z"/><path class="cls-1" d="M17.19,83.8a4.29,4.29,0,0,1-3-.82A4,4,0,0,1,13.33,80V77.76a4,4,0,0,1,.84-3,4.19,4.19,0,0,1,3-.85h.66a4.29,4.29,0,0,1,3,.83,4.06,4.06,0,0,1,.86,2.95v1.45l-6.89,0V80a2.93,2.93,0,0,0,.48,2,2.55,2.55,0,0,0,1.91.5h.67a3.1,3.1,0,0,0,1.78-.37,1.73,1.73,0,0,0,.58-1.29h1.48a2.94,2.94,0,0,1-1,2.25,4.6,4.6,0,0,1-2.82.69ZM14.79,78h5.43v-.39a2.6,2.6,0,0,0-.49-1.83,2.77,2.77,0,0,0-1.91-.48h-.66a2.67,2.67,0,0,0-1.89.49,2.67,2.67,0,0,0-.47,1.83Z"/><path class="cls-1" d="M24.72,83.65l0-13.55h1.41l0,7.71h.44l3.12-3.75h1.62l-3.6,4.27L32,83.63H30.25L26.56,79.1h-.43v4.55Z"/><path class="cls-1" d="M42,74l0,9.59H40.66v-1.3a2.2,2.2,0,0,1-1.11,1.08,4.9,4.9,0,0,1-2,.34A3.67,3.67,0,0,1,34.88,83a3.72,3.72,0,0,1-.77-2.66V74h1.42v6A3.08,3.08,0,0,0,36,82a2.4,2.4,0,0,0,1.75.47,2.48,2.48,0,0,0,2.86-2.86V74Z"/><path class="cls-1" d="M45.41,83.6l0-9.59h1.38v1.32a2.06,2.06,0,0,1,.93-1.1,3.54,3.54,0,0,1,1.69-.34,2.74,2.74,0,0,1,2.2.75,4.23,4.23,0,0,1,.65,2.67v.07H50.8V77.1a2.37,2.37,0,0,0-.36-1.54,1.86,1.86,0,0,0-1.38-.39,2,2,0,0,0-1.71.69,3.53,3.53,0,0,0-.52,2.19v5.57Z"/><path class="cls-1" d="M61,82.55a1.88,1.88,0,0,1-1,.87,5.78,5.78,0,0,1-2,.27,5,5,0,0,1-3-.63,3.07,3.07,0,0,1-.78-2.41,6,6,0,0,1,.18-1.58,1.86,1.86,0,0,1,.58-.92,2.17,2.17,0,0,1,1-.42,11.32,11.32,0,0,1,1.93-.13,7.4,7.4,0,0,1,2,.21,2,2,0,0,1,1,.71V76.89a1.89,1.89,0,0,0-.46-1.52A4.64,4.64,0,0,0,58.14,75a3.78,3.78,0,0,0-1.77.28,1.21,1.21,0,0,0-.45,1H54.51v-.22a1.94,1.94,0,0,1,.79-1.75,5.26,5.26,0,0,1,2.75-.53,14.9,14.9,0,0,1,2.31.12,2.65,2.65,0,0,1,1.18.41,1.66,1.66,0,0,1,.59.81,5.1,5.1,0,0,1,.18,1.65l0,6.71H61Zm-.07-1.43v-1a1.05,1.05,0,0,0-.69-1A5.78,5.78,0,0,0,58,78.79a3.4,3.4,0,0,0-1.86.35,1.59,1.59,0,0,0-.47,1.34,1.83,1.83,0,0,0,.5,1.51,3.62,3.62,0,0,0,2,.37A5.13,5.13,0,0,0,60.19,82,1,1,0,0,0,60.88,81.12Z"/><path class="cls-1" d="M65.62,83.55l0-13.56H67l0,7.7h.44l3.12-3.75h1.62l-3.61,4.28,4.35,5.31H71.14L67.46,79H67v4.55Z"/><path class="cls-1" d="M74.83,83.52v-2h1.59v2Z"/><path class="cls-1" d="M81.87,73.91h1.36V75.4a2.39,2.39,0,0,1,1.07-1.23,4.15,4.15,0,0,1,2-.39,4,4,0,0,1,2.9.83A4.18,4.18,0,0,1,90,77.55v2.28a4.09,4.09,0,0,1-.84,2.93,4,4,0,0,1-2.89.86,4.22,4.22,0,0,1-1.88-.35,2.55,2.55,0,0,1-1.11-1.14v5H81.9Zm1.42,5.58A2.94,2.94,0,0,0,84,81.66a3.15,3.15,0,0,0,2.24.69,2.49,2.49,0,0,0,1.85-.51,3.75,3.75,0,0,0,.45-2.31V77.89a3.84,3.84,0,0,0-.46-2.32,2.53,2.53,0,0,0-1.86-.5,3.05,3.05,0,0,0-2.23.69,2.94,2.94,0,0,0-.69,2.18Z"/><path class="cls-1" d="M93.05,83.47l0-13.56h1.41l0,13.56Z"/><polygon class="cls-2" points="53.14 56.16 44.25 64.91 44.82 55.87 53.14 56.16"/><polygon class="cls-3" points="44.8 56.28 53.04 56.26 64.64 43.87 64.37 43.8 44.84 55.38 44.8 56.28"/><polygon class="cls-4" points="53.65 10.53 51.9 0.81 42.85 0 38.58 11.13 44.66 13.94 53.65 10.53"/><polyline class="cls-5" points="50.12 6.54 38.6 11.13 47.71 15.69 53.65 10.53 50.12 6.54"/><polygon class="cls-6" points="51.9 0.81 49.83 5.27 51.11 10.18 54.79 14.32 51.9 0.81"/><polygon class="cls-7" points="64.86 1.22 49.49 6.91 53.5 13.2 64.86 1.22"/><polygon class="cls-8" points="50.47 8.46 66.34 24.22 47.21 15.44 50.47 8.46"/><polygon class="cls-9" points="47.64 26.06 29.39 35.09 33.96 23.93 36.69 17.5 47.64 26.06"/><polygon class="cls-4" points="45.46 45.13 66.36 24.3 47.21 15.53 45.46 45.13"/><polygon class="cls-10" points="67.74 36.23 61.04 28.47 45.82 33.78 47.6 45.41 64.64 43.87 67.74 36.23"/><polygon class="cls-11" points="29.39 35.09 20.94 21.33 17 17.57 36.69 17.5 29.39 35.09"/><polygon class="cls-12" points="36.69 17.5 15 12.53 2.33 39.57 36.69 17.5"/><polygon class="cls-13" points="15 12.53 11.23 33.86 0 41.11 15 12.53"/><polygon class="cls-14" points="46.95 19.94 60.33 28.68 60.33 28.68 60.33 28.68 60.33 28.68 60.33 28.68 64.64 43.86 44.8 56.28 29.75 51.2 29.75 51.2 29.75 51.2 29.74 51.2 29.75 51.2 29.39 35.09 46.95 19.94"/><path class="cls-15" d="M38.84,49.4c1.28-2.06,2.38-4.2,3.62-6.28a12.24,12.24,0,0,1,2.64-3s.09-.21.12-.19.11-.16.24-.16.06-.22.13-.25.09-.35.12-.35.5.07.47-.13v-.11s.53-.1.49-.16a3.57,3.57,0,0,1,1.1-.51,16.77,16.77,0,0,1,7.87-1.17c2.65.34,5.07,1.3,7.62,1.87l1.4,4.9L44.8,56.28l-8.73-3A32.7,32.7,0,0,0,38.84,49.4Z"/><polygon class="cls-16" points="46.95 19.94 45.78 39.15 60.38 28.7 46.95 19.94"/><polygon class="cls-17" points="64.64 43.87 45.78 39.15 60.38 28.7 64.64 43.87"/><polygon class="cls-18" points="45.78 39.15 29.39 35.09 29.75 51.2 45.78 39.15"/><polygon class="cls-19" points="45.78 39.15 44.8 56.28 29.75 51.2 45.78 39.15"/><polygon class="cls-20" points="47.21 15.44 66.32 24.21 66.3 24.3 46.95 19.94 47.21 15.44"/><polygon class="cls-21" points="66.34 24.22 60.38 28.7 67.74 36.23 66.34 24.22"/><polygon class="cls-22" points="51.59 6.07 42.85 0 38.62 11.11 51.59 6.07"/><polygon points="51.59 6.07 50.47 8.46 49.05 7.05 49.98 4.95 51.59 6.07"/><polygon class="cls-23" points="44.21 64.95 44.79 56.29 56.81 64.95 44.21 64.95"/><polygon class="cls-24" points="64.65 43.86 64.65 43.86 64.54 43.48 60.38 28.7 46.95 19.94 29.39 35.09 29.75 51.2 29.75 51.2 29.75 51.2 29.75 51.2 29.75 51.2 44.8 56.28 64.64 43.87 64.65 43.87 64.65 43.86"/></g></g></g></svg>