<svg xmlns="http://www.w3.org/2000/svg" viewBox="0 0 143.06 50.13"><defs><style>.cls-1{fill:#fff;}.cls-2{fill:#a3a3a3;}.cls-3{fill:#5b5b5b;}.cls-4{fill:#494949;}</style></defs><title>zts</title><g id="Warstwa_2" data-name="Warstwa 2"><g id="Long_Page_cz.1" data-name="Long Page cz.1"><g id="g6503"><g id="g6411"><g id="g4416"><path id="path4418" class="cls-1" d="M69.49,11.51l1-4.2a.18.18,0,0,1,.2-.2c.07,0,.14,0,.14.07s.07.06.07.2l1,4.2H69.49Zm3.32-5.76a4.3,4.3,0,0,0-.61-.54,1.39,1.39,0,0,0-.74-.2,3.17,3.17,0,0,0-.81-.07,3.21,3.21,0,0,0-.82.07c-.27.07-.54.13-.74.2a2.14,2.14,0,0,0-.61.54,1.76,1.76,0,0,0-.41.88L65.7,16.39h2.71L69,13.61h3.12l.61,2.78h2.71L73.08,6.63a1.51,1.51,0,0,0-.27-.88"/></g><g id="g4420"><path id="path4422" class="cls-1" d="M111.24,9.89l3.45,6a3.12,3.12,0,0,0,.34.41.85.85,0,0,0,.41.07h2.1v-.55h0V5.15H115.1v6.71c0,.06,0,.13-.07.13l-.13-.13-3.6-6.3a1.09,1.09,0,0,0-.27-.34.49.49,0,0,0-.34-.14h-2.1v8.74h0V16.4H111V10c0-.07,0-.14.07-.14a.22.22,0,0,1,.14.07"/></g><g id="g4444"><path id="path4446" class="cls-1" d="M62.36,14.11H59.59c-.14,0-.14-.06-.14-.13s0-.07.07-.14l4.27-6.57a1.09,1.09,0,0,0,.13-.41V6.19h0V5H56.47V7.27h4.06c.14,0,.14.07.14.14s0,.13-.07.13l-4.27,6.51a1.1,1.1,0,0,1-.2.33,3.27,3.27,0,0,0-.07.34v1.7h7.79V14.11H62.36Z"/></g><g id="g4448"><path id="path4450" class="cls-1" d="M83.46,5.34v6.78a4.31,4.31,0,0,1-.07,1,1.47,1.47,0,0,1-.27.68,1.08,1.08,0,0,1-.54.41,3.28,3.28,0,0,1-.88.13,3.79,3.79,0,0,1-.88-.13,1.08,1.08,0,0,1-.54-.41,1.8,1.8,0,0,1-.27-.68,4.31,4.31,0,0,1-.07-1v-7H77.3V6.9h0v5.22a6.37,6.37,0,0,0,.33,2.16,3.37,3.37,0,0,0,1,1.36,3.52,3.52,0,0,0,1.43.68,7.24,7.24,0,0,0,3.38,0,3.13,3.13,0,0,0,2.37-2,6.11,6.11,0,0,0,.34-2.16v-7H83.53v.27Z"/></g><g id="g4452"><path id="path4454" class="cls-1" d="M88.87,4.92V9.6h0v4.13h0v2.71h2.64V11.7h4.27v-2H91.51V7.29h4.34V4.92h-7Z"/></g><g id="g4492"><path id="path4494" class="cls-1" d="M101.46,7.35a.18.18,0,0,1,.21-.2c.06,0,.13,0,.13.07s.07.06.07.2l.95,4.2h-2.3Zm-1.35,6.3h3.12l.61,2.78h2.71l-2.38-9.76a1.75,1.75,0,0,0-.4-.88,5.77,5.77,0,0,0-.61-.54,1.36,1.36,0,0,0-.75-.2,4.72,4.72,0,0,0-1.62,0,7.23,7.23,0,0,0-.75.2,1.48,1.48,0,0,0-.61.54,1.85,1.85,0,0,0-.41.88l-2.37,9.76h2.71A20.47,20.47,0,0,0,100.11,13.65Z"/></g><g id="g4496"><path id="path4498" class="cls-1" d="M124.27,7.36a.19.19,0,0,1,.21-.21c.06,0,.13,0,.13.07s.07.07.07.21l.95,4.2h-2.31ZM126,13.59l.61,2.78h2.71L127,6.61a1.79,1.79,0,0,0-.4-.88,4.83,4.83,0,0,0-.61-.54,1.36,1.36,0,0,0-.75-.2,3.17,3.17,0,0,0-.81-.07,3.29,3.29,0,0,0-.82.07,7,7,0,0,0-.74.2,1.48,1.48,0,0,0-.61.54,1.8,1.8,0,0,0-.41.88l-2.37,9.76h2.71l.61-2.78Z"/></g></g><g id="g6427"><g id="g4424"><path id="path4426" class="cls-1" d="M99.78,22.73a1.56,1.56,0,0,1,.41-.81,1.49,1.49,0,0,1,.61-.41,2.33,2.33,0,0,1,.74-.13h2.58v-1.7h0v-.54h-2.58a4.72,4.72,0,0,0-1.69.27,3.07,3.07,0,0,0-1.42.81,4.79,4.79,0,0,0-1,1.49A5.66,5.66,0,0,0,97,24v1.9a5.84,5.84,0,0,0,.41,2.3,4.09,4.09,0,0,0,1,1.49,2.91,2.91,0,0,0,1.42.81,6.57,6.57,0,0,0,1.69.27h2.58v-.61h0V28.56h-2.58a2.32,2.32,0,0,1-.74-.14,1.57,1.57,0,0,1-.61-.4,1.64,1.64,0,0,1-.41-.82,6.08,6.08,0,0,1-.13-1.28V24a3.74,3.74,0,0,1,.13-1.29"/></g><g id="g4456"><path id="path4458" class="cls-1" d="M64.11,19.33H55.92v2.16h2.84v9.22h2.51V21.49h2.78v-.27h0V19.66h0v-.33Z"/></g><g id="g4460"><path id="path4462" class="cls-1" d="M83.88,28.34H80.63c-.14,0-.14-.07-.14-.13s0-.07.07-.14l4.27-6.57a.94.94,0,0,0,.13-.41v-.34h0V19.26H77.44V21.5h4.14c.13,0,.13.07.13.13s0,.14-.07.14l-4.26,6.44a1.68,1.68,0,0,1-.21.34,2.55,2.55,0,0,0-.07.33v1.7H85V28.27H83.88Z"/></g><g id="g4464"><path id="path4466" class="cls-1" d="M94.61,19.16H91.22a8.2,8.2,0,0,0-1.29.14,3.29,3.29,0,0,0-1.21.47,2.2,2.2,0,0,0-.82,1,4,4,0,0,0-.34,1.69v5.09a4.23,4.23,0,0,0,.34,1.69,2.56,2.56,0,0,0,.82,1,3.29,3.29,0,0,0,1.21.47,9.89,9.89,0,0,0,1.43.14h3.25V28.58H91.22a1.09,1.09,0,0,1-.74-.2,1.16,1.16,0,0,1-.21-.81V25.94h4.27v-2H90.27V22.55a1.14,1.14,0,0,1,.21-.81,1,1,0,0,1,.74-.2h3.39v-.27h0V19.84h0v-.68Z"/></g><g id="g4468"><path id="path4470" class="cls-1" d="M106.57,19.57v9.55h0v1.49h2.57v-.27h0v-11h-2.57v.21Z"/></g><g id="g4488"><path id="path4490" class="cls-1" d="M72.13,22.93a2,2,0,0,1-.13.68,1.35,1.35,0,0,1-.34.47,1.72,1.72,0,0,1-.68.27,4.31,4.31,0,0,1-1,.07H68.88v-3H70a3,3,0,0,1,1.49.34,1.11,1.11,0,0,1,.55,1v.14Zm2,2a3,3,0,0,0,.54-2v-.21A4.23,4.23,0,0,0,74.37,21a2.43,2.43,0,0,0-1-1.08,4.23,4.23,0,0,0-1.49-.61,7.31,7.31,0,0,0-1.83-.21H66.31v2.24h0v7.72h0v1.56H69v-4.2h1.22l2.17,4.13h2.84l-2.5-4.67a2.41,2.41,0,0,0,1.49-1"/></g><g id="g4500"><path id="path4502" class="cls-1" d="M115,25.74l1-4.2a.18.18,0,0,1,.2-.2c.07,0,.14,0,.14.06s.07.07.07.21l.94,4.2H115ZM118.23,20a4.3,4.3,0,0,0-.61-.54,1.3,1.3,0,0,0-.74-.2,3.21,3.21,0,0,0-.82-.07,3.17,3.17,0,0,0-.81.07,7,7,0,0,0-.74.2,2.14,2.14,0,0,0-.61.54,2.66,2.66,0,0,0-.41.88l-2.37,9.76h2.71l.61-2.78h3.11l.61,2.78h2.71l-2.37-9.76a1.51,1.51,0,0,0-.27-.88"/></g></g><g id="g6443"><g id="g4428"><path id="path4430" class="cls-1" d="M61.57,38.74l-2-1.08a3.73,3.73,0,0,0-.47-.27.67.67,0,0,1-.34-.27c-.07-.07-.14-.14-.14-.21s-.07-.2-.07-.27a.67.67,0,0,1,.27-.61,1.72,1.72,0,0,1,.95-.2h3.53V33.59H59.87A6.67,6.67,0,0,0,58,33.8a3.41,3.41,0,0,0-1.22.61,2.27,2.27,0,0,0-.68,1,3.23,3.23,0,0,0-.2,1.15,3.17,3.17,0,0,0,.07.81,2.47,2.47,0,0,0,.27.75,2.74,2.74,0,0,0,.54.67,4.71,4.71,0,0,0,.88.68l2.1,1.22a2.14,2.14,0,0,1,.82.61.93.93,0,0,1,.2.54,1.12,1.12,0,0,1-.27.82,1.23,1.23,0,0,1-1,.33H56.35v2.24h3.18a5.17,5.17,0,0,0,1.9-.27,4.62,4.62,0,0,0,1.29-.75,2.48,2.48,0,0,0,.67-1.08,3.73,3.73,0,0,0,.21-1.22,3.67,3.67,0,0,0-.41-1.69,3.42,3.42,0,0,0-1.62-1.43"/></g><g id="g4432"><path id="path4434" class="cls-1" d="M81.64,37.29a2,2,0,0,1-.13.68,1.17,1.17,0,0,1-.34.47,1.47,1.47,0,0,1-.68.27,4.31,4.31,0,0,1-1,.07H78.39v-3h1.15a3,3,0,0,1,1.49.34,1.11,1.11,0,0,1,.55,1v.13Zm2.1,2a2.91,2.91,0,0,0,.55-2v-.2a4.28,4.28,0,0,0-.34-1.7,2.5,2.5,0,0,0-1-1.08,4.23,4.23,0,0,0-1.49-.61,7.31,7.31,0,0,0-1.83-.21h-3.8V35.8h0v7.66h0V45h2.65V40.88h1.22L82,45h2.85l-2.51-4.68a3.35,3.35,0,0,0,1.42-1"/></g><g id="g4436"><path id="path4438" class="cls-1" d="M92.82,40.29a3.19,3.19,0,0,1-.48,2,2,2,0,0,1-2.84,0,3.19,3.19,0,0,1-.48-2V38.46a3.23,3.23,0,0,1,.48-2,1.58,1.58,0,0,1,1.42-.6,1.74,1.74,0,0,1,1.42.6,3.23,3.23,0,0,1,.48,2Zm1.35-5.63a4,4,0,0,0-1.42-.88,8.28,8.28,0,0,0-1.83-.2,5.11,5.11,0,0,0-1.76.27,3.87,3.87,0,0,0-2.37,2.37,7.18,7.18,0,0,0-.34,2.24v1.83a7.12,7.12,0,0,0,.34,2.23A3.28,3.28,0,0,0,87.74,44a3.74,3.74,0,0,0,1.42.88,5.67,5.67,0,0,0,3.52,0A3.77,3.77,0,0,0,94.11,44a3.73,3.73,0,0,0,.94-1.49,6.84,6.84,0,0,0,.34-2.23V38.46a6.9,6.9,0,0,0-.34-2.24,3.44,3.44,0,0,0-.88-1.56"/></g><g id="g4440"><path id="path4442" class="cls-1" d="M131.65,37.39a1.31,1.31,0,0,1-.48,1.15,2.28,2.28,0,0,1-1.49.41h-1.22V35.76h1.22a2.63,2.63,0,0,1,1.43.34,1.24,1.24,0,0,1,.47,1.15v.14Zm1.15-3a5.12,5.12,0,0,0-1.49-.61,7.11,7.11,0,0,0-1.69-.13h-3.8v2.16h0v9.29h2.58v-4h1.22a7.5,7.5,0,0,0,1.69-.2,5.91,5.91,0,0,0,1.49-.61,3.39,3.39,0,0,0,1-1.16,3.55,3.55,0,0,0,.4-1.76v-.07a3.42,3.42,0,0,0-.4-1.76,2.14,2.14,0,0,0-1-1.15"/></g><g id="g4472"><path id="path4474" class="cls-1" d="M73.69,33.69h-8.2v2.17h2.78v9.21h2.58V35.86h2.84v-.27h0V34h0Z"/></g><g id="g4476"><path id="path4478" class="cls-1" d="M105,33.69h-.28V40.4c0,.06,0,.13-.06.13l-.14-.13-3.59-6.3a1.26,1.26,0,0,0-.27-.34.51.51,0,0,0-.34-.14H98.12V35h0v10h2.37V38.5c0-.07,0-.14.07-.14s.07.07.14.14l3.45,6a3.12,3.12,0,0,0,.34.41,1,1,0,0,0,.41.06H107v-.54h0V33.76h-2Z"/></g><g id="g4480"><path id="path4482" class="cls-1" d="M123.17,42.49H120.8V45h2.37v-.27h0v-2h0Z"/></g><g id="g4484"><path id="path4486" class="cls-1" d="M142.79,42.91h-2.65a1.11,1.11,0,0,1-.74-.2,1.18,1.18,0,0,1-.2-.82V33.7h-2.58v8.19a4,4,0,0,0,.34,1.7,2.88,2.88,0,0,0,.81,1,3.25,3.25,0,0,0,1.22.48,9.87,9.87,0,0,0,1.43.13h2.64v-2.3Z"/></g><g id="g4504"><path id="path4506" class="cls-1" d="M112.91,40.17l.94-4.2a.18.18,0,0,1,.21-.2c.07,0,.13,0,.13.07s.07.06.07.2l.95,4.2h-2.3Zm3.25-5.82a5,5,0,0,0-.61-.55,2.65,2.65,0,0,0-.75-.27,4.72,4.72,0,0,0-1.62,0,2.77,2.77,0,0,0-.75.27,2.31,2.31,0,0,0-.61.55,1.71,1.71,0,0,0-.4.88l-2.31,9.82h2.71l.61-2.78h3.12l.61,2.78h2.71l-2.31-9.82c-.13-.34-.27-.61-.4-.88"/></g></g></g><path id="path4878" class="cls-2" d="M24.74,0,6.61,4.91S4.26,17.71,4.26,23.54c0,9.31.43,14.72,20.48,26.59"/><g id="g4880"><path id="path4882" class="cls-3" d="M24.6,0,42.73,4.91s2.35,12.8,2.35,18.63c0,9.31-.43,14.72-20.48,26.59"/></g><g id="g4884"><path id="path4886" class="cls-1" d="M31,28.23H27.1a2.42,2.42,0,1,0-4.83,0H18.36a6.33,6.33,0,1,1,12.65,0"/></g><g id="g4888"><path id="path4890" class="cls-1" d="M14.78,30.68,11,29.55a14.35,14.35,0,0,1,13.65-10.1,14.18,14.18,0,0,1,13.58,10l-3.77,1.13a10.29,10.29,0,0,0-9.81-7.25,10.39,10.39,0,0,0-9.88,7.32"/></g><g id="g4896"><path id="path4898" class="cls-4" d="M47.15,2.81,43.31,1.67c.78,4.2,1.92,11.38,1.92,15.29,0,9.32-.5,14.72-20.48,26.52v.08H24.6v-.08C4.69,31.68,4.27,26.28,4.27,17A116.24,116.24,0,0,1,6,1.74L2.28,2.88A53,53,0,0,0,0,16.89c0,11,1,17.42,24.68,31.5v.07h.14v-.07c23.68-14.08,24.6-20.48,24.6-31.5A53.38,53.38,0,0,0,47.15,2.81"/></g></g></g></svg>