<?xml version="1.0" standalone="no"?>
<!DOCTYPE svg PUBLIC "-//W3C//DTD SVG 1.1//EN" "http://www.w3.org/Graphics/SVG/1.1/DTD/svg11.dtd">
<svg xmlns="http://www.w3.org/2000/svg">
<metadata>Copyright (C) 2019 by original authors @ fontello.com</metadata>
<defs>
<font id="wth" horiz-adv-x="1000" >
<font-face font-family="wth" font-weight="400" font-stretch="normal" units-per-em="1000" ascent="850" descent="-150" />
<missing-glyph horiz-adv-x="1000" />
<glyph glyph-name="analysis" unicode="&#xe800;" d="M0 850h998v-100h-998z m1098 0h100v-100h-99z m200 0h99v-100h-99z m-1298-200h1397v-800h-1397z m649-100a249 249 0 0 1-179-73 250 250 0 0 1 315-385v0l176-176 72 69-176 177v0a251 251 0 0 1-32 314 249 249 0 0 1-176 74z m0-99a150 150 0 1 0-106-44 147 147 0 0 0 106 44z" horiz-adv-x="1397" />

<glyph glyph-name="analysis2" unicode="&#xe801;" d="M571 157a311 311 0 0 0-154-40 316 316 0 0 0-317 316h0a306 306 0 0 0 0 34h70a66 66 0 0 1 64-50 67 67 0 0 1 34 9l75-76a63 63 0 0 1-9-33 66 66 0 0 1 67-67h0a67 67 0 0 1 67 67h0a63 63 0 0 1-10 33l110 109a68 68 0 0 1 33-9 67 67 0 0 1 66 67h0a66 66 0 0 1-10 33l37 37a317 317 0 0 0-125-431m-301 328a33 33 0 0 0-34-34h0a33 33 0 0 0-33 34h0a33 33 0 0 0 33 33h0a33 33 0 0 0 34-33h0m166-167a33 33 0 0 0-33-33h0a33 33 0 0 0-33 33h0a33 33 0 0 0 33 33h0a33 33 0 0 0 33-33h0m200 200a33 33 0 0 0-33-34h0a33 33 0 0 0-33 34h0a33 33 0 0 0 33 33h0a33 33 0 0 0 33-33h0m-217 233a315 315 0 0 0 258-134l-41-42a64 64 0 0 1-34 10 67 67 0 0 1-66-67h0a64 64 0 0 1 10-34l-109-109a65 65 0 0 1-68 0l-75 76a67 67 0 0 1-57 100 66 66 0 0 1-65-50h-62a317 317 0 0 0 310 250m0 34a350 350 0 0 1-351-351v0a350 350 0 1 1 350 351m312-573l-16-21-5-7c-5-6-10-11-15-17l-8-7c-5-6-11-11-17-16l-6-5-22-17a383 383 0 1 0 90 89m65-77l-78-75-46 47 7 5 7 6 11 10 6 5c6 6 13 13 19 19l5 6 10 11 6 7c0 3 4 5 6 7z m156-158a54 54 0 0 0-76-77l0 0-134 135 77 77z m-118 808a33 33 0 0 0 34-33h0a33 33 0 0 0-34-33h0a33 33 0 0 0-33 33h0a33 33 0 0 0 33 33h0m0-100a68 68 0 0 1 65 50h102v34h-102a67 67 0 0 1-131-17h0a64 64 0 0 1 10-34l-30-29a417 417 0 0 1-583 77h0a417 417 0 0 1-77-584h0a417 417 0 0 1 556-97l50-50 24-23 134-134a87 87 0 0 1 125 0h0a88 88 0 0 1 0 125h0l-135 132-24 24-50 51a417 417 0 0 1 0 452l33 33a64 64 0 0 1 33-10" horiz-adv-x="1000" />

<glyph glyph-name="avatar" unicode="&#xe802;" d="M772-25l-19-13-9-6-26-16-7-3a443 443 0 0 0-63-26l-2 0c-12-4-23-7-35-10h0c-12-3-23-6-36-8h0a333 333 0 0 0-34-4h-6c-11 0-22 0-34 0s-23 0-34 0h-9c-11 0-23 3-34 4h0a414 414 0 0 0-71 18l-2 0c-11 4-23 8-34 13h0c-11 4-21 9-31 14l-4 2c-9 5-18 11-27 17l-8 5-24 16-3 2 0 0 145 78a78 78 0 0 1 42 68v67l-4 5a309 309 0 0 0-55 113l0 7-6 5a30 30 0 0 0-14 25v65a30 30 0 0 0 5 20l7 6v105a111 111 0 0 0 25 79 171 171 0 0 0 135 45 173 173 0 0 0 134-45 111 111 0 0 0 26-79v-104l7-7a30 30 0 0 0 10-22v-64a30 30 0 0 0-22-29l-9-3-3-9a336 336 0 0 0-45-91l-13-17-5-6v-67a76 76 0 0 1 42-69l153-77 3 0-5-4m-736 375a464 464 0 1 0 771-347 104 104 0 0 1-17 10l-153 77a42 42 0 0 0-23 36v54q5 7 11 15a356 356 0 0 1 48 93 66 66 0 0 1 38 60v64a67 67 0 0 1-17 42v83a145 145 0 0 1-34 106 204 204 0 0 1-161 62 205 205 0 0 1-161-58 148 148 0 0 1-34-107v-83a65 65 0 0 1-17-42v-64a66 66 0 0 1 25-51 333 333 0 0 1 56-117v-52a42 42 0 0 0-21-36l-144-81a125 125 0 0 1-14-9 464 464 0 0 0-154 345m964 0a500 500 0 1 1-838-368h0l16-14 4-3c8-7 17-14 26-20l9-7 30-19 7-4c11-6 22-12 34-18l2 0a498 498 0 0 1 121-38l4 0c13-2 26-4 41-5h2c14 0 27-2 42-2s27 0 42 2h5c13 0 26 3 39 6h4a500 500 0 0 1 119 37l4 2c11 5 22 11 33 17l8 4 29 19 10 7c7 6 15 11 23 18l5 4 17 14h0a500 500 0 0 1 162 368" horiz-adv-x="1000" />

<glyph glyph-name="blue-team" unicode="&#xe803;" d="M798 723a474 474 0 0 0-59-3c-77 0-222 15-320 118l-12 12-11-12c-98-103-242-118-320-118a466 466 0 0 0-58 3l-18 3v-438c0-107 70-216 202-316a1145 1145 0 0 1 199-119l6-3 7 3a1150 1150 0 0 1 199 119c132 100 202 209 202 316v438z m-488-295l-93-58 93-59v-76l-17 11-129 82-15 9v66l15 9 129 83 17 10z m162 131l-64-383h-67v5l64 382h70z m194-224l-16-9-128-83-18-10v78l95 59-94 58v76c0 0 18-11 18-11l128-82 15-8z" horiz-adv-x="815" />

<glyph glyph-name="briefcase" unicode="&#xe804;" d="M800 750l-100 100h-400l-100-100v-200h-200v-700h1000v700h-200z m-100-200h-400v200h400z m-50-569l-150 82-150-79 31 169-122 122 169 25 75 150 75-153 169-25-122-119z" horiz-adv-x="1000" />

<glyph glyph-name="bug" unicode="&#xe805;" d="M394 491h70v-569a191 191 0 0 0-172 140l-78-52v-124a36 36 0 1 0-71 0v141a37 37 0 0 0 15 30l113 75c-4 23-8 47-11 74h-134l-61-93a35 35 0 0 0-29-17 39 39 0 0 0-20 6 36 36 0 0 0-10 50l72 107a36 36 0 0 0 29 16h146c0 21-2 43-3 66 0 0 0 3 0 4l-149 40a34 34 0 0 0-21 15l-72 107a36 36 0 1 0 59 39l64-93 139-34a143 143 0 0 0 124 72z m248 72h-285v71a107 107 0 0 0 51 93l-46 68a35 35 0 0 0 9 49 36 36 0 0 0 50-10l61-93h33l61 93a36 36 0 0 0 59-39l-47-68a107 107 0 0 0 52-93z m351-409a36 36 0 0 0-9-50 39 39 0 0 0-20-6 34 34 0 0 0-30 17l-61 93h-133c-4-27-7-52-12-74l113-75a37 37 0 0 0 16-30v-143a36 36 0 0 0-72 0v122l-78 52a193 193 0 0 0-172-139v570h71a144 144 0 0 0 126-75l139 35 64 93a35 35 0 0 0 49 13 36 36 0 0 0 10-50l-71-107a37 37 0 0 0-22-15l-151-38a16 16 0 0 0 0-5c0-22 0-46-3-65h144a36 36 0 0 0 30-16z" horiz-adv-x="1000" />

<glyph glyph-name="building" unicode="&#xe806;" d="M0 730v-880h328v163h83v-163h328v880z m206-595h-83v83h83z m0 206h-83v83h83z m0 205h-83v83h83z m202-411h-80v83h83v-83z m0 206h-80v83h83v-83z m0 205h-80v83h83v-83z m206-411h-83v83h83z m0 206h-83v83h83z m0 205h-83v83h83z m101 243l-62 61h-570l-61-61z" horiz-adv-x="739" />

<glyph glyph-name="business-people" unicode="&#xe807;" d="M257 689a92 92 0 0 0-92-91 92 92 0 0 0-91 91 92 92 0 0 0 91 91 92 92 0 0 0 92-91z m1-465v6l-15 294v0c0 0 0 4 0 4 0 6 0 10 2 16-4 0-8 2-10 4-8 2-12 0-16-4-16-20-34-38-52-60-18 20-36 40-52 60-4 6-10 8-16 4-27-10-57-18-85-26-10-4-14-8-14-18 0 0 0-4 0-4l14-252c0 0 0-4 0-4 2-36 4-38 38-50l16-243c2-20 18-35 37-35h122c20 0 37 15 37 35l16 213c-16 14-18 30-22 60z m346 519a107 107 0 0 0-107-108 107 107 0 0 0-107 108 107 107 0 0 0 107 107 107 107 0 0 0 107-107z m311-54a92 92 0 0 0-92-91 92 92 0 0 0-91 91 92 92 0 0 0 91 91 92 92 0 0 0 92-91z m61-167c-28 8-57 18-85 26-8 2-12 0-16-4-16-20-34-38-52-60-18 20-36 40-52 60-4 6-10 8-15 4-4 0-8-2-10-4 2-4 2-10 2-16 0-2 0-4 0-4v0l-18-294v-6c-2-30-6-48-20-60l14-215c2-20 18-35 37-35h122c20 0 38 15 38 35l15 243c34 10 36 14 38 50 0 2 0 4 0 4l14 252c0 0 0 2 0 4 2 10-2 16-12 20z m-284 8c0 10-4 18-16 20-34 10-68 20-99 32-8 2-14 0-20-6-18-22-38-46-60-68-22 24-42 46-60 68-6 8-12 8-19 6-34-12-66-22-100-32-12-4-16-10-16-20 0-2 0-4 0-4l16-294c0 0 0-4 0-4 4-42 4-46 44-56l18-280c2-24 22-42 45-42h72 70c24 0 43 18 45 42l18 280c40 12 42 16 44 56 0 2 0 4 0 4l16 294c2 0 2 2 2 4z" horiz-adv-x="989" />

<glyph glyph-name="check" unicode="&#xe808;" d="M500 850c-275 0-500-225-500-500 0-275 225-500 500-500 275 0 500 225 500 500 0 275-222 500-500 500z m-53-694l-188 188 69 65 119-118 247 247 69-69z" horiz-adv-x="1000" />

<glyph glyph-name="clock-x" unicode="&#xe809;" d="M498 764c-66 0-134-15-193-46l149-150v75h84v-155l93-94h156v-84h-72l149-152c106 202 28 454-174 560-59 31-127 46-192 46z m438-911l59 59-936 936-59-59 34-34c-43-68-43-159 0-227 22 53 50 99 87 143l59-59c-146-177-118-435 56-582 0 0 3 0 3-3l-71-177h90l53 131c118-63 261-63 382 0l53-131h91l-72 177v0z m-687 457c-22 0-41 19-41 41 0 21 19 40 41 40 22 0 40-19 40-40 0 0 0 0 0 0 0-22-18-41-40-41z m249-248c-22 0-41 18-41 40 0 22 19 40 41 40 21 0 40-18 40-40 0 0 0 0 0 0 0-22-19-40-40-40z m-252 718c25 15 46 28 74 37-40 28-93 37-140 31z m715-252c62 96 34 224-62 286-69 44-156 44-224 0 130-50 236-152 286-286z" horiz-adv-x="995" />

<glyph glyph-name="cloud-security" unicode="&#xe80a;" d="M967 175v97a159 159 0 0 1-319 0v-97h-106v-325h531v325z m-106 0h-106v97a53 53 0 0 0 106 0z m-319 91a265 265 0 0 0 502 108 211 211 0 0 1-184 317 200 200 0 0 1-41-5 317 317 0 0 1-556 0 200 200 0 0 1-41 5 213 213 0 1 1 0-425h319z" horiz-adv-x="1073" />

<glyph glyph-name="code" unicode="&#xe80b;" d="M665 850l-165-988-2-12h172l165 988 3 12c0 0-173 0-173 0z m-247-152l-45-28-333-210-40-22v-178l40-22 333-208 45-27v197l-243 150 243 150c0 0 0 198 0 198z m500 0v-198l242-150-242-150v-197l45 27 332 208 40 22v178l-40 22-332 208c0 2-45 30-45 30z" horiz-adv-x="1335" />

<glyph glyph-name="consultant" unicode="&#xe80c;" d="M542-108v105c75 6 129 40 129 84v34c76-15 316-77 334-226z m-130 192v66a240 240 0 0 1 105-22h10a239 239 0 0 1 105 22v-68c0-19-42-46-110-46s-110 27-110 46m90-190h-460c15 148 256 211 333 226v-35c0-45 55-79 130-83z m81 375a18 18 0 0 0-17-17 18 18 0 0 0-18 17 17 17 0 0 0 18 18 18 18 0 0 0 17-18m-257 113h0a20 20 0 0 1-4 12 112 112 0 0 0-37 83 53 53 0 0 0 18 34 292 292 0 0 1 178 56 444 444 0 0 1 219-59 271 271 0 0 1 42 0 51 51 0 0 0 18-33 111 111 0 0 0-37-83 19 19 0 0 1-4-13v-10l-116-58a57 57 0 0 1-80-3h0a57 57 0 0 1 2-81h0a57 57 0 0 1 80 0h0a57 57 0 0 1 15 40 10 10 0 0 1 0 5l91 48a220 220 0 0 0-53-104 176 176 0 0 0-130-49h-10a177 177 0 0 0-131 49 255 255 0 0 0-62 166m402 166a408 408 0 0 0-236 59 20 20 0 0 1-26-3 232 232 0 0 0-146-54c10 139 95 170 166 170a185 185 0 0 0 34-3 25 25 0 0 1 8 0 185 185 0 0 0 34 3c70 0 155-32 167-173z m-449-163a83 83 0 0 0-42 31h0a151 151 0 0 0-4 130l14 9a21 21 0 0 1 9 19 233 233 0 0 0 54 162c45 51 117 75 213 75s166-26 213-76a233 233 0 0 0 54-163 20 20 0 0 1 9-18l14-10a151 151 0 0 0-4-130 88 88 0 0 0-42-31 132 132 0 0 1 32 99 94 94 0 0 1-31 55c-9 198-147 220-209 220a233 233 0 0 1-38-3 228 228 0 0 1-37 3c-59 0-198-22-208-220a91 91 0 0 1-32-55 131 131 0 0 1 32-98m393-227v18l15 14a269 269 0 0 1 68 150 134 134 0 0 1 86 51c29 42 31 99 7 172a20 20 0 0 1-8 10l-11 8a269 269 0 0 1-63 180c-51 62-132 92-240 92s-189-30-243-90a268 268 0 0 1-64-180l-11-7a20 20 0 0 1-8-10c-24-74-21-132 7-173a134 134 0 0 1 86-51 269 269 0 0 1 69-151l15-13v-18c-76-15-378-86-373-287a20 20 0 0 1 20-20h1004a20 20 0 0 1 19 20c6 201-296 273-372 287" horiz-adv-x="1044" />

<glyph glyph-name="court" unicode="&#xe80d;" d="M398 481h147v-439h-147z m247 0h147v-439h-147z m-494 0h147v-439h-147z m790 61v117l-470 191-471-191v-117z m-941-566h940v-126h-940z" horiz-adv-x="941" />

<glyph glyph-name="cpu" unicode="&#xe80e;" d="M876 632a94 94 0 0 1-95 94h-93v124h-124v-124h-125v124h-124v-124h-97a94 94 0 0 1-94-94v0-94h-124v-124h124v-124h-124v-124h124v-94a94 94 0 0 1 94-98h94v-124h124v124h124v-124h124v124h94a94 94 0 0 1 94 94v94h124v124h-124v128h124v124h-124z m-124-533h-503v502h501z m-124 124h-254v252h251z" horiz-adv-x="996" />

<glyph glyph-name="crime" unicode="&#xe80f;" d="M812 454a17 17 0 1 0-24 0 17 17 0 0 0 24 0m-56-56a66 66 0 1 1 0 93 66 66 0 0 1 0-93m411 32a17 17 0 1 0 24 0 17 17 0 0 0-24 0m58 56a66 66 0 1 1 0-93 66 66 0 0 1 0 93m81-481a444 444 0 0 0-108 225 38 38 0 0 1 14 10 56 56 0 0 1 10 13c9 15 20 31 31 47a310 310 0 0 1 89-258 313 313 0 0 1 386-45 82 82 0 0 1 22-40l4-4a364 364 0 0 0-448 52m70 444a264 264 0 1 0 0-374 265 265 0 0 0 0 374m-209-174l-104 142a63 63 0 0 0 6 81l259 258a62 62 0 0 0 81 7l160-117a139 139 0 0 1 58-24h0a364 364 0 0 0 246-550 26 26 0 0 0-4 4 87 87 0 0 1-40 23 313 313 0 0 1-487 385 1772 1772 0 0 1-162-207h0l0 0a10 10 0 0 0-6 0 9 9 0 0 0-5 4m667-285a36 36 0 1 0 0 51 36 36 0 0 0 0-51m-752 708a26 26 0 1 0 37 0 27 27 0 0 0-37 0m-228 0a26 26 0 0 0 0 38 26 26 0 0 0 37-38 27 27 0 0 0-37 0m55-287l-103-142a7 7 0 0 0-6-3 8 8 0 0 0-7 4v0a1764 1764 0 0 1-162 207 313 313 0 0 1-487-389 82 82 0 0 1-40-22l-3 0a364 364 0 0 0 246 550h0a139 139 0 0 1 55 24l160 117a62 62 0 0 0 82-7l258-258a62 62 0 0 0 6-81m-688-464l5 4a92 92 0 0 1 22 40 313 313 0 0 1 473 303c11-16 22-32 31-47a37 37 0 0 1 10-13 51 51 0 0 1 14-11 444 444 0 0 0-108-222 364 364 0 0 0-447-54m-81 38a36 36 0 1 0 51 0 37 37 0 0 0-51 0m460 85a265 265 0 1 0 0 374 266 266 0 0 0 0-374m1268-119a84 84 0 0 1 25 60 413 413 0 0 1-258 652h0a85 85 0 0 0-39 14l-160 119a111 111 0 0 1-144-11l-111-112-12 13a75 75 0 0 1-100 100l-44 42a56 56 0 0 1-75 0l-44-43a75 75 0 0 1-100-100l-12-13-111 111a111 111 0 0 1-145 13l-160-119a88 88 0 0 0-37-16h0a409 409 0 0 1-231-121 411 411 0 0 1-28-529 84 84 0 0 1 24-60 83 83 0 0 1 60-25 413 413 0 0 1 539 39 494 494 0 0 1 122 258 56 56 0 0 1 21 18l103 141a111 111 0 0 1-11 144l-111 111 12 12a75 75 0 0 1 100 100l43 45a4 4 0 0 0 6 0h0l45-44a75 75 0 0 1 100-100l11-12-111-111a111 111 0 0 1-12-144l104-141a22 22 0 0 1 6-7 61 61 0 0 1 15-11 494 494 0 0 1 123-258 413 413 0 0 1 539-39 84 84 0 0 1 59 25" horiz-adv-x="1977" />

<glyph glyph-name="danger" unicode="&#xe810;" d="M475 332l94-94 95 94a36 36 0 0 0 51 0h0a36 36 0 0 0 0-51l-95-94 95-95a36 36 0 0 0 0-51 35 35 0 0 0-25-11 36 36 0 0 0-26 11l-95 94-95-94a35 35 0 0 0-25-11 36 36 0 0 0-26 11 36 36 0 0 0 0 51h0l95 95-95 94a36 36 0 0 0 0 51h0a36 36 0 0 0 51 0m-371-402l466 807 466-807z m1026 3l-514 891a52 52 0 0 1-46 26 53 53 0 0 1-46-26l-516-895a52 52 0 0 1 0-52 52 52 0 0 1 46-27h1033a53 53 0 0 1 53 53h0a55 55 0 0 1-10 31" horiz-adv-x="1139" />

<glyph glyph-name="drink" unicode="&#xe811;" d="M179 847c-98 0-179-81-179-179 0-83 59-156 143-173v-75c0-123 92-229 212-246v-251h-73v-73h212v73h-72v251c123 17 212 123 212 246v285h-84l37 72h120v73h-165l-64-145h-123c-20 84-92 145-176 142z m33-212h227l-37-73h-192v73z m308 0h47v-73h-84z" horiz-adv-x="707" />

<glyph glyph-name="fuckup" unicode="&#xe812;" d="M892 239a146 146 0 0 0-147-147 33 33 0 0 1-32-32v-146h-114v178h-64v-178h-114v178h-64v-178h-114v144a32 32 0 0 1-32 32 146 146 0 0 0-147 146v403a146 146 0 0 0 147 146h534a146 146 0 0 0 147-146z m-147 611h-534a211 211 0 0 1-211-210v-401a211 211 0 0 1 167-206l10-2v-149a32 32 0 0 1 31-32h537a33 33 0 0 1 32 32v149l10 2a211 211 0 0 1 167 206v401a211 211 0 0 1-210 208m-445-399a58 58 0 1 0 58 57h0a58 58 0 0 0-57-57h0m0 178a121 121 0 1 1 121-121 122 122 0 0 1-122 121m357-178a58 58 0 1 0 57 57h0a57 57 0 0 0-57-57h0m0 178a121 121 0 1 1 121-121 121 121 0 0 1-121 121m-210-312h64v-64h-64z" horiz-adv-x="955" />

<glyph glyph-name="gear" unicode="&#xe813;" d="M934 308h0a5 5 0 0 0-5-5l-85-14a27 27 0 0 1-22-20 333 333 0 0 0-36-86 27 27 0 0 1 0-30l50-71a6 6 0 0 0 0-7l-61-60a5 5 0 0 0-3 0l-3 0-71 50a27 27 0 0 1-30 0 333 333 0 0 0-83-35 27 27 0 0 1-21-22l-14-86a5 5 0 0 0-5-5h-87a5 5 0 0 0-5 5l-14 86a27 27 0 0 1-21 22 338 338 0 0 0-83 34 28 28 0 0 1-30 0l-72-53-3 0a7 7 0 0 0-5 0l-58 61a6 6 0 0 0 0 7l50 71a27 27 0 0 1 0 30 333 333 0 0 0-37 87 27 27 0 0 1-22 20l-87 14a5 5 0 0 0-4 6v85a5 5 0 0 0 4 5l84 14a29 29 0 0 1 22 21 333 333 0 0 0 36 85 26 26 0 0 1 0 29l-52 72a5 5 0 0 0 0 7l62 58a5 5 0 0 0 4 0l3 0 70-47a28 28 0 0 1 30 0 320 320 0 0 0 87 34 28 28 0 0 1 20 23l15 86a5 5 0 0 0 5 4h85a5 5 0 0 0 5-4l14-84a28 28 0 0 1 21-22 343 343 0 0 0 87-35 27 27 0 0 1 30 0l70 50 3 0a5 5 0 0 0 4 0l61-61a6 6 0 0 0 0-7l-50-71a28 28 0 0 1 0-30 319 319 0 0 0 34-86 27 27 0 0 1 22-20l86-14a5 5 0 0 0 5-6z m15 148l-71 12a370 370 0 0 1-28 68l42 58a61 61 0 0 1-7 80l-62 61a62 62 0 0 1-44 18 59 59 0 0 1-36-12l-58-41a390 390 0 0 1-70 29l-12 69a61 61 0 0 1-61 52h-88a61 61 0 0 1-61-52l-12-70a391 391 0 0 1-68-29l-57 41a63 63 0 0 1-36 12 60 60 0 0 1-42-18l-64-63a61 61 0 0 1-7-79l42-59a405 405 0 0 1-28-68l-69-12a62 62 0 0 1-52-61v-88a62 62 0 0 1 52-61l71-12a405 405 0 0 1 28-68l-41-57a62 62 0 0 1 6-80l63-62a62 62 0 0 1 79-7l59 42a359 359 0 0 1 66-27l11-71a62 62 0 0 1 62-51h88a62 62 0 0 1 61 52l12 70a405 405 0 0 1 68 28l58-42a61 61 0 0 1 36-11 62 62 0 0 1 41 18l63 62a62 62 0 0 1 6 80l-41 58a441 441 0 0 1 28 68l70 12a62 62 0 0 1 54 61v88a61 61 0 0 1-51 61m-449-264a160 160 0 1 0 160 159 159 159 0 0 0-160-159m0 375a216 216 0 1 1 216-216 216 216 0 0 1-216 216" horiz-adv-x="1000" />

<glyph glyph-name="handcuffs" unicode="&#xe814;" d="M1449 595a357 357 0 0 1-343 96l-100 105-66-63a44 44 0 0 1-6 7l-71 81a86 86 0 0 1-57 29 78 78 0 0 1-59-21v0a88 88 0 0 1-20 3h-103a64 64 0 0 1-41-14 86 86 0 0 1-78-48l-43-97a167 167 0 0 1-7-22l-96 39-54-134a355 355 0 1 1 329-133l55 133-65 27a57 57 0 0 1 9 16l44 96a84 84 0 0 1 6 43h25a71 71 0 0 1 19-38l71-81a71 71 0 0 1 14-13l-60-56 100-104a356 356 0 1 1 597 149z m-885-473a222 222 0 1 0-122 288 221 221 0 0 0 122-288z m64 594l-43-96a26 26 0 0 0-15-14l-55 19a25 25 0 0 0 0 23l44 97a24 24 0 0 0 16 14v0a58 58 0 0 1 48-25h3a25 25 0 0 0 0-18z m210-62l-71 81a34 34 0 0 0-5 9 48 48 0 0 1 26 40v4a28 28 0 0 0 16 7v0a23 23 0 0 0 18-10l71-81a45 45 0 0 0 7-9l-48-49a33 33 0 0 0-16 8z m508-463a222 222 0 1 0 5 313 222 222 0 0 0-7-313z" horiz-adv-x="1549" />

<glyph glyph-name="lecturers" unicode="&#xe815;" d="M653 201h-448l40-351h371v3z m-547-19l-106 97v70h861v-64l-106-103h-63v67h-523v-67z m553 215h-454c0 0-33 175 109 175h230c0 0 130 15 115-175z m-109 335a118 118 0 0 0-118-118 118 118 0 0 0-118 118 118 118 0 0 0 118 118 118 118 0 0 0 118-118z" horiz-adv-x="861" />

<glyph glyph-name="lock" unicode="&#xe816;" d="M0-150h723v695h-112v55c0 139-111 250-250 250-138 0-250-111-250-250v-55h-111z m416 349v-183h-111v183c-53 31-72 99-40 151 31 53 98 71 151 40 53-32 71-99 40-151-8-15-23-30-40-40z m-193 401c0 78 63 139 138 139 78 0 139-63 139-139v-55h-277z" horiz-adv-x="723" />

<glyph glyph-name="lock-check" unicode="&#xe817;" d="M442 24l-183 183 55 56 121-121a20 20 0 0 1 28 0l355 284 49-61z m266-91a42 42 0 0 0-41-41h-584a42 42 0 0 0-41 41v500h666v-41l-257-209-122 125a21 21 0 0 1-29 0l-84-83a21 21 0 0 1 0-30h0l212-211a20 20 0 0 1 15-6 21 21 0 0 1 12 4l253 201z m-166 625v-83h-334v83a167 167 0 0 0 334 0m-417 0a250 250 0 0 0 500 0v-83h-42v83a208 208 0 0 1-416 0v-83h-42z m788-185l-75 94a20 20 0 0 1-15 8 23 23 0 0 1-15-5l-58-46v30a21 21 0 0 1-21 21h-62v83a292 292 0 0 1-584 0v-83h-62a21 21 0 0 1-21-21h0v-521a83 83 0 0 1 83-83h584a83 83 0 0 1 83 83v284l159 125a21 21 0 0 1 3 29" horiz-adv-x="917" />

<glyph glyph-name="lock-gear" unicode="&#xe818;" d="M839 780l-74-36-56 23-27 83h-128l-27-83-56-23-74 36c-34-26-65-56-90-91l36-74-23-56-83-27v-30c5 0 10 0 16 0 43 0 86-18 117-49 0 5-2 11-2 14 0 138 112 249 249 249 138 0 249-111 249-249 2-135-108-247-245-247-47 0-94 15-135 40 0-2 1-4 1-6v-66c13-8 27-13 42-17l27-83h128l27 83c20 6 38 13 56 24l74-36c35 25 65 56 90 90l-36 74c9 18 17 36 24 56l83 27v128l-83 27-24 56 36 74c-27 35-55 63-92 89z m-88-311l-199 99v-198z m-751-619h431v415h-66v33c0 83-67 150-150 150-83 0-150-67-150-150v-33h-65z m249 209v-108h-67v108c-32 18-43 60-23 91 18 32 59 43 90 23 33-18 43-59 24-90-6-11-13-18-24-24z m-115 239c0 45 38 83 83 83 45 0 83-38 83-83v-33h-166z" horiz-adv-x="1002" />

<glyph glyph-name="manager" unicode="&#xe819;" d="M783 29h-783v-179h783z m-96 185c-10 93-77 170-169 189l-90-221-19 160h13c9 0 16 6 16 16v45c0 6-7 13-16 13h-67c-7 0-13-4-13-13 0 0 0 0 0 0v-45c0-6 6-16 13-16h12l-19-160-89 221c-90-19-160-96-169-189v-124h594v124z m-99 438a198 198 0 0 0-198-198 198 198 0 0 0-198 198 198 198 0 0 0 198 198 198 198 0 0 0 198-198z" horiz-adv-x="783" />

<glyph glyph-name="managing" unicode="&#xe81a;" d="M500 683a67 67 0 1 0 67 67 67 67 0 0 0-67-67m0 167a100 100 0 1 1 100-100 100 100 0 0 1-100 100m117-400a17 17 0 0 0-17-17h-200a17 17 0 0 0-16 17h0v100a50 50 0 0 0 46 50 167 167 0 0 1 141 0 50 50 0 0 0 46-50z m-50 183h-4l-4 0a132 132 0 0 0-118 0l-3 0h-4a83 83 0 0 1-84-83v-100a50 50 0 0 1 50-50h200a50 50 0 0 1 50 50h0v100a83 83 0 0 1-83 83m283-500a67 67 0 1 0 67 67 67 67 0 0 0-67-67m0 167a100 100 0 1 1 0-200h0a100 100 0 1 1 0 200m117-400a17 17 0 0 0-17-17h-200a17 17 0 0 0-16 17h0v100a50 50 0 0 0 46 50 167 167 0 0 1 140 0 50 50 0 0 0 47-50z m-50 183h-4l-3 0a134 134 0 0 0-119 0l-3 0h-4a83 83 0 0 1-84-83v-100a50 50 0 0 1 50-50h200a50 50 0 0 1 50 50h0v100a83 83 0 0 1-83 83m-767 50a67 67 0 1 0 67 67 67 67 0 0 0-67-67m0 167a100 100 0 1 1 100-100 100 100 0 0 1-100 100m117-400a17 17 0 0 0-17-17h-200a17 17 0 0 0-17 17h0v100a50 50 0 0 0 47 50 167 167 0 0 1 141 0 50 50 0 0 0 46-50z m-50 183h-4l-3 0a135 135 0 0 0-119 0l-3 0h-5a83 83 0 0 1-83-83v-100a50 50 0 0 1 50-50h200a50 50 0 0 1 50 50h0v100a83 83 0 0 1-83 83m450-80h0a17 17 0 0 1-22 9 369 369 0 0 0-238-17l16 5a16 16 0 0 1 11 21h0a17 17 0 0 1-20 11h0l-67-19h0a13 13 0 0 1-4 0l0 0a17 17 0 0 1-4-6 21 21 0 0 1 0-7 39 39 0 0 1 0-7v0l33-63a17 17 0 0 1 22-8h0a16 16 0 0 1 7 23h0l-13 26a402 402 0 0 1 272 15 17 17 0 0 1 9 22m276 404a16 16 0 0 1-23 0l-24-24a400 400 0 0 1-241 330 17 17 0 0 1-13-31 366 366 0 0 0 221-295l-19 18a17 17 0 0 1-24 0 16 16 0 0 1 0-23l50-50a16 16 0 0 1 23 0h0l50 50a16 16 0 0 1 0 24m-579 295s0 0 0 3h0l0 2a10 10 0 0 1 0 3l-3 0 0 0-71 34a16 16 0 0 1-22-8h0a17 17 0 0 1 8-22l34-15a400 400 0 0 1-212-353 17 17 0 0 1 17-17h0a17 17 0 0 1 16 17h0a367 367 0 0 0 181 316l-12-24a17 17 0 0 1 8-22 14 14 0 0 1 7 0 18 18 0 0 1 17 6l33 69h0a12 12 0 0 1 0 4s0 0 0 3 0 2 0 3" horiz-adv-x="1000" />

<glyph glyph-name="mic" unicode="&#xe81b;" d="M418 168l-8 41-138-38c3-14 9-26 12-41 6-14 12-20 17-17l30 9c0-3 0-9 3-12 5-23 0-47-12-64-23-29-76-35-155-21h-9c-52 12-114 21-140-8-12-12-20-30-17-47 3-44 49-85 81-111l12-9 29 32-11 9c-15 12-33 26-44 41-12 9-18 23-24 38 0 6 3 8 6 11 0 0 9 9 41 6 21-3 41-6 61-9h9c41-8 85-11 126-5 29 3 52 17 73 41 23 35 29 76 17 114l33 8c8 15 11 24 8 32z m-87 395l-164-44c0-3 0-6 0-9 32-102 64-204 96-304l141 38c-24 106-47 208-70 313-3 3-3 6-3 6z m-269 99c12-50 53-90 99-105l152 41c35 38 50 90 35 140 0 3 0 6-3 9-90-47-190-73-289-76 3-3 3-6 6-9z m105 184c-64-17-108-73-111-140 97 6 190 29 278 73-35 55-103 82-167 67z" horiz-adv-x="419" />

<glyph glyph-name="not-like" unicode="&#xe81c;" d="M110 392l2 11c-76 22-35 110 19 115l3 11c-73 21-38 113 19 117l2 12c-59 9-45 109 46 109h449c32 0 61-36 83-36h21v-350a646 646 0 0 1-74-51c-33-28-166-245-166-272s3-144 3-144-27-34-84-9a520 520 0 0 0-54 166s22 153 34 200h-313c-77 0-62 110 10 121m687 408h286v-453h-286z m-764-402c-58-57-40-173 59-173h261c-10-55-24-147-24-155a552 552 0 0 1 60-186 111 111 0 0 1 106-31c63 13 69 53 69 64 0 0-3 109-3 138 30 66 133 239 164 250a48 48 0 0 1 25-6h330a51 51 0 0 1 50 51v456a48 48 0 0 1-47 44h-296a48 48 0 0 1-48-47v-16a34 34 0 0 0-16 3 134 134 0 0 1-73 27h-442c-166 0-147-146-132-166a115 115 0 0 1-22-125 113 113 0 0 1-21-125" horiz-adv-x="1130" />

<glyph glyph-name="paths" unicode="&#xe81d;" d="M885 79c-64 0-114-50-114-114 0-65 50-115 114-115 65 0 115 50 115 115 0 64-50 114-115 114z m0-175c-32 0-61 25-61 61 0 32 26 61 61 61 33 0 61-25 61-61v0c0-36-28-61-61-61z m-272 61a115 115 0 0 0-115-115 115 115 0 0 0-114 115 115 115 0 0 0 114 114 115 115 0 0 0 115-114z m387 770a115 115 0 0 0-115-114 115 115 0 0 0-114 114 115 115 0 0 0 114 115 115 115 0 0 0 115-115z m-387 0a115 115 0 0 0-115-114 115 115 0 0 0-114 114 115 115 0 0 0 114 115 115 115 0 0 0 115-115z m387-383a115 115 0 0 0-115-115 115 115 0 0 0-114 115 115 115 0 0 0 114 115 115 115 0 0 0 115-115z m-387 0a115 115 0 0 0-115-115 115 115 0 0 0-114 115 115 115 0 0 0 114 115 115 115 0 0 0 115-115z m-384-387a115 115 0 0 0-114-115 115 115 0 0 0-115 115 115 115 0 0 0 115 114 115 115 0 0 0 114-114z m0 770a115 115 0 0 0-114-114 115 115 0 0 0-115 114 115 115 0 0 0 115 115 115 115 0 0 0 114-115z m0-383a115 115 0 0 0-114-115 115 115 0 0 0-115 115 115 115 0 0 0 115 115 115 115 0 0 0 114-115z" horiz-adv-x="1000" />

<glyph glyph-name="people" unicode="&#xe81e;" d="M713 616a78 78 0 0 0-79-78 78 78 0 0 0-78 78 78 78 0 0 0 78 78 78 78 0 0 0 79-78z m-338 0a78 78 0 0 0-78-78 78 78 0 0 0-78 78 78 78 0 0 0 78 78 78 78 0 0 0 78-78z m169 156a78 78 0 0 0-78-78 78 78 0 0 0-78 78 78 78 0 0 0 78 78 78 78 0 0 0 78-78z m340-409h-159c-28 0-50-22-50-50v-182c0-28 22-50 50-50h13c0 0 0-3 0-3v-191c0-21 18-37 37-37 0 0 0 0 0 0h59c22 0 38 19 38 37v191c0 0 0 3 0 3h12c29 0 50 22 50 50v0 182c0 28-21 50-50 50 0 0 0 0 0 0z m0 96a78 78 0 0 0-78-78 78 78 0 0 0-78 78 78 78 0 0 0 78 79 78 78 0 0 0 78-79z m-350-572v191c0 0 0 3 0 3h13c28 0 50 22 50 50v0 182c0 28-22 50-50 50h-159c-29 0-50-22-50-50v-182c0-28 21-50 50-50 0 0 0 0 0 0h12c0 0 0-3 0-3v-191c0-21 19-37 38-37h59c19 0 37 19 37 37z m10 572a78 78 0 0 0-78-78 78 78 0 0 0-78 78 78 78 0 0 0 78 79 78 78 0 0 0 78-79z m-347-572v191c0 0 0 3 0 3h12c29 0 50 22 50 50v0 182c0 28-21 50-50 50h-159c-28 0-50-22-50-50 0 0 0 0 0 0v-182c0-28 22-50 50-50 0 0 0 0 0 0h13v-190c0-22 18-38 37-38 0 0 0 0 0 0h59c19-3 38 16 38 34z m9 572a78 78 0 0 0-78-78 78 78 0 0 0-78 78 78 78 0 0 0 78 79 78 78 0 0 0 78-79z" horiz-adv-x="934" />

<glyph glyph-name="privacy" unicode="&#xe81f;" d="M583 535a23 23 0 0 1-23-23h0a23 23 0 0 1 23-23h0a23 23 0 0 1 0 46m517-228h-1032a23 23 0 0 0 0 45h1032a23 23 0 1 0 0-45m-863 182h256a23 23 0 0 1 0 46h-239c68 190 132 245 165 261a53 53 0 0 0 74-16l2-4a97 97 0 0 1 88-57 97 97 0 0 1 89 57c11 23 42 37 79 16s98-75 165-257h-240a23 23 0 1 1 0-46h255l32-91h-757c8 24 20 58 31 91m863-91h-89c-46 134-115 369-237 434a97 97 0 0 1-135-26 94 94 0 0 1-7-11 53 53 0 0 0-95 0 99 99 0 0 1-132 45l-5-3c-125-61-195-305-243-439h-88a68 68 0 0 1-69-68h0a69 69 0 0 1 68-69h1032a68 68 0 0 1 69 69h0a69 69 0 0 1-69 68m-493-320v-23a194 194 0 0 1 0-21 132 132 0 0 1-48 0c0 7 0 14 0 21v23z m46 46h319v-69a160 160 0 0 0-319 0h0z m-297-228a160 160 0 0 0-159 159v69h319v-69a160 160 0 0 0-160-159h0m183 273h-365a23 23 0 0 1-23-23v-91a205 205 0 0 1 397-73 88 88 0 0 0 72 0 206 206 0 0 1 398 73v91a23 23 0 0 1-23 23h-365a23 23 0 0 1-23-23v-22h-46v22a23 23 0 0 1-23 23m-182-182a68 68 0 0 0-68 68 23 23 0 0 1-23 23h0a23 23 0 0 1-23-23 114 114 0 0 1 114-114 23 23 0 0 1 0 46m456-46a115 115 0 0 1 115 114 23 23 0 1 1-46 0 69 69 0 0 0-69-68 23 23 0 0 1-22-23h0a23 23 0 0 1 22-23" horiz-adv-x="1169" />

<glyph glyph-name="red-team" unicode="&#xe820;" d="M623-96l119 118 173-172 86 85-173 173 119 119-53 53-86-86-599 647-209 9 9-209 647-599-85-86z m-246 0l53 53-86 85 91 83-167 151-76-82-85 86-53-53 119-119-173-173 85-85 173 172z m183 687l175-188 256 238 10 209-210-9z" horiz-adv-x="1000" />

<glyph glyph-name="savings" unicode="&#xe821;" d="M1067 385c-20 220-236 393-495 393-20 0-47-4-63-4-107 97-313 74-313 74l33-34c34-30 54-69 57-113-83-46-150-119-186-209h-100v-286h100c36-87 103-160 186-210v-146h143v93c76-20 160-23 236-10v-80h143v123c150 70 246 200 259 343 24-10 47-17 74-17v47c-30 0-57 13-74 36z m-818 90l-43 17c0 3 37 90 110 110l13-47c-53-13-80-80-80-80z m419-263c-26-19-56-29-86-29v-57h-37v57c-40 0-79 6-116 23v70c17-10 37-17 57-20 19-7 39-10 59-10v83l-20 7c-26 9-53 26-76 46-17 17-23 40-23 60 0 27 10 50 30 63 23 20 53 30 86 30v40h37v-40c40 0 76-10 113-23l-27-63c-27 10-56 20-86 20v-80c26-10 49-20 76-34 13-10 23-19 33-33 7-13 10-30 10-43 0-23-10-50-30-67z m-159 227c0-7 3-14 10-20 6-7 16-14 26-17v63c-23 0-36-10-36-26z m73-127v-66c23 3 37 13 37 30 0 6-4 13-10 20-7 6-17 13-27 16z" horiz-adv-x="1141" />

<glyph glyph-name="sec-operations" unicode="&#xe822;" d="M600 217h-300v250h300z m-50 400a100 100 0 1 1-200 0v-17a17 17 0 1 1 33 0v17a67 67 0 0 0 134 0v-117h-250v-317h366v317h-83z m-100-284a33 33 0 1 0 33 34 33 33 0 0 0-33-34m0 100a66 66 0 0 1-17-130v-36a17 17 0 0 1 17-17h0a17 17 0 0 1 17 17h0v36a66 66 0 0 1-17 130m0 417a450 450 0 0 1-38-898l-74-74a16 16 0 0 1 0-23h0a16 16 0 0 1 24 0l100 100a13 13 0 0 1 3 5 16 16 0 0 1 0 13 13 13 0 0 1-3 5l-100 100a16 16 0 0 1-24 0h0a16 16 0 0 1 0-23h0l70-70a417 417 0 1 0 458 415 412 412 0 0 0-121-292 17 17 0 0 1 0-23h0a17 17 0 0 1 24 0 450 450 0 0 1-319 765" horiz-adv-x="900" />

<glyph glyph-name="security" unicode="&#xe823;" d="M410 772a19 19 0 0 1-19-19h0a20 20 0 0 1 39-3v3a19 19 0 0 1-20 19h0m371-377a526 526 0 0 0-371-505 528 528 0 0 0-371 505v300a137 137 0 0 1 116 116h512a137 137 0 0 1 116-116z m20 338a98 98 0 0 0-98 97 20 20 0 0 1-19 20h-547a20 20 0 0 1-20-20h0a98 98 0 0 0-97-97 20 20 0 0 1-20-20h0v-318a568 568 0 0 1 405-545l5 0 7 0a568 568 0 0 1 404 544v319a20 20 0 0 1-19 20h0m-72-64a179 179 0 0 0-90 91 19 19 0 0 1-18 12h-134a20 20 0 0 1-19-19h0a20 20 0 0 1 19-20h122a213 213 0 0 1 93-94v-244a445 445 0 0 0-291-423 445 445 0 0 0-292 423v244a213 213 0 0 1 91 94h122a20 20 0 0 1 20 20h0a20 20 0 0 1-20 19h-134a19 19 0 0 1-18-12 178 178 0 0 0-91-91 19 19 0 0 1-12-18v-256a486 486 0 0 1 326-462 19 19 0 0 1 6 0l7 0a487 487 0 0 1 325 462v256a19 19 0 0 1-12 18m-320-417a137 137 0 1 0 137 137 138 138 0 0 0-137-137m0 313a176 176 0 1 1 176-176 176 176 0 0 1-176 176m92-123a20 20 0 0 1-27 0h0l-84-83-25 25a20 20 0 0 1-28 0 19 19 0 0 1 0-27h0l40-39a18 18 0 0 1 13-6 20 20 0 0 1 14 6l98 97a19 19 0 0 1 0 28h0" horiz-adv-x="820" />

<glyph glyph-name="spy" unicode="&#xe824;" d="M891 23c-21 66-68 123-132 158v47l-47 48-93-93v-47l-96-50 47-92-95-97-94 95 47 94-97 50v45l-95 95-47-48v-47c-61-35-109-90-132-158l-57-173h946z m-227 827l-189-47-189 47-47-236h-95v-48h662v48h-94z m-189-643c104 0 189 85 189 189v95h-378v-95c0-106 85-189 189-189z" horiz-adv-x="946" />

<glyph glyph-name="star" unicode="&#xe825;" d="M674 499l-149 351-147-351-378-33 286-247-86-369 325 196 324-196-86 369 288 247z" horiz-adv-x="1051" />

<glyph glyph-name="target" unicode="&#xe826;" d="M762 379a264 264 0 0 1-232 233v118a382 382 0 0 0 350-351z m-232-409v118a264 264 0 0 1 232 233h118a382 382 0 0 0-350-351m-59 233v-56a205 205 0 0 0-174 174h57v58h-57a205 205 0 0 0 174 174v-56h59v56a205 205 0 0 0 173-174h-56v-58h56a205 205 0 0 0-173-174v56z m0-233a381 381 0 0 0-351 351h118a265 265 0 0 1 233-233z m0 760v-118a265 265 0 0 1-233-233h-118a381 381 0 0 0 351 351m467-351a440 440 0 0 1-409 409v62h-58v-62a440 440 0 0 1-409-409h-62v-58h62a440 440 0 0 1 409-409v-62h58v62a440 440 0 0 1 409 409h62v58z m-438 59a88 88 0 1 1 88-88 88 88 0 0 1-88 88" horiz-adv-x="1000" />

<glyph glyph-name="time" unicode="&#xe827;" d="M719 560l44 53c6 6 6 12 0 19l-44 37c-3 3-6 3-9 3-3 0-6-3-9-3l-41-56c-59 40-125 65-197 72v71h91v94h-268v-94h90v-71c-72-7-137-32-196-72l-44 53c-3 3-6 3-10 3-3 0-6 0-9-3l-44-37c-3-7-3-13 0-19l44-53c-159-166-156-431 9-590 166-159 431-156 590 9 162 166 162 425 3 584z m31-290h-318c-6 0-12 6-12 12v322c0 6 6 12 12 12 0 0 0 0 0 0 184 0 331-150 331-331 3-9-3-15-13-15z" horiz-adv-x="838" />

<glyph glyph-name="banking" unicode="&#xe828;" d="M183 316v-127a201 201 0 0 1 73-143 411 411 0 0 1 68-52l20-12 19 12a399 399 0 0 1 68 52 201 201 0 0 1 74 143v127l-161 73z m76-49l47 20v-182a131 131 0 0 0-47 84z m169-78a132 132 0 0 0-46-83v181l46-21z m882 661h-1088v-335a344 344 0 1 1 463-359h625z m-1011-77h934v-385h-606a343 343 0 0 1-283 149 331 331 0 0 1-45-3z m45-846a267 267 0 1 0 267 267 267 267 0 0 0-267-267z m341 305a339 339 0 0 1-18 79h566v-79z m262 274a101 101 0 0 1 62 22 101 101 0 1 1 63 179 98 98 0 0 1-63-24 100 100 0 0 1-62 22 101 101 0 1 1 0-201z m125 124a24 24 0 1 0-24-24 24 24 0 0 0 24 24z m-125 0a24 24 0 1 0-24-24 24 24 0 0 0 24 24z" horiz-adv-x="1310" />

<glyph glyph-name="bug2" unicode="&#xe829;" d="M328 597h363a36 36 0 0 1 36 36 11 11 0 0 1 0 3 218 218 0 0 1-435-3 36 36 0 0 1 36-36z m181 181a146 146 0 0 0 142-111h-283a146 146 0 0 0 141 111z m472-461h-170v180l135 136a36 36 0 0 1 0 51 36 36 0 0 1-50 0l-136-136h-502l-135 135a36 36 0 1 1-51-50l136-136v-180h-172a36 36 0 0 1 0-71h172a301 301 0 0 1 50-166l-169-169a36 36 0 0 1 25-61 37 37 0 0 1 25 11l167 164a301 301 0 0 1 408 0l164-163a37 37 0 0 1 25-11 36 36 0 0 1 26 61l-167 167a301 301 0 0 1 51 167h168a36 36 0 0 1 0 72z m-702-71v230h195v-457a230 230 0 0 0-195 227z m266-227v457h195v-230a230 230 0 0 0-195-227z" horiz-adv-x="1016" />

<glyph glyph-name="cloud" unicode="&#xe82a;" d="M276-150a276 276 0 0 0 0 552h75a500 500 0 0 0 960 140 355 355 0 1 0 124-692c-10 0 68 0-1159 0z m0 446a169 169 0 0 1 0-338h1155a249 249 0 1 1-127 465 53 53 0 0 0-78 33 394 394 0 0 1-773-107 53 53 0 0 0-51-53z" horiz-adv-x="1776" />

<glyph glyph-name="save-lock" unicode="&#xe82b;" d="M562-150v85h-562v915h728l175-201v-146l5-2a198 198 0 0 0 108-179v-45h60v-427z m76 76h361v273h-361z m-375 85h299v266h58v25h-357z m-186 0h109v368h443l1 5a198 198 0 0 0 188 140h8v98l-132 153v-252h-508v250h-109z m742 445l-13 0a122 122 0 0 1-109-134v-45h243v45a111 111 0 0 1 0 24 122 122 0 0 1-121 110z m-556 144h354v173h-354z" horiz-adv-x="1076" />

<glyph glyph-name="vip" unicode="&#xe82c;" d="M1000 61a30 30 0 0 1-24 20l-85 12-39 78a29 29 0 0 1-26 16 30 30 0 0 1-26-16l-39-78-85-12a28 28 0 0 1-11-4 26 26 0 0 1-11 4l-86 12-38 78a29 29 0 0 1-27 16 30 30 0 0 1-26-16l-38-78-86-12a26 26 0 0 1-12-5 28 28 0 0 1-12 5l-87 13-38 78a29 29 0 0 1-27 16 30 30 0 0 1-26-16l-38-78-87-12a29 29 0 0 1-17-50l64-61-15-87a29 29 0 0 1 43-31l76 41 77-41a29 29 0 0 1 43 31l-15 87 58 57 57-57-14-87a30 30 0 0 1 12-29 29 29 0 0 1 31-2l76 41 77-41a29 29 0 0 1 31 2 30 30 0 0 1 12 29l-15 87 56 56 57-56-15-87a29 29 0 0 1 43-31l77 41 76-41a29 29 0 0 1 31 2 30 30 0 0 1 12 29l-15 87 62 61a29 29 0 0 1 9 29z m-770-58a29 29 0 0 1-8-27l7-44-38 21a28 28 0 0 1-14 2 28 28 0 0 1-13-3l-38-20 7 44a28 28 0 0 1-8 26l-32 30 43 6a29 29 0 0 1 22 17l19 38 19-38a29 29 0 0 1 22-17l42-6z m325 0a29 29 0 0 1-9-27l7-43-38 20a29 29 0 0 1-27 0l-38-20 8 44a29 29 0 0 1-8 26l-31 30 42 6a30 30 0 0 1 22 16l19 38 19-38a30 30 0 0 1 22-16l42-6z m322 0a29 29 0 0 1-8-27l7-44-38 20a28 28 0 0 1-13 3 29 29 0 0 1-14-3l-38-20 8 44a29 29 0 0 1-9 27l-30 29 42 6a30 30 0 0 1 22 17l19 38 18-38a30 30 0 0 1 23-17l42-6z m-377 847a323 323 0 0 1-197-579 26 26 0 0 1 8-6 320 320 0 0 1 378 0 26 26 0 0 1 8 6 323 323 0 0 1-197 579z m0-588a259 259 0 0 0-146 45 146 146 0 0 0 292 0 260 260 0 0 0-146-45z m-87 325a88 88 0 1 0 87-89 88 88 0 0 0-87 89z m284-237a208 208 0 0 1-101 124 147 147 0 1 1-190 0 208 208 0 0 1-102-124 263 263 0 1 0 393 0z" horiz-adv-x="1000" />

<glyph glyph-name="atombomb" unicode="&#xe82d;" d="M764 729c-70 83-187 121-295 121s-225-38-296-121a207 207 0 0 1 32-410 206 206 0 0 1 104 27l8-3a452 452 0 0 0 14-46c-62-21-97-56-97-96 0-56 60-87 112-102a581 581 0 0 0-43-192h-69v-57h469v59h-72a590 590 0 0 0-43 191c53 15 115 47 115 102 0 41-37 77-100 97a415 415 0 0 0 13 45l12 4a204 204 0 0 1 105-28 207 207 0 0 1 31 409z m-472-527c0 9 15 24 49 37a711 711 0 0 0 6-77c-34 12-54 28-54 40z m274-293h-199a664 664 0 0 1 38 180 479 479 0 0 1 64-5 487 487 0 0 1 61 4 654 654 0 0 1 37-179z m78 293c0-12-20-28-58-41a763 763 0 0 0 6 80c36-13 52-30 52-39z m-117-56a419 419 0 0 0-58-4 463 463 0 0 0-62 4 688 688 0 0 1-23 180 472 472 0 0 1 84-8 460 460 0 0 1 81 7 687 687 0 0 1-21-178z m206 232a148 148 0 0 0-139 98l-56-20a211 211 0 0 1 37-64 402 402 0 0 0-214 0 211 211 0 0 1 37 64l-56 20a147 147 0 0 0-283 50 149 149 0 0 0 132 147l13 0 8 10c52 67 149 108 257 108s205-41 257-108l8-10 12 0a148 148 0 0 0-13-295z" horiz-adv-x="938" />

<glyph glyph-name="attack" unicode="&#xe82e;" d="M265 613a20 20 0 1 1 0-28 20 20 0 0 1 0 28z m718-580a58 58 0 0 1-42 17 56 56 0 0 1-27-8 56 56 0 0 1-13 19 59 59 0 0 1-40 17 57 57 0 0 1-17 38 58 58 0 0 1-38 17 59 59 0 0 1-33 50l16 16a58 58 0 0 1 17 40 57 57 0 0 1-18 41 58 58 0 0 1-41 18 60 60 0 0 1-25-6l-55 58 286 287a20 20 0 0 1 5 9l42 180h0s0 0 0 2h0v6a5 5 0 0 1 0 2h0l0 2v0l0 1v0l0 2 0 0-6 3-1 0 0 0-2 0h0l-2 0h0l-2 0h-10l-181-36a20 20 0 0 1-9-5l-287-286-287 286a18 18 0 0 1-10 5l-179 42h0l-3 0h-5l-2 0h0a4 4 0 0 1-2 0h0l-2-2h0l-2-2h0l-2-2-2-1v0l-1-2v0l0-2h0a7 7 0 0 1-3-3h0a4 4 0 0 1 0-2v0a4 4 0 0 1 0-3v-2h0s0 0 0-2h0l42-180a18 18 0 0 1 5-10l286-287-55-57a60 60 0 0 1-25 6 59 59 0 0 1-42-100l16-16a58 58 0 0 1-33-50 59 59 0 0 1-38-17 58 58 0 0 1-17-38 57 57 0 0 1-38-17 61 61 0 0 1-13-19 56 56 0 0 1-29 8 58 58 0 0 1-41-17 57 57 0 0 1-18-42 58 58 0 0 1 17-41l84-83a59 59 0 0 1 100 41 59 59 0 0 1-8 28 57 57 0 0 1 18 12 59 59 0 0 1 17 41 57 57 0 0 1 38 17 58 58 0 0 1 17 38 59 59 0 0 1 50 33l16-16a58 58 0 0 1 84 0 59 59 0 0 1 11 67l56 55 57-55a60 60 0 0 1-6-25 58 58 0 0 1 18-42 57 57 0 0 1 42-17 58 58 0 0 1 42 18l16 16a58 58 0 0 1 48-34 59 59 0 0 1 17-38 57 57 0 0 1 39-17 59 59 0 0 1 16-38 61 61 0 0 1 19-12 56 56 0 0 1-8-28 58 58 0 0 1 17-42 57 57 0 0 1 42-17 58 58 0 0 1 41 17l83 84a58 58 0 0 1 0 83z m-62 628l-282-283-41 41 348 349z m-111 111l108 25-349-350-41 42z m-449-450l42-41-56-56-40 42z m-206-427a19 19 0 0 0-14-6 20 20 0 0 0-13 6l-84 83a19 19 0 0 0-5 14 19 19 0 0 0 5 14 20 20 0 0 0 14 5 20 20 0 0 0 14-5l83-84a19 19 0 0 0 0-28z m28 83a19 19 0 0 0-28 0l-27 28a19 19 0 0 0 0 28 18 18 0 0 0 13 5 19 19 0 0 0 14-5h0l28-28h0a19 19 0 0 0 0-28z m56 56a20 20 0 0 0-28 0l-28 27a20 20 0 0 0 0 28 19 19 0 0 0 28 0h0l28-28h0a19 19 0 0 0 5-13 19 19 0 0 0-6-15z m55 55a20 20 0 0 0-28 0l-27 28a20 20 0 0 0 0 28 20 20 0 0 0 14 6 19 19 0 0 0 13-6l28-28a20 20 0 0 0-1-29z m111 0a19 19 0 0 0-14-5 20 20 0 0 0-13 5l-56 56v0l-28 28h0l-55 55a20 20 0 0 0 0 28 19 19 0 0 0 27 0h0l69-73h0l69-69a20 20 0 0 0 0-26z m14 69l-41 42 55 55 39-44z m-43 206l-297 297-25 108 128-129a20 20 0 0 1 28 0 20 20 0 0 1 0 28l-129 128 108-25 297-297h0l139-138h0l68-69-42-42-329 331a19 19 0 0 1-28-28l330-329-41-42z m303-221l0 0-56-55a20 20 0 0 0-14-6 19 19 0 0 0-13 6 19 19 0 0 0 0 28h0l69 67h0l69 69h0a19 19 0 0 0 28 0 19 19 0 0 0 5-14 20 20 0 0 0-5-14l-56-55h0z m55-55h0a20 20 0 0 0-27 0 20 20 0 0 0-6 14 19 19 0 0 0 5 13l28 28a19 19 0 0 0 33-14 19 19 0 0 0-5-14h0l-28-27z m56-56a20 20 0 0 0-28 0 19 19 0 0 0 0 28l28 28h0a19 19 0 0 0 14 6 19 19 0 0 0 14-6 20 20 0 0 0 0-28h0z m28-55a18 18 0 0 0-6 13 19 19 0 0 0 6 14h0l28 28a19 19 0 0 0 13 6 18 18 0 0 0 14-6 19 19 0 0 0 6-14 19 19 0 0 0-6-14h0l-27-27a19 19 0 0 0-29 1z m139 0l-84-84a20 20 0 0 0-14-5 19 19 0 0 0-13 5 19 19 0 0 0 0 28l27 28h0l28 28 28 27a19 19 0 0 0 28 0 19 19 0 0 0 5-13 19 19 0 0 0-7-13z" horiz-adv-x="1000" />

<glyph glyph-name="audit" unicode="&#xe82f;" d="M73 437h23a15 15 0 0 1 0-4v-438h-16a28 28 0 0 1 0-56h828a28 28 0 0 1 0 56h-16v438s0 3 0 4h23a49 49 0 0 1 28 87l-433 320a28 28 0 0 1-33 0l-433-320a49 49 0 0 1 28-87z m445-442h-50v438s0 3 0 4h50a15 15 0 0 1 0-4v-438z m-212 0h-49v438s0 3 0 4h51a15 15 0 0 1 0-4z m-156 0v411h50v-411z m212 0v411h50v-411z m212 0v411h50v-411z m211 0v411h50v-411z m-54 438v-438h-50v438s0 3 0 4h50a15 15 0 0 1 0-4z m-237 355l399-295h-798z m466-882h-932a28 28 0 0 1 0-56h932a28 28 0 1 1 0 56z" horiz-adv-x="988" />

<glyph glyph-name="lightning" unicode="&#xe831;" d="M814 489a46 46 0 0 1-41 28h-250l166 263a45 45 0 0 1 2 46 46 46 0 0 1-40 24h-272a45 45 0 0 1-40-23l-333-575a46 46 0 0 1 0-46 45 45 0 0 1 40-23h273l-75-276a46 46 0 0 1 23-52 44 44 0 0 1 21-5 46 46 0 0 1 35 16l485 576a45 45 0 0 1 6 47z m-428-406l37 134a45 45 0 0 1-44 57h-255l281 485h164l-167-263a45 45 0 0 1 38-70h235z" horiz-adv-x="818" />
</font>
</defs>
</svg>
