<svg xmlns="http://www.w3.org/2000/svg" viewBox="0 0 40 40"><defs><style>.cls-1{fill:blue;}</style></defs><title>bluza</title><g id="Layer_2" data-name="Layer 2"><g id="Grafiki"><path class="cls-1" d="M20,8.79a2.8,2.8,0,0,0-2.8,2.8c0,.74,1.24,2.54,2.8,4.35,1.56-1.81,2.76-3.62,2.8-4.35A2.8,2.8,0,0,0,20,8.79Z"/><path class="cls-1" d="M0,0V40H40V0ZM31.2,34,27,25.6V34H13V25.6L8.8,34H6l4.19-15.4,6.33-2.49c-1.14-1.53-2.13-3.21-2.13-4.51a5.6,5.6,0,0,1,11.2,0c0,1.3-1,3-2.12,4.51L29.8,18.6,34,34Z"/></g></g></svg>