<svg xmlns="http://www.w3.org/2000/svg" viewBox="0 0 40 40"><defs><style>.cls-1{fill:blue;}</style></defs><title>org-wspierajaca</title><g id="Layer_2" data-name="Layer 2"><g id="Grafiki"><path class="cls-1" d="M6.91,22.2a.74.74,0,0,0,.73-.74.74.74,0,0,0-.75-.73h0a.73.73,0,0,0-.71.74h0A.73.73,0,0,0,6.91,22.2Z"/><path class="cls-1" d="M33.12,22.2a.74.74,0,1,0,0-1.47h0a.74.74,0,0,0-.72.74h0A.73.73,0,0,0,33.12,22.2Z"/><path class="cls-1" d="M0,0V40H40V0ZM9.08,23.65H4.71V12H9.08ZM28.28,25a1.55,1.55,0,0,1-2.18.15l-2.82-4.42a.71.71,0,0,0-.69-.34.85.85,0,0,0-.31.09A.78.78,0,0,0,22,21.52l2.89,4.6a1.81,1.81,0,0,1-.18.21,1.37,1.37,0,0,1-1.92-.06L20.32,22.5a.79.79,0,0,0-.68-.34.85.85,0,0,0-.24.09.77.77,0,0,0-.31,1l2.53,3.89c-.38.62-1.62.82-2,.12l-2-3.32a.75.75,0,0,0-.95-.23.74.74,0,0,0-.3,1l1.41,2.54a2.37,2.37,0,0,1-1.46.72,1.73,1.73,0,0,1-1.48-.94l-3.25-4.87H10.54V13.46h6.9l-1.92,1.61a3.18,3.18,0,0,0-1.34,2.37,2.86,2.86,0,0,0,.74,2,3.61,3.61,0,0,0,2.51.94.69.69,0,0,0,.37-.1l6-3.3,4.7,7.68A1.46,1.46,0,0,1,28.28,25Zm1.16-2.83h-.83l-4-6.58a.75.75,0,0,0-.94-.25l-6.35,3.53A2,2,0,0,1,16,18.39a1.31,1.31,0,0,1-.35-.94c0-.32.24-.74.84-1.26l4.78-4,5.3,1.24h2.88Zm5.85,1.49H30.92V12h4.37Z"/></g></g></svg>