<svg xmlns="http://www.w3.org/2000/svg" viewBox="0 0 40 40"><defs><style>.cls-1{fill:blue;}</style></defs><title>skarpetki</title><g id="Layer_2" data-name="Layer 2"><g id="Grafiki"><path class="cls-1" d="M0,0V40H40V0ZM27.83,30.25l-4.62,1h0a4.55,4.55,0,0,1-.11-1,4.73,4.73,0,0,1,4.73-4.72,4.94,4.94,0,0,1,1,.11ZM29.1,24.4h0a6.17,6.17,0,0,0-1.27-.14,6,6,0,0,0-6,6A6.57,6.57,0,0,0,22,31.51L13.15,33.4a5.41,5.41,0,0,1-1,.1,4.66,4.66,0,0,1-1.32-9.12l8.74-2.57L21.7,11.1l9.81,2.16h0ZM31.78,12,22,9.85h0L22.6,6.5l9.88,2.32Z"/></g></g></svg>