<svg height="512pt" viewBox="0 -137 512.00002 512" width="512pt" xmlns="http://www.w3.org/2000/svg"><path d="m494.933594 68.265625h-8.53125v-25.597656c-.03125-23.554688-19.117188-42.6406252-42.667969-42.667969h-375.46875c-23.550781.0273438-42.636719 19.113281-42.664063 42.667969v25.597656h-8.535156c-9.425781 0-17.066406 7.640625-17.066406 17.066406v68.269531c0 9.425782 7.640625 17.066407 17.066406 17.066407h8.535156v42.664062c0 14.140625 11.460938 25.601563 25.597657 25.601563h121.847656c7.355469.011718 13.886719-4.691406 16.214844-11.664063l11.230469-33.699219c1.15625-3.476562 4.40625-5.828124 8.070312-5.835937h94.875c3.671875 0 6.9375 2.351563 8.097656 5.835937l11.222656 33.691407c2.320313 6.972656 8.84375 11.675781 16.195313 11.671875h121.847656c14.136719 0 25.597657-11.460938 25.597657-25.601563v-42.664062h8.535156c9.425781 0 17.066406-7.640625 17.066406-17.066407v-68.269531c0-9.425781-7.640625-17.066406-17.066406-17.066406zm-426.667969-51.199219h375.46875c10.808594.046875 20.425781 6.875 24.027344 17.066406h-423.523438c3.601563-10.191406 13.21875-17.019531 24.027344-17.066406zm-51.199219 136.535156v-68.269531h8.535156v68.269531zm34.132813 68.265626c-4.710938 0-8.53125-3.820313-8.53125-8.535157h133.230469l-2.851563 8.535157zm252.238281-51.199219h-94.875c-11 .015625-20.761719 7.0625-24.242188 17.5l-2.738281 8.097656h-138.914062v-145.066406h426.664062v145.066406h-138.914062l-2.703125-8.097656c-3.484375-10.449219-13.261719-17.496094-24.277344-17.5zm157.363281 51.199219h-121.847656l-2.851563-8.535157h133.230469c0 4.714844-3.820312 8.535157-8.53125 8.535157zm34.132813-68.265626h-8.53125v-68.269531h8.53125zm0 0"/><path d="m230.398438 115.933594-17.066407 17.066406-17.066406-17.066406v-47.667969h-17.066406v51.199219c0 2.265625.898437 4.433594 2.5 6.035156l25.601562 25.601562c3.332031 3.328126 8.734375 3.328126 12.066407 0l25.597656-25.601562c1.601562-1.601562 2.5-3.769531 2.503906-6.035156v-51.199219h-17.070312zm0 0"/><path d="m332.800781 136.535156c-.007812-6.945312-2.84375-13.582031-7.859375-18.382812 11.125-12.082032 10.355469-30.894532-1.726562-42.019532-5.523438-5.089843-12.769532-7.898437-20.28125-7.867187h-29.867188c-4.710937 0-8.53125 3.820313-8.53125 8.535156v76.800781h17.066406v-25.601562h25.597657c4.714843 0 8.535156 3.820312 8.535156 8.535156v17.066406h17.066406zm-51.199219-25.601562v-25.601563h21.332032c7.070312 0 12.800781 5.730469 12.800781 12.800781 0 7.070313-5.730469 12.800782-12.800781 12.800782zm0 0"/></svg>