<?xml version="1.0" standalone="no"?>
<!DOCTYPE svg PUBLIC "-//W3C//DTD SVG 20010904//EN"
 "http://www.w3.org/TR/2001/REC-SVG-20010904/DTD/svg10.dtd">
<svg version="1.0" xmlns="http://www.w3.org/2000/svg"
 width="852.000000pt" height="852.000000pt" viewBox="0 0 852.000000 852.000000"
 preserveAspectRatio="xMidYMid meet">
<metadata>
Created by potrace 1.11, written by Peter Selinger 2001-2013
</metadata>
<g transform="translate(0.000000,852.000000) scale(0.100000,-0.100000)"
fill="#000000" stroke="none">
<path d="M4217 8114 c-1 -1 -40 -4 -87 -8 -47 -4 -96 -8 -110 -10 -14 -3 -43
-7 -65 -10 -22 -2 -60 -9 -85 -15 -25 -5 -56 -12 -70 -14 -50 -9 -197 -51
-235 -67 -11 -5 -37 -14 -58 -20 -22 -7 -51 -18 -65 -26 -15 -8 -31 -14 -35
-14 -14 0 -242 -113 -245 -122 -2 -4 -9 -8 -14 -8 -12 0 -253 -157 -278 -181
-8 -8 -31 -26 -50 -40 -110 -82 -285 -264 -399 -414 -33 -44 -65 -85 -71 -92
-5 -7 -10 -14 -10 -17 0 -3 -13 -25 -30 -49 -16 -25 -30 -50 -30 -56 0 -6 -3
-11 -7 -11 -5 0 -13 -10 -19 -23 -6 -12 -34 -67 -63 -122 -28 -55 -51 -106
-51 -112 0 -7 -4 -13 -8 -13 -4 0 -13 -17 -19 -37 -7 -21 -30 -90 -53 -153
-22 -63 -43 -131 -46 -150 -3 -19 -8 -39 -11 -43 -3 -5 -7 -23 -10 -40 -7 -41
-11 -62 -13 -62 -3 0 -14 -66 -35 -220 -2 -16 -7 -47 -10 -67 -11 -79 -14
-105 -21 -165 l-6 -61 53 5 c112 10 228 5 309 -13 14 -3 34 -8 45 -10 58 -11
160 -40 173 -48 11 -6 17 16 27 94 4 25 8 56 10 70 2 14 6 45 10 70 3 25 8 56
10 70 5 29 15 96 19 125 2 11 6 34 10 50 3 17 9 40 11 53 9 42 14 57 36 127
13 39 23 72 24 75 38 127 207 418 310 535 114 129 291 285 400 352 251 155
537 255 796 278 82 8 312 8 346 1 12 -3 46 -7 75 -10 92 -10 305 -61 326 -78
6 -6 12 -8 12 -5 0 18 350 -150 404 -194 6 -5 48 -37 94 -70 45 -34 122 -101
171 -148 89 -88 211 -231 211 -249 0 -6 4 -12 9 -14 27 -10 156 -253 204 -383
36 -98 40 -109 43 -120 1 -5 10 -37 19 -70 9 -33 19 -78 21 -100 3 -21 7 -42
9 -45 25 -40 25 -557 1 -599 -2 -3 -6 -28 -10 -56 -3 -27 -8 -68 -11 -90 -3
-22 -8 -53 -10 -70 -2 -16 -4 -31 -6 -32 -1 -2 -2 -9 -3 -15 -1 -10 -424 -13
-2076 -14 -1141 -1 -2090 -4 -2107 -8 -18 -3 -48 -8 -65 -12 -128 -21 -321
-108 -433 -194 -25 -20 -166 -160 -185 -185 -52 -69 -145 -239 -153 -281 -2
-11 -7 -26 -10 -34 -28 -74 -42 -144 -51 -260 -2 -25 -4 -50 -5 -56 -1 -7 -34
-38 -74 -70 -39 -33 -74 -61 -77 -64 -3 -3 -30 -25 -60 -50 -30 -25 -60 -49
-67 -55 -7 -5 -18 -15 -25 -20 -7 -6 -38 -31 -68 -56 -30 -25 -146 -121 -257
-213 l-203 -168 -1 -106 c-1 -59 -1 -110 -1 -113 2 -12 4 -613 3 -664 0 -37
-2 -301 -1 -352 0 -57 3 -65 33 -92 17 -17 36 -31 41 -31 5 0 14 -6 20 -13 6
-7 74 -60 151 -118 77 -57 146 -110 154 -117 8 -8 30 -24 50 -37 39 -26 196
-145 221 -168 8 -7 31 -24 50 -38 19 -13 42 -29 50 -36 8 -6 26 -20 39 -31 22
-17 24 -27 27 -118 3 -89 8 -134 29 -242 16 -85 81 -228 148 -328 149 -222
378 -375 647 -432 81 -18 199 -18 2440 -17 1655 2 2371 6 2410 13 91 18 101
21 154 38 28 10 52 17 53 16 9 -5 200 105 258 148 33 24 195 191 195 200 0 5
6 15 14 23 25 25 109 183 121 227 1 3 4 12 8 20 35 86 56 208 62 351 1 41 3
77 4 81 0 4 45 42 99 85 53 43 102 82 109 88 7 5 19 15 27 22 8 7 63 52 123
100 59 48 113 92 119 98 6 5 28 24 50 40 21 17 70 56 108 88 90 74 102 84 157
128 l45 37 -1 650 0 650 -25 22 c-14 12 -34 29 -45 38 -11 10 -36 28 -55 42
-19 13 -40 29 -47 35 -6 5 -62 48 -123 95 -62 47 -147 112 -190 145 -43 33
-88 67 -101 75 -12 8 -29 23 -38 33 -8 9 -21 17 -27 17 -7 0 -14 4 -16 8 -1 5
-41 38 -88 75 -79 60 -86 68 -88 104 -11 195 -68 371 -170 526 -46 71 -184
218 -251 267 -76 57 -265 148 -340 164 -82 18 -82 18 -77 45 5 24 11 65 20
138 2 15 7 46 10 68 15 101 19 163 20 345 1 177 -3 248 -19 350 -3 19 -7 49
-9 65 -2 17 -11 62 -21 100 -9 39 -18 79 -21 90 -9 45 -54 186 -87 272 -75
193 -222 455 -329 588 -5 6 -17 21 -29 35 -103 128 -246 273 -359 363 -47 38
-92 74 -100 80 -82 67 -382 236 -490 277 -19 7 -48 19 -65 25 -44 19 -147 55
-170 60 -11 3 -65 16 -120 29 -55 14 -114 27 -130 30 -17 3 -41 8 -55 11 -14
3 -45 7 -70 10 -25 2 -70 7 -100 11 -50 6 -327 13 -333 8z m2396 -3242 c97
-18 110 -23 217 -75 108 -53 192 -122 266 -221 39 -51 104 -169 111 -201 1 -5
9 -35 17 -65 8 -30 18 -77 21 -105 4 -43 6 -2772 2 -2892 -1 -24 -4 -43 -7
-43 -3 0 -6 -15 -7 -33 -2 -40 -42 -159 -57 -169 -6 -4 -8 -8 -3 -8 7 0 -20
-60 -32 -70 -3 -3 -18 -23 -32 -45 -33 -51 -130 -148 -187 -187 -82 -56 -202
-107 -297 -125 -52 -10 -4675 -10 -4740 1 -64 9 -182 49 -231 77 -22 12 -49
28 -62 34 -44 24 -140 111 -186 170 -94 119 -151 259 -162 394 -8 98 -8 2794
0 2886 7 83 11 106 28 154 7 20 13 38 13 41 2 8 54 114 67 135 115 183 317
318 524 351 21 3 41 8 43 10 2 2 1046 2 2320 0 1606 -2 2334 -7 2374 -14z"/>
<path d="M2285 3980 c-45 -17 -49 -32 -51 -228 -1 -103 -2 -188 -3 -190 0 -2
-49 23 -108 54 -213 114 -223 117 -264 85 -27 -21 -66 -92 -75 -138 -7 -37 14
-59 100 -104 170 -88 185 -98 173 -107 -7 -5 -46 -26 -87 -47 -195 -99 -201
-107 -150 -208 62 -124 65 -124 358 34 29 16 54 29 56 29 1 0 1 -66 1 -147 -2
-204 8 -219 140 -215 95 3 100 12 100 187 1 79 3 147 6 149 3 3 16 -1 29 -8
143 -75 265 -138 268 -138 36 17 62 35 62 46 0 8 4 16 8 18 16 7 52 80 52 107
0 47 -2 48 -187 146 -51 27 -93 51 -93 55 0 3 52 33 116 66 194 99 207 122
140 232 -55 90 -63 90 -241 -2 -81 -42 -149 -76 -153 -76 -4 0 -7 79 -6 176 1
168 -1 178 -21 202 -19 22 -31 26 -86 28 -35 1 -73 -1 -84 -6z"/>
<path d="M4214 3977 c-10 -6 -23 -17 -29 -26 -5 -9 -12 -101 -15 -204 l-5
-188 -65 34 c-36 19 -105 55 -153 81 -49 25 -98 46 -110 46 -31 -1 -61 -28
-92 -85 -51 -93 -42 -116 65 -171 30 -16 57 -32 58 -36 2 -4 11 -8 20 -8 10 0
28 -9 42 -20 14 -11 33 -20 43 -20 41 0 9 -28 -85 -75 -128 -63 -158 -87 -158
-127 0 -29 36 -109 53 -116 4 -2 7 -8 7 -14 0 -16 32 -37 55 -38 11 0 36 8 55
19 19 10 88 46 153 79 l117 62 1 -155 c1 -85 2 -158 4 -162 12 -45 38 -56 123
-55 106 2 112 12 112 202 0 77 2 140 4 140 3 0 46 -23 98 -51 112 -60 172 -89
198 -94 38 -7 121 103 123 163 1 44 -16 58 -158 132 -66 34 -123 65 -128 69
-4 4 43 34 105 66 211 109 214 112 166 203 -34 65 -70 102 -100 102 -19 0
-176 -78 -205 -102 -7 -6 -13 -8 -13 -4 0 3 -18 -5 -40 -19 -22 -14 -42 -25
-45 -25 -3 0 -5 81 -5 180 0 167 -1 181 -20 200 -23 23 -18 22 -96 25 -34 1
-70 -2 -80 -8z"/>
<path d="M6122 3965 l-27 -23 -1 -189 c-1 -103 -2 -190 -3 -192 0 -2 -8 2 -16
9 -8 7 -15 10 -15 6 0 -3 -21 7 -47 22 -27 16 -63 35 -80 43 -18 7 -33 17 -33
21 0 5 -9 8 -20 8 -11 0 -20 3 -20 8 0 15 -90 44 -117 37 -24 -6 -66 -47 -53
-51 3 -1 -2 -10 -10 -20 -60 -74 -54 -121 20 -160 19 -11 37 -21 40 -24 3 -3
44 -25 93 -50 48 -24 87 -48 87 -51 0 -4 -17 -15 -37 -26 -197 -100 -233 -125
-233 -163 0 -10 14 -44 31 -76 63 -120 64 -120 332 24 43 23 79 42 80 42 1 0
2 -64 2 -142 -1 -173 1 -183 32 -203 35 -24 138 -25 174 -3 32 20 31 13 33
188 0 69 5 127 9 129 9 3 69 -19 77 -29 3 -3 52 -30 110 -59 96 -48 108 -51
133 -40 15 7 27 16 27 20 0 4 6 14 13 21 24 25 57 96 57 122 0 14 -9 34 -20
44 -23 19 -176 104 -232 128 -45 19 -40 26 52 73 152 77 176 91 193 112 25 31
21 70 -15 133 -31 53 -65 79 -98 73 -16 -3 -167 -79 -240 -121 -25 -14 -49
-26 -55 -26 -6 0 -10 67 -10 180 -1 171 -2 181 -23 202 -17 18 -35 22 -92 24
-62 2 -75 -1 -98 -21z"/>
<path d="M4117 2394 c-1 -1 -123 -5 -272 -8 -148 -4 -306 -9 -350 -11 -44 -2
-132 -7 -195 -10 -63 -3 -151 -8 -195 -10 -94 -5 -237 -14 -315 -21 -30 -2
-91 -6 -135 -9 -87 -5 -187 -13 -250 -20 -22 -2 -76 -7 -120 -10 -44 -4 -98
-9 -120 -11 -22 -2 -71 -6 -110 -9 -38 -2 -90 -6 -115 -9 -25 -3 -79 -8 -120
-12 -41 -3 -78 -9 -82 -13 -6 -5 -12 -839 -9 -1094 1 -35 3 -37 29 -32 42 7
113 14 327 30 44 4 98 9 120 11 22 2 69 6 105 9 36 3 88 7 115 10 95 8 190 15
275 20 47 3 105 7 130 10 25 2 95 7 155 10 61 3 137 8 170 10 56 4 183 11 385
21 47 2 193 6 325 9 132 2 242 5 245 6 14 3 174 -2 181 -6 4 -3 10 -1 14 5 4
6 11 8 16 5 5 -4 111 -8 237 -11 247 -4 367 -9 752 -30 207 -11 247 -13 310
-18 36 -3 103 -8 150 -11 223 -14 215 -14 395 -30 84 -7 200 -16 265 -20 30
-2 55 -4 55 -5 0 -1 23 -3 50 -4 28 -2 84 -7 125 -11 41 -4 84 -8 95 -9 20 -1
20 5 20 562 0 310 -2 565 -5 567 -3 1 -43 6 -90 9 -47 4 -103 9 -125 11 -36 4
-78 8 -260 20 -66 4 -185 14 -262 21 -64 6 -121 10 -278 19 -49 3 -112 7 -140
9 -133 10 -229 17 -320 21 -142 7 -286 15 -390 20 -157 7 -784 22 -788 19z
m508 -233 c0 -1 52 -4 115 -6 133 -5 300 -14 555 -30 44 -3 112 -8 151 -10 74
-5 164 -12 274 -21 36 -3 88 -7 115 -9 28 -2 70 -6 95 -9 25 -3 81 -8 125 -11
44 -2 103 -7 130 -11 28 -3 73 -7 100 -9 47 -3 142 -12 212 -20 18 -2 36 -6
40 -8 6 -4 10 -590 4 -655 -1 -14 -2 -14 -146 4 -16 2 -57 6 -90 8 -33 3 -80
7 -105 10 -46 6 -126 14 -215 21 -27 3 -72 7 -100 9 -27 3 -88 8 -135 11 -47
3 -101 8 -120 10 -76 9 -243 20 -645 40 -478 25 -1101 25 -1590 1 -220 -11
-467 -27 -630 -41 -183 -16 -263 -23 -320 -30 -22 -3 -65 -7 -95 -10 -30 -3
-70 -7 -89 -10 -18 -3 -59 -8 -90 -11 -60 -6 -77 -8 -158 -19 l-52 -7 2 337 2
338 35 3 c19 2 60 6 90 8 30 3 71 7 90 10 19 2 67 7 105 11 39 4 88 8 110 10
22 2 65 7 95 9 30 3 78 8 105 10 28 3 82 8 120 11 39 3 95 7 125 10 96 8 203
17 260 20 30 2 98 6 150 9 191 12 248 15 395 21 82 3 150 7 152 8 2 3 828 1
828 -2z"/>
</g>
</svg>
