<svg xmlns="http://www.w3.org/2000/svg" xmlns:xlink="http://www.w3.org/1999/xlink" viewBox="0 0 47.088 49.554">
  <defs>
    <style>
      .cls-1 {
        fill: #00d3eb;
      }

      .cls-2 {
        clip-path: url(#clip-path);
      }
    </style>
    <clipPath id="clip-path">
      <path id="Path_1929" data-name="Path 1929" class="cls-1" d="M0-603.246H47.088v49.554H0Z" transform="translate(0 603.246)"/>
    </clipPath>
  </defs>
  <g id="Group_3248" data-name="Group 3248" transform="translate(0 603.246)">
    <g id="Group_3247" data-name="Group 3247" class="cls-2" transform="translate(0 -603.246)">
      <g id="Group_3245" data-name="Group 3245" transform="translate(23.951 29.24)">
        <path id="Path_1924" data-name="Path 1924" class="cls-1" d="M-128.772-150.356c-3.575,0-6.958-2.068-9.57-5.836a15.247,15.247,0,0,1,4.3-4.323,5.588,5.588,0,0,0-.513,2.333,5.637,5.637,0,0,0,5.631,5.631,5.638,5.638,0,0,0,5.631-5.631,5.591,5.591,0,0,0-.711-2.731,14.619,14.619,0,0,1,4.887,4.594c-2.624,3.848-6.042,5.962-9.658,5.962m-1.011-11.728a9.279,9.279,0,0,1,1.1-.071l.061,0a3.993,3.993,0,0,1,3.7,3.971,4.005,4.005,0,0,1-4,4,4.005,4.005,0,0,1-4-4,4,4,0,0,1,3.139-3.9m12.331,5.316c-2.862-4.372-6.683-6.839-10.8-7a5.667,5.667,0,0,0-.669-.043,5.607,5.607,0,0,0-1.166.123c-3.745.484-7.194,2.895-9.83,6.921l-.38.579.293.447c2.962,4.524,6.95,7.016,11.232,7.016s8.271-2.492,11.233-7.016l.38-.579Z" transform="translate(140.297 163.812)"/>
      </g>
      <path id="Path_1925" data-name="Path 1925" class="cls-1" d="M156.22-498.543h16.3v8.15h-16.3Zm17.93-1.63H154.59v11.41h19.56Z" transform="translate(-141.891 508.64)"/>
      <path id="Path_1926" data-name="Path 1926" class="cls-1" d="M204.2-458.858h11.41v-1.63H204.2Z" transform="translate(-187.422 472.215)"/>
      <path id="Path_1927" data-name="Path 1927" class="cls-1" d="M204.2-419.172h11.41v-1.63H204.2Z" transform="translate(-187.422 435.789)"/>
      <g id="Group_3246" data-name="Group 3246" transform="translate(0 0)">
        <path id="Path_1928" data-name="Path 1928" class="cls-1" d="M-25.7-522.259v-43.927a.514.514,0,0,1,.513-.513h4.181v44.954h-4.181a.514.514,0,0,1-.513-.513m6.324-44.441H8.311v23.247h.023v.035h1.63v-.035h.647V-569h-35.8A2.816,2.816,0,0,0-28-566.187v43.927a2.816,2.816,0,0,0,2.813,2.813H3.444v-2.3h-22.82Z" transform="translate(28 569)"/>
      </g>
    </g>
  </g>
</svg>
