<svg xmlns="http://www.w3.org/2000/svg" viewBox="0 0 78.65 70.76"><defs><style>.cls-1{fill:#fff;}.cls-2{fill:none;stroke:#fff;stroke-linecap:round;stroke-linejoin:round;stroke-width:0.75px;}</style></defs><title>niebezpiecznik</title><g id="Warstwa_2" data-name="Warstwa 2"><g id="Long_Page_cz.1" data-name="Long Page cz.1"><rect class="cls-1" x="69.72" y="63.69" width="2.68" height="1.17"/><polygon class="cls-1" points="17.65 64.86 17.65 63.68 15.87 63.69 15.87 63.69 15.87 64.86 17.65 64.86"/><rect class="cls-1" x="15.87" y="66.04" width="2.68" height="1.18"/><rect class="cls-1" x="32.01" y="63.69" width="2.68" height="1.17"/><path class="cls-1" d="M76.68,60.13H2a2,2,0,0,0-2,2H0v6.68a2,2,0,0,0,2,2h74.7a2,2,0,0,0,2-2V62.11a2,2,0,0,0-2-2ZM4.32,64.85H3.43v3.49H2.54V62.51h.89v1.17h.89ZM7,68.34H6.12V67.18H5.23V66H4.32V64.85h.9V66h.9V62.51H7Zm1.68,0h-.9V62.53h.9Zm5.38-4.68H10.49v1.17h1.78V66H10.49v1.17h3.58v1.16H9.59V62.53h4.48Zm5.38,4.68H15V62.53h3.58v2.31h.91Zm5.38-4.68H21.25v1.17H23V66H21.25v1.17h3.58v1.16H20.35V62.53h4.48Zm5.38,4.68H25.73V67.21h.9V66h.9V64.86h.89V66h-.89v1.17h2.68Zm0-4.68h-.9v1.17h-.9V63.69H25.73V62.53h4.48ZM35.59,66H32v2.33h-.9V62.53h4.48Zm1.8,2.33h-.9V62.53h.9Zm5.38-4.68H39.19v1.17H41V66H39.19v1.17h3.58v1.16H38.29V62.53h4.48Zm5.38,0H44.56v3.52h3.59v1.15H43.67V62.53h4.48Zm5.39,4.68H49.06V67.21H50V66h.9v1.17h2.69ZM50.85,66V64.86h.89V66Zm2.69-2.35h-.9v1.17h-.9V63.69H49.06V62.53h4.48Zm2.74,1.17h-.89v3.52H54.5V62.52h.89V63.7h.89ZM57.19,66h-.91V64.86h.91ZM59,68.38h-.89V67.21h-.89V66h.89V62.52H59Zm1.75,0h-.9V62.53h.9ZM64.31,66h-1.8v2.33h-.89V62.53h.89v2.33h1.8Zm1.79,2.33h-.9V67.21h-.89V66h.89v1.17h.9Zm0-4.68h-.9v1.17h-.89V63.69h.89V62.53h.9Zm1.75,4.68H67V67.22h.9ZM73.3,66H69.72v2.33h-.9V62.53H73.3Zm4,2.34H74.2V62.53h.9v4.68h2.22Z"/><path id="path14" class="cls-2" d="M52.92.38V16.47h4V.38Zm4,16.09v4h4v8.05H57v-4h-4v-4h-4v-4h-4V12.78h-4v3.69H28.78V12.78h-4v3.69h-4v4h-4v4h-4v4h-4V44.64h4V32.57h4V44.65h4v8h-4v4h8v-8H44.88v8h8v-4h-4v-8h4V32.57h8V56.71h4V32.57h4v-8H65v-4h4v-4h4V.38H69V16.47H65V.38H61V16.47Zm-32.2-3.69v-4h-4v4Zm20.13,0h4v-4h-4ZM24.75,20.5h4v4h4v4h-8Zm16.11,0h4v8.05H36.83v-4h4ZM24.75,32.57h4v4h4v-4h4v4h4v-4h4v4h4v4h-4v4H36.83v-4h-4v4h-8v-4h-4v-4h4v-4Z"/></g></g></svg>