<svg xmlns="http://www.w3.org/2000/svg" viewBox="0 0 153.98 55"><defs><style>.cls-1{fill:#636363;}.cls-2{fill:#fff;}</style></defs><title>owasp</title><g id="Warstwa_2" data-name="Warstwa 2"><g id="Long_Page_cz.1" data-name="Long Page cz.1"><path class="cls-1" d="M23.63,45.7A21.86,21.86,0,0,0,45.47,23.84H1.77A21.86,21.86,0,0,0,23.63,45.7Z"/><path class="cls-2" d="M23.6,0A23.6,23.6,0,1,0,47.19,23.6h0A23.59,23.59,0,0,0,23.6,0Zm0,43.56a20,20,0,1,1,20-20h0A20,20,0,0,1,23.6,43.56Z"/><path class="cls-2" d="M31.41,40.21c.4-1,.54-6.29-.1-11.35C30.9,25.78,30.39,23,30,21a1.88,1.88,0,0,0,.3-.12l.94,2s1.81,1.57,1.94,1.4-1.43-1.52-1.6-1.65l-.4-1.19.49.56a13.94,13.94,0,0,0,2.89.56c.07-.2-2.45-.91-2.63-1s-.3-.59-.63-1.17l1.55.61s2.61-.27,2.57-.49-2.14,0-2.4.1l-1.55-1a2.84,2.84,0,0,0,0-2,2.31,2.31,0,0,0,2.63-.18,1.78,1.78,0,0,0,.41-.7.89.89,0,0,0,.49-.25,1,1,0,0,0-.68-1.63,5.5,5.5,0,0,1,1.7-.62,5.33,5.33,0,0,1,1.69.76.15.15,0,0,0,.21,0,.16.16,0,0,0,0-.21l0,0A5.55,5.55,0,0,0,36,13.93a5.77,5.77,0,0,0-1.87.66,4.44,4.44,0,0,0-1.72-1.72A6,6,0,0,0,33.09,11a6,6,0,0,0-.81-1.82.15.15,0,0,0-.2-.07.14.14,0,0,0-.07.2l0,0A5.33,5.33,0,0,1,32.79,11a5.5,5.5,0,0,1-.62,1.7,1,1,0,0,0-1.63-.68.89.89,0,0,0-.25.49,1.78,1.78,0,0,0-.7.41,2.31,2.31,0,0,0-.18,2.63,2.84,2.84,0,0,0-2-.05L26.4,14c.05-.27.29-2.36.09-2.4A11.21,11.21,0,0,0,26,14.16l.6,1.55c-.57-.33-1-.51-1.17-.63s-.77-2.69-1-2.63A14.09,14.09,0,0,0,25,15.34l.55.49-1.19-.4c-.12-.17-1.48-1.72-1.65-1.6s1.41,1.94,1.41,1.94l2,.94A1.82,1.82,0,0,0,26,17c-1.93-.37-4.76-.88-7.85-1.29-5.05-.65-10.35-.51-11.35-.1s4.66,3.62,6.17,4a11.48,11.48,0,0,0,4.55.56c1.21-.14,1.81-1.31,3.44-1.38.5,0,3-.27,5-.48a3.46,3.46,0,0,0,.69,1.43c-1.79-1.33-3.92.63-6.77,3.47-3,3-5.82,9.72-5.82,9.72s6.7-2.8,9.72-5.82c2.84-2.85,4.8-5,3.47-6.77a3.27,3.27,0,0,0,1.45.67c-.21,2-.46,4.49-.48,5-.07,1.63-1.24,2.23-1.38,3.43A11.26,11.26,0,0,0,27.4,34C27.79,35.54,31,41.2,31.41,40.21Z"/><path class="cls-2" d="M55.69,44.38c-2,0-2.24-.62-2.24-1.55V40.05c0-.92.23-1.55,2.24-1.55s2.25.63,2.25,1.55v2.78C58,43.76,57.71,44.38,55.69,44.38Zm1.56-4.25c0-.71-.12-1.07-1.56-1.07s-1.55.37-1.55,1.07v2.62c0,.71.12,1.09,1.55,1.09s1.56-.38,1.56-1.09Z"/><path class="cls-2" d="M62.89,42.93c0,.8-.24,1.45-1.77,1.45-.74,0-1.16-.22-1.34-.54v2.21h-.65V40.17h.54l.09.48c.15-.27.54-.54,1.35-.54,1.53,0,1.77.63,1.77,1.45ZM61,40.67c-1.12,0-1.24.34-1.24,1v1.13c0,.67.12,1,1.24,1s1.23-.34,1.23-1V41.68C62.24,41,62.14,40.67,61,40.67Z"/><path class="cls-2" d="M65.82,44.38c-1.71,0-1.94-.62-1.94-1.4V41.52c0-.78.23-1.41,1.94-1.41s1.92.63,1.92,1.41v.89H64.53v.49c0,.58.1,1,1.29,1s1.27-.38,1.27-.84h.65C67.74,43.74,67.52,44.38,65.82,44.38Zm0-3.77c-1.19,0-1.29.41-1.29,1v.28h2.56V41.6c0-.58-.09-1-1.27-1Z"/><path class="cls-2" d="M71.89,44.32V41.68c0-.67-.11-1-1.23-1-.91,0-1.23.31-1.23,1v2.6h-.64V40.17h.55l.09.48a1.46,1.46,0,0,1,1.35-.54c1.53,0,1.76.63,1.76,1.45v2.76Z"/><path class="cls-2" d="M79.86,38.57v4.17c0,.71.14,1.08,1.18,1.08s1.17-.38,1.17-1.08V38.57h.69v4.26c0,.93-.24,1.55-1.86,1.55a1.6,1.6,0,0,1-1.52-.67,1.62,1.62,0,0,1-1.52.67c-1.61,0-1.86-.62-1.86-1.55V38.57h.69v4.17c0,.71.12,1.08,1.17,1.08s1.17-.38,1.17-1.08V38.57Z"/><path class="cls-2" d="M86,44.38c-1.71,0-1.93-.62-1.93-1.4V41.52c0-.78.22-1.41,1.93-1.41s1.92.63,1.92,1.41v.89H84.67v.49c0,.58.11,1,1.29,1s1.27-.38,1.27-.84h.65C87.88,43.74,87.67,44.38,86,44.38Zm0-3.77c-1.18,0-1.29.41-1.29,1v.28h2.56V41.6c0-.58-.08-1-1.27-1Z"/><path class="cls-2" d="M90.93,44.38c-.81,0-1.21-.27-1.35-.54l-.1.48h-.55V38.57h.64v2.08a1.44,1.44,0,0,1,1.34-.54c1.53,0,1.77.63,1.77,1.45v1.36C92.69,43.74,92.45,44.38,90.93,44.38Zm1.12-2.69c0-.68-.11-1-1.23-1s-1.25.35-1.25,1v1.13c0,.67.12,1,1.24,1s1.23-.34,1.23-1Z"/><path class="cls-2" d="M100.7,44.32H100V42.19H96.94v2.13h-.69V40.05c0-.92.21-1.55,2.23-1.55s2.22.63,2.22,1.55ZM100,40.13c0-.71-.09-1.07-1.53-1.07s-1.54.37-1.54,1.07v1.46H100Z"/><path class="cls-2" d="M105.67,42.93c0,.8-.25,1.45-1.77,1.45-.75,0-1.17-.22-1.35-.54v2.21h-.64V40.17h.53l.1.48c.15-.27.54-.54,1.34-.54,1.53,0,1.77.63,1.77,1.45Zm-1.89-2.26c-1.12,0-1.24.34-1.24,1v1.13c0,.67.12,1,1.24,1s1.24-.34,1.24-1V41.68C105,41,104.89,40.67,103.78,40.67Z"/><path class="cls-2" d="M110.49,42.93c0,.8-.24,1.45-1.76,1.45-.75,0-1.17-.22-1.35-.54v2.21h-.64V40.17h.55l.09.48c.15-.27.54-.54,1.35-.54,1.52,0,1.76.63,1.76,1.45Zm-1.88-2.26c-1.12,0-1.24.34-1.24,1v1.13c0,.67.12,1,1.24,1s1.24-.34,1.24-1V41.68C109.85,41,109.73,40.67,108.61,40.67Z"/><path class="cls-2" d="M111.57,44.32V38.57h.66v5.75Z"/><path class="cls-2" d="M113.36,39.59v-.65H114v.65Zm0,4.73V40.17H114v4.15Z"/><path class="cls-2" d="M117,44.38c-1.7,0-1.88-.62-1.88-1.4V41.52c0-.78.18-1.41,1.88-1.41s1.89.63,1.89,1.41v.1h-.65c0-.58,0-1-1.24-1s-1.24.41-1.24,1V42.9c0,.58.06,1,1.24,1s1.24-.39,1.24-1v-.08h.65V43C118.85,43.76,118.67,44.38,117,44.38Z"/><path class="cls-2" d="M123.2,44.32l-.09-.48a2.08,2.08,0,0,1-1.7.54c-1.07,0-1.58-.54-1.58-1.22s.32-1.34,2-1.34h1.33V41.6c0-.68-.27-1-1.19-1s-1.23.23-1.23.61l-.65-.06c0-.7.64-1.06,1.88-1.06,1.44,0,1.84.54,1.84,1.41v2.8Zm-.09-2h-1.33c-1.15,0-1.3.48-1.3.81s.27.68,1,.68c1.08,0,1.6-.34,1.6-1Z"/><path class="cls-2" d="M127.48,44.24a3.5,3.5,0,0,1-1,.14c-.75,0-1.39-.28-1.39-1.14V40.69h-.53v-.52h.53v-1h.65v1h1.71v.52h-1.7V43.2c0,.49.33.67.82.67a3.83,3.83,0,0,0,.89-.13Z"/><path class="cls-2" d="M128.5,39.59v-.65h.64v.65Zm0,4.73V40.17h.64v4.15Z"/><path class="cls-2" d="M132.15,44.38c-1.73,0-1.94-.62-1.94-1.4V41.51c0-.79.21-1.4,1.94-1.4s1.92.61,1.92,1.4V43C134.07,43.76,133.86,44.38,132.15,44.38Zm1.27-2.78c0-.58-.08-1-1.27-1s-1.29.4-1.29,1v1.3c0,.58.09,1,1.29,1s1.27-.39,1.27-1Z"/><path class="cls-2" d="M138.24,44.32V41.68c0-.67-.11-1-1.24-1-.9,0-1.22.31-1.22,1v2.6h-.65V40.17h.55l.1.48c.17-.3.58-.54,1.34-.54,1.53,0,1.76.63,1.76,1.45v2.76Z"/><path class="cls-2" d="M55.64,53.23c-2,0-2.22-.63-2.22-1.55v-.46h.69v.38c0,.71.09,1.08,1.53,1.08s1.54-.38,1.54-1.08v-.1c0-.52-.27-.73-.79-.8l-1.78-.29a1.21,1.21,0,0,1-1.18-1.23V48.9c0-.93.22-1.55,2.23-1.55s2.22.62,2.22,1.55v.2h-.69V49c0-.71-.09-1.08-1.53-1.08s-1.54.38-1.54,1.08v.13c0,.39.14.62.65.7l1.91.32c.79.12,1.2.53,1.2,1.24v.31C57.87,52.6,57.65,53.23,55.64,53.23Z"/><path class="cls-2" d="M60.89,53.21c-1.71,0-1.93-.61-1.93-1.39V50.36c0-.79.22-1.41,1.93-1.41s1.92.62,1.92,1.41v.88H59.6v.48c0,.58.11,1,1.29,1s1.26-.38,1.28-.84h.64C62.81,52.58,62.6,53.21,60.89,53.21Zm0-3.76c-1.18,0-1.29.41-1.29,1v.29h2.57v-.29c0-.56-.1-1-1.28-1Z"/><path class="cls-2" d="M65.7,53.21c-1.71,0-1.89-.61-1.89-1.39V50.36c0-.79.18-1.41,1.89-1.41s1.88.62,1.88,1.41v.1h-.65c0-.58-.05-1-1.23-1s-1.25.41-1.25,1v1.28c0,.58.06,1,1.25,1s1.23-.39,1.23-1v-.08h.65v.17C67.58,52.6,67.4,53.21,65.7,53.21Z"/><path class="cls-2" d="M71.71,53.16l-.09-.48a1.43,1.43,0,0,1-1.31.54c-1.53,0-1.73-.63-1.73-1.45V49h.65v2.64c0,.68.08,1,1.2,1,.9,0,1.19-.31,1.19-1V49h.65v4.16Z"/><path class="cls-2" d="M75.26,49.48c-.89,0-1.22.3-1.22,1v2.64H73.4V49H74l.08.49A1.47,1.47,0,0,1,75.38,49a2.25,2.25,0,0,1,.81.12v.55A2.69,2.69,0,0,0,75.26,49.48Z"/><path class="cls-2" d="M77.16,48.43v-.65h.65v.65Zm0,4.73V49h.65v4.16Z"/><path class="cls-2" d="M81.63,53.07a3.48,3.48,0,0,1-1,.14c-.75,0-1.39-.28-1.39-1.14V49.52h-.55V49h.55V48h.65v1h1.69v.52H79.93V52c0,.49.32.67.82.67a4.34,4.34,0,0,0,.88-.12Z"/><path class="cls-2" d="M84.5,55c-1.65,0-1.85-.6-1.85-1.27h.65c0,.43.12.76,1.2.76s1.17-.35,1.17-.92v-.88a1.49,1.49,0,0,1-1.33.54c-1.52,0-1.73-.64-1.73-1.45V49h.64v2.64c0,.68.09,1,1.21,1s1.21-.34,1.21-1V49h.65v4.64C86.32,54.43,86.11,55,84.5,55Z"/><path class="cls-2" d="M92.61,51.5H90.69v1.66H90V47.41h2.61c1.41,0,1.84.62,1.84,1.55v1C94.45,50.88,94,51.5,92.61,51.5ZM93.76,49c0-.71-.32-1.08-1.15-1.08H90.69v3h1.92c.84,0,1.15-.38,1.15-1.08Z"/><path class="cls-2" d="M97.41,49.48c-.89,0-1.22.3-1.22,1v2.64h-.64V49h.55l.08.49A1.47,1.47,0,0,1,97.53,49a2.25,2.25,0,0,1,.81.12v.55A2.66,2.66,0,0,0,97.41,49.48Z"/><path class="cls-2" d="M101.15,53.21c-1.72,0-1.93-.61-1.93-1.39V50.35c0-.79.21-1.4,1.93-1.4s1.93.61,1.93,1.4v1.47C103.08,52.6,102.87,53.21,101.15,53.21Zm1.28-2.78c0-.58-.08-1-1.28-1s-1.28.39-1.28,1v1.3c0,.57.08,1,1.28,1s1.28-.4,1.28-1Z"/><path class="cls-2" d="M103.49,54.45c.38,0,.63-.18.63-.67V49h.65v4.81a1.05,1.05,0,0,1-1.2,1.15,4,4,0,0,1-.69-.07v-.5A3.08,3.08,0,0,0,103.49,54.45Zm.63-6v-.65h.65v.65Z"/><path class="cls-2" d="M107.75,53.21c-1.71,0-1.93-.61-1.93-1.39V50.36c0-.79.22-1.41,1.93-1.41s1.93.62,1.93,1.41v.88h-3.21v.48c0,.58.1,1,1.28,1s1.27-.38,1.28-.84h.65C109.68,52.58,109.46,53.21,107.75,53.21Zm0-3.76c-1.18,0-1.28.41-1.28,1v.29H109v-.29c0-.56-.1-1-1.28-1Z"/><path class="cls-2" d="M112.56,53.21c-1.71,0-1.88-.61-1.88-1.39V50.36c0-.79.18-1.41,1.88-1.41s1.88.62,1.88,1.41v.1h-.65c0-.58-.05-1-1.23-1s-1.24.41-1.24,1v1.28c0,.58.06,1,1.24,1s1.23-.39,1.23-1v-.08h.65v.17C114.44,52.6,114.26,53.21,112.56,53.21Z"/><path class="cls-2" d="M118.15,53.07a3.48,3.48,0,0,1-1,.14c-.75,0-1.39-.28-1.39-1.14V49.52h-.55V49h.55V48h.66v1h1.7v.52h-1.7V52c0,.49.32.67.82.67a4.34,4.34,0,0,0,.88-.12Z"/><path class="cls-2" d="M60,33.2c-7,0-7.85-2.18-7.85-5.46V18c0-3.24.81-5.45,7.85-5.45s7.88,2.21,7.88,5.45v9.75C67.88,31,67.06,33.2,60,33.2Zm5.47-14.94c0-2.48-.43-3.81-5.47-3.81s-5.43,1.33-5.43,3.81v9.21c0,2.49.42,3.82,5.43,3.82s5.47-1.33,5.47-3.82Z"/><path class="cls-2" d="M84.84,12.79V27.45c0,2.48.49,3.81,4.11,3.81s4.11-1.34,4.11-3.81V12.79h2.42v15c0,3.27-.85,5.45-6.52,5.45-3.23,0-4.68-1.34-5.32-2.36-.63,1-2.08,2.36-5.31,2.36-5.68,0-6.52-2.18-6.52-5.45v-15h2.42V27.45c0,2.48.42,3.81,4.1,3.81s4.11-1.34,4.11-3.81V12.79Z"/><path class="cls-2" d="M115.07,33h-2.42V25.5H101.9V33H99.48V18c0-3.24.75-5.45,7.79-5.45s7.8,2.21,7.8,5.45Zm-2.42-14.72c0-2.48-.33-3.81-5.38-3.81s-5.37,1.33-5.37,3.81v5.11h10.75Z"/><path class="cls-2" d="M126.71,33.22c-7,0-7.8-2.21-7.8-5.45V26.16h2.42V27.5c0,2.49.33,3.82,5.38,3.82s5.37-1.34,5.37-3.82v-.3c0-1.85-.9-2.58-2.74-2.88l-6.29-1c-2.86-.45-4.13-2.06-4.13-4.3V18c0-3.27.75-5.46,7.8-5.46s7.79,2.19,7.79,5.46v.69h-2.42v-.42c0-2.48-.33-3.82-5.37-3.82s-5.38,1.35-5.38,3.82v.49c0,1.33.48,2.15,2.27,2.45l6.7,1.09c2.75.45,4.2,1.85,4.2,4.36v1.09C134.5,31,133.74,33.22,126.71,33.22Z"/><path class="cls-2" d="M147.53,27.17h-6.71V33H138.4V12.79h9.12c5,0,6.46,2.18,6.46,5.45v3.48C154,25,152.49,27.17,147.53,27.17Zm4-8.7c0-2.48-1.11-3.78-4-3.78h-6.71V25.26h6.71c3,0,4-1.33,4-3.82Z"/></g></g></svg>