<svg xmlns="http://www.w3.org/2000/svg" viewBox="0 0 125.83 55"><defs><style>.cls-1{fill:#fff;}</style></defs><title>piit</title><g id="Warstwa_2" data-name="Warstwa 2"><g id="Long_Page_cz.1" data-name="Long Page cz.1"><g id="Warstwa_2-2" data-name="Warstwa 2"><g id="Warstwa_1-2" data-name="Warstwa 1-2"><path class="cls-1" d="M16.4,37V25.55c1-.06,1.92-.06,2.86-.19a25,25,0,0,0,3.86-.73,4.12,4.12,0,0,0,3.06-3.77,14.26,14.26,0,0,0-.05-3.75c-.47-2.84-2.61-4.42-5.89-4.57-3.8-.18-6.48,2.58-6.48,6.74q0,17.19,0,34.38V55H.05c0-.3,0-.61,0-.92V20.71a27.1,27.1,0,0,1,1.18-8.3C3.31,5.71,7.93,1.79,14.78.47A26.32,26.32,0,0,1,27,1,17.23,17.23,0,0,1,39,15a23.34,23.34,0,0,1-.75,9.8c-2,6.51-6.55,10.23-13,11.88A21.93,21.93,0,0,1,16.4,37Z"/><path class="cls-1" d="M125.83.84V13.15H115.16V55h-13.5V13.22H91V.84Z"/><path class="cls-1" d="M59.73,55H46.44V.85H59.73Z"/><path class="cls-1" d="M84.15,55H70.79V.84H84.15Z"/></g></g></g></g></svg>