<svg xmlns="http://www.w3.org/2000/svg" viewBox="0 0 285.67 55"><defs><style>.cls-1{fill:#fff;}</style></defs><title>pwweiti</title><g id="Warstwa_2" data-name="Warstwa 2"><g id="Long_Page_cz.1" data-name="Long Page cz.1"><path class="cls-1" d="M51.62.7h3.1l5.55,14.17h-3Zm6.26,0h3.25l2.78,7.57L66.66.7h3.25L64,15.08h-.08Z"/><path class="cls-1" d="M73.45,19.3H70.19l3.91-6.9L70.23,5.1h3.11L75.59,10,77.9,5.1H81Z"/><path class="cls-1" d="M91.58,14.87H89l-.15-1.08A3.38,3.38,0,0,1,86,15.06c-2.59,0-4.36-2.14-4.36-5.07S83.46,4.9,86,4.9A3.49,3.49,0,0,1,88.75,6V.21h2.83Zm-7-4.89c0,1.6.88,2.59,2.17,2.59a2.26,2.26,0,0,0,2-1.22V8.62a2.21,2.21,0,0,0-2-1.24c-1.29,0-2.17,1-2.17,2.61Z"/><path class="cls-1" d="M101.94,5.18l-4.06,7.28h4v2.41H93.58v-.08l4.07-7.28H93.83V5.1h8.11Z"/><path class="cls-1" d="M107.05,2A1.67,1.67,0,1,1,105.39.34a1.61,1.61,0,0,1,1.66,1.57Zm-.25,12.85H104V5.1h2.85Z"/><path class="cls-1" d="M116,6.2l.14-1.1h2.56v9.76h-2.56L116,13.78a3.33,3.33,0,0,1-2.79,1.28c-2.59,0-4.3-2.14-4.3-5.07s1.71-5.09,4.3-5.09A3.27,3.27,0,0,1,116,6.2ZM111.83,10c0,1.6.85,2.58,2.1,2.58a2.18,2.18,0,0,0,1.95-1.21V8.6a2.18,2.18,0,0,0-1.95-1.21c-1.25,0-2.1,1-2.1,2.6Z"/><path class="cls-1" d="M124.7,8.66v6.21h-2.85v-5l-1.25.54-.72-1.78,2-.82V.22h2.85v6.4L126,6.06l.7,1.75Z"/><path class="cls-1" d="M132.87.7h2.95V14.87h-2.95Zm5.36,0H142V3.4h-3.8Zm0,5.73h3V9h-3Zm0,5.74h4v2.7h-4Z"/><path class="cls-1" d="M147.3,14.87h-2.85V.22h2.85Z"/><path class="cls-1" d="M158.9,9.86v.89h-6.59a2.06,2.06,0,0,0,2.33,1.95,2.69,2.69,0,0,0,2.18-1l1.91,1.44a5,5,0,0,1-4.18,1.89A4.85,4.85,0,0,1,149.44,10a4.82,4.82,0,0,1,4.93-5.1C157.44,4.9,158.9,7.2,158.9,9.86ZM152.33,9h3.78a1.79,1.79,0,0,0-1.81-1.93,1.91,1.91,0,0,0-2,1.84V9Z"/><path class="cls-1" d="M164,10.28,167.4,5.1h3.24l-3,4,3.26,5.75h-3.24l-1.91-3.3-2.39,3.3h-2.25V.22H164Z"/><path class="cls-1" d="M176.17,5.1H179V7.51h-2.79v3.68a1.22,1.22,0,0,0,1.12,1.33h.19a3,3,0,0,0,1.27-.31l.71,2.25a4,4,0,0,1-2.22.6,3.55,3.55,0,0,1-3.91-3.84V7.51h-1.75V5.1h1.75V1.87h2.86Z"/><path class="cls-1" d="M186.61,7.74h-.23A2.89,2.89,0,0,0,184,9v5.84H181.1V5.1h2.54l.16,1.29a3.18,3.18,0,0,1,2.81-1.48Z"/><path class="cls-1" d="M198.15,10a5.16,5.16,0,0,1-10.31,0,5.16,5.16,0,0,1,10.31,0Zm-7.42,0A2.32,2.32,0,0,0,193,12.57,2.35,2.35,0,0,0,195.28,10,2.38,2.38,0,0,0,193,7.39,2.34,2.34,0,0,0,190.73,10Z"/><path class="cls-1" d="M209.4,9.24v5.63h-2.85V9.39A1.59,1.59,0,0,0,205,7.58a2.17,2.17,0,0,0-1.83,1.14v6.15h-2.85V5.1h2.54L203,6.18a3.29,3.29,0,0,1,2.77-1.27C208.13,4.9,209.4,6.6,209.4,9.24Z"/><path class="cls-1" d="M215.14,2A1.67,1.67,0,1,1,213.48.34h0a1.59,1.59,0,0,1,1.65,1.56A.24.24,0,0,1,215.14,2Zm-.24,12.85H212V5.1h2.86Z"/><path class="cls-1" d="M220.52,10.28l3.41-5.18h3.24l-3,4,3.26,5.75h-3.24l-1.91-3.3-2.39,3.3h-2.25V.22h2.85Z"/><path class="cls-1" d="M232.18,2A1.67,1.67,0,1,1,230.52.34a1.61,1.61,0,0,1,1.66,1.57Zm-.25,12.85h-2.85V5.1h2.85Z"/><path class="cls-1" d="M55,53v1.5l.7.07a1.15,1.15,0,0,1,0,.37H54a1.15,1.15,0,0,1,0-.37l.5-.07V50.87l-.5-.06a1.21,1.21,0,0,1,0-.38h.5c.41,0,.81-.06,1.29-.06.89,0,1.53.44,1.53,1.33S56.62,53,55.74,53Zm0-.5c.22,0,.44,0,.72,0,.55,0,.92-.23.92-.8s-.37-.84-.92-.84a5.47,5.47,0,0,0-.72,0Z"/><path class="cls-1" d="M63,52.68a2.18,2.18,0,1,1-2.18-2.31A2.07,2.07,0,0,1,63,52.68Zm-.61,0c0-1.27-.75-1.81-1.57-1.81s-1.56.54-1.56,1.81.75,1.81,1.58,1.81S62.43,54,62.43,52.68Z"/><path class="cls-1" d="M67.15,53.85a1.09,1.09,0,0,1,.44,0v1.08H64.44a.77.77,0,0,1,0-.37l.5-.07V50.87l-.5-.06a.81.81,0,0,1,0-.38H66a1.21,1.21,0,0,1,0,.38l-.5.06v3.55H67.1Z"/><path class="cls-1" d="M70.34,54.56a.77.77,0,0,1,0,.37H68.77a1.15,1.15,0,0,1,0-.37l.5-.07V50.87l-.5-.06a1.21,1.21,0,0,1,0-.38h1.57a.81.81,0,0,1,0,.38l-.5.06v3.62Z"/><path class="cls-1" d="M75.09,51.52a1.62,1.62,0,0,1-.44,0l-.06-.58h-1v3.55h0l.5.07a1.15,1.15,0,0,1,0,.37H72.5a1.15,1.15,0,0,1,0-.37l.5-.07V50.94H72l-.06.58a1.62,1.62,0,0,1-.44,0V50.43h3.59Z"/><path class="cls-1" d="M79,53.85a1.09,1.09,0,0,1,.44,0v1.08H76.22a1.15,1.15,0,0,1,0-.37l.5-.07V50.87l-.5-.06a1.21,1.21,0,0,1,0-.38h3.1v1.09a1.62,1.62,0,0,1-.44,0l-.06-.58H77.3v1.48l1.58,0v.5l-1.58,0v1.59H79Z"/><path class="cls-1" d="M84.34,50.66v1a1.62,1.62,0,0,1-.44,0L83.83,51a2.52,2.52,0,0,0-.82-.14c-.89,0-1.57.54-1.57,1.81s.75,1.81,1.57,1.81a2.58,2.58,0,0,0,1.33-.36v.56A2.79,2.79,0,0,1,83,55a2.32,2.32,0,0,1,0-4.63A2.91,2.91,0,0,1,84.34,50.66Z"/><path class="cls-1" d="M90.43,54.56a1.15,1.15,0,0,1,0,.37H88.85a1.15,1.15,0,0,1,0-.37l.51-.07V52.88H86.82v1.61l.51.07a2.29,2.29,0,0,1,0,.37H85.75a1.15,1.15,0,0,1,0-.37l.5-.07V50.87l-.5-.06a1.21,1.21,0,0,1,0-.38h1.58a2.41,2.41,0,0,1,0,.38l-.51.06v1.51h2.55V50.87l-.5-.06a1.21,1.21,0,0,1,0-.38h1.58a2.41,2.41,0,0,1,0,.38l-.51.06v3.62Z"/><path class="cls-1" d="M96.51,50.43a2.41,2.41,0,0,1,0,.38l-.51.06v4.06h-.82L93,51.23,92.89,51h0v3.52l.5.07a1.15,1.15,0,0,1,0,.37H91.81a2.29,2.29,0,0,1,0-.37l.51-.07V50.87l-.51-.06a2.41,2.41,0,0,1,0-.38h1.34l2.22,3.7.08.33h0V50.87l-.51-.06a1.21,1.21,0,0,1,0-.38Z"/><path class="cls-1" d="M99.28,54.56a.77.77,0,0,1,0,.37H97.71a1.15,1.15,0,0,1,0-.37l.5-.07V50.87l-.5-.06a1.21,1.21,0,0,1,0-.38h1.57a.81.81,0,0,1,0,.38l-.5.06v3.62Z"/><path class="cls-1" d="M102.13,54.56a1.15,1.15,0,0,1,0,.37h-1.58a2.29,2.29,0,0,1,0-.37l.51-.07V50.87l-.51-.06a2.41,2.41,0,0,1,0-.38h1.58a1.21,1.21,0,0,1,0,.38l-.5.06v3.62Zm2.49,0a1.15,1.15,0,0,1,0,.37h-.89l-1.9-2.38,1.54-1.69-.41,0a1.21,1.21,0,0,1,0-.38h1.54a.81.81,0,0,1,0,.38l-.5.06-1.45,1.64-.14,0h0l.14,0,1.56,1.91Z"/><path class="cls-1" d="M110.18,54.56a1.15,1.15,0,0,1,0,.37H108.6a1.15,1.15,0,0,1,0-.37l.48-.06-.41-1H106.9l-.41,1,.49.07a1.15,1.15,0,0,1,0,.37H105.4a1.15,1.15,0,0,1,0-.37l.49-.07,1.49-3.64-.41,0a2.41,2.41,0,0,1,0-.38h1.14l1.61,4.07Zm-2.36-3.36,0-.26h0l0,.26L107.09,53h1.41Z"/><path class="cls-1" d="M120,50.43a2.41,2.41,0,0,1,0,.38l-.49.06-1.22,4.06h-.68l-.94-3.65,0-.27h0l0,.27-1,3.65h-.67l-1.22-4.06-.48-.06a.81.81,0,0,1,0-.38h1.54a1.21,1.21,0,0,1,0,.38l-.48.06.93,3.29,0,.27h0l0-.27.94-3.66h.71l.92,3.66,0,.27h0l0-.27.93-3.3-.48,0a1.21,1.21,0,0,1,0-.38Z"/><path class="cls-1" d="M125.14,54.56a1.15,1.15,0,0,1,0,.37h-1.58a1.15,1.15,0,0,1,0-.37l.48-.06-.4-1h-1.78l-.41,1,.49.07a1.15,1.15,0,0,1,0,.37h-1.58a1.15,1.15,0,0,1,0-.37l.49-.07,1.49-3.64-.41,0a1.21,1.21,0,0,1,0-.38h1.14l1.61,4.07Zm-2.37-3.36,0-.26h0l0,.26L122.05,53h1.4Z"/><path class="cls-1" d="M130,54.56a2.29,2.29,0,0,1,0,.37h-.89l-1.33-2a5.43,5.43,0,0,1-.58,0v1.53l.5.07a1.15,1.15,0,0,1,0,.37h-1.57a1.15,1.15,0,0,1,0-.37l.5-.07V50.87l-.5-.06a1.21,1.21,0,0,1,0-.38h.5c.41,0,.81-.06,1.29-.06a1.3,1.3,0,0,1,1.46,1.33,1.2,1.2,0,0,1-1,1.22l1.11,1.56Zm-2.82-2.09c.23,0,.45,0,.72,0,.49,0,.86-.23.86-.77a.76.76,0,0,0-.68-.84h-.18a5.54,5.54,0,0,0-.72,0Z"/><path class="cls-1" d="M134,53.75c0,.78-.53,1.25-1.5,1.25a2.5,2.5,0,0,1-1.19-.3v-1a1.69,1.69,0,0,1,.45,0l.06.69a2,2,0,0,0,.69.12c.5,0,.91-.2.91-.74,0-1.08-2.12-.7-2.12-2.22,0-.69.47-1.17,1.33-1.17a2.35,2.35,0,0,1,1.13.29v1h-.45l-.06-.7a1.67,1.67,0,0,0-.62-.12c-.53,0-.78.2-.78.67C131.82,52.57,134,52.25,134,53.75Z"/><path class="cls-1" d="M138.15,53.85a1.09,1.09,0,0,1,.44,0v1.08h-3.22V54.6L137.78,51l.13-.06h-2l-.06.59a1.69,1.69,0,0,1-.45,0V50.43h3.13v.34l-2.39,3.59-.14,0h2.08Z"/><path class="cls-1" d="M144.44,54.56a2.29,2.29,0,0,1,0,.37h-1.58a1.15,1.15,0,0,1,0-.37l.47-.06-.4-1h-1.77l-.41,1,.49.07a1.15,1.15,0,0,1,0,.37h-1.6a1.15,1.15,0,0,1,0-.37l.49-.07,1.49-3.64-.41,0a1.21,1.21,0,0,1,0-.38h1.14L144,54.5Zm-2.36-3.36,0-.26h0l0,.26L141.35,53h1.4Z"/><path class="cls-1" d="M151.42,50.43a1.21,1.21,0,0,1,0,.38l-.49.06-1.22,4.06H149l-.95-3.65,0-.27h0l0,.27-.94,3.65h-.68l-1.22-4.06-.49-.06a1.21,1.21,0,0,1,0-.38h1.58a1.21,1.21,0,0,1,0,.38l-.49.06.92,3.29,0,.27h0l0-.27.93-3.66h.72l.88,3.66,0,.27h0l0-.27.93-3.3-.48,0a1.21,1.21,0,0,1,0-.38Z"/><path class="cls-1" d="M155.34,53.75c0,.78-.53,1.25-1.49,1.25a2.45,2.45,0,0,1-1.19-.3v-1a1.62,1.62,0,0,1,.44,0l.07.69a2,2,0,0,0,.68.12c.51,0,.92-.2.92-.74,0-1.08-2.12-.7-2.12-2.22,0-.69.47-1.17,1.33-1.17a2.28,2.28,0,0,1,1.12.29v1h-.44l-.07-.7a1.63,1.63,0,0,0-.62-.12c-.53,0-.78.2-.78.67C153.21,52.57,155.34,52.25,155.34,53.75Z"/><path class="cls-1" d="M158.31,54.56a1.15,1.15,0,0,1,0,.37h-1.58a1.15,1.15,0,0,1,0-.37l.51-.07V50.87l-.51-.06a1.21,1.21,0,0,1,0-.38h1.58a1.21,1.21,0,0,1,0,.38l-.51.06v3.62Zm2.48,0a1.15,1.15,0,0,1,0,.37h-.89L158,52.55l1.55-1.69-.41,0a1.21,1.21,0,0,1,0-.38h1.55a2.41,2.41,0,0,1,0,.38l-.51.06-1.46,1.64-.13,0h0l.13,0,1.57,1.91Z"/><path class="cls-1" d="M166.35,54.56a1.15,1.15,0,0,1,0,.37h-1.58a2.29,2.29,0,0,1,0-.37l.48-.06-.4-1h-1.78l-.4,1,.48.07a.77.77,0,0,1,0,.37h-1.57a1.15,1.15,0,0,1,0-.37l.49-.07,1.48-3.64-.4,0a1.21,1.21,0,0,1,0-.38h1.14l1.61,4.07ZM164,51.2l0-.26h0l0,.26L163.26,53h1.41Z"/><path class="cls-1" d="M57.44,24.61a1.67,1.67,0,1,1-1.66-1.68h0a1.62,1.62,0,0,1,1.66,1.57Zm-.26,12.85H54.33V27.7h2.85Z"/><path class="cls-1" d="M63.83,23.3H76v2.6H63.83Zm4.59,5h3v9.15h-3Z"/><path class="cls-1" d="M84.16,32.46v.88H77.57a2.06,2.06,0,0,0,2.33,1.95,2.69,2.69,0,0,0,2.18-1L84,35.75a5,5,0,0,1-4.18,1.89,4.85,4.85,0,0,1-5.11-5,4.84,4.84,0,0,1,4.93-5.11C82.7,27.5,84.16,29.77,84.16,32.46Zm-6.58-.89h3.78a1.79,1.79,0,0,0-1.81-1.93,1.91,1.91,0,0,0-2,1.85v.08Z"/><path class="cls-1" d="M95,29.76l-2,1.46A2.21,2.21,0,0,0,91,30c-1.42,0-2.22,1.15-2.22,2.62s.81,2.6,2.22,2.6a2.31,2.31,0,0,0,2.06-1.25L95,35.35A4.5,4.5,0,0,1,91,37.66,5.08,5.08,0,0,1,91,27.5,4.52,4.52,0,0,1,95,29.76Z"/><path class="cls-1" d="M99.77,28.56a3.32,3.32,0,0,1,2.6-1.06c2.39,0,3.66,1.7,3.66,4.34v5.62h-2.85V32a1.6,1.6,0,0,0-1.58-1.81,2.16,2.16,0,0,0-1.83,1.14v6.14H96.91V22.81h2.86Z"/><path class="cls-1" d="M117.79,31.84v5.62h-2.86V32a1.59,1.59,0,0,0-1.58-1.81,2.17,2.17,0,0,0-1.83,1.14v6.14h-2.85V27.7h2.56l.14,1.08a3.27,3.27,0,0,1,2.78-1.27C116.51,27.5,117.79,29.2,117.79,31.84Z"/><path class="cls-1" d="M123.51,24.61a1.67,1.67,0,1,1-1.66-1.68h0a1.62,1.62,0,0,1,1.66,1.57Zm-.26,12.85H120.4V27.7h2.85Z"/><path class="cls-1" d="M128.88,32.88l3.41-5.19h3.24l-3,4,3.26,5.74h-3.24l-1.9-3.29-2.4,3.29H126V22.81h2.85Z"/><path class="cls-1" d="M145.38,37.46h-2.95V23.3h2.95Z"/><path class="cls-1" d="M157.48,31.84v5.62h-2.86V32A1.59,1.59,0,0,0,153,30.18a2.17,2.17,0,0,0-1.83,1.14v6.14h-2.85V27.7h2.55l.13,1.08a3.26,3.26,0,0,1,2.77-1.27C156.2,27.5,157.48,29.2,157.48,31.84Z"/><path class="cls-1" d="M167.11,23.44l-1,2.27a1.53,1.53,0,0,0-1.1-.4c-.77,0-1.19.51-1.19,1.38v1H166V30.1H163.8v7.36H161V30.1h-1.7V27.69H161v-.84a3.74,3.74,0,0,1,3.89-4A3.82,3.82,0,0,1,167.11,23.44Z"/><path class="cls-1" d="M177.67,32.61a5.16,5.16,0,0,1-10.31,0,5.16,5.16,0,1,1,10.31,0Zm-7.42,0a2.31,2.31,0,0,0,2.24,2.55,2.34,2.34,0,0,0,2.29-2.56A2.38,2.38,0,0,0,172.49,30c-1.35,0-2.22,1.09-2.22,2.63Z"/><path class="cls-1" d="M185.32,30.33h-.23a2.92,2.92,0,0,0-2.43,1.3v5.83h-2.85V27.7h2.54l.16,1.29a3.17,3.17,0,0,1,2.81-1.48Z"/><path class="cls-1" d="M202.25,31.84v5.62H199.4V32c0-1.08-.54-1.81-1.48-1.81a2.14,2.14,0,0,0-1.78,1.14v6.14h-2.85V32c0-1.08-.54-1.81-1.48-1.81A2.19,2.19,0,0,0,190,31.32v6.14h-2.89V27.7h2.54l.13,1.08a3.31,3.31,0,0,1,2.8-1.27,3.11,3.11,0,0,1,2.92,1.67,3.74,3.74,0,0,1,3.2-1.67C201,27.5,202.25,29.2,202.25,31.84Z"/><path class="cls-1" d="M211.39,28.79l.13-1.1h2.57v9.77h-2.57l-.13-1.08a3.31,3.31,0,0,1-2.8,1.27c-2.58,0-4.29-2.14-4.29-5.07s1.71-5.08,4.29-5.08A3.28,3.28,0,0,1,211.39,28.79Zm-4.2,3.8c0,1.6.84,2.58,2.09,2.58A2.17,2.17,0,0,0,211.23,34V31.2A2.17,2.17,0,0,0,209.28,30c-1.25,0-2.09,1-2.09,2.6Z"/><path class="cls-1" d="M225.31,29.76l-2,1.46a2.2,2.2,0,0,0-2-1.25c-1.42,0-2.22,1.15-2.22,2.62s.81,2.6,2.22,2.6a2.31,2.31,0,0,0,2.06-1.25l1.93,1.41a4.5,4.5,0,0,1-4,2.31,5.08,5.08,0,1,1,0-10.16A4.52,4.52,0,0,1,225.31,29.76Z"/><path class="cls-1" d="M229.23,41.9H226l3.91-6.9L226,27.69h3.11l2.25,4.89,2.31-4.89h3.11Z"/><path class="cls-1" d="M241.29,38a4,4,0,0,1-3.9,4.09h-.28a4.1,4.1,0,0,1-3.28-1.39l1.66-1.92a2.16,2.16,0,0,0,1.6.82,1.3,1.3,0,0,0,1.34-1.26,1.09,1.09,0,0,0,0-.18V27.69h2.87Zm.25-13.39a1.67,1.67,0,1,1-1.66-1.68h0a1.62,1.62,0,0,1,1.66,1.57v.11Z"/><path class="cls-1" d="M253.14,31.84v5.62h-2.85V32a1.6,1.6,0,0,0-1.58-1.81,2.14,2.14,0,0,0-1.83,1.14v6.14H244V27.7h2.54l.14,1.08a3.24,3.24,0,0,1,2.77-1.27C251.87,27.5,253.14,29.2,253.14,31.84Z"/><path class="cls-1" d="M257.34,41.9h-3.26L258,35l-3.88-7.31h3.11l2.26,4.89,2.31-4.89h3.11Z"/><path class="cls-1" d="M274.64,29.76l-2,1.46a2.22,2.22,0,0,0-2-1.25c-1.42,0-2.21,1.15-2.21,2.62s.8,2.6,2.21,2.6a2.31,2.31,0,0,0,2.06-1.25l1.93,1.41a4.5,4.5,0,0,1-4,2.31,5.08,5.08,0,0,1,0-10.16A4.51,4.51,0,0,1,274.64,29.76Z"/><path class="cls-1" d="M279.4,28.56A3.32,3.32,0,0,1,282,27.5c2.4,0,3.67,1.7,3.67,4.34v5.62h-2.85V32a1.6,1.6,0,0,0-1.58-1.81,2.19,2.19,0,0,0-1.84,1.14v6.14h-2.85V22.81h2.85Z"/><path class="cls-1" d="M8.06,6.45C8,6.3,7.84,6.14,7.73,6l-.3.34.33.46Z"/><path class="cls-1" d="M16.47,5.1l-.31.34,1,1.6.32-.32C17.16,6.16,16.8,5.62,16.47,5.1Z"/><path class="cls-1" d="M9.17,8.06l-.44-.68-.31.34c.16.23.31.45.45.68Z"/><path class="cls-1" d="M9.81,4.5l-.32-.45h0l-.28.32.32.47Z"/><path class="cls-1" d="M11.07,10.91l-.31.34,1,1.5.32-.33Z"/><path class="cls-1" d="M14.59,7.13l-.32.34c.34.49.68,1,1,1.55l.32-.33C15.26,8.15,14.91,7.64,14.59,7.13Z"/><path class="cls-1" d="M12.87,9l-.31.33,1,1.52.32-.33Z"/><polygon class="cls-1" points="12.79 0.34 13.11 0.82 13.42 0.48 13.1 0 12.79 0.34"/><path class="cls-1" d="M10.5,10c-.23-.35-.44-.71-.69-1l-.31.34c.23.35.44.69.69,1.05Z"/><path class="cls-1" d="M12.32,4.54l.31-.35-.41-.6-.05-.07-.31.34Z"/><path class="cls-1" d="M10.92,6.1l-.44-.68-.31.35.44.67Z"/><path class="cls-1" d="M11.54,2.58l-.32-.48-.31.35.32.47Z"/><path class="cls-1" d="M12.29,8.12,11.56,7l-.31.33c.23.34.48.7.73,1.08Z"/><path class="cls-1" d="M15.12,3.05l-.3.35c.24.36.5.75.76,1.17l.32-.34Z"/><path class="cls-1" d="M13.26,5.14,13,5.48,13.7,6.6,14,6.26Z"/><path class="cls-1" d="M13.74,1.77l.45.68.3-.34-.44-.68Z"/><path class="cls-1" d="M27.45,40.37l.32-.36c-.21-.44-.44-.89-.65-1.3l-.31.35Z"/><path class="cls-1" d="M33.37,35.39l.38.77.32-.36L33.69,35Z"/><path class="cls-1" d="M29.86,34.28l.33-.35-.86-1.66-.33.34C29.3,33.17,29.59,33.73,29.86,34.28Z"/><path class="cls-1" d="M29.43,43.47c-.09-.18-.17-.37-.25-.55l-.33.36c.09.18.17.37.26.55Z"/><path class="cls-1" d="M34.28,37.23l.26.54.32-.36-.26-.54Z"/><path class="cls-1" d="M32.26,33.18l.59,1.17.32-.36-.59-1.15Z"/><path class="cls-1" d="M41.06,13.49H41a177.33,177.33,0,0,0-18.58,1h0c-1.54-2.52-3-4.92-4.44-7l-.32.32c2.22,3.47,4.84,7.66,7.27,11.89l-2.45.22c-.86-1.48-1.95-3.35-2.92-4.95C18.41,13,17.2,11.15,16.06,9.4l-.31.33c1.06,1.63,2.17,3.38,3.23,5.13l-.84.1-.45.06-.89.12c-.83-1.36-1.68-2.67-2.49-3.93l-.31.33c.83,1.27,1.69,2.63,2.55,4,2,3.26,3.95,6.52,5.77,9.69-1.22.13-2.08.25-2.41.29-.53-.93-3.82-6.66-7.44-12.43l-.32.33c.47.73.93,1.46,1.37,2.18-3,.5-4.76.89-4.78.89l-.14.11L0,31.91l.25.32a190.29,190.29,0,0,1,20.8-3.85c1.38,2.44,2.66,4.77,3.95,7.17l.32-.33c-1.22-2.31-2.47-4.56-3.8-6.9l2.4-.29c1.06,1.91,2.07,3.75,3,5.52l.32-.34c-.88-1.68-1.84-3.43-2.85-5.23l2-.21c.77,1.41,1.49,2.75,2.16,4.05l.33-.34-2-3.75c.8-.08,1.6-.14,2.4-.21l1.21,2.29.32-.33c-.36-.7-.72-1.37-1.05-2,2.9-.21,5.86-.34,8.78-.34h.06l.21-.18.45-2.45-.19-.26H39a104.61,104.61,0,0,0-10.77.45c-.45-.78-.81-1.47-1.23-2.22,3.9-.35,8.37-.7,12.6-.7l.22-.18.44-2.5-.17-.26H40c-4.82,0-9.85.38-14.58.8-.41-.72-.83-1.43-1.24-2.14a141.67,141.67,0,0,1,16.39-1l.22-.18.48-2.57ZM21.53,23l2.11-.19L24.9,25l-2.07.22L21.53,23Zm17.28,1.73-.37,2c-16.9,0-34.62,4.19-37.8,5L9,17c.41-.08,2.11-.44,4.83-.88,3.2,5.2,5.77,9.76,5.83,9.83l.22.11a148.87,148.87,0,0,1,19-1.33Zm-11,0-2.41.22c-.45-.77-.83-1.47-1.25-2.22l.46,0,2-.18c.43.76.81,1.46,1.23,2.22Zm12-5.45-.36,2.06c-5.12,0-10.54.51-14.91.92l-3.27.29c-1.33-2.3-2.74-4.63-4.18-7l.68-.09.44-.06,1-.13c1,1.61,2.06,3.48,2.91,4.93l.21.11,2.95-.26c4.7-.41,9.7-.79,14.49-.8Zm.58-3.21a150.84,150.84,0,0,0-16.46,1L22.65,14.9a177.36,177.36,0,0,1,18.15-1Z"/><path class="cls-1" d="M28.23,36.05l.32-.35c-.29-.55-.59-1.11-.89-1.69l-.32.34C27.65,34.9,28,35.47,28.23,36.05Z"/><path class="cls-1" d="M26.32,38.09l.32-.34L25.75,36l-.33.34C25.71,36.94,26,37.5,26.32,38.09Z"/><path class="cls-1" d="M28.67,41.84l-.37-.77-.32.36.37.77Z"/><path class="cls-1" d="M30.79,41.12l.26.55.32-.36-.26-.54Z"/><path class="cls-1" d="M29.89,39.28c.13.26.25.52.38.77l.32-.35-.38-.77Z"/><path class="cls-1" d="M32.37,39.36l.25.55.32-.36c-.08-.18-.16-.37-.25-.55Z"/><path class="cls-1" d="M31.78,32.23l.33-.35q-.42-.82-.84-1.62L31,30.6C31.2,31.13,31.48,31.67,31.78,32.23Z"/><path class="cls-1" d="M31.48,37.51c.12.26.25.52.37.77l.32-.36c-.12-.25-.24-.51-.37-.77Z"/><path class="cls-1" d="M29.36,38.24l.32-.36-.63-1.24-.32.34Z"/><path class="cls-1" d="M30.35,35.23,31,36.45l.32-.35-.6-1.21Z"/></g></g></svg>