<svg xmlns="http://www.w3.org/2000/svg" viewBox="0 0 183.28 71"><defs><style>.cls-1{fill:#091939;}.cls-1,.cls-2{fill-rule:evenodd;}.cls-2,.cls-3{fill:#fff;}</style></defs><title>zbp</title><g id="Warstwa_2" data-name="Warstwa 2"><g id="Long_Page_cz.1" data-name="Long Page cz.1"><g id="Warstwa_2-2" data-name="Warstwa 2"><g id="Warstwa_1-2" data-name="Warstwa 1-2"><polygon class="cls-1" points="71.21 0 102.15 0 102.15 30.95 71.21 30.95 71.21 0 71.21 0"/><polygon class="cls-2" points="71.73 0.53 101.63 0.53 101.63 30.42 71.73 30.42 71.73 0.53 71.73 0.53"/><polygon class="cls-1" points="72.48 1.27 100.88 1.27 100.88 29.67 72.48 29.67 72.48 1.27 72.48 1.27"/><path class="cls-2" d="M93.72,8.94H92.51l3.23-3.31H77.32a2.07,2.07,0,0,0-1.92.92c.41-1.51,1.36-2.79,4.1-2.87H98.79Zm-5.26-1a3.64,3.64,0,0,1,2.6,2.6,3.53,3.53,0,0,1-.67,2.82c-.93,1.28-2.79,1.42-4.45,1.11a3.06,3.06,0,0,0,2-.81,3.23,3.23,0,0,0,1.14-2.9,2.29,2.29,0,0,0-2-2.16,2.25,2.25,0,0,0-2.36,2v7.86a1.89,1.89,0,0,1-1.34,2V11.14c0-2.31,2.89-3.79,5.07-3.23Zm-4.57.81A3.37,3.37,0,0,0,82.73,11V20.7a5.51,5.51,0,0,0,4.35.7,3.16,3.16,0,0,0,2.3-2.56,3.22,3.22,0,0,0-2.18-3.76,4.22,4.22,0,0,1,4.09,1.54,4,4,0,0,1-.14,4,4.72,4.72,0,0,1-4.85,1.9,8.13,8.13,0,0,1-3.56-1.28,2.42,2.42,0,0,1-1.32,1.38,2.15,2.15,0,0,1-1.2.16,2.35,2.35,0,0,0,1-2.34v-9c0-1.5,1.42-2.39,2.62-2.79Zm-6,16.33h17.4a3.43,3.43,0,0,0,2.6-1c-.2,1.2-1.42,2.93-4.4,2.93H74.76l3.34-3.46h1.24Z"/><path class="cls-3" d="M5,67.53c1,0,1.68-.21,1.93-.67a2.05,2.05,0,0,0,.22-.6c0-.12.07-.19.12-.19s.13.12.13.38a7,7,0,0,1-.14,1.2,1.47,1.47,0,0,1-.19.53.36.36,0,0,1-.26.09H.21c-.14,0-.21,0-.21-.12a1,1,0,0,1,.19-.37l5.18-8.09H3a6.65,6.65,0,0,0-1.41.11,1.2,1.2,0,0,0-.81.59c-.07.2-.15.43-.25.67a.11.11,0,0,1-.09.06c-.07,0-.11-.08-.11-.21v-.35l.07-.5a7.29,7.29,0,0,1,.14-.92c0-.16.08-.24.15-.24L.88,59H7.15c.14,0,.21,0,.21.11a.44.44,0,0,1-.1.22c-.84,1.42-1.72,2.82-2.62,4.2L2,67.52Zm3.75-6.11A2.65,2.65,0,0,0,8.59,61a.86.86,0,0,0-.23-.33A1.24,1.24,0,0,0,8,60.61c-.14,0-.21,0-.21-.11s.08-.1.24-.1h2.47c.15,0,.24,0,.24.1s-.06.09-.18.11l-.29,0c-.08,0-.12.09-.12.21a7.77,7.77,0,0,0,.24,1c.09.36.23.81.39,1.32L11.33,65l.36,1.18h0l2.06-5.32c.1-.25.21-.38.32-.38s.22.16.36.49l2.15,5.14h0l.15-.47.23-.71.27-.87.54-1.8a7.62,7.62,0,0,0,.33-1.31.26.26,0,0,0-.24-.28h0l-.38-.05s-.07,0-.07-.08.09-.1.26-.1h2c.14,0,.21,0,.21.09s0,.1-.12.11h-.42c-.13,0-.25.21-.38.48l-.22.61c-.3.81-.66,1.82-1.05,3l-1.05,3.19c-.11.33-.22.49-.34.49s-.23-.17-.38-.5l-2.19-5.14h0a2.92,2.92,0,0,1-.18.47l-.33.81-.42,1-.44,1.09c-.16.37-.39.92-.7,1.62-.17.36-.31.55-.41.55s-.21-.13-.3-.38Zm12.7.43v-.64a.56.56,0,0,0-.37-.55h-.33c-.16,0-.24-.07-.24-.14s.09-.09.26-.09H23.6c.14,0,.21,0,.21.09s-.06.11-.19.14h-.29A.43.43,0,0,0,23,61a2.12,2.12,0,0,0-.05.5v5.75a1.3,1.3,0,0,0,.14.61.49.49,0,0,0,.32.16,2.53,2.53,0,0,0,.55,0c.11,0,.17,0,.17.12s-.07.1-.21.1H20.69c-.14,0-.21,0-.21-.1s.06-.12.18-.12c.35,0,.56-.07.64-.21a3.75,3.75,0,0,0,.12-1.25V61.81Zm7.76,3.23c.05,0,.07,0,.05,0l-1-2.69-.07-.12-.06.1-1,2.65V65Zm1.48,5.23a1.12,1.12,0,0,0,.71-.35.14.14,0,0,1,.11-.06c.07,0,.1,0,.1.1a.34.34,0,0,1-.09.19c-.16.16-.32.31-.49.45A1.76,1.76,0,0,1,30,71c-.74,0-1.12-.31-1.12-.93a2.13,2.13,0,0,1,.81-1.37l.44-.36a2.82,2.82,0,0,0,.36-.33.74.74,0,0,0,0-.21l-.81-2.09a.11.11,0,0,0-.11-.08H26.9a.12.12,0,0,0-.1.07l-.57,1.37a1.59,1.59,0,0,0-.16.64c0,.19.14.29.43.29h.14c.11,0,.16,0,.16.12s-.06.1-.17.1H24.18c-.14,0-.2,0-.2-.1s.09-.1.28-.12h.16c.36-.06.66-.36.9-.92l2.82-6.57c.12-.28.22-.42.31-.42s.23.11.33.33.3.7.68,1.57l1.1,2.62,1,2.24a2,2,0,0,0,.78,1.08,1.37,1.37,0,0,0,.57.1c.09,0,.14,0,.14.11s-.15.1-.47.1H31.21a1.17,1.17,0,0,0-.81.36,1.43,1.43,0,0,0-.47,1.13c0,.4.24.6.71.6Zm6.82-2.72c.93,0,1.48-.18,1.68-.53a2,2,0,0,0,.19-.48c0-.11.07-.18.12-.18s.12.11.12.33A6.74,6.74,0,0,1,39.4,68a.35.35,0,0,1-.34.27H33.25c-.13,0-.18,0-.18-.11a.58.58,0,0,1,.13-.31c.17-.24.94-1.4,2.31-3.46l2.23-3.34H35.67a4,4,0,0,0-1.54.19,1,1,0,0,0-.57.81c0,.12-.06.18-.14.18s-.1-.06-.1-.18a9.36,9.36,0,0,1,.15-1.17,1.17,1.17,0,0,1,.07-.33c0-.08,0-.2.12-.2l.21,0H39.4c.12,0,.18,0,.18.09a.6.6,0,0,1-.06.19c-1.34,2.11-2.88,4.42-4.63,6.91Zm4.38-5.77v-.64a.66.66,0,0,0-.12-.38.57.57,0,0,0-.34-.18,1.55,1.55,0,0,0-.43,0c-.12,0-.19,0-.19-.11s.08-.1.25-.1h4.81a.86.86,0,0,1,.32,0s.07,0,.07.09a1.82,1.82,0,0,1,0,.33,2.15,2.15,0,0,0,0,.34v.54a.84.84,0,0,1-.07.26s0,.07-.08.07-.07-.12-.09-.33a.73.73,0,0,0-.25-.47,1,1,0,0,0-.53-.15h-1.8c-.06,0-.08,0-.08.1v2.6c0,.07,0,.11.08.11h2.16a.55.55,0,0,0,.24-.12c.08-.1.14-.14.17-.14s.09,0,.09.11a3.45,3.45,0,0,1-.09.76,5.36,5.36,0,0,0-.05.7c0,.15,0,.23-.1.23s-.11,0-.11-.1a2.41,2.41,0,0,0,0-.38c-.06-.24-.27-.38-.61-.42H43.36s-.06,0-.06.12V67a.8.8,0,0,0,.49.81,3.17,3.17,0,0,0,1,.1,2.71,2.71,0,0,0,1-.14,1,1,0,0,0,.47-.77c0-.1.06-.16.12-.16s.1.08.1.24a9.24,9.24,0,0,1-.1.92,1.52,1.52,0,0,1-.11.38.37.37,0,0,1-.27.13h-.25l-2.68-.05H41.14c-.14,0-.21,0-.21-.11s.07-.11.18-.11c.34,0,.55-.07.61-.22a4.32,4.32,0,0,0,.13-1.29v-5Zm8.45,2h.05l.47-.48.68-.68,1.1-1.13c.37-.4.54-.66.54-.8a.19.19,0,0,0-.14-.21.14.14,0,0,1-.15-.11s.06-.11.17-.11h2.38c.13,0,.18,0,.18.11s0,.1-.18.12h-.27a2.44,2.44,0,0,0-.86.37,7.37,7.37,0,0,0-.61.5l-.66.63-.48.46-.48.46-.39.39-.28.29,1.46,1.61.6.64.54.53a3.51,3.51,0,0,0,.33.34l.69.63a3.09,3.09,0,0,0,.8.48,2,2,0,0,0,.68.14c.1,0,.15,0,.15.11s-.09.11-.26.11H55A2.39,2.39,0,0,1,53.92,68a3.78,3.78,0,0,1-.66-.47c-.14-.12-.43-.43-.87-.92l-.6-.67-.58-.68-.72-.86-.11-.14h-.05v2.24a3.15,3.15,0,0,0,.14,1.29c.06.13.24.2.55.21a1.49,1.49,0,0,1,.36,0,.09.09,0,0,1,0,.07c0,.07-.07.11-.21.11h-3c-.13,0-.2,0-.2-.11S48,68,48.13,68c.34,0,.55-.07.61-.22a4,4,0,0,0,.13-1.29V61.17a.66.66,0,0,0-.12-.38.62.62,0,0,0-.29-.18,1.55,1.55,0,0,0-.43,0c-.12,0-.18,0-.18-.11s.08-.1.25-.1H51c.15,0,.23,0,.23.1s0,.09-.11.11h-.2a.9.9,0,0,0-.32.09c-.14.06-.23.23-.25.51v2.63Zm10.92-3.16a3.23,3.23,0,0,0-.15-1.23.62.62,0,0,0-.4-.22,1.93,1.93,0,0,0-.48,0c-.15,0-.21,0-.21-.1s.09-.11.27-.11h3.16a2.92,2.92,0,0,1,2.14.67,1.6,1.6,0,0,1,.47,1.17A2.69,2.69,0,0,1,64.8,63a3.37,3.37,0,0,1,2,1.65,2.29,2.29,0,0,1,.21,1,2.4,2.4,0,0,1-.81,1.82,3.42,3.42,0,0,1-2.49.81H60.42c-.14,0-.24,0-.24-.12s.06-.09.18-.1h.26a.44.44,0,0,0,.45-.25,5.72,5.72,0,0,0,.16-1.54V60.68Zm1.47,2.06a.13.13,0,0,0,.09.14,2.72,2.72,0,0,0,.57,0,1.33,1.33,0,0,0,.88-.24,1.57,1.57,0,0,0,.51-1.22,2.14,2.14,0,0,0-.4-1.29,1.31,1.31,0,0,0-1.14-.61H63c-.2,0-.3.08-.3.23v3Zm2.81,3.42a2.77,2.77,0,0,0-1.19-2.42,2.05,2.05,0,0,0-1-.3h-.53s-.07,0-.07.09v2.91c0,.58.06.92.2,1a1.16,1.16,0,0,0,.69.27H64a1.4,1.4,0,0,0,1.34-.8,1.91,1.91,0,0,0,.15-.81Zm4.24-.53a.1.1,0,0,0-.1.06l-.57,1.38a1.59,1.59,0,0,0-.16.64c0,.19.14.29.43.29h.16c.1,0,.15,0,.15.12s-.05.1-.17.1H67.06c-.13,0-.2,0-.2-.1s.1-.1.29-.12h.16c.35,0,.65-.36.89-.93L71,60.51c.13-.28.23-.42.32-.42s.23.11.32.33.31.7.68,1.57c.24.58.62,1.45,1.11,2.62l1,2.24a2,2,0,0,0,.76,1.05,1.23,1.23,0,0,0,.57.1c.09,0,.14,0,.14.12s-.15.1-.47.1h-2c-.22,0-.33,0-.33-.08s0-.11.14-.11a.16.16,0,0,0,.1-.08.15.15,0,0,0,0-.16l-.81-2.09a.09.09,0,0,0-.11-.07Zm2.3-.59c.05,0,.07,0,.05-.05l-1-2.65v-.12l-.06.1L70,65V65Zm5.66,1.78a3.38,3.38,0,0,0,.07.63c0,.28.15.45.3.5l.43,0c.21,0,.32.07.32.14s-.08.1-.25.1H76c-.13,0-.25,0-.25-.1S75.85,68,76,68h.46a.35.35,0,0,0,.19-.1,1,1,0,0,0,.16-.61v-.55l.09-6.19c0-.24.07-.35.19-.35s.24.11.47.34l.36.35.8.81c.3.31.65.66,1,1l1.14,1.08,1.38,1.38.61.63.34.33h0l-.11-4.63a1.93,1.93,0,0,0-.1-.68.59.59,0,0,0-.55-.31c-.31,0-.46,0-.46-.11s.09-.1.27-.1h2.43c.17,0,.25,0,.25.1s-.12.09-.36.12a.5.5,0,0,0-.45.24,2.05,2.05,0,0,0-.1.65L83.91,68c0,.22-.07.34-.17.34a.73.73,0,0,1-.45-.23l-.61-.57-2.54-2.43c-.34-.33-.62-.62-.86-.86l-1.35-1.39-.32-.32h0l.12,4.25Zm11-3h.09l.46-.48.68-.68c.26-.25.62-.63,1.11-1.13s.54-.66.54-.8a.19.19,0,0,0-.15-.21.14.14,0,0,1-.15-.11s.06-.11.17-.11h2.39c.12,0,.18,0,.18.11s-.06.1-.18.12h-.27a2.44,2.44,0,0,0-.86.37c-.17.12-.37.29-.62.5l-.66.63-.48.46-.47.46-.4.39-.27.29c.09.11.58.63,1.45,1.61l.61.64.53.53c.15.17.26.27.33.34l.69.63a3,3,0,0,0,.81.48A1.91,1.91,0,0,0,95,68c.1,0,.15,0,.15.11s-.09.11-.26.11H93.52A2.39,2.39,0,0,1,92.44,68a3.43,3.43,0,0,1-.66-.47c-.14-.12-.43-.43-.88-.92L90.31,66l-.58-.68L89,64.41l-.1-.14h-.06v2.24A3.53,3.53,0,0,0,89,67.8c.06.13.25.2.55.21a1.5,1.5,0,0,1,.37,0,.09.09,0,0,1,0,.07c0,.07-.07.11-.21.11h-3c-.14,0-.21,0-.21-.11s.06-.11.17-.11c.35,0,.55-.07.62-.22a4.32,4.32,0,0,0,.13-1.29V61.17a.51.51,0,0,0-.46-.56,1.55,1.55,0,0,0-.43,0c-.13,0-.18,0-.18-.11s.08-.1.24-.1h2.89c.16,0,.24,0,.24.1s0,.09-.11.11h-.18a1,1,0,0,0-.33.09q-.21.09-.24.51v2.63ZM99,68.38a4.34,4.34,0,0,1-3.39-1.31,4.09,4.09,0,0,1,0-5.44,4.47,4.47,0,0,1,3.48-1.38,4.75,4.75,0,0,1,3.24,1,3.6,3.6,0,0,1,1.18,2.86,4,4,0,0,1-1.32,3.13A4.56,4.56,0,0,1,99,68.42Zm.43-.56a2.21,2.21,0,0,0,1.52-.55,3.53,3.53,0,0,0,1-2.78,4,4,0,0,0-.9-2.73,2.83,2.83,0,0,0-2.22-1,2.32,2.32,0,0,0-2.37,1.62A4.37,4.37,0,0,0,96.2,64a4.14,4.14,0,0,0,.86,2.73,3,3,0,0,0,2.43,1.11ZM100.92,58l.19.43q.06.12,0,.15a.11.11,0,0,1-.08,0h-.14a2.25,2.25,0,0,0-.81.13,6.83,6.83,0,0,0-1.1.39l-.56.27a.12.12,0,0,1-.08,0s-.07,0-.07-.06,0,0,0,0,.19-.26.59-.58l.62-.49c.26-.2.55-.42.87-.64a.44.44,0,0,1,.24-.11.17.17,0,0,1,.1,0,2.22,2.22,0,0,1,.23.43Z"/><path class="cls-3" d="M104.92,61.42a3.18,3.18,0,0,0-.14-.39.78.78,0,0,0-.24-.33,1.12,1.12,0,0,0-.37-.09c-.14,0-.22,0-.22-.11s.09-.1.25-.1h2.5c.16,0,.24,0,.24.1s-.06.09-.17.11l-.3,0c-.08,0-.11.09-.11.21a6.26,6.26,0,0,0,.23,1c.1.36.23.81.39,1.32l.57,1.82.36,1.18h0L110,60.82c.09-.25.2-.38.31-.38s.22.16.36.49l2.16,5.14h0l.15-.47.23-.71c.08-.27.17-.56.28-.87l.53-1.8a7.62,7.62,0,0,0,.33-1.31c0-.16-.08-.25-.26-.28l-.39-.05s-.06,0-.06-.08.09-.1.26-.1h2c.13,0,.19,0,.19.09a.11.11,0,0,1-.11.11h-.41c-.14,0-.26.21-.38.48l-.23.61c-.3.81-.65,1.82-1,3l-1,3.19c-.11.33-.22.49-.34.49s-.23-.17-.38-.5L110,62.73h0a3.39,3.39,0,0,1-.19.47l-.33.81-.41,1-.45,1.09c-.15.37-.38.91-.7,1.62-.17.36-.31.55-.41.55s-.21-.13-.3-.38Zm16.63-.7a3,3,0,0,0-.14-1.23.64.64,0,0,0-.4-.22,1.93,1.93,0,0,0-.48,0c-.14,0-.21,0-.21-.1s.09-.11.27-.11h.5L122,59h2.11a4.4,4.4,0,0,1,1.61.28,2,2,0,0,1,.64.42,1.92,1.92,0,0,1,.62,1.46,2.84,2.84,0,0,1-.87,2.14,3,3,0,0,1-2.15.81h-.12a.59.59,0,0,1-.23,0s-.06,0,0-.07.11-.14.34-.14a1.47,1.47,0,0,0,1.08-.55,2.06,2.06,0,0,0,.57-1.47,2.4,2.4,0,0,0-.73-1.84,1.79,1.79,0,0,0-1.23-.48,1.57,1.57,0,0,0-.48,0c-.06,0-.09.1-.09.23v4.91a25.28,25.28,0,0,0,.06,2.63.84.84,0,0,0,.22.56,1,1,0,0,0,.57.14h.29c.14,0,.22,0,.22.1s-.08.12-.23.12h-3.38q-.24,0-.24-.12c0-.06.06-.09.18-.1H121a.5.5,0,0,0,.46-.26,5.68,5.68,0,0,0,.15-1.54V60.68Zm11,7.7a4.31,4.31,0,0,1-3.39-1.35,4.09,4.09,0,0,1,0-5.44,4.47,4.47,0,0,1,3.48-1.38,4.66,4.66,0,0,1,3.23,1,3.61,3.61,0,0,1,1.19,2.86,4,4,0,0,1-1.32,3.13,4.56,4.56,0,0,1-3.23,1.13Zm.44-.56a2.23,2.23,0,0,0,1.52-.55,3.51,3.51,0,0,0,.95-2.77,4,4,0,0,0-.9-2.74,2.83,2.83,0,0,0-2.22-1A2.32,2.32,0,0,0,130,62.43a4.41,4.41,0,0,0-.24,1.61,4.08,4.08,0,0,0,.87,2.73,2.91,2.91,0,0,0,2.42,1.11Zm7.91-2.61V66.4c0,.59.1.94.23,1a2.63,2.63,0,0,0,1.44.23,1.87,1.87,0,0,0,1.26-.3,1.2,1.2,0,0,0,.27-.62c0-.11.06-.16.12-.16s.1.08.1.23a4.75,4.75,0,0,1-.05.53l-.05.37a.52.52,0,0,1,0,.3.33.33,0,0,1-.18.23,1.84,1.84,0,0,1-.52,0h-4.73c-.14,0-.21,0-.21-.11s.06-.11.17-.11c.34,0,.55-.07.62-.22a4.32,4.32,0,0,0,.13-1.29V61.17a.77.77,0,0,0-.12-.38.69.69,0,0,0-.35-.18h-.32c-.14,0-.22-.06-.22-.12s.08-.11.23-.11h3c.15,0,.23,0,.23.11s-.14.09-.41.1a1.06,1.06,0,0,0-.36.09c-.14.06-.22.23-.25.52s0,.39,0,.64v3.37Zm6.47,3.17a4.56,4.56,0,0,1-1.76-.26.38.38,0,0,1-.2-.36,10.55,10.55,0,0,1,.06-1.39c0-.18.05-.27.13-.27s.12.06.12.17a1.47,1.47,0,0,0,.36,1,1.9,1.9,0,0,0,1.45.53,1.63,1.63,0,0,0,1.06-.35,1.18,1.18,0,0,0,.43-1,1.41,1.41,0,0,0-.48-1.07,4,4,0,0,0-.58-.41l-.63-.36a4.1,4.1,0,0,1-1.32-1.13,2.12,2.12,0,0,1-.37-1.24,1.78,1.78,0,0,1,.49-1.25,2.5,2.5,0,0,1,1.18-.7,3.7,3.7,0,0,1,1.05-.15,6.16,6.16,0,0,1,1.54.17.14.14,0,0,1,.14.14v1.25c0,.14-.05.33-.14.33s-.11-.06-.11-.18a1.14,1.14,0,0,0-.27-.69,1.5,1.5,0,0,0-1.21-.49,1.8,1.8,0,0,0-1,.27,1,1,0,0,0-.48.81,1.26,1.26,0,0,0,.55,1,2.83,2.83,0,0,0,.59.38l.44.25a4.47,4.47,0,0,1,1.46,1.17,2.37,2.37,0,0,1,.39,1.32,2.31,2.31,0,0,1-1.08,2,3.16,3.16,0,0,1-1.81.43Zm6.91-4.58h0l.46-.48.69-.68,1.11-1.13c.35-.4.54-.66.54-.8a.2.2,0,0,0-.15-.21.14.14,0,0,1-.15-.11s.06-.11.17-.11h2.38c.13,0,.19,0,.19.11s-.06.1-.19.12h-.2a2.44,2.44,0,0,0-.86.37l-.62.5-.66.63-.48.46-.47.46-.4.39-.27.29c.09.11.58.63,1.45,1.61l.62.64.52.53c.15.17.26.27.33.34l.69.63a3.15,3.15,0,0,0,.81.48,1.91,1.91,0,0,0,.67.14c.1,0,.15,0,.15.11s-.09.11-.26.11H159A2.39,2.39,0,0,1,158,68a3.43,3.43,0,0,1-.66-.47c-.14-.12-.43-.43-.88-.92l-.59-.67-.58-.68-.72-.86-.11-.14h-.1v2.24a3.53,3.53,0,0,0,.14,1.29c.07.13.25.2.55.21a1.5,1.5,0,0,1,.37,0,.09.09,0,0,1,0,.07c0,.07-.07.11-.21.11h-3c-.14,0-.21,0-.21-.11s.05-.11.17-.11c.34,0,.55-.07.61-.22a4.33,4.33,0,0,0,.14-1.29V61.17a.51.51,0,0,0-.46-.56,1.55,1.55,0,0,0-.43,0c-.13,0-.19,0-.19-.11s.09-.1.25-.1h2.89c.16,0,.23,0,.23.1s0,.09-.1.11h-.19a.9.9,0,0,0-.32.09q-.23.09-.24.51v2.63Zm7-2v-.64a.55.55,0,0,0-.36-.55h-.33c-.16,0-.24-.07-.24-.14s.08-.09.26-.09h2.83c.15,0,.23,0,.23.09s-.07.11-.21.14h-.29a.44.44,0,0,0-.37.31,2.83,2.83,0,0,0-.05.5v5.79a1.19,1.19,0,0,0,.14.61.47.47,0,0,0,.32.16,2.44,2.44,0,0,0,.54,0c.12,0,.18,0,.18.12s-.07.1-.22.1h-3.19c-.14,0-.21,0-.21-.1s.06-.12.18-.12c.35,0,.57-.07.64-.21a4,4,0,0,0,.13-1.25V61.81Zm8.89,6.57a5.54,5.54,0,0,1-3.7-1.13,3.35,3.35,0,0,1-1.07-1.5,4.29,4.29,0,0,1-.28-1.62A3.83,3.83,0,0,1,165.8,62a3.77,3.77,0,0,1,2-1.53,5.67,5.67,0,0,1,2-.3,12.82,12.82,0,0,1,2.14.21l.5.07c.11,0,.16,0,.16.13a4,4,0,0,1-.05.58v1.12c0,.18-.07.26-.15.26s-.09-.1-.13-.31-.06-.27-.09-.41a1.62,1.62,0,0,0-1.11-.91,4.29,4.29,0,0,0-1.28-.17,3,3,0,0,0-2,.59,3.4,3.4,0,0,0-1,2.7A3.57,3.57,0,0,0,168,66.8a3.16,3.16,0,0,0,2.22.89,5.1,5.1,0,0,0,1-.07,1.62,1.62,0,0,0,.88-.47,1.43,1.43,0,0,0,.37-.71c0-.14.07-.21.14-.21s.12.07.12.19a5.84,5.84,0,0,1-.15,1,2.69,2.69,0,0,1-.17.55,1.34,1.34,0,0,1-.58.23,8.24,8.24,0,0,1-1.57.12Zm10.37-4.62s.06,0,.06-.07V61.17a.89.89,0,0,0-.12-.38.62.62,0,0,0-.35-.18,1.48,1.48,0,0,0-.42,0c-.12,0-.18,0-.18-.11s.08-.1.23-.1h3c.15,0,.23,0,.23.1s-.07.1-.22.12h-.29a.45.45,0,0,0-.36.32,2.73,2.73,0,0,0,0,.5v5.74a1.78,1.78,0,0,0,.13.64c.07.12.28.19.6.2a2,2,0,0,1,.42,0,.09.09,0,0,1,0,.07c0,.07-.07.1-.22.1H179.9c-.15,0-.23,0-.23-.1s.05-.11.17-.11c.35,0,.56-.08.63-.22a4.61,4.61,0,0,0,.13-1.28V64.45s0-.07-.06-.07h-4c-.05,0-.07,0-.07.07v.8c0,1.1,0,1.83,0,2.21a.6.6,0,0,0,.19.44,1,1,0,0,0,.5.13,2,2,0,0,1,.42,0,.11.11,0,0,1,0,.08c0,.07-.07.1-.22.1h-3.13c-.15,0-.21,0-.21-.1s.05-.12.16-.12c.34,0,.55-.07.62-.21a4.4,4.4,0,0,0,.14-1.3V61.17a.77.77,0,0,0-.12-.38.66.66,0,0,0-.35-.18,1.55,1.55,0,0,0-.43,0c-.12,0-.19,0-.19-.11s.08-.1.24-.1h3c.15,0,.22,0,.22.1s-.07.1-.21.12h-.29a.45.45,0,0,0-.37.32,1.8,1.8,0,0,0-.05.52V63.7a.07.07,0,0,0,.05.08h0Z"/></g></g></g></g></svg>