<?xml version="1.0" encoding="utf-8"?>
<!-- Generator: Adobe Illustrator 23.0.6, SVG Export Plug-In . SVG Version: 6.00 Build 0)  -->
<svg version="1.1" id="Layer_1" xmlns="http://www.w3.org/2000/svg" xmlns:xlink="http://www.w3.org/1999/xlink" x="0px" y="0px"
	 viewBox="0 0 201.2 77.3" style="enable-background:new 0 0 201.2 77.3;" xml:space="preserve">
<style type="text/css">
	.st0{fill:#FFFFFF;}
	.st1{fill:#C2C2C2;}
	.st2{fill:#ABABAB;}
	.st3{fill:#8A8A8A;}
</style>
<title>Zasób 12</title>
<g id="Warstwa_2">
	<g id="svg4136">
		<g id="g6503">
			<g id="g6411">
				<g id="g4416">
					<path id="path4418" class="st0" d="M97.7,19.7l1.3-5.9c0-0.2,0.1-0.3,0.3-0.3s0.2,0,0.2,0.1c0,0.1,0.1,0.2,0.1,0.2l1.3,5.9
						L97.7,19.7z M102.3,11.6c-0.2-0.3-0.5-0.5-0.8-0.7c-0.3-0.2-0.7-0.3-1-0.3c-0.4-0.1-0.7-0.1-1.1-0.1c-0.4,0-0.7,0-1.1,0.1
						c-0.3,0.1-0.7,0.2-1,0.3c-0.3,0.2-0.6,0.4-0.8,0.7c-0.3,0.4-0.5,0.8-0.6,1.3l-3.3,13.7h3.8l0.8-3.9h4.4l0.8,3.9h3.8L103,12.8
						C102.9,12.4,102.7,11.9,102.3,11.6"/>
				</g>
				<g id="g4420">
					<path id="path4422" class="st0" d="M156.3,17.5l4.9,8.5c0.1,0.2,0.3,0.4,0.5,0.5c0.2,0.1,0.4,0.1,0.6,0.1h2.9V10.6h-3.4v9.5
						c0,0.1,0,0.2-0.1,0.2s-0.1-0.1-0.2-0.2l-5.1-8.8c-0.1-0.2-0.2-0.4-0.4-0.5c-0.1-0.1-0.3-0.2-0.5-0.2h-3v12.3l0,0v3.7h3.4v-9.1
						c0-0.1,0-0.2,0.1-0.2S156.2,17.3,156.3,17.5"/>
				</g>
				<g id="g4444">
					<path id="path4446" class="st0" d="M87.7,23.4h-3.9c-0.2,0-0.2,0-0.2-0.1c0-0.1,0.1-0.2,0.1-0.2l6-9.3c0.1-0.2,0.2-0.4,0.2-0.6
						v-1l0,0v-1.6H79.4v3.2h5.8c0.2,0,0.2,0.1,0.2,0.2c0,0.1,0,0.2-0.1,0.2l-6,9c-0.1,0.2-0.2,0.3-0.3,0.5c0,0.1-0.1,0.3-0.1,0.4
						v2.4h11v-3.2H87.7z"/>
				</g>
				<g id="g4448">
					<path id="path4450" class="st0" d="M117.3,11v9.5c0,0.5,0,0.9-0.1,1.4c-0.1,0.4-0.2,0.7-0.4,1c-0.2,0.3-0.5,0.4-0.8,0.5
						c-0.8,0.3-1.6,0.3-2.4,0c-0.3-0.1-0.6-0.3-0.8-0.5c-0.2-0.3-0.4-0.6-0.4-1c-0.1-0.5-0.1-0.9-0.1-1.4v-9.9h-3.7v2.6l0,0v7.4
						c0,1,0.1,2,0.5,3c0.3,0.7,0.7,1.4,1.3,1.9c0.6,0.5,1.3,0.8,2,1c1.6,0.4,3.2,0.4,4.8,0c1.5-0.3,2.7-1.4,3.3-2.9
						c0.4-1,0.5-2,0.5-3v-10h-3.7L117.3,11z"/>
				</g>
				<g id="g4452">
					<path id="path4454" class="st0" d="M124.9,10.5V17l0,0v5.8l0,0v3.8h3.7v-6.7h6V17h-6v-3.4h6.1v-3.1
						C134.7,10.5,124.9,10.5,124.9,10.5z"/>
				</g>
				<g id="g4492">
					<path id="path4494" class="st0" d="M142.6,13.8c0-0.2,0.1-0.3,0.3-0.3c0.1,0,0.1,0,0.2,0.1c0,0.1,0.1,0.2,0.1,0.2l1.3,5.9h-3.2
						L142.6,13.8z M140.7,22.7h4.4l0.9,3.9h3.8l-3.3-13.7c-0.1-0.4-0.3-0.9-0.6-1.2c-0.2-0.3-0.5-0.5-0.9-0.7
						c-0.3-0.2-0.7-0.3-1-0.3c-0.4-0.1-0.7-0.1-1.1-0.1c-0.4,0-0.7,0-1.1,0.1c-0.3,0.1-0.7,0.2-1,0.3c-0.3,0.2-0.6,0.4-0.8,0.7
						c-0.3,0.4-0.5,0.8-0.6,1.2l-3.3,13.7h3.8L140.7,22.7z"/>
				</g>
				<g id="g4496">
					<path id="path4498" class="st0" d="M174.7,13.8c0-0.2,0.1-0.3,0.3-0.3s0.2,0,0.2,0.1c0,0.1,0.1,0.2,0.1,0.2l1.3,5.9h-3.2
						L174.7,13.8z M177.2,22.7l0.9,3.9h3.8l-3.3-13.7c-0.1-0.4-0.3-0.9-0.6-1.3c-0.2-0.3-0.5-0.5-0.9-0.7c-0.3-0.2-0.7-0.3-1-0.3
						c-0.7-0.1-1.5-0.1-2.2,0c-0.3,0.1-0.7,0.2-1,0.3c-0.3,0.2-0.6,0.4-0.9,0.7c-0.3,0.4-0.5,0.8-0.6,1.3l-3.3,13.7h3.8l0.9-3.9
						H177.2z"/>
				</g>
			</g>
			<g id="g6427">
				<g id="g4424">
					<path id="path4426" class="st0" d="M140.3,35.5c0.1-0.4,0.3-0.8,0.6-1.1c0.2-0.3,0.5-0.5,0.8-0.6c0.3-0.1,0.7-0.2,1-0.2h3.6
						v-2.3l0,0l0,0v-0.8h-3.7c-0.8,0-1.6,0.1-2.4,0.3c-0.7,0.2-1.4,0.6-2,1.1c-0.6,0.6-1.1,1.3-1.4,2.1c-0.4,1-0.6,2.1-0.5,3.2V40
						c0,1.1,0.1,2.2,0.5,3.2c0.3,0.8,0.8,1.5,1.4,2.1c0.6,0.5,1.3,0.9,2,1.2c0.8,0.2,1.6,0.3,2.4,0.3h3.6V46c0,0,0-0.1,0-0.1l0,0
						v-2.3h-3.6c-0.3,0-0.7-0.1-1-0.2c-0.3-0.1-0.6-0.3-0.8-0.6c-0.3-0.3-0.5-0.7-0.6-1.1c-0.2-0.6-0.2-1.2-0.2-1.8v-2.7
						C140,36.7,140.1,36.1,140.3,35.5"/>
				</g>
				<g id="g4456">
					<path id="path4458" class="st0" d="M90.2,30.6H78.7v3h3.9v12.9h3.7V33.7h3.9V31l0,0V30.6z"/>
				</g>
				<g id="g4460">
					<path id="path4462" class="st0" d="M117.9,43.4h-4.6c-0.2,0-0.2,0-0.2-0.2c0-0.1,0-0.2,0.1-0.2l6.1-9.3
						c0.1-0.2,0.2-0.4,0.2-0.5v-0.5l0,0v-2h-10.5v3.2h5.8c0.2,0,0.2,0.1,0.2,0.2c0,0.1,0,0.2-0.1,0.2l-6,9c-0.1,0.2-0.2,0.3-0.3,0.5
						c0,0.1-0.1,0.3-0.1,0.4v2.4h11v-3.2L117.9,43.4L117.9,43.4z"/>
				</g>
				<g id="g4464">
					<path id="path4466" class="st0" d="M133,30.5h-4.8c-0.6,0-1.2,0.1-1.8,0.2c-0.6,0.1-1.2,0.3-1.7,0.7c-0.5,0.4-0.9,0.8-1.2,1.4
						c-0.3,0.7-0.5,1.5-0.4,2.3v7.1c0,0.8,0.1,1.6,0.4,2.4c0.2,0.6,0.6,1,1.2,1.4c0.5,0.3,1.1,0.6,1.7,0.7c0.7,0.1,1.3,0.2,2,0.2
						h4.6v-3.1h-4.8c-0.4,0-0.8-0.1-1.1-0.3c-0.2-0.3-0.4-0.7-0.3-1.2v-2.3h6V37h-6v-2c0-0.4,0.1-0.8,0.3-1.1
						c0.3-0.2,0.7-0.4,1.1-0.3h4.8v-0.4l0,0v-2l0,0V30.5z"/>
				</g>
				<g id="g4468">
					<path id="path4470" class="st0" d="M149.8,31v13.5l0,0v2.1h3.7v-0.4l0,0V30.6h-3.7L149.8,31z"/>
				</g>
				<g id="g4488">
					<path id="path4490" class="st0" d="M101.4,35.7c0,0.3,0,0.6-0.2,0.9c-0.1,0.3-0.3,0.5-0.5,0.6c-0.3,0.2-0.6,0.3-0.9,0.4
						c-0.5,0.1-0.9,0.1-1.4,0.1H97v-4.2h1.7c0.7,0,1.4,0.1,2.1,0.5c0.5,0.3,0.8,0.9,0.7,1.4L101.4,35.7z M104.3,38.5
						c0.6-0.8,0.8-1.8,0.8-2.8v-0.3c0-0.8-0.1-1.6-0.5-2.4c-0.3-0.6-0.8-1.2-1.4-1.5c-0.6-0.4-1.3-0.7-2-0.8
						c-0.8-0.2-1.7-0.2-2.6-0.2h-5.4v3.1l0,0v10.8l0,0v2.2H97v-5.8h1.8l3.1,5.8h4l-3.5-6.6C103.1,39.7,103.8,39.2,104.3,38.5"/>
				</g>
				<g id="g4500">
					<path id="path4502" class="st0" d="M161.6,39.7l1.3-5.9c0-0.2,0.1-0.3,0.3-0.3s0.2,0,0.2,0.1c0,0.1,0.1,0.2,0.1,0.3l1.3,5.9
						L161.6,39.7z M166.2,31.6c-0.2-0.3-0.5-0.5-0.9-0.7c-0.3-0.2-0.7-0.3-1-0.3c-0.4-0.1-0.7-0.1-1.1-0.1c-0.4,0-0.7,0-1.1,0.1
						c-0.3,0.1-0.7,0.2-1,0.3c-0.3,0.2-0.6,0.4-0.9,0.7c-0.3,0.4-0.5,0.8-0.6,1.2l-3.3,13.8h3.8l0.9-3.9h4.4l0.9,3.9h3.8l-3.3-13.8
						C166.7,32.4,166.5,32,166.2,31.6"/>
				</g>
			</g>
			<g id="g6443">
				<g id="g4428">
					<path id="path4430" class="st0" d="M86.7,58l-2.8-1.5c-0.3-0.2-0.5-0.3-0.7-0.4c-0.2-0.1-0.3-0.2-0.4-0.3
						c-0.1-0.1-0.2-0.2-0.2-0.3c0-0.1-0.1-0.3-0.1-0.4c0-0.3,0.1-0.7,0.4-0.9c0.4-0.2,0.8-0.3,1.3-0.3h4.9v-3.2h-4.9
						c-0.9,0-1.8,0.1-2.6,0.3c-0.6,0.2-1.2,0.5-1.7,0.9c-0.4,0.4-0.7,0.8-0.9,1.3c-0.2,0.5-0.3,1.1-0.3,1.6c0,0.4,0,0.8,0.1,1.1
						c0.1,0.4,0.2,0.7,0.4,1.1c0.2,0.4,0.5,0.7,0.8,1c0.4,0.4,0.8,0.7,1.2,0.9l3,1.8c0.4,0.2,0.8,0.5,1.1,0.8
						c0.2,0.2,0.3,0.5,0.3,0.8c0,0.4-0.1,0.8-0.4,1.1c-0.4,0.3-1,0.4-1.5,0.4h-4.6V67h4.5c0.9,0,1.8-0.1,2.7-0.4
						c0.7-0.2,1.3-0.6,1.8-1.1c0.4-0.4,0.8-0.9,1-1.5c0.2-0.5,0.3-1.1,0.3-1.7c0-0.8-0.2-1.7-0.6-2.4C88.4,59.1,87.6,58.4,86.7,58"
						/>
				</g>
				<g id="g4432">
					<path id="path4434" class="st0" d="M114.8,56c0,0.3,0,0.6-0.2,0.9c-0.1,0.3-0.3,0.5-0.5,0.6c-0.3,0.2-0.6,0.3-0.9,0.4
						c-0.5,0.1-0.9,0.1-1.4,0.1h-1.5v-4.2h1.7c0.7,0,1.4,0.1,2.1,0.5c0.5,0.3,0.8,0.9,0.7,1.5L114.8,56z M117.7,58.8
						c0.6-0.8,0.9-1.8,0.8-2.8v-0.3c0-0.8-0.1-1.6-0.5-2.4c-0.3-0.6-0.8-1.2-1.4-1.5c-0.6-0.4-1.3-0.7-2.1-0.8
						c-0.8-0.2-1.7-0.3-2.6-0.3h-5.3v3.1l0,0v10.8l0,0v2.2h3.7V61h1.8l3.1,5.8h4l-3.5-6.5C116.5,60,117.2,59.5,117.7,58.8"/>
				</g>
				<g id="g4436">
					<path id="path4438" class="st0" d="M130.5,60.1c0.1,1-0.1,2-0.7,2.8c-1,1.1-2.8,1.2-3.9,0.1c0,0-0.1-0.1-0.1-0.1
						c-0.5-0.8-0.7-1.8-0.7-2.8v-2.6c-0.1-1,0.1-2,0.7-2.8c1-1.1,2.8-1.2,3.9-0.1c0,0,0.1,0.1,0.1,0.1c0.5,0.8,0.7,1.8,0.7,2.8V60.1
						z M132.3,52.3c-0.6-0.5-1.2-1-2-1.2c-1.6-0.5-3.4-0.5-5,0c-0.7,0.2-1.4,0.7-2,1.2c-0.6,0.6-1.1,1.3-1.3,2.1
						c-0.4,1-0.5,2.1-0.5,3.2v2.5c0,1.1,0.1,2.2,0.5,3.2c0.3,0.8,0.7,1.5,1.3,2.1c0.6,0.5,1.3,1,2,1.2c1.6,0.5,3.4,0.5,5,0
						c0.8-0.2,1.4-0.7,2-1.2c0.6-0.6,1.1-1.3,1.4-2.1c0.4-1,0.5-2.1,0.5-3.2v-2.5c0-1.1-0.1-2.2-0.5-3.2
						C133.4,53.6,133,52.9,132.3,52.3"/>
				</g>
				<g id="g4440">
					<path id="path4442" class="st0" d="M185.1,56c0,0.6-0.2,1.2-0.7,1.6c-0.6,0.4-1.4,0.6-2.1,0.5h-1.7v-4.5h1.7
						c0.7,0,1.4,0.1,2,0.5c0.5,0.4,0.8,1,0.7,1.6L185.1,56z M186.8,51.8c-0.6-0.4-1.3-0.7-2.1-0.8c-0.8-0.2-1.6-0.2-2.4-0.2H177v3
						l0,0v13.1h3.6v-5.6h1.7c0.8,0,1.6-0.1,2.4-0.3c0.7-0.1,1.4-0.4,2.1-0.8c0.6-0.4,1.1-1,1.4-1.6c0.4-0.8,0.6-1.6,0.5-2.5v-0.2
						c0-0.9-0.2-1.7-0.5-2.5C187.9,52.7,187.4,52.2,186.8,51.8"/>
				</g>
				<g id="g4472">
					<path id="path4474" class="st0" d="M103.6,50.9H92.1v3H96v12.9h3.7V53.9h3.9L103.6,50.9L103.6,50.9z"/>
				</g>
				<g id="g4476">
					<path id="path4478" class="st0" d="M147.6,50.9h-0.4v9.5c0,0.1,0,0.2-0.1,0.2s-0.1,0-0.2-0.2l-5.1-8.8
						c-0.1-0.2-0.2-0.4-0.4-0.5c-0.1-0.1-0.3-0.2-0.5-0.2h-3v1.9l0,0v14h3.4v-9.1c0-0.1,0-0.2,0.1-0.2s0.1,0.1,0.2,0.2l4.9,8.5
						c0.1,0.2,0.3,0.4,0.5,0.6c0.2,0.1,0.4,0.1,0.6,0.1h2.9V50.9H147.6L147.6,50.9z"/>
				</g>
				<g id="g4480">
					<path id="path4482" class="st0" d="M173.1,63.3h-3.4v3.5h3.4v-0.4l0,0v-2.7l0,0V63.3z"/>
				</g>
				<g id="g4484">
					<path id="path4486" class="st0" d="M200.7,63.9H197c-0.4,0-0.8-0.1-1.1-0.3c-0.2-0.3-0.4-0.7-0.3-1.1V50.9H192v11.5
						c0,0.8,0.1,1.6,0.4,2.4c0.3,0.6,0.7,1,1.1,1.4c0.5,0.3,1.1,0.6,1.7,0.7c0.7,0.1,1.3,0.2,2,0.2h3.9v-3.2H200.7z"/>
				</g>
				<g id="g4504">
					<path id="path4506" class="st0" d="M158.7,60l1.3-5.9c0-0.2,0.1-0.3,0.3-0.3s0.2,0,0.2,0.1c0,0.1,0.1,0.2,0.1,0.3l1.3,5.9
						H158.7z M163.3,51.9c-0.2-0.3-0.5-0.5-0.9-0.7c-0.3-0.2-0.7-0.3-1-0.3c-0.4-0.1-0.7-0.1-1.1-0.1c-0.4,0-0.7,0-1.1,0.1
						c-0.3,0.1-0.7,0.2-1,0.3c-0.3,0.2-0.6,0.4-0.9,0.7c-0.3,0.4-0.5,0.8-0.6,1.2l-3.3,13.7h3.8l0.9-3.9h4.4l0.9,3.9h3.8l-3.3-13.7
						C163.8,52.7,163.6,52.2,163.3,51.9"/>
				</g>
			</g>
		</g>
		<path id="path4878" class="st1" d="M34.8,0L9.3,6.9c0,0-3.3,18-3.3,26.2c0,13.1,0.6,20.7,28.8,37.4"/>
		<g id="g4880">
			<path id="path4882" class="st2" d="M34.8,0l25.5,6.9c0,0,3.3,18,3.3,26.2c0,13.1-0.6,20.7-28.8,37.4"/>
		</g>
		<g id="g4884">
			<path id="path4886" class="st0" d="M43.6,68.7h-5.5c-0.1-1.9-1.7-3.3-3.6-3.2c-1.7,0.1-3.1,1.5-3.2,3.2h-5.5
				c-0.2-4.9,3.7-9.1,8.6-9.2c4.9-0.2,9.1,3.7,9.2,8.6C43.6,68.3,43.6,68.5,43.6,68.7"/>
		</g>
		<g id="g4888">
			<path id="path4890" class="st0" d="M20.8,64.6l-5.3-1.6c2.5-8.5,10.3-14.3,19.1-14.3c8.8,0,16.5,5.7,19.1,14.1l-5.3,1.6
				c-1.8-6.1-7.5-10.2-13.8-10.2C28.3,54.3,22.6,58.5,20.8,64.6"/>
		</g>
		<g id="g4896">
			<path id="path4898" class="st3" d="M66.3,13.2l-5.4-1.6c1.1,5.9,2.8,16,2.8,21.5c0,13.1-0.7,20.7-28.8,37.3v0.1h-0.1h-0.1v-0.1
				C6.6,53.8,6,46.2,6,33.1c0-5.6,1.5-15.6,2.5-21.5l-5.3,1.6c-1.9,6.4-3,13-3.2,19.7c0,15.5,1.4,24.5,34.7,44.3v0.1h0.1h0.1v-0.1
				c33.3-19.8,34.7-28.8,34.7-44.3C69.3,26.2,68.2,19.6,66.3,13.2"/>
		</g>
	</g>
</g>
</svg>
