<?xml version="1.0" encoding="utf-8"?>
<!-- Generator: Adobe Illustrator 16.0.0, SVG Export Plug-In . SVG Version: 6.00 Build 0)  -->
<!DOCTYPE svg PUBLIC "-//W3C//DTD SVG 1.1//EN" "http://www.w3.org/Graphics/SVG/1.1/DTD/svg11.dtd" [
	<!ENTITY ns_extend "http://ns.adobe.com/Extensibility/1.0/">
	<!ENTITY ns_ai "http://ns.adobe.com/AdobeIllustrator/10.0/">
	<!ENTITY ns_graphs "http://ns.adobe.com/Graphs/1.0/">
	<!ENTITY ns_vars "http://ns.adobe.com/Variables/1.0/">
	<!ENTITY ns_imrep "http://ns.adobe.com/ImageReplacement/1.0/">
	<!ENTITY ns_sfw "http://ns.adobe.com/SaveForWeb/1.0/">
	<!ENTITY ns_custom "http://ns.adobe.com/GenericCustomNamespace/1.0/">
	<!ENTITY ns_adobe_xpath "http://ns.adobe.com/XPath/1.0/">
]>
<svg version="1.1" id="Layer_1" xmlns:x="&ns_extend;" xmlns:i="&ns_ai;" xmlns:graph="&ns_graphs;"
	 xmlns="http://www.w3.org/2000/svg" xmlns:xlink="http://www.w3.org/1999/xlink" x="0px" y="0px" width="118.649px"
	 height="371.382px" viewBox="0 0 118.649 371.382" enable-background="new 0 0 118.649 371.382" xml:space="preserve">
<metadata>
	<sfw  xmlns="&ns_sfw;">
		<slices></slices>
		<sliceSourceBounds  width="118.648" height="371.382" x="525.914" y="-587.158" bottomLeftOrigin="true"></sliceSourceBounds>
	</sfw>
</metadata>
<g>
	<path fill="#0000FF" d="M0.278,9.993c1.479-1.389,2.541-2.414,3.186-3.076c0.644-0.662,1.135-1.279,1.474-1.85
		c0.338-0.571,0.507-1.156,0.507-1.753c0-0.475-0.152-0.851-0.458-1.129s-0.716-0.417-1.23-0.417c-0.312,0-0.608,0.035-0.89,0.105
		s-0.519,0.155-0.71,0.255S1.845,2.32,1.797,2.408C1.558,2.83,1.438,3.062,1.438,3.103c0,0.006,0.003,0.009,0.009,0.009
		c0.013-0.006,0.03-0.018,0.055-0.035c0.023-0.018,0.046-0.029,0.067-0.035c0.021-0.006,0.034,0.006,0.04,0.035L1.51,3.252
		L1.366,3.173L0,2.162C0.443,1.465,0.987,0.93,1.631,0.558S2.995,0,3.792,0c0.683,0,1.296,0.139,1.842,0.417
		c0.545,0.278,0.972,0.667,1.28,1.165C7.222,2.08,7.376,2.651,7.376,3.296c0,0.639-0.154,1.251-0.462,1.837
		C6.605,5.719,6.201,6.287,5.701,6.838C5.2,7.389,4.466,8.139,3.495,9.088L2.759,9.8h3.746c0.197,0,0.343-0.01,0.436-0.031
		s0.176-0.063,0.247-0.127h0.207v1.828H0.278V9.993z"/>
	<path fill="#0000FF" d="M17.808,6.521V4.878h8.841v1.644H17.808z"/>
</g>
<g>
	<path fill="#000099" d="M36.207,6.521V4.878h8.841v1.644H36.207z"/>
	<path fill="#000099" d="M54.606,6.521V4.878h8.841v1.644H54.606z"/>
	<path fill="#000099" d="M73.006,6.521V4.878h8.842v1.644H73.006z"/>
	<path fill="#000099" d="M91.407,6.521V4.878h8.842v1.644H91.407z"/>
	<path fill="#000099" d="M109.807,6.521V4.878h8.84v1.644H109.807z"/>
</g>
<g>
	<path fill="#000099" d="M3.073,35.464v-8.93l-1.968,0.58l-0.494-1.23l3.108-1.635h1.375v11.215H3.073z"/>
</g>
<g>
	<path fill="#E10B31" d="M18.679,33.987c1.479-1.389,2.541-2.414,3.186-3.076c0.644-0.662,1.135-1.279,1.474-1.85
		c0.338-0.571,0.507-1.156,0.507-1.753c0-0.475-0.152-0.851-0.458-1.129s-0.716-0.417-1.23-0.417c-0.312,0-0.608,0.035-0.89,0.105
		s-0.519,0.155-0.71,0.255s-0.312,0.193-0.359,0.281c-0.239,0.422-0.359,0.653-0.359,0.694c0,0.006,0.003,0.009,0.009,0.009
		c0.013-0.006,0.03-0.018,0.055-0.035c0.023-0.018,0.046-0.029,0.067-0.035c0.021-0.006,0.034,0.006,0.04,0.035l-0.099,0.176
		l-0.144-0.079L18.4,26.156c0.443-0.697,0.987-1.232,1.631-1.604s1.364-0.558,2.161-0.558c0.683,0,1.296,0.139,1.842,0.417
		c0.545,0.278,0.972,0.667,1.28,1.165c0.308,0.498,0.462,1.069,0.462,1.714c0,0.639-0.154,1.251-0.462,1.837
		c-0.309,0.586-0.713,1.154-1.213,1.705c-0.501,0.551-1.235,1.301-2.206,2.25l-0.736,0.712h3.746c0.197,0,0.343-0.01,0.436-0.031
		s0.176-0.063,0.247-0.127h0.207v1.828h-7.116V33.987z"/>
	<path fill="#E10B31" d="M43.61,30.476c0.365,0.478,0.548,1.091,0.548,1.841c0,0.65-0.154,1.241-0.463,1.771
		s-0.753,0.949-1.334,1.257s-1.27,0.461-2.066,0.461c-1.569,0-2.765-0.504-3.585-1.512l0.854-1.679l0.009-0.009l0.01,0.018
		c0.27,0.51,0.621,0.876,1.056,1.099c0.434,0.223,0.992,0.334,1.675,0.334c0.563,0,1.002-0.166,1.316-0.497s0.472-0.772,0.472-1.323
		c0-0.604-0.172-1.053-0.517-1.349s-0.927-0.444-1.747-0.444c-0.288,0-0.608,0.018-0.962,0.053v-1.626
		c0.09,0.006,0.219,0.009,0.387,0.009c0.946,0,1.604-0.149,1.972-0.448c0.369-0.299,0.553-0.715,0.553-1.248
		c0-0.434-0.13-0.785-0.391-1.055s-0.628-0.404-1.101-0.404c-0.413,0-0.795,0.07-1.146,0.211s-0.718,0.384-1.101,0.729l-1.159-1.16
		c0.438-0.51,0.946-0.889,1.527-1.138s1.201-0.374,1.86-0.374c0.7,0,1.321,0.13,1.864,0.391c0.542,0.261,0.964,0.618,1.267,1.072
		c0.302,0.454,0.453,0.962,0.453,1.525c0,0.604-0.157,1.124-0.472,1.56s-0.69,0.751-1.127,0.945
		C42.796,29.669,43.245,29.999,43.61,30.476z M37.537,32.493c0-0.012,0.006-0.018,0.018-0.018s0.036,0.009,0.072,0.026l-0.055,0.105
		C37.549,32.561,37.537,32.522,37.537,32.493z M37.833,32.59c0,0.006-0.003,0.009-0.009,0.009c-0.018,0-0.05-0.013-0.095-0.04
		s-0.079-0.045-0.103-0.057l0.009-0.026l0.188,0.088L37.833,32.59z"/>
</g>
<g>
	<path fill="#000099" d="M54.607,30.516v-1.644h8.84v1.644H54.607z"/>
	<path fill="#000099" d="M73.008,30.516v-1.644h8.84v1.644H73.008z"/>
	<path fill="#000099" d="M91.407,30.516v-1.644h8.842v1.644H91.407z"/>
	<path fill="#000099" d="M109.807,30.516v-1.644h8.842v1.644H109.807z"/>
</g>
<g>
	<path fill="#E10B31" d="M39.873,59.458v-8.93l-1.968,0.58l-0.494-1.23l3.108-1.635h1.375v11.215H39.873z"/>
</g>
<g>
	<path fill="#000099" d="M54.607,54.51v-1.644h8.84v1.644H54.607z"/>
	<path fill="#000099" d="M73.008,54.51v-1.644h8.84v1.644H73.008z"/>
	<path fill="#000099" d="M91.407,54.51v-1.644h8.842v1.644H91.407z"/>
	<path fill="#000099" d="M109.807,54.51v-1.644h8.842v1.644H109.807z"/>
</g>
<g>
	<path fill="#000099" d="M39.874,83.452v-8.93l-1.968,0.58l-0.494-1.23l3.108-1.635h1.375v11.215H39.874z"/>
	<path fill="#000099" d="M55.479,81.976c1.479-1.389,2.541-2.414,3.186-3.076c0.644-0.662,1.135-1.279,1.473-1.85
		c0.338-0.571,0.508-1.156,0.508-1.753c0-0.475-0.152-0.851-0.459-1.129c-0.305-0.278-0.715-0.417-1.23-0.417
		c-0.312,0-0.608,0.035-0.89,0.105s-0.519,0.155-0.71,0.255s-0.312,0.193-0.359,0.281c-0.239,0.422-0.359,0.653-0.359,0.694
		c0,0.006,0.003,0.009,0.009,0.009c0.013-0.006,0.03-0.018,0.055-0.035c0.023-0.018,0.046-0.029,0.067-0.035
		c0.021-0.006,0.034,0.006,0.04,0.035l-0.099,0.176l-0.144-0.079L55.2,74.145c0.443-0.697,0.987-1.232,1.631-1.604
		s1.364-0.558,2.161-0.558c0.683,0,1.295,0.139,1.842,0.417c0.545,0.278,0.971,0.667,1.279,1.165s0.463,1.069,0.463,1.714
		c0,0.639-0.154,1.251-0.463,1.837s-0.713,1.154-1.213,1.705s-1.235,1.301-2.206,2.25l-0.736,0.712h3.747
		c0.197,0,0.342-0.01,0.436-0.031c0.092-0.021,0.176-0.063,0.246-0.127h0.207v1.828h-7.116V81.976z"/>
	<path fill="#000099" d="M73.008,78.504V76.86h8.84v1.644H73.008z"/>
	<path fill="#000099" d="M91.407,78.504V76.86h8.842v1.644H91.407z"/>
	<path fill="#000099" d="M109.807,78.504V76.86h8.842v1.644H109.807z"/>
</g>
<g>
	<path fill="#0000FF" d="M62.01,102.458c0.365,0.478,0.549,1.091,0.549,1.841c0,0.65-0.154,1.241-0.463,1.771
		s-0.754,0.949-1.334,1.257c-0.582,0.308-1.27,0.461-2.067,0.461c-1.569,0-2.765-0.504-3.585-1.512l0.854-1.679l0.009-0.009
		l0.01,0.018c0.27,0.51,0.621,0.876,1.056,1.099c0.434,0.223,0.992,0.334,1.675,0.334c0.563,0,1.002-0.166,1.316-0.497
		c0.315-0.331,0.471-0.772,0.471-1.323c0-0.604-0.172-1.053-0.516-1.349c-0.345-0.296-0.927-0.444-1.747-0.444
		c-0.288,0-0.608,0.018-0.962,0.053v-1.626c0.09,0.006,0.219,0.009,0.387,0.009c0.946,0,1.604-0.149,1.972-0.448
		c0.369-0.299,0.552-0.715,0.552-1.248c0-0.434-0.129-0.785-0.39-1.055s-0.628-0.404-1.101-0.404c-0.413,0-0.795,0.07-1.146,0.211
		s-0.718,0.384-1.101,0.729l-1.159-1.16c0.438-0.51,0.946-0.889,1.527-1.138s1.201-0.374,1.86-0.374c0.7,0,1.321,0.13,1.864,0.391
		c0.543,0.261,0.965,0.618,1.268,1.072c0.301,0.454,0.453,0.962,0.453,1.525c0,0.604-0.158,1.124-0.473,1.56
		s-0.689,0.751-1.127,0.945C61.196,101.651,61.645,101.981,62.01,102.458z M55.938,104.476c0-0.012,0.006-0.018,0.018-0.018
		s0.036,0.009,0.072,0.026l-0.055,0.105C55.949,104.543,55.938,104.505,55.938,104.476z M56.233,104.572
		c0,0.006-0.003,0.009-0.009,0.009c-0.018,0-0.05-0.013-0.095-0.04s-0.079-0.045-0.103-0.057l0.009-0.026l0.188,0.088
		L56.233,104.572z"/>
	<path fill="#0000FF" d="M73.008,102.498v-1.644h8.84v1.644H73.008z"/>
</g>
<g>
	<path fill="#000099" d="M91.407,102.498v-1.644h8.842v1.644H91.407z"/>
	<path fill="#000099" d="M109.807,102.498v-1.644h8.842v1.644H109.807z"/>
</g>
<g>
	<path fill="#0000FF" d="M55.479,129.964c1.479-1.389,2.541-2.414,3.186-3.076c0.644-0.662,1.135-1.279,1.473-1.85
		c0.338-0.571,0.508-1.156,0.508-1.753c0-0.475-0.152-0.851-0.459-1.129c-0.305-0.278-0.715-0.417-1.23-0.417
		c-0.312,0-0.608,0.035-0.89,0.105s-0.519,0.155-0.71,0.255s-0.312,0.193-0.359,0.281c-0.239,0.422-0.359,0.653-0.359,0.694
		c0,0.006,0.003,0.009,0.009,0.009c0.013-0.006,0.03-0.018,0.055-0.035c0.023-0.018,0.046-0.029,0.067-0.035
		c0.021-0.006,0.034,0.006,0.04,0.035l-0.099,0.176l-0.144-0.079l-1.366-1.011c0.443-0.697,0.987-1.232,1.631-1.604
		s1.364-0.558,2.161-0.558c0.683,0,1.295,0.139,1.842,0.417c0.545,0.278,0.971,0.667,1.279,1.165s0.463,1.069,0.463,1.714
		c0,0.639-0.154,1.251-0.463,1.837s-0.713,1.154-1.213,1.705s-1.235,1.301-2.206,2.25l-0.736,0.712h3.747
		c0.197,0,0.342-0.01,0.436-0.031c0.092-0.021,0.176-0.063,0.246-0.127h0.207v1.828h-7.116V129.964z"/>
</g>
<g>
	<path fill="#000099" d="M73.006,126.492v-1.644h8.842v1.644H73.006z"/>
	<path fill="#000099" d="M91.407,126.492v-1.644h8.842v1.644H91.407z"/>
	<path fill="#000099" d="M109.807,126.492v-1.644h8.84v1.644H109.807z"/>
</g>
<g>
	<path fill="#000099" d="M58.273,155.435v-8.93l-1.968,0.58l-0.494-1.23l3.108-1.635h1.375v11.215H58.273z"/>
	<path fill="#000099" d="M73.877,153.958c1.48-1.389,2.541-2.414,3.186-3.076s1.135-1.279,1.475-1.85
		c0.338-0.571,0.506-1.156,0.506-1.753c0-0.475-0.152-0.851-0.457-1.129c-0.307-0.278-0.717-0.417-1.23-0.417
		c-0.313,0-0.609,0.035-0.891,0.105s-0.518,0.155-0.709,0.255s-0.313,0.193-0.359,0.281c-0.24,0.422-0.359,0.653-0.359,0.694
		c0,0.006,0.002,0.009,0.008,0.009c0.014-0.006,0.031-0.018,0.055-0.035s0.047-0.029,0.068-0.035
		c0.02-0.006,0.033,0.006,0.039,0.035l-0.098,0.176l-0.145-0.079l-1.365-1.011c0.443-0.697,0.986-1.232,1.631-1.604
		c0.643-0.372,1.363-0.558,2.16-0.558c0.684,0,1.297,0.139,1.842,0.417s0.973,0.667,1.281,1.165
		c0.307,0.498,0.461,1.069,0.461,1.714c0,0.639-0.154,1.251-0.461,1.837c-0.309,0.586-0.713,1.154-1.213,1.705
		c-0.502,0.551-1.236,1.301-2.207,2.25l-0.736,0.712h3.746c0.197,0,0.344-0.01,0.436-0.031c0.094-0.021,0.176-0.063,0.248-0.127
		h0.207v1.828h-7.117V153.958z"/>
	<path fill="#000099" d="M91.407,150.486v-1.644h8.842v1.644H91.407z"/>
	<path fill="#000099" d="M109.807,150.486v-1.644h8.84v1.644H109.807z"/>
</g>
<g>
	<path fill="#0000FF" d="M76.674,179.429v-8.93l-1.969,0.58l-0.494-1.23l3.109-1.635h1.375v11.215H76.674z"/>
	<path fill="#0000FF" d="M95.073,179.429v-8.93l-1.967,0.58l-0.494-1.23l3.107-1.635h1.375v11.215H95.073z"/>
</g>
<g>
	<path fill="#000099" d="M109.807,174.48v-1.644h8.842v1.644H109.807z"/>
</g>
<g>
	<path fill="#E10B31" d="M95.073,203.423v-8.93l-1.967,0.58l-0.494-1.23l3.107-1.635h1.375v11.215H95.073z"/>
</g>
<g>
	<path fill="#0000FF" d="M109.807,198.475v-1.644h8.842v1.644H109.807z"/>
</g>
<g>
	<path fill="#000099" d="M92.278,225.94c1.48-1.389,2.541-2.414,3.186-3.076s1.135-1.279,1.475-1.85
		c0.338-0.572,0.506-1.156,0.506-1.754c0-0.475-0.152-0.852-0.457-1.129c-0.307-0.279-0.717-0.418-1.23-0.418
		c-0.313,0-0.609,0.035-0.891,0.105s-0.518,0.155-0.709,0.255s-0.313,0.193-0.359,0.281c-0.24,0.422-0.359,0.653-0.359,0.694
		c0,0.006,0.002,0.009,0.008,0.009c0.014-0.006,0.031-0.018,0.055-0.035s0.047-0.029,0.068-0.035
		c0.02-0.006,0.033,0.006,0.039,0.035l-0.098,0.176l-0.145-0.079L92,218.109c0.443-0.697,0.986-1.231,1.631-1.604
		c0.643-0.371,1.363-0.558,2.16-0.558c0.684,0,1.297,0.14,1.842,0.417c0.545,0.279,0.973,0.667,1.281,1.165
		c0.307,0.498,0.461,1.069,0.461,1.714c0,0.639-0.154,1.251-0.461,1.837c-0.309,0.586-0.713,1.154-1.213,1.705
		c-0.502,0.551-1.236,1.301-2.207,2.25l-0.736,0.712h3.746c0.197,0,0.344-0.01,0.436-0.031c0.094-0.02,0.176-0.063,0.248-0.127
		h0.207v1.828h-7.117V225.94z"/>
	<path fill="#000099" d="M109.807,222.469v-1.644h8.842v1.644H109.807z"/>
</g>
<g>
	<path fill="#000099" d="M95.073,251.411v-8.93l-1.967,0.58l-0.494-1.23l3.107-1.635h1.375v11.215H95.073z"/>
	<path fill="#000099" d="M109.807,246.463v-1.644h8.842v1.644H109.807z"/>
</g>
<g>
	<path fill="#E10B31" d="M76.674,275.405v-8.93l-1.969,0.58l-0.494-1.23l3.109-1.635h1.375v11.215H76.674z"/>
	<path fill="#E10B31" d="M92.278,273.929c1.48-1.389,2.541-2.414,3.186-3.076s1.135-1.279,1.475-1.85
		c0.338-0.572,0.506-1.156,0.506-1.754c0-0.475-0.152-0.852-0.457-1.129c-0.307-0.279-0.717-0.418-1.23-0.418
		c-0.313,0-0.609,0.035-0.891,0.105s-0.518,0.155-0.709,0.255s-0.313,0.193-0.359,0.281c-0.24,0.422-0.359,0.653-0.359,0.694
		c0,0.006,0.002,0.009,0.008,0.009c0.014-0.006,0.031-0.018,0.055-0.035s0.047-0.029,0.068-0.035
		c0.02-0.006,0.033,0.006,0.039,0.035l-0.098,0.176l-0.145-0.079L92,266.098c0.443-0.697,0.986-1.231,1.631-1.604
		c0.643-0.371,1.363-0.558,2.16-0.558c0.684,0,1.297,0.14,1.842,0.417c0.545,0.279,0.973,0.667,1.281,1.165
		c0.307,0.498,0.461,1.069,0.461,1.714c0,0.639-0.154,1.251-0.461,1.837c-0.309,0.586-0.713,1.154-1.213,1.705
		c-0.502,0.551-1.236,1.301-2.207,2.25l-0.736,0.712h3.746c0.197,0,0.344-0.01,0.436-0.031c0.094-0.02,0.176-0.063,0.248-0.127
		h0.207v1.828h-7.117V273.929z"/>
</g>
<g>
	<path fill="#000099" d="M109.807,270.457v-1.644h8.842v1.644H109.807z"/>
</g>
<g>
	<path fill="#E10B31" d="M73.877,297.923c1.48-1.389,2.541-2.414,3.186-3.076s1.135-1.279,1.475-1.85
		c0.338-0.572,0.506-1.156,0.506-1.754c0-0.475-0.152-0.852-0.457-1.129c-0.307-0.279-0.717-0.418-1.23-0.418
		c-0.313,0-0.609,0.035-0.891,0.105s-0.518,0.155-0.709,0.255s-0.313,0.193-0.359,0.281c-0.24,0.422-0.359,0.653-0.359,0.694
		c0,0.006,0.002,0.009,0.008,0.009c0.014-0.006,0.031-0.018,0.055-0.035s0.047-0.029,0.068-0.035
		c0.02-0.006,0.033,0.006,0.039,0.035l-0.098,0.176l-0.145-0.079l-1.365-1.011c0.443-0.697,0.986-1.231,1.631-1.604
		c0.643-0.371,1.363-0.558,2.16-0.558c0.684,0,1.297,0.14,1.842,0.417c0.545,0.279,0.973,0.667,1.281,1.165
		c0.307,0.498,0.461,1.069,0.461,1.714c0,0.639-0.154,1.251-0.461,1.837c-0.309,0.586-0.713,1.154-1.213,1.705
		c-0.502,0.551-1.236,1.301-2.207,2.25l-0.736,0.712h3.746c0.197,0,0.344-0.01,0.436-0.031c0.094-0.02,0.176-0.063,0.248-0.127
		h0.207v1.828h-7.117V297.923z"/>
</g>
<g>
	<path fill="#000099" d="M91.407,294.451v-1.644h8.842v1.644H91.407z"/>
	<path fill="#000099" d="M109.807,294.451v-1.644h8.84v1.644H109.807z"/>
</g>
<g>
	<path fill="#0000FF" d="M39.873,323.394v-8.93l-1.968,0.58l-0.494-1.23l3.108-1.635h1.375v11.215H39.873z"/>
	<path fill="#0000FF" d="M55.479,321.917c1.479-1.389,2.541-2.414,3.186-3.076c0.644-0.662,1.135-1.279,1.473-1.85
		c0.338-0.572,0.508-1.156,0.508-1.754c0-0.475-0.152-0.852-0.459-1.129c-0.305-0.279-0.715-0.418-1.23-0.418
		c-0.312,0-0.608,0.035-0.89,0.105s-0.519,0.155-0.71,0.255s-0.312,0.193-0.359,0.281c-0.239,0.422-0.359,0.653-0.359,0.694
		c0,0.006,0.003,0.009,0.009,0.009c0.013-0.006,0.03-0.018,0.055-0.035c0.023-0.018,0.046-0.029,0.067-0.035
		c0.021-0.006,0.034,0.006,0.04,0.035l-0.099,0.176l-0.144-0.079l-1.366-1.011c0.443-0.697,0.987-1.231,1.631-1.604
		c0.644-0.371,1.364-0.558,2.161-0.558c0.683,0,1.295,0.14,1.842,0.417c0.545,0.279,0.971,0.667,1.279,1.165
		s0.463,1.069,0.463,1.714c0,0.639-0.154,1.251-0.463,1.837s-0.713,1.154-1.213,1.705s-1.235,1.301-2.206,2.25l-0.736,0.712h3.747
		c0.197,0,0.342-0.01,0.436-0.031c0.092-0.02,0.176-0.063,0.246-0.127h0.207v1.828h-7.116V321.917z"/>
</g>
<g>
	<path fill="#E10B31" d="M77.831,323.394v-2.769h-4.375v-1.266l4.969-7.181h1.482v6.768h1.527v1.696h-1.527v2.751H77.831z
		 M75.584,318.999h2.318v-3.349L75.584,318.999z"/>
</g>
<g>
	<path fill="#000099" d="M91.407,318.445v-1.644h8.842v1.644H91.407z"/>
	<path fill="#000099" d="M109.807,318.445v-1.644h8.842v1.644H109.807z"/>
</g>
<g>
	<path fill="#E10B31" d="M18.679,345.911c1.479-1.389,2.541-2.414,3.186-3.076c0.644-0.662,1.135-1.279,1.474-1.85
		c0.338-0.572,0.507-1.156,0.507-1.754c0-0.475-0.152-0.852-0.458-1.129c-0.306-0.279-0.716-0.418-1.23-0.418
		c-0.312,0-0.608,0.035-0.89,0.105s-0.519,0.155-0.71,0.255s-0.312,0.193-0.359,0.281c-0.239,0.422-0.359,0.653-0.359,0.694
		c0,0.006,0.003,0.009,0.009,0.009c0.013-0.006,0.03-0.018,0.055-0.035c0.023-0.018,0.046-0.029,0.067-0.035
		c0.021-0.006,0.034,0.006,0.04,0.035l-0.099,0.176l-0.144-0.079L18.4,338.08c0.443-0.697,0.987-1.231,1.631-1.604
		c0.644-0.371,1.364-0.558,2.161-0.558c0.683,0,1.296,0.14,1.842,0.417c0.545,0.279,0.972,0.667,1.28,1.165
		c0.308,0.498,0.462,1.069,0.462,1.714c0,0.639-0.154,1.251-0.462,1.837c-0.309,0.586-0.713,1.154-1.213,1.705
		c-0.501,0.551-1.235,1.301-2.206,2.25l-0.736,0.712h3.746c0.197,0,0.343-0.01,0.436-0.031c0.093-0.02,0.176-0.063,0.247-0.127
		h0.207v1.828h-7.116V345.911z"/>
</g>
<g>
	<path fill="#000099" d="M36.207,342.439v-1.644h8.841v1.644H36.207z"/>
	<path fill="#000099" d="M54.607,342.439v-1.644h8.84v1.644H54.607z"/>
	<path fill="#000099" d="M73.006,342.439v-1.644h8.842v1.644H73.006z"/>
	<path fill="#000099" d="M91.407,342.439v-1.644h8.842v1.644H91.407z"/>
</g>
<g>
	<path fill="#0000FF" d="M109.807,342.439v-1.644h8.84v1.644H109.807z"/>
</g>
<g>
	<path fill="#0000FF" d="M18.679,369.905c1.479-1.389,2.541-2.414,3.186-3.076c0.644-0.662,1.135-1.279,1.474-1.85
		c0.338-0.572,0.507-1.156,0.507-1.754c0-0.475-0.152-0.852-0.458-1.129c-0.306-0.279-0.716-0.418-1.23-0.418
		c-0.312,0-0.608,0.035-0.89,0.105s-0.519,0.155-0.71,0.255s-0.312,0.193-0.359,0.281c-0.239,0.422-0.359,0.653-0.359,0.694
		c0,0.006,0.003,0.009,0.009,0.009c0.013-0.006,0.03-0.018,0.055-0.035c0.023-0.018,0.046-0.029,0.067-0.035
		c0.021-0.006,0.034,0.006,0.04,0.035l-0.099,0.176l-0.144-0.079l-1.366-1.011c0.443-0.697,0.987-1.231,1.631-1.604
		c0.644-0.371,1.364-0.558,2.161-0.558c0.683,0,1.296,0.14,1.842,0.417c0.545,0.279,0.972,0.667,1.28,1.165
		c0.308,0.498,0.462,1.069,0.462,1.714c0,0.639-0.154,1.251-0.462,1.837c-0.309,0.586-0.713,1.154-1.213,1.705
		c-0.501,0.551-1.235,1.301-2.206,2.25l-0.736,0.712h3.746c0.197,0,0.343-0.01,0.436-0.031c0.093-0.02,0.176-0.063,0.247-0.127
		h0.207v1.828h-7.116V369.905z"/>
</g>
<g>
	<path fill="#000099" d="M36.207,366.434v-1.644h8.841v1.644H36.207z"/>
	<path fill="#000099" d="M54.607,366.434v-1.644h8.84v1.644H54.607z"/>
	<path fill="#000099" d="M73.006,366.434v-1.644h8.842v1.644H73.006z"/>
	<path fill="#000099" d="M91.407,366.434v-1.644h8.842v1.644H91.407z"/>
	<path fill="#000099" d="M109.807,366.434v-1.644h8.84v1.644H109.807z"/>
</g>
</svg>
