<?xml version="1.0" encoding="utf-8"?>
<!-- Generator: Adobe Illustrator 16.0.0, SVG Export Plug-In . SVG Version: 6.00 Build 0)  -->
<!DOCTYPE svg PUBLIC "-//W3C//DTD SVG 1.1//EN" "http://www.w3.org/Graphics/SVG/1.1/DTD/svg11.dtd" [
	<!ENTITY ns_extend "http://ns.adobe.com/Extensibility/1.0/">
	<!ENTITY ns_ai "http://ns.adobe.com/AdobeIllustrator/10.0/">
	<!ENTITY ns_graphs "http://ns.adobe.com/Graphs/1.0/">
	<!ENTITY ns_vars "http://ns.adobe.com/Variables/1.0/">
	<!ENTITY ns_imrep "http://ns.adobe.com/ImageReplacement/1.0/">
	<!ENTITY ns_sfw "http://ns.adobe.com/SaveForWeb/1.0/">
	<!ENTITY ns_custom "http://ns.adobe.com/GenericCustomNamespace/1.0/">
	<!ENTITY ns_adobe_xpath "http://ns.adobe.com/XPath/1.0/">
]>
<svg version="1.1" id="Layer_1" xmlns:x="&ns_extend;" xmlns:i="&ns_ai;" xmlns:graph="&ns_graphs;"
	 xmlns="http://www.w3.org/2000/svg" xmlns:xlink="http://www.w3.org/1999/xlink" x="0px" y="0px" width="137.173px"
	 height="371.127px" viewBox="0 0 137.173 371.127" enable-background="new 0 0 137.173 371.127" xml:space="preserve">
<metadata>
	<sfw  xmlns="&ns_sfw;">
		<slices></slices>
		<sliceSourceBounds  width="137.173" height="371.127" x="516.889" y="-587.244" bottomLeftOrigin="true"></sliceSourceBounds>
	</sfw>
</metadata>
<g>
	<path fill="#000099" d="M0,6.267V4.623h8.841v1.644H0z"/>
	<path fill="#000099" d="M18.4,6.267V4.623h8.841v1.644H18.4z"/>
	<path fill="#000099" d="M36.8,6.267V4.623h8.841v1.644H36.8z"/>
	<path fill="#000099" d="M55.2,6.267V4.623h8.841v1.644H55.2z"/>
	<path fill="#000099" d="M73.6,6.267V4.623h8.841v1.644H73.6z"/>
</g>
<g>
	<path fill="#E10B31" d="M93.33,11.215L91.928,0h2.013l0.656,7.4l1.348-6.478h1.32l1.348,6.425L99.089,0h1.913l-1.366,11.215h-1.617
		l-1.509-6.82l-1.527,6.82H93.33z"/>
	<path fill="#E10B31" d="M113.697,11.215V1.749h-3.108V0h8.445v1.749h-3.234v9.466H113.697z"/>
	<path fill="#E10B31" d="M129.411,0h2.265v0.202c-0.066,0.07-0.108,0.148-0.127,0.233c-0.018,0.085-0.023,0.227-0.018,0.426v3.691
		h3.379V0h2.264v0.202c-0.066,0.07-0.107,0.148-0.126,0.233s-0.024,0.227-0.019,0.426v10.354h-2.119V6.231h-3.379v4.983h-2.12V0z"/>
</g>
<g>
	<path fill="#000099" d="M0,30.261v-1.644h8.841v1.644H0z"/>
	<path fill="#000099" d="M18.4,30.261v-1.644h8.841v1.644H18.4z"/>
	<path fill="#000099" d="M36.8,30.261v-1.644h8.841v1.644H36.8z"/>
	<path fill="#000099" d="M55.2,30.261v-1.644h8.841v1.644H55.2z"/>
	<path fill="#000099" d="M73.6,30.261v-1.644h8.841v1.644H73.6z"/>
	<path fill="#000099" d="M92.872,33.732c1.479-1.389,2.541-2.414,3.185-3.076c0.645-0.662,1.135-1.279,1.474-1.85
		s0.508-1.156,0.508-1.753c0-0.475-0.153-0.851-0.458-1.129c-0.306-0.278-0.717-0.417-1.23-0.417c-0.313,0-0.609,0.035-0.891,0.105
		s-0.518,0.155-0.709,0.255s-0.313,0.193-0.359,0.281c-0.24,0.422-0.359,0.653-0.359,0.694c0,0.006,0.002,0.009,0.009,0.009
		c0.012-0.006,0.03-0.018,0.054-0.035s0.047-0.029,0.067-0.035s0.034,0.006,0.04,0.035l-0.098,0.176l-0.145-0.079l-1.365-1.011
		c0.443-0.697,0.986-1.232,1.631-1.604c0.643-0.372,1.363-0.558,2.16-0.558c0.684,0,1.297,0.139,1.842,0.417s0.972,0.667,1.28,1.165
		s0.463,1.069,0.463,1.714c0,0.639-0.154,1.251-0.463,1.837s-0.713,1.154-1.213,1.705s-1.235,1.301-2.206,2.25l-0.736,0.712h3.746
		c0.198,0,0.344-0.01,0.436-0.031c0.094-0.021,0.176-0.063,0.248-0.127h0.207v1.828h-7.116V33.732z"/>
</g>
<g>
	<path fill="#000099" d="M116.958,24.478c0.593,0.463,1.047,1.135,1.361,2.017s0.472,1.938,0.472,3.168s-0.157,2.287-0.472,3.168
		s-0.769,1.556-1.361,2.021s-1.306,0.699-2.139,0.699c-0.832,0-1.545-0.233-2.138-0.699s-1.047-1.14-1.361-2.021
		s-0.472-1.938-0.472-3.168s0.157-2.287,0.472-3.168s0.769-1.554,1.361-2.017s1.306-0.694,2.138-0.694
		C115.653,23.783,116.366,24.015,116.958,24.478z M113.742,25.906c-0.299,0.337-0.528,0.825-0.688,1.463
		c-0.158,0.639-0.237,1.403-0.237,2.294c0,0.457,0.023,0.905,0.071,1.345l3.549-4.122c-0.168-0.48-0.389-0.848-0.664-1.103
		s-0.594-0.382-0.953-0.382C114.401,25.4,114.042,25.569,113.742,25.906z M115.898,33.425c0.3-0.34,0.529-0.829,0.688-1.468
		s0.238-1.403,0.238-2.294c0-0.527-0.027-1.005-0.081-1.433l-3.566,4.148c0.167,0.504,0.391,0.889,0.669,1.156
		c0.279,0.267,0.604,0.4,0.975,0.4C115.24,33.935,115.599,33.765,115.898,33.425z"/>
</g>
<g>
	<path fill="#000099" d="M0,54.255v-1.644h8.841v1.644H0z"/>
	<path fill="#000099" d="M18.4,54.255v-1.644h8.841v1.644H18.4z"/>
	<path fill="#000099" d="M36.8,54.255v-1.644h8.841v1.644H36.8z"/>
</g>
<text transform="matrix(1.0222 0 0 1 45.8203 59.2031)" fill="#FFFFFF" font-family="'Inconsolata-Bold'" font-size="18"> </text>
<g>
	<path fill="#000099" d="M55.2,54.255v-1.644h8.841v1.644H55.2z"/>
</g>
<g>
	<path fill="#E10B31" d="M77.265,59.203v-8.93l-1.967,0.58l-0.494-1.23l3.107-1.635h1.375v11.215H77.265z"/>
	<path fill="#E10B31" d="M99.101,49.118c0.603,0.911,0.903,2.292,0.903,4.144c0,4.189-1.312,6.284-3.935,6.284
		c-0.605,0-1.204-0.111-1.797-0.334c-0.594-0.223-1.129-0.557-1.608-1.002l1.239-1.354l0.01-0.009l0.018,0.018
		c0.317,0.311,0.638,0.535,0.961,0.672c0.324,0.138,0.68,0.207,1.069,0.207c0.479,0,0.856-0.101,1.132-0.303s0.479-0.52,0.611-0.954
		s0.222-1.028,0.27-1.784c-0.545,0.574-1.191,0.861-1.94,0.861c-0.575,0-1.128-0.167-1.657-0.501
		c-0.531-0.334-0.961-0.797-1.29-1.389s-0.494-1.257-0.494-1.995c0-0.727,0.165-1.39,0.494-1.991s0.788-1.074,1.375-1.419
		s1.251-0.519,1.994-0.519C97.618,47.751,98.5,48.207,99.101,49.118z M93.877,56.813c0,0-0.008-0.007-0.022-0.022
		c-0.016-0.015-0.022-0.025-0.022-0.031l0.099,0.062l-0.018,0.026C93.889,56.824,93.877,56.813,93.877,56.813z M94.165,56.883
		c0,0.023-0.012,0.035-0.036,0.035c-0.023,0-0.09-0.032-0.197-0.097l0.081-0.079l0.152,0.132V56.883z M97.341,53.468
		c0.248-0.214,0.475-0.535,0.678-0.962c-0.018-0.785-0.086-1.392-0.202-1.819s-0.282-0.724-0.494-0.888
		c-0.213-0.164-0.489-0.246-0.831-0.246c-0.581,0-1.036,0.196-1.365,0.589c-0.33,0.393-0.494,0.946-0.494,1.661
		c0,0.662,0.145,1.159,0.436,1.49c0.29,0.331,0.705,0.497,1.244,0.497C96.75,53.789,97.092,53.682,97.341,53.468z"/>
</g>
<g>
	<path fill="#000099" d="M0,78.249v-1.644h8.841v1.644H0z"/>
	<path fill="#000099" d="M18.4,78.249v-1.644h8.841v1.644H18.4z"/>
	<path fill="#000099" d="M36.8,78.249v-1.644h8.841v1.644H36.8z"/>
	<path fill="#000099" d="M55.2,78.249v-1.644h8.841v1.644H55.2z"/>
</g>
<g>
	<path fill="#000099" d="M77.265,83.197v-8.93l-1.967,0.58l-0.494-1.23l3.107-1.635h1.375v11.215H77.265z"/>
</g>
<text transform="matrix(1.0222 0 0 1 82.6206 83.1973)" fill="#E10B31" font-family="'Inconsolata-Bold'" font-size="18"> </text>
<g>
	<path fill="#000099" d="M0,102.243V100.6h8.841v1.644H0z"/>
	<path fill="#000099" d="M18.4,102.243V100.6h8.841v1.644H18.4z"/>
	<path fill="#000099" d="M36.8,102.243V100.6h8.841v1.644H36.8z"/>
</g>
<text transform="matrix(1.0222 0 0 1 45.8203 107.1914)" fill="#000099" font-family="'Inconsolata-Bold'" font-size="18"> </text>
<g>
	<path fill="#E10B31" d="M62.958,96.842c0.32,0.19,0.574,0.457,0.759,0.8s0.279,0.725,0.279,1.147c0,0.633-0.093,1.201-0.279,1.705
		s-0.413,0.94-0.683,1.31s-0.632,0.809-1.087,1.318c-0.437,0.498-0.785,0.921-1.042,1.27c-0.258,0.349-0.475,0.757-0.651,1.226
		s-0.265,0.993-0.265,1.573h-0.737c0-0.58-0.088-1.104-0.265-1.573c-0.177-0.469-0.394-0.877-0.651-1.226
		c-0.258-0.349-0.605-0.772-1.042-1.27c-0.455-0.51-0.817-0.949-1.087-1.318s-0.498-0.806-0.683-1.31s-0.278-1.072-0.278-1.705
		c0-0.422,0.093-0.804,0.278-1.147s0.439-0.609,0.759-0.8s0.672-0.286,1.056-0.286c0.419,0,0.795,0.079,1.127,0.237
		c0.333,0.158,0.593,0.391,0.782,0.699c0.189,0.308,0.283,0.678,0.283,1.112h0.18c0-0.416,0.104-0.779,0.314-1.09
		c0.209-0.311,0.482-0.548,0.817-0.712s0.689-0.246,1.06-0.246C62.285,96.557,62.637,96.652,62.958,96.842z"/>
</g>
<g>
	<path fill="#000099" d="M74.471,105.715c1.479-1.389,2.541-2.414,3.185-3.076c0.645-0.662,1.135-1.279,1.474-1.85
		s0.508-1.156,0.508-1.753c0-0.475-0.153-0.851-0.458-1.129c-0.306-0.278-0.717-0.417-1.23-0.417c-0.313,0-0.609,0.035-0.891,0.105
		s-0.518,0.155-0.709,0.255s-0.313,0.193-0.359,0.281c-0.24,0.422-0.359,0.653-0.359,0.694c0,0.006,0.002,0.009,0.009,0.009
		c0.012-0.006,0.03-0.018,0.054-0.035s0.047-0.029,0.067-0.035s0.034,0.006,0.04,0.035l-0.098,0.176l-0.145-0.079l-1.365-1.011
		c0.443-0.697,0.986-1.232,1.631-1.604c0.643-0.372,1.363-0.558,2.16-0.558c0.684,0,1.297,0.139,1.842,0.417s0.972,0.667,1.28,1.165
		s0.463,1.069,0.463,1.714c0,0.639-0.154,1.251-0.463,1.837s-0.713,1.154-1.213,1.705s-1.235,1.301-2.206,2.25l-0.736,0.712h3.746
		c0.198,0,0.344-0.01,0.436-0.031c0.094-0.021,0.176-0.063,0.248-0.127h0.207v1.828h-7.116V105.715z"/>
</g>
<g>
	<path fill="#000099" d="M0,126.237v-1.644h8.841v1.644H0z"/>
	<path fill="#000099" d="M18.4,126.237v-1.644h8.841v1.644H18.4z"/>
	<path fill="#000099" d="M36.8,126.237v-1.644h8.841v1.644H36.8z"/>
</g>
<g>
	<path fill="#0000FF" d="M56.071,129.709c1.479-1.389,2.541-2.414,3.185-3.076c0.644-0.662,1.135-1.279,1.473-1.85
		s0.508-1.156,0.508-1.753c0-0.475-0.153-0.851-0.458-1.129c-0.305-0.278-0.716-0.417-1.23-0.417c-0.312,0-0.608,0.035-0.89,0.105
		c-0.282,0.07-0.518,0.155-0.71,0.255c-0.191,0.1-0.312,0.193-0.359,0.281c-0.239,0.422-0.359,0.653-0.359,0.694
		c0,0.006,0.003,0.009,0.009,0.009c0.012-0.006,0.03-0.018,0.054-0.035s0.046-0.029,0.067-0.035s0.035,0.006,0.041,0.035
		l-0.099,0.176l-0.144-0.079l-1.366-1.011c0.443-0.697,0.987-1.232,1.631-1.604c0.644-0.372,1.364-0.558,2.161-0.558
		c0.683,0,1.297,0.139,1.842,0.417s0.972,0.667,1.28,1.165s0.463,1.069,0.463,1.714c0,0.639-0.154,1.251-0.463,1.837
		s-0.713,1.154-1.213,1.705s-1.235,1.301-2.206,2.25l-0.737,0.712h3.747c0.198,0,0.343-0.01,0.436-0.031s0.175-0.063,0.247-0.127
		h0.207v1.828h-7.116V129.709z"/>
	<path fill="#0000FF" d="M77.265,131.186v-8.93l-1.967,0.58l-0.494-1.23l3.107-1.635h1.375v11.215H77.265z"/>
</g>
<g>
	<path fill="#000099" d="M0,150.231v-1.644h8.841v1.644H0z"/>
	<path fill="#000099" d="M18.4,150.231v-1.644h8.841v1.644H18.4z"/>
	<path fill="#000099" d="M36.8,150.231v-1.644h8.841v1.644H36.8z"/>
	<path fill="#000099" d="M58.866,155.18v-8.93l-1.967,0.58l-0.494-1.23l3.108-1.635h1.375v11.215H58.866z"/>
</g>
<g>
	<path fill="#000099" d="M0,174.226v-1.644h8.841v1.644H0z"/>
	<path fill="#000099" d="M18.4,174.226v-1.644h8.841v1.644H18.4z"/>
</g>
<g>
	<path fill="#000099" d="M37.671,177.697c1.479-1.389,2.541-2.414,3.185-3.076c0.644-0.662,1.135-1.279,1.473-1.85
		s0.508-1.156,0.508-1.753c0-0.475-0.153-0.851-0.458-1.129c-0.305-0.278-0.716-0.417-1.23-0.417c-0.312,0-0.608,0.035-0.89,0.105
		c-0.282,0.07-0.518,0.155-0.71,0.255c-0.191,0.1-0.312,0.193-0.359,0.281c-0.239,0.422-0.359,0.653-0.359,0.694
		c0,0.006,0.003,0.009,0.009,0.009c0.012-0.006,0.03-0.018,0.054-0.035s0.046-0.029,0.067-0.035s0.035,0.006,0.041,0.035
		l-0.099,0.176l-0.144-0.079l-1.366-1.011c0.443-0.697,0.987-1.232,1.631-1.604c0.644-0.372,1.364-0.558,2.161-0.558
		c0.683,0,1.297,0.139,1.842,0.417s0.972,0.667,1.28,1.165s0.463,1.069,0.463,1.714c0,0.639-0.154,1.251-0.463,1.837
		s-0.713,1.154-1.213,1.705s-1.235,1.301-2.206,2.25l-0.737,0.712h3.747c0.198,0,0.343-0.01,0.436-0.031s0.175-0.063,0.247-0.127
		h0.207v1.828h-7.116V177.697z"/>
	<path fill="#000099" d="M58.865,179.174v-8.93l-1.967,0.58l-0.494-1.23l3.108-1.635h1.375v11.215H58.865z"/>
</g>
<g>
	<path fill="#000099" d="M0,198.22v-1.644h8.841v1.644H0z"/>
	<path fill="#000099" d="M19.271,201.691c1.479-1.389,2.541-2.414,3.185-3.076c0.644-0.662,1.135-1.279,1.473-1.85
		c0.338-0.572,0.508-1.156,0.508-1.754c0-0.475-0.153-0.852-0.458-1.129c-0.305-0.279-0.716-0.418-1.23-0.418
		c-0.312,0-0.608,0.035-0.89,0.105c-0.282,0.07-0.518,0.155-0.71,0.255c-0.191,0.1-0.312,0.193-0.359,0.281
		c-0.239,0.422-0.359,0.653-0.359,0.694c0,0.006,0.003,0.009,0.009,0.009c0.012-0.006,0.03-0.018,0.054-0.035
		s0.046-0.029,0.067-0.035s0.035,0.006,0.041,0.035l-0.099,0.176l-0.144-0.079l-1.366-1.011c0.443-0.697,0.987-1.231,1.631-1.604
		c0.644-0.371,1.364-0.558,2.161-0.558c0.683,0,1.297,0.14,1.842,0.417c0.545,0.279,0.972,0.667,1.28,1.165s0.463,1.069,0.463,1.714
		c0,0.639-0.154,1.251-0.463,1.837s-0.713,1.154-1.213,1.705s-1.235,1.301-2.206,2.25l-0.737,0.712h3.747
		c0.198,0,0.343-0.01,0.436-0.031c0.093-0.02,0.175-0.063,0.247-0.127h0.207v1.828h-7.116V201.691z"/>
</g>
<g>
	<path fill="#0000FF" d="M40.465,203.168v-8.93l-1.967,0.58l-0.494-1.23l3.108-1.635h1.375v11.215H40.465z"/>
</g>
<g>
	<path fill="#000099" d="M0,222.214v-1.644h8.841v1.644H0z"/>
</g>
<g>
	<path fill="#0000FF" d="M22.065,227.162v-8.93l-1.967,0.58l-0.494-1.23l3.108-1.635h1.375v11.215H22.065z"/>
</g>
<g>
	<path fill="#000099" d="M0,246.208v-1.644h8.841v1.644H0z"/>
	<path fill="#000099" d="M22.065,251.156v-8.93l-1.967,0.58l-0.494-1.23l3.108-1.635h1.375v11.215H22.065z"/>
</g>
<g>
	<path fill="#000099" d="M0,270.202v-1.644h8.841v1.644H0z"/>
	<path fill="#000099" d="M18.4,270.202v-1.644h8.841v1.644H18.4z"/>
</g>
<g>
	<path fill="#0000FF" d="M37.671,273.674c1.479-1.389,2.541-2.414,3.185-3.076c0.644-0.662,1.135-1.279,1.473-1.85
		c0.338-0.572,0.508-1.156,0.508-1.754c0-0.475-0.153-0.852-0.458-1.129c-0.305-0.279-0.716-0.418-1.23-0.418
		c-0.312,0-0.608,0.035-0.89,0.105c-0.282,0.07-0.518,0.155-0.71,0.255c-0.191,0.1-0.312,0.193-0.359,0.281
		c-0.239,0.422-0.359,0.653-0.359,0.694c0,0.006,0.003,0.009,0.009,0.009c0.012-0.006,0.03-0.018,0.054-0.035
		s0.046-0.029,0.067-0.035s0.035,0.006,0.041,0.035l-0.099,0.176l-0.144-0.079l-1.366-1.011c0.443-0.697,0.987-1.231,1.631-1.604
		c0.644-0.371,1.364-0.558,2.161-0.558c0.683,0,1.297,0.14,1.842,0.417c0.545,0.279,0.972,0.667,1.28,1.165s0.463,1.069,0.463,1.714
		c0,0.639-0.154,1.251-0.463,1.837s-0.713,1.154-1.213,1.705s-1.235,1.301-2.206,2.25l-0.737,0.712h3.747
		c0.198,0,0.343-0.01,0.436-0.031c0.093-0.02,0.175-0.063,0.247-0.127h0.207v1.828h-7.116V273.674z"/>
</g>
<g>
	<path fill="#000099" d="M0,294.196v-1.644h8.841v1.644H0z"/>
	<path fill="#000099" d="M18.4,294.196v-1.644h8.841v1.644H18.4z"/>
	<path fill="#000099" d="M44.203,294.156c0.365,0.479,0.548,1.092,0.548,1.842c0,0.65-0.154,1.24-0.463,1.771
		c-0.309,0.529-0.753,0.949-1.334,1.256c-0.581,0.309-1.27,0.462-2.066,0.462c-1.569,0-2.764-0.504-3.585-1.512l0.854-1.679
		l0.009-0.009l0.009,0.018c0.27,0.51,0.622,0.876,1.056,1.099s0.993,0.334,1.676,0.334c0.563,0,1.001-0.166,1.316-0.496
		c0.314-0.332,0.472-0.772,0.472-1.323c0-0.604-0.172-1.054-0.517-1.349c-0.344-0.297-0.927-0.444-1.747-0.444
		c-0.288,0-0.608,0.018-0.961,0.053v-1.626c0.09,0.006,0.218,0.009,0.386,0.009c0.946,0,1.604-0.149,1.972-0.448
		c0.368-0.299,0.552-0.715,0.552-1.248c0-0.434-0.13-0.785-0.391-1.055s-0.627-0.404-1.101-0.404c-0.413,0-0.795,0.07-1.146,0.211
		s-0.717,0.384-1.101,0.729l-1.159-1.16c0.438-0.51,0.946-0.89,1.527-1.138c0.581-0.25,1.201-0.374,1.86-0.374
		c0.701,0,1.322,0.13,1.864,0.392c0.542,0.26,0.964,0.617,1.267,1.072c0.302,0.453,0.454,0.962,0.454,1.524
		c0,0.604-0.157,1.124-0.472,1.56c-0.314,0.438-0.69,0.752-1.127,0.945C43.388,293.35,43.837,293.68,44.203,294.156z
		 M38.129,296.174c0-0.012,0.006-0.018,0.018-0.018c0.012,0,0.036,0.009,0.072,0.026l-0.054,0.105
		C38.142,296.241,38.129,296.203,38.129,296.174z M38.426,296.271c0,0.006-0.003,0.009-0.009,0.009
		c-0.018,0-0.049-0.014-0.094-0.039c-0.045-0.027-0.08-0.046-0.104-0.058l0.009-0.026l0.188,0.088L38.426,296.271z"/>
</g>
<g>
	<path fill="#000099" d="M0,318.19v-1.644h8.841v1.644H0z"/>
	<path fill="#000099" d="M18.4,318.19v-1.644h8.841v1.644H18.4z"/>
</g>
<g>
	<path fill="#E10B31" d="M37.671,321.662c1.479-1.389,2.541-2.414,3.185-3.076c0.644-0.662,1.135-1.279,1.473-1.85
		c0.338-0.572,0.508-1.156,0.508-1.754c0-0.475-0.153-0.852-0.458-1.129c-0.305-0.279-0.716-0.418-1.23-0.418
		c-0.312,0-0.608,0.035-0.89,0.105c-0.282,0.07-0.518,0.155-0.71,0.255c-0.191,0.1-0.312,0.193-0.359,0.281
		c-0.239,0.422-0.359,0.653-0.359,0.694c0,0.006,0.003,0.009,0.009,0.009c0.012-0.006,0.03-0.018,0.054-0.035
		s0.046-0.029,0.067-0.035s0.035,0.006,0.041,0.035l-0.099,0.176l-0.144-0.079l-1.366-1.011c0.443-0.697,0.987-1.231,1.631-1.604
		c0.644-0.371,1.364-0.558,2.161-0.558c0.683,0,1.297,0.14,1.842,0.417c0.545,0.279,0.972,0.667,1.28,1.165s0.463,1.069,0.463,1.714
		c0,0.639-0.154,1.251-0.463,1.837s-0.713,1.154-1.213,1.705s-1.235,1.301-2.206,2.25l-0.737,0.712h3.747
		c0.198,0,0.343-0.01,0.436-0.031c0.093-0.02,0.175-0.063,0.247-0.127h0.207v1.828h-7.116V321.662z"/>
	<path fill="#E10B31" d="M56.071,321.662c1.479-1.389,2.541-2.414,3.185-3.076c0.644-0.662,1.135-1.279,1.473-1.85
		c0.338-0.572,0.508-1.156,0.508-1.754c0-0.475-0.153-0.852-0.458-1.129c-0.305-0.279-0.716-0.418-1.23-0.418
		c-0.312,0-0.608,0.035-0.89,0.105c-0.282,0.07-0.518,0.155-0.71,0.255c-0.191,0.1-0.312,0.193-0.359,0.281
		c-0.239,0.422-0.359,0.653-0.359,0.694c0,0.006,0.003,0.009,0.009,0.009c0.012-0.006,0.03-0.018,0.054-0.035
		s0.046-0.029,0.067-0.035s0.035,0.006,0.041,0.035l-0.099,0.176l-0.144-0.079l-1.366-1.011c0.443-0.697,0.987-1.231,1.631-1.604
		c0.644-0.371,1.364-0.558,2.161-0.558c0.683,0,1.297,0.14,1.842,0.417c0.545,0.279,0.972,0.667,1.28,1.165s0.463,1.069,0.463,1.714
		c0,0.639-0.154,1.251-0.463,1.837s-0.713,1.154-1.213,1.705s-1.235,1.301-2.206,2.25l-0.737,0.712h3.747
		c0.198,0,0.343-0.01,0.436-0.031c0.093-0.02,0.175-0.063,0.247-0.127h0.207v1.828h-7.116V321.662z"/>
	<path fill="#E10B31" d="M77.265,323.139v-8.93l-1.967,0.58l-0.494-1.23l3.107-1.635h1.375v11.215H77.265z"/>
</g>
<g>
	<path fill="#000099" d="M0,342.185v-1.644h8.841v1.644H0z"/>
	<path fill="#000099" d="M18.4,342.185v-1.644h8.841v1.644H18.4z"/>
	<path fill="#000099" d="M36.8,342.185v-1.644h8.841v1.644H36.8z"/>
</g>
<g>
	<path fill="#0000FF" d="M55.2,342.185v-1.644h8.841v1.644H55.2z"/>
	<path fill="#0000FF" d="M81.003,342.145c0.365,0.479,0.547,1.092,0.547,1.842c0,0.65-0.154,1.24-0.463,1.771
		c-0.309,0.529-0.752,0.949-1.334,1.256c-0.58,0.309-1.27,0.462-2.066,0.462c-1.568,0-2.764-0.504-3.584-1.512l0.854-1.679
		l0.009-0.009l0.009,0.018c0.27,0.51,0.621,0.876,1.056,1.099s0.993,0.334,1.676,0.334c0.563,0,1.001-0.166,1.315-0.496
		c0.314-0.332,0.473-0.772,0.473-1.323c0-0.604-0.172-1.054-0.518-1.349c-0.344-0.297-0.926-0.444-1.746-0.444
		c-0.288,0-0.609,0.018-0.962,0.053v-1.626c0.09,0.006,0.218,0.009,0.386,0.009c0.947,0,1.604-0.149,1.973-0.448
		c0.368-0.299,0.553-0.715,0.553-1.248c0-0.434-0.131-0.785-0.391-1.055c-0.262-0.27-0.628-0.404-1.102-0.404
		c-0.412,0-0.795,0.07-1.145,0.211c-0.352,0.141-0.718,0.384-1.102,0.729l-1.158-1.16c0.438-0.51,0.945-0.89,1.527-1.138
		c0.58-0.25,1.201-0.374,1.859-0.374c0.701,0,1.322,0.13,1.864,0.392c0.542,0.26,0.964,0.617,1.267,1.072
		c0.303,0.453,0.454,0.962,0.454,1.524c0,0.604-0.157,1.124-0.472,1.56c-0.314,0.438-0.69,0.752-1.127,0.945
		C80.188,341.338,80.637,341.668,81.003,342.145z M74.929,344.162c0-0.012,0.006-0.018,0.018-0.018s0.037,0.009,0.072,0.026
		l-0.054,0.105C74.941,344.229,74.929,344.191,74.929,344.162z M75.226,344.259c0,0.006-0.004,0.009-0.01,0.009
		c-0.018,0-0.049-0.014-0.094-0.039c-0.045-0.027-0.08-0.046-0.104-0.058l0.01-0.026l0.188,0.088L75.226,344.259z"/>
</g>
<g>
	<path fill="#E10B31" d="M95.666,347.133v-8.93l-1.967,0.58l-0.494-1.23l3.107-1.635h1.375v11.215H95.666z"/>
</g>
<g>
	<path fill="#000099" d="M0,366.179v-1.644h8.841v1.644H0z"/>
	<path fill="#000099" d="M18.4,366.179v-1.644h8.841v1.644H18.4z"/>
	<path fill="#000099" d="M36.8,366.179v-1.644h8.841v1.644H36.8z"/>
	<path fill="#000099" d="M55.2,366.179v-1.644h8.841v1.644H55.2z"/>
	<path fill="#000099" d="M73.6,366.179v-1.644h8.841v1.644H73.6z"/>
</g>
<g>
	<path fill="#0000FF" d="M95.666,371.127v-8.93l-1.967,0.58l-0.494-1.23l3.107-1.635h1.375v11.215H95.666z"/>
</g>
</svg>
