<svg id="Layer_1" data-name="Layer 1" xmlns="http://www.w3.org/2000/svg" viewBox="0 0 264 114.89"><title>agenda-icons</title><polygon points="66.99 25.1 59.47 24.45 56.53 17.5 53.59 24.45 46.07 25.1 51.78 30.04 50.07 37.4 56.53 33.5 63 37.4 61.29 30.04 66.99 25.1"/><path d="M20,16.51a4.33,4.33,0,0,0-4.29,4.29A4.23,4.23,0,0,0,19.13,25v1.81a6,6,0,0,0,5.1,5.9v6H22.48v1.75h5.1V38.7H25.83v-6a5.93,5.93,0,0,0,5.1-5.9V19.93h-2l.87-1.74h2.88V16.45h-4l-1.54,3.48H24.23A4.31,4.31,0,0,0,20,16.51Zm.81,5.1h5.43l-.87,1.74H20.74V21.61Zm7.37,0h1.14v1.74h-2Z"/><path d="M219.77,70.52a4.32,4.32,0,0,0-4.29,4.29A4.24,4.24,0,0,0,218.9,79v1.81a6,6,0,0,0,5.09,5.9v6h-1.74v1.74h5.1V92.71H225.6v-6a5.93,5.93,0,0,0,5.1-5.9V73.94h-2l.87-1.74h2.88V70.45h-3.95l-1.55,3.49H224A4.28,4.28,0,0,0,219.77,70.52Zm.81,5.1H226l-.88,1.74h-4.62V75.62Zm7.37,0h1.14v1.74h-2Z"/><polygon points="100.36 25.82 100.55 21.61 96.33 21.79 91.67 26.82 95.19 30.61 100.36 25.82"/><polygon points="85.79 33.17 84.26 34.82 82.54 33.1 81.47 34.17 83.87 36.57 80.39 40.04 82.11 41.76 85.59 38.29 87.99 40.68 89.05 39.61 87.33 37.89 89.15 36.21 85.79 33.17"/><polygon points="99.47 34.17 98.4 33.1 96.68 34.83 84.6 21.79 80.39 21.61 80.58 25.82 93.61 37.9 91.89 39.62 92.95 40.68 95.35 38.29 98.82 41.76 100.55 40.04 97.07 36.57 99.47 34.17"/><path d="M148.42,26.08a7.42,7.42,0,0,0-7.13-2L139.2,21.9l-1.37,1.31a.91.91,0,0,0-.13-.16l-1.48-1.69a1.79,1.79,0,0,0-1.18-.59,1.63,1.63,0,0,0-1.23.43h0a1.83,1.83,0,0,0-.4-.05h-2.15a1.33,1.33,0,0,0-.86.29,1.78,1.78,0,0,0-1.61,1l-.91,2a3.47,3.47,0,0,0-.13.46l-2-.81-1.12,2.79a7.38,7.38,0,1,0,6.84,2.76l1.15-2.76-1.37-.56a1.19,1.19,0,0,0,.19-.33l.91-2a1.74,1.74,0,0,0,.14-.89H133a1.47,1.47,0,0,0,.4.78l1.48,1.69a1.48,1.48,0,0,0,.29.27L133.92,27,136,29.17a7.4,7.4,0,1,0,12.41-3.09ZM130,35.92a4.61,4.61,0,1,1-2.52-6A4.6,4.6,0,0,1,130,35.92Zm1.34-12.36-.89,2a.54.54,0,0,1-.32.29L129,25.44a.51.51,0,0,1,0-.48l.91-2a.5.5,0,0,1,.32-.3h0a1.21,1.21,0,0,0,1,.51h.06A.51.51,0,0,1,131.29,23.56Zm4.37,1.29-1.48-1.69a.7.7,0,0,1-.1-.19,1,1,0,0,0,.53-.83v-.08a.59.59,0,0,1,.35-.14h0a.48.48,0,0,1,.37.19l1.48,1.69A.94.94,0,0,1,137,24l-1,1A.69.69,0,0,1,135.66,24.85Zm10.57,9.62a4.61,4.61,0,1,1,.1-6.51A4.62,4.62,0,0,1,146.23,34.47Z"/><path d="M170.77,21.87h17.47v1.75H170.77Zm19.21,0h1.75v1.75H190Zm3.5,0h1.74v1.75h-1.74Zm-22.71,3.5h24.45v14H170.77Zm11.35,1.75A4.35,4.35,0,0,0,179,28.39a4.37,4.37,0,0,0,5.5,6.74h0l3.09,3.08L188.85,37l-3.08-3.09h0a4.4,4.4,0,0,0-.56-5.5A4.35,4.35,0,0,0,182.12,27.12Zm0,1.73a2.63,2.63,0,1,1-1.85.78A2.58,2.58,0,0,1,182.12,28.85Z"/><path d="M234.82,22.44a11.49,11.49,0,0,1-1.42.08c-1.88,0-5.38-.37-7.76-2.87l-.28-.29-.27.29c-2.38,2.5-5.88,2.87-7.76,2.87a11.29,11.29,0,0,1-1.42-.08l-.43-.06V33c0,2.58,1.7,5.23,4.9,7.65a27.77,27.77,0,0,0,4.83,2.89l.15.07.16-.07a27.89,27.89,0,0,0,4.82-2.89c3.21-2.42,4.91-5.07,4.91-7.65V22.38ZM223,29.6,220.74,31,223,32.42v1.86l-.42-.26-3.12-2-.38-.21V30.19l.38-.21,3.12-2,.42-.26Zm3.93-3.17-1.55,9.28h-1.62l0-.12,1.55-9.28H227Zm4.7,5.43-.38.21-3.12,2-.43.26V32.42L230,31l-2.28-1.41V27.75s.43.26.43.28L231.26,30l.38.21Z"/><path d="M33.91,76.73a2.28,2.28,0,0,0-2.28-2.28H29.36v-3h-3v3h-3v-3h-3v3H18a2.27,2.27,0,0,0-2.27,2.28h0V79h-3v3h3v3h-3v3h3v2.28A2.27,2.27,0,0,0,18,92.64h2.27v3h3v-3h3v3h3v-3h2.27a2.28,2.28,0,0,0,2.28-2.27V88.09h3v-3h-3V82h3V79h-3Zm-3,12.88H18.75V77.48H30.87Zm-3-3H21.78V80.52h6.06Z"/><rect x="53.86" y="92.19" width="23.58" height="3.17"/><polygon points="65.67 70.28 53.86 75.08 53.86 78 77.47 78 77.47 75.08 65.67 70.28"/><rect x="57.64" y="79.53" width="3.69" height="11.02"/><rect x="70.03" y="79.53" width="3.69" height="11.02"/><rect x="63.83" y="79.53" width="3.69" height="11.02"/><path d="M113.85,84.36A6.42,6.42,0,0,1,126,81.75a5.11,5.11,0,0,0-4.46-7.67,4.85,4.85,0,0,0-1,.1,7.68,7.68,0,0,0-13.44,0,4.85,4.85,0,0,0-1-.1,5.15,5.15,0,1,0,0,10.29h7.72Z"/><path d="M124.14,86.56V84.22a3.86,3.86,0,0,0-7.72,0v2.34h-2.58v7.87h12.87V86.56Zm-2.57,0H119V84.22a1.29,1.29,0,0,1,2.57,0v2.34Z"/><path d="M168.2,86.46a.77.77,0,0,1-.21,1.07.83.83,0,0,1-.42.13.74.74,0,0,1-.64-.35l-1.31-2h-2.88c-.07.57-.15,1.1-.25,1.58l2.43,1.62a.8.8,0,0,1,.34.64v3.07a.77.77,0,0,1-1.54,0V89.6l-1.67-1.12a4.14,4.14,0,0,1-3.7,3V79.21h1.51a3.1,3.1,0,0,1,2.71,1.61l3-.75,1.38-2A.76.76,0,0,1,168,77.8a.77.77,0,0,1,.21,1.07l-1.53,2.3a.8.8,0,0,1-.46.32l-3.26.82a.34.34,0,0,1,0,.1c0,.49,0,1-.07,1.41H166a.78.78,0,0,1,.64.34Z"/><path d="M160.65,77.67h-6.14V76.14a2.3,2.3,0,0,1,1.1-2l-1-1.46a.76.76,0,0,1,.21-1.06.77.77,0,0,1,1.07.21l1.3,2h.72l1.31-2a.76.76,0,0,1,1.27.85l-1,1.46a2.3,2.3,0,0,1,1.1,2Z"/><path d="M155.3,79.21h1.51V91.45a4.1,4.1,0,0,1-3.69-3l-1.68,1.12v2.66a.77.77,0,1,1-1.54,0V89.19a.8.8,0,0,1,.34-.64l2.43-1.62c-.1-.48-.18-1-.25-1.58h-2.87l-1.31,2a.76.76,0,0,1-.64.35.83.83,0,0,1-.43-.13.78.78,0,0,1-.21-1.07l1.54-2.3a.77.77,0,0,1,.63-.34h3.15c0-.45-.05-.92-.07-1.41,0,0,0-.07,0-.1L149,81.49a.74.74,0,0,1-.45-.32L147,78.87a.77.77,0,1,1,1.28-.85l1.37,2,3,.75A3.08,3.08,0,0,1,155.3,79.21Z"/><path d="M192.7,69.89a4.07,4.07,0,0,0-3,3.82,19.51,19.51,0,0,0,7.56-2A4.25,4.25,0,0,0,192.7,69.89Z"/><path d="M189.84,74.9a4.09,4.09,0,0,0,2.7,2.86l4.14-1.11a4,4,0,0,0,.95-3.82.29.29,0,0,0-.08-.24,18.44,18.44,0,0,1-7.87,2.07C189.76,74.74,189.76,74.82,189.84,74.9Z"/><path d="M197.16,77.6l-4.46,1.2V79c.88,2.79,1.75,5.57,2.63,8.28l3.81-1c-.63-2.86-1.27-5.64-1.9-8.51A.25.25,0,0,1,197.16,77.6Z"/><path d="M199.54,88.34l-.24-1.11-3.73,1c.07.4.23.72.31,1.11s.32.56.48.48l.8-.24a.48.48,0,0,0,.08.32,2.24,2.24,0,0,1-.32,1.75c-.64.8-2.07,1-4.22.56h-.24c-1.43-.32-3.1-.56-3.81.24a1.5,1.5,0,0,0-.48,1.27c.08,1.19,1.35,2.31,2.23,3l.31.24.8-.87-.32-.24A7.89,7.89,0,0,1,190,94.78a2.26,2.26,0,0,1-.64-1,.42.42,0,0,1,.16-.32s.24-.24,1.11-.16l1.67.24h.24a9.86,9.86,0,0,0,3.42.16,3,3,0,0,0,2-1.11,3.61,3.61,0,0,0,.48-3.11l.87-.23C199.54,88.82,199.62,88.58,199.54,88.34Z"/></svg>