<?xml version="1.0" encoding="utf-8"?>
<!-- Generator: Adobe Illustrator 23.0.3, SVG Export Plug-In . SVG Version: 6.00 Build 0)  -->
<svg version="1.1" id="Layer_1" xmlns="http://www.w3.org/2000/svg" xmlns:xlink="http://www.w3.org/1999/xlink" x="0px" y="0px"
	 viewBox="0 0 420.4 251.7" style="enable-background:new 0 0 420.4 251.7;" xml:space="preserve">
<style type="text/css">
	.st0{fill:#E10B31;}
</style>
<title>dlaczego-warto-icons</title>
<g>
	<g id="Layer_1-2">
		<path d="M212.9,16.7l1.4-1.7c0.2-0.2,0.2-0.4,0-0.6l-1.4-1.2c-0.1-0.1-0.2-0.1-0.3-0.1c-0.1,0-0.2,0.1-0.3,0.1L211,15
			c-1.9-1.3-4-2.1-6.3-2.3v-2.3h2.9v-3h-8.6v3h2.9v2.3c-2.3,0.2-4.4,1-6.3,2.3l-1.4-1.7c-0.1-0.1-0.2-0.1-0.3-0.1
			c-0.1,0-0.2,0-0.3,0.1l-1.4,1.2c-0.1,0.2-0.1,0.4,0,0.6l1.4,1.7c-5.1,5.3-5,13.8,0.3,18.9c5.3,5.1,13.8,5,18.9-0.3
			C218,30.1,218,21.8,212.9,16.7L212.9,16.7z M213.9,26h-10.2c-0.2,0-0.4-0.2-0.4-0.4V15.3c0-0.2,0.2-0.4,0.4-0.4c0,0,0,0,0,0
			c5.9,0,10.6,4.8,10.6,10.6C214.4,25.8,214.2,26,213.9,26L213.9,26z"/>
		<path d="M27.4,5.3c-8.8,0-16,7.2-16,16s7.2,16,16,16s16-7.2,16-16S36.3,5.3,27.4,5.3L27.4,5.3z M25.7,27.5l-6-6l2.2-2.1l3.8,3.8
			l7.9-7.9l2.2,2.2L25.7,27.5z"/>
		<circle cx="76.6" cy="21.4" r="3.2"/>
		<circle cx="76.6" cy="10.7" r="3.2"/>
		<circle cx="76.6" cy="32.2" r="3.2"/>
		<circle cx="87.3" cy="21.4" r="3.2"/>
		<circle cx="98.1" cy="21.4" r="3.2"/>
		<circle cx="87.3" cy="10.7" r="3.2"/>
		<circle cx="98.1" cy="10.7" r="3.2"/>
		<circle cx="87.3" cy="32.2" r="3.2"/>
		<path d="M98.1,29c-1.8,0-3.2,1.4-3.2,3.2c0,1.8,1.4,3.2,3.2,3.2c1.8,0,3.2-1.4,3.2-3.2C101.3,30.4,99.9,29,98.1,29L98.1,29z
			 M98.1,33.9c-0.9,0-1.7-0.7-1.7-1.7c0-0.9,0.7-1.7,1.7-1.7c0.9,0,1.7,0.7,1.7,1.7v0C99.8,33.2,99,33.9,98.1,33.9z"/>
		<circle cx="88.5" cy="153.2" r="6.2"/>
		<path d="M97.8,166.9c-0.3-2.9-2.4-5.3-5.3-5.9l-2.8,6.9l-0.6-5h0.4c0.3,0,0.5-0.2,0.5-0.5V161c0-0.2-0.2-0.4-0.5-0.4h-2.1
			c-0.2,0-0.4,0.1-0.4,0.4c0,0,0,0,0,0v1.4c0,0.2,0.2,0.5,0.4,0.5h0.4l-0.6,5l-2.8-6.9c-2.8,0.6-5,3-5.3,5.9v3.9h18.6V166.9z"/>
		<path d="M100.8,172.7H76.3v5.6h24.5V172.7z"/>
		<path d="M257.7,7.8c-2.2,0.6-3.7,2.5-3.8,4.8c3.3-0.2,6.5-1,9.5-2.5C262.2,8.2,259.9,7.3,257.7,7.8z"/>
		<path d="M254.1,14.1c0.4,1.7,1.8,3.1,3.4,3.6l5.2-1.4c1.2-1.3,1.7-3.1,1.2-4.8c0-0.1,0-0.2-0.1-0.3c-3.1,1.6-6.5,2.5-9.9,2.6
			C254,13.9,254,14,254.1,14.1z"/>
		<path d="M263.3,17.5l-5.6,1.5c0,0.1,0,0.2,0,0.3c1.1,3.5,2.2,7,3.3,10.4l4.8-1.3c-0.8-3.6-1.6-7.1-2.4-10.7
			C263.3,17.6,263.3,17.5,263.3,17.5z"/>
		<path d="M266.3,31l-0.3-1.4l-4.7,1.3c0.1,0.5,0.3,0.9,0.4,1.4c0.2,0.5,0.4,0.7,0.6,0.6l1-0.3c0,0.1,0,0.3,0.1,0.4
			c0.2,0.8,0,1.6-0.4,2.2c-0.8,1-2.6,1.2-5.3,0.7l-0.3,0c-1.8-0.4-3.9-0.7-4.8,0.3c-0.4,0.4-0.7,1-0.6,1.6c0.1,1.5,1.7,2.9,2.8,3.8
			l0.4,0.3l1-1.1l-0.4-0.3c-0.5-0.4-1.1-0.9-1.5-1.4c-0.4-0.3-0.6-0.8-0.8-1.3c0-0.2,0.1-0.3,0.2-0.4c0,0,0.3-0.3,1.4-0.2
			c0.7,0.1,1.4,0.2,2.1,0.3l0.3,0c1.4,0.3,2.9,0.4,4.3,0.2c1-0.1,1.8-0.6,2.5-1.4c0.8-1.2,1-2.6,0.6-3.9l1.1-0.3
			C266.3,31.6,266.4,31.3,266.3,31z"/>
		<path d="M35.3,214.9l-3.2-3.2H19.3l-3.2,3.2v6.4H9.7v22.4h32v-22.4h-6.4V214.9z M32.1,221.3H19.3v-6.4h12.8V221.3z M30.5,239.5
			l-4.8-2.6l-4.8,2.5l1-5.4l-3.9-3.9l5.4-0.8l2.4-4.8l2.4,4.9l5.4,0.8l-3.9,3.8L30.5,239.5z"/>
		<path d="M202.3,144.9c-3.5,0-6.4,2.9-6.4,6.4c0,3,2.1,5.6,5.1,6.2v2.7c0,4.4,3.3,8.2,7.6,8.8v9h-2.6v2.6h7.6V178h-2.6v-9
			c4.4-0.6,7.6-4.4,7.6-8.8V150h-3l1.3-2.6h4.3v-2.6h-5.9L213,150h-4.4C207.9,147,205.3,144.8,202.3,144.9z M203.5,152.5h8.1
			l-1.3,2.6h-6.9V152.5z M214.5,152.5h1.7v2.6h-3L214.5,152.5z"/>
		<path d="M103.4,222c2-3.1,1.1-7.2-2-9.2c-2.2-1.4-5-1.4-7.2,0C98.4,214.4,101.8,217.7,103.4,222z"/>
		<path d="M80.4,213.9c0.8-0.5,1.5-0.9,2.4-1.2c-1.3-0.9-3-1.2-4.5-1L80.4,213.9z"/>
		<path d="M102.6,243.7l1.9-1.9l-30.1-30.1l-1.9,1.9l1.1,1.1c-1.4,2.2-1.4,5.1,0,7.3c0.7-1.7,1.6-3.2,2.8-4.6l1.9,1.9
			c-4.7,5.7-3.8,14,1.8,18.7c0,0,0.1,0,0.1,0.1l-2.3,5.7h2.9l1.7-4.2c3.8,2,8.4,2,12.3,0l1.7,4.2h2.9l-2.3-5.7l0,0L102.6,243.7z
			 M80.5,229c-0.7,0-1.3-0.6-1.3-1.3c0-0.7,0.6-1.3,1.3-1.3c0.7,0,1.3,0.6,1.3,1.3c0,0,0,0,0,0C81.8,228.4,81.2,229,80.5,229z
			 M88.5,237c-0.7,0-1.3-0.6-1.3-1.3c0-0.7,0.6-1.3,1.3-1.3c0.7,0,1.3,0.6,1.3,1.3c0,0,0,0,0,0C89.8,236.4,89.2,237,88.5,237z"/>
		<path d="M88.5,214.4c-2.1,0-4.3,0.5-6.2,1.5l4.8,4.8v-2.4h2.7v5l3,3h5v2.7h-2.3l4.8,4.9c3.4-6.5,0.9-14.6-5.6-18
			C92.8,214.9,90.6,214.4,88.5,214.4z"/>
		<circle cx="14.9" cy="159.6" r="2.5"/>
		<path d="M17.1,177.9v-6.1c0,0,0-0.1,0-0.1h0.4c0.9,0,1.6-0.7,1.6-1.6l0,0v-5.8c0-0.9-0.7-1.6-1.6-1.6h-5.1c-0.9,0-1.6,0.7-1.6,1.6
			c0,0,0,0,0,0v5.8c0,0.9,0.7,1.6,1.6,1.6c0,0,0,0,0,0h0.4v6.1c0,0.7,0.6,1.2,1.2,1.2c0,0,0,0,0,0h1.9
			C16.5,179.1,17.1,178.5,17.1,177.9L17.1,177.9z"/>
		<circle cx="25.7" cy="159.6" r="2.5"/>
		<path d="M27.9,177.9v-6.1c0,0,0-0.1,0-0.1h0.4c0.9,0,1.6-0.7,1.6-1.6l0,0v-5.8c0-0.9-0.7-1.6-1.6-1.6h-5.1c-0.9,0-1.6,0.7-1.6,1.6
			v5.8c0,0.9,0.7,1.6,1.6,1.6c0,0,0,0,0,0h0.4c0,0,0,0.1,0,0.1v6.1c0,0.7,0.6,1.2,1.2,1.2h1.9C27.3,179.1,27.9,178.5,27.9,177.9
			L27.9,177.9z"/>
		<circle cx="36.6" cy="159.6" r="2.5"/>
		<path d="M39.1,162.7H34c-0.9,0-1.6,0.7-1.6,1.6v5.8c0,0.9,0.7,1.6,1.6,1.6h0.4c0,0,0,0.1,0,0.1v6.1c0,0.7,0.6,1.2,1.2,1.2
			c0,0,0,0,0,0h1.9c0.7,0,1.2-0.6,1.2-1.2v-6.1c0,0,0-0.1,0-0.1h0.4c0.9,0,1.6-0.7,1.6-1.6l0,0v-5.8C40.7,163.4,40,162.7,39.1,162.7
			C39.1,162.7,39.1,162.7,39.1,162.7z"/>
		<circle cx="25.7" cy="149.6" r="2.5"/>
		<circle cx="20.3" cy="154.6" r="2.5"/>
		<circle cx="31.1" cy="154.6" r="2.5"/>
		<polygon points="212.6,208.1 194,208.1 192,210.1 214.6,210.1 		"/>
		<path d="M191.3,212v28.7H202v-5.3h2.7v5.3h10.7V212H191.3z M198,231.4h-2.7v-2.7h2.7V231.4z M198,224.7h-2.7V222h2.7V224.7z
			 M198,218h-2.7v-2.7h2.7V218z M204.6,231.4H202v-2.7h2.7V231.4z M204.6,224.7H202V222h2.7V224.7z M204.6,218H202v-2.7h2.7V218z
			 M211.3,231.4h-2.7v-2.7h2.7V231.4z M211.3,224.7h-2.7V222h2.7V224.7z M211.3,218h-2.7v-2.7h2.7V218z"/>
		<path d="M148.2,228.9v2c0.7-0.1,1.1-0.4,1.1-0.9c0-0.2-0.1-0.4-0.3-0.6C148.8,229.2,148.5,229,148.2,228.9z"/>
		<path d="M146,225.1c0,0.2,0.1,0.4,0.3,0.6c0.2,0.2,0.5,0.4,0.8,0.5v-1.9C146.4,224.3,146,224.6,146,225.1z"/>
		<path d="M162.8,226.7c-0.6-6.6-7.1-11.8-14.9-11.8c-0.6,0-1.4,0.1-1.9,0.1c-3.2-2.9-9.4-2.2-9.4-2.2l1,1c1,0.9,1.6,2.1,1.7,3.4
			c-2.5,1.4-4.5,3.6-5.6,6.3h-3v8.6h3c1.1,2.6,3.1,4.8,5.6,6.3v4.4h4.3V240c2.3,0.6,4.8,0.7,7.1,0.3v2.4h4.3V239
			c4.5-2.1,7.4-6,7.8-10.3c0.7,0.3,1.4,0.5,2.2,0.5v-1.4C164.1,227.8,163.3,227.4,162.8,226.7z M138.2,224l-1.3-0.5
			c0-0.1,1.1-2.7,3.3-3.3l0.4,1.4C139,222,138.2,224,138.2,224z M150.8,231.9c-0.8,0.6-1.7,0.9-2.6,0.9v1.7h-1.1v-1.7
			c-1.2,0-2.4-0.2-3.5-0.7V230c0.5,0.3,1.1,0.5,1.7,0.6c0.6,0.2,1.2,0.3,1.8,0.3v-2.5l-0.6-0.2c-0.8-0.3-1.6-0.8-2.3-1.4
			c-0.5-0.5-0.7-1.2-0.7-1.8c0-0.8,0.3-1.5,0.9-1.9c0.7-0.6,1.6-0.9,2.6-0.9V221h1.1v1.2c1.2,0,2.3,0.3,3.4,0.7l-0.8,1.9
			c-0.8-0.3-1.7-0.6-2.6-0.6v2.4c0.8,0.3,1.5,0.6,2.3,1c0.4,0.3,0.7,0.6,1,1c0.2,0.4,0.3,0.9,0.3,1.3
			C151.7,230.6,151.4,231.4,150.8,231.9z"/>
		<circle cx="145.7" cy="10.5" r="3.9"/>
		<path d="M153.2,21.6h-15c0,0-1.1-5.8,3.6-5.8h7.6C149.4,15.8,153.7,15.3,153.2,21.6z"/>
		<polygon points="137,28.7 134.9,28.7 131.4,25.5 131.4,23.2 159.9,23.2 159.9,25.3 156.4,28.7 154.3,28.7 154.3,26.5 137,26.5 		
			"/>
		<polygon points="153,28.1 138.2,28.1 139.5,39.7 151.8,39.7 151.8,39.6 151.8,39.6 		"/>
		<g>
			<path class="st0" d="M165,94.4c4.4,0,8-3.6,8-8v-4h-16v4C157,90.9,160.6,94.4,165,94.4z"/>
			<polygon class="st0" points="179,77.2 175,77.2 173,67.2 165,69.2 157,67.2 155,77.2 151,77.2 151,79.2 179,79.2 			"/>
			<path class="st0" d="M182.6,102.2c-0.9-2.8-2.9-5.2-5.6-6.7v-2l-2-2l-3.9,3.9l0,2l-4.1,2.1l2,3.9l-4,4.1l-4-4l2-4l-4.1-2.1l0-1.9
				l-4-4l-2,2v2c-2.6,1.5-4.6,3.8-5.6,6.7l-2.4,7.3h40L182.6,102.2z"/>
		</g>
		<path class="st0" d="M235.4,68.4l-6.6,39.5l-0.1,0.5h6.9l6.6-39.5l0.1-0.5C242.3,68.4,235.4,68.4,235.4,68.4z M225.5,74.5
			l-1.8,1.1L210.4,84l-1.6,0.9V92l1.6,0.9l13.3,8.3l1.8,1.1v-7.9l-9.7-6l9.7-6C225.5,82.4,225.5,74.5,225.5,74.5z M245.5,74.5v7.9
			l9.7,6l-9.7,6v7.9l1.8-1.1l13.3-8.3l1.6-0.9v-7.1l-1.6-0.9l-13.3-8.3C247.3,75.6,245.5,74.5,245.5,74.5z"/>
		<g>
			<path class="st0" d="M326.3,78.3c0-0.5-0.2-0.9-0.8-1c-1.7-0.5-3.4-1-5-1.6c-0.4-0.1-0.7,0-1,0.3c-0.9,1.1-1.9,2.3-3,3.4
				c-1.1-1.2-2.1-2.3-3-3.4c-0.3-0.4-0.6-0.4-1-0.3c-1.7,0.6-3.3,1.1-5,1.6c-0.6,0.2-0.8,0.5-0.8,1c0,0.1,0,0.2,0,0.2l0.8,14.8
				c0,0,0,0.2,0,0.2c0.2,2.1,0.2,2.3,2.2,2.8l0.9,14.1c0.1,1.2,1.1,2.1,2.3,2.1h3.6h3.5c1.2,0,2.2-0.9,2.3-2.1l0.9-14.1
				c2-0.6,2.1-0.8,2.2-2.8c0-0.1,0-0.2,0-0.2l0.8-14.8C326.3,78.5,326.3,78.4,326.3,78.3z"/>
			<path class="st0" d="M340.6,78.7c-1.4-0.4-2.9-0.9-4.3-1.3c-0.4-0.1-0.6,0-0.8,0.2c-0.8,1-1.7,1.9-2.6,3c-0.9-1-1.8-2-2.6-3
				c-0.2-0.3-0.5-0.4-0.8-0.2c-0.2,0-0.4,0.1-0.5,0.2c0.1,0.2,0.1,0.5,0.1,0.8c0,0.1,0,0.2,0,0.2v0l-0.9,14.8v0.3
				c-0.1,1.5-0.3,2.4-1,3l0.7,10.8c0.1,1,0.9,1.8,1.9,1.8h6.1c1,0,1.9-0.8,1.9-1.8l0.8-12.2c1.7-0.5,1.8-0.7,1.9-2.5
				c0-0.1,0-0.2,0-0.2l0.7-12.7c0,0,0-0.1,0-0.2C341.3,79.2,341.1,78.9,340.6,78.7z"/>
			<circle class="st0" cx="332.9" cy="70.3" r="4.6"/>
			<circle class="st0" cx="316.5" cy="67.6" r="5.4"/>
			<path class="st0" d="M304.5,93.7v-0.3l-0.8-14.8v0c0,0,0-0.2,0-0.2c0-0.3,0-0.5,0.1-0.8c-0.2,0-0.4-0.1-0.5-0.2
				c-0.4-0.1-0.6,0-0.8,0.2c-0.8,1-1.7,1.9-2.6,3c-0.9-1-1.8-2-2.6-3c-0.2-0.3-0.5-0.4-0.8-0.2c-1.4,0.5-2.9,0.9-4.3,1.3
				c-0.5,0.2-0.7,0.4-0.7,0.9c0,0,0,0.2,0,0.2l0.7,12.7c0,0,0,0.2,0,0.2c0.1,1.8,0.2,1.9,1.9,2.5l0.8,12.2c0.1,1,0.9,1.8,1.9,1.8
				h6.1c1,0,1.9-0.8,1.9-1.8l0.8-10.7C304.8,96,304.7,95.2,304.5,93.7z"/>
			<circle class="st0" cx="299.8" cy="70.3" r="4.6"/>
		</g>
		<g>
			<path class="st0" d="M11,114.5h23.9v-23h-3.7v-1.8c0-4.6-3.7-8.3-8.3-8.3s-8.3,3.7-8.3,8.3v1.8H11V114.5z M24.8,102.9v6h-3.7v-6
				c-1.8-1-2.4-3.3-1.3-5c1-1.8,3.3-2.4,5-1.3c1.8,1,2.4,3.3,1.3,5C25.8,102.2,25.4,102.6,24.8,102.9z M18.4,89.7
				c0-2.5,2.1-4.6,4.6-4.6s4.6,2.1,4.6,4.6v1.8h-9.2V89.7z"/>
			<polygon class="st0" points="41.6,74.7 41.6,85.7 52.6,80.2 			"/>
			<path class="st0" d="M57.5,63l-4.1,2l-3.1-1.3l-1.5-4.6h-7.1l-1.5,4.6l-3.1,1.3l-4.1-2c-1.9,1.4-3.6,3.1-5,5l2,4.1l-1.3,3.1
				l-4.6,1.5v1.7c0.3,0,0.6,0,0.9,0c2.4,0,4.8,1,6.5,2.7c0-0.3-0.1-0.6-0.1-0.8c0-7.6,6.2-13.8,13.8-13.8c7.6,0,13.8,6.2,13.8,13.8
				C59.1,87.8,53,94,45.4,94c-2.6,0-5.2-0.8-7.5-2.2c0,0.1,0.1,0.2,0.1,0.3v3.7c0.7,0.4,1.5,0.7,2.3,0.9l1.5,4.6h7.1l1.5-4.6
				c1.1-0.3,2.1-0.7,3.1-1.3l4.1,2c1.9-1.4,3.6-3.1,5-5l-2-4.1c0.5-1,0.9-2,1.3-3.1l4.6-1.5v-7.1l-4.6-1.5l-1.3-3.1l2-4.1
				C61.1,66,59.5,64.4,57.5,63z"/>
		</g>
		<g>
			<path class="st0" d="M87.3,110.6h34.4V77.5h-5.3v-2.6c0-6.6-5.3-11.9-11.9-11.9s-11.9,5.3-11.9,11.9v2.6h-5.3V110.6z M107.1,94
				v8.7h-5.3V94c-2.5-1.5-3.4-4.7-1.9-7.2c1.5-2.5,4.7-3.4,7.2-1.9s3.4,4.7,1.9,7.2C108.6,92.8,107.9,93.5,107.1,94z M97.9,74.9
				c0-3.7,3-6.6,6.6-6.6c3.7,0,6.6,3,6.6,6.6v2.6H97.9V74.9z"/>
		</g>
		<polygon class="st0" points="414.5,81.7 396,80.1 388.7,62.9 381.5,80.1 363,81.7 377,93.8 372.8,111.9 388.7,102.3 404.6,111.9 
			400.4,93.8 		"/>
		<g>
			<path d="M156.5,157.7c0-0.3-0.2-0.6-0.5-0.7c-1.1-0.3-2.2-0.7-3.3-1c-0.3-0.1-0.4,0-0.7,0.2c-0.6,0.8-1.3,1.5-2,2.3
				c-0.7-0.8-1.4-1.5-2-2.3c-0.2-0.2-0.4-0.3-0.7-0.2c-1.1,0.4-2.2,0.7-3.3,1c-0.4,0.1-0.5,0.3-0.5,0.7c0,0.1,0,0.1,0,0.1l0.5,9.7
				c0,0,0,0.1,0,0.2c0.1,1.4,0.2,1.5,1.5,1.9l0.6,9.3c0.1,0.8,0.7,1.4,1.5,1.4h2.4h2.3c0.8,0,1.4-0.6,1.5-1.4l0.6-9.3
				c1.3-0.4,1.4-0.5,1.5-1.9c0-0.1,0-0.2,0-0.2l0.5-9.7C156.5,157.8,156.5,157.7,156.5,157.7z"/>
			<path d="M165.9,158c-0.9-0.3-1.9-0.6-2.8-0.9c-0.2-0.1-0.4,0-0.5,0.2c-0.5,0.7-1.1,1.3-1.7,2c-0.6-0.7-1.2-1.3-1.7-2
				c-0.2-0.2-0.3-0.2-0.5-0.2c-0.1,0-0.2,0.1-0.3,0.1c0.1,0.2,0.1,0.3,0.1,0.5c0,0.1,0,0.2,0,0.2v0l-0.6,9.7v0.2
				c-0.1,1-0.2,1.6-0.7,2l0.5,7.1c0.1,0.7,0.6,1.2,1.3,1.2h4c0.7,0,1.3-0.5,1.3-1.2l0.5-8c1.1-0.3,1.2-0.5,1.3-1.6
				c0-0.1,0-0.1,0-0.1l0.5-8.4c0,0,0-0.1,0-0.1C166.4,158.3,166.3,158.1,165.9,158z"/>
			<circle cx="160.8" cy="152.4" r="3"/>
			<circle cx="150.1" cy="150.7" r="3.5"/>
			<path d="M142.2,167.8v-0.2l-0.5-9.7v0c0,0,0-0.1,0-0.2c0-0.2,0-0.3,0.1-0.5c-0.1,0-0.2-0.1-0.3-0.1c-0.2-0.1-0.4,0-0.5,0.2
				c-0.5,0.7-1.1,1.3-1.7,2c-0.6-0.7-1.2-1.3-1.7-2c-0.2-0.2-0.3-0.2-0.5-0.2c-0.9,0.3-1.9,0.6-2.8,0.9c-0.3,0.1-0.4,0.3-0.4,0.6
				c0,0,0,0.1,0,0.1l0.5,8.4c0,0,0,0.1,0,0.1c0.1,1.2,0.1,1.3,1.3,1.6l0.5,8c0.1,0.7,0.6,1.2,1.3,1.2h4c0.7,0,1.3-0.5,1.3-1.2l0.5-7
				C142.4,169.4,142.3,168.8,142.2,167.8z"/>
			<circle cx="139.1" cy="152.4" r="3"/>
		</g>
	</g>
</g>
</svg>
