<?xml version="1.0" encoding="utf-8"?>
<!-- Generator: Adobe Illustrator 22.0.1, SVG Export Plug-In . SVG Version: 6.00 Build 0)  -->
<svg version="1.1" id="Warstwa_1" xmlns="http://www.w3.org/2000/svg" xmlns:xlink="http://www.w3.org/1999/xlink" x="0px" y="0px"
	 viewBox="0 0 194 162" style="enable-background:new 0 0 194 162;" xml:space="preserve">
<style type="text/css">
	.st0{fill:none;stroke:#FFFFFF;stroke-miterlimit:10;}
</style>
<g>
	<polygon class="st0" points="64.5,65.5 33.5,65.5 33.5,97.5 0.5,97.5 0.5,65.5 0.5,64.5 0.5,33.5 0.5,32.5 0.5,0.5 32.5,0.5 
		33.5,0.5 64.5,0.5 65.5,0.5 97.5,0.5 97.5,33.5 65.5,33.5 65.5,64.4 97.5,64.4 97.5,97.4 64.5,97.4 	"/>
	<polygon class="st0" points="160.5,33.5 128.5,33.5 128.5,0.5 160.5,0.5 161.5,0.5 193.5,0.5 193.5,32.5 193.5,33.5 193.5,65.5 
		160.5,65.5 	"/>
	<rect x="0.5" y="128.5" class="st0" width="33" height="33"/>
</g>
</svg>
