<?xml version="1.0" encoding="utf-8"?>
<!-- Generator: Adobe Illustrator 22.0.1, SVG Export Plug-In . SVG Version: 6.00 Build 0)  -->
<svg version="1.1" id="Warstwa_1" xmlns="http://www.w3.org/2000/svg" xmlns:xlink="http://www.w3.org/1999/xlink" x="0px" y="0px"
	 viewBox="0 0 318 98" style="enable-background:new 0 0 318 98;" xml:space="preserve">
<style type="text/css">
	.st0{fill:none;stroke:#FFFFFF;stroke-miterlimit:10;}
</style>
<g>
	<polygon class="st0" points="188.5,32.5 220.5,32.5 221.5,32.5 253.5,32.5 253.5,64.5 284.5,64.5 285.5,64.5 317.5,64.5 
		317.5,97.5 285.5,97.5 284.5,97.5 253.5,97.5 252.5,97.5 220.5,97.5 220.5,65.5 189.5,65.5 189.5,97.5 156.5,97.5 156.5,64.5 
		188.5,64.5 	"/>
	<polygon class="st0" points="33.5,0.5 33.5,32.5 33.5,33.5 33.5,64.5 65.5,64.5 65.5,97.5 33.5,97.5 32.5,97.5 0.5,97.5 0.5,65.5 
		0.5,64.5 0.5,33.5 0.5,32.5 0.5,0.5 	"/>
</g>
</svg>
