<?xml version="1.0" encoding="utf-8"?>
<!-- Generator: Adobe Illustrator 22.0.1, SVG Export Plug-In . SVG Version: 6.00 Build 0)  -->
<svg version="1.1" id="Warstwa_1" xmlns="http://www.w3.org/2000/svg" xmlns:xlink="http://www.w3.org/1999/xlink" x="0px" y="0px"
	 viewBox="0 0 541 161" style="enable-background:new 0 0 541 161;" xml:space="preserve">
<style type="text/css">
	.st0{clip-path:url(#XMLID_2_);}
	.st1{enable-background:new    ;}
	.st2{fill:#000099;}
	.st3{fill:#0000FF;}
	.st4{clip-path:url(#XMLID_3_);}
	.st5{clip-path:url(#XMLID_4_);}
	.st6{clip-path:url(#XMLID_5_);}
	.st7{clip-path:url(#XMLID_6_);}
	.st8{clip-path:url(#XMLID_7_);}
	.st9{clip-path:url(#XMLID_8_);}
	.st10{clip-path:url(#XMLID_9_);}
	.st11{clip-path:url(#XMLID_10_);}
	.st12{clip-path:url(#XMLID_11_);}
	.st13{clip-path:url(#XMLID_12_);}
	.st14{clip-path:url(#XMLID_13_);}
	.st15{clip-path:url(#XMLID_14_);}
	.st16{clip-path:url(#XMLID_15_);}
	.st17{clip-path:url(#XMLID_16_);}
	.st18{clip-path:url(#XMLID_17_);}
	.st19{clip-path:url(#XMLID_18_);}
	.st20{clip-path:url(#XMLID_19_);}
	.st21{clip-path:url(#XMLID_20_);}
	.st22{fill:#990033;}
	.st23{fill:#050505;}
	.st24{clip-path:url(#XMLID_21_);}
	.st25{clip-path:url(#XMLID_22_);}
</style>
<g>
	<g>
		<defs>
			<rect id="XMLID_224_" x="508.5" y="96.5" width="32" height="32"/>
		</defs>
		<use xlink:href="#XMLID_224_"  style="overflow:visible;fill:#0000CC;"/>
		<clipPath id="XMLID_2_">
			<use xlink:href="#XMLID_224_"  style="overflow:visible;"/>
		</clipPath>
		<g class="st0">
			<g class="st1">
				<polygon class="st2" points="537.3,99.7 540.5,96.5 540.5,128.5 537.3,125.3 				"/>
				<polygon class="st2" points="537.3,125.3 540.5,128.5 508.5,128.5 511.7,125.3 				"/>
				<polygon class="st3" points="508.5,96.5 508.5,128.5 511.7,125.3 511.7,99.7 537.3,99.7 540.5,96.5 				"/>
			</g>
		</g>
		<use xlink:href="#XMLID_224_"  style="overflow:visible;fill:none;stroke:#000000;stroke-miterlimit:10;"/>
	</g>
	<g>
		<defs>
			<rect id="XMLID_195_" x="476.5" y="128.5" width="32" height="32"/>
		</defs>
		<use xlink:href="#XMLID_195_"  style="overflow:visible;fill:#0000CC;"/>
		<clipPath id="XMLID_3_">
			<use xlink:href="#XMLID_195_"  style="overflow:visible;"/>
		</clipPath>
		<g class="st4">
			<g class="st1">
				<polygon class="st2" points="505.3,131.7 508.5,128.5 508.5,160.5 505.3,157.3 				"/>
				<polygon class="st2" points="505.3,157.3 508.5,160.5 476.5,160.5 479.7,157.3 				"/>
				<polygon class="st3" points="476.5,128.5 476.5,160.5 479.7,157.3 479.7,131.7 505.3,131.7 508.5,128.5 				"/>
			</g>
		</g>
		<use xlink:href="#XMLID_195_"  style="overflow:visible;fill:none;stroke:#000000;stroke-miterlimit:10;"/>
	</g>
	<g>
		<defs>
			<rect id="XMLID_194_" x="508.5" y="128.5" width="32" height="32"/>
		</defs>
		<use xlink:href="#XMLID_194_"  style="overflow:visible;fill:#0000CC;"/>
		<clipPath id="XMLID_4_">
			<use xlink:href="#XMLID_194_"  style="overflow:visible;"/>
		</clipPath>
		<g class="st5">
			<g class="st1">
				<polygon class="st2" points="537.3,131.7 540.5,128.5 540.5,160.5 537.3,157.3 				"/>
				<polygon class="st2" points="537.3,157.3 540.5,160.5 508.5,160.5 511.7,157.3 				"/>
				<polygon class="st3" points="508.5,128.5 508.5,160.5 511.7,157.3 511.7,131.7 537.3,131.7 540.5,128.5 				"/>
			</g>
		</g>
		<use xlink:href="#XMLID_194_"  style="overflow:visible;fill:none;stroke:#000000;stroke-miterlimit:10;"/>
	</g>
	<g>
		<defs>
			<rect id="XMLID_193_" x="188.5" y="96.5" width="32" height="32"/>
		</defs>
		<use xlink:href="#XMLID_193_"  style="overflow:visible;fill:#0000CC;"/>
		<clipPath id="XMLID_5_">
			<use xlink:href="#XMLID_193_"  style="overflow:visible;"/>
		</clipPath>
		<g class="st6">
			<g class="st1">
				<polygon class="st2" points="217.3,99.7 217.3,125.3 191.7,125.3 188.5,128.5 220.5,128.5 220.5,96.5 				"/>
				<polygon class="st3" points="188.5,96.5 188.5,128.5 191.7,125.3 191.7,99.7 217.3,99.7 220.5,96.5 				"/>
			</g>
		</g>
		<use xlink:href="#XMLID_193_"  style="overflow:visible;fill:none;stroke:#000000;stroke-miterlimit:10;"/>
	</g>
	<g>
		<defs>
			<rect id="XMLID_192_" x="380.5" y="128.5" width="32" height="32"/>
		</defs>
		<use xlink:href="#XMLID_192_"  style="overflow:visible;fill:#0000CC;"/>
		<clipPath id="XMLID_6_">
			<use xlink:href="#XMLID_192_"  style="overflow:visible;"/>
		</clipPath>
		<g class="st7">
			<g class="st1">
				<polygon class="st2" points="409.3,131.7 412.5,128.5 412.5,160.5 409.3,157.3 				"/>
				<polygon class="st2" points="409.3,157.3 412.5,160.5 380.5,160.5 383.7,157.3 				"/>
				<polygon class="st3" points="380.5,128.5 380.5,160.5 383.7,157.3 383.7,131.7 409.3,131.7 412.5,128.5 				"/>
			</g>
		</g>
		<use xlink:href="#XMLID_192_"  style="overflow:visible;fill:none;stroke:#000000;stroke-miterlimit:10;"/>
	</g>
	<g>
		<defs>
			<rect id="XMLID_191_" x="444.5" y="64.6" width="32" height="32"/>
		</defs>
		<use xlink:href="#XMLID_191_"  style="overflow:visible;fill:#0000CC;"/>
		<clipPath id="XMLID_7_">
			<use xlink:href="#XMLID_191_"  style="overflow:visible;"/>
		</clipPath>
		<g class="st8">
			<g class="st1">
				<polygon class="st2" points="473.3,67.8 473.3,93.4 447.7,93.4 444.5,96.6 476.5,96.6 476.5,64.6 				"/>
				<polygon class="st3" points="444.5,64.6 444.5,96.6 447.7,93.4 447.7,67.8 473.3,67.8 476.5,64.6 				"/>
			</g>
		</g>
		<use xlink:href="#XMLID_191_"  style="overflow:visible;fill:none;stroke:#000000;stroke-miterlimit:10;"/>
	</g>
	<g>
		<defs>
			<rect id="XMLID_190_" x="0.5" y="64.5" width="32" height="32"/>
		</defs>
		<use xlink:href="#XMLID_190_"  style="overflow:visible;fill:#0000CC;"/>
		<clipPath id="XMLID_8_">
			<use xlink:href="#XMLID_190_"  style="overflow:visible;"/>
		</clipPath>
		<g class="st9">
			<g class="st1">
				<polygon class="st2" points="29.3,67.7 32.5,64.5 32.5,96.5 29.3,93.3 				"/>
				<polygon class="st2" points="29.3,93.3 32.5,96.5 0.5,96.5 3.7,93.3 				"/>
				<polygon class="st3" points="0.5,64.5 0.5,96.5 3.7,93.3 3.7,67.7 29.3,67.7 32.5,64.5 				"/>
			</g>
		</g>
		<use xlink:href="#XMLID_190_"  style="overflow:visible;fill:none;stroke:#000000;stroke-miterlimit:10;"/>
	</g>
	<g>
		<defs>
			<rect id="XMLID_189_" x="156.5" y="128.5" width="32" height="32"/>
		</defs>
		<use xlink:href="#XMLID_189_"  style="overflow:visible;fill:#0000CC;"/>
		<clipPath id="XMLID_9_">
			<use xlink:href="#XMLID_189_"  style="overflow:visible;"/>
		</clipPath>
		<g class="st10">
			<g class="st1">
				<polygon class="st2" points="185.3,131.7 185.3,157.3 159.7,157.3 156.5,160.5 188.5,160.5 188.5,128.5 				"/>
				<polygon class="st3" points="156.5,128.5 156.5,160.5 159.7,157.3 159.7,131.7 185.3,131.7 188.5,128.5 				"/>
			</g>
		</g>
		<use xlink:href="#XMLID_189_"  style="overflow:visible;fill:none;stroke:#000000;stroke-miterlimit:10;"/>
	</g>
	<g>
		<defs>
			<rect id="XMLID_188_" x="444.5" y="128.5" width="32" height="32"/>
		</defs>
		<use xlink:href="#XMLID_188_"  style="overflow:visible;fill:#0000CC;"/>
		<clipPath id="XMLID_10_">
			<use xlink:href="#XMLID_188_"  style="overflow:visible;"/>
		</clipPath>
		<g class="st11">
			<g class="st1">
				<polygon class="st2" points="473.3,131.7 476.5,128.5 476.5,160.5 473.3,157.3 				"/>
				<polygon class="st2" points="473.3,157.3 476.5,160.5 444.5,160.5 447.7,157.3 				"/>
				<polygon class="st3" points="444.5,128.5 444.5,160.5 447.7,157.3 447.7,131.7 473.3,131.7 476.5,128.5 				"/>
			</g>
		</g>
		<use xlink:href="#XMLID_188_"  style="overflow:visible;fill:none;stroke:#000000;stroke-miterlimit:10;"/>
	</g>
	<g>
		<path class="st3" d="M392.6,115.6c1.7-1.6,2.9-2.8,3.6-3.6c0.7-0.8,1.3-1.5,1.7-2.1c0.4-0.7,0.6-1.3,0.6-2c0-0.5-0.2-1-0.5-1.3
			c-0.3-0.3-0.8-0.5-1.4-0.5c-0.4,0-0.7,0-1,0.1c-0.3,0.1-0.6,0.2-0.8,0.3s-0.4,0.2-0.4,0.3c-0.3,0.5-0.4,0.8-0.4,0.8c0,0,0,0,0,0
			c0,0,0,0,0.1,0c0,0,0.1,0,0.1,0c0,0,0,0,0,0l-0.1,0.2l-0.2-0.1l-1.5-1.2c0.5-0.8,1.1-1.4,1.8-1.9c0.7-0.4,1.5-0.6,2.4-0.6
			c0.8,0,1.5,0.2,2.1,0.5c0.6,0.3,1.1,0.8,1.4,1.3c0.3,0.6,0.5,1.2,0.5,2c0,0.7-0.2,1.4-0.5,2.1c-0.3,0.7-0.8,1.3-1.4,2
			c-0.6,0.6-1.4,1.5-2.5,2.6l-0.8,0.8h4.2c0.2,0,0.4,0,0.5,0c0.1,0,0.2-0.1,0.3-0.1h0.2v2.1h-8V115.6z"/>
	</g>
	<g>
		<path class="st3" d="M426.2,150c1.7-1.6,2.9-2.8,3.6-3.6c0.7-0.8,1.3-1.5,1.7-2.1c0.4-0.7,0.6-1.3,0.6-2c0-0.5-0.2-1-0.5-1.3
			c-0.3-0.3-0.8-0.5-1.4-0.5c-0.4,0-0.7,0-1,0.1c-0.3,0.1-0.6,0.2-0.8,0.3s-0.4,0.2-0.4,0.3c-0.3,0.5-0.4,0.8-0.4,0.8c0,0,0,0,0,0
			c0,0,0,0,0.1,0c0,0,0.1,0,0.1,0c0,0,0,0,0,0l-0.1,0.2l-0.2-0.1l-1.5-1.2c0.5-0.8,1.1-1.4,1.8-1.9c0.7-0.4,1.5-0.6,2.4-0.6
			c0.8,0,1.5,0.2,2.1,0.5c0.6,0.3,1.1,0.8,1.4,1.3c0.3,0.6,0.5,1.2,0.5,2c0,0.7-0.2,1.4-0.5,2.1s-0.8,1.3-1.4,2
			c-0.6,0.6-1.4,1.5-2.5,2.6l-0.8,0.8h4.2c0.2,0,0.4,0,0.5,0c0.1,0,0.2-0.1,0.3-0.1h0.2v2.1h-8V150z"/>
	</g>
	<g>
		<path class="st3" d="M199.7,150c1.7-1.6,2.9-2.8,3.6-3.6c0.7-0.8,1.3-1.5,1.7-2.1c0.4-0.7,0.6-1.3,0.6-2c0-0.5-0.2-1-0.5-1.3
			c-0.3-0.3-0.8-0.5-1.4-0.5c-0.4,0-0.7,0-1,0.1c-0.3,0.1-0.6,0.2-0.8,0.3c-0.2,0.1-0.4,0.2-0.4,0.3c-0.3,0.5-0.4,0.8-0.4,0.8
			c0,0,0,0,0,0c0,0,0,0,0.1,0c0,0,0.1,0,0.1,0c0,0,0,0,0,0l-0.1,0.2l-0.2-0.1l-1.5-1.2c0.5-0.8,1.1-1.4,1.8-1.9
			c0.7-0.4,1.5-0.6,2.4-0.6c0.8,0,1.5,0.2,2.1,0.5c0.6,0.3,1.1,0.8,1.4,1.3c0.3,0.6,0.5,1.2,0.5,2c0,0.7-0.2,1.4-0.5,2.1
			s-0.8,1.3-1.4,2c-0.6,0.6-1.4,1.5-2.5,2.6l-0.8,0.8h4.2c0.2,0,0.4,0,0.5,0s0.2-0.1,0.3-0.1h0.2v2.1h-8V150z"/>
	</g>
	<g>
		<path class="st3" d="M136.1,151.7v-10.3l-2.2,0.7l-0.6-1.4l3.5-1.9h1.6v13H136.1z"/>
	</g>
	<g>
		<path class="st3" d="M45,121.3V111l-2.2,0.7l-0.6-1.4l3.5-1.9h1.6v13H45z"/>
	</g>
	<g>
		<path class="st3" d="M519.9,51.6c1.7-1.6,2.9-2.8,3.6-3.6c0.7-0.8,1.3-1.5,1.7-2.1c0.4-0.7,0.6-1.3,0.6-2c0-0.5-0.2-1-0.5-1.3
			c-0.3-0.3-0.8-0.5-1.4-0.5c-0.4,0-0.7,0-1,0.1c-0.3,0.1-0.6,0.2-0.8,0.3s-0.4,0.2-0.4,0.3c-0.3,0.5-0.4,0.8-0.4,0.8c0,0,0,0,0,0
			c0,0,0,0,0.1,0c0,0,0.1,0,0.1,0c0,0,0,0,0,0l-0.1,0.2l-0.2-0.1l-1.5-1.2c0.5-0.8,1.1-1.4,1.8-1.9c0.7-0.4,1.5-0.6,2.4-0.6
			c0.8,0,1.5,0.2,2.1,0.5c0.6,0.3,1.1,0.8,1.4,1.3c0.3,0.6,0.5,1.2,0.5,2c0,0.7-0.2,1.4-0.5,2.1c-0.3,0.7-0.8,1.3-1.4,2
			c-0.6,0.6-1.4,1.5-2.5,2.6l-0.8,0.8h4.2c0.2,0,0.4,0,0.5,0c0.1,0,0.2-0.1,0.3-0.1h0.2v2.1h-8V51.6z"/>
	</g>
	<g>
		<defs>
			<rect id="XMLID_187_" x="508.5" y="64.5" width="32" height="32"/>
		</defs>
		<use xlink:href="#XMLID_187_"  style="overflow:visible;fill:#0000CC;"/>
		<clipPath id="XMLID_11_">
			<use xlink:href="#XMLID_187_"  style="overflow:visible;"/>
		</clipPath>
		<g class="st12">
			<g class="st1">
				<polygon class="st2" points="537.3,67.7 540.5,64.5 540.5,96.5 537.3,93.3 				"/>
				<polygon class="st2" points="537.3,93.3 540.5,96.5 508.5,96.5 511.7,93.3 				"/>
				<polygon class="st3" points="508.5,64.5 508.5,96.5 511.7,93.3 511.7,67.7 537.3,67.7 540.5,64.5 				"/>
			</g>
		</g>
		<use xlink:href="#XMLID_187_"  style="overflow:visible;fill:none;stroke:#000000;stroke-miterlimit:10;"/>
	</g>
	<g>
		<defs>
			<rect id="XMLID_186_" x="348.5" y="96.5" width="32" height="32"/>
		</defs>
		<use xlink:href="#XMLID_186_"  style="overflow:visible;fill:#0000CC;"/>
		<clipPath id="XMLID_12_">
			<use xlink:href="#XMLID_186_"  style="overflow:visible;"/>
		</clipPath>
		<g class="st13">
			<g class="st1">
				<polygon class="st2" points="377.3,99.7 380.5,96.5 380.5,128.5 377.3,125.3 				"/>
				<polygon class="st2" points="377.3,125.3 380.5,128.5 348.5,128.5 351.7,125.3 				"/>
				<polygon class="st3" points="348.5,96.5 348.5,128.5 351.7,125.3 351.7,99.7 377.3,99.7 380.5,96.5 				"/>
			</g>
		</g>
		<use xlink:href="#XMLID_186_"  style="overflow:visible;fill:none;stroke:#000000;stroke-miterlimit:10;"/>
	</g>
	<g>
		<defs>
			<rect id="XMLID_185_" x="348.5" y="128.5" width="32" height="32"/>
		</defs>
		<use xlink:href="#XMLID_185_"  style="overflow:visible;fill:#0000CC;"/>
		<clipPath id="XMLID_13_">
			<use xlink:href="#XMLID_185_"  style="overflow:visible;"/>
		</clipPath>
		<g class="st14">
			<g class="st1">
				<polygon class="st2" points="377.3,131.7 380.5,128.5 380.5,160.5 377.3,157.3 				"/>
				<polygon class="st2" points="377.3,157.3 380.5,160.5 348.5,160.5 351.7,157.3 				"/>
				<polygon class="st3" points="348.5,128.5 348.5,160.5 351.7,157.3 351.7,131.7 377.3,131.7 380.5,128.5 				"/>
			</g>
		</g>
		<use xlink:href="#XMLID_185_"  style="overflow:visible;fill:none;stroke:#000000;stroke-miterlimit:10;"/>
	</g>
	<g>
		<defs>
			<rect id="XMLID_184_" x="252.5" y="128.5" width="32" height="32"/>
		</defs>
		<use xlink:href="#XMLID_184_"  style="overflow:visible;fill:#0000CC;"/>
		<clipPath id="XMLID_14_">
			<use xlink:href="#XMLID_184_"  style="overflow:visible;"/>
		</clipPath>
		<g class="st15">
			<g class="st1">
				<polygon class="st2" points="281.3,131.7 284.5,128.5 284.5,160.5 281.3,157.3 				"/>
				<polygon class="st2" points="281.3,157.3 284.5,160.5 252.5,160.5 255.7,157.3 				"/>
				<polygon class="st3" points="252.5,128.5 252.5,160.5 255.7,157.3 255.7,131.7 281.3,131.7 284.5,128.5 				"/>
			</g>
		</g>
		<use xlink:href="#XMLID_184_"  style="overflow:visible;fill:none;stroke:#000000;stroke-miterlimit:10;"/>
	</g>
	<g>
		<defs>
			<rect id="XMLID_183_" x="220.5" y="128.5" width="32" height="32"/>
		</defs>
		<use xlink:href="#XMLID_183_"  style="overflow:visible;fill:#0000CC;"/>
		<clipPath id="XMLID_15_">
			<use xlink:href="#XMLID_183_"  style="overflow:visible;"/>
		</clipPath>
		<g class="st16">
			<g class="st1">
				<polygon class="st2" points="249.3,131.7 252.5,128.5 252.5,160.5 249.3,157.3 				"/>
				<polygon class="st2" points="249.3,157.3 252.5,160.5 220.5,160.5 223.7,157.3 				"/>
				<polygon class="st3" points="220.5,128.5 220.5,160.5 223.7,157.3 223.7,131.7 249.3,131.7 252.5,128.5 				"/>
			</g>
		</g>
		<use xlink:href="#XMLID_183_"  style="overflow:visible;fill:none;stroke:#000000;stroke-miterlimit:10;"/>
	</g>
	<g>
		<defs>
			<rect id="XMLID_182_" x="32.5" y="128.5" width="32" height="32"/>
		</defs>
		<use xlink:href="#XMLID_182_"  style="overflow:visible;fill:#0000CC;"/>
		<clipPath id="XMLID_16_">
			<use xlink:href="#XMLID_182_"  style="overflow:visible;"/>
		</clipPath>
		<g class="st17">
			<g class="st1">
				<polygon class="st2" points="61.3,131.7 64.5,128.5 64.5,160.5 61.3,157.3 				"/>
				<polygon class="st2" points="61.3,157.3 64.5,160.5 32.5,160.5 35.7,157.3 				"/>
				<polygon class="st3" points="32.5,128.5 32.5,160.5 35.7,157.3 35.7,131.7 61.3,131.7 64.5,128.5 				"/>
			</g>
		</g>
		<use xlink:href="#XMLID_182_"  style="overflow:visible;fill:none;stroke:#000000;stroke-miterlimit:10;"/>
	</g>
	<g>
		<defs>
			<rect id="XMLID_181_" x="0.5" y="128.5" width="32" height="32"/>
		</defs>
		<use xlink:href="#XMLID_181_"  style="overflow:visible;fill:#0000CC;"/>
		<clipPath id="XMLID_17_">
			<use xlink:href="#XMLID_181_"  style="overflow:visible;"/>
		</clipPath>
		<g class="st18">
			<g class="st1">
				<polygon class="st2" points="29.3,131.7 32.5,128.5 32.5,160.5 29.3,157.3 				"/>
				<polygon class="st2" points="29.3,157.3 32.5,160.5 0.5,160.5 3.7,157.3 				"/>
				<polygon class="st3" points="0.5,128.5 0.5,160.5 3.7,157.3 3.7,131.7 29.3,131.7 32.5,128.5 				"/>
			</g>
		</g>
		<use xlink:href="#XMLID_181_"  style="overflow:visible;fill:none;stroke:#000000;stroke-miterlimit:10;"/>
	</g>
	<g>
		<defs>
			<rect id="XMLID_180_" x="0.5" y="96.5" width="32" height="32"/>
		</defs>
		<use xlink:href="#XMLID_180_"  style="overflow:visible;fill:#0000CC;"/>
		<clipPath id="XMLID_18_">
			<use xlink:href="#XMLID_180_"  style="overflow:visible;"/>
		</clipPath>
		<g class="st19">
			<g class="st1">
				<polygon class="st2" points="29.3,99.7 32.5,96.5 32.5,128.5 29.3,125.3 				"/>
				<polygon class="st2" points="29.3,125.3 32.5,128.5 0.5,128.5 3.7,125.3 				"/>
				<polygon class="st3" points="0.5,96.5 0.5,128.5 3.7,125.3 3.7,99.7 29.3,99.7 32.5,96.5 				"/>
			</g>
		</g>
		<use xlink:href="#XMLID_180_"  style="overflow:visible;fill:none;stroke:#000000;stroke-miterlimit:10;"/>
	</g>
	<g>
		<defs>
			<rect id="XMLID_179_" x="220.5" y="96.5" width="32" height="32"/>
		</defs>
		<use xlink:href="#XMLID_179_"  style="overflow:visible;fill:#0000CC;"/>
		<clipPath id="XMLID_19_">
			<use xlink:href="#XMLID_179_"  style="overflow:visible;"/>
		</clipPath>
		<g class="st20">
			<g class="st1">
				<polygon class="st2" points="249.3,99.7 252.5,96.5 252.5,128.5 249.3,125.3 				"/>
				<polygon class="st2" points="249.3,125.3 252.5,128.5 220.5,128.5 223.7,125.3 				"/>
				<polygon class="st3" points="220.5,96.5 220.5,128.5 223.7,125.3 223.7,99.7 249.3,99.7 252.5,96.5 				"/>
			</g>
		</g>
		<use xlink:href="#XMLID_179_"  style="overflow:visible;fill:none;stroke:#000000;stroke-miterlimit:10;"/>
	</g>
	<g>
		<defs>
			<rect id="XMLID_178_" x="284.5" y="128.5" width="32" height="32"/>
		</defs>
		<use xlink:href="#XMLID_178_"  style="overflow:visible;fill:#0000CC;"/>
		<clipPath id="XMLID_20_">
			<use xlink:href="#XMLID_178_"  style="overflow:visible;"/>
		</clipPath>
		<g class="st21">
			<g class="st1">
				<polygon class="st2" points="313.3,131.7 316.5,128.5 316.5,160.5 313.3,157.3 				"/>
				<polygon class="st2" points="313.3,157.3 316.5,160.5 284.5,160.5 287.7,157.3 				"/>
				<polygon class="st3" points="284.5,128.5 284.5,160.5 287.7,157.3 287.7,131.7 313.3,131.7 316.5,128.5 				"/>
			</g>
		</g>
		<use xlink:href="#XMLID_178_"  style="overflow:visible;fill:none;stroke:#000000;stroke-miterlimit:10;"/>
	</g>
	<g>
		<polygon class="st22" points="15.6,101.5 14.9,102.1 7.5,107.4 15.6,113.3 		"/>
		<rect x="15.6" y="101.5" class="st22" width="1.2" height="11.8"/>
		<rect x="10.9" y="119.8" class="st23" width="10.5" height="1.9"/>
		<rect x="7.5" y="121.6" class="st23" width="18" height="1.9"/>
		<rect x="15.6" y="113.3" class="st23" width="1.2" height="7.1"/>
	</g>
	<g>
		<polygon class="st22" points="171.6,133.5 170.9,134.1 163.6,139.4 171.6,145.3 		"/>
		<rect x="171.6" y="133.5" class="st22" width="1.2" height="11.8"/>
		<rect x="167" y="151.8" class="st23" width="10.5" height="1.9"/>
		<rect x="163.6" y="153.6" class="st23" width="18" height="1.9"/>
		<rect x="171.6" y="145.3" class="st23" width="1.2" height="7.1"/>
	</g>
	<g>
		<polygon class="st22" points="523.6,69.5 522.9,70.1 515.5,75.4 523.6,81.3 		"/>
		<rect x="523.6" y="69.5" class="st22" width="1.2" height="11.8"/>
		<rect x="518.9" y="87.8" class="st23" width="10.5" height="1.9"/>
		<rect x="515.5" y="89.6" class="st23" width="18" height="1.9"/>
		<rect x="523.6" y="81.3" class="st23" width="1.2" height="7.1"/>
	</g>
	<g>
		<g>
			<defs>
				<rect id="XMLID_177_" x="476.5" y="96.5" width="32" height="32"/>
			</defs>
			<use xlink:href="#XMLID_177_"  style="overflow:visible;fill:#0000CC;"/>
			<clipPath id="XMLID_21_">
				<use xlink:href="#XMLID_177_"  style="overflow:visible;"/>
			</clipPath>
			<g class="st24">
				<g class="st1">
					<polygon class="st2" points="505.3,99.7 508.5,96.5 508.5,128.5 505.3,125.3 					"/>
					<polygon class="st2" points="505.3,125.3 508.5,128.5 476.5,128.5 479.7,125.3 					"/>
					<polygon class="st3" points="476.5,96.5 476.5,128.5 479.7,125.3 479.7,99.7 505.3,99.7 508.5,96.5 					"/>
				</g>
			</g>
			<use xlink:href="#XMLID_177_"  style="overflow:visible;fill:none;stroke:#000000;stroke-miterlimit:10;"/>
		</g>
		<g>
			<polygon class="st22" points="491.6,101.5 490.9,102.1 483.5,107.4 491.6,113.3 			"/>
			<rect x="491.6" y="101.5" class="st22" width="1.2" height="11.8"/>
			<rect x="486.9" y="119.8" class="st23" width="10.5" height="1.9"/>
			<rect x="483.5" y="121.6" class="st23" width="18" height="1.9"/>
			<rect x="491.6" y="113.3" class="st23" width="1.2" height="7.1"/>
		</g>
	</g>
	<g>
		<defs>
			<rect id="XMLID_173_" x="508.5" y="0.5" width="32" height="32"/>
		</defs>
		<use xlink:href="#XMLID_173_"  style="overflow:visible;fill:#0000CC;"/>
		<clipPath id="XMLID_22_">
			<use xlink:href="#XMLID_173_"  style="overflow:visible;"/>
		</clipPath>
		<g class="st25">
			<g class="st1">
				<polygon class="st2" points="537.3,3.7 540.5,0.5 540.5,32.5 537.3,29.3 				"/>
				<polygon class="st2" points="537.3,29.3 540.5,32.5 508.5,32.5 511.7,29.3 				"/>
				<polygon class="st3" points="508.5,0.5 508.5,32.5 511.7,29.3 511.7,3.7 537.3,3.7 540.5,0.5 				"/>
			</g>
		</g>
		<use xlink:href="#XMLID_173_"  style="overflow:visible;fill:none;stroke:#000000;stroke-miterlimit:10;"/>
	</g>
</g>
</svg>
