<?xml version="1.0" encoding="utf-8"?>
<!-- Generator: Adobe Illustrator 22.0.1, SVG Export Plug-In . SVG Version: 6.00 Build 0)  -->
<svg version="1.1" id="Warstwa_1" xmlns="http://www.w3.org/2000/svg" xmlns:xlink="http://www.w3.org/1999/xlink" x="0px" y="0px"
	 viewBox="0 0 541 129" style="enable-background:new 0 0 541 129;" xml:space="preserve">
<style type="text/css">
	.st0{clip-path:url(#XMLID_2_);}
	.st1{enable-background:new    ;}
	.st2{fill:#000099;}
	.st3{fill:#0000FF;}
	.st4{clip-path:url(#XMLID_3_);}
	.st5{clip-path:url(#XMLID_4_);}
	.st6{clip-path:url(#XMLID_5_);}
	.st7{clip-path:url(#XMLID_6_);}
	.st8{clip-path:url(#XMLID_7_);}
	.st9{clip-path:url(#XMLID_8_);}
	.st10{fill:#990033;}
	.st11{fill:#050505;}
	.st12{clip-path:url(#XMLID_9_);}
	.st13{clip-path:url(#XMLID_10_);}
</style>
<g>
	<g>
		<defs>
			<rect id="XMLID_242_" x="508.5" y="64.5" width="32" height="32"/>
		</defs>
		<use xlink:href="#XMLID_242_"  style="overflow:visible;fill:#0000CC;"/>
		<clipPath id="XMLID_2_">
			<use xlink:href="#XMLID_242_"  style="overflow:visible;"/>
		</clipPath>
		<g class="st0">
			<g class="st1">
				<polygon class="st2" points="537.3,67.7 540.5,64.5 540.5,96.5 537.3,93.3 				"/>
				<polygon class="st2" points="537.3,93.3 540.5,96.5 508.5,96.5 511.7,93.3 				"/>
				<polygon class="st3" points="508.5,64.5 508.5,96.5 511.7,93.3 511.7,67.7 537.3,67.7 540.5,64.5 				"/>
			</g>
		</g>
		<use xlink:href="#XMLID_242_"  style="overflow:visible;fill:none;stroke:#000000;stroke-miterlimit:10;"/>
	</g>
	<g>
		<defs>
			<rect id="XMLID_241_" x="508.5" y="96.5" width="32" height="32"/>
		</defs>
		<use xlink:href="#XMLID_241_"  style="overflow:visible;fill:#0000CC;"/>
		<clipPath id="XMLID_3_">
			<use xlink:href="#XMLID_241_"  style="overflow:visible;"/>
		</clipPath>
		<g class="st4">
			<g class="st1">
				<polygon class="st2" points="537.3,99.7 540.5,96.5 540.5,128.5 537.3,125.3 				"/>
				<polygon class="st2" points="537.3,125.3 540.5,128.5 508.5,128.5 511.7,125.3 				"/>
				<polygon class="st3" points="508.5,96.5 508.5,128.5 511.7,125.3 511.7,99.7 537.3,99.7 540.5,96.5 				"/>
			</g>
		</g>
		<use xlink:href="#XMLID_241_"  style="overflow:visible;fill:none;stroke:#000000;stroke-miterlimit:10;"/>
	</g>
	<g>
		<defs>
			<rect id="XMLID_240_" x="0.5" y="32.5" width="32" height="32"/>
		</defs>
		<use xlink:href="#XMLID_240_"  style="overflow:visible;fill:#0000CC;"/>
		<clipPath id="XMLID_4_">
			<use xlink:href="#XMLID_240_"  style="overflow:visible;"/>
		</clipPath>
		<g class="st5">
			<g class="st1">
				<polygon class="st2" points="29.3,35.7 32.5,32.5 32.5,64.5 29.3,61.3 				"/>
				<polygon class="st2" points="29.3,61.3 32.5,64.5 0.5,64.5 3.7,61.3 				"/>
				<polygon class="st3" points="0.5,32.5 0.5,64.5 3.7,61.3 3.7,35.7 29.3,35.7 32.5,32.5 				"/>
			</g>
		</g>
		<use xlink:href="#XMLID_240_"  style="overflow:visible;fill:none;stroke:#000000;stroke-miterlimit:10;"/>
	</g>
	<g>
		<path class="st3" d="M486.6,118c1.7-1.6,2.9-2.8,3.6-3.6s1.3-1.5,1.7-2.1c0.4-0.7,0.6-1.3,0.6-2c0-0.5-0.2-1-0.5-1.3
			c-0.3-0.3-0.8-0.5-1.4-0.5c-0.4,0-0.7,0-1,0.1c-0.3,0.1-0.6,0.2-0.8,0.3s-0.4,0.2-0.4,0.3c-0.3,0.5-0.4,0.8-0.4,0.8c0,0,0,0,0,0
			c0,0,0,0,0.1,0c0,0,0.1,0,0.1,0c0,0,0,0,0,0l-0.1,0.2l-0.2-0.1l-1.5-1.2c0.5-0.8,1.1-1.4,1.8-1.9c0.7-0.4,1.5-0.6,2.4-0.6
			c0.8,0,1.5,0.2,2.1,0.5c0.6,0.3,1.1,0.8,1.4,1.3c0.3,0.6,0.5,1.2,0.5,2c0,0.7-0.2,1.4-0.5,2.1c-0.3,0.7-0.8,1.3-1.4,2
			c-0.6,0.6-1.4,1.5-2.5,2.6l-0.8,0.8h4.2c0.2,0,0.4,0,0.5,0c0.1,0,0.2-0.1,0.3-0.1h0.2v2.1h-8V118z"/>
	</g>
	<g>
		<path class="st3" d="M45,89.3V79l-2.2,0.7l-0.6-1.4l3.5-1.9h1.6v13H45z"/>
	</g>
	<g>
		<defs>
			<rect id="XMLID_239_" x="508.5" y="0.5" width="32" height="32"/>
		</defs>
		<use xlink:href="#XMLID_239_"  style="overflow:visible;fill:#0000CC;"/>
		<clipPath id="XMLID_5_">
			<use xlink:href="#XMLID_239_"  style="overflow:visible;"/>
		</clipPath>
		<g class="st6">
			<g class="st1">
				<polygon class="st2" points="537.3,3.7 540.5,0.5 540.5,32.5 537.3,29.3 				"/>
				<polygon class="st2" points="537.3,29.3 540.5,32.5 508.5,32.5 511.7,29.3 				"/>
				<polygon class="st3" points="508.5,0.5 508.5,32.5 511.7,29.3 511.7,3.7 537.3,3.7 540.5,0.5 				"/>
			</g>
		</g>
		<use xlink:href="#XMLID_239_"  style="overflow:visible;fill:none;stroke:#000000;stroke-miterlimit:10;"/>
	</g>
	<g>
		<defs>
			<rect id="XMLID_238_" x="32.5" y="96.5" width="32" height="32"/>
		</defs>
		<use xlink:href="#XMLID_238_"  style="overflow:visible;fill:#0000CC;"/>
		<clipPath id="XMLID_6_">
			<use xlink:href="#XMLID_238_"  style="overflow:visible;"/>
		</clipPath>
		<g class="st7">
			<g class="st1">
				<polygon class="st2" points="61.3,99.7 64.5,96.5 64.5,128.5 61.3,125.3 				"/>
				<polygon class="st2" points="61.3,125.3 64.5,128.5 32.5,128.5 35.7,125.3 				"/>
				<polygon class="st3" points="32.5,96.5 32.5,128.5 35.7,125.3 35.7,99.7 61.3,99.7 64.5,96.5 				"/>
			</g>
		</g>
		<use xlink:href="#XMLID_238_"  style="overflow:visible;fill:none;stroke:#000000;stroke-miterlimit:10;"/>
	</g>
	<g>
		<defs>
			<rect id="XMLID_237_" x="64.5" y="96.5" width="32" height="32"/>
		</defs>
		<use xlink:href="#XMLID_237_"  style="overflow:visible;fill:#0000CC;"/>
		<clipPath id="XMLID_7_">
			<use xlink:href="#XMLID_237_"  style="overflow:visible;"/>
		</clipPath>
		<g class="st8">
			<g class="st1">
				<polygon class="st2" points="93.3,99.7 96.5,96.5 96.5,128.5 93.3,125.3 				"/>
				<polygon class="st2" points="93.3,125.3 96.5,128.5 64.5,128.5 67.7,125.3 				"/>
				<polygon class="st3" points="64.5,96.5 64.5,128.5 67.7,125.3 67.7,99.7 93.3,99.7 96.5,96.5 				"/>
			</g>
		</g>
		<use xlink:href="#XMLID_237_"  style="overflow:visible;fill:none;stroke:#000000;stroke-miterlimit:10;"/>
	</g>
	<g>
		<defs>
			<rect id="XMLID_236_" x="0.5" y="64.5" width="32" height="32"/>
		</defs>
		<use xlink:href="#XMLID_236_"  style="overflow:visible;fill:#0000CC;"/>
		<clipPath id="XMLID_8_">
			<use xlink:href="#XMLID_236_"  style="overflow:visible;"/>
		</clipPath>
		<g class="st9">
			<g class="st1">
				<polygon class="st2" points="29.3,67.7 32.5,64.5 32.5,96.5 29.3,93.3 				"/>
				<polygon class="st2" points="29.3,93.3 32.5,96.5 0.5,96.5 3.7,93.3 				"/>
				<polygon class="st3" points="0.5,64.5 0.5,96.5 3.7,93.3 3.7,67.7 29.3,67.7 32.5,64.5 				"/>
			</g>
		</g>
		<use xlink:href="#XMLID_236_"  style="overflow:visible;fill:none;stroke:#000000;stroke-miterlimit:10;"/>
	</g>
	<g>
		<polygon class="st10" points="15.6,69.5 14.9,70.1 7.5,75.4 15.6,81.3 		"/>
		<rect x="15.6" y="69.5" class="st10" width="1.2" height="11.8"/>
		<rect x="10.9" y="87.8" class="st11" width="10.5" height="1.9"/>
		<rect x="7.5" y="89.6" class="st11" width="18" height="1.9"/>
		<rect x="15.6" y="81.3" class="st11" width="1.2" height="7.1"/>
	</g>
	<g>
		<polygon class="st10" points="523.6,5.5 522.9,6.1 515.5,11.4 523.6,17.3 		"/>
		<rect x="523.6" y="5.5" class="st10" width="1.2" height="11.8"/>
		<rect x="518.9" y="23.8" class="st11" width="10.5" height="1.9"/>
		<rect x="515.5" y="25.6" class="st11" width="18" height="1.9"/>
		<rect x="523.6" y="17.3" class="st11" width="1.2" height="7.1"/>
	</g>
	<g>
		<defs>
			<rect id="XMLID_83_" x="476.5" y="64.5" width="32" height="32"/>
		</defs>
		<use xlink:href="#XMLID_83_"  style="overflow:visible;fill:#0000CC;"/>
		<clipPath id="XMLID_9_">
			<use xlink:href="#XMLID_83_"  style="overflow:visible;"/>
		</clipPath>
		<g class="st12">
			<g class="st1">
				<polygon class="st2" points="505.3,67.7 508.5,64.5 508.5,96.5 505.3,93.3 				"/>
				<polygon class="st2" points="505.3,93.3 508.5,96.5 476.5,96.5 479.7,93.3 				"/>
				<polygon class="st3" points="476.5,64.5 476.5,96.5 479.7,93.3 479.7,67.7 505.3,67.7 508.5,64.5 				"/>
			</g>
		</g>
		<use xlink:href="#XMLID_83_"  style="overflow:visible;fill:none;stroke:#000000;stroke-miterlimit:10;"/>
	</g>
	<g>
		<defs>
			<rect id="XMLID_82_" x="444.5" y="96.5" width="32" height="32"/>
		</defs>
		<use xlink:href="#XMLID_82_"  style="overflow:visible;fill:#0000CC;"/>
		<clipPath id="XMLID_10_">
			<use xlink:href="#XMLID_82_"  style="overflow:visible;"/>
		</clipPath>
		<g class="st13">
			<g class="st1">
				<polygon class="st2" points="473.3,99.7 476.5,96.5 476.5,128.5 473.3,125.3 				"/>
				<polygon class="st2" points="473.3,125.3 476.5,128.5 444.5,128.5 447.7,125.3 				"/>
				<polygon class="st3" points="444.5,96.5 444.5,128.5 447.7,125.3 447.7,99.7 473.3,99.7 476.5,96.5 				"/>
			</g>
		</g>
		<use xlink:href="#XMLID_82_"  style="overflow:visible;fill:none;stroke:#000000;stroke-miterlimit:10;"/>
	</g>
</g>
</svg>
