<?xml version="1.0" encoding="utf-8"?>
<!-- Generator: Adobe Illustrator 22.0.1, SVG Export Plug-In . SVG Version: 6.00 Build 0)  -->
<svg version="1.1" id="Warstwa_1" xmlns="http://www.w3.org/2000/svg" xmlns:xlink="http://www.w3.org/1999/xlink" x="0px" y="0px"
	 viewBox="0 0 97 193" style="enable-background:new 0 0 97 193;" xml:space="preserve">
<style type="text/css">
	.st0{clip-path:url(#XMLID_2_);}
	.st1{enable-background:new    ;}
	.st2{fill:#000099;}
	.st3{fill:#0000FF;}
	.st4{clip-path:url(#XMLID_3_);}
	.st5{clip-path:url(#XMLID_4_);}
	.st6{clip-path:url(#XMLID_5_);}
	.st7{clip-path:url(#XMLID_6_);}
	.st8{clip-path:url(#XMLID_7_);}
	.st9{clip-path:url(#XMLID_8_);}
	.st10{clip-path:url(#XMLID_9_);}
	.st11{clip-path:url(#XMLID_10_);}
	.st12{clip-path:url(#XMLID_11_);}
	.st13{clip-path:url(#XMLID_12_);}
	.st14{clip-path:url(#XMLID_13_);}
</style>
<g>
	<g>
		<defs>
			<rect id="XMLID_603_" x="0.5" y="0.5" width="32" height="32"/>
		</defs>
		<use xlink:href="#XMLID_603_"  style="overflow:visible;fill:#0000CC;"/>
		<clipPath id="XMLID_2_">
			<use xlink:href="#XMLID_603_"  style="overflow:visible;"/>
		</clipPath>
		<g class="st0">
			<g class="st1">
				<polygon class="st2" points="29.3,3.7 32.5,0.5 32.5,32.5 29.3,29.3 				"/>
				<polygon class="st2" points="29.3,29.3 32.5,32.5 0.5,32.5 3.7,29.3 				"/>
				<polygon class="st3" points="0.5,0.5 0.5,32.5 3.7,29.3 3.7,3.7 29.3,3.7 32.5,0.5 				"/>
			</g>
		</g>
		<use xlink:href="#XMLID_603_"  style="overflow:visible;fill:none;stroke:#000000;stroke-miterlimit:10;"/>
	</g>
	<g>
		<defs>
			<rect id="XMLID_602_" x="64.5" y="32.5" width="32" height="32"/>
		</defs>
		<use xlink:href="#XMLID_602_"  style="overflow:visible;fill:#0000CC;"/>
		<clipPath id="XMLID_3_">
			<use xlink:href="#XMLID_602_"  style="overflow:visible;"/>
		</clipPath>
		<g class="st4">
			<g class="st1">
				<polygon class="st2" points="93.3,35.7 96.5,32.5 96.5,64.5 93.3,61.3 				"/>
				<polygon class="st2" points="93.3,61.3 96.5,64.5 64.5,64.5 67.7,61.3 				"/>
				<polygon class="st3" points="64.5,32.5 64.5,64.5 67.7,61.3 67.7,35.7 93.3,35.7 96.5,32.5 				"/>
			</g>
		</g>
		<use xlink:href="#XMLID_602_"  style="overflow:visible;fill:none;stroke:#000000;stroke-miterlimit:10;"/>
	</g>
	<g>
		<defs>
			<rect id="XMLID_601_" x="64.5" y="64.5" width="32" height="32"/>
		</defs>
		<use xlink:href="#XMLID_601_"  style="overflow:visible;fill:#0000CC;"/>
		<clipPath id="XMLID_4_">
			<use xlink:href="#XMLID_601_"  style="overflow:visible;"/>
		</clipPath>
		<g class="st5">
			<g class="st1">
				<polygon class="st2" points="93.3,67.7 96.5,64.5 96.5,96.5 93.3,93.3 				"/>
				<polygon class="st2" points="93.3,93.3 96.5,96.5 64.5,96.5 67.7,93.3 				"/>
				<polygon class="st3" points="64.5,64.5 64.5,96.5 67.7,93.3 67.7,67.7 93.3,67.7 96.5,64.5 				"/>
			</g>
		</g>
		<use xlink:href="#XMLID_601_"  style="overflow:visible;fill:none;stroke:#000000;stroke-miterlimit:10;"/>
	</g>
	<g>
		<defs>
			<rect id="XMLID_600_" x="32.5" y="64.5" width="32" height="32"/>
		</defs>
		<use xlink:href="#XMLID_600_"  style="overflow:visible;fill:#0000CC;"/>
		<clipPath id="XMLID_5_">
			<use xlink:href="#XMLID_600_"  style="overflow:visible;"/>
		</clipPath>
		<g class="st6">
			<g class="st1">
				<polygon class="st2" points="61.3,67.7 64.5,64.5 64.5,96.5 61.3,93.3 				"/>
				<polygon class="st2" points="61.3,93.3 64.5,96.5 32.5,96.5 35.7,93.3 				"/>
				<polygon class="st3" points="32.5,64.5 32.5,96.5 35.7,93.3 35.7,67.7 61.3,67.7 64.5,64.5 				"/>
			</g>
		</g>
		<use xlink:href="#XMLID_600_"  style="overflow:visible;fill:none;stroke:#000000;stroke-miterlimit:10;"/>
	</g>
	<g>
		<defs>
			<rect id="XMLID_599_" x="32.5" y="160.5" width="32" height="32"/>
		</defs>
		<use xlink:href="#XMLID_599_"  style="overflow:visible;fill:#0000CC;"/>
		<clipPath id="XMLID_6_">
			<use xlink:href="#XMLID_599_"  style="overflow:visible;"/>
		</clipPath>
		<g class="st7">
			<g class="st1">
				<polygon class="st2" points="61.3,163.7 64.5,160.5 64.5,192.5 61.3,189.3 				"/>
				<polygon class="st2" points="61.3,189.3 64.5,192.5 32.5,192.5 35.7,189.3 				"/>
				<polygon class="st3" points="32.5,160.5 32.5,192.5 35.7,189.3 35.7,163.7 61.3,163.7 64.5,160.5 				"/>
			</g>
		</g>
		<use xlink:href="#XMLID_599_"  style="overflow:visible;fill:none;stroke:#000000;stroke-miterlimit:10;"/>
	</g>
	<g>
		<defs>
			<rect id="XMLID_598_" x="64.5" y="160.5" width="32" height="32"/>
		</defs>
		<use xlink:href="#XMLID_598_"  style="overflow:visible;fill:#0000CC;"/>
		<clipPath id="XMLID_7_">
			<use xlink:href="#XMLID_598_"  style="overflow:visible;"/>
		</clipPath>
		<g class="st8">
			<g class="st1">
				<polygon class="st2" points="93.3,163.7 96.5,160.5 96.5,192.5 93.3,189.3 				"/>
				<polygon class="st2" points="93.3,189.3 96.5,192.5 64.5,192.5 67.7,189.3 				"/>
				<polygon class="st3" points="64.5,160.5 64.5,192.5 67.7,189.3 67.7,163.7 93.3,163.7 96.5,160.5 				"/>
			</g>
		</g>
		<use xlink:href="#XMLID_598_"  style="overflow:visible;fill:none;stroke:#000000;stroke-miterlimit:10;"/>
	</g>
	<g>
		<defs>
			<rect id="XMLID_597_" x="64.5" y="128.5" width="32" height="32"/>
		</defs>
		<use xlink:href="#XMLID_597_"  style="overflow:visible;fill:#0000CC;"/>
		<clipPath id="XMLID_8_">
			<use xlink:href="#XMLID_597_"  style="overflow:visible;"/>
		</clipPath>
		<g class="st9">
			<g class="st1">
				<polygon class="st2" points="93.3,131.7 96.5,128.5 96.5,160.5 93.3,157.3 				"/>
				<polygon class="st2" points="93.3,157.3 96.5,160.5 64.5,160.5 67.7,157.3 				"/>
				<polygon class="st3" points="64.5,128.5 64.5,160.5 67.7,157.3 67.7,131.7 93.3,131.7 96.5,128.5 				"/>
			</g>
		</g>
		<use xlink:href="#XMLID_597_"  style="overflow:visible;fill:none;stroke:#000000;stroke-miterlimit:10;"/>
	</g>
	<g>
		<defs>
			<rect id="XMLID_596_" x="32.5" y="0.5" width="32" height="32"/>
		</defs>
		<use xlink:href="#XMLID_596_"  style="overflow:visible;fill:#0000CC;"/>
		<clipPath id="XMLID_9_">
			<use xlink:href="#XMLID_596_"  style="overflow:visible;"/>
		</clipPath>
		<g class="st10">
			<g class="st1">
				<polygon class="st2" points="61.3,3.7 64.5,0.5 64.5,32.5 61.3,29.3 				"/>
				<polygon class="st2" points="61.3,29.3 64.5,32.5 32.5,32.5 35.7,29.3 				"/>
				<polygon class="st3" points="32.5,0.5 32.5,32.5 35.7,29.3 35.7,3.7 61.3,3.7 64.5,0.5 				"/>
			</g>
		</g>
		<use xlink:href="#XMLID_596_"  style="overflow:visible;fill:none;stroke:#000000;stroke-miterlimit:10;"/>
	</g>
	<g>
		<defs>
			<rect id="XMLID_595_" x="64.5" y="0.5" width="32" height="32"/>
		</defs>
		<use xlink:href="#XMLID_595_"  style="overflow:visible;fill:#0000CC;"/>
		<clipPath id="XMLID_10_">
			<use xlink:href="#XMLID_595_"  style="overflow:visible;"/>
		</clipPath>
		<g class="st11">
			<g class="st1">
				<polygon class="st2" points="93.3,3.7 96.5,0.5 96.5,32.5 93.3,29.3 				"/>
				<polygon class="st2" points="93.3,29.3 96.5,32.5 64.5,32.5 67.7,29.3 				"/>
				<polygon class="st3" points="64.5,0.5 64.5,32.5 67.7,29.3 67.7,3.7 93.3,3.7 96.5,0.5 				"/>
			</g>
		</g>
		<use xlink:href="#XMLID_595_"  style="overflow:visible;fill:none;stroke:#000000;stroke-miterlimit:10;"/>
	</g>
	<g>
		<defs>
			<rect id="XMLID_594_" x="64.5" y="96.5" width="32" height="32"/>
		</defs>
		<use xlink:href="#XMLID_594_"  style="overflow:visible;fill:#0000CC;"/>
		<clipPath id="XMLID_11_">
			<use xlink:href="#XMLID_594_"  style="overflow:visible;"/>
		</clipPath>
		<g class="st12">
			<g class="st1">
				<polygon class="st2" points="93.3,99.7 96.5,96.5 96.5,128.5 93.3,125.3 				"/>
				<polygon class="st2" points="93.3,125.3 96.5,128.5 64.5,128.5 67.7,125.3 				"/>
				<polygon class="st3" points="64.5,96.5 64.5,128.5 67.7,125.3 67.7,99.7 93.3,99.7 96.5,96.5 				"/>
			</g>
		</g>
		<use xlink:href="#XMLID_594_"  style="overflow:visible;fill:none;stroke:#000000;stroke-miterlimit:10;"/>
	</g>
	<g>
		<defs>
			<rect id="XMLID_593_" x="0.5" y="64.5" width="32" height="32"/>
		</defs>
		<use xlink:href="#XMLID_593_"  style="overflow:visible;fill:#0000CC;"/>
		<clipPath id="XMLID_12_">
			<use xlink:href="#XMLID_593_"  style="overflow:visible;"/>
		</clipPath>
		<g class="st13">
			<g class="st1">
				<polygon class="st2" points="29.3,67.7 32.5,64.5 32.5,96.5 29.3,93.3 				"/>
				<polygon class="st2" points="29.3,93.3 32.5,96.5 0.5,96.5 3.7,93.3 				"/>
				<polygon class="st3" points="0.5,64.5 0.5,96.5 3.7,93.3 3.7,67.7 29.3,67.7 32.5,64.5 				"/>
			</g>
		</g>
		<use xlink:href="#XMLID_593_"  style="overflow:visible;fill:none;stroke:#000000;stroke-miterlimit:10;"/>
	</g>
	<g>
		<defs>
			<rect id="XMLID_592_" x="0.5" y="160.5" width="32" height="32"/>
		</defs>
		<use xlink:href="#XMLID_592_"  style="overflow:visible;fill:#0000CC;"/>
		<clipPath id="XMLID_13_">
			<use xlink:href="#XMLID_592_"  style="overflow:visible;"/>
		</clipPath>
		<g class="st14">
			<g class="st1">
				<polygon class="st2" points="29.3,163.7 32.5,160.5 32.5,192.5 29.3,189.3 				"/>
				<polygon class="st2" points="29.3,189.3 32.5,192.5 0.5,192.5 3.7,189.3 				"/>
				<polygon class="st3" points="0.5,160.5 0.5,192.5 3.7,189.3 3.7,163.7 29.3,163.7 32.5,160.5 				"/>
			</g>
		</g>
		<use xlink:href="#XMLID_592_"  style="overflow:visible;fill:none;stroke:#000000;stroke-miterlimit:10;"/>
	</g>
</g>
<g>
	<path class="st3" d="M52.2,51.2c0.4,0.5,0.5,1.1,0.5,1.8c0,0.7-0.2,1.2-0.5,1.8s-0.7,0.9-1.3,1.3s-1.2,0.5-2,0.5
		c-1.5,0-2.7-0.5-3.5-1.5l0.8-1.7l0,0l0,0c0.3,0.5,0.6,0.9,1,1.1s1,0.3,1.6,0.3c0.6,0,1-0.2,1.3-0.5s0.5-0.8,0.5-1.3
		c0-0.6-0.2-1.1-0.5-1.3s-0.9-0.4-1.7-0.4c-0.3,0-0.6,0-0.9,0.1v-1.6c0.1,0,0.2,0,0.4,0c0.9,0,1.6-0.1,1.9-0.4s0.5-0.7,0.5-1.2
		c0-0.4-0.1-0.8-0.4-1.1s-0.6-0.4-1.1-0.4c-0.4,0-0.8,0.1-1.1,0.2s-0.7,0.4-1.1,0.7l-1.1-1.2c0.4-0.5,0.9-0.9,1.5-1.1
		s1.2-0.4,1.8-0.4c0.7,0,1.3,0.1,1.8,0.4s0.9,0.6,1.2,1.1s0.4,1,0.4,1.5c0,0.6-0.2,1.1-0.5,1.6s-0.7,0.8-1.1,0.9
		C51.4,50.4,51.8,50.7,52.2,51.2z M46.2,53.2C46.2,53.2,46.2,53.2,46.2,53.2C46.3,53.2,46.3,53.2,46.2,53.2l0,0.1
		C46.2,53.3,46.2,53.2,46.2,53.2z M46.5,53.3C46.5,53.3,46.5,53.3,46.5,53.3c0,0-0.1,0-0.1,0s-0.1,0-0.1-0.1l0,0L46.5,53.3
		L46.5,53.3z"/>
</g>
<g>
	<path class="st3" d="M16,151.2v-8.9l-1.9,0.6l-0.5-1.2l3-1.6H18v11.2H16z"/>
</g>
</svg>
