<svg xmlns="http://www.w3.org/2000/svg" xmlns:xlink="http://www.w3.org/1999/xlink" viewBox="0 0 112.4 193"><defs><style>.cls-1,.cls-2{fill:#00c;}.cls-1,.cls-7{stroke:#000;stroke-miterlimit:10;}.cls-3{clip-path:url(#clip-path);}.cls-4{isolation:isolate;}.cls-5{fill:#009;}.cls-6{fill:blue;}.cls-7{fill:none;}.cls-8{clip-path:url(#clip-path-2);}.cls-9{clip-path:url(#clip-path-3);}.cls-10{clip-path:url(#clip-path-4);}.cls-11{clip-path:url(#clip-path-5);}.cls-12{clip-path:url(#clip-path-6);}.cls-13{clip-path:url(#clip-path-7);}.cls-14{clip-path:url(#clip-path-8);}.cls-15{clip-path:url(#clip-path-9);}.cls-16{clip-path:url(#clip-path-10);}.cls-17{clip-path:url(#clip-path-11);}.cls-18{clip-path:url(#clip-path-12);}</style><clipPath id="clip-path"><rect id="_Prostokąt_" data-name="&lt;Prostokąt&gt;" class="cls-1" x="15.9" y="0.5" width="32" height="32"/></clipPath><clipPath id="clip-path-2"><rect id="_Prostokąt_2" data-name="&lt;Prostokąt&gt;" class="cls-1" x="15.9" y="32.5" width="32" height="32"/></clipPath><clipPath id="clip-path-3"><rect id="_Prostokąt_3" data-name="&lt;Prostokąt&gt;" class="cls-1" x="79.9" y="64.5" width="32" height="32"/></clipPath><clipPath id="clip-path-4"><rect id="_Prostokąt_4" data-name="&lt;Prostokąt&gt;" class="cls-1" x="47.9" y="64.5" width="32" height="32"/></clipPath><clipPath id="clip-path-5"><rect id="_Prostokąt_5" data-name="&lt;Prostokąt&gt;" class="cls-1" x="47.9" y="160.5" width="32" height="32"/></clipPath><clipPath id="clip-path-6"><rect id="_Prostokąt_6" data-name="&lt;Prostokąt&gt;" class="cls-1" x="79.9" y="160.5" width="32" height="32"/></clipPath><clipPath id="clip-path-7"><rect id="_Prostokąt_7" data-name="&lt;Prostokąt&gt;" class="cls-1" x="79.9" y="128.5" width="32" height="32"/></clipPath><clipPath id="clip-path-8"><rect id="_Prostokąt_8" data-name="&lt;Prostokąt&gt;" class="cls-1" x="47.9" y="0.5" width="32" height="32"/></clipPath><clipPath id="clip-path-9"><rect id="_Prostokąt_9" data-name="&lt;Prostokąt&gt;" class="cls-1" x="79.9" y="0.5" width="32" height="32"/></clipPath><clipPath id="clip-path-10"><rect id="_Prostokąt_10" data-name="&lt;Prostokąt&gt;" class="cls-1" x="79.9" y="96.5" width="32" height="32"/></clipPath><clipPath id="clip-path-11"><rect id="_Prostokąt_11" data-name="&lt;Prostokąt&gt;" class="cls-1" x="15.9" y="64.5" width="32" height="32"/></clipPath><clipPath id="clip-path-12"><rect id="_Prostokąt_12" data-name="&lt;Prostokąt&gt;" class="cls-1" x="15.9" y="160.5" width="32" height="32"/></clipPath></defs><title>Zasób 23</title><g id="Warstwa_2" data-name="Warstwa 2"><g id="Long_Page_cz.1" data-name="Long Page cz.1"><rect id="_Prostokąt_13" data-name="&lt;Prostokąt&gt;" class="cls-2" x="15.9" y="0.5" width="32" height="32"/><g class="cls-3"><g class="cls-4"><polygon class="cls-5" points="44.7 3.7 47.9 0.5 47.9 32.5 44.7 29.3 44.7 3.7"/><polygon class="cls-5" points="44.7 29.3 47.9 32.5 15.9 32.5 19.1 29.3 44.7 29.3"/><polygon class="cls-6" points="15.9 0.5 15.9 32.5 19.1 29.3 19.1 3.7 44.7 3.7 47.9 0.5 15.9 0.5"/></g></g><rect id="_Prostokąt_14" data-name="&lt;Prostokąt&gt;" class="cls-7" x="15.9" y="0.5" width="32" height="32"/><rect id="_Prostokąt_15" data-name="&lt;Prostokąt&gt;" class="cls-2" x="15.9" y="32.5" width="32" height="32"/><g class="cls-8"><g class="cls-4"><polygon class="cls-5" points="44.7 35.7 47.9 32.5 47.9 64.5 44.7 61.3 44.7 35.7"/><polygon class="cls-5" points="44.7 61.3 47.9 64.5 15.9 64.5 19.1 61.3 44.7 61.3"/><polygon class="cls-6" points="15.9 32.5 15.9 64.5 19.1 61.3 19.1 35.7 44.7 35.7 47.9 32.5 15.9 32.5"/></g></g><rect id="_Prostokąt_16" data-name="&lt;Prostokąt&gt;" class="cls-7" x="15.9" y="32.5" width="32" height="32"/><rect id="_Prostokąt_17" data-name="&lt;Prostokąt&gt;" class="cls-2" x="79.9" y="64.5" width="32" height="32"/><g class="cls-9"><g class="cls-4"><polygon class="cls-5" points="108.7 67.7 111.9 64.5 111.9 96.5 108.7 93.3 108.7 67.7"/><polygon class="cls-5" points="108.7 93.3 111.9 96.5 79.9 96.5 83.1 93.3 108.7 93.3"/><polygon class="cls-6" points="79.9 64.5 79.9 96.5 83.1 93.3 83.1 67.7 108.7 67.7 111.9 64.5 79.9 64.5"/></g></g><rect id="_Prostokąt_18" data-name="&lt;Prostokąt&gt;" class="cls-7" x="79.9" y="64.5" width="32" height="32"/><rect id="_Prostokąt_19" data-name="&lt;Prostokąt&gt;" class="cls-2" x="47.9" y="64.5" width="32" height="32"/><g class="cls-10"><g class="cls-4"><polygon class="cls-5" points="76.7 67.7 79.9 64.5 79.9 96.5 76.7 93.3 76.7 67.7"/><polygon class="cls-5" points="76.7 93.3 79.9 96.5 47.9 96.5 51.1 93.3 76.7 93.3"/><polygon class="cls-6" points="47.9 64.5 47.9 96.5 51.1 93.3 51.1 67.7 76.7 67.7 79.9 64.5 47.9 64.5"/></g></g><rect id="_Prostokąt_20" data-name="&lt;Prostokąt&gt;" class="cls-7" x="47.9" y="64.5" width="32" height="32"/><rect id="_Prostokąt_21" data-name="&lt;Prostokąt&gt;" class="cls-2" x="47.9" y="160.5" width="32" height="32"/><g class="cls-11"><g class="cls-4"><polygon class="cls-5" points="76.7 163.7 79.9 160.5 79.9 192.5 76.7 189.3 76.7 163.7"/><polygon class="cls-5" points="76.7 189.3 79.9 192.5 47.9 192.5 51.1 189.3 76.7 189.3"/><polygon class="cls-6" points="47.9 160.5 47.9 192.5 51.1 189.3 51.1 163.7 76.7 163.7 79.9 160.5 47.9 160.5"/></g></g><rect id="_Prostokąt_22" data-name="&lt;Prostokąt&gt;" class="cls-7" x="47.9" y="160.5" width="32" height="32"/><rect id="_Prostokąt_23" data-name="&lt;Prostokąt&gt;" class="cls-2" x="79.9" y="160.5" width="32" height="32"/><g class="cls-12"><g class="cls-4"><polygon class="cls-5" points="108.7 163.7 111.9 160.5 111.9 192.5 108.7 189.3 108.7 163.7"/><polygon class="cls-5" points="108.7 189.3 111.9 192.5 79.9 192.5 83.1 189.3 108.7 189.3"/><polygon class="cls-6" points="79.9 160.5 79.9 192.5 83.1 189.3 83.1 163.7 108.7 163.7 111.9 160.5 79.9 160.5"/></g></g><rect id="_Prostokąt_24" data-name="&lt;Prostokąt&gt;" class="cls-7" x="79.9" y="160.5" width="32" height="32"/><rect id="_Prostokąt_25" data-name="&lt;Prostokąt&gt;" class="cls-2" x="79.9" y="128.5" width="32" height="32"/><g class="cls-13"><g class="cls-4"><polygon class="cls-5" points="108.7 131.7 111.9 128.5 111.9 160.5 108.7 157.3 108.7 131.7"/><polygon class="cls-5" points="108.7 157.3 111.9 160.5 79.9 160.5 83.1 157.3 108.7 157.3"/><polygon class="cls-6" points="79.9 128.5 79.9 160.5 83.1 157.3 83.1 131.7 108.7 131.7 111.9 128.5 79.9 128.5"/></g></g><rect id="_Prostokąt_26" data-name="&lt;Prostokąt&gt;" class="cls-7" x="79.9" y="128.5" width="32" height="32"/><rect id="_Prostokąt_27" data-name="&lt;Prostokąt&gt;" class="cls-2" x="47.9" y="0.5" width="32" height="32"/><g class="cls-14"><g class="cls-4"><polygon class="cls-5" points="76.7 3.7 79.9 0.5 79.9 32.5 76.7 29.3 76.7 3.7"/><polygon class="cls-5" points="76.7 29.3 79.9 32.5 47.9 32.5 51.1 29.3 76.7 29.3"/><polygon class="cls-6" points="47.9 0.5 47.9 32.5 51.1 29.3 51.1 3.7 76.7 3.7 79.9 0.5 47.9 0.5"/></g></g><rect id="_Prostokąt_28" data-name="&lt;Prostokąt&gt;" class="cls-7" x="47.9" y="0.5" width="32" height="32"/><rect id="_Prostokąt_29" data-name="&lt;Prostokąt&gt;" class="cls-2" x="79.9" y="0.5" width="32" height="32"/><g class="cls-15"><g class="cls-4"><polygon class="cls-5" points="108.7 3.7 111.9 0.5 111.9 32.5 108.7 29.3 108.7 3.7"/><polygon class="cls-5" points="108.7 29.3 111.9 32.5 79.9 32.5 83.1 29.3 108.7 29.3"/><polygon class="cls-6" points="79.9 0.5 79.9 32.5 83.1 29.3 83.1 3.7 108.7 3.7 111.9 0.5 79.9 0.5"/></g></g><rect id="_Prostokąt_30" data-name="&lt;Prostokąt&gt;" class="cls-7" x="79.9" y="0.5" width="32" height="32"/><rect id="_Prostokąt_31" data-name="&lt;Prostokąt&gt;" class="cls-2" x="79.9" y="96.5" width="32" height="32"/><g class="cls-16"><g class="cls-4"><polygon class="cls-5" points="108.7 99.7 111.9 96.5 111.9 128.5 108.7 125.3 108.7 99.7"/><polygon class="cls-5" points="108.7 125.3 111.9 128.5 79.9 128.5 83.1 125.3 108.7 125.3"/><polygon class="cls-6" points="79.9 96.5 79.9 128.5 83.1 125.3 83.1 99.7 108.7 99.7 111.9 96.5 79.9 96.5"/></g></g><rect id="_Prostokąt_32" data-name="&lt;Prostokąt&gt;" class="cls-7" x="79.9" y="96.5" width="32" height="32"/><rect id="_Prostokąt_33" data-name="&lt;Prostokąt&gt;" class="cls-2" x="15.9" y="64.5" width="32" height="32"/><g class="cls-17"><g class="cls-4"><polygon class="cls-5" points="44.7 67.7 47.9 64.5 47.9 96.5 44.7 93.3 44.7 67.7"/><polygon class="cls-5" points="44.7 93.3 47.9 96.5 15.9 96.5 19.1 93.3 44.7 93.3"/><polygon class="cls-6" points="15.9 64.5 15.9 96.5 19.1 93.3 19.1 67.7 44.7 67.7 47.9 64.5 15.9 64.5"/></g></g><rect id="_Prostokąt_34" data-name="&lt;Prostokąt&gt;" class="cls-7" x="15.9" y="64.5" width="32" height="32"/><rect id="_Prostokąt_35" data-name="&lt;Prostokąt&gt;" class="cls-2" x="15.9" y="160.5" width="32" height="32"/><g class="cls-18"><g class="cls-4"><polygon class="cls-5" points="44.7 163.7 47.9 160.5 47.9 192.5 44.7 189.3 44.7 163.7"/><polygon class="cls-5" points="44.7 189.3 47.9 192.5 15.9 192.5 19.1 189.3 44.7 189.3"/><polygon class="cls-6" points="15.9 160.5 15.9 192.5 19.1 189.3 19.1 163.7 44.7 163.7 47.9 160.5 15.9 160.5"/></g></g><rect id="_Prostokąt_36" data-name="&lt;Prostokąt&gt;" class="cls-7" x="15.9" y="160.5" width="32" height="32"/><path class="cls-6" d="M33.41,153.15v-8.93l-1.93.58L31,143.57l3-1.63h1.35v11.21Z"/><path class="cls-6" d="M4.41,153.15v-8.93l-1.93.58L2,143.57l3-1.63H6.39v11.21Z"/><path class="cls-6" d="M66.29,48.09a3.08,3.08,0,0,1,1.22,1.35,4.67,4.67,0,0,1,.43,2.09,4.57,4.57,0,0,1-.45,2.07A3.42,3.42,0,0,1,66.19,55a3.75,3.75,0,0,1-2,.5,3.81,3.81,0,0,1-3.62-2.12l1.5-1.14h0a3.65,3.65,0,0,0,.48.77,1.83,1.83,0,0,0,.62.51,2,2,0,0,0,.92.2,1.69,1.69,0,0,0,.92-.25,1.73,1.73,0,0,0,.64-.74A2.75,2.75,0,0,0,66,51.51a2.51,2.51,0,0,0-.48-1.63,1.51,1.51,0,0,0-1.25-.58,1.76,1.76,0,0,0-.95.26,2.89,2.89,0,0,0-.82.82l-1.29-.55.41-5.89h6v1.71H63.34l-.15,2.17a4.37,4.37,0,0,1,1.25-.19A3.58,3.58,0,0,1,66.29,48.09Zm-4.22,4s0,0,.08.07l0,0A.41.41,0,0,1,62.07,52.11Zm.26.22s0,0-.1-.07l-.08-.08.08,0,.12.17S62.34,52.33,62.33,52.33Z"/><path class="cls-6" d="M2.41,184.15v-8.93l-1.93.58L0,174.57l3-1.63H4.39v11.21Z"/></g></g></svg>