<svg xmlns="http://www.w3.org/2000/svg" xmlns:xlink="http://www.w3.org/1999/xlink" viewBox="0 0 113 193"><defs><style>.cls-1,.cls-2{fill:#00c;}.cls-1,.cls-7{stroke:#000;stroke-miterlimit:10;}.cls-3{clip-path:url(#clip-path);}.cls-4{isolation:isolate;}.cls-5{fill:#009;}.cls-6{fill:blue;}.cls-7{fill:none;}.cls-8{clip-path:url(#clip-path-2);}.cls-9{clip-path:url(#clip-path-3);}.cls-10{clip-path:url(#clip-path-4);}.cls-11{clip-path:url(#clip-path-5);}.cls-12{clip-path:url(#clip-path-6);}.cls-13{clip-path:url(#clip-path-7);}.cls-14{clip-path:url(#clip-path-8);}.cls-15{clip-path:url(#clip-path-9);}.cls-16{clip-path:url(#clip-path-10);}.cls-17{clip-path:url(#clip-path-11);}.cls-18{clip-path:url(#clip-path-12);}.cls-19{clip-path:url(#clip-path-13);}</style><clipPath id="clip-path"><rect id="_Prostokąt_" data-name="&lt;Prostokąt&gt;" class="cls-1" x="16.5" y="0.5" width="32" height="32"/></clipPath><clipPath id="clip-path-2"><rect id="_Prostokąt_2" data-name="&lt;Prostokąt&gt;" class="cls-1" x="16.5" y="32.5" width="32" height="32"/></clipPath><clipPath id="clip-path-3"><rect id="_Prostokąt_3" data-name="&lt;Prostokąt&gt;" class="cls-1" x="16.5" y="64.5" width="32" height="32"/></clipPath><clipPath id="clip-path-4"><rect id="_Prostokąt_4" data-name="&lt;Prostokąt&gt;" class="cls-1" x="48.5" y="96.5" width="32" height="32"/></clipPath><clipPath id="clip-path-5"><rect id="_Prostokąt_5" data-name="&lt;Prostokąt&gt;" class="cls-1" x="48.5" y="160.5" width="32" height="32"/></clipPath><clipPath id="clip-path-6"><rect id="_Prostokąt_6" data-name="&lt;Prostokąt&gt;" class="cls-1" x="80.5" y="160.5" width="32" height="32"/></clipPath><clipPath id="clip-path-7"><rect id="_Prostokąt_7" data-name="&lt;Prostokąt&gt;" class="cls-1" x="80.5" y="128.5" width="32" height="32"/></clipPath><clipPath id="clip-path-8"><rect id="_Prostokąt_8" data-name="&lt;Prostokąt&gt;" class="cls-1" x="48.5" y="0.5" width="32" height="32"/></clipPath><clipPath id="clip-path-9"><rect id="_Prostokąt_9" data-name="&lt;Prostokąt&gt;" class="cls-1" x="80.5" y="0.5" width="32" height="32"/></clipPath><clipPath id="clip-path-10"><rect id="_Prostokąt_10" data-name="&lt;Prostokąt&gt;" class="cls-1" x="80.5" y="96.5" width="32" height="32"/></clipPath><clipPath id="clip-path-11"><rect id="_Prostokąt_11" data-name="&lt;Prostokąt&gt;" class="cls-1" x="16.5" y="96.5" width="32" height="32"/></clipPath><clipPath id="clip-path-12"><rect id="_Prostokąt_12" data-name="&lt;Prostokąt&gt;" class="cls-1" x="16.5" y="160.5" width="32" height="32"/></clipPath><clipPath id="clip-path-13"><rect id="_Prostokąt_13" data-name="&lt;Prostokąt&gt;" class="cls-1" x="16.5" y="128.5" width="32" height="32"/></clipPath></defs><title>Zasób 26</title><g id="Warstwa_2" data-name="Warstwa 2"><g id="Long_Page_cz.1" data-name="Long Page cz.1"><rect id="_Prostokąt_14" data-name="&lt;Prostokąt&gt;" class="cls-2" x="16.5" y="0.5" width="32" height="32"/><g class="cls-3"><g class="cls-4"><polygon class="cls-5" points="45.3 3.7 45.3 29.3 19.7 29.3 16.5 32.5 48.5 32.5 48.5 0.5 45.3 3.7"/><polygon class="cls-6" points="16.5 0.5 16.5 32.5 19.7 29.3 19.7 3.7 45.3 3.7 48.5 0.5 16.5 0.5"/></g></g><rect id="_Prostokąt_15" data-name="&lt;Prostokąt&gt;" class="cls-7" x="16.5" y="0.5" width="32" height="32"/><rect id="_Prostokąt_16" data-name="&lt;Prostokąt&gt;" class="cls-2" x="16.5" y="32.5" width="32" height="32"/><g class="cls-8"><g class="cls-4"><polygon class="cls-5" points="45.3 35.7 45.3 61.3 19.7 61.3 16.5 64.5 48.5 64.5 48.5 32.5 45.3 35.7"/><polygon class="cls-6" points="16.5 32.5 16.5 64.5 19.7 61.3 19.7 35.7 45.3 35.7 48.5 32.5 16.5 32.5"/></g></g><rect id="_Prostokąt_17" data-name="&lt;Prostokąt&gt;" class="cls-7" x="16.5" y="32.5" width="32" height="32"/><rect id="_Prostokąt_18" data-name="&lt;Prostokąt&gt;" class="cls-2" x="16.5" y="64.5" width="32" height="32"/><g class="cls-9"><g class="cls-4"><polygon class="cls-5" points="45.3 67.7 45.3 93.3 19.7 93.3 16.5 96.5 48.5 96.5 48.5 64.5 45.3 67.7"/><polygon class="cls-6" points="16.5 64.5 16.5 96.5 19.7 93.3 19.7 67.7 45.3 67.7 48.5 64.5 16.5 64.5"/></g></g><rect id="_Prostokąt_19" data-name="&lt;Prostokąt&gt;" class="cls-7" x="16.5" y="64.5" width="32" height="32"/><rect id="_Prostokąt_20" data-name="&lt;Prostokąt&gt;" class="cls-2" x="48.5" y="96.5" width="32" height="32"/><g class="cls-10"><g class="cls-4"><polygon class="cls-5" points="77.3 99.7 77.3 125.3 51.7 125.3 48.5 128.5 80.5 128.5 80.5 96.5 77.3 99.7"/><polygon class="cls-6" points="48.5 96.5 48.5 128.5 51.7 125.3 51.7 99.7 77.3 99.7 80.5 96.5 48.5 96.5"/></g></g><rect id="_Prostokąt_21" data-name="&lt;Prostokąt&gt;" class="cls-7" x="48.5" y="96.5" width="32" height="32"/><rect id="_Prostokąt_22" data-name="&lt;Prostokąt&gt;" class="cls-2" x="48.5" y="160.5" width="32" height="32"/><g class="cls-11"><g class="cls-4"><polygon class="cls-5" points="77.3 163.7 77.3 189.3 51.7 189.3 48.5 192.5 80.5 192.5 80.5 160.5 77.3 163.7"/><polygon class="cls-6" points="48.5 160.5 48.5 192.5 51.7 189.3 51.7 163.7 77.3 163.7 80.5 160.5 48.5 160.5"/></g></g><rect id="_Prostokąt_23" data-name="&lt;Prostokąt&gt;" class="cls-7" x="48.5" y="160.5" width="32" height="32"/><rect id="_Prostokąt_24" data-name="&lt;Prostokąt&gt;" class="cls-2" x="80.5" y="160.5" width="32" height="32"/><g class="cls-12"><g class="cls-4"><polygon class="cls-5" points="109.3 163.7 109.3 189.3 83.7 189.3 80.5 192.5 112.5 192.5 112.5 160.5 109.3 163.7"/><polygon class="cls-6" points="80.5 160.5 80.5 192.5 83.7 189.3 83.7 163.7 109.3 163.7 112.5 160.5 80.5 160.5"/></g></g><rect id="_Prostokąt_25" data-name="&lt;Prostokąt&gt;" class="cls-7" x="80.5" y="160.5" width="32" height="32"/><rect id="_Prostokąt_26" data-name="&lt;Prostokąt&gt;" class="cls-2" x="80.5" y="128.5" width="32" height="32"/><g class="cls-13"><g class="cls-4"><polygon class="cls-5" points="109.3 131.7 109.3 157.3 83.7 157.3 80.5 160.5 112.5 160.5 112.5 128.5 109.3 131.7"/><polygon class="cls-6" points="80.5 128.5 80.5 160.5 83.7 157.3 83.7 131.7 109.3 131.7 112.5 128.5 80.5 128.5"/></g></g><rect id="_Prostokąt_27" data-name="&lt;Prostokąt&gt;" class="cls-7" x="80.5" y="128.5" width="32" height="32"/><rect id="_Prostokąt_28" data-name="&lt;Prostokąt&gt;" class="cls-2" x="48.5" y="0.5" width="32" height="32"/><g class="cls-14"><g class="cls-4"><polygon class="cls-5" points="77.3 3.7 77.3 29.3 51.7 29.3 48.5 32.5 80.5 32.5 80.5 0.5 77.3 3.7"/><polygon class="cls-6" points="48.5 0.5 48.5 32.5 51.7 29.3 51.7 3.7 77.3 3.7 80.5 0.5 48.5 0.5"/></g></g><rect id="_Prostokąt_29" data-name="&lt;Prostokąt&gt;" class="cls-7" x="48.5" y="0.5" width="32" height="32"/><rect id="_Prostokąt_30" data-name="&lt;Prostokąt&gt;" class="cls-2" x="80.5" y="0.5" width="32" height="32"/><g class="cls-15"><g class="cls-4"><polygon class="cls-5" points="109.3 3.7 109.3 29.3 83.7 29.3 80.5 32.5 112.5 32.5 112.5 0.5 109.3 3.7"/><polygon class="cls-6" points="80.5 0.5 80.5 32.5 83.7 29.3 83.7 3.7 109.3 3.7 112.5 0.5 80.5 0.5"/></g></g><rect id="_Prostokąt_31" data-name="&lt;Prostokąt&gt;" class="cls-7" x="80.5" y="0.5" width="32" height="32"/><rect id="_Prostokąt_32" data-name="&lt;Prostokąt&gt;" class="cls-2" x="80.5" y="96.5" width="32" height="32"/><g class="cls-16"><g class="cls-4"><polygon class="cls-5" points="109.3 99.7 109.3 125.3 83.7 125.3 80.5 128.5 112.5 128.5 112.5 96.5 109.3 99.7"/><polygon class="cls-6" points="80.5 96.5 80.5 128.5 83.7 125.3 83.7 99.7 109.3 99.7 112.5 96.5 80.5 96.5"/></g></g><rect id="_Prostokąt_33" data-name="&lt;Prostokąt&gt;" class="cls-7" x="80.5" y="96.5" width="32" height="32"/><rect id="_Prostokąt_34" data-name="&lt;Prostokąt&gt;" class="cls-2" x="16.5" y="96.5" width="32" height="32"/><g class="cls-17"><g class="cls-4"><polygon class="cls-5" points="45.3 99.7 45.3 125.3 19.7 125.3 16.5 128.5 48.5 128.5 48.5 96.5 45.3 99.7"/><polygon class="cls-6" points="16.5 96.5 16.5 128.5 19.7 125.3 19.7 99.7 45.3 99.7 48.5 96.5 16.5 96.5"/></g></g><rect id="_Prostokąt_35" data-name="&lt;Prostokąt&gt;" class="cls-7" x="16.5" y="96.5" width="32" height="32"/><rect id="_Prostokąt_36" data-name="&lt;Prostokąt&gt;" class="cls-2" x="16.5" y="160.5" width="32" height="32"/><g class="cls-18"><g class="cls-4"><polygon class="cls-5" points="45.3 163.7 45.3 189.3 19.7 189.3 16.5 192.5 48.5 192.5 48.5 160.5 45.3 163.7"/><polygon class="cls-6" points="16.5 160.5 16.5 192.5 19.7 189.3 19.7 163.7 45.3 163.7 48.5 160.5 16.5 160.5"/></g></g><rect id="_Prostokąt_37" data-name="&lt;Prostokąt&gt;" class="cls-7" x="16.5" y="160.5" width="32" height="32"/><rect id="_Prostokąt_38" data-name="&lt;Prostokąt&gt;" class="cls-2" x="16.5" y="128.5" width="32" height="32"/><g class="cls-19"><g class="cls-4"><polygon class="cls-5" points="45.3 131.7 45.3 157.3 19.7 157.3 16.5 160.5 48.5 160.5 48.5 128.5 45.3 131.7"/><polygon class="cls-6" points="16.5 128.5 16.5 160.5 19.7 157.3 19.7 131.7 45.3 131.7 48.5 128.5 16.5 128.5"/></g></g><rect id="_Prostokąt_39" data-name="&lt;Prostokąt&gt;" class="cls-7" x="16.5" y="128.5" width="32" height="32"/><path class="cls-6" d="M68.74,79.91A3.53,3.53,0,0,1,70,81.27a4.28,4.28,0,0,1,.45,2,4.35,4.35,0,0,1-.47,2,3.73,3.73,0,0,1-1.28,1.44,3.15,3.15,0,0,1-1.77.53,3,3,0,0,1-2-.71,4.45,4.45,0,0,1-1.29-2,8.36,8.36,0,0,1-.45-2.85,9.66,9.66,0,0,1,.52-3.35,5,5,0,0,1,1.47-2.18,3.47,3.47,0,0,1,2.19-.76,3.37,3.37,0,0,1,1.48.34,4.57,4.57,0,0,1,1.34,1L68.9,78.1h0L68.77,78a3.76,3.76,0,0,0-.4-.44,1.14,1.14,0,0,0-.4-.25,1.89,1.89,0,0,0-.63-.1,1.66,1.66,0,0,0-.92.31,2.6,2.6,0,0,0-.79,1,5.55,5.55,0,0,0-.45,1.79,3.06,3.06,0,0,1,.87-.6,2.19,2.19,0,0,1,1-.25A3.11,3.11,0,0,1,68.74,79.91Zm-1,5.21a1.63,1.63,0,0,0,.53-.73,3,3,0,0,0,.19-1.14,2.61,2.61,0,0,0-.22-1.14,1.57,1.57,0,0,0-.56-.69,1.26,1.26,0,0,0-.71-.22,1.75,1.75,0,0,0-.94.29,2.42,2.42,0,0,0-.77.79,5.43,5.43,0,0,0,.23,1.65A2.56,2.56,0,0,0,66.05,85a1.26,1.26,0,0,0,.9.37A1.18,1.18,0,0,0,67.69,85.12Zm1-7.06a0,0,0,0,1,0,0,.48.48,0,0,1,.18.11l-.06.07-.15-.14Zm.33.13v0l-.12-.08,0,0Z"/><path class="cls-6" d="M.27,149.41q2.17-2.08,3.12-3.08a10.06,10.06,0,0,0,1.44-1.85,3.45,3.45,0,0,0,.5-1.75,1.46,1.46,0,0,0-.45-1.13,1.7,1.7,0,0,0-1.21-.42,3.58,3.58,0,0,0-.87.11,3.23,3.23,0,0,0-.69.25.76.76,0,0,0-.35.28,3.74,3.74,0,0,0-.35.7h0l.05,0a.09.09,0,0,1,.06,0s0,0,0,0l-.09.18-.14-.08-1.34-1A4.65,4.65,0,0,1,1.6,140a4.08,4.08,0,0,1,2.11-.56,3.79,3.79,0,0,1,1.8.42A3.13,3.13,0,0,1,6.76,141a3.24,3.24,0,0,1,.46,1.71,4,4,0,0,1-.46,1.84,8.27,8.27,0,0,1-1.18,1.7q-.74.83-2.16,2.25l-.72.71H6.36a2.17,2.17,0,0,0,.43,0,.55.55,0,0,0,.24-.12h.2v1.82h-7Z"/><path class="cls-6" d="M.27,182.41q2.17-2.08,3.12-3.08a10.06,10.06,0,0,0,1.44-1.85,3.45,3.45,0,0,0,.5-1.75,1.46,1.46,0,0,0-.45-1.13,1.7,1.7,0,0,0-1.21-.42,3.58,3.58,0,0,0-.87.11,3.23,3.23,0,0,0-.69.25.76.76,0,0,0-.35.28,3.74,3.74,0,0,0-.35.7h0l.05,0a.09.09,0,0,1,.06,0s0,0,0,0l-.09.18-.14-.08-1.34-1A4.65,4.65,0,0,1,1.6,173a4.08,4.08,0,0,1,2.11-.56,3.79,3.79,0,0,1,1.8.42A3.13,3.13,0,0,1,6.76,174a3.24,3.24,0,0,1,.46,1.71,4,4,0,0,1-.46,1.84,8.27,8.27,0,0,1-1.18,1.7q-.74.83-2.16,2.25l-.72.71H6.36a2.17,2.17,0,0,0,.43,0,.55.55,0,0,0,.24-.12h.2v1.82h-7Z"/></g></g></svg>