<?xml version="1.0" encoding="utf-8"?>
<!-- Generator: Adobe Illustrator 22.0.1, SVG Export Plug-In . SVG Version: 6.00 Build 0)  -->
<svg version="1.1" id="Warstwa_1" xmlns="http://www.w3.org/2000/svg" xmlns:xlink="http://www.w3.org/1999/xlink" x="0px" y="0px"
	 viewBox="0 0 437.2 284.8" style="enable-background:new 0 0 437.2 284.8;" xml:space="preserve">
<style type="text/css">
	.st0{fill:#0000CC;stroke:#000000;stroke-width:1.1111;stroke-miterlimit:10;}
	.st1{fill:#000099;}
	.st2{fill:#0000FF;}
</style>
<g>
	<rect x="20" y="20.4" class="st0" width="400" height="240"/>
	<polygon class="st1" points="408,32.4 408,248.4 32,248.4 20,260.4 420,260.4 420,20.4 	"/>
	<polygon class="st2" points="20,20.4 20,260.4 32,248.4 32,32.4 408,32.4 420,20.4 	"/>
</g>
<g>
	<path class="st2" d="M3,255.5v-8.9l-1.9,0.6l-0.5-1.2l3-1.6H5v11.2H3z"/>
</g>
<g>
	<path class="st2" d="M0.3,37c1.4-1.4,2.5-2.4,3.1-3.1s1.1-1.3,1.4-1.9c0.3-0.6,0.5-1.2,0.5-1.8c0-0.5-0.1-0.9-0.4-1.1
		c-0.3-0.3-0.7-0.4-1.2-0.4c-0.3,0-0.6,0-0.9,0.1S2.3,29,2.1,29.1s-0.3,0.2-0.4,0.3c-0.2,0.4-0.4,0.7-0.4,0.7c0,0,0,0,0,0
		c0,0,0,0,0.1,0s0,0,0.1,0s0,0,0,0l-0.1,0.2l-0.1-0.1l-1.3-1c0.4-0.7,1-1.2,1.6-1.6C2.2,27.2,2.9,27,3.7,27c0.7,0,1.3,0.1,1.8,0.4
		c0.5,0.3,1,0.7,1.3,1.2s0.5,1.1,0.5,1.7c0,0.6-0.2,1.3-0.5,1.8s-0.7,1.2-1.2,1.7s-1.2,1.3-2.2,2.3l-0.7,0.7h3.7c0.2,0,0.3,0,0.4,0
		c0.1,0,0.2-0.1,0.2-0.1h0.2v1.8h-7V37z"/>
</g>
<g>
	<path class="st2" d="M31.3,10c1.4-1.4,2.5-2.4,3.1-3.1s1.1-1.3,1.4-1.9c0.3-0.6,0.5-1.2,0.5-1.8c0-0.5-0.1-0.9-0.4-1.1
		c-0.3-0.3-0.7-0.4-1.2-0.4c-0.3,0-0.6,0-0.9,0.1S33.3,2,33.1,2.1s-0.3,0.2-0.4,0.3c-0.2,0.4-0.4,0.7-0.4,0.7c0,0,0,0,0,0
		c0,0,0,0,0.1,0s0,0,0.1,0s0,0,0,0l-0.1,0.2l-0.1-0.1l-1.3-1c0.4-0.7,1-1.2,1.6-1.6C33.2,0.2,33.9,0,34.7,0c0.7,0,1.3,0.1,1.8,0.4
		c0.5,0.3,1,0.7,1.3,1.2s0.5,1.1,0.5,1.7c0,0.6-0.2,1.3-0.5,1.8s-0.7,1.2-1.2,1.7s-1.2,1.3-2.2,2.3l-0.7,0.7h3.7c0.2,0,0.3,0,0.4,0
		c0.1,0,0.2-0.1,0.2-0.1h0.2v1.8h-7V10z"/>
</g>
<g>
	<path class="st2" d="M3,284.5v-8.9l-1.9,0.6l-0.5-1.2l3-1.6H5v11.2H3z"/>
</g>
<g>
	<path class="st2" d="M33,284.5v-8.9l-1.9,0.6l-0.5-1.2l3-1.6H35v11.2H33z"/>
</g>
<g>
	<path class="st2" d="M409.3,283c1.4-1.4,2.5-2.4,3.1-3.1s1.1-1.3,1.4-1.9c0.3-0.6,0.5-1.2,0.5-1.8c0-0.5-0.1-0.9-0.4-1.1
		c-0.3-0.3-0.7-0.4-1.2-0.4c-0.3,0-0.6,0-0.9,0.1s-0.5,0.2-0.7,0.3s-0.3,0.2-0.4,0.3c-0.2,0.4-0.4,0.7-0.4,0.7c0,0,0,0,0,0
		c0,0,0,0,0.1,0s0,0,0.1,0s0,0,0,0l-0.1,0.2l-0.1-0.1l-1.3-1c0.4-0.7,1-1.2,1.6-1.6c0.6-0.4,1.3-0.6,2.1-0.6c0.7,0,1.3,0.1,1.8,0.4
		c0.5,0.3,1,0.7,1.3,1.2s0.5,1.1,0.5,1.7c0,0.6-0.2,1.3-0.5,1.8s-0.7,1.2-1.2,1.7s-1.2,1.3-2.2,2.3l-0.7,0.7h3.7c0.2,0,0.3,0,0.4,0
		c0.1,0,0.2-0.1,0.2-0.1h0.2v1.8h-7V283z"/>
</g>
<g>
	<path class="st2" d="M430.3,250c1.4-1.4,2.5-2.4,3.1-3.1s1.1-1.3,1.4-1.9c0.3-0.6,0.5-1.2,0.5-1.8c0-0.5-0.1-0.9-0.4-1.1
		c-0.3-0.3-0.7-0.4-1.2-0.4c-0.3,0-0.6,0-0.9,0.1s-0.5,0.2-0.7,0.3s-0.3,0.2-0.4,0.3c-0.2,0.4-0.4,0.7-0.4,0.7c0,0,0,0,0,0
		c0,0,0,0,0.1,0s0,0,0.1,0s0,0,0,0l-0.1,0.2l-0.1-0.1l-1.3-1c0.4-0.7,1-1.2,1.6-1.6c0.6-0.4,1.3-0.6,2.1-0.6c0.7,0,1.3,0.1,1.8,0.4
		c0.5,0.3,1,0.7,1.3,1.2s0.5,1.1,0.5,1.7c0,0.6-0.2,1.3-0.5,1.8s-0.7,1.2-1.2,1.7s-1.2,1.3-2.2,2.3l-0.7,0.7h3.7c0.2,0,0.3,0,0.4,0
		c0.1,0,0.2-0.1,0.2-0.1h0.2v1.8h-7V250z"/>
</g>
<g>
	<path class="st2" d="M394.7,279.5c0.4,0.5,0.5,1.1,0.5,1.8c0,0.7-0.2,1.2-0.5,1.8c-0.3,0.5-0.7,0.9-1.3,1.3c-0.6,0.3-1.2,0.5-2,0.5
		c-1.5,0-2.7-0.5-3.5-1.5l0.8-1.7l0,0l0,0c0.3,0.5,0.6,0.9,1,1.1s1,0.3,1.6,0.3c0.6,0,1-0.2,1.3-0.5c0.3-0.3,0.5-0.8,0.5-1.3
		c0-0.6-0.2-1.1-0.5-1.3c-0.3-0.3-0.9-0.4-1.7-0.4c-0.3,0-0.6,0-0.9,0.1v-1.6c0.1,0,0.2,0,0.4,0c0.9,0,1.6-0.1,1.9-0.4
		s0.5-0.7,0.5-1.2c0-0.4-0.1-0.8-0.4-1.1s-0.6-0.4-1.1-0.4c-0.4,0-0.8,0.1-1.1,0.2s-0.7,0.4-1.1,0.7l-1.1-1.2
		c0.4-0.5,0.9-0.9,1.5-1.1c0.6-0.2,1.2-0.4,1.8-0.4c0.7,0,1.3,0.1,1.8,0.4c0.5,0.3,0.9,0.6,1.2,1.1c0.3,0.5,0.4,1,0.4,1.5
		c0,0.6-0.2,1.1-0.5,1.6c-0.3,0.4-0.7,0.8-1.1,0.9C393.9,278.7,394.3,279,394.7,279.5z M388.7,281.5
		C388.7,281.5,388.7,281.5,388.7,281.5C388.8,281.5,388.8,281.5,388.7,281.5l0,0.1C388.7,281.6,388.7,281.5,388.7,281.5z M389,281.6
		C389,281.6,389,281.6,389,281.6c0,0-0.1,0-0.1,0c0,0-0.1,0-0.1-0.1l0,0L389,281.6L389,281.6z"/>
</g>
</svg>
