<?xml version="1.0" encoding="utf-8"?>
<!-- Generator: Adobe Illustrator 23.0.6, SVG Export Plug-In . SVG Version: 6.00 Build 0)  -->
<svg version="1.1" id="Warstwa_1" xmlns="http://www.w3.org/2000/svg" xmlns:xlink="http://www.w3.org/1999/xlink" x="0px" y="0px"
	 viewBox="0 0 534 225" style="enable-background:new 0 0 534 225;" xml:space="preserve">
<style type="text/css">
	.st0{fill:#0000CC;}
	.st1{clip-path:url(#SVGID_2_);}
	.st2{enable-background:new    ;}
	.st3{fill:#000099;}
	.st4{fill:#0000FF;}
	.st5{fill:none;stroke:#000000;stroke-miterlimit:10;}
	.st6{clip-path:url(#SVGID_4_);}
	.st7{clip-path:url(#SVGID_6_);}
	.st8{clip-path:url(#SVGID_8_);}
	.st9{clip-path:url(#SVGID_10_);}
	.st10{clip-path:url(#SVGID_12_);}
	.st11{clip-path:url(#SVGID_14_);}
	.st12{clip-path:url(#SVGID_16_);}
	.st13{clip-path:url(#SVGID_18_);}
	.st14{clip-path:url(#SVGID_20_);}
	.st15{clip-path:url(#SVGID_22_);}
	.st16{clip-path:url(#SVGID_24_);}
</style>
<g>
	<g>
		<g>
			<rect id="XMLID_34_" x="65.1" y="17.1" class="st0" width="32" height="32"/>
		</g>
		<g>
			<defs>
				<rect id="SVGID_1_" x="65.1" y="17.1" width="32" height="32"/>
			</defs>
			<clipPath id="SVGID_2_">
				<use xlink:href="#SVGID_1_"  style="overflow:visible;"/>
			</clipPath>
			<g class="st1">
				<g class="st2">
					<polygon class="st3" points="93.9,20.3 97.1,17.1 97.1,49.1 93.9,45.9 					"/>
					<polygon class="st3" points="93.9,45.9 97.1,49.1 65.1,49.1 68.3,45.9 					"/>
					<polygon class="st4" points="65.1,17.1 65.1,49.1 68.3,45.9 68.3,20.3 93.9,20.3 97.1,17.1 					"/>
				</g>
			</g>
		</g>
		<g>
			<rect x="65.1" y="17.1" class="st5" width="32" height="32"/>
		</g>
	</g>
	<g>
		<g>
			<rect id="XMLID_33_" x="65.1" y="177.1" class="st0" width="32" height="32"/>
		</g>
		<g>
			<defs>
				<rect id="SVGID_3_" x="65.1" y="177.1" width="32" height="32"/>
			</defs>
			<clipPath id="SVGID_4_">
				<use xlink:href="#SVGID_3_"  style="overflow:visible;"/>
			</clipPath>
			<g class="st6">
				<g class="st2">
					<polygon class="st3" points="93.9,180.3 97.1,177.1 97.1,209.1 93.9,205.9 					"/>
					<polygon class="st3" points="93.9,205.9 97.1,209.1 65.1,209.1 68.3,205.9 					"/>
					<polygon class="st4" points="65.1,177.1 65.1,209.1 68.3,205.9 68.3,180.3 93.9,180.3 97.1,177.1 					"/>
				</g>
			</g>
		</g>
		<g>
			<rect x="65.1" y="177.1" class="st5" width="32" height="32"/>
		</g>
	</g>
	<g>
		<g>
			<rect id="XMLID_32_" x="33.1" y="49.1" class="st0" width="32" height="32"/>
		</g>
		<g>
			<defs>
				<rect id="SVGID_5_" x="33.1" y="49.1" width="32" height="32"/>
			</defs>
			<clipPath id="SVGID_6_">
				<use xlink:href="#SVGID_5_"  style="overflow:visible;"/>
			</clipPath>
			<g class="st7">
				<g class="st2">
					<polygon class="st3" points="61.9,52.3 65.1,49.1 65.1,81.1 61.9,77.9 					"/>
					<polygon class="st3" points="61.9,77.9 65.1,81.1 33.1,81.1 36.3,77.9 					"/>
					<polygon class="st4" points="33.1,49.1 33.1,81.1 36.3,77.9 36.3,52.3 61.9,52.3 65.1,49.1 					"/>
				</g>
			</g>
		</g>
		<g>
			<rect x="33.1" y="49.1" class="st5" width="32" height="32"/>
		</g>
	</g>
	<g>
		<g>
			<rect id="XMLID_31_" x="33.1" y="145.1" class="st0" width="32" height="32"/>
		</g>
		<g>
			<defs>
				<rect id="SVGID_7_" x="33.1" y="145.1" width="32" height="32"/>
			</defs>
			<clipPath id="SVGID_8_">
				<use xlink:href="#SVGID_7_"  style="overflow:visible;"/>
			</clipPath>
			<g class="st8">
				<g class="st2">
					<polygon class="st3" points="61.9,148.3 65.1,145.1 65.1,177.1 61.9,173.9 					"/>
					<polygon class="st3" points="61.9,173.9 65.1,177.1 33.1,177.1 36.3,173.9 					"/>
					<polygon class="st4" points="33.1,145.1 33.1,177.1 36.3,173.9 36.3,148.3 61.9,148.3 65.1,145.1 					"/>
				</g>
			</g>
		</g>
		<g>
			<rect x="33.1" y="145.1" class="st5" width="32" height="32"/>
		</g>
	</g>
	<g>
		<g>
			<rect id="XMLID_30_" x="97.1" y="17.1" class="st0" width="32" height="32"/>
		</g>
		<g>
			<defs>
				<rect id="SVGID_9_" x="97.1" y="17.1" width="32" height="32"/>
			</defs>
			<clipPath id="SVGID_10_">
				<use xlink:href="#SVGID_9_"  style="overflow:visible;"/>
			</clipPath>
			<g class="st9">
				<g class="st2">
					<polygon class="st3" points="125.9,20.3 129.1,17.1 129.1,49.1 125.9,45.9 					"/>
					<polygon class="st3" points="125.9,45.9 129.1,49.1 97.1,49.1 100.3,45.9 					"/>
					<polygon class="st4" points="97.1,17.1 97.1,49.1 100.3,45.9 100.3,20.3 125.9,20.3 129.1,17.1 					"/>
				</g>
			</g>
		</g>
		<g>
			<rect x="97.1" y="17.1" class="st5" width="32" height="32"/>
		</g>
	</g>
	<g>
		<path class="st4" d="M155.9,31c0,0,0.2,0.2,0.7,0.6s0.8,0.8,1,1.2c0.2,0.4,0.3,0.9,0.3,1.5c0,0.7-0.2,1.3-0.5,1.9
			c-0.3,0.6-0.8,1.1-1.5,1.5s-1.6,0.6-2.6,0.6c-1.7,0-3.1-0.6-4.4-1.8l1-1.8l0,0l0,0c1,1,2.2,1.6,3.5,1.6c0.6,0,1.2-0.2,1.5-0.5
			s0.5-0.8,0.5-1.4c0-0.3-0.1-0.6-0.2-0.8s-0.4-0.5-0.8-0.7s-0.9-0.5-1.5-0.8c-1.2-0.5-2.1-1.1-2.6-1.8c-0.5-0.7-0.8-1.4-0.8-2.3
			c0-0.6,0.2-1.2,0.5-1.7s0.8-0.9,1.4-1.2c0.6-0.3,1.3-0.5,2.1-0.5c0.9,0,1.6,0.1,2.2,0.4c0.6,0.3,1.2,0.7,1.8,1.3l-1.2,1.6l0,0l0,0
			c-0.3-0.5-0.7-0.9-1.2-1.1s-1-0.4-1.6-0.4c-0.4,0-0.7,0.1-1,0.2s-0.5,0.3-0.6,0.5s-0.2,0.5-0.2,0.7c0,0.3,0.1,0.6,0.2,0.8
			c0.2,0.2,0.4,0.5,0.8,0.7c0.4,0.2,0.9,0.6,1.7,0.9C155.4,30.8,155.9,31,155.9,31z M149.9,34.6L149.9,34.6
			C149.9,34.5,149.9,34.5,149.9,34.6h0.1H149.9L149.9,34.6z M150.3,34.7L150.3,34.7h-0.1c-0.1,0-0.1,0-0.1-0.1v-0.1L150.3,34.7
			L150.3,34.7z M156.2,27.9L156.2,27.9h0.1l0.1,0.1v0.1L156.2,27.9L156.2,27.9z M156.5,28.1L156.5,28.1c0,0-0.1,0-0.1-0.1l0.1-0.1
			C156.5,28,156.5,28.1,156.5,28.1z"/>
		<path class="st4" d="M159.9,28.2h2.2v1.2c0.3-0.5,0.7-0.9,1.1-1.1c0.4-0.2,0.9-0.3,1.4-0.3c0.7,0,1.4,0.2,2,0.6s1.1,1,1.4,1.7
			c0.4,0.8,0.5,1.7,0.5,2.8s-0.2,2-0.5,2.8c-0.4,0.8-0.8,1.3-1.4,1.7c-0.6,0.4-1.2,0.6-1.9,0.6c-0.5,0-1-0.1-1.4-0.3s-0.8-0.6-1-1
			v4.5H160L159.9,28.2z M165.2,35.9c0.3-0.2,0.6-0.6,0.8-1.1s0.3-1.1,0.3-1.9c0-0.9-0.2-1.7-0.5-2.2c-0.3-0.6-0.8-0.8-1.5-0.8
			s-1.2,0.3-1.6,0.9c-0.3,0.6-0.5,1.4-0.5,2.4s0.2,1.8,0.5,2.3s0.8,0.8,1.4,0.8C164.5,36.3,164.9,36.1,165.2,35.9z"/>
		<path class="st4" d="M172.1,37.5c-0.7-0.4-1.3-1.1-1.7-1.8c-0.4-0.8-0.6-1.7-0.6-2.7c0-0.9,0.2-1.8,0.6-2.6c0.4-0.8,1-1.4,1.7-1.8
			s1.5-0.7,2.3-0.7s1.6,0.2,2.3,0.7c0.7,0.4,1.3,1.1,1.7,1.8S179,32,179,33s-0.2,1.9-0.6,2.7c-0.4,0.8-1,1.4-1.7,1.8
			c-0.7,0.4-1.5,0.7-2.3,0.7C173.5,38.2,172.8,38,172.1,37.5z M175.6,35.9c0.3-0.3,0.6-0.7,0.8-1.2s0.3-1.1,0.3-1.7
			c0-0.7-0.1-1.2-0.3-1.7s-0.4-0.8-0.8-1.1c-0.3-0.3-0.7-0.4-1.2-0.4c-0.4,0-0.8,0.1-1.2,0.4s-0.6,0.6-0.8,1.1s-0.3,1.1-0.3,1.7
			c0,0.7,0.1,1.2,0.3,1.7s0.4,0.9,0.8,1.2c0.3,0.3,0.7,0.4,1.2,0.4C174.9,36.3,175.3,36.2,175.6,35.9z"/>
		<path class="st4" d="M180.8,28.2h2.3v1c0.3-0.4,0.8-0.7,1.2-0.9c0.5-0.2,1-0.3,1.5-0.3c0.9,0,1.7,0.3,2.2,1s0.8,1.7,0.8,3.1V38
			h-2.3v-6c0-0.7-0.1-1.3-0.4-1.6c-0.3-0.3-0.7-0.5-1.2-0.5c-0.3,0-0.6,0.1-0.9,0.2c-0.3,0.1-0.5,0.3-0.7,0.6s-0.3,0.6-0.3,1v6.2
			h-2.3L180.8,28.2L180.8,28.2z"/>
		<path class="st4" d="M197.3,32.4c0,0,0.2,0.1,0.7,0.4c0.5,0.2,0.8,0.5,1,0.9s0.3,0.8,0.3,1.3c0,0.6-0.2,1.1-0.5,1.6
			s-0.8,0.9-1.4,1.2c-0.6,0.3-1.2,0.4-2,0.4c-1,0-1.8-0.1-2.5-0.4c-0.7-0.3-1.4-0.7-2-1.3l1-1.7l0,0l0,0c0.5,0.5,1,0.9,1.5,1.1
			c0.6,0.2,1.2,0.4,2,0.4c1.1,0,1.7-0.4,1.7-1.1c0-0.2-0.1-0.4-0.2-0.6c-0.1-0.2-0.4-0.3-0.6-0.4c-0.3-0.1-0.7-0.3-1.2-0.4
			c-1.1-0.3-2-0.7-2.6-1.1s-0.9-1.1-0.9-1.8c0-0.6,0.2-1.1,0.5-1.5s0.7-0.8,1.3-1s1.2-0.4,2-0.4s1.5,0.1,2.1,0.4
			c0.6,0.2,1.2,0.6,1.7,1.1l-1.2,1.6l0,0l0,0c-0.3-0.4-0.7-0.7-1.1-0.9s-0.9-0.3-1.5-0.3c-0.4,0-0.8,0.1-1,0.2
			c-0.3,0.1-0.4,0.3-0.4,0.6c0,0.2,0.1,0.4,0.2,0.6c0.2,0.2,0.4,0.3,0.7,0.4s0.8,0.3,1.3,0.5C196.9,32.3,197.3,32.4,197.3,32.4z
			 M191.9,34.7L191.9,34.7L191.9,34.7h0.1H191.9C191.9,34.8,191.9,34.7,191.9,34.7z M192.2,34.8C192.2,34.9,192.2,34.9,192.2,34.8
			h-0.1c-0.1,0-0.1,0-0.1-0.1v-0.1L192.2,34.8L192.2,34.8z M197.6,31.1L197.6,31.1h0.1c0.1,0,0.1,0.1,0.1,0.1v0.1L197.6,31.1
			L197.6,31.1z M198,31.2L198,31.2c-0.1,0-0.1,0-0.1-0.1L198,31C198,31.2,198,31.2,198,31.2z"/>
		<path class="st4" d="M203.3,37.5c-0.7-0.4-1.3-1.1-1.7-1.8c-0.4-0.8-0.6-1.7-0.6-2.7c0-0.9,0.2-1.8,0.6-2.6c0.4-0.8,1-1.4,1.7-1.8
			s1.5-0.7,2.3-0.7s1.6,0.2,2.3,0.7s1.3,1.1,1.7,1.8c0.4,0.8,0.6,1.6,0.6,2.6s-0.2,1.9-0.6,2.7c-0.4,0.8-1,1.4-1.7,1.8
			c-0.7,0.4-1.5,0.7-2.3,0.7S204,38,203.3,37.5z M206.8,35.9c0.3-0.3,0.6-0.7,0.8-1.2s0.3-1.1,0.3-1.7c0-0.7-0.1-1.2-0.3-1.7
			s-0.4-0.8-0.8-1.1c-0.3-0.3-0.7-0.4-1.2-0.4c-0.4,0-0.8,0.1-1.2,0.4c-0.3,0.3-0.6,0.6-0.8,1.1s-0.3,1.1-0.3,1.7
			c0,0.7,0.1,1.2,0.3,1.7s0.4,0.9,0.8,1.2c0.3,0.3,0.7,0.4,1.2,0.4S206.5,36.2,206.8,35.9z"/>
		<path class="st4" d="M219.5,31.1L219.5,31.1c-0.3-0.4-0.5-0.7-0.8-0.9c-0.3-0.2-0.6-0.3-1-0.3c-0.5,0-0.9,0.1-1.3,0.4
			s-0.7,0.6-0.9,1s-0.3,0.9-0.3,1.5v5.1h-2.4v-9.7h2.4v1.4c0.3-0.5,0.6-0.9,1.1-1.2c0.5-0.3,1.1-0.4,1.7-0.4c0.5,0,1,0.1,1.4,0.3
			c0.5,0.2,0.9,0.4,1.3,0.8L219.5,31.1z M219.2,31.1L219.2,31.1h0.1c0.1,0,0.1,0.1,0.1,0.1l0,0L219.2,31.1L219.2,31.1z M219.5,31.1
			c0,0.1,0.1,0.1,0.1,0.1l0,0h-0.1V31.1z"/>
	</g>
	<g class="st2">
		<path class="st4" d="M44.4,37.4c1.4-1.4,2.5-2.4,3.1-3.1s1.1-1.3,1.4-1.8c0.3-0.6,0.5-1.2,0.5-1.8c0-0.5-0.1-0.9-0.4-1.1
			s-0.7-0.4-1.2-0.4c-0.3,0-0.6,0-0.9,0.1s-0.5,0.2-0.7,0.3s-0.3,0.2-0.4,0.3c-0.2,0.4-0.4,0.7-0.4,0.7c0,0,0,0,0,0c0,0,0,0,0.1,0
			s0,0,0.1,0s0,0,0,0l-0.1,0.2l-0.1-0.1l-1.3-1c0.4-0.7,1-1.2,1.6-1.6c0.6-0.4,1.3-0.6,2.1-0.6c0.7,0,1.3,0.1,1.8,0.4
			c0.5,0.3,1,0.7,1.3,1.2s0.5,1.1,0.5,1.7c0,0.6-0.2,1.3-0.5,1.8s-0.7,1.2-1.2,1.7s-1.2,1.3-2.2,2.3l-0.7,0.7h3.7c0.2,0,0.3,0,0.4,0
			c0.1,0,0.2-0.1,0.2-0.1h0.2v1.8h-7V37.4z"/>
	</g>
	<g>
		<g>
			<g>
				<rect id="XMLID_40_" x="437.9" y="17.1" class="st0" width="32" height="32"/>
			</g>
			<g>
				<defs>
					<rect id="SVGID_11_" x="437.9" y="17.1" width="32" height="32"/>
				</defs>
				<clipPath id="SVGID_12_">
					<use xlink:href="#SVGID_11_"  style="overflow:visible;"/>
				</clipPath>
				<g class="st10">
					<g class="st2">
						<polygon class="st3" points="466.7,20.3 469.9,17.1 469.9,49.1 466.7,45.9 						"/>
						<polygon class="st3" points="466.7,45.9 469.9,49.1 437.9,49.1 441.1,45.9 						"/>
						<polygon class="st4" points="437.9,17.1 437.9,49.1 441.1,45.9 441.1,20.3 466.7,20.3 469.9,17.1 						"/>
					</g>
				</g>
			</g>
			<g>
				<rect x="437.9" y="17.1" class="st5" width="32" height="32"/>
			</g>
		</g>
		<g>
			<g>
				<rect id="XMLID_39_" x="469.9" y="49.1" class="st0" width="32" height="32"/>
			</g>
			<g>
				<defs>
					<rect id="SVGID_13_" x="469.9" y="49.1" width="32" height="32"/>
				</defs>
				<clipPath id="SVGID_14_">
					<use xlink:href="#SVGID_13_"  style="overflow:visible;"/>
				</clipPath>
				<g class="st11">
					<g class="st2">
						<polygon class="st3" points="498.7,52.3 501.9,49.1 501.9,81.1 498.7,77.9 						"/>
						<polygon class="st3" points="498.7,77.9 501.9,81.1 469.9,81.1 473.1,77.9 						"/>
						<polygon class="st4" points="469.9,49.1 469.9,81.1 473.1,77.9 473.1,52.3 498.7,52.3 501.9,49.1 						"/>
					</g>
				</g>
			</g>
			<g>
				<rect x="469.9" y="49.1" class="st5" width="32" height="32"/>
			</g>
		</g>
		<g>
			<g>
				<rect id="XMLID_38_" x="469.9" y="145.1" class="st0" width="32" height="32"/>
			</g>
			<g>
				<defs>
					<rect id="SVGID_15_" x="469.9" y="145.1" width="32" height="32"/>
				</defs>
				<clipPath id="SVGID_16_">
					<use xlink:href="#SVGID_15_"  style="overflow:visible;"/>
				</clipPath>
				<g class="st12">
					<g class="st2">
						<polygon class="st3" points="498.7,148.3 501.9,145.1 501.9,177.1 498.7,173.9 						"/>
						<polygon class="st3" points="498.7,173.9 501.9,177.1 469.9,177.1 473.1,173.9 						"/>
						<polygon class="st4" points="469.9,145.1 469.9,177.1 473.1,173.9 473.1,148.3 498.7,148.3 501.9,145.1 						"/>
					</g>
				</g>
			</g>
			<g>
				<rect x="469.9" y="145.1" class="st5" width="32" height="32"/>
			</g>
		</g>
		<g>
			<g>
				<rect id="XMLID_37_" x="469.9" y="17.1" class="st0" width="32" height="32"/>
			</g>
			<g>
				<defs>
					<rect id="SVGID_17_" x="469.9" y="17.1" width="32" height="32"/>
				</defs>
				<clipPath id="SVGID_18_">
					<use xlink:href="#SVGID_17_"  style="overflow:visible;"/>
				</clipPath>
				<g class="st13">
					<g class="st2">
						<polygon class="st3" points="498.7,20.3 501.9,17.1 501.9,49.1 498.7,45.9 						"/>
						<polygon class="st3" points="498.7,45.9 501.9,49.1 469.9,49.1 473.1,45.9 						"/>
						<polygon class="st4" points="469.9,17.1 469.9,49.1 473.1,45.9 473.1,20.3 498.7,20.3 501.9,17.1 						"/>
					</g>
				</g>
			</g>
			<g>
				<rect x="469.9" y="17.1" class="st5" width="32" height="32"/>
			</g>
		</g>
		<g>
			<g>
				<rect id="XMLID_36_" x="437.9" y="177.1" class="st0" width="32" height="32"/>
			</g>
			<g>
				<defs>
					<rect id="SVGID_19_" x="437.9" y="177.1" width="32" height="32"/>
				</defs>
				<clipPath id="SVGID_20_">
					<use xlink:href="#SVGID_19_"  style="overflow:visible;"/>
				</clipPath>
				<g class="st14">
					<g class="st2">
						<polygon class="st3" points="466.7,180.3 469.9,177.1 469.9,209.1 466.7,205.9 						"/>
						<polygon class="st3" points="466.7,205.9 469.9,209.1 437.9,209.1 441.1,205.9 						"/>
						<polygon class="st4" points="437.9,177.1 437.9,209.1 441.1,205.9 441.1,180.3 466.7,180.3 469.9,177.1 						"/>
					</g>
				</g>
			</g>
			<g>
				<rect x="437.9" y="177.1" class="st5" width="32" height="32"/>
			</g>
		</g>
		<g>
			<g>
				<rect id="XMLID_35_" x="469.9" y="177.1" class="st0" width="32" height="32"/>
			</g>
			<g>
				<defs>
					<rect id="SVGID_21_" x="469.9" y="177.1" width="32" height="32"/>
				</defs>
				<clipPath id="SVGID_22_">
					<use xlink:href="#SVGID_21_"  style="overflow:visible;"/>
				</clipPath>
				<g class="st15">
					<g class="st2">
						<polygon class="st3" points="498.7,180.3 501.9,177.1 501.9,209.1 498.7,205.9 						"/>
						<polygon class="st3" points="498.7,205.9 501.9,209.1 469.9,209.1 473.1,205.9 						"/>
						<polygon class="st4" points="469.9,177.1 469.9,209.1 473.1,205.9 473.1,180.3 498.7,180.3 501.9,177.1 						"/>
					</g>
				</g>
			</g>
			<g>
				<rect x="469.9" y="177.1" class="st5" width="32" height="32"/>
			</g>
		</g>
		<g class="st2">
			<path class="st4" d="M481.2,134.4c1.4-1.4,2.5-2.4,3.1-3.1s1.1-1.3,1.4-1.8c0.3-0.6,0.5-1.2,0.5-1.8c0-0.5-0.1-0.9-0.4-1.1
				s-0.7-0.4-1.2-0.4c-0.3,0-0.6,0-0.9,0.1s-0.5,0.2-0.7,0.3s-0.3,0.2-0.4,0.3c-0.2,0.4-0.4,0.7-0.4,0.7c0,0,0,0,0,0c0,0,0,0,0.1,0
				s0,0,0.1,0s0,0,0,0l-0.1,0.2l-0.1-0.1l-1.3-1c0.4-0.7,1-1.2,1.6-1.6c0.6-0.4,1.3-0.6,2.1-0.6c0.7,0,1.3,0.1,1.8,0.4
				c0.5,0.3,1,0.7,1.3,1.2s0.5,1.1,0.5,1.7c0,0.6-0.2,1.3-0.5,1.8s-0.7,1.2-1.2,1.7s-1.2,1.3-2.2,2.3l-0.7,0.7h3.7
				c0.2,0,0.3,0,0.4,0c0.1,0,0.2-0.1,0.2-0.1h0.2v1.8h-7V134.4z"/>
		</g>
	</g>
	<g>
		<g>
			<rect id="XMLID_29_" x="33.1" y="177.1" class="st0" width="32" height="32"/>
		</g>
		<g>
			<defs>
				<rect id="SVGID_23_" x="33.1" y="177.1" width="32" height="32"/>
			</defs>
			<clipPath id="SVGID_24_">
				<use xlink:href="#SVGID_23_"  style="overflow:visible;"/>
			</clipPath>
			<g class="st16">
				<g class="st2">
					<polygon class="st3" points="61.9,180.3 65.1,177.1 65.1,209.1 61.9,205.9 					"/>
					<polygon class="st3" points="61.9,205.9 65.1,209.1 33.1,209.1 36.3,205.9 					"/>
					<polygon class="st4" points="33.1,177.1 33.1,209.1 36.3,205.9 36.3,180.3 61.9,180.3 65.1,177.1 					"/>
				</g>
			</g>
		</g>
		<g>
			<rect x="33.1" y="177.1" class="st5" width="32" height="32"/>
		</g>
	</g>
</g>
</svg>
