<svg xmlns="http://www.w3.org/2000/svg" viewBox="0 0 378.01 472.43"><defs><style>.cls-1{fill:#999;}.cls-2{fill:#1e1e1e;}.cls-3{fill:gray;}.cls-11,.cls-4{fill:#e10b31;}.cls-5{fill:#fff;}.cls-6{fill:#ccc;}.cls-7{fill:#585858;}.cls-8{fill:#d6d6d6;}.cls-9{fill:#b3b3b3;}.cls-10{fill:#161616;}.cls-11{stroke:#000;stroke-miterlimit:10;}.cls-12{fill:#903;}</style></defs><title>robot-footer</title><g id="Layer_2" data-name="Layer 2"><g id="Long_Page_cz.2" data-name="Long Page cz.2"><g id="arm_1" data-name="arm 1"><path class="cls-1" d="M316.7,227.82c14.75,1.08,20.51-7.73,28.62,7.77s1.48,29-10,37.34c-9.32,6.73-17.93,6.75-25,14.52-3.82,4.18-5,8.39-3.72,13.71s5.81,8.8,11.38,9.21a17.9,17.9,0,0,0,5.78-.31c1.21-.36,1.7.84,2.79,0,23-18.74,28.17-1.17,45.78-40.49,19.73-44.06-24.13-71.81-58.9-63C316.26,211.59,316.53,221,316.7,227.82Z"/><path class="cls-2" d="M349.84,244.73c4.27,14-5.21,27.69-14.44,34.89-6.89,5.38-23,13.16-25.82,13.28-6,.24.5-4.65,1.54-5.67,6.88-6.74,17.67-9.34,26.23-14.81a25.41,25.41,0,0,0,9.41-10.73,30.28,30.28,0,0,0,2.25-8.64c.27-2.13-.93-4.77-.46-7C348.82,245,348.84,241.46,349.84,244.73Z"/><path class="cls-3" d="M337.29,221.71c1.75-11.45-7.71-2.17-14.85-3.49-1.21-.22-4.23-9.4-7.52-8.47.48,5.61,1.28,11.84,1.19,17.66C323.15,224.49,331.48,229.22,337.29,221.71Z"/><path d="M325.77,312.77a63.48,63.48,0,0,1,14.93-9.7c3.42-1.54,7-2.6,10.42-4.19,9.26-4.35,14.52-13.57,18.91-22.37,6.32-12.67,10.56-26.43,6.19-40.45-3.52-11.29-11.94-20.45-22.3-25.95a55,55,0,0,0-40.24-4.26,1.5,1.5,0,0,0,.8,2.89c22.85-6.28,51.35,4.07,58.85,28.11,4.46,14.3-.61,28.18-7.28,40.86-4.24,8.06-9.17,15.55-17.82,19.17-9,3.78-17,7.34-24.58,13.77-1.47,1.24.66,3.36,2.12,2.12Z"/><path d="M318.19,309c-8.71-1.7-13.69-10.15-8.6-18.27,4-6.38,11.4-8.75,17.88-11.67,10.24-4.6,19.88-12.83,22.35-24.27,2-9.27-1.49-22.46-9.42-28.31-6.13-4.52-15.41-.15-22.3-.38-1.93-.06-1.92,2.94,0,3,4.53.15,8.73-.69,13.17-1.36,5.09-.77,8.09,1,10.89,5.31,8.28,12.85,6,27.37-5.69,37.08-9.27,7.72-24.24,8.84-30.23,20.36-5,9.6,1.21,19.47,11.15,21.41,1.89.37,2.7-2.53.8-2.9Z"/><path d="M318.05,282.15c2.25,11.69,8.87,20.3,20.44,23.84,2.75.84,5.06-2.62,1.93-3.58-10.11-3.09-15.48-10.34-17.44-20.53-.48-2.49-5.45-2.46-4.93.27Z"/><path d="M335.34,273.1c1.47,10.74,7.84,17.78,18.2,20.78,1.81.52,5.49-2.73,3-3.43-9.51-2.75-15.28-9.1-16.62-19-.31-2.25-4.88-.33-4.62,1.62Z"/><path d="M347.05,254.7c1.66,4.71,3.54,9.65,7.07,13.31s8.29,5.26,13.18,6.05c.95.15,5.68-.91,3.45-1.26C360,271.08,355.43,264,352,254.31c-.43-1.21-5.21-.25-5,.39Z"/><path d="M343,228.84c8.16-1.12,15.73-2.11,21.45-8.65.71-.81-3.74-2.62-4.51-1.74-5.58,6.37-12.9,7.36-20.87,8.44-1.24.17,2.77,2.1,3.93,2Z"/><path d="M325.9,229.43c7.08-5.87,7.46-14.81,7.42-23.37,0-2.71-4.52-4.27-4.51-1.11,0,7.2.21,15.41-5.83,20.42-2.15,1.78.78,5.83,2.92,4.06Z"/></g><g id="arm_1-2" data-name="arm 1"><path class="cls-1" d="M79.53,115c7.32,12.32,11.76,23.13,19.3,36a92.78,92.78,0,0,0,31.42,32.36c11,6.83,25.38,12.33,35,20.92,5.18,4.62,5.82,8.93,4.83,15.15s-5.44,8.52-11.34,9.71c-1.62.33-4.51-.5-6.2-.68a10.27,10.27,0,0,1-3.39-1c-21.63-10.76-45.49-25-59-44-15.17-21.29-20-41.46-30.19-64.09A64.87,64.87,0,0,0,79.53,115Z"/><path class="cls-2" d="M101.62,158.56c6.15,13.05,19,23.72,29.71,32.48,8,6.55,27,17.14,32.89,18.27,12.46,2.4,2-3.78.31-5.15-11.23-9.08-25.3-14.92-37.57-22a61.94,61.94,0,0,1-14-11.42,84.72,84.72,0,0,1-5.89-7.2c-1.4-1.8-1.67-3.77-3.49-5.3C102.92,157.7,100.19,155.5,101.62,158.56Z"/><path class="cls-3" d="M88.1,139.41c-9.94-.31-12.21-7-17.93-14.46-1-1.25-6.42-2.7-6.55-5.45A159.65,159.65,0,0,0,79,114.65C80.65,123.91,88.62,129.74,88.1,139.41Z"/><path d="M151.36,226.86c-20.69-10.45-42.22-22.58-56.94-40.94-15.64-19.51-22.85-44-32.94-66.45-.79-1.75-3.37-.23-2.59,1.52C69.11,143.74,76.43,168.32,92.3,188c14.9,18.53,36.64,30.85,57.54,41.41,1.72.87,3.24-1.72,1.52-2.59Z"/><path d="M159.48,230.73c4.47-1.49,9.24-3.36,11.24-8a18.44,18.44,0,0,0-.06-13.89c-2.28-5-7.52-8.47-12-11.37-6.27-4.1-13-7.35-19.63-10.86-13.74-7.3-25.56-16.83-34.59-29.61-9.19-13-15.36-27.91-23.69-41.45-1-1.64-3.61-.14-2.59,1.51,7.24,11.77,12.94,24.4,20.2,36.16A97,97,0,0,0,122.57,180c10.32,7.74,22.41,12.43,33.29,19.26,5.21,3.28,12,7.35,12.92,14,.46,3.18.18,7.25-1.75,9.88s-5.31,3.75-8.35,4.77c-1.82.6-1,3.5.8,2.89Z"/><path d="M149.55,196.14c-.46,5.05-1.43,10.25-4.69,14.31s-8.44,6.18-13.45,7.67c-2.72.81,1.52,3,3.17,2.5,5.27-1.57,10.59-3.75,14.32-8s5.07-10.1,5.58-15.69c.18-1.92-4.76-2.66-4.93-.83Z"/><path d="M124.18,181.13c0,10.43-4.66,16.52-14.07,20.66-2.46,1.09-.26,5.5,1.9,4.55,4.75-2.09,9.5-4.61,12.57-8.94s3.79-9.67,3.79-14.86c0-2.4-4.19-4.51-4.19-1.41Z"/><path d="M104.6,164.89c-.31,3.8-1,7.88-3.66,10.82s-6.59,4.07-10.34,4.83c-3.2.65-1.48,4.31,1.35,3.74,4.7-.95,9.5-2.53,12.85-6.13s4.41-8.49,4.8-13.28c.21-2.53-4.78-2.55-5,0Z"/><path d="M91.82,142.69c-4.14,7.53-10.06,11-18.18,13.24-2.36.65,1.3,3.87,3,3.4,8.6-2.35,15.1-6.16,19.5-14.14.94-1.72-3.4-4.21-4.34-2.5Z"/><path d="M80.16,121.88c-3.58,5.49-8.44,8.94-14.43,11.46-2.7,1.14.49,4.81,2.77,3.86,6.63-2.8,12-6.75,16-12.84,1.4-2.16-2.92-4.67-4.34-2.48Z"/></g><g id="hand_1" data-name="hand 1"><path class="cls-4" d="M83.12,117.21A33.57,33.57,0,0,0,92.92,105,25.1,25.1,0,0,0,92.22,84c-4.9-9.69-11.34-17.75-24.48-20.06-5.4-.95-10.91.6-16.07,2.45C41.94,69.87,31.58,78.8,32.53,94.08c.55,8.91,5,19,12.13,24.46S57,126.9,64.78,125C71.37,123.45,77.12,121.43,83.12,117.21Z"/><path class="cls-4" d="M94.14,85.57c4.45-1.34,10.5-3.53,11.68-5.19-2.89-2.47-4.58-5.51-7-9.23-3.33,1.74-7.27,3.46-10.61,5.2A44,44,0,0,1,94.14,85.57Z"/><path class="cls-4" d="M46.93,69.65,41.34,55.86l1.09-.59A18.61,18.61,0,0,1,52,52.51s2.06,9.37,4.7,13.68Z"/><path class="cls-4" d="M36.9,109.82c-5.3.66-16.69,1.91-16.69,1.91l-4.81-9a113,113,0,0,0,17.5-3.51C33,102.62,34.34,105,36.9,109.82Z"/><path class="cls-4" d="M78.14,67.3c.49-3.19,4-12,4-12-3-.31-4.57-1.28-7.27-2.6l-.11,0a49.55,49.55,0,0,0-4.31,11.07A25.59,25.59,0,0,1,78.14,67.3Z"/><path class="cls-4" d="M32.6,85.69c-2.36-1.28-13-6-13-6,.81-2.13,2.27-7.08,2.27-7.08,3.12,1.17,10.7,4.64,13.82,5.82Z"/><path class="cls-5" d="M75.07,103.67a43.11,43.11,0,0,0-7-15.71l8-7.24c3.8,5.2,8.88,12.82,6.56,18.15A41.11,41.11,0,0,1,75.07,103.67Z"/><path d="M94.23,87.58c3.68-2.14,7.36-4.27,11.12-6.28a1.54,1.54,0,0,0,.54-2,27,27,0,0,0-6-9.16,1.56,1.56,0,0,0-1.82-.23c-3.5,1.79-7.1,3.4-10.6,5.19-1.72.88-.21,3.47,1.51,2.59,3.51-1.79,7.1-3.4,10.61-5.19l-1.82-.24a25.39,25.39,0,0,1,5.55,8.55l.53-2.05c-3.75,2-7.44,4.14-11.12,6.28a1.5,1.5,0,0,0,1.52,2.59Z"/><path d="M48.16,67.66c-2.06-3.95-3.71-8.07-5.38-12.2l-.69,1.7c3.22-1.74,6.19-3,9.92-3.15l-1.3-.75a63.14,63.14,0,0,1,4,11.66c.48,1.87,3.37,1.08,2.89-.8A66.07,66.07,0,0,0,53.3,51.75,1.45,1.45,0,0,0,52,51c-4.29.17-7.71,1.55-11.43,3.56a1.49,1.49,0,0,0-.69,1.69c1.77,4.37,3.5,8.74,5.68,12.92.89,1.71,3.48.2,2.59-1.52Z"/><path d="M36.9,108.32c-4.33.53-8.67,1-13,1.5-.51.06-3.16.71-3.61.4,1,.66-.33-2.5-.36-2.58a34.85,34.85,0,0,1-1.7-5l-1,1.85c5.36-1.34,10.73-2.66,16.13-3.83,1.88-.4,1.08-3.3-.8-2.89-5.4,1.17-10.77,2.49-16.13,3.82a1.53,1.53,0,0,0-1.05,1.85,51.24,51.24,0,0,0,3.59,9.1,1.46,1.46,0,0,0,1.3.74c5.57-.61,11.13-1.23,16.69-1.91,1.89-.24,1.92-3.24,0-3Z"/><path d="M80.07,68.43a101.61,101.61,0,0,0,2.87-12.89,1.55,1.55,0,0,0-1-1.85l-6.76-2.37a1.49,1.49,0,0,0-1.69.69A116.45,116.45,0,0,0,69,63.43c-.61,1.84,2.29,2.62,2.89.8A107.86,107.86,0,0,1,76,53.52l-1.7.69,6.76,2.37-1-1.84a103.37,103.37,0,0,1-2.87,12.89c-.55,1.86,2.34,2.65,2.89.8Z"/><path d="M32.55,84.82c-4-2.18-8.1-4.29-12.15-6.42l.69,1.69c.86-2.32,1.57-4.7,2.27-7.08l-1.84,1c4.87,1.88,9.55,4.24,14.43,6.12,1.8.7,2.58-2.2.79-2.89C31.87,75.4,27.19,73,22.31,71.16a1.52,1.52,0,0,0-1.84,1c-.7,2.38-1.42,4.76-2.27,7.09A1.51,1.51,0,0,0,18.88,81C22.94,83.12,27,85.23,31,87.41c1.69.92,3.21-1.67,1.51-2.59Z"/><path d="M63.46,123.79C45.78,126.27,33.33,108.16,34,91.93c.53-13.16,10.56-22,22.49-25.5a28.59,28.59,0,0,1,36.3,22.93c2.18,13.9-7,24.42-18.36,30.52-.26.15,2,2.85,2.93,2.35,11.86-6.37,21.42-18.07,18.1-32.45C93.16,79.87,85,70.18,75.91,65.7c-11.78-5.84-26.61-3-36.28,5.78-10.31,9.33-10.57,24.16-4.57,36,5.63,11.13,18.18,20.59,31.05,18.79.4-.06-1.66-2.62-2.65-2.48Z"/></g><path class="cls-6" d="M132.36,202.13s112,28.2,142,32.05c-3.42,49.62-10.38,99-18.73,158.57a484.48,484.48,0,0,1-107-32.21Z"/><path class="cls-1" d="M182.76,355.62c10.9,9.65,26.55,13.2,33.18,9.41,11.12-6.36,15.09-12.32,33-1.29,12.53-.91,14.42-28.38,14.42-28.38l-7,50.26C214,380,179.94,367,149.07,353.45l-5.39-37.92a124.55,124.55,0,0,0,6.11,14.66C157.61,345.87,170.35,328.94,182.76,355.62Z"/><path class="cls-7" d="M263.76,381.68c2.72-26.52,1.67-66.12-5-18.68-.69,4.92-3.6,13.64-10.81,14.92-2-9.93-4.38-13.14-7.94-13.9-8.52-1.81-16.16-4.39-22.16-1.53-4.26,2-6,10.27-13.07,8.89-14.49-2.83-23.56-7-26-10.69-1.1-9.87-3.09-19.8-13.72-20.53-5.47-.38-15.91,2.88-16.46-2.58,0,0-7.85-61.62-7.65-48.05l7.58,70.85A473.83,473.83,0,0,0,255,392.65Z"/><path class="cls-5" d="M275.26,234.24c2.84-2.48,36.39-24.2,36.39-24.2,0,13.35-17,130.59-24.81,153.2l-29.61,29.12Z"/><path class="cls-7" d="M273.26,205.16c-8.37,3.85-16.17,13-27.56,10.47-20.94-4.71-55.2-14.84-68.37-17.53-5.26-1.25-15.49-.55-35.65,4.26,17.63,4.93,48.16,11.38,65.85,15.69,1.68.39,18.34,4.61,20.71,5.15,14.22,3.24,42.67,8.05,45.87,8.74.52-.55,22-15.17,31.63-20.08C287.32,209.35,274.94,204.39,273.26,205.16Z"/><g id="foot_2" data-name="foot 2"><path class="cls-8" d="M44.76,316.17C59.42,341,69.94,358.89,74.62,387.33c0,0-18,2.32-29.79,6-5.1-16.38-19.06-47.48-34.07-61.11Z"/><path d="M43.46,316.93c13.3,22.51,25.28,44.72,29.72,70.8l1.44-1.9a194.81,194.81,0,0,0-30.19,6l1.85,1.05A199.87,199.87,0,0,0,32.81,361c-5.59-10.72-12.07-21.52-21-29.83l-.3,2.36,34-16c1.75-.83.23-3.41-1.51-2.59l-34,16a1.5,1.5,0,0,0-.31,2.35c8.74,8.14,15.05,18.72,20.52,29.22a196.74,196.74,0,0,1,13.17,31.23,1.52,1.52,0,0,0,1.84,1.05,188.41,188.41,0,0,1,29.39-5.91,1.53,1.53,0,0,0,1.45-1.9c-4.48-26.34-16.59-48.77-30-71.52A1.5,1.5,0,0,0,43.46,316.93Z"/><path class="cls-2" d="M9.82,333c13.26,14.27,21.2,28.17,31.65,57.38,0,0-6.54-8.47-12.43-13.32A120,120,0,0,0,2,330.68Z"/><path d="M9.23,333.65c15.26,16.24,24.72,36.5,31.21,57.61.56,1.84,3.46,1.06,2.89-.8-6.64-21.6-16.36-42.31-32-58.93-1.32-1.41-3.44.72-2.12,2.12Z"/><path d="M11.37,333.77c11.53-5.55,22.76-11.66,33.87-18a1.5,1.5,0,0,0-1.52-2.59c-11.11,6.34-22.34,12.45-33.87,18-1.74.84-.22,3.43,1.52,2.59Z"/><path d="M44.82,394.26c8.91-1.69,17.55-4.73,26.67-5.2,1.92-.1,1.93-3.1,0-3-9.4.48-18.29,3.56-27.47,5.31-1.89.36-1.09,3.25.8,2.89Z"/><path d="M43.58,315.16a190,190,0,0,1,30,73.93c.32,1.9,3.21,1.09,2.89-.8a192.11,192.11,0,0,0-30.25-74.65c-1.07-1.59-3.67-.09-2.59,1.52Z"/></g><g id="body"><path d="M132.38,203.25q69.41,19.26,140.37,32.06c1.89.34,2.7-2.55.8-2.89q-70.89-12.79-140.37-32.06a1.5,1.5,0,0,0-.8,2.89Z"/><path d="M130,202c3.43,28,6,56.08,9.1,84.11,2.69,24.43,6.82,49,7.14,73.61,0,1.93,3,1.94,3,0-.32-24.62-4.45-49.18-7.14-73.61C139,258,136.41,230,133,202c-.23-1.89-3.23-1.91-3,0Z"/><path d="M311,209.71c-4.16,28.78-8.45,57.55-12.65,86.33-3,20.6-6.31,41.56-11.82,61.66-1.76,6.4-6.3,10.33-10.95,15-6.88,6.84-13.84,13.6-20.77,20.41-1.37,1.35.75,3.48,2.13,2.12l18.57-18.25c4.08-4,10.21-8.64,12.55-13.93,1.69-3.81,2.39-8.35,3.31-12.39,1.34-5.81,2.52-11.65,3.65-17.5,4.58-23.81,7.89-47.8,11.42-71.78q3.75-25.42,7.45-50.84c.28-1.88-2.61-2.7-2.89-.79Z"/><path d="M259,389c3.93-28.65,7.26-57.39,10.57-86.11,1.73-15.05,3.42-30.1,5-45.16.56-5.45,1.11-10.89,1.59-16.35a48.42,48.42,0,0,0,.46-5.76c0-1,.78-2.4-.58-.89a4,4,0,0,1,1.05-.67c6-2.86,11.66-7.41,17.29-11,6.26-3.95,12.52-7.94,18.88-11.74a1.5,1.5,0,0,0-1.52-2.59c-11.42,6.83-22.61,14.07-33.84,21.21-3.16,2-4,2.3-4.32,6.12-.32,4.53-.76,9-1.2,13.55-3.06,31.35-6.8,62.65-10.59,93.92-1.8,14.88-3.62,29.77-5.65,44.62-.26,1.89,2.63,2.71,2.89.8Z"/><path d="M132.5,203.45c12.93-2.19,25.46-6.06,38.26-8.83,1.89-.41,1.09-3.3-.79-2.89-12.81,2.77-25.33,6.64-38.27,8.83-1.9.32-1.09,3.21.8,2.89Z"/><path d="M275.29,203.66c12.39,2,24.58,5.25,36.85,7.89,1.88.4,2.68-2.49.8-2.9-12.27-2.63-24.46-5.9-36.85-7.88-1.89-.3-2.71,2.59-.8,2.89Z"/><path d="M147.83,361.84a493.91,493.91,0,0,0,107.41,32.35c1.89.34,2.7-2.55.8-2.89a490.58,490.58,0,0,1-106.69-32.05c-1.76-.76-3.29,1.83-1.52,2.59Z"/></g><g id="leg_1" data-name="leg 1"><path class="cls-1" d="M198.33,396.45c2.36-11.87,17.87-32,20.1-34.08,8.17-7.65,24-3.08,24.81,7.18,1.3,13.2-5.9,21.61-8.8,31.61Z"/><path d="M199.77,396.85c1.77-7.94,6.49-15.23,11-21.89,3.13-4.65,6.69-11.25,12-13.66a15.42,15.42,0,0,1,12.6.19c4.83,2.25,6.53,6.27,6.51,11.4-.05,10.12-6,18.5-8.9,27.87l1.44-1.1L198.33,395c-1.91-.25-1.89,2.75,0,3l36.11,4.71a1.51,1.51,0,0,0,1.45-1.1c3.39-10.94,11.11-21.37,8.67-33.45-1.63-8.05-10.81-11.89-18.29-10.89s-11.35,6.69-15.45,12.4c-5.67,7.9-11.79,16.79-13.94,26.43C196.46,397.93,199.35,398.74,199.77,396.85Z"/></g><g id="foot_1" data-name="foot 1"><path class="cls-5" d="M235.21,387.86s-48.73-8.84-69.11-8.22c-2.9,3.6-7.89,10.83-10.84,13.25a504.94,504.94,0,0,1,70.93,10.68c3.85-4.18,7.82-11.85,9.07-15.4"/><path class="cls-1" d="M226.19,403.57c3.27,17.14,2.63,39.36-.92,64.93,8-12.8,14.32-62.91,9.94-80.64Z"/><path class="cls-6" d="M151.78,460.08q35.24,5,70.32,10.88s2.61-11.87,3.48-18.25c2.39-17.68,2-43,.62-49.49-4.76-1.48-49.3-8.76-70.8-9.89.21,14.93.14,43.64-3.23,65.16"/><path d="M151.38,461.52q35.24,5,70.33,10.88a1.53,1.53,0,0,0,1.84-1,208,208,0,0,0,4.85-33.31c.62-11.47,1.41-23.87-.75-35.23a1.5,1.5,0,0,0-1.05-1.05c-9.55-2.79-20-3.71-29.76-5.17-13.74-2-27.56-4-41.44-4.77a1.51,1.51,0,0,0-1.5,1.5c.29,21.56.07,43.41-3.17,64.76-.29,1.89,2.6,2.71,2.89.8,3.29-21.64,3.57-43.72,3.28-65.56l-1.5,1.5c23,1.29,45.56,5.8,68.26,9.32a5,5,0,0,1,1.62.37c-.53-.34-.08-.26-.19,1.27-.17,2.18.39,4.64.49,6.83.32,6.94.28,13.91,0,20.85a207.83,207.83,0,0,1-4.94,37.09l1.84-1.05q-35.08-5.86-70.32-10.88c-1.89-.27-2.7,2.62-.8,2.89Z"/><path d="M231.4,390.18a48.26,48.26,0,0,1-4.73,9.45c-1,1.63,1.54,3.14,2.59,1.52a51.47,51.47,0,0,0,5-10.17c.66-1.82-2.24-2.6-2.89-.8Z"/><path d="M156.79,393.54a57.69,57.69,0,0,0,5.61-6c1.24-1.5,3-5.42,4.57-6.34s6.06-.07,7.95,0c3.42.13,6.82.37,10.23.66,12.59,1.08,25.12,2.95,37.56,5.14,3.44.61,6.87,1.29,10.31,1.92a5.51,5.51,0,0,1,1.76.35c-1.32-1.06-.55,1.18-.45,1.79.21,1.25.35,2.51.47,3.78,1.06,11.58,0,23.44-1.4,34.94-1.47,12-3.1,25-7.84,36.18-.75,1.76,1.84,3.29,2.59,1.51,5-11.94,6.8-25.57,8.33-38.35,1.61-13.47,3.3-28.3.17-41.69a1.48,1.48,0,0,0-1-1c-22.65-4.68-46.34-8.74-69.51-8.28a1.48,1.48,0,0,0-1.29.74,47,47,0,0,1-10.14,12.54c-1.43,1.3.7,3.42,2.12,2.12Z"/></g><path class="cls-6" d="M295.73,243.19s-9.15,1.18-11.93,28.58c-2.06,20.35-1.5,34.62,3.24,30.5s3.92-36.35,12.79-39.69S295.73,243.19,295.73,243.19Z"/><g id="leg_2" data-name="leg 2"><path class="cls-2" d="M74.26,357.46s5.34,15.39,5.26,25.89c5.46-2.09,43.3-15,83.87-18.24,6.42-.31,15-4.68,9.81-17-5.5-13.14-35.88-6.66-35.88-6.66S81.78,350.47,74.26,357.46Z"/><path class="cls-1" d="M173.71,357.66c-29.64-3-87.93,16.1-95,18.14-1.28-4.85-4.5-18.34-4.5-18.34a8.64,8.64,0,0,1,1.55-1.09c7.14-2.69,14.85-5.14,22.77-7.28,17.89-4.23,38.75-7.61,38.75-7.61s.91-.2,2.46-.45c4.64-.54,9.13-.93,13.37-1.14,8.3,0,16.47-.31,20,8.26C175,352.4,174.84,354.18,173.71,357.66Z"/><path class="cls-6" d="M174.39,353.2c-25.78-2.59-74.77,10.1-91.72,14.79A5.42,5.42,0,0,1,76,364.14c-.92-3.53-1.75-6.68-1.75-6.68a8.64,8.64,0,0,1,1.55-1.09c7.14-2.69,14.85-5.14,22.77-7.28,17.89-4.23,38.75-7.61,38.75-7.61s.91-.2,2.46-.45c4.64-.54,9.13-.93,13.37-1.14,8.3,0,17.29,1.67,20,8.26C173.41,348.64,174.24,352.73,174.39,353.2Z"/><path d="M74.36,358.51a275,275,0,0,1,45.84-12.9c8-1.55,16.06-2.79,24.17-3.57,6.15-.6,14.29-2.2,20.24-.12,6.76,2.37,11.92,12.27,6.35,18.34-3,3.33-8.15,3.33-12.27,3.81-13.27,1.54-26.74,2.5-39.74,5.71-12.39,3.06-25,6.36-36.89,11.2-1.76.72-1,3.63.8,2.89,12.15-5,25.16-8.35,37.9-11.44A180.45,180.45,0,0,1,141.84,369c7.93-.95,16.32-1.12,24.11-2.87,9.77-2.19,13.28-13.41,7.36-21.54-3.61-5-9.49-6.49-15.3-6.38a200.76,200.76,0,0,0-24.1,2.08,276,276,0,0,0-60.34,15.33c-1.79.68-1,3.59.79,2.89Z"/></g><path d="M2.14,333.17c7.24,8.49,13,18.71,18.22,28.52,1.57,3,3.08,6,4.44,9,1.07,2.39,1.7,5.46,3.16,7.6s3.88,3.87,5.5,5.85c2.45,3,4.74,6.1,7,9.22,1.12,1.55,3.72.05,2.59-1.51-3.85-5.3-8.45-10-12.35-15.17-1.55-2-2.26-5.13-3.32-7.5-1.47-3.29-3.09-6.51-4.79-9.68-5.26-9.83-11.08-20-18.34-28.49C3,329.57.9,331.7,2.14,333.17Z"/><path d="M1.15,330.91c3.06.86,6.14,1.67,9.12,2.79,1.81.68,2.59-2.22.8-2.9C8.09,329.69,5,328.87,2,328a1.5,1.5,0,0,0-.8,2.89Z"/><path d="M2.61,330.52c6.19-5.32,13.5-9.58,20.78-13.23,3.07-1.54,6.51-3.6,9.92-3.93a25.9,25.9,0,0,1,10.29,1.46c1.82.64,2.61-2.26.79-2.89a31.49,31.49,0,0,0-10.69-1.56c-3.23.08-6.11,1.62-9,3a104.67,104.67,0,0,0-24.19,15c-1.46,1.26.67,3.38,2.12,2.12Z"/><path d="M239.6,269.17a57.19,57.19,0,0,0,15.51,2.76c1.39.05,1.38-2.1,0-2.15a54.65,54.65,0,0,1-14.94-2.69c-1.32-.43-1.89,1.65-.57,2.08Z"/><path d="M258.88,252.82A131.65,131.65,0,0,1,240.79,249a1.1,1.1,0,0,0-1.33.75c-1.6,5.64-2.63,11.91-1.75,17.75.21,1.37,2.29.79,2.08-.57-.83-5.45.26-11.35,1.75-16.6l-1.32.75A138.38,138.38,0,0,0,258.88,255c1.38.15,1.37-2,0-2.16Z"/><path d="M258.48,254.7a35.73,35.73,0,0,0-1.88,17.65c.18,1.37,2.26.79,2.07-.57a33.61,33.61,0,0,1,1.89-16.5c.48-1.31-1.6-1.87-2.08-.58Z"/><path class="cls-4" d="M249.51,256.42c-5.65-1.59-7.54,3.26-6.67,5.22a5.21,5.21,0,0,0,4.16,3.47,5.54,5.54,0,0,0,5.62-2.36C253.75,260.92,252.63,257.3,249.51,256.42Z"/><path d="M249.7,255.73c-2.9-.72-6.07-.12-7.35,2.87a5.27,5.27,0,0,0,2.46,6.51c2.82,1.61,7.33.73,8.66-2.47,1.21-2.91-1.07-6-3.77-6.91-.88-.3-1.26,1.09-.38,1.38,2,.68,3.85,3.16,2.68,5.28-1.41,2.53-5.44,2.71-7.36.77a3.54,3.54,0,0,1-.77-4.41c1.14-2,3.42-2.14,5.45-1.64C250.21,257.34,250.6,256,249.7,255.73Z"/><path d="M248.65,260.72a28,28,0,0,0,1.73-5.37,1.08,1.08,0,0,0-2.08-.58,25.59,25.59,0,0,1-1.51,4.86c-.6,1.25,1.26,2.34,1.86,1.09Z"/><g id="HEAD"><path class="cls-3" d="M248.2,195.07a89.45,89.45,0,0,1,6,12.82c-33-12.31-76.38-26.41-109.78-37.24l-.3,0c-.75-4.31-3.23-8.26-5.11-12.11Z"/><path class="cls-5" d="M287.08,71.16c1.24,2,6.91,24.52,21,40.13L293.86,175.7c-15.23,8.16-36.93,30-39.46,31.29Z"/><path class="cls-8" d="M139.07,156.28c4.59-16.7,15.14-74.89,17.39-92L271.1,85.49l-.32,1.25c-2.68,18.48-23.25,107.2-23.25,107.2l-108-36.19Z"/><path d="M140.52,156.68c4.13-15.25,6.81-31,9.69-46.48C153,95,155.91,79.66,158,64.28l-1.9,1.44L256.5,84.31l14.21,2.63-1-1.85c-1.46,5.69-2.17,11.66-3.34,17.42-1.81,8.86-3.73,17.7-5.67,26.54q-5.77,26.38-11.86,52.7-1.35,5.9-2.71,11.79l1.84-1L152.3,160.44l-9.18-3.08c-.82-.27-1.68-.5-2.48-.83-1.46-.61.55,1.37-.12-.65-.6-1.82-3.5-1-2.89.8,1.2,3.65,5.88,4,9.27,5.11l25,8.37,61,20.43,14.29,4.79a1.51,1.51,0,0,0,1.84-1c6.75-29.11,13.44-58.26,19.52-87.52,1.43-6.92,2.31-14.09,4.06-20.92A1.52,1.52,0,0,0,271.5,84L171.07,65.46l-14.21-2.63a1.54,1.54,0,0,0-1.9,1.45c-2.07,15.53-5,31-7.88,46.39-2.82,15.09-5.43,30.38-9.45,45.21A1.5,1.5,0,0,0,140.52,156.68Z"/><path class="cls-9" d="M255.33,206.15C272.62,149.1,288.42,73.34,285.69,71.5c-2.93,2.94-9.84,9.34-14.59,14L249.33,194.4s3.32,7.22,5.07,12.59Z"/><polygon class="cls-5" points="179.4 54.75 284.02 71.38 271.18 85.17 158.31 64.06 179.4 54.75"/><path d="M269.34,86.34c-5.6,36.07-13.9,71.94-23.26,107.2a1.5,1.5,0,0,0,2.89.79c9.36-35.25,17.67-71.12,23.26-107.19.29-1.89-2.6-2.7-2.89-.8Z"/><path d="M158.47,65.11a218.35,218.35,0,0,0,21.29-8.83c1.74-.83.22-3.42-1.52-2.59a211,211,0,0,1-20.57,8.53c-1.8.64-1,3.54.8,2.89Z"/><path d="M287,69.5C251.12,65.82,215.59,59.37,180,53.7c-1.89-.3-2.7,2.59-.8,2.89C215.06,62.31,250.85,68.79,287,72.5c1.91.19,1.9-2.81,0-3Z"/><path d="M284.4,70.75C281,76.37,274.64,79.84,270,84.43a1.5,1.5,0,0,0,2.12,2.12C277,81.74,283.39,78.17,287,72.26c1-1.65-1.59-3.16-2.59-1.51Z"/><path d="M285.79,71.91c2.46,4.25,4.21,9,6.34,13.41,1.83,3.78,3.71,7.53,5.68,11.24,1.09,2.06,2.2,4.11,3.35,6.14,1.41,2.5,3.66,5.13,4.61,7.8.8,2.26.55-.22.75.7.06.26-.2.62-.19.89a17.94,17.94,0,0,1-.85,3.85l-2.76,12.53-7,31.84-2.47,11.25c-.88,4-.86,3.28-4.42,5.83-7.49,5.36-14.63,11.19-21.67,17.12-4.31,3.63-8.59,8.39-13.51,11.19a1.5,1.5,0,0,0,1.51,2.59c3.88-2.21,7.24-5.83,10.61-8.69,6.82-5.79,13.69-11.53,20.85-16.89,3.05-2.29,7.74-4.11,9-7.8,1-3.12,1.45-6.59,2.16-9.8l7.19-32.69,3.06-13.9c.44-2,1.56-4.68,1.49-6.75-.11-3-3.37-6.47-4.83-9-2.81-4.9-5.45-9.9-8-15-2.84-5.71-5.11-11.89-8.3-17.4a1.5,1.5,0,0,0-2.59,1.51Z"/><g id="lips"><path class="cls-1" d="M169.61,151.93s-7.23-11.78-5.8-14.35c1.64-2.93,7.09-2.44,7.09-2.44S173,148.8,169.61,151.93Z"/><path class="cls-10" d="M170.92,135.21c18.56,6.17,39.42,13.6,63.42,15,0,0,1.9,2.34,1.76,3.38a49.54,49.54,0,0,1-3.94,13.85l-1.58.24a118.92,118.92,0,0,1-59.23-14.59c-3.59-7.11-2.91-13.12-2.21-17.73Z"/><path d="M170.52,136.66c20.95,6.87,41.56,14.19,63.82,15.08,1.93.08,1.93-2.92,0-3-22-.88-42.33-8.19-63-15-1.84-.61-2.63,2.29-.8,2.89Z"/><path d="M234.2,152.89c.85.13-1.74,12.35-2.85,13.19-1.67,1.28-8.06.15-9.94,0a119,119,0,0,1-21.95-3.44,110.91,110.91,0,0,1-20.12-7c-3.43-1.6-6.37-2.66-7.75-6.37a23,23,0,0,1-1-13.54,1.5,1.5,0,0,0-2.89-.8c-1.25,4.82-.65,9.56.75,14.29,1.56,5.21,3.23,6,8.1,8.4a116.11,116.11,0,0,0,29.29,9.47,122.86,122.86,0,0,0,14.79,1.92c3,.2,9.13,1.45,11.93-.16s3.81-8.49,4.4-11.33c.51-2.52,1.69-7-2-7.59-1.88-.29-2.7,2.6-.79,2.9Z"/></g><path d="M271.5,84,171.07,65.46l-14.21-2.63a1.54,1.54,0,0,0-1.9,1.45c-2.07,15.53-5,31-7.88,46.39-2.82,15.09-5.43,30.38-9.45,45.21a1.5,1.5,0,0,0,2.89.8c4.13-15.25,6.81-31,9.69-46.48C153,95,155.91,79.66,158,64.28l-1.9,1.44L256.5,84.31l14.21,2.63c1.88.34,2.69-2.55.79-2.9Z"/><path d="M285,71.24c-2.92,22.79-7.33,45.44-12.29,67.87s-10.3,45.22-18.8,66.64c-.72,1.8,2.18,2.57,2.89.8,8.68-21.88,14.09-45.16,19.12-68.1,4.88-22.22,9.19-44.64,12.08-67.21.25-1.91-2.76-1.89-3,0Z"/><path d="M144.22,171.2C180.85,183.48,217.78,195,254,208.44a1.5,1.5,0,0,0,1.84-1.85,72.05,72.05,0,0,0-5.78-11.47,6.78,6.78,0,0,0-2.21-2.65,21.9,21.9,0,0,0-4.38-1.47l-23.77-8L155.49,161.5l-15.88-5.32c-1.33-.45-2.24,1.11-1.69,2.2,1.93,3.85,4,7.51,5,11.75a1.5,1.5,0,0,0,1.44,1.1l.3,0c1.93.11,1.92-2.89,0-3l-.3,0,1.45,1.11c-1-4.49-3.22-8.4-5.26-12.47l-1.7,2.2,99.58,33.38a72.9,72.9,0,0,0,7.68,2.58c.41.08,1.44.71.65.07s1.36,2.54,1.7,3.11a65.19,65.19,0,0,1,4.53,9.18l1.85-1.84c-36.22-13.48-73.15-25-109.78-37.25C143.18,167.69,142.39,170.59,144.22,171.2Z"/><path class="cls-1" d="M252.79,116.65c-4.66-8.4-14.93-6-23.5-5.46-5.55.34-12.55-1.35-13.79-2.88-4.07-7.34-13-4.42-20.53-4.76-6.61-.31-14.38-2.61-15.55-4.07-3.85-7.12-13.2-8-19.55-4.56s-6.2,12.66-2.46,18c5.59,6.91,33.21,6.56,35.06,9.13,14.72,10.14,27.21,4.22,33.95,10.32,7.43,9,26.07,7.12,29.26-5.32A12.86,12.86,0,0,0,252.79,116.65Z"/><path d="M214.72,113.38c-2.7,5.25-8.12,9.74-14.11,5.9a8.67,8.67,0,0,1-3.16-13.19c4.21-3.83,11.69-1.58,15.63,2A5.79,5.79,0,0,1,214.72,113.38Z"/><path d="M247.63,126.31c-2.61,5.32-8.3,5.32-13.73,4.8-6.46-.82-6.94-6.78-5.7-10.87,2.46-8.2,11.23-9.35,16.37-6C246.14,115.94,249.89,122.53,247.63,126.31Z"/><path d="M182,107c-5.9,10.67-16,7.63-18.9-.95-1.5-6,4.39-9.79,10.71-10,3.33-.1,5.56,1.68,7.46,4.44C182.56,102.06,182.36,104.9,182,107Z"/><g id="eyes"><path class="cls-11" d="M177.55,105.08q2.67,2.42,5.47,4.67c3.88,3.12,0,10.06-3.94,6.9-2.43-2-4.81-4-7.1-6l-4,4c-3.6,3.57-9-2.12-5.44-5.7l3.81-3.78a77.73,77.73,0,0,1-5.23-6.17c-3-4,2.44-9.7,5.5-5.64a78.13,78.13,0,0,0,5.3,6.28l5.37-5.32c3.59-3.58,9,2.11,5.43,5.69Z"/><path class="cls-11" d="M214.85,106.53q-3.39,2.82-6.54,5.93a78.77,78.77,0,0,0,6.88,7c3.76,3.39-1.77,9-5.5,5.64a81.38,81.38,0,0,1-6.77-6.88c-1.06,1.26-2.09,2.53-3.08,3.85-1.3,1.72-3.33,2.59-5.3,1.41-1.64-1-2.65-3.79-1.36-5.49,1.54-2,3.15-4,4.81-6-1.58-2.16-3.08-4.4-4.48-6.7-2.66-4.38,4.05-8.37,6.7-4,1,1.68,2.1,3.31,3.22,4.9,1.91-1.89,3.9-3.71,6-5.44C213.27,97.63,218.74,103.3,214.85,106.53Z"/><path class="cls-11" d="M245.22,136.6a89,89,0,0,1-9.86-8.21,81.48,81.48,0,0,1-6.32,5.86c-4,3.34-9.74-2.58-5.68-6a80.62,80.62,0,0,0,6.35-5.89,84.18,84.18,0,0,1-6.76-9.05c-2.91-4.49,4.12-8.64,7-4.19a71.88,71.88,0,0,0,5.2,7,78.44,78.44,0,0,0,6.32-9.31c2.68-4.61,9.64-.37,7,4.27a89.38,89.38,0,0,1-7.65,11.12,78.16,78.16,0,0,0,8.56,7.11C253.59,132.44,249.51,139.67,245.22,136.6Z"/></g><path class="cls-12" d="M252.62,1.84C259,21.69,262,41.93,263.57,62.69c.14,1.92,3.15,1.93,3,0C265,41.67,262,21.14,255.51,1c-.59-1.83-3.49-1-2.89.8Z"/><path class="cls-4" d="M248,1.16,199.1,20.6,255.46,40S256.32,26.23,248,1.16Z"/><path d="M244.79,137.19a89.22,89.22,0,0,1-9.78-8.43h0l.71,0c-1.76,1.8-3.59,3.53-5.51,5.17a11.21,11.21,0,0,1-1.56,1.2,6.27,6.27,0,0,1-1,.43,9.48,9.48,0,0,1-1,.19,5.13,5.13,0,0,1-3.76-1.52,4.48,4.48,0,0,1-1.37-3.84,5.35,5.35,0,0,1,.35-1,4.34,4.34,0,0,1,.6-.87,14,14,0,0,1,1.44-1.31c1.88-1.62,3.69-3.33,5.43-5.11h0l0,.68c-1.79-2.09-3.49-4.27-5.07-6.52l-1.17-1.7-.57-.86c-.17-.34-.36-.67-.51-1a4.12,4.12,0,0,1,1-4.33,5,5,0,0,1,4.15-1.53,4.79,4.79,0,0,1,1.13.28,4.32,4.32,0,0,1,1,.59l.45.37a3.91,3.91,0,0,1,.37.44l.35.45.28.42a73.79,73.79,0,0,0,4.87,6.53h-.84a80.35,80.35,0,0,0,5.19-7.74l.58-1a8.7,8.7,0,0,1,.65-1.06,4.29,4.29,0,0,1,2.18-1.71,4.44,4.44,0,0,1,2.79-.07,5.24,5.24,0,0,1,2.37,1.39,4.77,4.77,0,0,1,1.07,5.31l-.29.64-.29.52-.59,1-1.22,2a91.53,91.53,0,0,1-5.44,7.81h0l-.1-1.62c1.39,1.39,2.84,2.73,4.33,4,.75.64,1.51,1.26,2.28,1.87l1.17.91c.2.16.38.28.6.46l.67.61a5.13,5.13,0,0,1,1.36,3.31,5.86,5.86,0,0,1-.94,3.35,4.69,4.69,0,0,1-2.85,2.08A4.31,4.31,0,0,1,244.79,137.19Zm.86-1.19a2.74,2.74,0,0,0,2.21.47,3,3,0,0,0,1.78-1.45,3.62,3.62,0,0,0-.37-4.41l-.45-.38c-.17-.13-.41-.28-.6-.42l-1.24-.89c-.81-.59-1.62-1.21-2.41-1.83q-2.38-1.89-4.62-4l-.81-.75.71-.86v0a87.43,87.43,0,0,0,5.56-7.42l1.26-1.94.62-1,.3-.49.2-.43a3.31,3.31,0,0,0,.27-.86,2.89,2.89,0,0,0,0-.88,3,3,0,0,0-.82-1.6,3.4,3.4,0,0,0-1.59-1,2.81,2.81,0,0,0-1.81,0,2.85,2.85,0,0,0-1.48,1.1,7.75,7.75,0,0,0-.6.92l-.63,1a80.77,80.77,0,0,1-5.54,7.67l-.43.53-.43-.52h0a72.56,72.56,0,0,1-4.92-6.64l-.29-.43-.28-.36a3.37,3.37,0,0,0-.29-.35l-.34-.28a3.67,3.67,0,0,0-.76-.46,4.22,4.22,0,0,0-.85-.21,4,4,0,0,0-3.27,1.21,3,3,0,0,0-.74,3.24c.12.28.27.54.41.82l.56.85,1.15,1.68q2.34,3.34,5,6.46l.3.34-.32.33h0q-2.62,2.72-5.49,5.18a13.62,13.62,0,0,0-1.34,1.21,3.72,3.72,0,0,0-.46.66,4.13,4.13,0,0,0-.25.75,3.48,3.48,0,0,0,1.08,3,4.19,4.19,0,0,0,3,1.22,7.05,7.05,0,0,0,.8-.15,5.07,5.07,0,0,0,.75-.34c.23-.17.46-.28.7-.49l.71-.6c1.89-1.62,3.7-3.33,5.44-5.1l.34-.35.36.33h0A88.41,88.41,0,0,0,245.65,136Z"/><path d="M215.38,107.16c-1.1,1-2.17,2-3.19,3a41.28,41.28,0,0,0-2.92,3.27l.07-1.87c1.65,2,3.4,4,5.24,5.79l1.4,1.39a4.93,4.93,0,0,1,1.31,2.15,4.19,4.19,0,0,1-.07,2.53,5.36,5.36,0,0,1-1.28,2,5.45,5.45,0,0,1-2,1.25,5.11,5.11,0,0,1-1.17.27,4.87,4.87,0,0,1-1.21-.07l-.6-.14c-.19-.07-.36-.17-.55-.25a4.24,4.24,0,0,1-1-.64c-.58-.48-1-.93-1.48-1.41-1.9-1.88-3.69-3.85-5.39-5.9h.76L201.37,121l-1,1.21a8,8,0,0,1-1.13,1.22,4.39,4.39,0,0,1-3.23,1.11,4.33,4.33,0,0,1-1.66-.54,4.1,4.1,0,0,1-1.3-1.18,5,5,0,0,1-1-3.26,3.53,3.53,0,0,1,.58-1.7c.33-.46.65-.82,1-1.24l3.94-4.86h0l0,.62-3.71-5.43c-.31-.46-.63-.88-.92-1.38-.14-.27-.28-.55-.41-.83s-.16-.61-.22-.92a4.24,4.24,0,0,1,1.24-3.47,5,5,0,0,1,3.35-1.51,4.27,4.27,0,0,1,3.4,1.54c.19.24.4.51.55.74l.46.67.9,1.35,1.81,2.69h0l-1.14-.1c1.25-1.16,2.49-2.33,3.77-3.45.64-.56,1.28-1.12,1.94-1.67a9,9,0,0,1,1.12-.82,4.6,4.6,0,0,1,.68-.31,2.57,2.57,0,0,1,.72-.2,5.1,5.1,0,0,1,5.09,2.31,4.17,4.17,0,0,1,.7,2.94A4.56,4.56,0,0,1,215.38,107.16Zm-1-1.27a3,3,0,0,0,1-1.61,2.62,2.62,0,0,0-.41-1.89,3.55,3.55,0,0,0-3.57-1.74,1.37,1.37,0,0,0-.49.13,4.1,4.1,0,0,0-.48.21,10.48,10.48,0,0,0-.92.67c-.64.54-1.28,1.09-1.9,1.65-1.24,1.13-2.47,2.28-3.63,3.49l-.64.67-.5-.77h0L201,103.92l-.89-1.39-.45-.69c-.14-.23-.28-.38-.41-.58a2.89,2.89,0,0,0-2.32-1.11,3.74,3.74,0,0,0-2.49,1.07,3,3,0,0,0-1,2.45l.15.67.3.65c.26.44.58.9.87,1.35l3.57,5.44.21.33-.24.3h0l-3.9,4.81c-.31.4-.67.82-.94,1.2a2.43,2.43,0,0,0-.41,1.21,4,4,0,0,0,.78,2.59,3.12,3.12,0,0,0,2.25,1.31,3.38,3.38,0,0,0,2.49-.88,6.21,6.21,0,0,0,1-1.06l1-1.22,2-2.44.36-.44.4.43h0c1.79,1.92,3.66,3.77,5.62,5.51.48.42,1,.91,1.46,1.24a2.69,2.69,0,0,0,.69.4c.13,0,.24.11.37.15l.37.06a3.31,3.31,0,0,0,2.79-1.12,2.74,2.74,0,0,0,.69-2.68,2.83,2.83,0,0,0-.8-1.15L213,119c-2-1.79-3.9-3.69-5.72-5.67l-1-1.06,1-.81h0c1.18-.92,2.33-1.87,3.49-2.81Z"/><path d="M178.46,105.06a62.84,62.84,0,0,1,5.06,4.06,5,5,0,0,1,1.84,3.68,5.71,5.71,0,0,1-1.27,3.84,4.2,4.2,0,0,1-1.73,1.25,4,4,0,0,1-1.09.23,4.35,4.35,0,0,1-1.09-.17,3.14,3.14,0,0,1-1-.45,5.22,5.22,0,0,1-.79-.58l-1.36-1.19L171.64,111h.69c-1.39,1.36-2.72,2.72-4.15,4.09a3.94,3.94,0,0,1-3,1.11,4.49,4.49,0,0,1-2.88-1.38,4.67,4.67,0,0,1-1.38-2.86,4.1,4.1,0,0,1,1-3.05,13.7,13.7,0,0,1,1-1.09l1-1,2.06-2,0,.69c-1.66-1.72-3.26-3.5-4.77-5.37l-.56-.7c-.19-.26-.37-.57-.55-.85a10.09,10.09,0,0,1-.38-1c-.07-.33-.13-.68-.17-1a5.51,5.51,0,0,1,1.34-3.79,4.26,4.26,0,0,1,3.86-1.6c1.59.21,2.59,1.67,3.22,2.46,1.48,1.83,3,3.59,4.68,5.28h0l-1.44,0,4.83-4.76c.21-.2.39-.39.62-.6s.54-.45.82-.65a8.6,8.6,0,0,1,1-.46,4.84,4.84,0,0,1,1.07-.22,5,5,0,0,1,3.8,1.51,5.1,5.1,0,0,1,1.51,3.77,3.13,3.13,0,0,1-.18,1,3.84,3.84,0,0,1-.41,1,4.23,4.23,0,0,1-.61.83,6.42,6.42,0,0,1-.59.63C181.6,102.35,180.09,103.67,178.46,105.06Zm-1.82,0c1.58-1.8,3.28-3.67,5-5.43a5.84,5.84,0,0,0,.57-.61,2.15,2.15,0,0,0,.38-.53,1.83,1.83,0,0,0,.24-.58,1.36,1.36,0,0,0,.1-.6A3.18,3.18,0,0,0,182,95a3,3,0,0,0-2.29-.93,3.09,3.09,0,0,0-.59.12c-.19.07-.36.19-.55.27l-.51.41c-.19.17-.4.4-.6.59l-4.8,4.79-.74.75-.7-.77h0c-1.6-1.78-3.14-3.64-4.59-5.56l-.54-.73c-.18-.26-.33-.37-.48-.57s-.36-.26-.53-.42a3.14,3.14,0,0,0-.58-.22,2.72,2.72,0,0,0-2.45,1A4.13,4.13,0,0,0,161,96.46c0,.25.06.5.09.74s.15.48.26.71l.39.66.53.71c1.41,1.89,2.93,3.7,4.51,5.46l.33.36-.34.34-2.06,2-1,1a9.91,9.91,0,0,0-1,1,3.1,3.1,0,0,0-.77,2.31,3.76,3.76,0,0,0,1.1,2.26,3.59,3.59,0,0,0,2.23,1.09,3,3,0,0,0,2.28-.86c1.36-1.31,2.74-2.71,4.11-4.06l.33-.32.36.3,5.53,4.56,1.38,1.14a4.08,4.08,0,0,0,.66.47,2.41,2.41,0,0,0,.66.29,2.35,2.35,0,0,0,2.46-1,4.32,4.32,0,0,0,.85-2.86,3.4,3.4,0,0,0-1.34-2.51C180.5,108.73,178.49,106.89,176.64,105.1Z"/><path class="cls-6" d="M284.62,168.38c-1.37-.93-.55-6.51.55-8.26.72-1.16,5.05-2.82,5.3.94S286.29,169.5,284.62,168.38Z"/><path class="cls-5" d="M291.9,157.6c2.58-1.72,9.72-4.71,9.72-4.71l5.17-21.34s-6.82-6.8-10.87-11.08l-3.4.23-6.27,35.58Z"/><path class="cls-6" d="M291.9,157.6c2.58-1.72,4.14-2.74,4.14-2.74-1.93-3.81-.1-19.11,4.16-23.56-3.62-4.11-5.23-6.5-6.69-11.3-2.57,9.67-5.17,24.42-7.26,36.28Z"/><path d="M291.14,120.32l-6.28,35.58c-.32,1.8,2.45,2.58,2.77.76l6.28-35.58c.31-1.81-2.45-2.59-2.77-.76Z"/><path d="M300.31,132.24a44,44,0,0,0-4,17.22c-.06,1.39,2.1,1.39,2.15,0a41.12,41.12,0,0,1,3.67-16.13c.58-1.25-1.28-2.35-1.86-1.09Z"/><path d="M293,120.12a74.8,74.8,0,0,0,12.82,12.45l-.22-1.74a73.47,73.47,0,0,0-5.36,22.06l1.05-1.39a74.66,74.66,0,0,0-10.07,4.86c-1.57,1-.13,3.45,1.45,2.48a67.79,67.79,0,0,1,9.39-4.56,1.56,1.56,0,0,0,1.05-1.39,69.59,69.59,0,0,1,5-20.61,1.5,1.5,0,0,0-.23-1.75c-4.4-3.54-8.92-7.35-12.37-11.86-1.11-1.45-3.61,0-2.48,1.45Z"/></g></g></g></svg>