<svg xmlns="http://www.w3.org/2000/svg" viewBox="0 0 299.97 206.49"><defs><style>.cls-1{fill:gray;}.cls-2{fill:#fff;}.cls-3{fill:#d6d6d6;}.cls-4{fill:#b3b3b3;}.cls-5{fill:#999;}.cls-6{fill:#161616;}.cls-7,.cls-9{fill:#e10b31;}.cls-7{stroke:#000;stroke-miterlimit:10;stroke-width:1.15px;}.cls-8{fill:#903;}.cls-10{font-size:28.01px;font-family:Inconsolata-Bold, Inconsolata;font-weight:700;}</style></defs><title>robot-head-1</title><g id="Layer_2" data-name="Layer 2"><g id="Long_Page_cz.2" data-name="Long Page cz.2"><g id="HEAD"><path class="cls-1" d="M247.14,193.5a89,89,0,0,1,7.12,12.09c-33.75-9-77.93-18.79-111.94-26.28H142c-1.16-4.19-4-7.84-6.21-11.47Z"/><path class="cls-2" d="M273.69,67.45c1.41,1.83,9.16,23.55,24.52,37.63L290.37,170c-14.26,9.51-33.59,33.16-36,34.66Z"/><path class="cls-3" d="M135.7,165.63c2.93-16.93,7.79-75.38,8.38-92.49l115.2,10-.19,1.27c-.88,18.49-12.72,108-12.72,108L136.32,167Z"/><path d="M137.37,166.09c2.58-15.18,3.72-30.67,5.07-46,1.38-15.62,2.8-31.29,3.37-47l-1.73,1.73,100.78,8.74,14.42,1.25-1.67-2.19c-2.24,14.5-2.92,29.45-4.67,44q-3.21,26.87-6.73,53.68-.78,6-1.57,12.05l2.19-1.66L149.49,168.3l-9.63-2.23a20.88,20.88,0,0,1-2.37-.54c-1.44-.52.53,1.11-.29-.77-.9-2-3.88-.28-3,1.74,1.5,3.42,6.58,3.34,9.89,4.1l25.9,6,61.19,14.13,14.72,3.4a1.77,1.77,0,0,0,2.19-1.67c3.85-29.17,7.63-58.36,10.83-87.62.77-7,.94-14.26,2-21.23a1.77,1.77,0,0,0-1.67-2.19L158.5,72.66l-14.42-1.25a1.75,1.75,0,0,0-1.73,1.73c-.56,15.24-1.93,30.48-3.26,45.67-1.35,15.44-2.46,31.06-5.06,46.36C133.66,167.35,137,168.29,137.37,166.09Z"/><path class="cls-4" d="M255.24,203.76c11.61-58,20-134.28,17.11-135.83-2.61,3.18-8.83,10.15-13.07,15.2l-11.09,109.6s4,6.81,6.21,12Z"/><polygon class="cls-2" points="165.81 61.55 270.69 67.96 259.33 82.81 145.88 72.75 165.81 61.55"/><path d="M257.36,84.4c-2.07,36-6.82,72-12.66,107.58-.36,2.18,3,3.12,3.33.92,5.9-35.85,10.7-72.21,12.79-108.5.12-2.23-3.34-2.22-3.46,0Z"/><path d="M146.48,73.88a215.13,215.13,0,0,0,19.83-10.57c1.91-1.15.17-4.15-1.74-3a215.13,215.13,0,0,1-19.83,10.57c-2,.94-.26,3.93,1.74,3Z"/><path d="M273.55,65.57c-35.87-.2-71.69-3.18-107.47-5.39-2.23-.14-2.22,3.33,0,3.46,35.78,2.21,71.6,5.19,107.47,5.4a1.74,1.74,0,0,0,0-3.47Z"/><path d="M270.85,67.06c-2.85,5.87-8.69,9.87-12.79,14.84-1.41,1.71,1,4.17,2.45,2.45,4.3-5.21,10.34-9.37,13.33-15.55,1-2-2-3.75-3-1.74Z"/><path d="M272.19,68.33c8.15,11.36,13.41,25,22.87,35.46,1.88,2.08,1.19,3.18.84,6.1l-1.45,12-3.83,31.7-1.43,11.87a15.33,15.33,0,0,1-.41,3.33c-.61,1.61,0,.74-1.94,1.91-4,2.48-7.61,6.79-11,10.06s-6.8,6.69-10.14,10.09c-3.86,3.95-7.64,9.11-12.18,12.31-1.8,1.28-.07,4.28,1.75,3,3.77-2.66,6.88-6.68,10.07-10,6.1-6.27,12.25-12.49,18.71-18.4,2.92-2.66,7.57-4.93,8.19-9,.49-3.14.77-6.34,1.15-9.5l4-32.88,1.71-14.15c.25-2.09,1.13-4.92.85-7-.36-2.75-4-6-5.59-8.29C291.08,92.4,288,87.71,285,83c-3.35-5.36-6.18-11.24-9.86-16.38-1.28-1.8-4.29-.07-3,1.75Z"/><g id="lips"><path class="cls-5" d="M165.43,158.42s-8.27-10.94-7.1-13.61c1.34-3.05,6.77-3.09,6.77-3.09S168.52,155,165.43,158.42Z"/><path class="cls-6" d="M165.13,141.79c18.63,3.66,41.8,10,64,12.05,0,0,2.09,2.13,2.06,3.17a48.62,48.62,0,0,1-2.57,14l-1.53.4c-22.11-3.6-42-4.58-59.86-12-4.23-6.68-4.14-12.68-3.89-17.29Z"/><path d="M164.67,143.46c21.21,4.68,42.61,8.5,64,12,2.18.36,3.12-3,.92-3.34-21.43-3.54-42.83-7.36-64-12-2.17-.48-3.1,2.86-.92,3.34Z"/><path d="M229.53,156.73c.3,0-1,8.2-1.09,8.69-.15.65-.71,4.12-.64,4.07-1.4,1.16-7.89-.65-9.46-.86-7.3-.95-14.58-2-21.82-3.38-6.65-1.23-13.28-2.63-19.78-4.49-2.85-.82-6.93-1.45-8.77-3.82-2.69-3.48-3.57-10.27-2.92-14.34.35-2.18-3-3.12-3.34-.92a26,26,0,0,0,2,14.16c.66,1.64,1.23,4,2.64,5.08s3.84,1.45,5.37,1.94c10.36,3.37,21.17,5.38,31.9,7.11,4.88.79,9.78,1.48,14.68,2.12,2.77.36,8.4,2.3,11,.55,2.84-1.93,3.05-8.83,3.38-12.06.32-3,.76-7.08-3.17-7.31-2.22-.13-2.21,3.33,0,3.46Z"/></g><path d="M259.28,81.4,158.5,72.66l-14.42-1.25a1.75,1.75,0,0,0-1.73,1.73c-.56,15.24-1.93,30.48-3.26,45.67-1.35,15.44-2.46,31.06-5.06,46.36-.37,2.18,3,3.12,3.34.92,2.58-15.18,3.72-30.67,5.07-46,1.38-15.62,2.8-31.29,3.37-47l-1.73,1.73,100.78,8.74,14.42,1.25c2.22.19,2.21-3.27,0-3.46Z"/><path d="M271.37,67.59c-.69,22.43-2.81,44.85-5.49,67.11-2.76,23-5.87,46.32-12.31,68.6-.62,2.14,2.72,3,3.34.92,6.39-22.11,9.48-45.26,12.26-68.05s5-45.66,5.66-68.58c.07-2.22-3.39-2.22-3.46,0Z"/><path d="M142,180.07c37.34,8.63,74.89,16.43,111.94,26.28a1.75,1.75,0,0,0,1.95-2.54c-1.94-3.8-5.1-11-9.17-13.06-1.27-.63-3.16-.73-4.53-1.05l-24.28-5.6L152.59,169l-16.17-3.74a1.75,1.75,0,0,0-1.95,2.55c2.26,3.59,4.69,7,6,11.05a1.76,1.76,0,0,0,1.67,1.27h.29c2.22-.08,2.23-3.55,0-3.46h-.29l1.67,1.27c-1.43-4.36-4-8-6.38-11.88l-2,2.54L236.8,192c2.67.62,5.33,1.26,8,1.85.81.18,1.33.64.44-.07,3.3,2.63,5.8,8.12,7.66,11.76l2-2.54c-37.05-9.85-74.6-17.65-111.94-26.28C140.75,176.23,139.83,179.57,142,180.07Z"/><path class="cls-5" d="M244.18,115.64c-5.41-7.85-15.31-4.48-23.72-3.14-5.45.86-12.52-.14-13.9-1.52-4.72-6.86-13.28-3.13-20.71-2.75-6.56.33-14.45-1.2-15.74-2.53-4.49-6.66-13.8-6.6-19.74-2.63s-4.91,13.09-.71,18c6.18,6.29,33.41,3.31,35.48,5.66,15.51,8.61,27.27,1.57,34.5,6.95,8.2,8.19,26.42,4.54,28.38-8A12.77,12.77,0,0,0,244.18,115.64Z"/><path d="M206.29,116.05c-2.17,5.44-7.1,10.39-13.37,7.17a8.59,8.59,0,0,1-4.38-12.72c3.79-4.18,11.39-2.67,15.63.54A5.8,5.8,0,0,1,206.29,116.05Z"/><path d="M240,125.67c-2.07,5.51-7.69,6-13.1,6-6.45-.2-7.5-6-6.67-10.19,1.66-8.32,10.2-10.29,15.6-7.5C237.54,115.57,241.88,121.72,240,125.67Z"/><path d="M173.34,112.84c-4.8,11.1-15.05,9.06-18.75.87-2.05-5.74,3.4-10.09,9.62-10.87,3.28-.42,5.65,1.13,7.79,3.68C173.46,107.94,173.53,110.77,173.34,112.84Z"/><g id="eyes"><path class="cls-7" d="M168.79,111.4c1.91,1.43,3.86,2.79,5.85,4.1,4.13,2.7,1,9.93-3.23,7.18-2.59-1.69-5.13-3.44-7.59-5.28l-3.55,4.28c-3.21,3.86-9.13-1.23-5.91-5.11l3.39-4.09a77.74,77.74,0,0,1-5.75-5.6c-3.37-3.67,1.48-9.8,4.9-6.09a78.14,78.14,0,0,0,5.82,5.7l4.8-5.78c3.21-3.86,9.13,1.23,5.91,5.11Z"/><path class="cls-7" d="M205.76,109.27q-3.07,3.11-5.9,6.49a80.4,80.4,0,0,0,7.47,6.29c4,3-.88,9.06-4.89,6.09A84.6,84.6,0,0,1,195.1,122q-1.4,2-2.68,4.09c-1.11,1.82-3,2.87-5.1,1.9-1.7-.81-3-3.49-1.86-5.29,1.33-2.17,2.73-4.28,4.18-6.34-1.76-2-3.46-4-5.07-6.19-3-4.06,3.21-8.64,6.24-4.59q1.75,2.34,3.65,4.53c1.71-2,3.49-4,5.39-5.94C203.35,100.64,209.29,105.72,205.76,109.27Z"/><path class="cls-7" d="M238.61,136.06a89.28,89.28,0,0,1-10.52-7.16,81.51,81.51,0,0,1-5.67,6.38c-3.66,3.69-9.87-1.61-6.18-5.33a80.36,80.36,0,0,0,5.7-6.43,83.06,83.06,0,0,1-7.54-8.29c-3.29-4.15,3.24-8.92,6.51-4.8a71.79,71.79,0,0,0,5.81,6.46,78.39,78.39,0,0,0,5.35-9.8c2.2-4.81,9.49-1.29,7.28,3.54a87,87,0,0,1-6.49,11.71,76.37,76.37,0,0,0,9.13,6.21C246.48,131.15,243.14,138.68,238.61,136.06Z"/></g><path class="cls-8" d="M232.94,2.65c8.22,19,13,38.69,16.54,59,.38,2.19,3.71,1.26,3.34-.92-3.56-20.65-8.54-40.58-16.9-59.83-.88-2-3.86-.28-3,1.74Z"/><path class="cls-9" d="M228.44,2.08,182,26l57.5,13.75S239,26,228.44,2.08Z"/><path d="M238.19,136.79a89.41,89.41,0,0,1-10.45-7.43h0l.81-.09q-2.34,2.93-4.94,5.64l-.66.67c-.21.22-.52.45-.78.67a5.9,5.9,0,0,1-.92.52,7.14,7.14,0,0,1-1,.29,5.17,5.17,0,0,1-3.92-1.15,4.53,4.53,0,0,1-1.74-3.73,5.28,5.28,0,0,1,.25-1.06,4.52,4.52,0,0,1,.52-.94,14.63,14.63,0,0,1,1.3-1.44c1.71-1.78,3.33-3.64,4.87-5.56h0l0,.78c-2-1.89-3.85-3.88-5.63-6l-1.32-1.57-.64-.8c-.21-.32-.44-.63-.62-1a4.17,4.17,0,0,1,.54-4.45,5,5,0,0,1,4-1.94,4.58,4.58,0,0,1,1.16.17,4.52,4.52,0,0,1,1.07.49l.48.33a4.07,4.07,0,0,1,.42.41l.39.41.32.39a71.3,71.3,0,0,0,5.43,6h0l-1,.11a77.55,77.55,0,0,0,4.35-8.14l.48-1a9.21,9.21,0,0,1,.54-1.11,4.46,4.46,0,0,1,2-2,4.56,4.56,0,0,1,2.83-.34,5.25,5.25,0,0,1,2.54,1.17,4.88,4.88,0,0,1,1.62,5.29l-.23.68-.24.54-.48,1.08-1,2.13a90,90,0,0,1-4.61,8.25h0l-.3-1.84q2.25,1.86,4.63,3.55c.8.56,1.61,1.1,2.42,1.63l1.24.79c.21.14.4.24.63.4l.74.56a5.18,5.18,0,0,1,1.7,3.23,5.87,5.87,0,0,1-.63,3.48,4.78,4.78,0,0,1-2.69,2.39A4.41,4.41,0,0,1,238.19,136.79Zm.85-1.47a2.59,2.59,0,0,0,2.13.24A2.91,2.91,0,0,0,242.7,134a3.89,3.89,0,0,0,.31-2.29,3,3,0,0,0-1.07-1.85l-.47-.31c-.17-.12-.42-.25-.63-.37l-1.31-.75c-.86-.51-1.72-1-2.57-1.57-1.69-1.09-3.35-2.24-5-3.45l-1-.78.73-1.07h0a87.92,87.92,0,0,0,4.79-7.82l1.07-2,.51-1,.25-.51.15-.42a3.18,3.18,0,0,0,.19-.84,3.23,3.23,0,0,0-.1-.82,2.8,2.8,0,0,0-.91-1.44,3.28,3.28,0,0,0-1.6-.82,2.68,2.68,0,0,0-3,1.29,6.93,6.93,0,0,0-.52,1l-.53,1a79.13,79.13,0,0,1-4.76,8.1l-.44.65-.54-.54h0a73.71,73.71,0,0,1-5.5-6.09l-.32-.4-.31-.32c-.11-.1-.2-.23-.31-.31l-.36-.24a3,3,0,0,0-.77-.37,3.69,3.69,0,0,0-3.89,1.35,2.92,2.92,0,0,0-.4,3.18c.14.26.31.5.47.75l.63.79,1.29,1.55c1.75,2,3.61,4,5.54,5.89l.38.37-.33.4h0c-1.56,2-3.2,3.84-4.94,5.64a15,15,0,0,0-1.19,1.31,3.85,3.85,0,0,0-.39.68,4.67,4.67,0,0,0-.17.74A3.4,3.4,0,0,0,217,135a4,4,0,0,0,3,.9,5.44,5.44,0,0,0,.76-.22,4.7,4.7,0,0,0,.69-.39c.21-.19.41-.32.63-.54l.65-.66c1.7-1.78,3.33-3.64,4.87-5.56l.36-.44.45.35h0A86.36,86.36,0,0,0,239,135.32Z"/><path d="M206.44,109.94a44.18,44.18,0,0,0-5.36,6.83h0l-.13-2.16a76.26,76.26,0,0,0,5.69,5.24l1.51,1.24a5,5,0,0,1,1.54,2.07,4.34,4.34,0,0,1,.18,2.61,5.42,5.42,0,0,1-3,3.66,5.11,5.11,0,0,1-1.16.39,5.17,5.17,0,0,1-1.24,0l-.62-.09a5.62,5.62,0,0,1-.58-.19,4.29,4.29,0,0,1-1.06-.56c-.63-.43-1.07-.83-1.6-1.26-2.05-1.69-4-3.47-5.87-5.34h0l.87-.09-1.68,2.56-.84,1.28a7.78,7.78,0,0,1-1,1.33,4.39,4.39,0,0,1-3.14,1.43,4.24,4.24,0,0,1-1.73-.38,4.07,4.07,0,0,1-1.42-1.06,5.11,5.11,0,0,1-1.29-3.17,3.62,3.62,0,0,1,.42-1.78c.29-.49.57-.88.86-1.32l3.42-5.18h0l0,.72-4.19-5c-.35-.42-.7-.81-1.05-1.27-.16-.27-.33-.53-.48-.8s-.23-.6-.32-.91a4.3,4.3,0,0,1,.91-3.63,5.12,5.12,0,0,1,3.22-1.85,4.36,4.36,0,0,1,3.6,1.22c.21.23.46.48.63.69l.51.62,1,1.24,2.05,2.48h-1.32c1.18-1.22,2.31-2.47,3.47-3.71L199,104a7,7,0,0,1,1-.95,4.68,4.68,0,0,1,.66-.37,2.43,2.43,0,0,1,.71-.27,5.17,5.17,0,0,1,5.37,1.82,4.22,4.22,0,0,1,1,2.92A4.68,4.68,0,0,1,206.44,109.94Zm-1.35-1.34a2.83,2.83,0,0,0,.83-1.6,2.5,2.5,0,0,0-.55-1.75,3.42,3.42,0,0,0-3.57-1.34,1.35,1.35,0,0,0-.46.17,3.62,3.62,0,0,0-.43.24,6,6,0,0,0-.81.75l-1.68,1.85c-1.1,1.25-2.22,2.48-3.3,3.74l-.68.81-.64-.8h0l-2-2.58-1-1.29-.5-.64c-.17-.21-.31-.34-.46-.52a2.79,2.79,0,0,0-2.3-.85,3.57,3.57,0,0,0-2.29,1.26,2.89,2.89,0,0,0-.69,2.42l.21.63.34.59c.29.42.66.84,1,1.26l4,5,.28.36-.25.36h0l-3.39,5.12c-.27.42-.59.87-.82,1.27a2.37,2.37,0,0,0-.27,1.19,3.86,3.86,0,0,0,1,2.43,3,3,0,0,0,1,.78,3.12,3.12,0,0,0,1.26.28,3.35,3.35,0,0,0,2.32-1.08,7.75,7.75,0,0,0,.85-1.13l.85-1.3,1.7-2.6.35-.54.52.45h0c2,1.72,4,3.35,6.09,4.87.51.36,1.08.81,1.56,1.08a2.42,2.42,0,0,0,.7.31c.12,0,.23.08.35.1l.36,0a3.1,3.1,0,0,0,2.51-1.33,2.53,2.53,0,0,0,.39-2.56,2.5,2.5,0,0,0-.85-1L205,121.94c-2.15-1.57-4.23-3.26-6.22-5l-1.26-1.12,1.13-1C200.85,112.72,203,110.64,205.09,108.6Z"/><path d="M169.84,111.28a54.76,54.76,0,0,1,5.31,3.43,5.07,5.07,0,0,1,2.21,3.56,5.73,5.73,0,0,1-.91,4,4.35,4.35,0,0,1-1.63,1.43,4.07,4.07,0,0,1-1.09.34,4.23,4.23,0,0,1-1.13-.06,3.54,3.54,0,0,1-1-.36,7.06,7.06,0,0,1-.85-.51l-1.45-1-5.81-4.19.79-.09c-1.24,1.48-2.42,3-3.71,4.44a4,4,0,0,1-2.92,1.41,4.54,4.54,0,0,1-3-1.1,4.77,4.77,0,0,1-1.66-2.75,4.15,4.15,0,0,1,.69-3.16c.31-.48.62-.79.92-1.18l.92-1.11,1.84-2.21.06.8c-1.81-1.53-3.57-3.14-5.24-4.84l-.63-.64c-.21-.24-.42-.53-.63-.8a9,9,0,0,1-.48-.93c-.1-.33-.2-.67-.27-1a5.61,5.61,0,0,1,1-4,4.36,4.36,0,0,1,3.77-2c1.66,0,2.83,1.45,3.51,2.15,1.64,1.66,3.35,3.23,5.13,4.74h0l-1.65.13,4.31-5.16.56-.66c.25-.25.5-.5.76-.73a7.71,7.71,0,0,1,.95-.57,4.72,4.72,0,0,1,5.1.83,5.19,5.19,0,0,1,1.9,3.68,3.69,3.69,0,0,1-.07,1.1,4.2,4.2,0,0,1-.33,1,4.37,4.37,0,0,1-.54.91,5.32,5.32,0,0,1-.52.68C172.68,108.39,171.32,109.78,169.84,111.28Zm-2.09.25c1.39-2,2.89-4,4.48-6a6.83,6.83,0,0,0,.5-.65,2.61,2.61,0,0,0,.31-.53,2,2,0,0,0,.17-.56,1.41,1.41,0,0,0,0-.58,3,3,0,0,0-1.13-2.1,2.84,2.84,0,0,0-2.23-.66,3.24,3.24,0,0,0-.53.16c-.17.09-.32.21-.49.3l-.44.44c-.17.18-.35.42-.53.63l-4.28,5.19-.77.94-.88-.81h0q-2.64-2.43-5.06-5.08l-.6-.67c-.21-.24-.35-.32-.52-.5s-.36-.22-.53-.35a2.64,2.64,0,0,0-.55-.15,2.59,2.59,0,0,0-2.22,1.15,3.93,3.93,0,0,0-.79,2.72c0,.24.1.47.15.7s.19.44.31.65l.44.61.59.65c1.56,1.73,3.23,3.38,5,5l.41.38-.35.42-1.84,2.22-.92,1.11a10.85,10.85,0,0,0-.85,1.09,3,3,0,0,0-.52,2.29,3.65,3.65,0,0,0,1.27,2.08,3.39,3.39,0,0,0,2.26.84,2.84,2.84,0,0,0,2.1-1c1.22-1.41,2.45-2.94,3.68-4.4l.33-.4.46.31,5.89,4,1.47,1a4.06,4.06,0,0,0,.69.38,2.05,2.05,0,0,0,.66.22,2.2,2.2,0,0,0,2.22-1.14,4.13,4.13,0,0,0,.54-2.81,3.23,3.23,0,0,0-1.52-2.27C172,114.83,169.75,113.16,167.75,111.53Z"/></g><path class="cls-2" d="M91,177.75c3.37-1.81,5.66-8.31,6.79-11.87,4.79-15.07,38.91-21,32.62-22.55-46-11.61-26.72-48-35.45-55.48-14.41-12.32-79.38-4.51-84-3.45-8.69,2-8.14,49.75-8.91,62.93-.45,7.68,2.33,16.82,7.84,22.18s54.88,11.34,61.75,10.55C77.42,179.4,85.4,180.74,91,177.75Z"/><path class="cls-3" d="M98.78,115.39c1.52,5.94,1.68,15,1.66,17.29,0,5.52,21.24,12.12,28.3,11.31C117,140.22,102.4,131.62,98.78,115.39Z"/><path class="cls-3" d="M97,162.64c6.67-6.4,19.77-14.11,27-16.34C105.88,148.73,96.74,153.8,97,162.64Z"/><path class="cls-3" d="M4.27,142.14c1.52,5.94,1.68,15,1.66,17.29,0,5.51,21.25,12.11,28.3,11.31C22.44,167,7.9,158.37,4.27,142.14Z"/><path d="M71.88,178.11c-12-1.78-24.13-2.61-36.14-4.32a142.69,142.69,0,0,1-19.36-3.66c-7.33-2.1-10.56-9-11.82-16.23-1.13-6.48-.21-13.65-.09-20.22.14-7.75.35-15.51,1-23.23.57-6.64,1-14.27,4-20.36,1.79-3.66,3.73-3.81,7.49-4.45a245.51,245.51,0,0,1,37.43-2.93,174.13,174.13,0,0,1,20.81.78c5.17.55,11.28,1.2,15.83,4,8,4.87,5.53,18,6.19,25.85,1.06,12.58,7.7,21.91,19.17,27.32a62.45,62.45,0,0,0,7,2.78c1.58.54,6.52,3.2,6.16.63-.27-2-.3-.68-1.7-.39a26.52,26.52,0,0,0-3.7,1.45c-6.42,2.46-12.87,5-18.66,8.77a29.62,29.62,0,0,0-8.09,7.28c-2.28,3.18-3,7-4.78,10.47C90,176.7,86.27,177.33,81,177.82a52,52,0,0,1-9.08.29c-2.54-.23-3.32,3.66-.53,3.91,5.71.51,13.73.27,19-2.2,7.46-3.52,7.1-13.6,12.47-19s13-8.4,19.94-11.12c2.31-.91,9.51-2.33,10.38-5.31.51-1.76-.61-2.29-1.94-3-2.22-1.09-5.23-1.44-7.59-2.29a49.86,49.86,0,0,1-8.42-3.9c-6.4-3.8-11-9.37-12.77-16.67-2.34-9.84,1.31-22.46-5-31.09-6.44-8.78-23.14-8.35-32.7-8.63a272,272,0,0,0-43.54,2.28c-3.41.45-7.75.6-10.87,2.23-4.49,2.34-6,8.51-7,13C-.32,112.1.59,128.62.05,144.61c-.31,9,.81,20.27,8.41,26.48,4.28,3.51,11.48,4.12,16.69,5,15.32,2.7,30.84,3.61,46.2,5.89A2,2,0,1,0,71.88,178.11Z"/><text class="cls-10" transform="matrix(0.97, 0.02, -0.04, 1, 15.63, 126.07)">@!$wt<tspan x="14" y="28.01">***</tspan></text></g></g></svg>