<svg xmlns="http://www.w3.org/2000/svg" viewBox="0 0 92.91 83.26"><defs><style>.cls-1{fill:#e10b31;}.cls-2{fill:#fff;}</style></defs><title>robot-hand</title><g id="Layer_2" data-name="Layer 2"><g id="Long_Page_cz.2" data-name="Long Page cz.2"><g id="hand_1" data-name="hand 1"><path class="cls-1" d="M50.58,2.06a37.45,37.45,0,0,0-17.37.51A27.91,27.91,0,0,0,15.89,18.4c-4.65,11.15-6.81,22.42.74,35.2,3.1,5.25,8.39,8.8,13.7,11.81,10,5.7,25,8,37.27-3.85,7.14-6.92,12.46-18,11.91-27.95s-1.84-16.46-9.06-21.7C64.35,7.48,58.49,4.08,50.58,2.06Z"/><path class="cls-1" d="M15.85,15.62C11.51,12.83,5.28,9.29,3,9.49A46.39,46.39,0,0,1,1.5,22.89c3.88,1.56,7,2.85,10.85,4.42A49.5,49.5,0,0,1,15.85,15.62Z"/><path class="cls-1" d="M36.53,67.05l-7.61,14.7-1.29-.5a20.76,20.76,0,0,1-9.27-6.1s6.44-8.52,8.18-13.87Z"/><path class="cls-1" d="M77.74,46.48c4.39,4,13.69,12.73,13.69,12.73L87.26,69.83A125.63,125.63,0,0,0,71.64,57.57C74.45,55,75.52,52.14,77.74,46.48Z"/><path class="cls-1" d="M12,42.36C8.93,44.25,2,46.65,2,46.65c1.91,2.75,2.23,4.78,3.06,8l.11.06a32.13,32.13,0,0,0,9.44-3.34A28.36,28.36,0,0,1,12,42.36Z"/><path class="cls-1" d="M60.45,67.57c.63,2.92,2.84,9.13,2.84,9.13-2.4.85-7.64,3.2-7.64,3.2-1.26-3.49-2.28-6.26-3.54-9.75Z"/><path class="cls-2" d="M54.35,16.41a48.06,48.06,0,0,1-.65,19.11L65,39.66c1.75-6.94,3.82-16.91-.79-21.45A45.88,45.88,0,0,0,54.35,16.41Z"/><path d="M17.34,14.22C12.87,12.66,8.4,11.08,4,9.36a1.52,1.52,0,0,0-1.85,1A63,63,0,0,0,0,22.89a1.54,1.54,0,0,0,1.1,1.44c3.62,1.47,7.23,3,10.85,4.42,1.79.73,2.57-2.17.8-2.89-3.62-1.46-7.23-3-10.85-4.42L3,22.89A59.51,59.51,0,0,1,5,11.2L3.2,12.25c4.41,1.73,8.88,3.3,13.34,4.87,1.83.64,2.62-2.26.8-2.9Z"/><path d="M34.1,67.59c-1.86,4.61-4.19,9-6.48,13.4l1.7-.69c-3.86-1.49-7-3.12-9.89-6.21l.23,1.81a72.3,72.3,0,0,1,7.18-12.17c1.11-1.59-1.49-3.09-2.59-1.51a71.9,71.9,0,0,0-7.18,12.17,1.59,1.59,0,0,0,.23,1.82c3.22,3.5,6.87,5.3,11.22,7a1.49,1.49,0,0,0,1.69-.69C32.62,77.86,35,73.24,37,68.39c.72-1.79-2.18-2.57-2.89-.8Z"/><path d="M75.84,47.46C80.62,51.8,85.5,56,90.37,60.27l-.23-1.81a54.79,54.79,0,0,1-4.91,9.23l2.06-.54c-5-3.57-10-7.15-14.9-10.88-1.53-1.17-3,1.44-1.51,2.59,4.89,3.73,9.89,7.31,14.89,10.88a1.52,1.52,0,0,0,2-.54A54.41,54.41,0,0,0,92.73,60a1.56,1.56,0,0,0-.24-1.82C87.62,53.92,82.74,49.68,78,45.34c-1.43-1.3-3.56.82-2.12,2.12Z"/><path d="M11.49,40.12C7.94,41.71,4.84,44,1.55,46a1.52,1.52,0,0,0-.69,1.7l2.88,7.43a1.54,1.54,0,0,0,1.85,1A88.22,88.22,0,0,0,15,52.84c1.76-.72,1-3.63-.8-2.89a85.3,85.3,0,0,1-9.44,3.34l1.85,1.05L3.76,46.91,3.07,48.6c3.28-2.05,6.39-4.3,9.93-5.89,1.76-.79.24-3.37-1.51-2.59Z"/><path d="M60,68.34l1.87,8.76a1.52,1.52,0,0,0,1.44,1.1h0l-.4-3c-2.71,1-5.36,2.18-8,3.36l2.2.89L53.31,69c-.65-1.8-3.55-1-2.89.8L54.21,80.3a1.53,1.53,0,0,0,2.2.9c2.4-1.08,4.81-2.15,7.28-3a1.51,1.51,0,0,0-.4-3h0l1.45,1.1-1.87-8.76c-.4-1.88-3.29-1.08-2.89.8Z"/><path d="M74.52,19.2c8,15.15,1,35.94-13.1,44.89-12.81,8.15-29.65,3.23-39.86-7C10,45.54,11.23,22.74,22.91,11.52,35.84-.89,56.27,2.89,69.27,13.11c1.84,1.45,4.24-.92,2.36-2.4C60.77,2.17,45-3.08,31.51,2,17.58,7.21,10.31,20.82,9.91,35.31c-.81,29.38,38.22,48.57,59.56,27,11.33-11.45,15.74-30.1,8-44.76a1.7,1.7,0,1,0-3,1.62Z"/></g></g></g></svg>