<?xml version="1.0" encoding="utf-8"?>
<!-- Generator: Adobe Illustrator 22.0.1, SVG Export Plug-In . SVG Version: 6.00 Build 0)  -->
<svg version="1.1" id="Warstwa_1" xmlns="http://www.w3.org/2000/svg" xmlns:xlink="http://www.w3.org/1999/xlink" x="0px" y="0px"
	 viewBox="0 0 300 206.5" style="enable-background:new 0 0 300 206.5;" xml:space="preserve">
<style type="text/css">
	.st0{fill:#808080;}
	.st1{fill:#FFFFFF;}
	.st2{fill:#D6D6D6;}
	.st3{fill:#B3B3B3;}
	.st4{fill:#999999;}
	.st5{fill:#161616;}
	.st6{fill:#E10B31;stroke:#000000;stroke-width:1.1536;stroke-miterlimit:10;}
	.st7{fill:#990033;}
	.st8{fill:#E10B31;}
</style>
<g id="HEAD_2_">
	<g>
		<path class="st0" d="M247.1,193.5c0,0,4.9,7,7.1,12.1c-33.7-9-77.9-18.8-111.9-26.3l-0.3,0c-1.2-4.2-4-7.8-6.2-11.5L247.1,193.5z"
			/>
	</g>
	<g>
		<path class="st1" d="M273.7,67.5c1.4,1.8,9.2,23.5,24.5,37.6l-7.8,64.9c-14.3,9.5-33.6,33.2-36,34.7L273.7,67.5z"/>
	</g>
	<g>
		<path class="st2" d="M135.7,165.6c2.9-16.9,7.8-75.4,8.4-92.5l115.2,10l-0.2,1.3c-0.9,18.5-12.7,108-12.7,108l-110-25.4
			L135.7,165.6z"/>
		<g>
			<path d="M137.4,166.1c2.6-15.2,3.7-30.7,5.1-46c1.4-15.6,2.8-31.3,3.4-47c-0.6,0.6-1.2,1.2-1.7,1.7c33.6,2.9,67.2,5.8,100.8,8.7
				c4.8,0.4,9.6,0.8,14.4,1.3c-0.6-0.7-1.1-1.5-1.7-2.2c-2.2,14.5-2.9,29.4-4.7,44c-2.1,17.9-4.4,35.8-6.7,53.7c-0.5,4-1,8-1.6,12.1
				c0.7-0.6,1.5-1.1,2.2-1.7c-32.4-7.5-64.9-15-97.3-22.5c-3.2-0.7-6.4-1.5-9.6-2.2c-0.8-0.2-1.6-0.3-2.4-0.5
				c-1.4-0.5,0.5,1.1-0.3-0.8c-0.9-2-3.9-0.3-3,1.7c1.5,3.4,6.6,3.3,9.9,4.1c8.6,2,17.3,4,25.9,6c20.4,4.7,40.8,9.4,61.2,14.1
				c4.9,1.1,9.8,2.3,14.7,3.4c1.2,0.3,2-0.5,2.2-1.7c3.9-29.2,7.6-58.4,10.8-87.6c0.8-7,0.9-14.3,2-21.2c0.2-1.2-0.5-2.1-1.7-2.2
				c-33.6-2.9-67.2-5.8-100.8-8.7c-4.8-0.4-9.6-0.8-14.4-1.3c-1-0.1-1.7,0.9-1.7,1.7c-0.6,15.2-1.9,30.5-3.3,45.7
				c-1.3,15.4-2.5,31.1-5.1,46.4C133.7,167.3,137,168.3,137.4,166.1z"/>
		</g>
	</g>
	<g>
		<path class="st3" d="M255.2,203.8c11.6-58,20-134.3,17.1-135.8c-2.6,3.2-8.8,10.2-13.1,15.2l-11.1,109.6c0,0,4,6.8,6.2,12
			L255.2,203.8z"/>
	</g>
	<polygon class="st1" points="165.8,61.5 270.7,68 259.3,82.8 145.9,72.8 	"/>
	<g>
		<g>
			<path d="M257.4,84.4c-2.1,36-6.8,72-12.7,107.6c-0.4,2.2,3,3.1,3.3,0.9c5.9-35.9,10.7-72.2,12.8-108.5
				C260.9,82.2,257.5,82.2,257.4,84.4L257.4,84.4z"/>
		</g>
	</g>
	<g>
		<g>
			<path d="M146.5,73.9c6.8-3.2,13.4-6.7,19.8-10.6c1.9-1.2,0.2-4.1-1.7-3c-6.4,3.9-13,7.4-19.8,10.6
				C142.7,71.8,144.5,74.8,146.5,73.9L146.5,73.9z"/>
		</g>
	</g>
	<g>
		<g>
			<path d="M273.5,65.6c-35.9-0.2-71.7-3.2-107.5-5.4c-2.2-0.1-2.2,3.3,0,3.5c35.8,2.2,71.6,5.2,107.5,5.4
				C275.8,69,275.8,65.6,273.5,65.6L273.5,65.6z"/>
		</g>
	</g>
	<g>
		<g>
			<path d="M270.9,67.1c-2.9,5.9-8.7,9.9-12.8,14.8c-1.4,1.7,1,4.2,2.4,2.4c4.3-5.2,10.3-9.4,13.3-15.5
				C274.8,66.8,271.8,65,270.9,67.1L270.9,67.1z"/>
		</g>
	</g>
	<g>
		<g>
			<path d="M272.2,68.3c8.1,11.4,13.4,25,22.9,35.5c1.9,2.1,1.2,3.2,0.8,6.1c-0.5,4-1,8-1.5,12c-1.3,10.6-2.6,21.1-3.8,31.7
				c-0.5,4-1,7.9-1.4,11.9c-0.1,1,0,2.4-0.4,3.3c-0.6,1.6,0,0.7-1.9,1.9c-4,2.5-7.6,6.8-11,10.1c-3.4,3.3-6.8,6.7-10.1,10.1
				c-3.9,3.9-7.6,9.1-12.2,12.3c-1.8,1.3-0.1,4.3,1.7,3c3.8-2.7,6.9-6.7,10.1-10c6.1-6.3,12.3-12.5,18.7-18.4c2.9-2.7,7.6-4.9,8.2-9
				c0.5-3.1,0.8-6.3,1.1-9.5c1.3-11,2.6-21.9,4-32.9c0.6-4.7,1.1-9.4,1.7-14.2c0.3-2.1,1.1-4.9,0.8-7c-0.4-2.7-4-6-5.6-8.3
				c-3.2-4.6-6.3-9.2-9.3-14c-3.3-5.4-6.2-11.2-9.9-16.4C273.9,64.8,270.9,66.5,272.2,68.3L272.2,68.3z"/>
		</g>
	</g>
	<g id="lips_2_">
		<path class="st4" d="M165.4,158.4c0,0-8.3-10.9-7.1-13.6c1.3-3,6.8-3.1,6.8-3.1S168.5,155,165.4,158.4z"/>
		<g>
			<path class="st5" d="M165.1,141.8c18.6,3.7,41.8,10,64,12.1c0,0,2.1,2.1,2.1,3.2c-0.2,4.8-1,9.5-2.6,14l-1.5,0.4
				c-22.1-3.6-42-4.6-59.9-12c-4.2-6.7-4.1-12.7-3.9-17.3L165.1,141.8z"/>
		</g>
		<g>
			<g>
				<path d="M164.7,143.5c21.2,4.7,42.6,8.5,64,12.1c2.2,0.4,3.1-3,0.9-3.3c-21.4-3.5-42.8-7.4-64-12.1
					C163.4,139.6,162.5,143,164.7,143.5L164.7,143.5z"/>
			</g>
		</g>
		<g>
			<g>
				<path d="M229.5,156.7c0.3,0-1,8.2-1.1,8.7c-0.1,0.7-0.7,4.1-0.6,4.1c-1.4,1.2-7.9-0.7-9.5-0.9c-7.3-1-14.6-2-21.8-3.4
					c-6.6-1.2-13.3-2.6-19.8-4.5c-2.9-0.8-6.9-1.4-8.8-3.8c-2.7-3.5-3.6-10.3-2.9-14.3c0.3-2.2-3-3.1-3.3-0.9c-0.8,5,0.2,9.5,2,14.2
					c0.7,1.6,1.2,4,2.6,5.1c1.3,1,3.8,1.4,5.4,1.9c10.4,3.4,21.2,5.4,31.9,7.1c4.9,0.8,9.8,1.5,14.7,2.1c2.8,0.4,8.4,2.3,11,0.5
					c2.8-1.9,3-8.8,3.4-12.1c0.3-3,0.8-7.1-3.2-7.3C227.3,153.1,227.3,156.6,229.5,156.7L229.5,156.7z"/>
			</g>
		</g>
	</g>
	<g>
		<g>
			<path d="M259.3,81.4c-33.6-2.9-67.2-5.8-100.8-8.7c-4.8-0.4-9.6-0.8-14.4-1.3c-1-0.1-1.7,0.9-1.7,1.7
				c-0.6,15.2-1.9,30.5-3.3,45.7c-1.3,15.4-2.5,31.1-5.1,46.4c-0.4,2.2,3,3.1,3.3,0.9c2.6-15.2,3.7-30.7,5.1-46
				c1.4-15.6,2.8-31.3,3.4-47c-0.6,0.6-1.2,1.2-1.7,1.7c33.6,2.9,67.2,5.8,100.8,8.7c4.8,0.4,9.6,0.8,14.4,1.3
				C261.5,85.1,261.5,81.6,259.3,81.4L259.3,81.4z"/>
		</g>
	</g>
	<g>
		<g>
			<path d="M271.4,67.6c-0.7,22.4-2.8,44.8-5.5,67.1c-2.8,23-5.9,46.3-12.3,68.6c-0.6,2.1,2.7,3.1,3.3,0.9
				c6.4-22.1,9.5-45.3,12.3-68c2.8-22.7,5-45.7,5.7-68.6C274.9,65.4,271.4,65.4,271.4,67.6L271.4,67.6z"/>
		</g>
	</g>
	<g>
		<g>
			<path d="M142,180.1c37.3,8.6,74.9,16.4,111.9,26.3c1.5,0.4,2.6-1.2,2-2.5c-1.9-3.8-5.1-11-9.2-13.1c-1.3-0.6-3.2-0.7-4.5-1
				c-8.1-1.9-16.2-3.7-24.3-5.6c-21.8-5-43.5-10.1-65.3-15.1c-5.4-1.2-10.8-2.5-16.2-3.7c-1.4-0.3-2.8,1.2-2,2.5
				c2.3,3.6,4.7,7,6,11.1c0.2,0.7,0.9,1.3,1.7,1.3c0.1,0,0.2,0,0.3,0c2.2-0.1,2.2-3.5,0-3.5c-0.1,0-0.2,0-0.3,0
				c0.6,0.4,1.1,0.8,1.7,1.3c-1.4-4.4-4-8-6.4-11.9c-0.7,0.8-1.3,1.7-2,2.5c33.8,7.8,67.5,15.6,101.3,23.4c2.7,0.6,5.3,1.3,8,1.8
				c0.8,0.2,1.3,0.6,0.4-0.1c3.3,2.6,5.8,8.1,7.7,11.8c0.7-0.8,1.3-1.7,2-2.5c-37-9.8-74.6-17.7-111.9-26.3
				C140.8,176.2,139.8,179.6,142,180.1z"/>
		</g>
	</g>
	<path class="st4" d="M244.2,115.6c-5.4-7.9-15.3-4.5-23.7-3.1c-5.4,0.9-12.5-0.1-13.9-1.5c-4.7-6.9-13.3-3.1-20.7-2.7
		c-6.6,0.3-14.4-1.2-15.7-2.5c-4.5-6.7-13.8-6.6-19.7-2.6c-5.9,4-4.9,13.1-0.7,18c6.2,6.3,33.4,3.3,35.5,5.7
		c15.5,8.6,27.3,1.6,34.5,7c8.2,8.2,26.4,4.5,28.4-8C248.3,121.8,246.8,118.3,244.2,115.6z"/>
	<g>
		<path d="M206.3,116c-2.2,5.4-7.1,10.4-13.4,7.2c-5.5-2.1-7.2-8.3-4.4-12.7c3.8-4.2,11.4-2.7,15.6,0.5
			C205.7,112.3,206.5,114.1,206.3,116z"/>
	</g>
	<g>
		<path d="M240,125.7c-2.1,5.5-7.7,6-13.1,6.1c-6.5-0.2-7.5-6-6.7-10.2c1.7-8.3,10.2-10.3,15.6-7.5
			C237.5,115.6,241.9,121.7,240,125.7z"/>
	</g>
	<g>
		<path d="M173.3,112.8c-4.8,11.1-15,9.1-18.7,0.9c-2.1-5.7,3.4-10.1,9.6-10.9c3.3-0.4,5.6,1.1,7.8,3.7
			C173.5,107.9,173.5,110.8,173.3,112.8z"/>
	</g>
	<g id="eyes_1_">
		<path class="st6" d="M168.8,111.4c1.9,1.4,3.9,2.8,5.8,4.1c4.1,2.7,1,9.9-3.2,7.2c-2.6-1.7-5.1-3.4-7.6-5.3
			c-1.2,1.4-2.4,2.9-3.5,4.3c-3.2,3.9-9.1-1.2-5.9-5.1c1.1-1.4,2.3-2.7,3.4-4.1c-2-1.8-3.9-3.6-5.8-5.6c-3.4-3.7,1.5-9.8,4.9-6.1
			c1.9,2,3.8,3.9,5.8,5.7c1.6-1.9,3.2-3.8,4.8-5.8c3.2-3.9,9.1,1.2,5.9,5.1C171.9,107.7,170.3,109.5,168.8,111.4z"/>
		<path class="st6" d="M205.8,109.3c-2.1,2.1-4,4.2-5.9,6.5c2.4,2.2,4.8,4.3,7.5,6.3c4,3-0.9,9.1-4.9,6.1c-2.6-1.9-5-4-7.3-6.1
			c-0.9,1.3-1.8,2.7-2.7,4.1c-1.1,1.8-3,2.9-5.1,1.9c-1.7-0.8-3-3.5-1.9-5.3c1.3-2.2,2.7-4.3,4.2-6.3c-1.8-2-3.5-4-5.1-6.2
			c-3-4.1,3.2-8.6,6.2-4.6c1.2,1.6,2.4,3.1,3.6,4.5c1.7-2,3.5-4,5.4-5.9C203.3,100.6,209.3,105.7,205.8,109.3z"/>
		<path class="st6" d="M238.6,136.1c-3.7-2.2-7.2-4.5-10.5-7.2c-1.8,2.2-3.7,4.4-5.7,6.4c-3.7,3.7-9.9-1.6-6.2-5.3
			c2-2,3.9-4.2,5.7-6.4c-2.7-2.6-5.2-5.3-7.5-8.3c-3.3-4.2,3.2-8.9,6.5-4.8c1.8,2.3,3.8,4.4,5.8,6.5c2-3.1,3.8-6.4,5.4-9.8
			c2.2-4.8,9.5-1.3,7.3,3.5c-1.9,4.1-4,8-6.5,11.7c2.9,2.3,5.9,4.3,9.1,6.2C246.5,131.2,243.1,138.7,238.6,136.1z"/>
	</g>
	<g>
		<g>
			<g>
				<path class="st7" d="M232.9,2.7c8.2,19,13,38.7,16.5,59c0.4,2.2,3.7,1.3,3.3-0.9c-3.6-20.6-8.5-40.6-16.9-59.8
					C235-1.1,232.1,0.6,232.9,2.7L232.9,2.7z"/>
			</g>
		</g>
		<path class="st8" d="M228.4,2.1L182,25.9l57.5,13.8C239.5,39.7,239,26,228.4,2.1z"/>
	</g>
	<g>
		<path d="M238.2,136.8c-3.7-2.2-7.2-4.7-10.5-7.4l0,0l0.8-0.1c-1.6,1.9-3.2,3.8-4.9,5.6l-0.7,0.7c-0.2,0.2-0.5,0.4-0.8,0.7
			c-0.3,0.2-0.6,0.3-0.9,0.5c-0.3,0.1-0.7,0.2-1,0.3c-1.4,0.2-2.8-0.3-3.9-1.2c-1.1-0.9-1.8-2.2-1.7-3.7c0-0.4,0.1-0.7,0.2-1.1
			c0.2-0.3,0.3-0.7,0.5-0.9c0.4-0.6,0.9-1,1.3-1.4c1.7-1.8,3.3-3.6,4.9-5.6l0,0l0,0.8c-2-1.9-3.9-3.9-5.6-6l-1.3-1.6l-0.6-0.8
			c-0.2-0.3-0.4-0.6-0.6-1c-0.7-1.4-0.5-3.3,0.5-4.5c1-1.2,2.4-2,4-1.9c0.4,0,0.8,0.1,1.2,0.2c0.4,0.2,0.8,0.2,1.1,0.5l0.5,0.3
			c0.2,0.1,0.3,0.3,0.4,0.4l0.4,0.4l0.3,0.4c1.7,2.1,3.5,4.1,5.4,6l0,0l-1,0.1c1.6-2.6,3.1-5.3,4.4-8.1l0.5-1
			c0.2-0.3,0.3-0.7,0.5-1.1c0.4-0.8,1.2-1.5,2-2c0.9-0.5,1.9-0.5,2.8-0.3c0.9,0.2,1.8,0.6,2.5,1.2c1.5,1.1,2.3,3.4,1.6,5.3l-0.2,0.7
			l-0.2,0.5l-0.5,1.1l-1,2.1c-1.4,2.8-2.9,5.6-4.6,8.2l0,0l-0.3-1.8c1.5,1.2,3,2.4,4.6,3.5c0.8,0.6,1.6,1.1,2.4,1.6l1.2,0.8
			c0.2,0.1,0.4,0.2,0.6,0.4l0.7,0.6c0.9,0.8,1.6,2,1.7,3.2c0.2,1.2-0.1,2.4-0.6,3.5c-0.5,1-1.5,2-2.7,2.4
			C240.5,137.7,239.2,137.4,238.2,136.8z M239,135.3c0.7,0.4,1.5,0.5,2.1,0.2c0.7-0.2,1.2-0.8,1.5-1.5c0.3-0.7,0.4-1.5,0.3-2.3
			c-0.1-0.7-0.5-1.4-1.1-1.9l-0.5-0.3c-0.2-0.1-0.4-0.2-0.6-0.4l-1.3-0.8c-0.9-0.5-1.7-1-2.6-1.6c-1.7-1.1-3.3-2.2-5-3.4l-1-0.8
			l0.7-1.1l0,0c1.7-2.5,3.3-5.1,4.8-7.8l1.1-2l0.5-1l0.3-0.5l0.2-0.4c0.1-0.3,0.1-0.6,0.2-0.8c0-0.3,0-0.6-0.1-0.8
			c-0.1-0.5-0.5-1-0.9-1.4c-0.4-0.4-1-0.7-1.6-0.8c-0.6-0.1-1.2-0.1-1.7,0.1c-0.5,0.2-1,0.6-1.3,1.2c-0.2,0.2-0.3,0.6-0.5,1
			l-0.5,1.1c-1.4,2.8-3,5.5-4.8,8.1l-0.4,0.6l-0.5-0.5l0,0c-1.9-1.9-3.8-4-5.5-6.1l-0.3-0.4l-0.3-0.3c-0.1-0.1-0.2-0.2-0.3-0.3
			l-0.4-0.2c-0.2-0.2-0.5-0.2-0.8-0.4c-0.3-0.1-0.6-0.1-0.8-0.1c-1.1,0-2.3,0.5-3,1.5c-0.8,0.9-0.9,2.1-0.4,3.2
			c0.1,0.3,0.3,0.5,0.5,0.7l0.6,0.8l1.3,1.6c1.7,2,3.6,4,5.5,5.9l0.4,0.4l-0.3,0.4l0,0c-1.6,2-3.2,3.8-4.9,5.6
			c-0.4,0.5-0.9,0.9-1.2,1.3c-0.2,0.2-0.2,0.5-0.4,0.7c-0.1,0.2-0.1,0.5-0.2,0.7c-0.1,1,0.5,2.1,1.3,2.7c0.8,0.7,2,1,3,0.9
			c0.3-0.1,0.5-0.1,0.8-0.2c0.2-0.1,0.5-0.2,0.7-0.4c0.2-0.2,0.4-0.3,0.6-0.5l0.6-0.7c1.7-1.8,3.3-3.6,4.9-5.6l0.4-0.4l0.5,0.3l0,0
			C231.8,131,235.4,133.3,239,135.3z"/>
	</g>
	<g>
		<path d="M206.4,109.9c-2,2.1-3.8,4.4-5.4,6.8h0l-0.1-2.2c1.8,1.8,3.7,3.6,5.7,5.2l1.5,1.2c0.6,0.5,1.2,1.2,1.5,2.1
			c0.4,0.8,0.4,1.8,0.2,2.6c-0.2,0.8-0.6,1.6-1.1,2.2c-0.5,0.6-1.2,1.1-1.9,1.5c-0.4,0.2-0.8,0.3-1.2,0.4c-0.4,0-0.8,0.1-1.2,0
			l-0.6-0.1c-0.2,0-0.4-0.1-0.6-0.2c-0.4-0.1-0.7-0.3-1.1-0.6c-0.6-0.4-1.1-0.8-1.6-1.3c-2-1.7-4-3.5-5.9-5.3l0,0l0.9-0.1l-1.7,2.6
			l-0.8,1.3c-0.3,0.4-0.6,0.9-1,1.3c-0.8,0.8-1.9,1.4-3.1,1.4c-0.6,0-1.2-0.1-1.7-0.4c-0.6-0.2-1-0.6-1.4-1.1
			c-0.8-0.9-1.3-2-1.3-3.2c0-0.6,0.1-1.2,0.4-1.8c0.3-0.5,0.6-0.9,0.9-1.3l3.4-5.2l0,0l0,0.7l-4.2-5c-0.3-0.4-0.7-0.8-1-1.3
			c-0.2-0.3-0.3-0.5-0.5-0.8c-0.1-0.3-0.2-0.6-0.3-0.9c-0.3-1.3,0.1-2.7,0.9-3.6c0.8-1,1.9-1.7,3.2-1.9c1.3-0.2,2.7,0.3,3.6,1.2
			c0.2,0.2,0.5,0.5,0.6,0.7l0.5,0.6l1,1.2l2,2.5l0,0l-1.3,0c1.2-1.2,2.3-2.5,3.5-3.7l1.7-1.9c0.2-0.3,0.6-0.6,1-0.9
			c0.2-0.2,0.4-0.3,0.7-0.4c0.2-0.1,0.5-0.2,0.7-0.3c2-0.6,4.1,0.3,5.4,1.8c0.6,0.8,1.1,1.8,1,2.9
			C207.7,108.2,207.1,109.2,206.4,109.9z M205.1,108.6c0.5-0.5,0.8-1,0.8-1.6c0.1-0.6-0.1-1.2-0.6-1.7c-0.8-1.1-2.3-1.8-3.6-1.3
			c-0.2,0-0.3,0.1-0.5,0.2c-0.1,0.1-0.3,0.1-0.4,0.2c-0.3,0.2-0.5,0.4-0.8,0.8l-1.7,1.8c-1.1,1.2-2.2,2.5-3.3,3.7l-0.7,0.8l-0.6-0.8
			l0,0l-2-2.6l-1-1.3l-0.5-0.6c-0.2-0.2-0.3-0.3-0.5-0.5c-0.6-0.6-1.4-0.9-2.3-0.9c-0.9,0.1-1.7,0.6-2.3,1.3
			c-0.6,0.7-0.9,1.6-0.7,2.4l0.2,0.6l0.3,0.6c0.3,0.4,0.7,0.8,1,1.3l4,5l0.3,0.4l-0.2,0.4l0,0l-3.4,5.1c-0.3,0.4-0.6,0.9-0.8,1.3
			c-0.2,0.4-0.3,0.8-0.3,1.2c0,0.9,0.4,1.8,1,2.4c0.3,0.3,0.6,0.6,1,0.8c0.4,0.2,0.8,0.3,1.3,0.3c0.9,0,1.7-0.4,2.3-1.1
			c0.3-0.3,0.6-0.7,0.8-1.1l0.9-1.3l1.7-2.6l0.4-0.5l0.5,0.4l0,0c2,1.7,4,3.4,6.1,4.9c0.5,0.4,1.1,0.8,1.6,1.1
			c0.2,0.1,0.4,0.3,0.7,0.3c0.1,0,0.2,0.1,0.4,0.1l0.4,0c1,0.1,1.9-0.5,2.5-1.3c0.6-0.8,0.8-1.8,0.4-2.6c-0.1-0.4-0.5-0.7-0.9-1
			l-1.6-1.2c-2.2-1.6-4.2-3.3-6.2-5l-1.3-1.1l1.1-1C200.9,112.7,202.9,110.6,205.1,108.6z"/>
	</g>
	<g>
		<path d="M169.8,111.3c1.9,1.1,3.6,2.2,5.3,3.4c1.2,0.8,2,2.2,2.2,3.6c0.2,1.4-0.1,2.8-0.9,4c-0.4,0.6-0.9,1.1-1.6,1.4
			c-0.3,0.2-0.7,0.2-1.1,0.3c-0.4,0-0.8,0-1.1-0.1c-0.4-0.1-0.7-0.2-1-0.4c-0.3-0.2-0.6-0.3-0.8-0.5l-1.5-1l-5.8-4.2l0.8-0.1
			c-1.2,1.5-2.4,2.9-3.7,4.4c-0.7,0.8-1.8,1.4-2.9,1.4c-1.1,0-2.2-0.4-3-1.1c-0.8-0.7-1.5-1.7-1.7-2.7c-0.2-1.1,0.1-2.3,0.7-3.2
			c0.3-0.5,0.6-0.8,0.9-1.2l0.9-1.1l1.8-2.2l0.1,0.8c-1.8-1.5-3.6-3.1-5.2-4.8l-0.6-0.6c-0.2-0.2-0.4-0.5-0.6-0.8
			c-0.2-0.3-0.3-0.6-0.5-0.9c-0.1-0.3-0.2-0.7-0.3-1c-0.2-1.4,0.2-2.8,1-4c0.8-1.1,2.1-2.1,3.8-2c1.7,0.1,2.8,1.5,3.5,2.2
			c1.6,1.7,3.4,3.2,5.1,4.7l0,0l-1.7,0.1l4.3-5.2c0.2-0.2,0.3-0.4,0.6-0.7c0.2-0.3,0.5-0.5,0.8-0.7c0.3-0.2,0.6-0.4,0.9-0.6
			c0.4-0.1,0.7-0.3,1.1-0.3c1.5-0.3,3,0.3,4,1.2c1.1,0.9,1.8,2.2,1.9,3.7c0,0.4,0,0.7-0.1,1.1c0,0.4-0.2,0.7-0.3,1
			c-0.1,0.4-0.3,0.6-0.5,0.9c-0.2,0.3-0.4,0.5-0.5,0.7C172.7,108.4,171.3,109.8,169.8,111.3z M167.8,111.5c1.4-2,2.9-4,4.5-5.9
			c0.2-0.2,0.4-0.5,0.5-0.7c0.1-0.2,0.3-0.3,0.3-0.5c0.1-0.2,0.2-0.4,0.2-0.6c0-0.2,0.1-0.4,0-0.6c0-0.8-0.5-1.6-1.1-2.1
			c-0.7-0.5-1.5-0.8-2.2-0.7c-0.2,0-0.3,0.1-0.5,0.2c-0.2,0.1-0.3,0.2-0.5,0.3l-0.4,0.4c-0.2,0.2-0.4,0.4-0.5,0.6l-4.3,5.2l-0.8,0.9
			l-0.9-0.8l0,0c-1.8-1.6-3.5-3.3-5.1-5.1l-0.6-0.7c-0.2-0.2-0.3-0.3-0.5-0.5c-0.2-0.2-0.4-0.2-0.5-0.3c-0.2-0.1-0.4-0.1-0.6-0.2
			c-0.7-0.1-1.6,0.4-2.2,1.2c-0.6,0.8-0.9,1.8-0.8,2.7c0,0.2,0.1,0.5,0.2,0.7c0.1,0.2,0.2,0.4,0.3,0.7l0.4,0.6l0.6,0.7
			c1.6,1.7,3.2,3.4,5,5l0.4,0.4l-0.4,0.4l-1.8,2.2l-0.9,1.1c-0.3,0.4-0.7,0.8-0.9,1.1c-0.5,0.7-0.7,1.5-0.5,2.3
			c0.2,0.8,0.6,1.5,1.3,2.1c0.6,0.5,1.5,0.9,2.3,0.8c0.8,0,1.6-0.4,2.1-1c1.2-1.4,2.5-2.9,3.7-4.4l0.3-0.4l0.5,0.3l5.9,4l1.5,1
			c0.3,0.2,0.5,0.3,0.7,0.4c0.2,0.1,0.4,0.2,0.7,0.2c0.9,0.2,1.7-0.3,2.2-1.1c0.5-0.8,0.7-1.9,0.5-2.8c-0.2-1-0.7-1.8-1.5-2.3
			C171.9,114.8,169.8,113.2,167.8,111.5z"/>
	</g>
</g>
<g>
	<g>
		<path class="st1" d="M91,177.7c3.4-1.8,5.7-8.3,6.8-11.9c4.8-15.1,38.9-21,32.6-22.6c-46-11.6-26.7-48-35.5-55.5
			c-14.4-12.3-79.4-4.5-84-3.5c-8.7,2-8.1,49.8-8.9,62.9c-0.5,7.7,2.3,16.8,7.8,22.2s54.9,11.3,61.7,10.5
			C77.4,179.4,85.4,180.7,91,177.7z"/>
	</g>
	<path class="st2" d="M98.8,115.4c1.5,5.9,1.7,15,1.7,17.3c0,5.5,21.2,12.1,28.3,11.3C116.9,140.2,102.4,131.6,98.8,115.4z"/>
	<path class="st2" d="M97,162.6c6.7-6.4,19.8-14.1,27-16.3C105.9,148.7,96.7,153.8,97,162.6z"/>
	<path class="st2" d="M4.3,142.1c1.5,5.9,1.7,15,1.7,17.3c0,5.5,21.2,12.1,28.3,11.3C22.4,167,7.9,158.4,4.3,142.1z"/>
	<g>
		<g>
			<path d="M71.9,178.1c-12-1.8-24.1-2.6-36.1-4.3c-6.5-0.9-13.1-1.9-19.4-3.7c-7.3-2.1-10.6-9-11.8-16.2
				c-1.1-6.5-0.2-13.7-0.1-20.2c0.1-7.7,0.3-15.5,1-23.2c0.6-6.6,1-14.3,4-20.4c1.8-3.7,3.7-3.8,7.5-4.4c12.3-2.1,25-2.8,37.4-2.9
				c6.9-0.1,13.9,0,20.8,0.8c5.2,0.6,11.3,1.2,15.8,4c8,4.9,5.5,18,6.2,25.8c1.1,12.6,7.7,21.9,19.2,27.3c2.3,1.1,4.6,2,7,2.8
				c1.6,0.5,6.5,3.2,6.2,0.6c-0.3-2-0.3-0.7-1.7-0.4c-1.2,0.2-2.5,1-3.7,1.5c-6.4,2.5-12.9,5-18.7,8.8c-3,2-6,4.3-8.1,7.3
				c-2.3,3.2-3,7-4.8,10.5c-2.6,5.1-6.4,5.7-11.7,6.2C78,178.1,74.9,178.4,71.9,178.1c-2.5-0.2-3.3,3.7-0.5,3.9
				c5.7,0.5,13.7,0.3,19-2.2c7.5-3.5,7.1-13.6,12.5-19c5.4-5.4,13-8.4,19.9-11.1c2.3-0.9,9.5-2.3,10.4-5.3c0.5-1.8-0.6-2.3-1.9-2.9
				c-2.2-1.1-5.2-1.4-7.6-2.3c-2.9-1.1-5.8-2.3-8.4-3.9c-6.4-3.8-11-9.4-12.8-16.7c-2.3-9.8,1.3-22.5-5-31.1
				c-6.4-8.8-23.1-8.3-32.7-8.6c-14.5-0.4-29.2,0.4-43.5,2.3c-3.4,0.4-7.7,0.6-10.9,2.2c-4.5,2.3-6,8.5-7,13
				c-3.6,15.7-2.7,32.2-3.2,48.2c-0.3,9,0.8,20.3,8.4,26.5c4.3,3.5,11.5,4.1,16.7,5c15.3,2.7,30.8,3.6,46.2,5.9
				C73.9,182.4,74.6,178.5,71.9,178.1z"/>
		</g>
	</g>
	<g>
		<path d="M19.9,125.5c-1.1-0.7-1.9-1.8-2.5-3.2c-0.6-1.4-0.9-3.1-0.8-5.1c0.1-1.9,0.5-3.6,1.1-4.9c0.7-1.4,1.6-2.4,2.6-3
			c1-0.7,2.1-1,3.3-1c1.7,0,3,0.7,3.9,1.9c0.9,1.2,1.3,3.1,1.2,5.5l-0.2,6l-2.5,0l0-0.9c-0.3,0.3-0.6,0.6-1,0.7
			c-0.4,0.2-0.8,0.3-1.3,0.3c-0.7,0-1.3-0.2-1.9-0.5s-1-0.8-1.3-1.4c-0.3-0.6-0.4-1.3-0.4-2c0.1-1.4,0.6-2.5,1.5-3.3
			c1-0.8,2.4-1.1,4.4-1.1c0-0.9-0.3-1.6-0.8-2.2c-0.5-0.6-1.1-0.8-1.9-0.9c-0.7,0-1.4,0.2-2,0.7c-0.7,0.5-1.2,1.3-1.6,2.3
			c-0.4,1-0.7,2.2-0.7,3.7c-0.1,1.4,0.1,2.7,0.5,3.8c0.4,1.1,1,1.9,1.7,2.5c0.7,0.6,1.5,0.9,2.4,0.9c1.1,0,2.1-0.3,3-1.1l1,2.1
			c-0.6,0.5-1.3,0.8-2,1c-0.7,0.2-1.4,0.3-2.3,0.3C22.2,126.6,21,126.2,19.9,125.5z M25.5,119.3c0.3-0.3,0.5-0.7,0.6-1.3
			c0.1-0.6,0.2-1.3,0.2-2.3c-0.7,0-1.3,0.1-1.8,0.3c-0.5,0.2-0.9,0.4-1.1,0.8s-0.4,0.7-0.4,1.1c0,0.6,0.1,1,0.3,1.3
			c0.2,0.3,0.6,0.5,1,0.5C24.8,119.7,25.2,119.5,25.5,119.3z"/>
		<path d="M34.6,126.4c-0.3-0.2-0.6-0.4-0.7-0.7c-0.2-0.3-0.3-0.7-0.2-1c0-0.4,0.1-0.7,0.3-1c0.2-0.3,0.5-0.6,0.8-0.7
			c0.3-0.2,0.7-0.3,1-0.3c0.4,0,0.8,0.1,1.1,0.3c0.3,0.2,0.6,0.5,0.7,0.8c0.2,0.3,0.3,0.6,0.2,1c0,0.4-0.1,0.7-0.3,1
			c-0.2,0.3-0.5,0.5-0.8,0.7c-0.3,0.2-0.7,0.3-1.1,0.3C35.3,126.7,34.9,126.6,34.6,126.4z M34.4,110.3V110c0-0.8,0.2-1.4,0.6-1.8
			c0.4-0.4,0.8-0.6,1.4-0.5c0.6,0,1,0.2,1.4,0.6s0.5,1,0.4,1.8c0,0.2,0,0.3,0,0.4l-1.1,10.5l-2.4,0L34.4,110.3z"/>
		<path d="M48.5,126.5c-0.8-0.2-1.6-0.5-2.4-0.9c-0.8-0.4-1.4-1-2-1.7l1.7-2.4c0.2,0.1,0.3,0.1,0.4,0.3c0.1,0.1,0.2,0.3,0.2,0.5
			c0,0.1,0.1,0.2,0.1,0.3c0.3,0.4,0.6,0.7,1,0.9c0.3,0.2,0.7,0.4,1.1,0.5l0.2-5c-1.3-0.5-2.3-1.2-3-1.9s-1-1.6-0.9-2.7
			c0-0.7,0.2-1.3,0.6-1.9c0.3-0.6,0.8-1.1,1.4-1.5s1.3-0.7,2.1-0.8l0.1-1.6l2.7,0.1c0.1,0,0.2,0.1,0.1,0.3c0,0.1,0,0.2-0.1,0.3
			c-0.1,0.3-0.1,0.5-0.1,0.6l0,0.4c0.7,0.2,1.4,0.5,2,0.9c0.6,0.4,1.2,1,1.7,1.7l-1.7,2.1c-0.2,0-0.3-0.1-0.3-0.1
			c-0.1-0.1-0.1-0.2-0.2-0.4c0-0.2-0.1-0.3-0.1-0.4c-0.2-0.2-0.4-0.4-0.7-0.6c-0.3-0.2-0.6-0.3-0.9-0.4l-0.2,4.1
			c1.5,0.5,2.5,1.1,3.2,1.9s1,1.7,1,2.9c0,0.8-0.2,1.5-0.6,2.1s-0.9,1.2-1.5,1.7c-0.7,0.5-1.4,0.8-2.3,0.9l-0.1,1.5l-2.7-0.1
			L48.5,126.5z M49.2,112.7c-0.4,0.1-0.7,0.3-0.9,0.5c-0.2,0.3-0.4,0.6-0.4,1c0,0.3,0.1,0.6,0.3,0.9c0.2,0.3,0.5,0.5,0.9,0.7
			L49.2,112.7z M52.9,121.8c0-0.9-0.5-1.6-1.5-2l-0.2,3.9C52.3,123.4,52.8,122.8,52.9,121.8z"/>
		<path d="M57,113.8l3,0.1l0.9,9.2l1.9-7.7l1.9,0l1.5,7.7c0.3-1.7,0.5-3.2,0.7-4.7c0.1-1.4,0.2-2.7,0.3-3.7l0-0.9L70,114
			c-0.3,2.2-0.7,4.4-1.1,6.7c-0.4,2.3-0.9,4.4-1.3,6.3l-2.7,0l-1.4-7.3l-1.8,7.2l-2.8-0.1L57,113.8z"/>
		<path d="M82.2,126.1c-0.7,0.5-1.4,0.9-2.1,1.1c-0.7,0.3-1.5,0.4-2.3,0.4c-1.3,0-2.3-0.4-3-1.3c-0.7-0.8-1-2.2-0.9-4.2
			c0-0.5,0.1-1.1,0.1-1.7l0.4-3.9l-2.7-0.1l0.2-2.5l2.8,0.1L75,111l3.4-0.5l0,0.3c0,0-0.1,0.1-0.1,0.2c-0.1,0.1-0.1,0.2-0.2,0.4
			s-0.1,0.3-0.1,0.5l-0.3,2.3l3.9,0.1l-0.2,2.5l-3.9-0.1l-0.4,3.7c-0.1,0.6-0.1,1.1-0.1,1.5c0,1.2,0.1,2,0.3,2.4
			c0.3,0.5,0.7,0.7,1.3,0.7c0.5,0,1.1-0.1,1.5-0.3c0.5-0.2,1-0.6,1.6-1.1L82.2,126.1z"/>
		<path d="M32.3,151.1l-2.1-1.8l3.3-3.7l-4.2-1.4l1-2.5l3.8,1.9l-0.2-4.3l3.2,0.1l-0.7,4.3l3.8-1.7l0.9,2.4l-4.3,1.3l2.9,3.9
			l-2.2,1.7l-2.5-4.2L32.3,151.1z"/>
		<path d="M45.8,151.4l-2.1-1.8l3.3-3.7l-4.2-1.4l1-2.5l3.8,1.9l-0.2-4.3l3.2,0.1l-0.7,4.3l3.8-1.7l0.9,2.4l-4.3,1.3l2.9,3.9
			l-2.2,1.7l-2.5-4.2L45.8,151.4z"/>
		<path d="M59.4,151.6l-2.1-1.8l3.3-3.7l-4.2-1.4l1-2.5l3.8,1.9l-0.2-4.3l3.2,0.1l-0.7,4.3l3.8-1.7l0.9,2.4l-4.3,1.3L67,150
			l-2.2,1.7l-2.5-4.2L59.4,151.6z"/>
	</g>
</g>
</svg>
