<svg xmlns="http://www.w3.org/2000/svg" viewBox="0 0 362.54 232.48"><defs><style>.cls-1{fill:gray;}.cls-2{fill:#fff;}.cls-3{fill:#d6d6d6;}.cls-4{fill:#b3b3b3;}.cls-5{fill:#999;}.cls-6,.cls-8{fill:#e10b31;}.cls-6{stroke:#000;stroke-miterlimit:10;stroke-width:1.3px;}.cls-7{fill:#903;}.cls-9{fill:#161616;}.cls-10{font-size:43.27px;font-family:Inconsolata-Bold, Inconsolata;font-weight:700;}</style></defs><title>robot-head-2</title><g id="Layer_2" data-name="Layer 2"><g id="Long_Page_cz.2" data-name="Long Page cz.2"><g id="HEAD"><path class="cls-1" d="M79.9,216.34s-3.67,8.87-4.87,15.08c35-18.21,81.27-39.84,116.91-56.45l.33-.06c.24-4.9,2.46-9.62,4-14.16Z"/><path class="cls-2" d="M19.7,83.94c-1.11,2.36-4.32,28.2-17.79,47.49l24.58,69.65c18.06,7,45.16,28.3,48.16,29.37Z"/><path class="cls-3" d="M195.88,158.27c-7.39-17.93-27.09-81.16-31.94-99.87L39.42,97.68,40,99C45.46,119.2,80.5,215,80.5,215l115-55Z"/><path d="M197.76,157.75c-6.6-16.15-11.66-33-16.92-49.65s-10.61-33.33-15-50.22a2,2,0,0,0-2.4-1.37L54.25,91,38.9,95.8a2,2,0,0,0-1.36,2.4c2.35,6,3.93,12.43,6,18.56,3.25,9.7,6.62,19.35,10,29Q63.61,174.37,74,202.86q2.3,6.33,4.6,12.65a2,2,0,0,0,2.87,1.17l103.31-49.41c3.94-1.89,12-3.69,13-8.48.49-2.45-3.28-3.51-3.77-1-.45,2.28,1,.17.12.74a20.26,20.26,0,0,1-2.1,1l-8.07,3.86L156.46,176.5,94.24,206.26l-14.73,7,2.87,1.17c-11.59-31.69-23.12-63.42-33.95-95.38-2.45-7.24-4.34-14.82-7.12-21.92l-1.37,2.4L149.11,65.12l15.35-4.84-2.4-1.36c4.4,16.89,9.74,33.58,15,50.22s10.33,33.5,16.92,49.65C194.93,161.09,198.71,160.08,197.76,157.75Z"/><path class="cls-4" d="M73.49,229.64c-27-61-55-143.08-52.2-145.5C25,87,33.51,93.16,39.42,97.68L78.56,215.75s-2.71,8.49-3.91,14.7Z"/><polygon class="cls-2" points="137.15 50.95 23.13 83.77 39.29 97.35 161.86 58.41 137.15 50.95"/><path d="M38.07,99.55c11.15,39.33,25.31,78.06,40.54,116,.93,2.3,4.71,1.3,3.77-1C67.14,176.57,53,137.84,41.84,98.52c-.69-2.42-4.46-1.39-3.77,1Z"/><path d="M162.59,56.05a243.31,243.31,0,0,1-24.46-6.78c-2.39-.8-3.41,3-1,3.77a242.4,242.4,0,0,0,24.45,6.78c2.45.55,3.49-3.22,1-3.77Z"/><path d="M20.34,85.63c39.48-9,78.23-21.1,117.12-32.32,2.41-.7,1.38-4.47-1-3.77C97.53,60.76,58.78,72.84,19.3,81.86c-2.45.56-1.42,4.33,1,3.77Z"/><path d="M19.91,85.52c4.74,6,12.23,9,18.13,13.55,2,1.52,4.75-1.22,2.77-2.77-5.87-4.56-13.45-7.65-18.14-13.54-1.56-2-4.31.81-2.76,2.76Z"/><path d="M18,83c-2.25,5.23-3.61,10.93-5.44,16.32q-2.43,7.16-5.13,14.22c-1,2.48-1.94,5-3,7.39-1.13,2.72-4.09,7-4.45,10-.21,1.83,1.06,4,1.65,5.69L6.4,150l12.7,36,4.36,12.34c1.15,3.26,1.32,4,4.73,5.81,10,5.28,19.61,11.35,29.09,17.53,5.39,3.51,10.86,8.18,16.85,10.65,2.32,1,3.33-2.82,1-3.77-4.8-2-9.33-5.94-13.65-8.77-8.05-5.28-16.16-10.47-24.52-15.25-1.82-1-3.64-2.06-5.48-3a16.79,16.79,0,0,0-3.19-1.09,7.84,7.84,0,0,1-.82-2.31L23.7,187.29l-12-34L6.52,138.64c-.71-2-2.61-5.22-2.61-7.39,0-.67.65-1.2,1.23-2.17a55.5,55.5,0,0,0,3.1-7.15c2.29-5.49,4.41-11.06,6.39-16.67,2.36-6.67,4-13.84,6.75-20.33,1-2.28-2.38-4.28-3.37-2Z"/><path d="M39.94,99.57,149.11,65.12l15.35-4.84-2.4-1.36c4.4,16.89,9.74,33.58,15,50.22s10.33,33.5,16.92,49.65c.94,2.3,4.72,1.29,3.77-1-6.6-16.15-11.66-33-16.92-49.65s-10.61-33.33-15-50.22a2,2,0,0,0-2.4-1.37L54.25,91,38.9,95.8c-2.39.75-1.36,4.53,1,3.77Z"/><path d="M18.49,84.48c6.4,25,14.43,49.73,23.05,74.09s17.78,49.24,30.27,72.05c1.2,2.21,4.58.24,3.37-2-12.56-23-21.69-47.89-30.36-72.51C36.39,132.23,28.53,108,22.26,83.44c-.62-2.44-4.39-1.41-3.77,1Z"/><path d="M190.58,172.32c-39,18.67-78.51,36.49-116.92,56.44L76.53,231c1.26-4.9,3.58-9.25,5.16-14,.58-1.75-.8.13.38-.58a66.06,66.06,0,0,1,6.06-2.9l26.53-12.69,66.19-31.66,16.05-7.68L194,159.26c-1.72,4.86-3.61,9.51-4.09,14.68l1.44-1.88-.33.06c-2.47.45-1.42,4.22,1,3.77l.33-.06a2,2,0,0,0,1.43-1.89c.44-4.78,2.36-9.15,3.95-13.64.62-1.75-1.47-2.87-2.87-2.2L86.61,209.91c-2.1,1-4.9,1.83-6.77,3.24A5.26,5.26,0,0,0,78.31,215c-2.61,4.46-4.27,10-5.55,14.92a2,2,0,0,0,2.87,2.2c38.41-19.95,77.89-37.76,116.92-56.44C194.82,174.61,192.84,171.24,190.58,172.32Z"/><path class="cls-5" d="M64.05,129.81c4-10,15.77-8.7,25.37-9.29,6.22-.39,13.76-3.22,14.94-5.09,3.52-8.71,13.87-6.7,22.16-8.11,7.31-1.24,15.63-4.86,16.73-6.65,3.31-8.44,13.58-10.66,21.1-7.75s8.63,13.23,5.2,19.65c-5.26,8.46-36,11.86-37.71,15-15,13.29-29.67,8.43-36.32,16.13-7,11-28,11.48-33.25-1.9A14.38,14.38,0,0,1,64.05,129.81Z"/><path d="M105.91,121c3.72,5.47,10.37,9.71,16.49,4.62a9.71,9.71,0,0,0,1.71-15.1c-5.21-3.68-13.21-.15-17.09,4.43A6.52,6.52,0,0,0,105.91,121Z"/><path d="M71.11,139.84c3.63,5.56,10,4.78,15.92,3.46,7.06-1.81,6.78-8.49,4.85-12.88-3.87-8.76-13.77-8.84-19-4.44C71.35,128.11,68.08,135.94,71.11,139.84Z"/><path d="M141.44,109.33c8,11,18.81,6.29,20.87-3.64.86-6.83-6.22-10.28-13.27-9.62-3.71.35-5.94,2.63-7.68,6C140.11,104,140.72,107.1,141.44,109.33Z"/><g id="eyes"><path class="cls-6" d="M146.09,106.63q-2.62,3.06-5.44,6c-3.89,4,1.39,11.18,5.33,7.13,2.44-2.51,4.8-5.06,7.07-7.69l5,3.84c4.48,3.48,9.76-3.59,5.26-7.08l-4.75-3.67a86.76,86.76,0,0,0,5-7.58c2.82-4.88-4-10.44-6.89-5.51a88.54,88.54,0,0,1-5,7.7l-6.69-5.18c-4.49-3.48-9.76,3.59-5.27,7.08Z"/><path class="cls-6" d="M104.83,113.36q4.15,2.67,8.09,5.7a90.93,90.93,0,0,1-6.69,8.76c-3.71,4.29,3.2,9.78,6.89,5.51a93.52,93.52,0,0,0,6.58-8.56q2,1.86,4,3.85c1.67,1.73,4,2.42,6.08.84,1.68-1.31,2.42-4.57.76-6.29-2-2.07-4.06-4-6.17-6q2.19-3.93,4.07-8.07c2.36-5.23-5.65-8.74-8-3.53q-1.37,3-2.91,5.88c-2.39-1.83-4.84-3.58-7.4-5.22C105.37,103.26,100.06,110.31,104.83,113.36Z"/><path class="cls-6" d="M75.2,150.94A100.09,100.09,0,0,0,85,140.47a90.72,90.72,0,0,0,7.82,5.64c4.93,3.17,10.47-4.2,5.5-7.39A92.53,92.53,0,0,1,90.49,133a93.71,93.71,0,0,0,6.28-11c2.61-5.38-5.76-9-8.36-3.69a82.63,82.63,0,0,1-4.81,8.54,89,89,0,0,1-8.31-9.49c-3.6-4.76-10.76.91-7.14,5.7a99.12,99.12,0,0,0,10,11.31,87,87,0,0,1-8.54,9.08C65.33,147.47,70.85,155,75.2,150.94Z"/></g><path class="cls-7" d="M45,1.41c-4.49,23.26-5.06,46.5-3.91,70.11.12,2.5,4,2.52,3.91,0-1.13-23.26-.65-46.16,3.77-69.07.47-2.46-3.3-3.51-3.77-1Z"/><path class="cls-8" d="M53.52.8l57,14.89L50.58,45S47.73,29.79,53.52.8Z"/><path d="M74.55,150.24a98.81,98.81,0,0,0,10-10.17h0l.42-.49.49.4c2.18,1.73,4.42,3.39,6.74,4.92l.87.57c.3.2.56.29.83.45a6.54,6.54,0,0,0,.86.26,8.69,8.69,0,0,0,.89.05,4.54,4.54,0,0,0,3.1-1.73,3.82,3.82,0,0,0,.79-3.35,5.62,5.62,0,0,0-.38-.78,3.62,3.62,0,0,0-.59-.65,14.92,14.92,0,0,0-1.64-1.16q-3.52-2.34-6.82-5h0l-.46-.37.33-.5q2.52-3.81,4.66-7.85l1-2,.51-1c.11-.32.24-.63.33-.94a3.31,3.31,0,0,0-1.23-3.41,4.36,4.36,0,0,0-3.72-.88,4.58,4.58,0,0,0-.89.35,3.61,3.61,0,0,0-.76.59l-.34.35c-.1.13-.17.28-.26.42l-.26.43-.26.52a85.11,85.11,0,0,1-4.56,8.06h0l-.46.73-.64-.61a90,90,0,0,1-7.24-7.75l-.84-1a8.18,8.18,0,0,0-.8-.93,3,3,0,0,0-1.71-1,3,3,0,0,0-1.93.29A3.63,3.63,0,0,0,69,118.3a3.15,3.15,0,0,0-.65,1.81,3.2,3.2,0,0,0,.09.93,4.38,4.38,0,0,0,.41.88l.27.42.41.51.81,1,1.68,2a101.28,101.28,0,0,0,7.2,7.45h0l1.07,1-.94,1.1c-1.48,1.73-3,3.41-4.62,5-.8.8-1.61,1.59-2.44,2.37l-1.26,1.15c-.2.18-.45.38-.61.55s-.28.31-.43.46a3.44,3.44,0,0,0-.73,2.31,4.38,4.38,0,0,0,.9,2.44A3.3,3.3,0,0,0,72.26,151,2.94,2.94,0,0,0,74.55,150.24Zm1.3,1.4A5,5,0,0,1,72,153.07a5.4,5.4,0,0,1-3.55-2,6.58,6.58,0,0,1-1.55-3.67,5.92,5.92,0,0,1,1.08-4l.68-.79c.22-.24.4-.4.6-.6l1.17-1.17c.77-.79,1.52-1.59,2.26-2.4q2.22-2.44,4.24-5l.12,2.11v0a101.1,101.1,0,0,1-7.1-8c-.55-.69-1.1-1.39-1.64-2.1l-.79-1.07-.4-.54-.42-.69a5.49,5.49,0,0,1,.49-6.22A5.79,5.79,0,0,1,69.72,115a5.08,5.08,0,0,1,3.2-.31,5,5,0,0,1,2.73,1.65,9.22,9.22,0,0,1,.87,1.1l.78,1a89.47,89.47,0,0,0,6.8,7.89l-1.1.12h0a82.28,82.28,0,0,0,4.51-7.91l.25-.51.34-.55a5.14,5.14,0,0,1,.35-.55l.46-.48a5.16,5.16,0,0,1,1-.81,5.54,5.54,0,0,1,6.15.68,4.68,4.68,0,0,1,1.68,4.77,11.7,11.7,0,0,1-.43,1.22l-.52,1c-.35.69-.7,1.38-1.07,2.06-1.45,2.72-3,5.37-4.74,7.94l-.14-.87h0q3.27,2.63,6.73,4.94a16.8,16.8,0,0,1,1.8,1.27,5.78,5.78,0,0,1,.8.9,6.29,6.29,0,0,1,.53,1.11,5.13,5.13,0,0,1-1,4.54,5.83,5.83,0,0,1-4,2.23,8,8,0,0,1-1.2-.07,6.14,6.14,0,0,1-1.15-.35,10.81,10.81,0,0,1-1-.54l-.89-.58c-2.35-1.56-4.63-3.24-6.83-5l.91-.09h0A100.7,100.7,0,0,1,75.85,151.64Z"/><path d="M105.41,112.46c2.86,1.71,5.67,3.5,8.6,5.19h0l1.5.86-1.11,1.55q-2.64,3.68-5.62,7.08l-1.49,1.66a2.64,2.64,0,0,0,.35,4,3.5,3.5,0,0,0,3.1.85l.39-.11c.13-.05.24-.14.37-.2a2.74,2.74,0,0,0,.69-.51,8.83,8.83,0,0,0,.72-.75l.73-.82c2-2.19,3.79-4.49,5.52-6.87h0l.45-.62.53.51,2.51,2.45,1.26,1.22a7.53,7.53,0,0,0,1.21,1,3.73,3.73,0,0,0,2.82.63,3.55,3.55,0,0,0,1.32-.62,3.32,3.32,0,0,0,1-1.11,4.47,4.47,0,0,0,.5-2.92,2.75,2.75,0,0,0-.6-1.25c-.35-.38-.81-.8-1.22-1.19l-5-4.82h0l-.38-.35.24-.45q1.74-3.2,3.26-6.51c.24-.54.52-1.11.72-1.65L128,108l.07-.74a3.25,3.25,0,0,0-1.35-2.5,4,4,0,0,0-2.83-.83,3.14,3.14,0,0,0-2.33,1.51c-.12.23-.24.41-.38.68l-.4.83-.8,1.67-1.6,3.34h0l-.52,1.08-.94-.77c-1.45-1.19-3-2.3-4.49-3.39-.78-.54-1.56-1.06-2.35-1.57a11.69,11.69,0,0,0-1.09-.61,4.81,4.81,0,0,0-.54-.16,1.46,1.46,0,0,0-.55-.07,3.83,3.83,0,0,0-3.59,2.35,2.77,2.77,0,0,0-.18,2.06A3.17,3.17,0,0,0,105.41,112.46Zm-1.16,1.8a5.19,5.19,0,0,1-2.12-2.8,4.72,4.72,0,0,1,.38-3.46,6.16,6.16,0,0,1,2.22-2.47,5.36,5.36,0,0,1,3.25-.86,3.07,3.07,0,0,1,.85.13,5.44,5.44,0,0,1,.81.25,10.31,10.31,0,0,1,1.39.77c.8.52,1.59,1.06,2.38,1.6,1.59,1.06,3.13,2.19,4.68,3.31l-1.46.31h0l1.65-3.24.82-1.61.41-.81c.14-.27.35-.62.52-.92a4.91,4.91,0,0,1,3.67-2.22,5.76,5.76,0,0,1,4,1.24,4.87,4.87,0,0,1,1.89,3.79c0,.36-.08.71-.13,1.07s-.22.67-.34,1c-.25.6-.52,1.13-.78,1.69q-1.62,3.32-3.45,6.52l-.13-.8h0l5,4.86c.42.42.83.78,1.27,1.25a3.94,3.94,0,0,1,.89,1.85,5.69,5.69,0,0,1-.64,3.82A4.57,4.57,0,0,1,130,130a4.76,4.76,0,0,1-1.82.85,5.08,5.08,0,0,1-3.81-.8,9.55,9.55,0,0,1-1.43-1.22l-1.24-1.21-2.48-2.41,1-.11h0c-1.6,2.51-3.32,5-5.16,7.32l-.69.89a9.52,9.52,0,0,1-.77.89,4.4,4.4,0,0,1-1,.88,5.8,5.8,0,0,1-.59.36l-.66.24A5.27,5.27,0,0,1,110,136a5.83,5.83,0,0,1-1.38-.14,6.06,6.06,0,0,1-4.23-3.29,4.92,4.92,0,0,1-.44-2.92A5.58,5.58,0,0,1,105.1,127l1.36-1.74q2.67-3.47,5-7.16l.39,2.4h0A50.72,50.72,0,0,0,104.25,114.26Z"/><path d="M147.27,106.51c-1.8,2.29-3.81,4.67-5.86,6.8a3.65,3.65,0,0,0-1.11,2.87,4.65,4.65,0,0,0,1.29,3,2.47,2.47,0,0,0,2.72.7,2.38,2.38,0,0,0,.68-.4,4.77,4.77,0,0,0,.66-.59l1.38-1.45,5.52-5.81.43-.45.47.36c1.7,1.31,3.43,2.69,5.13,3.94a3.22,3.22,0,0,0,2.57.63,3.88,3.88,0,0,0,2.28-1.48,4.12,4.12,0,0,0,.89-2.6,3.34,3.34,0,0,0-1.14-2.4,11.52,11.52,0,0,0-1.2-1l-1.29-1-2.57-2-.49-.38.37-.52c1.51-2.17,2.94-4.4,4.24-6.68l.49-.87.33-.77a7.13,7.13,0,0,0,.18-.8c0-.27,0-.54,0-.8A4.4,4.4,0,0,0,161.7,92a2.89,2.89,0,0,0-2.72-.73,3.23,3.23,0,0,0-.58.31c-.15.18-.36.28-.49.51s-.28.37-.45.68l-.5.89c-1.34,2.34-2.79,4.62-4.33,6.84h0l-.77,1.11-1.08-.84-6-4.68-.74-.57-.59-.37c-.21-.06-.41-.16-.62-.21a2.85,2.85,0,0,0-2.92,1.23,3.4,3.4,0,0,0-.73,2.59c0,.11,0,.22.05.33l.13.3a2.06,2.06,0,0,0,.33.57c.09.21.31.34.47.51a6.54,6.54,0,0,0,.71.6C143.1,102.8,145.26,104.7,147.27,106.51Zm-2.36.24c-2-1.28-3.84-2.49-5.62-3.85a7,7,0,0,1-.75-.62,4.8,4.8,0,0,1-.81-.87,4.68,4.68,0,0,1-.62-1.06l-.22-.58a4.42,4.42,0,0,1-.13-.61A5.88,5.88,0,0,1,138,94.63a5.74,5.74,0,0,1,4.16-2.27,6,6,0,0,1,1.26.1,10.18,10.18,0,0,1,1.18.39q.52.3,1,.63c.3.2.52.39.78.58l6,4.63-1.85.27h0q2.39-3.15,4.49-6.48l.51-.84c.16-.27.46-.65.69-1a5.61,5.61,0,0,1,.94-.87,4.73,4.73,0,0,1,1.2-.57A4.93,4.93,0,0,1,163,90.52a6.35,6.35,0,0,1,2,4.13,11.64,11.64,0,0,1-.05,1.18c-.1.39-.17.78-.3,1.14s-.33.72-.51,1l-.53.86c-1.42,2.28-3,4.48-4.59,6.62l-.13-.9,2.57,2,1.29,1a14.33,14.33,0,0,1,1.3,1.07,4.7,4.7,0,0,1,1.54,3.31,5.38,5.38,0,0,1-1.16,3.44,5.16,5.16,0,0,1-3.06,2,4.51,4.51,0,0,1-3.57-.84c-1.79-1.33-3.45-2.66-5.18-4l.89-.09-5.37,6L146.82,120a6.09,6.09,0,0,1-.81.77,3.84,3.84,0,0,1-1,.65,5,5,0,0,1-1.23.34,4.22,4.22,0,0,1-1.28-.11c-.2-.06-.41-.11-.61-.18l-.55-.28a5.4,5.4,0,0,1-1-.71,6.53,6.53,0,0,1-2-4.18,5.76,5.76,0,0,1,1.57-4.46A63.22,63.22,0,0,1,144.91,106.75Z"/><g id="lips"><path class="cls-5" d="M160.81,157.23s6.74-13.86,4.87-16.55c-2.13-3.07-8.13-1.94-8.13-1.94S156.66,154.12,160.81,157.23Z"/><path class="cls-9" d="M157.54,138.83c-19.75,8.07-43.92,20-68,27.18,0,0-1.84,2.8-1.58,3.94a54.82,54.82,0,0,0,5.89,14.92l1.77.1c23.58-8.76,45.25-14.15,63.37-26.23,3.21-8.28,1.8-14.87.52-19.91Z"/><path d="M156.55,137.15c-22.21,9.7-44.81,18.48-67.5,27-2.32.87-1.32,4.63,1,3.75,23-8.62,45.92-17.53,68.44-27.37,2.28-1,.31-4.35-2-3.36Z"/><path d="M89.41,165.42c-3.27.34-3.66,3.09-3.08,5.91a44.27,44.27,0,0,0,2.7,8.1c.84,2,1.92,6,3.85,7.12,2.82,1.62,7.8-1.17,10.36-2,5.9-2,11.76-4,17.59-6.15a257.78,257.78,0,0,0,32.08-13.86c2.11-1.13,4.67-2.22,6.53-3.76,1.69-1.41,1.85-2.85,2.34-5.09,1.26-5.79,1.73-11.71-.37-17.35-.87-2.33-4.63-1.32-3.75,1a25.17,25.17,0,0,1,.37,15.29c-1.06,3.82-3.73,4.74-7.08,6.53a221.11,221.11,0,0,1-23.35,10.5c-7.65,3-15.39,5.75-23.18,8.37-1.81.61-8.37,3.93-10.1,2.91.64-.73.48-1.47-.46-2.22-.72-1.46-1.36-2.94-1.93-4.46-.25-.67-1.94-7-2.52-7,2.47-.26,2.49-4.15,0-3.88Z"/></g></g><path class="cls-2" d="M243.05,187.89c-4.89-2.32-11.33-6.83-13.18-11.78-7.83-21-63.61-26.49-54.83-29.18,64.13-19.66,37.81-63.25,49.63-74.43C244.15,54.07,333,54,339.59,55.2,361,59,359.05,127.28,358.83,143.91c-.15,10.89-4.28,23.48-11.69,31.46s-66.83,15-76.58,14.41C262.32,189.25,251.14,191.72,243.05,187.89Z"/><path class="cls-3" d="M217.69,105.21c-1.72,8.51-1.3,21.36-1.11,24.55.45,7.79-29.16,18.62-39.18,18C193.79,141.59,213.73,128.41,217.69,105.21Z"/><path class="cls-3" d="M224.42,167.89c-9.87-8.58-29.84-14.58-40.18-17.21C210,152.82,224.22,155.37,224.42,167.89Z"/><path class="cls-3" d="M349.8,137.71c.45,8.85.72,14.23-1.12,24.55-1.36,7.68-27.73,16.17-39.17,18C323.38,176.76,342.16,164.81,349.8,137.71Z"/><path d="M349.54,176.79c14.77-16.75,14.07-41.39,11.68-62.11a246.41,246.41,0,0,0-6-33.78c-2.11-8.14-4.55-18-10.45-24.3-3.52-3.77-7.87-4-12.74-4.33-8.29-.53-16.63-.4-24.92-.12-21,.69-42.71,2.21-63.07,7.76-6.83,1.86-14.55,4.19-19.86,9.13-5,4.66-6.92,11.69-7.53,18.29-.68,7.35-.15,14.78-1.42,22.08-1.61,9.32-6.62,16.85-14.17,22.5a74.81,74.81,0,0,1-18.24,9.54c-2.43.93-11.2,1.94-11.65,6-.51,4.6,9.74,5.78,12.6,6.56,9.61,2.61,19.34,5.29,28.32,9.66,4.29,2.09,8.6,4.53,12,8,3.57,3.62,4.77,8.59,8.49,12.12,6.68,6.34,14,8,22.77,8.36a231.71,231.71,0,0,0,29.91-1.24c19.1-1.75,39.91-3.49,58-10.31a16,16,0,0,0,5.79-3.19,2.72,2.72,0,1,0-3.72-4c-3.3,3.3-10.7,4.26-15.23,5.29-9.47,2.16-19.1,3.67-28.73,4.93C291,185,280.53,186,270.07,186.43c-7.32.32-15.27.86-22.49-.72a22.6,22.6,0,0,1-12.35-8c-2.78-3.6-3.94-7.63-7.42-10.84-6.58-6.09-15.23-9.71-23.57-12.67-7.77-2.77-15.77-4.72-23.68-7a16.27,16.27,0,0,0-3.37-1.07c-.16,0-.54-.35-.68-.3.38-.14-1.07,3.81-1.08,3.8.44.55,8.72-3,9.7-3.32a95,95,0,0,0,10.1-4.5c8.57-4.46,16.53-10.51,21.35-19,3.63-6.44,5-13.68,5.38-21,.67-12.25-1.07-26.44,11.89-32.6,16.47-7.82,36.84-9.18,54.74-10.53,9.49-.72,19-1.13,28.51-1.17,6.2,0,12.75-.27,18.89.78,2,.34,2.08.29,3.65,1.78,2.54,2.41,4.08,6,5.4,9.17,3.91,9.37,6,19.55,7.75,29.52,3.29,18.77,6.42,38.78.91,57.42-1.89,6.41-4.5,12.74-9,17.8C342.11,176.92,347.19,179.46,349.54,176.79Z"/><text class="cls-10" transform="matrix(0.81, -0.09, 0.07, 1, 246.72, 121.68)">a0b2a<tspan x="0" y="39.8">4af30</tspan></text></g></g></svg>