<svg xmlns="http://www.w3.org/2000/svg" viewBox="0 0 24 26.09"><defs><style>.cls-1{fill:#e10b31;}.cls-2{fill:blue;}</style></defs><title>teaming</title><g id="Layer_2" data-name="Layer 2"><g id="Long_Page_cz.1" data-name="Long Page cz.1"><path class="cls-1" d="M5.37,14.31A2.39,2.39,0,1,0,7.75,16.7a2.39,2.39,0,0,0-2.38-2.39Z"/><path class="cls-2" d="M18.63,14.31A2.39,2.39,0,1,0,21,16.7a2.39,2.39,0,0,0-2.39-2.39Z"/><path class="cls-1" d="M8.35,20.42h-6A2.39,2.39,0,0,0,0,22.81v3.28H10.73V22.81A2.38,2.38,0,0,0,8.35,20.42Z"/><path class="cls-2" d="M15.65,20.42h0a2.39,2.39,0,0,0-2.38,2.39v3.28h3.57V20.42Z"/><path class="cls-2" d="M24,22.81a2.39,2.39,0,0,0-2.39-2.39H20.42v5.67H24Z"/><rect class="cls-2" x="18.04" y="20.42" width="1.19" height="5.66"/><path class="cls-1" d="M18.63,0A2.39,2.39,0,1,0,21,2.39,2.39,2.39,0,0,0,18.63,0Z"/><path class="cls-2" d="M5.37,0A2.39,2.39,0,1,0,7.75,2.39,2.39,2.39,0,0,0,5.37,0Z"/><path class="cls-1" d="M15.65,6.11h6A2.39,2.39,0,0,1,24,8.5v3.28H13.27V8.5A2.39,2.39,0,0,1,15.65,6.11Z"/><path class="cls-2" d="M8.35,6.11h0A2.38,2.38,0,0,1,10.73,8.5v3.28H7.16V6.11Z"/><path class="cls-2" d="M0,8.5A2.39,2.39,0,0,1,2.39,6.11H3.58v5.67H0Z"/><rect class="cls-2" x="4.77" y="6.11" width="1.19" height="5.66"/></g></g></svg>