<svg xmlns="http://www.w3.org/2000/svg" viewBox="0 0 303 116.42"><defs><style>.cls-1{fill:#fff;}.cls-2{fill:#fdbd40;}.cls-3{fill:#f89b33;}.cls-4{fill:#d27532;}</style></defs><title>ZTS-logo</title><g id="Layer_2" data-name="Layer 2"><g id="Long_Page_cz.2" data-name="Long Page cz.2"><g id="g4144"><g id="g6503"><g id="g6411"><g id="g4416"><path id="path4418" class="cls-1" d="M147.21,29.63l2-9a.48.48,0,0,1,.54-.54c.17,0,.17,0,.35.18a.56.56,0,0,0,.18.36l2,9Zm7-12.19A2.36,2.36,0,0,0,153,16.37l-1.61-.54c-.54,0-1.08-.18-1.61-.18a5,5,0,0,0-1.62.18,2.87,2.87,0,0,0-1.61.54,2.36,2.36,0,0,0-1.26,1.07,5.46,5.46,0,0,0-.89,1.79l-5,20.81h5.74l1.26-5.92H153L154.21,40H160l-5-20.63a5.08,5.08,0,0,0-.72-2"/></g><g id="g4420"><path id="path4422" class="cls-1" d="M235.46,26.21l7.35,12.73a3.93,3.93,0,0,0,.72.9,1.32,1.32,0,0,0,.89.18h4.49V38.77h0V16.17h-5V30.34c0,.18,0,.36-.18.36a.18.18,0,0,1-.18-.18l-7.71-13.27a2.48,2.48,0,0,0-.54-.72,1.08,1.08,0,0,0-.72-.18H229.9V34.82h0v5.56h5.2V26.57c0-.18,0-.18.18-.18,0-.36.18-.36.18-.18"/></g><g id="g4444"><path id="path4446" class="cls-1" d="M132.11,35.12h-5.92c-.18,0-.36,0-.36-.18a.56.56,0,0,1,.18-.36l9.15-14a1.62,1.62,0,0,0,.18-.9V18.27h0V15.94H119.56V20.6h8.79c.17,0,.35,0,.35.18s0,.18-.18.36l-9,13.62c-.18.36-.36.54-.36.72s-.18.36-.18.72v3.59H135.7V34.94h-3.59Z"/></g><g id="g4448"><path id="path4450" class="cls-1" d="M176.65,16.56V30.91a8,8,0,0,1-.18,2.15,11.53,11.53,0,0,1-.54,1.43,4.53,4.53,0,0,1-1.07.9,4.66,4.66,0,0,1-3.59,0,1.82,1.82,0,0,1-1.07-.9,3.34,3.34,0,0,1-.54-1.43,7.38,7.38,0,0,1-.18-2.15V16h-5.56V20h0V31.09a10.64,10.64,0,0,0,.72,4.48,8.16,8.16,0,0,0,2,2.87,6.18,6.18,0,0,0,2.87,1.43,11.56,11.56,0,0,0,3.59.36,21.91,21.91,0,0,0,3.58-.36,7.05,7.05,0,0,0,2.87-1.43,6.71,6.71,0,0,0,2-2.87,11.18,11.18,0,0,0,.72-4.48V16.2h-5.56Z"/></g><g id="g4452"><path id="path4454" class="cls-1" d="M188.1,15.69v9.86h0v8.61h0V39.9h5.74v-10H203V25.37h-9.14v-5h9.5V15.51H188.1Z"/></g><g id="g4492"><path id="path4494" class="cls-1" d="M214.79,20.74a.47.47,0,0,1,.54-.53c.18,0,.18,0,.36.17a.56.56,0,0,0,.18.36l2,9H213Zm-2.87,13.45h6.64l1.25,5.92h5.74l-5-20.62a4.33,4.33,0,0,0-.89-1.8,2.44,2.44,0,0,0-1.26-1.07l-1.61-.54c-.54,0-1.08-.18-1.62-.18a4.92,4.92,0,0,0-1.61.18,2.9,2.9,0,0,0-1.62.54,3.81,3.81,0,0,0-1.25,1.07,5.63,5.63,0,0,0-.9,1.8l-5,20.62h5.74C210.67,40.11,211.92,34.19,211.92,34.19Z"/></g><g id="g4496"><path id="path4498" class="cls-1" d="M263.14,20.73a.48.48,0,0,1,.54-.54c.18,0,.18,0,.36.18a.56.56,0,0,0,.18.36l2,9h-4.84Zm3.77,13.44,1.25,5.92h5.74l-5-20.62a4.29,4.29,0,0,0-.89-1.79,2.42,2.42,0,0,0-1.26-1.08l-1.61-.54c-.54,0-1.08-.18-1.62-.18a4.92,4.92,0,0,0-1.61.18,2.9,2.9,0,0,0-1.62.54A3.72,3.72,0,0,0,259,17.68a5.58,5.58,0,0,0-.9,1.79l-5,20.62h5.74l1.26-5.92Z"/></g></g><g id="g6427"><g id="g4424"><path id="path4426" class="cls-1" d="M211.24,53.38a3.44,3.44,0,0,1,.9-1.61,3.12,3.12,0,0,1,1.25-.9,5,5,0,0,1,1.61-.18h5.56V47.1h0V45.85H215a12.34,12.34,0,0,0-3.58.54,7.59,7.59,0,0,0-3,1.79,7.27,7.27,0,0,0-2.15,3.23,12.47,12.47,0,0,0-.72,4.84v4.12a17.26,17.26,0,0,0,.72,4.85,10.1,10.1,0,0,0,2.15,3.22,10.49,10.49,0,0,0,3,1.8,11.78,11.78,0,0,0,3.58.53h5.56V69.52h0V66.11h-5.38a5,5,0,0,1-1.61-.18,3.31,3.31,0,0,1-1.26-.89,3.56,3.56,0,0,1-.89-1.62,10.81,10.81,0,0,1-.36-2.69V56.61a8.25,8.25,0,0,1,.18-3.23"/></g><g id="g4456"><path id="path4458" class="cls-1" d="M135.85,46.07h-17.4v4.49h5.92V70.1h5.74V50.56h5.74V50h0V46.61h0Z"/></g><g id="g4460"><path id="path4462" class="cls-1" d="M177.58,65.25h-6.81c-.18,0-.36,0-.36-.18a.56.56,0,0,1,.18-.36l9.14-14a1.59,1.59,0,0,0,.18-.89v-.72h0v-3H164.13v4.66h8.61c.18,0,.36,0,.36.18s0,.18-.18.36l-9,13.63c-.18.36-.36.54-.36.72s-.18.36-.18.71v3.59h16.5V65.07h-2.33Z"/></g><g id="g4464"><path id="path4466" class="cls-1" d="M200.24,45.78h-7.17c-.9,0-1.8.18-2.69.18A6.21,6.21,0,0,0,187.87,47a7.16,7.16,0,0,0-1.8,2.15,9.75,9.75,0,0,0-.71,3.59V63.54a7.17,7.17,0,0,0,.71,3.58,7,7,0,0,0,1.8,2.15,6.21,6.21,0,0,0,2.51,1.08,16.31,16.31,0,0,0,3.05.18h7V65.69h-7.17a2.2,2.2,0,0,1-1.62-.54,2.38,2.38,0,0,1-.54-1.79V60h9.15V55.47h-9.15V52.6a2.39,2.39,0,0,1,.54-1.8,2.24,2.24,0,0,1,1.62-.53h7.35v-.54h0v-3h0v-.9Z"/></g><g id="g4468"><path id="path4470" class="cls-1" d="M225.62,46.69V67h0v3H231v-.54h0V46.15h-5.56v.54Z"/></g><g id="g4488"><path id="path4490" class="cls-1" d="M152.77,53.76a3.48,3.48,0,0,1-.18,1.43,1.8,1.8,0,0,1-.72.9,5.79,5.79,0,0,1-1.43.53,7.42,7.42,0,0,1-2.16.18H146V50.53h2.51a4.78,4.78,0,0,1,3,.72,2.54,2.54,0,0,1,1.08,2.15v.36Zm4.3,4.3a7.47,7.47,0,0,0,1.26-4.12v-.36a7.1,7.1,0,0,0-.72-3.59,8.62,8.62,0,0,0-2-2.33,9.2,9.2,0,0,0-3-1.26,26.69,26.69,0,0,0-3.77-.35h-8.07v4.66h0V67h0v3.22h5.56v-9H149l4.66,8.78h6.1l-5.38-9.86a6,6,0,0,0,2.69-2.15"/></g><g id="g4500"><path id="path4502" class="cls-1" d="M243.39,59.76l2-9a.47.47,0,0,1,.53-.54c.18,0,.18,0,.36.18a.56.56,0,0,0,.18.36l2,9Zm7-12.19a2.42,2.42,0,0,0-1.26-1.08L247.52,46c-.54,0-1.08-.18-1.62-.18a5,5,0,0,0-1.61.18,2.85,2.85,0,0,0-1.61.54,2.42,2.42,0,0,0-1.26,1.08,5.48,5.48,0,0,0-.9,1.79l-5,20.8h5.74l1.26-5.92h6.63l1.26,5.92h5.74l-5-20.62a5,5,0,0,0-.71-2"/></g></g><g id="g6443"><g id="g4428"><path id="path4430" class="cls-1" d="M130.54,87.21l-4.13-2.15a3.6,3.6,0,0,1-1.07-.72,2.48,2.48,0,0,1-.72-.54c-.18-.18-.36-.35-.36-.53s-.18-.36-.18-.54a1.4,1.4,0,0,1,.54-1.26c.36-.36,1.07-.36,2-.36h7.53V76.45h-7.35a12.35,12.35,0,0,0-4,.54,6.6,6.6,0,0,0-2.51,1.26,5.08,5.08,0,0,0-1.43,2,5.65,5.65,0,0,0-.36,2.51,4.92,4.92,0,0,0,.18,1.61l.54,1.62a11.31,11.31,0,0,0,1.07,1.43,14.7,14.7,0,0,0,1.8,1.43l4.48,2.69a4.39,4.39,0,0,1,1.61,1.26,2.6,2.6,0,0,1,.36,1.26,2.68,2.68,0,0,1-.54,1.79,3.33,3.33,0,0,1-2.33.54h-6.81V101h7.35a13.52,13.52,0,0,0,4.13-.54,6.91,6.91,0,0,0,2.69-1.61,4.7,4.7,0,0,0,1.43-2.33A6.34,6.34,0,0,0,135,94a8.12,8.12,0,0,0-.9-3.59,8,8,0,0,0-3.58-3.23"/></g><g id="g4432"><path id="path4434" class="cls-1" d="M172.92,84.24a3.51,3.51,0,0,1-.18,1.44,1.82,1.82,0,0,1-.72.89,6.16,6.16,0,0,1-1.43.54,7.42,7.42,0,0,1-2.16.18H166.1V81h2.51a4.78,4.78,0,0,1,3,.72,2.56,2.56,0,0,1,1.08,2.15v.36Zm4.3,4.3a7.45,7.45,0,0,0,1.26-4.12v-.36a7.06,7.06,0,0,0-.72-3.58,8.67,8.67,0,0,0-2-2.34,9.4,9.4,0,0,0-3-1.25,26.71,26.71,0,0,0-3.77-.36H160.9v4.66h0V97.51h0v3.23h5.56v-9h2.69l4.66,8.79h6.1l-5.38-9.86a6,6,0,0,0,2.69-2.16"/></g><g id="g4436"><path id="path4438" class="cls-1" d="M196.58,90.48a8.5,8.5,0,0,1-.9,4.3,4.32,4.32,0,0,1-6.1,0c-.72-.89-.89-2.33-.89-4.3v-4a8.55,8.55,0,0,1,.89-4.3,4.32,4.32,0,0,1,6.1,0c.72.9.9,2.33.9,4.3Zm2.69-11.84a6.69,6.69,0,0,0-3.05-1.79,11.9,11.9,0,0,0-3.77-.54,12.66,12.66,0,0,0-3.76.54,7.64,7.64,0,0,0-3.05,1.79,7.56,7.56,0,0,0-2,3.23,12.72,12.72,0,0,0-.71,4.84v3.77a13.92,13.92,0,0,0,.71,4.84,14,14,0,0,0,2,3.23,6.59,6.59,0,0,0,3.05,1.79,11.84,11.84,0,0,0,3.76.54,12.72,12.72,0,0,0,3.77-.54,7.77,7.77,0,0,0,3.05-1.79,7.58,7.58,0,0,0,2-3.23,12.47,12.47,0,0,0,.72-4.84V86.71a13.72,13.72,0,0,0-.72-4.84,7.64,7.64,0,0,0-2-3.23"/></g><g id="g4440"><path id="path4442" class="cls-1" d="M278.72,84.34a3.59,3.59,0,0,1-.89,2.51,5.34,5.34,0,0,1-3.23.89h-2.69V80.93h2.69a4.8,4.8,0,0,1,3,.72,2.8,2.8,0,0,1,1.07,2.51Zm2.51-6.46a9,9,0,0,0-3.05-1.25,21.91,21.91,0,0,0-3.58-.36h-8.07v4.66h0v19.73h5.56V92.05h2.69a24.13,24.13,0,0,0,3.58-.36,9,9,0,0,0,3.05-1.26,6.51,6.51,0,0,0,2.15-2.33,8.28,8.28,0,0,0,.9-3.76V84a8.32,8.32,0,0,0-.9-3.77,14.27,14.27,0,0,0-2.33-2.33"/></g><g id="g4472"><path id="path4474" class="cls-1" d="M156,76.56H138.78V81h5.74v19.55h5.74V81H156V80.5h0V77.1h0Z"/></g><g id="g4476"><path id="path4478" class="cls-1" d="M222.27,76.56h-.72V90.72c0,.18,0,.36-.18.36a.18.18,0,0,1-.18-.18l-7.71-13.27a2.56,2.56,0,0,0-.54-.71,1.06,1.06,0,0,0-.71-.18h-4.49v2.87h0v21.16h5.2V87c0-.18,0-.18.18-.18a.56.56,0,0,1,.36.18l7.35,12.73a3.93,3.93,0,0,0,.72.9,1.35,1.35,0,0,0,.9.18h4.3V99.51h0V76.74h-4.48Z"/></g><g id="g4480"><path id="path4482" class="cls-1" d="M260.77,95.22h-5v5.38H261v-.54h0V95.93h0v-.71Z"/></g><g id="g4484"><path id="path4486" class="cls-1" d="M302.28,96.09h-5.56a2.19,2.19,0,0,1-1.61-.54,2.39,2.39,0,0,1-.54-1.8V76.36H289V93.93a7.1,7.1,0,0,0,.72,3.59,5.32,5.32,0,0,0,1.79,2.15,6.33,6.33,0,0,0,2.51,1.08,16.41,16.41,0,0,0,3.05.18H303V96.09Z"/></g><g id="g4504"><path id="path4506" class="cls-1" d="M239,90.24l2-9a.48.48,0,0,1,.54-.54c.18,0,.18,0,.36.18a.56.56,0,0,0,.18.36l2,9Zm7-12.19A2.4,2.4,0,0,0,244.72,77l-1.62-.53c-.53,0-1.07-.18-1.61-.18a4.89,4.89,0,0,0-1.61.18,2.89,2.89,0,0,0-1.62.53A2.4,2.4,0,0,0,237,78.05a5.68,5.68,0,0,0-.9,1.79l-5,20.8h5.74l1.25-5.91h6.64l1.25,5.91h5.74l-5-20.62a5.08,5.08,0,0,0-.72-2"/></g></g></g><path id="path4878" class="cls-2" d="M52.49,0,14.09,10.35S9,37.45,9,49.87c0,19.76.94,31.25,43.48,56.28"/><g id="g4880"><path id="path4882" class="cls-3" d="M52.5,0,90.89,10.35S96,37.46,96,49.88C96,69.64,95,81.12,52.5,106.15"/></g><g id="g4884"><path id="path4886" class="cls-1" d="M65.71,103.48H57.43a5.09,5.09,0,0,0-10.17,0H39a13.37,13.37,0,0,1,26.73,0"/></g><g id="g4888"><path id="path4890" class="cls-1" d="M31.39,97.33l-7.9-2.26A30.27,30.27,0,0,1,52.28,73.61,29.64,29.64,0,0,1,80.89,94.88L73,97.33a21.73,21.73,0,0,0-41.6,0"/></g><g id="g4896"><path id="path4898" class="cls-4" d="M99.94,19.87l-8.1-2.45C93.54,26.27,96,41.51,96,49.79,96,69.55,95,80.85,52.7,106.07v.18h-.38v-.18C10,81,9,69.55,9,49.79c0-8.47,2.26-23.52,3.77-32.37L4.71,19.87S0,34.93,0,49.61c0,23.33,2.07,36.88,52.13,66.62v.19h.38v-.19c50.06-29.74,52.13-43.29,52.13-66.62,0-14.68-4.7-29.74-4.7-29.74"/></g></g></g></g></svg>